# Exported from Wings 3D 1.5.4
mtllib LLV_A_LFO_1_Collider.mtl
o LLV_A_LFO_1_Collider1
#32 vertices, 18 faces
v 2.50000000 5.44250000 -0.49728092
v 2.50000000 5.44250000 0.49728092
v 2.11939766 5.44250000 1.41613624
v 1.41613624 5.44250000 2.11939766
v 0.49728092 5.44250000 2.50000000
v -0.49728092 5.44250000 2.50000000
v -1.41613624 5.44250000 2.11939766
v -2.11939766 5.44250000 1.41613624
v -2.50000000 5.44250000 0.49728092
v -2.50000000 5.44250000 -0.49728092
v -2.11939766 5.44250000 -1.41613624
v -1.41613624 5.44250000 -2.11939766
v -0.49728092 5.44250000 -2.50000000
v 0.49728092 5.44250000 -2.50000000
v 1.41613624 5.44250000 -2.11939766
v 2.11939766 5.44250000 -1.41613624
v 2.50000000 2.94250000 -0.49728092
v 2.50000000 2.94250000 0.49728092
v 2.11939766 2.94250000 1.41613624
v 1.41613624 2.94250000 2.11939766
v 0.49728092 2.94250000 2.50000000
v -0.49728092 2.94250000 2.50000000
v -1.41613624 2.94250000 2.11939766
v -2.11939766 2.94250000 1.41613624
v -2.50000000 2.94250000 0.49728092
v -2.50000000 2.94250000 -0.49728092
v -2.11939766 2.94250000 -1.41613624
v -1.41613624 2.94250000 -2.11939766
v -0.49728092 2.94250000 -2.50000000
v 0.49728092 2.94250000 -2.50000000
v 1.41613624 2.94250000 -2.11939766
v 2.11939766 2.94250000 -1.41613624
vn 0.0000000e+0 1.00000000 2.2325872e-17
vn 0.92387953 1.1162936e-17 -0.38268343
vn 1.00000000 0.0000000e+0 0.0000000e+0
vn 0.0000000e+0 1.00000000 2.2325872e-17
vn 0.92387953 0.0000000e+0 0.38268343
vn 1.00000000 0.0000000e+0 0.0000000e+0
vn 0.0000000e+0 1.00000000 2.2325872e-17
vn 0.70710678 0.0000000e+0 0.70710678
vn 0.92387953 0.0000000e+0 0.38268343
vn 0.0000000e+0 1.00000000 2.2325872e-17
vn 0.38268343 0.0000000e+0 0.92387953
vn 0.70710678 0.0000000e+0 0.70710678
vn 0.0000000e+0 1.00000000 2.2325872e-17
vn 0.0000000e+0 0.0000000e+0 1.00000000
vn 0.38268343 0.0000000e+0 0.92387953
vn 0.0000000e+0 1.00000000 2.2325872e-17
vn -0.38268343 0.0000000e+0 0.92387953
vn 0.0000000e+0 0.0000000e+0 1.00000000
vn 0.0000000e+0 1.00000000 2.2325872e-17
vn -0.70710678 0.0000000e+0 0.70710678
vn -0.38268343 0.0000000e+0 0.92387953
vn 0.0000000e+0 1.00000000 2.2325872e-17
vn -0.92387953 0.0000000e+0 0.38268343
vn -0.70710678 0.0000000e+0 0.70710678
vn 0.0000000e+0 1.00000000 2.2325872e-17
vn -1.00000000 0.0000000e+0 0.0000000e+0
vn -0.92387953 0.0000000e+0 0.38268343
vn 0.0000000e+0 1.00000000 2.2325872e-17
vn -0.92387953 1.1162936e-17 -0.38268343
vn -1.00000000 0.0000000e+0 0.0000000e+0
vn 0.0000000e+0 1.00000000 2.2325872e-17
vn -0.70710678 0.0000000e+0 -0.70710678
vn -0.92387953 1.1162936e-17 -0.38268343
vn 0.0000000e+0 1.00000000 2.2325872e-17
vn -0.38268343 0.0000000e+0 -0.92387953
vn -0.70710678 0.0000000e+0 -0.70710678
vn 0.0000000e+0 1.00000000 2.2325872e-17
vn 0.0000000e+0 0.0000000e+0 -1.00000000
vn -0.38268343 0.0000000e+0 -0.92387953
vn 0.0000000e+0 1.00000000 2.2325872e-17
vn 0.38268343 0.0000000e+0 -0.92387953
vn 0.0000000e+0 0.0000000e+0 -1.00000000
vn 0.0000000e+0 1.00000000 2.2325872e-17
vn 0.70710678 0.0000000e+0 -0.70710678
vn 0.38268343 0.0000000e+0 -0.92387953
vn 0.0000000e+0 1.00000000 2.2325872e-17
vn 0.92387953 1.1162936e-17 -0.38268343
vn 0.70710678 0.0000000e+0 -0.70710678
vn 0.92387953 1.1162936e-17 -0.38268343
vn 1.00000000 0.0000000e+0 0.0000000e+0
vn 0.0000000e+0 -1.00000000 -1.2279230e-16
vn 0.92387953 0.0000000e+0 0.38268343
vn 1.00000000 0.0000000e+0 0.0000000e+0
vn 0.0000000e+0 -1.00000000 -1.2279230e-16
vn 0.70710678 0.0000000e+0 0.70710678
vn 0.92387953 0.0000000e+0 0.38268343
vn 0.0000000e+0 -1.00000000 -1.2279230e-16
vn 0.38268343 0.0000000e+0 0.92387953
vn 0.70710678 0.0000000e+0 0.70710678
vn 0.0000000e+0 -1.00000000 -1.2279230e-16
vn 0.0000000e+0 0.0000000e+0 1.00000000
vn 0.38268343 0.0000000e+0 0.92387953
vn 0.0000000e+0 -1.00000000 -1.2279230e-16
vn -0.38268343 0.0000000e+0 0.92387953
vn 0.0000000e+0 0.0000000e+0 1.00000000
vn 0.0000000e+0 -1.00000000 -1.2279230e-16
vn -0.70710678 0.0000000e+0 0.70710678
vn -0.38268343 0.0000000e+0 0.92387953
vn 0.0000000e+0 -1.00000000 -1.2279230e-16
vn -0.92387953 0.0000000e+0 0.38268343
vn -0.70710678 0.0000000e+0 0.70710678
vn 0.0000000e+0 -1.00000000 -1.2279230e-16
vn -1.00000000 0.0000000e+0 0.0000000e+0
vn -0.92387953 0.0000000e+0 0.38268343
vn 0.0000000e+0 -1.00000000 -1.2279230e-16
vn -0.92387953 1.1162936e-17 -0.38268343
vn -1.00000000 0.0000000e+0 0.0000000e+0
vn 0.0000000e+0 -1.00000000 -1.2279230e-16
vn -0.70710678 0.0000000e+0 -0.70710678
vn -0.92387953 1.1162936e-17 -0.38268343
vn 0.0000000e+0 -1.00000000 -1.2279230e-16
vn -0.38268343 0.0000000e+0 -0.92387953
vn -0.70710678 0.0000000e+0 -0.70710678
vn 0.0000000e+0 -1.00000000 -1.2279230e-16
vn 0.0000000e+0 0.0000000e+0 -1.00000000
vn -0.38268343 0.0000000e+0 -0.92387953
vn 0.0000000e+0 -1.00000000 -1.2279230e-16
vn 0.38268343 0.0000000e+0 -0.92387953
vn 0.0000000e+0 0.0000000e+0 -1.00000000
vn 0.0000000e+0 -1.00000000 -1.2279230e-16
vn 0.70710678 0.0000000e+0 -0.70710678
vn 0.38268343 0.0000000e+0 -0.92387953
vn 0.0000000e+0 -1.00000000 -1.2279230e-16
vn 0.92387953 1.1162936e-17 -0.38268343
vn 0.70710678 0.0000000e+0 -0.70710678
vn 0.0000000e+0 -1.00000000 -1.2279230e-16
g LLV_A_LFO_1_Collider1_default
usemtl default
s 1
f 2//6 18//53 17//50 1//3
f 4//12 20//59 19//55 3//8
f 6//18 22//65 21//61 5//14
f 8//24 24//71 23//67 7//20
f 11//33 27//80 26//76 10//29
f 13//39 29//86 28//82 12//35
f 16//48 32//95 31//91 15//44
s 2
f 1//2 17//49 32//94 16//47
f 3//9 19//56 18//52 2//5
f 5//15 21//62 20//58 4//11
f 7//21 23//68 22//64 6//17
f 9//27 25//74 24//70 8//23
f 12//36 28//83 27//79 11//32
f 14//42 30//89 29//85 13//38
s 3
f 1//1 16//46 15//43 14//40 13//37 12//34 11//31 10//28 9//25 8//22 7//19 6//16 5//13 4//10 3//7 2//4
f 18//54 19//57 20//60 21//63 22//66 23//69 24//72 25//75 26//78 27//81 28//84 29//87 30//90 31//93 32//96 17//51
s 4
f 10//30 26//77 25//73 9//26
f 15//45 31//92 30//88 14//41
o LLV_A_LFO_1_Collider2
#48 vertices, 34 faces
v 2.50000000 2.94250000 -0.49728092
v 2.50000000 2.94250000 0.49728092
v 2.11939766 2.94250000 1.41613624
v 1.41613624 2.94250000 2.11939766
v 0.49728092 2.94250000 2.50000000
v -0.49728092 2.94250000 2.50000000
v -1.41613624 2.94250000 2.11939766
v -2.11939766 2.94250000 1.41613624
v -2.50000000 2.94250000 0.49728092
v -2.50000000 2.94250000 -0.49728092
v -2.11939766 2.94250000 -1.41613624
v -1.41613624 2.94250000 -2.11939766
v -0.49728092 2.94250000 -2.50000000
v 0.49728092 2.94250000 -2.50000000
v 1.41613624 2.94250000 -2.11939766
v 2.11939766 2.94250000 -1.41613624
v 3.12500000 -3.48250000 -0.62160115
v 3.12500000 -3.48250000 0.62160115
v 2.64924708 -3.48250000 1.77017030
v 1.77017030 -3.48250000 2.64924708
v 0.62160115 -3.48250000 3.12500000
v -0.62160115 -3.48250000 3.12500000
v -1.77017030 -3.48250000 2.64924708
v -2.64924708 -3.48250000 1.77017030
v -3.12500000 -3.48250000 0.62160115
v -3.12500000 -3.48250000 -0.62160115
v -2.64924708 -3.48250000 -1.77017030
v -1.77017030 -3.48250000 -2.64924708
v -0.62160115 -3.48250000 -3.12500000
v 0.62160115 -3.48250000 -3.12500000
v 1.77017030 -3.48250000 -2.64924708
v 2.64924708 -3.48250000 -1.77017030
v 3.12500000 -5.44250000 -0.62160115
v 3.12500000 -5.44250000 0.62160115
v 2.64924708 -5.44250000 1.77017030
v 1.77017030 -5.44250000 2.64924708
v 0.62160115 -5.44250000 3.12500000
v -0.62160115 -5.44250000 3.12500000
v -1.77017030 -5.44250000 2.64924708
v -2.64924708 -5.44250000 1.77017030
v -3.12500000 -5.44250000 0.62160115
v -3.12500000 -5.44250000 -0.62160115
v -2.64924708 -5.44250000 -1.77017030
v -1.77017030 -5.44250000 -2.64924708
v -0.62160115 -5.44250000 -3.12500000
v 0.62160115 -5.44250000 -3.12500000
v 1.77017030 -5.44250000 -2.64924708
v 2.64924708 -5.44250000 -1.77017030
vn 0.99530198 9.6819259e-2 0.0000000e+0
vn 0.91953913 9.6819259e-2 -0.38088558
vn 0.0000000e+0 1.00000000 -1.2279230e-16
vn 0.99530198 9.6819259e-2 0.0000000e+0
vn 0.91953913 9.6819259e-2 0.38088558
vn 0.0000000e+0 1.00000000 -1.2279230e-16
vn 0.91953913 9.6819259e-2 0.38088558
vn 0.70378478 9.6819259e-2 0.70378478
vn 0.0000000e+0 1.00000000 -1.2279230e-16
vn 0.70378478 9.6819259e-2 0.70378478
vn 0.38088558 9.6819259e-2 0.91953913
vn 0.0000000e+0 1.00000000 -1.2279230e-16
vn 0.38088558 9.6819259e-2 0.91953913
vn 0.0000000e+0 9.6819259e-2 0.99530198
vn 0.0000000e+0 1.00000000 -1.2279230e-16
vn 0.0000000e+0 9.6819259e-2 0.99530198
vn -0.38088558 9.6819259e-2 0.91953913
vn 0.0000000e+0 1.00000000 -1.2279230e-16
vn -0.38088558 9.6819259e-2 0.91953913
vn -0.70378478 9.6819259e-2 0.70378478
vn 0.0000000e+0 1.00000000 -1.2279230e-16
vn -0.70378478 9.6819259e-2 0.70378478
vn -0.91953913 9.6819259e-2 0.38088558
vn 0.0000000e+0 1.00000000 -1.2279230e-16
vn -0.91953913 9.6819259e-2 0.38088558
vn -0.99530198 9.6819259e-2 0.0000000e+0
vn 0.0000000e+0 1.00000000 -1.2279230e-16
vn -0.99530198 9.6819259e-2 0.0000000e+0
vn -0.91953913 9.6819259e-2 -0.38088558
vn 0.0000000e+0 1.00000000 -1.2279230e-16
vn -0.91953913 9.6819259e-2 -0.38088558
vn -0.70378478 9.6819259e-2 -0.70378478
vn 0.0000000e+0 1.00000000 -1.2279230e-16
vn -0.70378478 9.6819259e-2 -0.70378478
vn -0.38088558 9.6819259e-2 -0.91953913
vn 0.0000000e+0 1.00000000 -1.2279230e-16
vn -0.38088558 9.6819259e-2 -0.91953913
vn 0.0000000e+0 9.6819259e-2 -0.99530198
vn 0.0000000e+0 1.00000000 -1.2279230e-16
vn 0.0000000e+0 9.6819259e-2 -0.99530198
vn 0.38088558 9.6819259e-2 -0.91953913
vn 0.0000000e+0 1.00000000 -1.2279230e-16
vn 0.38088558 9.6819259e-2 -0.91953913
vn 0.70378478 9.6819259e-2 -0.70378478
vn 0.0000000e+0 1.00000000 -1.2279230e-16
vn 0.70378478 9.6819259e-2 -0.70378478
vn 0.91953913 9.6819259e-2 -0.38088558
vn 0.0000000e+0 1.00000000 -1.2279230e-16
vn 0.99530198 9.6819259e-2 0.0000000e+0
vn 0.91953913 9.6819259e-2 -0.38088558
vn 1.00000000 0.0000000e+0 0.0000000e+0
vn 0.92387953 -2.2781502e-17 -0.38268343
vn 0.99530198 9.6819259e-2 0.0000000e+0
vn 0.91953913 9.6819259e-2 0.38088558
vn 1.00000000 0.0000000e+0 0.0000000e+0
vn 0.92387953 0.0000000e+0 0.38268343
vn 0.91953913 9.6819259e-2 0.38088558
vn 0.70378478 9.6819259e-2 0.70378478
vn 0.92387953 0.0000000e+0 0.38268343
vn 0.70710678 4.5563005e-17 0.70710678
vn 0.70378478 9.6819259e-2 0.70378478
vn 0.38088558 9.6819259e-2 0.91953913
vn 0.70710678 4.5563005e-17 0.70710678
vn 0.38268343 4.5563005e-17 0.92387953
vn 0.38088558 9.6819259e-2 0.91953913
vn 0.0000000e+0 9.6819259e-2 0.99530198
vn 0.38268343 4.5563005e-17 0.92387953
vn 0.0000000e+0 0.0000000e+0 1.00000000
vn 0.0000000e+0 9.6819259e-2 0.99530198
vn -0.38088558 9.6819259e-2 0.91953913
vn 0.0000000e+0 0.0000000e+0 1.00000000
vn -0.38268343 -4.5563005e-17 0.92387953
vn -0.38088558 9.6819259e-2 0.91953913
vn -0.70378478 9.6819259e-2 0.70378478
vn -0.38268343 -4.5563005e-17 0.92387953
vn -0.70710678 -2.2781502e-17 0.70710678
vn -0.70378478 9.6819259e-2 0.70378478
vn -0.91953913 9.6819259e-2 0.38088558
vn -0.70710678 -2.2781502e-17 0.70710678
vn -0.92387953 0.0000000e+0 0.38268343
vn -0.91953913 9.6819259e-2 0.38088558
vn -0.99530198 9.6819259e-2 0.0000000e+0
vn -0.92387953 0.0000000e+0 0.38268343
vn -1.00000000 0.0000000e+0 0.0000000e+0
vn -0.99530198 9.6819259e-2 0.0000000e+0
vn -0.91953913 9.6819259e-2 -0.38088558
vn -1.00000000 0.0000000e+0 0.0000000e+0
vn -0.92387953 -2.2781502e-17 -0.38268343
vn -0.91953913 9.6819259e-2 -0.38088558
vn -0.70378478 9.6819259e-2 -0.70378478
vn -0.92387953 -2.2781502e-17 -0.38268343
vn -0.70710678 -4.5563005e-17 -0.70710678
vn -0.70378478 9.6819259e-2 -0.70378478
vn -0.38088558 9.6819259e-2 -0.91953913
vn -0.70710678 -4.5563005e-17 -0.70710678
vn -0.38268343 -4.5563005e-17 -0.92387953
vn -0.38088558 9.6819259e-2 -0.91953913
vn 0.0000000e+0 9.6819259e-2 -0.99530198
vn -0.38268343 -4.5563005e-17 -0.92387953
vn 0.0000000e+0 0.0000000e+0 -1.00000000
vn 0.0000000e+0 9.6819259e-2 -0.99530198
vn 0.38088558 9.6819259e-2 -0.91953913
vn 0.0000000e+0 0.0000000e+0 -1.00000000
vn 0.38268343 4.5563005e-17 -0.92387953
vn 0.38088558 9.6819259e-2 -0.91953913
vn 0.70378478 9.6819259e-2 -0.70378478
vn 0.38268343 4.5563005e-17 -0.92387953
vn 0.70710678 4.5563005e-17 -0.70710678
vn 0.70378478 9.6819259e-2 -0.70378478
vn 0.91953913 9.6819259e-2 -0.38088558
vn 0.70710678 4.5563005e-17 -0.70710678
vn 0.92387953 -2.2781502e-17 -0.38268343
vn 0.0000000e+0 -1.00000000 -1.2859702e-16
vn 1.00000000 0.0000000e+0 0.0000000e+0
vn 0.92387953 -2.2781502e-17 -0.38268343
vn 0.0000000e+0 -1.00000000 -1.2859702e-16
vn 1.00000000 0.0000000e+0 0.0000000e+0
vn 0.92387953 0.0000000e+0 0.38268343
vn 0.0000000e+0 -1.00000000 -1.2859702e-16
vn 0.92387953 0.0000000e+0 0.38268343
vn 0.70710678 4.5563005e-17 0.70710678
vn 0.0000000e+0 -1.00000000 -1.2859702e-16
vn 0.70710678 4.5563005e-17 0.70710678
vn 0.38268343 4.5563005e-17 0.92387953
vn 0.0000000e+0 -1.00000000 -1.2859702e-16
vn 0.38268343 4.5563005e-17 0.92387953
vn 0.0000000e+0 0.0000000e+0 1.00000000
vn 0.0000000e+0 -1.00000000 -1.2859702e-16
vn 0.0000000e+0 0.0000000e+0 1.00000000
vn -0.38268343 -4.5563005e-17 0.92387953
vn 0.0000000e+0 -1.00000000 -1.2859702e-16
vn -0.38268343 -4.5563005e-17 0.92387953
vn -0.70710678 -2.2781502e-17 0.70710678
vn 0.0000000e+0 -1.00000000 -1.2859702e-16
vn -0.70710678 -2.2781502e-17 0.70710678
vn -0.92387953 0.0000000e+0 0.38268343
vn 0.0000000e+0 -1.00000000 -1.2859702e-16
vn -0.92387953 0.0000000e+0 0.38268343
vn -1.00000000 0.0000000e+0 0.0000000e+0
vn 0.0000000e+0 -1.00000000 -1.2859702e-16
vn -1.00000000 0.0000000e+0 0.0000000e+0
vn -0.92387953 -2.2781502e-17 -0.38268343
vn 0.0000000e+0 -1.00000000 -1.2859702e-16
vn -0.92387953 -2.2781502e-17 -0.38268343
vn -0.70710678 -4.5563005e-17 -0.70710678
vn 0.0000000e+0 -1.00000000 -1.2859702e-16
vn -0.70710678 -4.5563005e-17 -0.70710678
vn -0.38268343 -4.5563005e-17 -0.92387953
vn 0.0000000e+0 -1.00000000 -1.2859702e-16
vn -0.38268343 -4.5563005e-17 -0.92387953
vn 0.0000000e+0 0.0000000e+0 -1.00000000
vn 0.0000000e+0 -1.00000000 -1.2859702e-16
vn 0.0000000e+0 0.0000000e+0 -1.00000000
vn 0.38268343 4.5563005e-17 -0.92387953
vn 0.0000000e+0 -1.00000000 -1.2859702e-16
vn 0.38268343 4.5563005e-17 -0.92387953
vn 0.70710678 4.5563005e-17 -0.70710678
vn 0.0000000e+0 -1.00000000 -1.2859702e-16
vn 0.70710678 4.5563005e-17 -0.70710678
vn 0.92387953 -2.2781502e-17 -0.38268343
g LLV_A_LFO_1_Collider2_default
usemtl default
s 1
f 33//98 49//146 64//206 48//143
f 35//103 51//153 50//150 34//101
f 38//112 54//165 53//162 37//110
f 40//118 56//173 55//170 39//116
f 42//124 58//181 57//178 41//122
f 45//133 61//193 60//190 44//131
f 50//151 66//213 65//210 49//147
f 52//159 68//219 67//217 51//156
f 55//171 71//228 70//226 54//168
f 57//179 73//234 72//232 56//176
f 60//191 76//243 75//241 59//188
f 63//203 79//252 78//250 62//200
s 2
f 34//100 50//149 49//145 33//97
f 37//109 53//161 52//158 36//107
f 39//115 55//169 54//166 38//113
f 41//121 57//177 56//174 40//119
f 43//127 59//185 58//182 42//125
f 47//139 63//201 62//198 46//137
f 51//155 67//216 66//214 50//152
f 54//167 70//225 69//223 53//164
f 56//175 72//231 71//229 55//172
f 58//183 74//237 73//235 57//180
f 62//199 78//249 77//247 61//196
f 64//207 80//255 79//253 63//204
s 3
f 33//99 48//144 47//141 46//138 45//135 44//132 43//129 42//126 41//123 40//120 39//117 38//114 37//111 36//108 35//105 34//102
f 66//212 67//215 68//218 69//221 70//224 71//227 72//230 73//233 74//236 75//239 76//242 77//245 78//248 79//251 80//254 65//209
s 4
f 36//106 52//157 51//154 35//104
f 44//130 60//189 59//186 43//128
f 46//136 62//197 61//194 45//134
f 48//142 64//205 63//202 47//140
f 49//148 65//211 80//256 64//208
f 53//163 69//222 68//220 52//160
f 59//187 75//240 74//238 58//184
f 61//195 77//246 76//244 60//192
