# Exported from Wings 3D 1.5.4
mtllib TLV_2_Fairing_1_Collider.mtl
o TLV_2_Fairing_1_Collider1
#32 vertices, 18 faces
v 0.46875000 0.32625000 -9.3240172e-2
v 0.46875000 0.32625000 9.3240172e-2
v 0.39738706 0.32625000 0.26552555
v 0.26552555 0.32625000 0.39738706
v 9.3240172e-2 0.32625000 0.46875000
v -9.3240172e-2 0.32625000 0.46875000
v -0.26552555 0.32625000 0.39738706
v -0.39738706 0.32625000 0.26552555
v -0.46875000 0.32625000 9.3240172e-2
v -0.46875000 0.32625000 -9.3240172e-2
v -0.39738706 0.32625000 -0.26552555
v -0.26552555 0.32625000 -0.39738706
v -9.3240172e-2 0.32625000 -0.46875000
v 9.3240172e-2 0.32625000 -0.46875000
v 0.26552555 0.32625000 -0.39738706
v 0.39738706 0.32625000 -0.26552555
v 0.46875000 0.29500000 -9.3240172e-2
v 0.46875000 0.29500000 9.3240172e-2
v 0.39738706 0.29500000 0.26552555
v 0.26552555 0.29500000 0.39738706
v 9.3240172e-2 0.29500000 0.46875000
v -9.3240172e-2 0.29500000 0.46875000
v -0.26552555 0.29500000 0.39738706
v -0.39738706 0.29500000 0.26552555
v -0.46875000 0.29500000 9.3240172e-2
v -0.46875000 0.29500000 -9.3240172e-2
v -0.39738706 0.29500000 -0.26552555
v -0.26552555 0.29500000 -0.39738706
v -9.3240172e-2 0.29500000 -0.46875000
v 9.3240172e-2 0.29500000 -0.46875000
v 0.26552555 0.29500000 -0.39738706
v 0.39738706 0.29500000 -0.26552555
vn 0.0000000e+0 1.00000000 -5.9535659e-17
vn 0.92387953 0.0000000e+0 -0.38268343
vn 1.00000000 0.0000000e+0 0.0000000e+0
vn 0.0000000e+0 1.00000000 -5.9535659e-17
vn 0.92387953 0.0000000e+0 0.38268343
vn 1.00000000 0.0000000e+0 0.0000000e+0
vn 0.0000000e+0 1.00000000 -5.9535659e-17
vn 0.70710678 0.0000000e+0 0.70710678
vn 0.92387953 0.0000000e+0 0.38268343
vn 0.0000000e+0 1.00000000 -5.9535659e-17
vn 0.38268343 0.0000000e+0 0.92387953
vn 0.70710678 0.0000000e+0 0.70710678
vn 0.0000000e+0 1.00000000 -5.9535659e-17
vn 0.0000000e+0 0.0000000e+0 1.00000000
vn 0.38268343 0.0000000e+0 0.92387953
vn 0.0000000e+0 1.00000000 -5.9535659e-17
vn -0.38268343 0.0000000e+0 0.92387953
vn 0.0000000e+0 0.0000000e+0 1.00000000
vn 0.0000000e+0 1.00000000 -5.9535659e-17
vn -0.70710678 0.0000000e+0 0.70710678
vn -0.38268343 0.0000000e+0 0.92387953
vn 0.0000000e+0 1.00000000 -5.9535659e-17
vn -0.92387953 0.0000000e+0 0.38268343
vn -0.70710678 0.0000000e+0 0.70710678
vn 0.0000000e+0 1.00000000 -5.9535659e-17
vn -1.00000000 0.0000000e+0 0.0000000e+0
vn -0.92387953 0.0000000e+0 0.38268343
vn 0.0000000e+0 1.00000000 -5.9535659e-17
vn -0.92387953 0.0000000e+0 -0.38268343
vn -1.00000000 0.0000000e+0 0.0000000e+0
vn 0.0000000e+0 1.00000000 -5.9535659e-17
vn -0.70710678 0.0000000e+0 -0.70710678
vn -0.92387953 0.0000000e+0 -0.38268343
vn 0.0000000e+0 1.00000000 -5.9535659e-17
vn -0.38268343 0.0000000e+0 -0.92387953
vn -0.70710678 0.0000000e+0 -0.70710678
vn 0.0000000e+0 1.00000000 -5.9535659e-17
vn 0.0000000e+0 0.0000000e+0 -1.00000000
vn -0.38268343 0.0000000e+0 -0.92387953
vn 0.0000000e+0 1.00000000 -5.9535659e-17
vn 0.38268343 0.0000000e+0 -0.92387953
vn 0.0000000e+0 0.0000000e+0 -1.00000000
vn 0.0000000e+0 1.00000000 -5.9535659e-17
vn 0.70710678 0.0000000e+0 -0.70710678
vn 0.38268343 0.0000000e+0 -0.92387953
vn 0.0000000e+0 1.00000000 -5.9535659e-17
vn 0.92387953 0.0000000e+0 -0.38268343
vn 0.70710678 0.0000000e+0 -0.70710678
vn 0.0000000e+0 -1.00000000 -1.9845220e-17
vn 0.92387953 0.0000000e+0 -0.38268343
vn 1.00000000 0.0000000e+0 0.0000000e+0
vn 0.0000000e+0 -1.00000000 -1.9845220e-17
vn 0.92387953 0.0000000e+0 0.38268343
vn 1.00000000 0.0000000e+0 0.0000000e+0
vn 0.0000000e+0 -1.00000000 -1.9845220e-17
vn 0.70710678 0.0000000e+0 0.70710678
vn 0.92387953 0.0000000e+0 0.38268343
vn 0.0000000e+0 -1.00000000 -1.9845220e-17
vn 0.38268343 0.0000000e+0 0.92387953
vn 0.70710678 0.0000000e+0 0.70710678
vn 0.0000000e+0 -1.00000000 -1.9845220e-17
vn 0.0000000e+0 0.0000000e+0 1.00000000
vn 0.38268343 0.0000000e+0 0.92387953
vn 0.0000000e+0 -1.00000000 -1.9845220e-17
vn -0.38268343 0.0000000e+0 0.92387953
vn 0.0000000e+0 0.0000000e+0 1.00000000
vn 0.0000000e+0 -1.00000000 -1.9845220e-17
vn -0.70710678 0.0000000e+0 0.70710678
vn -0.38268343 0.0000000e+0 0.92387953
vn 0.0000000e+0 -1.00000000 -1.9845220e-17
vn -0.92387953 0.0000000e+0 0.38268343
vn -0.70710678 0.0000000e+0 0.70710678
vn 0.0000000e+0 -1.00000000 -1.9845220e-17
vn -1.00000000 0.0000000e+0 0.0000000e+0
vn -0.92387953 0.0000000e+0 0.38268343
vn 0.0000000e+0 -1.00000000 -1.9845220e-17
vn -0.92387953 0.0000000e+0 -0.38268343
vn -1.00000000 0.0000000e+0 0.0000000e+0
vn 0.0000000e+0 -1.00000000 -1.9845220e-17
vn -0.70710678 0.0000000e+0 -0.70710678
vn -0.92387953 0.0000000e+0 -0.38268343
vn 0.0000000e+0 -1.00000000 -1.9845220e-17
vn -0.38268343 0.0000000e+0 -0.92387953
vn -0.70710678 0.0000000e+0 -0.70710678
vn 0.0000000e+0 -1.00000000 -1.9845220e-17
vn 0.0000000e+0 0.0000000e+0 -1.00000000
vn -0.38268343 0.0000000e+0 -0.92387953
vn 0.0000000e+0 -1.00000000 -1.9845220e-17
vn 0.38268343 0.0000000e+0 -0.92387953
vn 0.0000000e+0 0.0000000e+0 -1.00000000
vn 0.0000000e+0 -1.00000000 -1.9845220e-17
vn 0.70710678 0.0000000e+0 -0.70710678
vn 0.38268343 0.0000000e+0 -0.92387953
vn 0.0000000e+0 -1.00000000 -1.9845220e-17
vn 0.92387953 0.0000000e+0 -0.38268343
vn 0.70710678 0.0000000e+0 -0.70710678
g TLV_2_Fairing_1_Collider1_default
usemtl default
s 1
f 1//2 17//50 32//95 16//47
f 3//9 19//57 18//53 2//5
f 5//15 21//63 20//59 4//11
f 7//21 23//69 22//65 6//17
f 9//27 25//75 24//71 8//23
f 12//36 28//84 27//80 11//32
f 14//42 30//90 29//86 13//38
s 2
f 2//6 18//54 17//51 1//3
f 4//12 20//60 19//56 3//8
f 6//18 22//66 21//62 5//14
f 8//24 24//72 23//68 7//20
f 10//30 26//78 25//74 9//26
f 13//39 29//87 28//83 12//35
f 15//45 31//93 30//89 14//41
s 3
f 1//1 16//46 15//43 14//40 13//37 12//34 11//31 10//28 9//25 8//22 7//19 6//16 5//13 4//10 3//7 2//4
f 18//52 19//55 20//58 21//61 22//64 23//67 24//70 25//73 26//76 27//79 28//82 29//85 30//88 31//91 32//94 17//49
s 4
f 11//33 27//81 26//77 10//29
f 16//48 32//96 31//92 15//44
o TLV_2_Fairing_1_Collider2
#32 vertices, 18 faces
v 0.62500000 -0.26375000 -0.12432023
v 0.62500000 -0.26375000 0.12432023
v 0.52984942 -0.26375000 0.35403406
v 0.35403406 -0.26375000 0.52984942
v 0.12432023 -0.26375000 0.62500000
v -0.12432023 -0.26375000 0.62500000
v -0.35403406 -0.26375000 0.52984942
v -0.52984942 -0.26375000 0.35403406
v -0.62500000 -0.26375000 0.12432023
v -0.62500000 -0.26375000 -0.12432023
v -0.52984942 -0.26375000 -0.35403406
v -0.35403406 -0.26375000 -0.52984942
v -0.12432023 -0.26375000 -0.62500000
v 0.12432023 -0.26375000 -0.62500000
v 0.35403406 -0.26375000 -0.52984942
v 0.52984942 -0.26375000 -0.35403406
v 0.62500000 -0.32625000 -0.12432023
v 0.62500000 -0.32625000 0.12432023
v 0.52984942 -0.32625000 0.35403406
v 0.35403406 -0.32625000 0.52984942
v 0.12432023 -0.32625000 0.62500000
v -0.12432023 -0.32625000 0.62500000
v -0.35403406 -0.32625000 0.52984942
v -0.52984942 -0.32625000 0.35403406
v -0.62500000 -0.32625000 0.12432023
v -0.62500000 -0.32625000 -0.12432023
v -0.52984942 -0.32625000 -0.35403406
v -0.35403406 -0.32625000 -0.52984942
v -0.12432023 -0.32625000 -0.62500000
v 0.12432023 -0.32625000 -0.62500000
v 0.35403406 -0.32625000 -0.52984942
v 0.52984942 -0.32625000 -0.35403406
vn 0.92387953 0.0000000e+0 -0.38268343
vn 1.00000000 0.0000000e+0 0.0000000e+0
vn 0.0000000e+0 1.00000000 -1.1162936e-17
vn 0.92387953 0.0000000e+0 0.38268343
vn 1.00000000 0.0000000e+0 0.0000000e+0
vn 0.0000000e+0 1.00000000 -1.1162936e-17
vn 0.70710678 0.0000000e+0 0.70710678
vn 0.92387953 0.0000000e+0 0.38268343
vn 0.0000000e+0 1.00000000 -1.1162936e-17
vn 0.38268343 0.0000000e+0 0.92387953
vn 0.70710678 0.0000000e+0 0.70710678
vn 0.0000000e+0 1.00000000 -1.1162936e-17
vn 0.0000000e+0 0.0000000e+0 1.00000000
vn 0.38268343 0.0000000e+0 0.92387953
vn 0.0000000e+0 1.00000000 -1.1162936e-17
vn -0.38268343 0.0000000e+0 0.92387953
vn 0.0000000e+0 0.0000000e+0 1.00000000
vn 0.0000000e+0 1.00000000 -1.1162936e-17
vn -0.70710678 0.0000000e+0 0.70710678
vn -0.38268343 0.0000000e+0 0.92387953
vn 0.0000000e+0 1.00000000 -1.1162936e-17
vn -0.92387953 0.0000000e+0 0.38268343
vn -0.70710678 0.0000000e+0 0.70710678
vn 0.0000000e+0 1.00000000 -1.1162936e-17
vn -1.00000000 0.0000000e+0 0.0000000e+0
vn -0.92387953 0.0000000e+0 0.38268343
vn 0.0000000e+0 1.00000000 -1.1162936e-17
vn -0.92387953 0.0000000e+0 -0.38268343
vn -1.00000000 0.0000000e+0 0.0000000e+0
vn 0.0000000e+0 1.00000000 -1.1162936e-17
vn -0.70710678 0.0000000e+0 -0.70710678
vn -0.92387953 0.0000000e+0 -0.38268343
vn 0.0000000e+0 1.00000000 -1.1162936e-17
vn -0.38268343 0.0000000e+0 -0.92387953
vn -0.70710678 0.0000000e+0 -0.70710678
vn 0.0000000e+0 1.00000000 -1.1162936e-17
vn 0.0000000e+0 0.0000000e+0 -1.00000000
vn -0.38268343 0.0000000e+0 -0.92387953
vn 0.0000000e+0 1.00000000 -1.1162936e-17
vn 0.38268343 0.0000000e+0 -0.92387953
vn 0.0000000e+0 0.0000000e+0 -1.00000000
vn 0.0000000e+0 1.00000000 -1.1162936e-17
vn 0.70710678 0.0000000e+0 -0.70710678
vn 0.38268343 0.0000000e+0 -0.92387953
vn 0.0000000e+0 1.00000000 -1.1162936e-17
vn 0.92387953 0.0000000e+0 -0.38268343
vn 0.70710678 0.0000000e+0 -0.70710678
vn 0.0000000e+0 1.00000000 -1.1162936e-17
vn 0.0000000e+0 -1.00000000 -2.5116606e-17
vn 0.92387953 0.0000000e+0 -0.38268343
vn 1.00000000 0.0000000e+0 0.0000000e+0
vn 0.0000000e+0 -1.00000000 -2.5116606e-17
vn 0.92387953 0.0000000e+0 0.38268343
vn 1.00000000 0.0000000e+0 0.0000000e+0
vn 0.0000000e+0 -1.00000000 -2.5116606e-17
vn 0.70710678 0.0000000e+0 0.70710678
vn 0.92387953 0.0000000e+0 0.38268343
vn 0.0000000e+0 -1.00000000 -2.5116606e-17
vn 0.38268343 0.0000000e+0 0.92387953
vn 0.70710678 0.0000000e+0 0.70710678
vn 0.0000000e+0 -1.00000000 -2.5116606e-17
vn 0.0000000e+0 0.0000000e+0 1.00000000
vn 0.38268343 0.0000000e+0 0.92387953
vn 0.0000000e+0 -1.00000000 -2.5116606e-17
vn -0.38268343 0.0000000e+0 0.92387953
vn 0.0000000e+0 0.0000000e+0 1.00000000
vn 0.0000000e+0 -1.00000000 -2.5116606e-17
vn -0.70710678 0.0000000e+0 0.70710678
vn -0.38268343 0.0000000e+0 0.92387953
vn 0.0000000e+0 -1.00000000 -2.5116606e-17
vn -0.92387953 0.0000000e+0 0.38268343
vn -0.70710678 0.0000000e+0 0.70710678
vn 0.0000000e+0 -1.00000000 -2.5116606e-17
vn -1.00000000 0.0000000e+0 0.0000000e+0
vn -0.92387953 0.0000000e+0 0.38268343
vn 0.0000000e+0 -1.00000000 -2.5116606e-17
vn -0.92387953 0.0000000e+0 -0.38268343
vn -1.00000000 0.0000000e+0 0.0000000e+0
vn 0.0000000e+0 -1.00000000 -2.5116606e-17
vn -0.70710678 0.0000000e+0 -0.70710678
vn -0.92387953 0.0000000e+0 -0.38268343
vn 0.0000000e+0 -1.00000000 -2.5116606e-17
vn -0.38268343 0.0000000e+0 -0.92387953
vn -0.70710678 0.0000000e+0 -0.70710678
vn 0.0000000e+0 -1.00000000 -2.5116606e-17
vn 0.0000000e+0 0.0000000e+0 -1.00000000
vn -0.38268343 0.0000000e+0 -0.92387953
vn 0.0000000e+0 -1.00000000 -2.5116606e-17
vn 0.38268343 0.0000000e+0 -0.92387953
vn 0.0000000e+0 0.0000000e+0 -1.00000000
vn 0.0000000e+0 -1.00000000 -2.5116606e-17
vn 0.70710678 0.0000000e+0 -0.70710678
vn 0.38268343 0.0000000e+0 -0.92387953
vn 0.0000000e+0 -1.00000000 -2.5116606e-17
vn 0.92387953 0.0000000e+0 -0.38268343
vn 0.70710678 0.0000000e+0 -0.70710678
g TLV_2_Fairing_1_Collider2_default
usemtl default
s 1
f 34//101 50//150 49//147 33//98
f 36//107 52//156 51//152 35//103
f 38//113 54//162 53//158 37//109
f 40//119 56//168 55//164 39//115
f 43//128 59//177 58//173 42//124
f 45//134 61//183 60//179 44//130
f 48//143 64//192 63//188 47//139
s 2
f 33//97 49//146 64//191 48//142
f 35//104 51//153 50//149 34//100
f 37//110 53//159 52//155 36//106
f 39//116 55//165 54//161 38//112
f 41//122 57//171 56//167 40//118
f 44//131 60//180 59//176 43//127
f 46//137 62//186 61//182 45//133
s 3
f 33//99 48//144 47//141 46//138 45//135 44//132 43//129 42//126 41//123 40//120 39//117 38//114 37//111 36//108 35//105 34//102
f 50//148 51//151 52//154 53//157 54//160 55//163 56//166 57//169 58//172 59//175 60//178 61//181 62//184 63//187 64//190 49//145
s 4
f 42//125 58//174 57//170 41//121
f 47//140 63//189 62//185 46//136
