# Exported from Wings 3D 1.5.4
mtllib tantares_lv_booster_fuel_tank_s1p5_1_collider.mtl
o tantares_lv_booster_fuel_tank_s1p5_1_collider
#36 vertices, 26 faces
v 0.46875000 4.00000000 -0.12560118
v 0.46875000 4.00000000 0.12560118
v 0.34314882 4.00000000 0.34314882
v 0.12560118 4.00000000 0.46875000
v -0.12560118 4.00000000 0.46875000
v -0.34314882 4.00000000 0.34314882
v -0.46875000 4.00000000 0.12560118
v -0.46875000 4.00000000 -0.12560118
v -0.34314882 4.00000000 -0.34314882
v -0.12560118 4.00000000 -0.46875000
v 0.12560118 4.00000000 -0.46875000
v 0.34314882 4.00000000 -0.34314882
v 0.93750000 -4.00000000 -0.25120237
v 0.93750000 -4.00000000 0.25120237
v 0.68629763 -4.00000000 0.68629763
v 0.25120237 -4.00000000 0.93750000
v -0.25120237 -4.00000000 0.93750000
v -0.68629763 -4.00000000 0.68629763
v -0.93750000 -4.00000000 0.25120237
v -0.93750000 -4.00000000 -0.25120237
v -0.68629763 -4.00000000 -0.68629763
v -0.25120237 -4.00000000 -0.93750000
v 0.25120237 -4.00000000 -0.93750000
v 0.68629763 -4.00000000 -0.68629763
v 0.12500000 6.06250000 3.3493649e-2
v 0.12500000 6.06250000 -3.3493649e-2
v 9.1506351e-2 6.06250000 -9.1506351e-2
v 3.3493649e-2 6.06250000 -0.12500000
v -3.3493649e-2 6.06250000 -0.12500000
v -9.1506351e-2 6.06250000 -9.1506351e-2
v -0.12500000 6.06250000 -3.3493649e-2
v -0.12500000 6.06250000 3.3493649e-2
v -9.1506351e-2 6.06250000 9.1506351e-2
v -3.3493649e-2 6.06250000 0.12500000
v 3.3493649e-2 6.06250000 0.12500000
v 9.1506351e-2 6.06250000 9.1506351e-2
vn 0.86454259 5.8493425e-2 -0.49914390
vn 0.99828779 5.8493425e-2 0.0000000e+0
vn 0.98639392 0.16439899 0.0000000e+0
vn 0.85424220 0.16439899 -0.49319696
vn 0.86454259 5.8493425e-2 0.49914390
vn 0.99828779 5.8493425e-2 0.0000000e+0
vn 0.98639392 0.16439899 0.0000000e+0
vn 0.85424220 0.16439899 0.49319696
vn 0.49914390 5.8493425e-2 0.86454259
vn 0.86454259 5.8493425e-2 0.49914390
vn 0.49319696 0.16439899 0.85424220
vn 0.85424220 0.16439899 0.49319696
vn 0.0000000e+0 5.8493425e-2 0.99828779
vn 0.49914390 5.8493425e-2 0.86454259
vn 0.0000000e+0 0.16439899 0.98639392
vn 0.49319696 0.16439899 0.85424220
vn -0.49914390 5.8493425e-2 0.86454259
vn 0.0000000e+0 5.8493425e-2 0.99828779
vn -0.49319696 0.16439899 0.85424220
vn 0.0000000e+0 0.16439899 0.98639392
vn -0.86454259 5.8493425e-2 0.49914390
vn -0.49914390 5.8493425e-2 0.86454259
vn -0.85424220 0.16439899 0.49319696
vn -0.49319696 0.16439899 0.85424220
vn -0.99828779 5.8493425e-2 0.0000000e+0
vn -0.86454259 5.8493425e-2 0.49914390
vn -0.98639392 0.16439899 0.0000000e+0
vn -0.85424220 0.16439899 0.49319696
vn -0.86454259 5.8493425e-2 -0.49914390
vn -0.99828779 5.8493425e-2 0.0000000e+0
vn -0.85424220 0.16439899 -0.49319696
vn -0.98639392 0.16439899 0.0000000e+0
vn -0.49914390 5.8493425e-2 -0.86454259
vn -0.86454259 5.8493425e-2 -0.49914390
vn -0.49319696 0.16439899 -0.85424220
vn -0.85424220 0.16439899 -0.49319696
vn -2.9413791e-16 5.8493425e-2 -0.99828779
vn -0.49914390 5.8493425e-2 -0.86454259
vn -3.3374179e-16 0.16439899 -0.98639392
vn -0.49319696 0.16439899 -0.85424220
vn 0.49914390 5.8493425e-2 -0.86454259
vn -2.9413791e-16 5.8493425e-2 -0.99828779
vn 0.49319696 0.16439899 -0.85424220
vn -3.3374179e-16 0.16439899 -0.98639392
vn 0.86454259 5.8493425e-2 -0.49914390
vn 0.49914390 5.8493425e-2 -0.86454259
vn 0.85424220 0.16439899 -0.49319696
vn 0.49319696 0.16439899 -0.85424220
vn 0.0000000e+0 -1.00000000 -7.8571306e-17
vn 0.86454259 5.8493425e-2 -0.49914390
vn 0.99828779 5.8493425e-2 0.0000000e+0
vn 0.0000000e+0 -1.00000000 -7.8571306e-17
vn 0.86454259 5.8493425e-2 0.49914390
vn 0.99828779 5.8493425e-2 0.0000000e+0
vn 0.0000000e+0 -1.00000000 -7.8571306e-17
vn 0.49914390 5.8493425e-2 0.86454259
vn 0.86454259 5.8493425e-2 0.49914390
vn 0.0000000e+0 -1.00000000 -7.8571306e-17
vn 0.0000000e+0 5.8493425e-2 0.99828779
vn 0.49914390 5.8493425e-2 0.86454259
vn 0.0000000e+0 -1.00000000 -7.8571306e-17
vn -0.49914390 5.8493425e-2 0.86454259
vn 0.0000000e+0 5.8493425e-2 0.99828779
vn 0.0000000e+0 -1.00000000 -7.8571306e-17
vn -0.86454259 5.8493425e-2 0.49914390
vn -0.49914390 5.8493425e-2 0.86454259
vn 0.0000000e+0 -1.00000000 -7.8571306e-17
vn -0.99828779 5.8493425e-2 0.0000000e+0
vn -0.86454259 5.8493425e-2 0.49914390
vn 0.0000000e+0 -1.00000000 -7.8571306e-17
vn -0.86454259 5.8493425e-2 -0.49914390
vn -0.99828779 5.8493425e-2 0.0000000e+0
vn 0.0000000e+0 -1.00000000 -7.8571306e-17
vn -0.49914390 5.8493425e-2 -0.86454259
vn -0.86454259 5.8493425e-2 -0.49914390
vn 0.0000000e+0 -1.00000000 -7.8571306e-17
vn -2.9413791e-16 5.8493425e-2 -0.99828779
vn -0.49914390 5.8493425e-2 -0.86454259
vn 0.0000000e+0 -1.00000000 -7.8571306e-17
vn 0.49914390 5.8493425e-2 -0.86454259
vn -2.9413791e-16 5.8493425e-2 -0.99828779
vn 0.0000000e+0 -1.00000000 -7.8571306e-17
vn 0.86454259 5.8493425e-2 -0.49914390
vn 0.49914390 5.8493425e-2 -0.86454259
vn 0.98639392 0.16439899 0.0000000e+0
vn 0.85424220 0.16439899 0.49319696
vn 0.0000000e+0 1.00000000 -6.6294540e-15
vn 0.98639392 0.16439899 0.0000000e+0
vn 0.85424220 0.16439899 -0.49319696
vn 0.0000000e+0 1.00000000 -6.6294540e-15
vn 0.85424220 0.16439899 -0.49319696
vn 0.49319696 0.16439899 -0.85424220
vn 0.0000000e+0 1.00000000 -6.6294540e-15
vn 0.49319696 0.16439899 -0.85424220
vn -3.3374179e-16 0.16439899 -0.98639392
vn 0.0000000e+0 1.00000000 -6.6294540e-15
vn -3.3374179e-16 0.16439899 -0.98639392
vn -0.49319696 0.16439899 -0.85424220
vn 0.0000000e+0 1.00000000 -6.6294540e-15
vn -0.49319696 0.16439899 -0.85424220
vn -0.85424220 0.16439899 -0.49319696
vn 0.0000000e+0 1.00000000 -6.6294540e-15
vn -0.85424220 0.16439899 -0.49319696
vn -0.98639392 0.16439899 0.0000000e+0
vn 0.0000000e+0 1.00000000 -6.6294540e-15
vn -0.98639392 0.16439899 0.0000000e+0
vn -0.85424220 0.16439899 0.49319696
vn 0.0000000e+0 1.00000000 -6.6294540e-15
vn -0.85424220 0.16439899 0.49319696
vn -0.49319696 0.16439899 0.85424220
vn 0.0000000e+0 1.00000000 -6.6294540e-15
vn -0.49319696 0.16439899 0.85424220
vn 0.0000000e+0 0.16439899 0.98639392
vn 0.0000000e+0 1.00000000 -6.6294540e-15
vn 0.0000000e+0 0.16439899 0.98639392
vn 0.49319696 0.16439899 0.85424220
vn 0.0000000e+0 1.00000000 -6.6294540e-15
vn 0.49319696 0.16439899 0.85424220
vn 0.85424220 0.16439899 0.49319696
vn 0.0000000e+0 1.00000000 -6.6294540e-15
g tantares_lv_booster_fuel_tank_s1p5_1_collider_default
usemtl default
s 1
f 2//6 14//54 13//51 1//2
f 2//8 25//86 36//119 3//12
f 4//14 16//60 15//56 3//9
f 4//15 35//115 34//113 5//20
f 7//26 19//69 18//65 6//21
f 7//27 32//106 31//104 8//32
f 9//34 21//75 20//71 8//29
f 9//35 30//100 29//98 10//40
f 12//46 24//84 23//80 11//41
f 12//47 27//91 26//89 1//4
s 2
f 1//1 13//50 24//83 12//45
f 1//3 26//88 25//85 2//7
f 3//10 15//57 14//53 2//5
f 3//11 36//118 35//116 4//16
f 5//18 17//63 16//59 4//13
f 6//23 33//109 32//107 7//28
f 8//30 20//72 19//68 7//25
f 8//31 31//103 30//101 9//36
f 10//38 22//78 21//74 9//33
f 10//39 29//97 28//95 11//44
s 3
f 5//19 34//112 33//110 6//24
f 11//43 28//94 27//92 12//48
f 14//52 15//55 16//58 17//61 18//64 19//67 20//70 21//73 22//76 23//79 24//82 13//49
s 4
f 6//22 18//66 17//62 5//17
f 11//42 23//81 22//77 10//37
f 26//90 27//93 28//96 29//99 30//102 31//105 32//108 33//111 34//114 35//117 36//120 25//87
