# Exported from Wings 3D 1.5.4
mtllib LLV_B_Engine_1_Nozzle_Collider.mtl
o LLV_B_Engine_1_Nozzle_Collider
#8 vertices, 6 faces
v -0.47025000 -1.07000000 -4.5245856e-17
v -2.3864740e-17 -1.07000000 0.47025000
v -8.5000000e-2 0.0000000e+0 -6.6858301e-18
v -4.3136690e-18 0.0000000e+0 8.5000000e-2
v 4.9968858e-17 -1.07000000 -0.47025000
v 0.47025000 -1.07000000 2.8587742e-17
v 9.0321169e-18 0.0000000e+0 -8.5000000e-2
v 8.5000000e-2 0.0000000e+0 6.6599558e-18
vn 0.0000000e+0 -1.00000000 0.0000000e+0
vn -0.68524764 0.24672117 -0.68524764
vn -0.68524764 0.24672117 0.68524764
vn 0.0000000e+0 -1.00000000 0.0000000e+0
vn 0.68524764 0.24672117 0.68524764
vn -0.68524764 0.24672117 0.68524764
vn 0.0000000e+0 1.00000000 0.0000000e+0
vn -0.68524764 0.24672117 -0.68524764
vn -0.68524764 0.24672117 0.68524764
vn 0.0000000e+0 1.00000000 0.0000000e+0
vn 0.68524764 0.24672117 0.68524764
vn -0.68524764 0.24672117 0.68524764
vn 0.0000000e+0 -1.00000000 0.0000000e+0
vn -0.68524764 0.24672117 -0.68524764
vn 0.68524764 0.24672117 -0.68524764
vn 0.0000000e+0 -1.00000000 0.0000000e+0
vn 0.68524764 0.24672117 0.68524764
vn 0.68524764 0.24672117 -0.68524764
vn 0.0000000e+0 1.00000000 0.0000000e+0
vn -0.68524764 0.24672117 -0.68524764
vn 0.68524764 0.24672117 -0.68524764
vn 0.0000000e+0 1.00000000 0.0000000e+0
vn 0.68524764 0.24672117 0.68524764
vn 0.68524764 0.24672117 -0.68524764
g LLV_B_Engine_1_Nozzle_Collider_default
usemtl default
s 1
f 2//6 4//12 3//9 1//3
f 5//15 7//21 8//24 6//18
s 2
f 2//5 6//17 8//23 4//11
f 3//8 7//20 5//14 1//2
s 3
f 1//1 5//13 6//16 2//4
f 4//10 8//22 7//19 3//7
