# Exported from Wings 3D 1.5.4
mtllib pupper.mtl
o 1
#16 vertices, 9 faces
v 3.7500000e-2 1.7981839e-17 0.30000000
v 2.6516504e-2 -2.6516504e-2 0.30000000
v 3.5105192e-18 -3.7500000e-2 0.30000000
v -2.6516504e-2 -2.6516504e-2 0.30000000
v -3.7500000e-2 1.3389413e-17 0.30000000
v -2.6516504e-2 2.6516504e-2 0.30000000
v -5.6743318e-18 3.7500000e-2 0.30000000
v 2.6516504e-2 2.6516504e-2 0.30000000
v 3.7500000e-2 1.3389413e-17 0.0000000e+0
v 2.6516504e-2 -2.6516504e-2 0.0000000e+0
v 3.5105192e-18 -3.7500000e-2 2.7755576e-17
v -2.6516504e-2 -2.6516504e-2 0.0000000e+0
v -3.7500000e-2 8.7969878e-18 0.0000000e+0
v -2.6516504e-2 2.6516504e-2 0.0000000e+0
v -5.6743318e-18 3.7500000e-2 0.0000000e+0
v 2.6516504e-2 2.6516504e-2 0.0000000e+0
vt 0.74372954 0.22782904
vt 0.74372954 0.22894246
vt 0.74372954 0.23005589
vt 0.74372954 0.23116932
vt 0.74372954 0.23228274
vt 0.74372954 0.23339617
vt 0.74372954 0.23450959
vt 0.74372954 0.23562302
vt 0.74372954 0.23673644
vt 0.75920572 0.23228274
vt 0.76071668 0.23125407
vt 0.76071668 0.23331141
vt 0.76436445 0.23082798
vt 0.76436445 0.23373750
vt 0.76801222 0.23125407
vt 0.76801222 0.23331141
vt 0.76952317 0.23228274
vt 0.78499935 0.22782904
vt 0.78499935 0.22894246
vt 0.78499935 0.23005589
vt 0.78499935 0.23116932
vt 0.78499935 0.23228274
vt 0.78499935 0.23339617
vt 0.78499935 0.23450959
vt 0.78499935 0.23562302
vt 0.78499935 0.23673644
vn 1.00000000 3.0042419e-17 1.2507669e-33
vn 0.70710678 -0.70710678 1.5332934e-17
vn 3.0042419e-17 -1.00000000 2.7258550e-17
vn -0.70710678 -0.70710678 2.0443912e-17
vn -1.00000000 -1.5021209e-16 1.7036594e-18
vn -0.70710678 0.70710678 -1.5332934e-17
vn -2.1029693e-16 1.00000000 -2.7258550e-17
vn 0.70710678 0.70710678 -1.8740253e-17
vn 4.3613679e-16 3.7007434e-16 1.00000000
vn 1.00000000 3.0042419e-17 1.2507669e-33
vn 1.00000000 3.0042419e-17 1.2507669e-33
vn 4.3613679e-16 3.7007434e-16 1.00000000
vn 0.70710678 -0.70710678 1.5332934e-17
vn 0.70710678 -0.70710678 1.5332934e-17
vn 4.3613679e-16 3.7007434e-16 1.00000000
vn 3.0042419e-17 -1.00000000 2.7258550e-17
vn 3.0042419e-17 -1.00000000 2.7258550e-17
vn 4.3613679e-16 3.7007434e-16 1.00000000
vn -0.70710678 -0.70710678 2.0443912e-17
vn -0.70710678 -0.70710678 2.0443912e-17
vn 4.3613679e-16 3.7007434e-16 1.00000000
vn -1.00000000 -1.5021209e-16 1.7036594e-18
vn -1.00000000 -1.5021209e-16 1.7036594e-18
vn 4.3613679e-16 3.7007434e-16 1.00000000
vn -0.70710678 0.70710678 -1.5332934e-17
vn -0.70710678 0.70710678 -1.5332934e-17
vn 4.3613679e-16 3.7007434e-16 1.00000000
vn -2.1029693e-16 1.00000000 -2.7258550e-17
vn -2.1029693e-16 1.00000000 -2.7258550e-17
vn 4.3613679e-16 3.7007434e-16 1.00000000
vn 0.70710678 0.70710678 -1.8740253e-17
vn 0.70710678 0.70710678 -1.8740253e-17
g 1_1_auv
usemtl 1_auv
s 1
f 1/13/9 8/15/30 7/17/27 6/16/24 5/14/21 4/12/18 3/10/15 2/11/12
s 2
f 1/20/10 9/3/1 16/2/8 8/19/31
f 2/21/14 10/4/2 9/3/1 1/20/11
f 3/22/17 11/5/3 10/4/2 2/21/13
f 4/23/20 12/6/4 11/5/3 3/22/16
f 5/24/23 13/7/5 12/6/4 4/23/19
f 6/25/26 14/8/6 13/7/5 5/24/22
f 7/26/29 15/9/7 14/8/6 6/25/25
f 8/19/32 16/2/8 15/1/7 7/18/28
