# Blender v2.90.1 OBJ File: ''
# www.blender.org
mtllib untitled.mtl
o Cone_Cone.001
v 0.000000 -0.450000 -0.687500
v 0.000000 0.450000 -0.937500
v 0.177938 -0.450000 -0.664074
v 0.242643 0.450000 -0.905555
v 0.343750 -0.450000 -0.595392
v 0.468750 0.450000 -0.811899
v 0.486136 -0.450000 -0.486136
v 0.662913 0.450000 -0.662913
v 0.595392 -0.450000 -0.343750
v 0.811899 0.450000 -0.468750
v 0.664074 -0.450000 -0.177938
v 0.905555 0.450000 -0.242643
v 0.687500 -0.450000 -0.000000
v 0.937500 0.450000 -0.000000
v 0.664074 -0.450000 0.177938
v 0.905555 0.450000 0.242643
v 0.595392 -0.450000 0.343750
v 0.811899 0.450000 0.468750
v 0.486136 -0.450000 0.486136
v 0.662913 0.450000 0.662912
v 0.343750 -0.450000 0.595392
v 0.468750 0.450000 0.811899
v 0.177938 -0.450000 0.664074
v 0.242643 0.450000 0.905555
v 0.000000 -0.450000 0.687500
v 0.000000 0.450000 0.937500
v -0.177938 -0.450000 0.664074
v -0.242642 0.450000 0.905555
v -0.343750 -0.450000 0.595393
v -0.468750 0.450000 0.811899
v -0.486136 -0.450000 0.486136
v -0.662912 0.450000 0.662913
v -0.595392 -0.450000 0.343750
v -0.811899 0.450000 0.468750
v -0.664074 -0.450000 0.177938
v -0.905555 0.450000 0.242643
v -0.687500 -0.450000 0.000000
v -0.937500 0.450000 0.000000
v -0.664074 -0.450000 -0.177938
v -0.905555 0.450000 -0.242642
v -0.595393 -0.450000 -0.343750
v -0.811899 0.450000 -0.468750
v -0.486136 -0.450000 -0.486136
v -0.662913 0.450000 -0.662912
v -0.343750 -0.450000 -0.595392
v -0.468751 0.450000 -0.811899
v -0.177939 -0.450000 -0.664074
v -0.242644 0.450000 -0.905555
v 0.000000 -0.330200 -0.742245
v 0.000000 -0.206546 -0.793728
v 0.000000 -0.078760 -0.840190
v 0.000000 0.052637 -0.879593
v 0.000000 0.186227 -0.909924
v 0.000000 0.319703 -0.929541
v 0.240582 0.319703 -0.897868
v 0.235504 0.186227 -0.878918
v 0.227653 0.052637 -0.849620
v 0.217455 -0.078760 -0.811561
v 0.205430 -0.206546 -0.766681
v 0.192106 -0.330200 -0.716953
v 0.464770 0.319703 -0.805007
v 0.454961 0.186227 -0.788017
v 0.439795 0.052637 -0.761750
v 0.420094 -0.078760 -0.727626
v 0.396863 -0.206546 -0.687388
v 0.371122 -0.330200 -0.642803
v 0.657285 0.319703 -0.657285
v 0.643413 0.186227 -0.643413
v 0.621965 0.052637 -0.621965
v 0.594104 -0.078760 -0.594104
v 0.561250 -0.206546 -0.561250
v 0.524846 -0.330200 -0.524846
v 0.805007 0.319703 -0.464770
v 0.788017 0.186227 -0.454961
v 0.761750 0.052637 -0.439795
v 0.727626 -0.078760 -0.420094
v 0.687388 -0.206546 -0.396863
v 0.642803 -0.330200 -0.371122
v 0.897868 0.319703 -0.240582
v 0.878918 0.186227 -0.235504
v 0.849620 0.052637 -0.227653
v 0.811561 -0.078760 -0.217456
v 0.766681 -0.206546 -0.205430
v 0.716953 -0.330200 -0.192106
v 0.929541 0.319703 -0.000000
v 0.909923 0.186227 -0.000000
v 0.879592 0.052637 -0.000000
v 0.840190 -0.078760 -0.000000
v 0.793727 -0.206546 -0.000000
v 0.742245 -0.330200 -0.000000
v 0.897868 0.319703 0.240582
v 0.878918 0.186227 0.235504
v 0.849620 0.052637 0.227653
v 0.811561 -0.078760 0.217455
v 0.766681 -0.206546 0.205430
v 0.716953 -0.330200 0.192106
v 0.805007 0.319703 0.464770
v 0.788017 0.186227 0.454960
v 0.761750 0.052637 0.439795
v 0.727626 -0.078760 0.420094
v 0.687388 -0.206546 0.396863
v 0.642803 -0.330200 0.371122
v 0.657285 0.319703 0.657285
v 0.643413 0.186227 0.643412
v 0.621966 0.052637 0.621965
v 0.594104 -0.078760 0.594104
v 0.561250 -0.206546 0.561250
v 0.524846 -0.330200 0.524846
v 0.464770 0.319703 0.805006
v 0.454961 0.186227 0.788017
v 0.439795 0.052637 0.761750
v 0.420094 -0.078760 0.727626
v 0.396863 -0.206546 0.687388
v 0.371122 -0.330200 0.642803
v 0.240582 0.319703 0.897867
v 0.235504 0.186227 0.878918
v 0.227654 0.052637 0.849620
v 0.217456 -0.078760 0.811561
v 0.205431 -0.206546 0.766681
v 0.192107 -0.330200 0.716953
v 0.000000 0.319703 0.929541
v 0.000000 0.186227 0.909923
v 0.000000 0.052637 0.879592
v 0.000000 -0.078760 0.840190
v 0.000000 -0.206546 0.793727
v 0.000000 -0.330200 0.742245
v -0.240582 0.319703 0.897868
v -0.235503 0.186227 0.878918
v -0.227653 0.052637 0.849620
v -0.217455 -0.078760 0.811561
v -0.205430 -0.206546 0.766681
v -0.192106 -0.330200 0.716953
v -0.464770 0.319703 0.805007
v -0.454960 0.186227 0.788017
v -0.439795 0.052637 0.761750
v -0.420094 -0.078760 0.727626
v -0.396862 -0.206546 0.687388
v -0.371122 -0.330200 0.642803
v -0.657284 0.319703 0.657285
v -0.643412 0.186227 0.643413
v -0.621965 0.052637 0.621966
v -0.594104 -0.078760 0.594104
v -0.561249 -0.206546 0.561250
v -0.524846 -0.330200 0.524847
v -0.805006 0.319703 0.464770
v -0.788017 0.186227 0.454961
v -0.761750 0.052637 0.439795
v -0.727626 -0.078760 0.420094
v -0.687388 -0.206546 0.396863
v -0.642803 -0.330200 0.371122
v -0.897867 0.319703 0.240582
v -0.878918 0.186227 0.235504
v -0.849620 0.052637 0.227654
v -0.811561 -0.078760 0.217456
v -0.766681 -0.206546 0.205431
v -0.716953 -0.330200 0.192107
v -0.929541 0.319703 0.000000
v -0.909923 0.186227 0.000000
v -0.879592 0.052637 0.000000
v -0.840190 -0.078760 0.000000
v -0.793727 -0.206546 0.000000
v -0.742245 -0.330200 0.000000
v -0.897868 0.319703 -0.240581
v -0.878918 0.186227 -0.235503
v -0.849620 0.052637 -0.227653
v -0.811561 -0.078760 -0.217455
v -0.766681 -0.206546 -0.205430
v -0.716953 -0.330200 -0.192106
v -0.805007 0.319703 -0.464769
v -0.788017 0.186227 -0.454960
v -0.761750 0.052637 -0.439794
v -0.727627 -0.078760 -0.420093
v -0.687388 -0.206546 -0.396862
v -0.642803 -0.330200 -0.371122
v -0.657285 0.319703 -0.657284
v -0.643413 0.186227 -0.643412
v -0.621966 0.052637 -0.621965
v -0.594104 -0.078760 -0.594104
v -0.561250 -0.206546 -0.561249
v -0.524847 -0.330200 -0.524846
v -0.464770 0.319703 -0.805006
v -0.454961 0.186227 -0.788017
v -0.439795 0.052637 -0.761749
v -0.420094 -0.078760 -0.727626
v -0.396863 -0.206546 -0.687388
v -0.371122 -0.330200 -0.642803
v -0.240583 0.319703 -0.897867
v -0.235504 0.186227 -0.878918
v -0.227654 0.052637 -0.849620
v -0.217456 -0.078760 -0.811561
v -0.205431 -0.206546 -0.766681
v -0.192107 -0.330200 -0.716953
vt 1.000000 0.928571
vt 1.000000 1.000000
vt 0.958333 1.000000
vt 0.958333 0.928571
vt 0.916667 1.000000
vt 0.916667 0.928571
vt 0.875000 1.000000
vt 0.875000 0.928572
vt 0.833333 1.000000
vt 0.833333 0.928571
vt 0.791667 1.000000
vt 0.791667 0.928572
vt 0.750000 1.000000
vt 0.750000 0.928571
vt 0.708333 1.000000
vt 0.708333 0.928571
vt 0.666667 1.000000
vt 0.666667 0.928571
vt 0.625000 1.000000
vt 0.625000 0.928572
vt 0.583333 1.000000
vt 0.583333 0.928571
vt 0.541666 1.000000
vt 0.541667 0.928572
vt 0.500000 1.000000
vt 0.500000 0.928572
vt 0.458333 1.000000
vt 0.458333 0.928571
vt 0.416666 1.000000
vt 0.416667 0.928571
vt 0.375000 1.000000
vt 0.375000 0.928572
vt 0.333333 1.000000
vt 0.333333 0.928571
vt 0.291667 1.000000
vt 0.291666 0.928571
vt 0.250000 1.000000
vt 0.250000 0.928572
vt 0.208333 1.000000
vt 0.208333 0.928571
vt 0.166666 1.000000
vt 0.166667 0.928571
vt 0.125000 1.000000
vt 0.125000 0.928571
vt 0.083333 1.000000
vt 0.083333 0.928571
vt 0.312117 0.481822
vt 0.250000 0.490000
vt 0.187883 0.481822
vt 0.130000 0.457846
vt 0.080294 0.419706
vt 0.042154 0.370000
vt 0.018178 0.312116
vt 0.010000 0.250000
vt 0.018178 0.187883
vt 0.042154 0.130000
vt 0.080294 0.080294
vt 0.130000 0.042154
vt 0.187884 0.018178
vt 0.250000 0.010000
vt 0.312117 0.018178
vt 0.370000 0.042154
vt 0.419706 0.080294
vt 0.457846 0.130000
vt 0.481822 0.187883
vt 0.490000 0.250000
vt 0.481822 0.312117
vt 0.457846 0.370000
vt 0.419706 0.419706
vt 0.370000 0.457846
vt 0.041666 1.000000
vt 0.041666 0.928571
vt -0.000000 1.000000
vt -0.000000 0.928571
vt 0.750000 0.490000
vt 0.812117 0.481822
vt 0.870000 0.457846
vt 0.919706 0.419706
vt 0.957846 0.370000
vt 0.981822 0.312117
vt 0.990000 0.250000
vt 0.981822 0.187883
vt 0.957846 0.130000
vt 0.919706 0.080294
vt 0.870000 0.042154
vt 0.812117 0.018178
vt 0.750000 0.010000
vt 0.687884 0.018178
vt 0.630000 0.042154
vt 0.580294 0.080294
vt 0.542154 0.130000
vt 0.518178 0.187883
vt 0.510000 0.250000
vt 0.518178 0.312116
vt 0.542154 0.370000
vt 0.580294 0.419706
vt 0.630000 0.457846
vt 0.687883 0.481822
vt 0.041666 0.500000
vt 0.041666 0.571428
vt -0.000000 0.571429
vt -0.000000 0.500000
vt 0.041666 0.642857
vt -0.000000 0.642857
vt 0.041666 0.714286
vt -0.000000 0.714286
vt 0.041666 0.785714
vt -0.000000 0.785714
vt 0.041666 0.857143
vt -0.000000 0.857143
vt 0.083333 0.500000
vt 0.083333 0.571429
vt 0.083333 0.642857
vt 0.083333 0.714286
vt 0.083333 0.785714
vt 0.083333 0.857143
vt 0.125000 0.500000
vt 0.125000 0.571429
vt 0.125000 0.642857
vt 0.125000 0.714286
vt 0.125000 0.785714
vt 0.125000 0.857143
vt 0.166666 0.500000
vt 0.166666 0.571428
vt 0.166666 0.642857
vt 0.166667 0.714286
vt 0.166666 0.785714
vt 0.166666 0.857143
vt 0.208333 0.500000
vt 0.208333 0.571429
vt 0.208333 0.642857
vt 0.208333 0.714286
vt 0.208333 0.785714
vt 0.208333 0.857143
vt 0.250000 0.500000
vt 0.250000 0.571429
vt 0.250000 0.642857
vt 0.250000 0.714286
vt 0.250000 0.785714
vt 0.250000 0.857143
vt 0.291667 0.500000
vt 0.291667 0.571429
vt 0.291667 0.642857
vt 0.291667 0.714286
vt 0.291667 0.785714
vt 0.291667 0.857143
vt 0.333333 0.500000
vt 0.333333 0.571428
vt 0.333333 0.642857
vt 0.333333 0.714286
vt 0.333333 0.785714
vt 0.333333 0.857143
vt 0.375000 0.500000
vt 0.375000 0.571429
vt 0.375000 0.642857
vt 0.375000 0.714286
vt 0.375000 0.785714
vt 0.375000 0.857143
vt 0.416666 0.500000
vt 0.416666 0.571428
vt 0.416667 0.642857
vt 0.416667 0.714286
vt 0.416667 0.785714
vt 0.416667 0.857143
vt 0.458333 0.500000
vt 0.458333 0.571429
vt 0.458333 0.642857
vt 0.458333 0.714286
vt 0.458333 0.785714
vt 0.458333 0.857143
vt 0.500000 0.500000
vt 0.500000 0.571429
vt 0.500000 0.642857
vt 0.500000 0.714286
vt 0.500000 0.785714
vt 0.500000 0.857143
vt 0.541666 0.500000
vt 0.541667 0.571429
vt 0.541666 0.642857
vt 0.541667 0.714286
vt 0.541667 0.785714
vt 0.541666 0.857143
vt 0.583333 0.500000
vt 0.583333 0.571428
vt 0.583333 0.642857
vt 0.583333 0.714286
vt 0.583333 0.785714
vt 0.583333 0.857143
vt 0.625000 0.500000
vt 0.625000 0.571429
vt 0.625000 0.642857
vt 0.625000 0.714286
vt 0.625000 0.785714
vt 0.625000 0.857143
vt 0.666667 0.500000
vt 0.666667 0.571429
vt 0.666667 0.642857
vt 0.666667 0.714286
vt 0.666667 0.785714
vt 0.666666 0.857143
vt 0.708333 0.500000
vt 0.708333 0.571429
vt 0.708333 0.642857
vt 0.708333 0.714286
vt 0.708333 0.785714
vt 0.708333 0.857143
vt 0.750000 0.500000
vt 0.750000 0.571429
vt 0.750000 0.642857
vt 0.750000 0.714286
vt 0.750000 0.785714
vt 0.750000 0.857143
vt 0.791667 0.500000
vt 0.791666 0.571429
vt 0.791666 0.642857
vt 0.791667 0.714286
vt 0.791667 0.785714
vt 0.791667 0.857143
vt 0.833333 0.500000
vt 0.833333 0.571429
vt 0.833333 0.642857
vt 0.833333 0.714286
vt 0.833333 0.785714
vt 0.833333 0.857143
vt 0.875000 0.500000
vt 0.875000 0.571428
vt 0.875000 0.642857
vt 0.875000 0.714286
vt 0.875000 0.785714
vt 0.875000 0.857143
vt 0.916667 0.500000
vt 0.916667 0.571429
vt 0.916667 0.642857
vt 0.916667 0.714286
vt 0.916667 0.785714
vt 0.916667 0.857143
vt 0.958333 0.500000
vt 0.958333 0.571429
vt 0.958333 0.642857
vt 0.958333 0.714286
vt 0.958333 0.785714
vt 0.958333 0.857143
vt 1.000000 0.500000
vt 1.000000 0.571429
vt 1.000000 0.642857
vt 1.000000 0.714286
vt 1.000000 0.785714
vt 1.000000 0.857143
vn 0.1303 -0.0604 -0.9896
vn 0.3820 -0.0605 -0.9222
vn 0.6076 -0.0605 -0.7919
vn 0.7919 -0.0605 -0.6076
vn 0.9222 -0.0605 -0.3820
vn 0.9896 -0.0605 -0.1303
vn 0.9896 -0.0605 0.1303
vn 0.9222 -0.0605 0.3820
vn 0.7919 -0.0605 0.6076
vn 0.6076 -0.0605 0.7919
vn 0.3820 -0.0605 0.9222
vn 0.1303 -0.0605 0.9896
vn -0.1303 -0.0605 0.9896
vn -0.3820 -0.0605 0.9222
vn -0.6076 -0.0605 0.7919
vn -0.7919 -0.0605 0.6076
vn -0.9222 -0.0605 0.3820
vn -0.9896 -0.0605 0.1303
vn -0.9896 -0.0605 -0.1303
vn -0.9222 -0.0605 -0.3820
vn -0.7919 -0.0605 -0.6076
vn -0.6076 -0.0605 -0.7919
vn 0.0000 1.0000 0.0000
vn -0.3820 -0.0605 -0.9222
vn -0.1303 -0.0604 -0.9896
vn -0.0000 -1.0000 0.0000
vn -0.1189 -0.4127 -0.9031
vn -0.1207 -0.3816 -0.9164
vn -0.1228 -0.3391 -0.9327
vn -0.1251 -0.2850 -0.9503
vn -0.1273 -0.2196 -0.9672
vn -0.1292 -0.1442 -0.9811
vn -0.3486 -0.4127 -0.8415
vn -0.3537 -0.3816 -0.8540
vn -0.3600 -0.3391 -0.8691
vn -0.3668 -0.2850 -0.8856
vn -0.3733 -0.2196 -0.9013
vn -0.3787 -0.1442 -0.9142
vn -0.5545 -0.4127 -0.7226
vn -0.5627 -0.3816 -0.7333
vn -0.5727 -0.3391 -0.7463
vn -0.5835 -0.2850 -0.7605
vn -0.5939 -0.2196 -0.7740
vn -0.6024 -0.1442 -0.7851
vn -0.7226 -0.4127 -0.5545
vn -0.7333 -0.3816 -0.5627
vn -0.7463 -0.3391 -0.5727
vn -0.7605 -0.2850 -0.5835
vn -0.7740 -0.2196 -0.5939
vn -0.7851 -0.1442 -0.6024
vn -0.8415 -0.4127 -0.3486
vn -0.8540 -0.3816 -0.3537
vn -0.8691 -0.3391 -0.3600
vn -0.8856 -0.2850 -0.3668
vn -0.9013 -0.2196 -0.3733
vn -0.9142 -0.1442 -0.3787
vn -0.9031 -0.4127 -0.1189
vn -0.9164 -0.3816 -0.1207
vn -0.9327 -0.3391 -0.1228
vn -0.9503 -0.2850 -0.1251
vn -0.9672 -0.2196 -0.1273
vn -0.9811 -0.1442 -0.1292
vn -0.9031 -0.4127 0.1189
vn -0.9164 -0.3816 0.1207
vn -0.9327 -0.3391 0.1228
vn -0.9503 -0.2850 0.1251
vn -0.9672 -0.2196 0.1273
vn -0.9811 -0.1442 0.1292
vn -0.8415 -0.4127 0.3486
vn -0.8540 -0.3816 0.3537
vn -0.8691 -0.3391 0.3600
vn -0.8856 -0.2850 0.3668
vn -0.9013 -0.2196 0.3733
vn -0.9142 -0.1442 0.3787
vn -0.7226 -0.4127 0.5545
vn -0.7333 -0.3816 0.5627
vn -0.7463 -0.3391 0.5727
vn -0.7605 -0.2850 0.5835
vn -0.7740 -0.2196 0.5939
vn -0.7851 -0.1442 0.6024
vn -0.5545 -0.4127 0.7226
vn -0.5627 -0.3816 0.7333
vn -0.5727 -0.3391 0.7463
vn -0.5835 -0.2850 0.7605
vn -0.5939 -0.2196 0.7740
vn -0.6024 -0.1442 0.7851
vn -0.3486 -0.4127 0.8415
vn -0.3537 -0.3816 0.8540
vn -0.3600 -0.3391 0.8691
vn -0.3668 -0.2850 0.8856
vn -0.3733 -0.2196 0.9013
vn -0.3787 -0.1442 0.9142
vn -0.1189 -0.4127 0.9031
vn -0.1207 -0.3816 0.9164
vn -0.1228 -0.3391 0.9327
vn -0.1251 -0.2850 0.9503
vn -0.1273 -0.2196 0.9672
vn -0.1292 -0.1442 0.9811
vn 0.1189 -0.4127 0.9031
vn 0.1207 -0.3816 0.9164
vn 0.1228 -0.3391 0.9327
vn 0.1251 -0.2850 0.9503
vn 0.1273 -0.2196 0.9672
vn 0.1292 -0.1442 0.9811
vn 0.3486 -0.4127 0.8415
vn 0.3537 -0.3816 0.8540
vn 0.3600 -0.3391 0.8691
vn 0.3668 -0.2850 0.8856
vn 0.3733 -0.2196 0.9013
vn 0.3787 -0.1442 0.9142
vn 0.5545 -0.4127 0.7226
vn 0.5627 -0.3816 0.7333
vn 0.5727 -0.3391 0.7463
vn 0.5835 -0.2850 0.7605
vn 0.5939 -0.2196 0.7740
vn 0.6024 -0.1442 0.7851
vn 0.7226 -0.4127 0.5545
vn 0.7333 -0.3816 0.5627
vn 0.7463 -0.3391 0.5727
vn 0.7605 -0.2850 0.5835
vn 0.7740 -0.2196 0.5939
vn 0.7851 -0.1442 0.6024
vn 0.8415 -0.4127 0.3486
vn 0.8540 -0.3816 0.3537
vn 0.8691 -0.3391 0.3600
vn 0.8856 -0.2850 0.3668
vn 0.9013 -0.2196 0.3733
vn 0.9142 -0.1442 0.3787
vn 0.9031 -0.4127 0.1189
vn 0.9164 -0.3816 0.1207
vn 0.9327 -0.3391 0.1228
vn 0.9503 -0.2850 0.1251
vn 0.9672 -0.2196 0.1273
vn 0.9811 -0.1442 0.1292
vn 0.9031 -0.4127 -0.1189
vn 0.9164 -0.3816 -0.1207
vn 0.9327 -0.3391 -0.1228
vn 0.9503 -0.2850 -0.1251
vn 0.9672 -0.2196 -0.1273
vn 0.9811 -0.1442 -0.1292
vn 0.8415 -0.4127 -0.3486
vn 0.8540 -0.3816 -0.3537
vn 0.8691 -0.3391 -0.3600
vn 0.8856 -0.2850 -0.3668
vn 0.9013 -0.2196 -0.3733
vn 0.9142 -0.1442 -0.3787
vn 0.7226 -0.4127 -0.5545
vn 0.7333 -0.3816 -0.5627
vn 0.7463 -0.3391 -0.5727
vn 0.7605 -0.2850 -0.5835
vn 0.7740 -0.2196 -0.5939
vn 0.7851 -0.1442 -0.6024
vn 0.5545 -0.4127 -0.7226
vn 0.5627 -0.3816 -0.7333
vn 0.5727 -0.3391 -0.7463
vn 0.5835 -0.2850 -0.7605
vn 0.5939 -0.2196 -0.7740
vn 0.6024 -0.1442 -0.7851
vn 0.3486 -0.4127 -0.8415
vn 0.3537 -0.3816 -0.8540
vn 0.3600 -0.3391 -0.8691
vn 0.3668 -0.2850 -0.8856
vn 0.3733 -0.2196 -0.9013
vn 0.3787 -0.1442 -0.9142
vn 0.1189 -0.4127 -0.9031
vn 0.1207 -0.3816 -0.9164
vn 0.1228 -0.3391 -0.9327
vn 0.1251 -0.2850 -0.9503
vn 0.1273 -0.2196 -0.9672
vn 0.1292 -0.1442 -0.9811
usemtl None
s off
f 54/1/1 2/2/1 4/3/1 55/4/1
f 55/4/2 4/3/2 6/5/2 61/6/2
f 61/6/3 6/5/3 8/7/3 67/8/3
f 67/8/4 8/7/4 10/9/4 73/10/4
f 73/10/5 10/9/5 12/11/5 79/12/5
f 79/12/6 12/11/6 14/13/6 85/14/6
f 85/14/7 14/13/7 16/15/7 91/16/7
f 91/16/8 16/15/8 18/17/8 97/18/8
f 97/18/9 18/17/9 20/19/9 103/20/9
f 103/20/10 20/19/10 22/21/10 109/22/10
f 109/22/11 22/21/11 24/23/11 115/24/11
f 115/24/12 24/23/12 26/25/12 121/26/12
f 121/26/13 26/25/13 28/27/13 127/28/13
f 127/28/14 28/27/14 30/29/14 133/30/14
f 133/30/15 30/29/15 32/31/15 139/32/15
f 139/32/16 32/31/16 34/33/16 145/34/16
f 145/34/17 34/33/17 36/35/17 151/36/17
f 151/36/18 36/35/18 38/37/18 157/38/18
f 157/38/19 38/37/19 40/39/19 163/40/19
f 163/40/20 40/39/20 42/41/20 169/42/20
f 169/42/21 42/41/21 44/43/21 175/44/21
f 175/44/22 44/43/22 46/45/22 181/46/22
f 4/47/23 2/48/23 48/49/23 46/50/23 44/51/23 42/52/23 40/53/23 38/54/23 36/55/23 34/56/23 32/57/23 30/58/23 28/59/23 26/60/23 24/61/23 22/62/23 20/63/23 18/64/23 16/65/23 14/66/23 12/67/23 10/68/23 8/69/23 6/70/23
f 181/46/24 46/45/24 48/71/24 187/72/24
f 187/72/25 48/71/25 2/73/25 54/74/25
f 1/75/26 3/76/26 5/77/26 7/78/26 9/79/26 11/80/26 13/81/26 15/82/26 17/83/26 19/84/26 21/85/26 23/86/26 25/87/26 27/88/26 29/89/26 31/90/26 33/91/26 35/92/26 37/93/26 39/94/26 41/95/26 43/96/26 45/97/26 47/98/26
f 47/99/27 192/100/27 49/101/27 1/102/27
f 192/100/28 191/103/28 50/104/28 49/101/28
f 191/103/29 190/105/29 51/106/29 50/104/29
f 190/105/30 189/107/30 52/108/30 51/106/30
f 189/107/31 188/109/31 53/110/31 52/108/31
f 188/109/32 187/72/32 54/74/32 53/110/32
f 45/111/33 186/112/33 192/100/33 47/99/33
f 186/112/34 185/113/34 191/103/34 192/100/34
f 185/113/35 184/114/35 190/105/35 191/103/35
f 184/114/36 183/115/36 189/107/36 190/105/36
f 183/115/37 182/116/37 188/109/37 189/107/37
f 182/116/38 181/46/38 187/72/38 188/109/38
f 43/117/39 180/118/39 186/112/39 45/111/39
f 180/118/40 179/119/40 185/113/40 186/112/40
f 179/119/41 178/120/41 184/114/41 185/113/41
f 178/120/42 177/121/42 183/115/42 184/114/42
f 177/121/43 176/122/43 182/116/43 183/115/43
f 176/122/44 175/44/44 181/46/44 182/116/44
f 41/123/45 174/124/45 180/118/45 43/117/45
f 174/124/46 173/125/46 179/119/46 180/118/46
f 173/125/47 172/126/47 178/120/47 179/119/47
f 172/126/48 171/127/48 177/121/48 178/120/48
f 171/127/49 170/128/49 176/122/49 177/121/49
f 170/128/50 169/42/50 175/44/50 176/122/50
f 39/129/51 168/130/51 174/124/51 41/123/51
f 168/130/52 167/131/52 173/125/52 174/124/52
f 167/131/53 166/132/53 172/126/53 173/125/53
f 166/132/54 165/133/54 171/127/54 172/126/54
f 165/133/55 164/134/55 170/128/55 171/127/55
f 164/134/56 163/40/56 169/42/56 170/128/56
f 37/135/57 162/136/57 168/130/57 39/129/57
f 162/136/58 161/137/58 167/131/58 168/130/58
f 161/137/59 160/138/59 166/132/59 167/131/59
f 160/138/60 159/139/60 165/133/60 166/132/60
f 159/139/61 158/140/61 164/134/61 165/133/61
f 158/140/62 157/38/62 163/40/62 164/134/62
f 35/141/63 156/142/63 162/136/63 37/135/63
f 156/142/64 155/143/64 161/137/64 162/136/64
f 155/143/65 154/144/65 160/138/65 161/137/65
f 154/144/66 153/145/66 159/139/66 160/138/66
f 153/145/67 152/146/67 158/140/67 159/139/67
f 152/146/68 151/36/68 157/38/68 158/140/68
f 33/147/69 150/148/69 156/142/69 35/141/69
f 150/148/70 149/149/70 155/143/70 156/142/70
f 149/149/71 148/150/71 154/144/71 155/143/71
f 148/150/72 147/151/72 153/145/72 154/144/72
f 147/151/73 146/152/73 152/146/73 153/145/73
f 146/152/74 145/34/74 151/36/74 152/146/74
f 31/153/75 144/154/75 150/148/75 33/147/75
f 144/154/76 143/155/76 149/149/76 150/148/76
f 143/155/77 142/156/77 148/150/77 149/149/77
f 142/156/78 141/157/78 147/151/78 148/150/78
f 141/157/79 140/158/79 146/152/79 147/151/79
f 140/158/80 139/32/80 145/34/80 146/152/80
f 29/159/81 138/160/81 144/154/81 31/153/81
f 138/160/82 137/161/82 143/155/82 144/154/82
f 137/161/83 136/162/83 142/156/83 143/155/83
f 136/162/84 135/163/84 141/157/84 142/156/84
f 135/163/85 134/164/85 140/158/85 141/157/85
f 134/164/86 133/30/86 139/32/86 140/158/86
f 27/165/87 132/166/87 138/160/87 29/159/87
f 132/166/88 131/167/88 137/161/88 138/160/88
f 131/167/89 130/168/89 136/162/89 137/161/89
f 130/168/90 129/169/90 135/163/90 136/162/90
f 129/169/91 128/170/91 134/164/91 135/163/91
f 128/170/92 127/28/92 133/30/92 134/164/92
f 25/171/93 126/172/93 132/166/93 27/165/93
f 126/172/94 125/173/94 131/167/94 132/166/94
f 125/173/95 124/174/95 130/168/95 131/167/95
f 124/174/96 123/175/96 129/169/96 130/168/96
f 123/175/97 122/176/97 128/170/97 129/169/97
f 122/176/98 121/26/98 127/28/98 128/170/98
f 23/177/99 120/178/99 126/172/99 25/171/99
f 120/178/100 119/179/100 125/173/100 126/172/100
f 119/179/101 118/180/101 124/174/101 125/173/101
f 118/180/102 117/181/102 123/175/102 124/174/102
f 117/181/103 116/182/103 122/176/103 123/175/103
f 116/182/104 115/24/104 121/26/104 122/176/104
f 21/183/105 114/184/105 120/178/105 23/177/105
f 114/184/106 113/185/106 119/179/106 120/178/106
f 113/185/107 112/186/107 118/180/107 119/179/107
f 112/186/108 111/187/108 117/181/108 118/180/108
f 111/187/109 110/188/109 116/182/109 117/181/109
f 110/188/110 109/22/110 115/24/110 116/182/110
f 19/189/111 108/190/111 114/184/111 21/183/111
f 108/190/112 107/191/112 113/185/112 114/184/112
f 107/191/113 106/192/113 112/186/113 113/185/113
f 106/192/114 105/193/114 111/187/114 112/186/114
f 105/193/115 104/194/115 110/188/115 111/187/115
f 104/194/116 103/20/116 109/22/116 110/188/116
f 17/195/117 102/196/117 108/190/117 19/189/117
f 102/196/118 101/197/118 107/191/118 108/190/118
f 101/197/119 100/198/119 106/192/119 107/191/119
f 100/198/120 99/199/120 105/193/120 106/192/120
f 99/199/121 98/200/121 104/194/121 105/193/121
f 98/200/122 97/18/122 103/20/122 104/194/122
f 15/201/123 96/202/123 102/196/123 17/195/123
f 96/202/124 95/203/124 101/197/124 102/196/124
f 95/203/125 94/204/125 100/198/125 101/197/125
f 94/204/126 93/205/126 99/199/126 100/198/126
f 93/205/127 92/206/127 98/200/127 99/199/127
f 92/206/128 91/16/128 97/18/128 98/200/128
f 13/207/129 90/208/129 96/202/129 15/201/129
f 90/208/130 89/209/130 95/203/130 96/202/130
f 89/209/131 88/210/131 94/204/131 95/203/131
f 88/210/132 87/211/132 93/205/132 94/204/132
f 87/211/133 86/212/133 92/206/133 93/205/133
f 86/212/134 85/14/134 91/16/134 92/206/134
f 11/213/135 84/214/135 90/208/135 13/207/135
f 84/214/136 83/215/136 89/209/136 90/208/136
f 83/215/137 82/216/137 88/210/137 89/209/137
f 82/216/138 81/217/138 87/211/138 88/210/138
f 81/217/139 80/218/139 86/212/139 87/211/139
f 80/218/140 79/12/140 85/14/140 86/212/140
f 9/219/141 78/220/141 84/214/141 11/213/141
f 78/220/142 77/221/142 83/215/142 84/214/142
f 77/221/143 76/222/143 82/216/143 83/215/143
f 76/222/144 75/223/144 81/217/144 82/216/144
f 75/223/145 74/224/145 80/218/145 81/217/145
f 74/224/146 73/10/146 79/12/146 80/218/146
f 7/225/147 72/226/147 78/220/147 9/219/147
f 72/226/148 71/227/148 77/221/148 78/220/148
f 71/227/149 70/228/149 76/222/149 77/221/149
f 70/228/150 69/229/150 75/223/150 76/222/150
f 69/229/151 68/230/151 74/224/151 75/223/151
f 68/230/152 67/8/152 73/10/152 74/224/152
f 5/231/153 66/232/153 72/226/153 7/225/153
f 66/232/154 65/233/154 71/227/154 72/226/154
f 65/233/155 64/234/155 70/228/155 71/227/155
f 64/234/156 63/235/156 69/229/156 70/228/156
f 63/235/157 62/236/157 68/230/157 69/229/157
f 62/236/158 61/6/158 67/8/158 68/230/158
f 3/237/159 60/238/159 66/232/159 5/231/159
f 60/238/160 59/239/160 65/233/160 66/232/160
f 59/239/161 58/240/161 64/234/161 65/233/161
f 58/240/162 57/241/162 63/235/162 64/234/162
f 57/241/163 56/242/163 62/236/163 63/235/163
f 56/242/164 55/4/164 61/6/164 62/236/164
f 1/243/165 49/244/165 60/238/165 3/237/165
f 49/244/166 50/245/166 59/239/166 60/238/166
f 50/245/167 51/246/167 58/240/167 59/239/167
f 51/246/168 52/247/168 57/241/168 58/240/168
f 52/247/169 53/248/169 56/242/169 57/241/169
f 53/248/170 54/1/170 55/4/170 56/242/170
