# Exported from Wings 3D 1.5.4
mtllib dorado_fuel_vent_srf_1.mtl
o dorado_fuel_vent_srf_1
#61 vertices, 61 faces
v 5.0000000e-2 7.9718341e-18 2.5000000e-2
v 4.3301270e-2 -2.5000000e-2 2.5000000e-2
v 2.5000000e-2 -4.3301270e-2 2.5000000e-2
v -8.4831039e-17 -5.0000000e-2 2.5000000e-2
v -2.5000000e-2 -4.3301270e-2 2.5000000e-2
v -4.3301270e-2 -2.5000000e-2 2.5000000e-2
v -5.0000000e-2 1.8486001e-18 2.5000000e-2
v -4.3301270e-2 2.5000000e-2 2.5000000e-2
v -2.5000000e-2 4.3301270e-2 2.5000000e-2
v -9.7077507e-17 5.0000000e-2 2.5000000e-2
v 2.5000000e-2 4.3301270e-2 2.5000000e-2
v 4.3301270e-2 2.5000000e-2 2.5000000e-2
v 5.0000000e-2 1.5594795e-18 -5.0000000e-2
v 4.3301270e-2 -2.5000000e-2 -5.0000000e-2
v 2.5000000e-2 -4.3301270e-2 -5.0000000e-2
v -8.5915241e-17 -5.0000000e-2 -5.0000000e-2
v -2.5000000e-2 -4.3301270e-2 -5.0000000e-2
v -4.3301270e-2 -2.5000000e-2 -5.0000000e-2
v -5.0000000e-2 -4.5637545e-18 -5.0000000e-2
v -4.3301270e-2 2.5000000e-2 -5.0000000e-2
v -2.5000000e-2 4.3301270e-2 -5.0000000e-2
v -9.8161709e-17 5.0000000e-2 -5.0000000e-2
v 2.5000000e-2 4.3301270e-2 -5.0000000e-2
v 4.3301270e-2 2.5000000e-2 -5.0000000e-2
v 3.7500000e-2 1.4189392e-18 -5.0000000e-2
v 3.2475953e-2 -1.8750000e-2 -5.0000000e-2
v 1.8750000e-2 -3.2475953e-2 -5.0000000e-2
v -8.7710638e-17 -3.7500000e-2 -5.0000000e-2
v -1.8750000e-2 -3.2475953e-2 -5.0000000e-2
v -3.2475953e-2 -1.8750000e-2 -5.0000000e-2
v -3.7500000e-2 -3.1734863e-18 -5.0000000e-2
v -3.2475953e-2 1.8750000e-2 -5.0000000e-2
v -1.8750000e-2 3.2475953e-2 -5.0000000e-2
v -9.6895489e-17 3.7500000e-2 -5.0000000e-2
v 1.8750000e-2 3.2475953e-2 -5.0000000e-2
v 3.2475953e-2 1.8750000e-2 -5.0000000e-2
v -9.8180469e-17 3.7500000e-2 -0.12500000
v 2.1650635e-2 1.2500000e-2 -0.10833333
v 1.2500000e-2 2.1650635e-2 -0.11443376
v -9.6068303e-17 2.5000000e-2 -0.11666667
v -1.2500000e-2 2.1650635e-2 -0.11443376
v -2.1650635e-2 1.2500000e-2 -0.10833333
v -2.5000000e-2 -2.4617366e-18 -0.10000000
v -2.1650635e-2 -1.2500000e-2 -9.1666667e-2
v -1.2500000e-2 -2.1650635e-2 -8.5566243e-2
v -9.0587559e-17 -2.5000000e-2 -8.3333333e-2
v 1.2500000e-2 -2.1650635e-2 -8.5566243e-2
v 2.1650635e-2 -1.2500000e-2 -9.1666667e-2
v 2.5000000e-2 5.9988036e-19 -0.10000000
v 3.2475953e-2 1.8750000e-2 -0.11250000
v 1.8750000e-2 3.2475953e-2 -0.12165064
v -1.8750000e-2 3.2475953e-2 -0.12165064
v -3.2475953e-2 1.8750000e-2 -0.11250000
v -3.7500000e-2 -3.1734863e-18 -0.10000000
v -3.2475953e-2 -1.8750000e-2 -8.7500000e-2
v -1.8750000e-2 -3.2475953e-2 -7.8349365e-2
v -8.8138964e-17 -3.7500000e-2 -7.5000000e-2
v 1.8750000e-2 -3.2475953e-2 -7.8349365e-2
v 3.2475953e-2 -1.8750000e-2 -8.7500000e-2
v 3.7500000e-2 1.4189392e-18 -0.10000000
v -9.2807706e-17 -5.7824116e-19 -5.0000000e-2
vt 7.6138689e-2 0.80186807
vt 8.6497420e-2 0.84052738
vt 8.6497420e-2 0.76320876
vt 0.11479800 0.86882796
vt 0.11479800 0.73490818
vt 0.15345731 0.72454945
vt 0.15345731 0.87918669
vt 0.19211662 0.73490818
vt 0.19211662 0.86882796
vt 0.22041720 0.76320876
vt 0.22041720 0.84052738
vt 0.23077594 0.80186807
vt 0.30490107 0.68179888
vt 0.30490107 0.68179888
vt 0.30490107 0.72182194
vt 0.30490107 0.76184501
vt 0.30490107 0.80186807
vt 0.30490107 0.84189114
vt 0.30490107 0.88191420
vt 0.30490107 0.72182194
vt 0.30490107 0.76184501
vt 0.30490107 0.80186807
vt 0.30490107 0.84189114
vt 0.30490107 0.88191420
vt 0.30490107 0.92193726
vt 0.42087900 0.68179888
vt 0.42087900 0.72182194
vt 0.42087900 0.72182194
vt 0.42087900 0.76184501
vt 0.42087900 0.80186807
vt 0.42087900 0.84189114
vt 0.42087900 0.88191420
vt 0.42087900 0.92193726
vt 0.49683329 0.72454945
vt 0.49683329 0.73490818
vt 0.49683329 0.76320876
vt 0.49683329 0.80186807
vt 0.49683329 0.84052738
vt 0.49683329 0.86882796
vt 0.49683329 0.87918669
vt 0.49683329 0.72454945
vt 0.49683329 0.73490818
vt 0.49683329 0.76320876
vt 0.49683329 0.80186807
vt 0.49683329 0.84052738
vt 0.49683329 0.86882796
vt 0.49683329 0.87918669
vt 0.51229171 0.74387910
vt 0.51229171 0.74387910
vt 0.51229171 0.75164815
vt 0.51229171 0.75164815
vt 0.51229171 0.77287359
vt 0.51229171 0.77287359
vt 0.51229171 0.80186807
vt 0.51229171 0.80186807
vt 0.51229171 0.83086255
vt 0.51229171 0.83086255
vt 0.51229171 0.85208799
vt 0.51229171 0.85208799
vt 0.51229171 0.85985704
vt 0.51229171 0.85985704
vt 0.60586769 0.71126000
vt 0.60586769 0.74127729
vt 0.60586769 0.77129459
vt 0.60586769 0.77129459
vt 0.60586769 0.80131189
vt 0.60586769 0.80131189
vt 0.60586769 0.83132919
vt 0.60586769 0.86134649
vt 0.60586769 0.89136379
vt 0.60586769 0.89136379
vt 0.60586769 0.74127729
vt 0.64126934 0.71126000
vt 0.64126934 0.71126000
vt 0.64644871 0.74127729
vt 0.64644871 0.74127729
vt 0.66059900 0.77129459
vt 0.66059900 0.77129459
vt 0.67992866 0.80131189
vt 0.67992866 0.80131189
vt 0.69925831 0.83132919
vt 0.69925831 0.83132919
vt 0.71340860 0.86134649
vt 0.71340860 0.86134649
vt 0.71858797 0.89136379
vt 0.71858797 0.89136379
vt 0.80857200 0.80120494
vt 0.81634105 0.76635791
vt 0.81634105 0.83605197
vt 0.82790166 0.80120494
vt 0.83308102 0.77797359
vt 0.83308102 0.82443630
vt 0.83756648 0.74084811
vt 0.83756648 0.86156177
vt 0.84723131 0.76096705
vt 0.84723131 0.84144283
vt 0.86656097 0.73151087
vt 0.86656097 0.75474223
vt 0.86656097 0.79810447
vt 0.86656097 0.84766765
vt 0.86656097 0.87089901
vt 0.88589062 0.76096705
vt 0.88589062 0.84144283
vt 0.89555545 0.74084811
vt 0.89555545 0.86156177
vt 0.90004091 0.77797359
vt 0.90004091 0.82443630
vt 0.90522028 0.80120494
vt 0.91678089 0.76635791
vt 0.91678089 0.83605197
vt 0.92454994 0.80120494
vn 1.3715536e-16 -0.37030403 -0.92891061
vn -1.4456029e-17 1.1564823e-17 1.00000000
vn 1.00000000 2.2987749e-16 -3.6140072e-18
vn 1.00000000 2.2987749e-16 -3.6140072e-18
vn -1.4456029e-17 1.1564823e-17 1.00000000
vn 0.86602540 -0.50000000 6.1438123e-17
vn 0.86602540 -0.50000000 6.1438123e-17
vn -1.4456029e-17 1.1564823e-17 1.00000000
vn 0.50000000 -0.86602540 1.1564823e-16
vn 0.50000000 -0.86602540 1.1564823e-16
vn -1.4456029e-17 1.1564823e-17 1.00000000
vn 8.6204059e-17 -1.00000000 1.3733228e-16
vn 8.6204059e-17 -1.00000000 1.3733228e-16
vn -1.4456029e-17 1.1564823e-17 1.00000000
vn -0.50000000 -0.86602540 1.3010426e-16
vn -0.50000000 -0.86602540 1.3010426e-16
vn -1.4456029e-17 1.1564823e-17 1.00000000
vn -0.86602540 -0.50000000 7.2280145e-17
vn -0.86602540 -0.50000000 7.2280145e-17
vn -1.4456029e-17 1.1564823e-17 1.00000000
vn -1.00000000 -3.1608155e-16 3.6140072e-18
vn -1.00000000 -3.1608155e-16 3.6140072e-18
vn -1.4456029e-17 1.1564823e-17 1.00000000
vn -0.86602540 0.50000000 -4.6982094e-17
vn -0.86602540 0.50000000 -4.6982094e-17
vn -1.4456029e-17 1.1564823e-17 1.00000000
vn -0.50000000 0.86602540 -7.9508159e-17
vn -0.50000000 0.86602540 -7.9508159e-17
vn -1.4456029e-17 1.1564823e-17 1.00000000
vn -4.3102029e-16 1.00000000 -1.1203422e-16
vn -4.3102029e-16 1.00000000 -1.1203422e-16
vn -1.4456029e-17 1.1564823e-17 1.00000000
vn 0.50000000 0.86602540 -1.2649025e-16
vn 0.50000000 0.86602540 -1.2649025e-16
vn -1.4456029e-17 1.1564823e-17 1.00000000
vn 0.86602540 0.50000000 -7.2280145e-17
vn 0.86602540 0.50000000 -7.2280145e-17
vn 1.00000000 2.2987749e-16 -3.6140072e-18
vn 1.00000000 2.2987749e-16 -3.6140072e-18
vn 0.0000000e+0 0.0000000e+0 -1.00000000
vn 0.0000000e+0 0.0000000e+0 -1.00000000
vn 0.86602540 -0.50000000 6.1438123e-17
vn 0.86602540 -0.50000000 6.1438123e-17
vn 0.0000000e+0 0.0000000e+0 -1.00000000
vn 0.0000000e+0 0.0000000e+0 -1.00000000
vn 0.50000000 -0.86602540 1.1564823e-16
vn 0.50000000 -0.86602540 1.1564823e-16
vn 0.0000000e+0 0.0000000e+0 -1.00000000
vn 0.0000000e+0 0.0000000e+0 -1.00000000
vn 8.6204059e-17 -1.00000000 1.3733228e-16
vn 8.6204059e-17 -1.00000000 1.3733228e-16
vn 0.0000000e+0 0.0000000e+0 -1.00000000
vn 0.0000000e+0 0.0000000e+0 -1.00000000
vn -0.50000000 -0.86602540 1.3010426e-16
vn -0.50000000 -0.86602540 1.3010426e-16
vn 0.0000000e+0 0.0000000e+0 -1.00000000
vn 0.0000000e+0 0.0000000e+0 -1.00000000
vn -0.86602540 -0.50000000 7.2280145e-17
vn -0.86602540 -0.50000000 7.2280145e-17
vn 0.0000000e+0 0.0000000e+0 -1.00000000
vn 0.0000000e+0 0.0000000e+0 -1.00000000
vn -1.00000000 -3.1608155e-16 3.6140072e-18
vn -1.00000000 -3.1608155e-16 3.6140072e-18
vn 0.0000000e+0 0.0000000e+0 -1.00000000
vn 0.0000000e+0 0.0000000e+0 -1.00000000
vn -0.86602540 0.50000000 -4.6982094e-17
vn -0.86602540 0.50000000 -4.6982094e-17
vn 0.0000000e+0 0.0000000e+0 -1.00000000
vn 0.0000000e+0 0.0000000e+0 -1.00000000
vn -0.50000000 0.86602540 -7.9508159e-17
vn -0.50000000 0.86602540 -7.9508159e-17
vn 0.0000000e+0 0.0000000e+0 -1.00000000
vn 0.0000000e+0 0.0000000e+0 -1.00000000
vn -4.3102029e-16 1.00000000 -1.1203422e-16
vn -4.3102029e-16 1.00000000 -1.1203422e-16
vn 0.0000000e+0 0.0000000e+0 -1.00000000
vn 0.0000000e+0 0.0000000e+0 -1.00000000
vn 0.50000000 0.86602540 -1.2649025e-16
vn 0.50000000 0.86602540 -1.2649025e-16
vn 0.0000000e+0 0.0000000e+0 -1.00000000
vn 0.0000000e+0 0.0000000e+0 -1.00000000
vn 0.86602540 0.50000000 -7.2280145e-17
vn 0.86602540 0.50000000 -7.2280145e-17
vn 0.0000000e+0 0.0000000e+0 -1.00000000
vn 0.0000000e+0 0.0000000e+0 -1.00000000
vn 0.0000000e+0 0.0000000e+0 -1.00000000
vn 0.0000000e+0 0.0000000e+0 -1.00000000
vn 1.00000000 2.2987749e-16 0.0000000e+0
vn 1.00000000 2.2987749e-16 0.0000000e+0
vn 0.0000000e+0 0.0000000e+0 -1.00000000
vn 0.0000000e+0 0.0000000e+0 -1.00000000
vn 0.86602540 -0.50000000 0.0000000e+0
vn 0.86602540 -0.50000000 0.0000000e+0
vn 0.0000000e+0 0.0000000e+0 -1.00000000
vn 0.0000000e+0 0.0000000e+0 -1.00000000
vn 0.50000000 -0.86602540 0.0000000e+0
vn 0.50000000 -0.86602540 0.0000000e+0
vn 0.0000000e+0 0.0000000e+0 -1.00000000
vn 0.0000000e+0 0.0000000e+0 -1.00000000
vn 2.0114280e-16 -1.00000000 0.0000000e+0
vn 2.0114280e-16 -1.00000000 0.0000000e+0
vn 0.0000000e+0 0.0000000e+0 -1.00000000
vn 0.0000000e+0 0.0000000e+0 -1.00000000
vn -0.50000000 -0.86602540 0.0000000e+0
vn -0.50000000 -0.86602540 0.0000000e+0
vn 0.0000000e+0 0.0000000e+0 -1.00000000
vn 0.0000000e+0 0.0000000e+0 -1.00000000
vn -0.86602540 -0.50000000 0.0000000e+0
vn -0.86602540 -0.50000000 0.0000000e+0
vn 0.0000000e+0 0.0000000e+0 -1.00000000
vn 0.0000000e+0 0.0000000e+0 -1.00000000
vn -1.00000000 -2.2987749e-16 0.0000000e+0
vn -1.00000000 -2.2987749e-16 0.0000000e+0
vn 0.0000000e+0 0.0000000e+0 -1.00000000
vn 0.0000000e+0 0.0000000e+0 -1.00000000
vn -0.86602540 0.50000000 0.0000000e+0
vn -0.86602540 0.50000000 0.0000000e+0
vn 0.0000000e+0 0.0000000e+0 -1.00000000
vn 0.0000000e+0 0.0000000e+0 -1.00000000
vn -0.50000000 0.86602540 0.0000000e+0
vn -0.50000000 0.86602540 0.0000000e+0
vn 0.0000000e+0 0.0000000e+0 -1.00000000
vn 0.0000000e+0 0.0000000e+0 -1.00000000
vn -3.4481624e-16 1.00000000 0.0000000e+0
vn -3.4481624e-16 1.00000000 0.0000000e+0
vn 0.0000000e+0 0.0000000e+0 -1.00000000
vn 0.0000000e+0 0.0000000e+0 -1.00000000
vn 0.50000000 0.86602540 0.0000000e+0
vn 0.50000000 0.86602540 0.0000000e+0
vn 0.0000000e+0 0.0000000e+0 -1.00000000
vn 0.0000000e+0 0.0000000e+0 -1.00000000
vn 0.86602540 0.50000000 0.0000000e+0
vn 0.86602540 0.50000000 0.0000000e+0
vn -3.4481624e-16 1.00000000 0.0000000e+0
vn -3.4481624e-16 1.00000000 0.0000000e+0
vn -4.3301315e-17 -0.55470020 -0.83205029
vn -4.3301315e-17 -0.55470020 -0.83205029
vn -0.67113337 -0.63360692 -0.38486657
vn -0.67113337 -0.63360692 -0.38486657
vn -3.3197675e-16 -0.55470020 -0.83205029
vn -3.3197675e-16 -0.55470020 -0.83205029
vn -0.36300852 -0.85972478 -0.35930225
vn -0.36300852 -0.85972478 -0.35930225
vn -1.4433772e-17 -0.55470020 -0.83205029
vn -1.4433772e-17 -0.55470020 -0.83205029
vn 9.8849335e-17 -0.93632918 -0.35112344
vn 9.8849335e-17 -0.93632918 -0.35112344
vn -4.3301315e-17 -0.55470020 -0.83205029
vn -4.3301315e-17 -0.55470020 -0.83205029
vn 0.36300852 -0.85972478 -0.35930225
vn 0.36300852 -0.85972478 -0.35930225
vn -2.0207281e-16 -0.55470020 -0.83205029
vn -2.0207281e-16 -0.55470020 -0.83205029
vn 0.67113337 -0.63360692 -0.38486657
vn 0.67113337 -0.63360692 -0.38486657
vn -1.5877149e-16 -0.55470020 -0.83205029
vn -1.5877149e-16 -0.55470020 -0.83205029
vn 0.86059474 -0.27243508 -0.43029737
vn 0.86059474 -0.27243508 -0.43029737
vn -3.1754298e-16 -0.55470020 -0.83205029
vn -3.1754298e-16 -0.55470020 -0.83205029
vn 0.84928121 0.18151764 -0.49575475
vn 0.84928121 0.18151764 -0.49575475
vn -3.0310921e-16 -0.55470020 -0.83205029
vn -3.0310921e-16 -0.55470020 -0.83205029
vn 0.55264039 0.61137610 -0.56639903
vn 0.55264039 0.61137610 -0.56639903
vn -2.8867544e-17 -0.55470020 -0.83205029
vn -2.8867544e-17 -0.55470020 -0.83205029
vn -4.0817112e-16 0.80000000 -0.60000000
vn -4.0817112e-16 0.80000000 -0.60000000
vn 8.6602631e-17 -0.55470020 -0.83205029
vn 8.6602631e-17 -0.55470020 -0.83205029
vn -0.55264039 0.61137610 -0.56639903
vn -0.55264039 0.61137610 -0.56639903
vn -3.3919364e-16 -0.55470020 -0.83205029
vn -3.3919364e-16 -0.55470020 -0.83205029
vn -0.84928121 0.18151764 -0.49575475
vn -0.84928121 0.18151764 -0.49575475
vn -4.6909758e-16 -0.55470020 -0.83205029
vn -4.6909758e-16 -0.55470020 -0.83205029
vn -0.86059474 -0.27243508 -0.43029737
vn -0.86059474 -0.27243508 -0.43029737
vn -3.1754298e-16 -0.55470020 -0.83205029
vn -3.1754298e-16 -0.55470020 -0.83205029
vn 0.86602540 0.50000000 0.0000000e+0
vn 0.86602540 0.50000000 0.0000000e+0
vn -3.3197675e-16 -0.55470020 -0.83205029
vn -3.3197675e-16 -0.55470020 -0.83205029
vn 0.50000000 0.86602540 0.0000000e+0
vn 0.50000000 0.86602540 0.0000000e+0
vn -1.4433772e-17 -0.55470020 -0.83205029
vn -1.4433772e-17 -0.55470020 -0.83205029
vn -0.50000000 0.86602540 0.0000000e+0
vn -0.50000000 0.86602540 0.0000000e+0
vn -2.0207281e-16 -0.55470020 -0.83205029
vn -2.0207281e-16 -0.55470020 -0.83205029
vn -0.86602540 0.50000000 0.0000000e+0
vn -0.86602540 0.50000000 0.0000000e+0
vn -1.5877149e-16 -0.55470020 -0.83205029
vn -1.5877149e-16 -0.55470020 -0.83205029
vn -1.00000000 -2.2987749e-16 0.0000000e+0
vn -1.00000000 -2.2987749e-16 0.0000000e+0
vn -3.1754298e-16 -0.55470020 -0.83205029
vn -3.1754298e-16 -0.55470020 -0.83205029
vn -0.86602540 -0.50000000 0.0000000e+0
vn -0.86602540 -0.50000000 0.0000000e+0
vn -3.0310921e-16 -0.55470020 -0.83205029
vn -3.0310921e-16 -0.55470020 -0.83205029
vn -0.50000000 -0.86602540 0.0000000e+0
vn -0.50000000 -0.86602540 0.0000000e+0
vn -2.8867544e-17 -0.55470020 -0.83205029
vn -2.8867544e-17 -0.55470020 -0.83205029
vn 2.0114280e-16 -1.00000000 0.0000000e+0
vn 2.0114280e-16 -1.00000000 0.0000000e+0
vn 8.6602631e-17 -0.55470020 -0.83205029
vn 8.6602631e-17 -0.55470020 -0.83205029
vn 0.50000000 -0.86602540 0.0000000e+0
vn 0.50000000 -0.86602540 0.0000000e+0
vn -3.3919364e-16 -0.55470020 -0.83205029
vn -3.3919364e-16 -0.55470020 -0.83205029
vn 0.86602540 -0.50000000 0.0000000e+0
vn 0.86602540 -0.50000000 0.0000000e+0
vn -4.6909758e-16 -0.55470020 -0.83205029
vn -4.6909758e-16 -0.55470020 -0.83205029
vn 1.00000000 2.2987749e-16 0.0000000e+0
vn 1.00000000 2.2987749e-16 0.0000000e+0
vn -3.1754298e-16 -0.55470020 -0.83205029
vn -3.1754298e-16 -0.55470020 -0.83205029
g dorado_fuel_vent_srf_1_dorado_fuel_vent_srf_1_auv
usemtl dorado_fuel_vent_srf_1_auv
s 1
f 1/12/2 12/11/35 11/9/32 10/7/29 9/4/26 8/2/23 7/1/20 6/3/17 5/5/14 4/6/11 3/8/8 2/10/5
f 13/44/41 25/54/87 36/56/131 24/45/85
f 14/43/44 26/52/90 25/54/86 13/44/40
f 15/42/48 27/50/94 26/52/91 14/43/45
f 16/41/52 28/48/98 27/50/95 15/42/49
f 17/39/56 29/59/102 28/61/99 16/40/53
f 18/38/60 30/57/106 29/59/103 17/39/57
f 19/37/64 31/55/110 30/57/107 18/38/61
f 20/36/68 32/53/114 31/55/111 19/37/65
f 21/35/72 33/51/118 32/53/115 20/36/69
f 22/34/76 34/49/122 33/51/119 21/35/73
f 23/46/80 35/58/126 34/60/123 22/47/77
f 24/45/84 36/56/130 35/58/127 23/46/81
f 37/97/136 40/98/148 41/95/152 52/93/196
f 50/109/188 38/106/140 39/102/145 51/104/193
f 51/104/192 39/102/144 40/98/149 37/97/137
f 52/93/197 41/95/153 42/91/157 53/88/201
f 53/88/200 42/91/156 43/90/161 54/87/205
f 54/87/204 43/90/160 44/92/165 55/89/209
f 55/89/208 44/92/164 45/96/169 56/94/213
f 56/94/212 45/96/168 46/100/173 57/101/217
f 57/101/216 46/100/172 47/103/177 58/105/221
f 58/105/220 47/103/176 48/107/181 59/110/225
f 59/110/224 48/107/180 49/108/185 60/111/229
f 60/111/228 49/108/184 38/106/141 50/109/189
s 2
f 1/22/3 13/30/38 24/31/82 12/23/36
f 2/21/7 14/29/43 13/30/39 1/22/4
f 3/20/10 15/27/47 14/29/42 2/21/6
f 4/13/13 16/26/51 15/27/46 3/20/9
f 5/28/16 17/15/55 16/14/50 4/26/12
f 6/29/19 18/16/59 17/15/54 5/28/15
f 7/30/22 19/17/63 18/16/58 6/29/18
f 8/31/25 20/18/67 19/17/62 7/30/21
f 9/32/28 21/19/71 20/18/66 8/31/24
f 10/33/31 22/25/75 21/19/70 9/32/27
f 11/24/34 23/32/79 22/33/74 10/25/30
f 12/23/37 24/31/83 23/32/78 11/24/33
f 25/67/89 60/79/227 50/82/187 36/68/133
f 26/65/92 59/78/222 60/79/226 25/67/88
f 27/72/96 58/76/218 59/78/223 26/65/93
f 28/62/100 57/73/214 58/76/219 27/72/97
f 29/63/104 56/75/210 57/74/215 28/62/101
f 30/64/108 55/77/206 56/75/211 29/63/105
f 31/66/112 54/80/202 55/77/207 30/64/109
f 32/68/116 53/81/198 54/80/203 31/66/113
f 33/69/120 52/83/194 53/81/199 32/68/117
f 34/70/124 37/85/134 52/83/195 33/69/121
f 35/69/128 51/84/190 37/86/135 34/71/125
f 36/68/132 50/82/186 51/84/191 35/69/129
f 38/106/139 49/108/183 61/99/1
f 61/99/1 39/102/143 38/106/138
f 61/99/1 40/98/147 39/102/142
f 61/99/1 41/95/151 40/98/146
f 61/99/1 42/91/155 41/95/150
f 61/99/1 43/90/159 42/91/154
f 61/99/1 44/92/163 43/90/158
f 61/99/1 45/96/167 44/92/162
f 61/99/1 46/100/171 45/96/166
f 61/99/1 47/103/175 46/100/170
f 61/99/1 48/107/179 47/103/174
f 61/99/1 49/108/182 48/107/178
