# Blender v2.92.0 OBJ File: ''
# www.blender.org
mtllib fixedwall.mtl
o wall
v 0.000000 2.000000 -0.812500
v 0.003263 2.000000 -0.787714
v 0.003263 1.500000 -0.787714
v 0.000000 1.500000 -0.812500
v 0.003263 0.000000 -0.787714
v 0.000000 0.000000 -0.812500
v 0.000000 0.500000 -0.812500
v 0.003263 0.500000 -0.787714
v 0.003263 0.500000 0.787714
v -0.000000 0.500000 0.812500
v -0.000000 -0.000000 0.812500
v 0.003263 -0.000000 0.787714
v 0.000000 1.000000 -0.812500
v 0.003263 1.000000 -0.787714
v 0.003263 1.000000 0.787714
v -0.000000 1.000000 0.812500
v 0.003263 1.500000 0.787714
v -0.000000 1.500000 0.812500
v 0.003263 2.000000 0.787714
v -0.000000 2.000000 0.812500
v -0.812500 0.000000 -0.000000
v -0.787284 -0.000000 0.000000
v -0.760458 -0.000000 0.203764
v -0.784815 -0.000000 0.210290
v -0.681808 -0.000000 0.393642
v -0.703646 -0.000000 0.406250
v -0.556694 -0.000000 0.556694
v -0.574524 -0.000000 0.574524
v -0.393642 -0.000000 0.681808
v -0.406250 -0.000000 0.703646
v -0.203764 -0.000000 0.760458
v -0.210290 -0.000000 0.784815
v -0.203764 0.000000 -0.760458
v -0.210290 0.000000 -0.784815
v -0.393642 0.000000 -0.681808
v -0.406250 0.000000 -0.703646
v -0.556694 0.000000 -0.556694
v -0.574524 0.000000 -0.574524
v -0.681808 0.000000 -0.393642
v -0.703646 0.000000 -0.406250
v -0.760458 0.000000 -0.203764
v -0.784815 0.000000 -0.210290
v -0.784815 2.000000 0.210291
v -0.760458 2.000000 0.203764
v -0.787284 2.000000 0.000000
v -0.812500 2.000000 0.000000
v -0.760458 2.000000 -0.203764
v -0.784815 2.000000 -0.210290
v -0.681808 2.000000 -0.393642
v -0.703646 2.000000 -0.406250
v -0.556694 2.000000 -0.556694
v -0.574524 2.000000 -0.574524
v -0.393642 2.000000 -0.681808
v -0.406250 2.000000 -0.703645
v -0.203764 2.000000 -0.760458
v -0.210290 2.000000 -0.784814
v -0.203764 2.000000 0.760459
v -0.210290 2.000000 0.784815
v -0.393642 2.000000 0.681808
v -0.406250 2.000000 0.703646
v -0.556694 2.000000 0.556694
v -0.574524 2.000000 0.574525
v -0.681808 2.000000 0.393642
v -0.703646 2.000000 0.406250
v -0.787284 0.500000 0.000000
v -0.760458 0.500000 0.203764
v -0.681808 0.500000 0.393642
v -0.556694 0.500000 0.556694
v -0.393642 0.500000 0.681808
v -0.203764 0.500000 0.760458
v -0.203764 0.500000 -0.760458
v -0.393642 0.500000 -0.681808
v -0.556694 0.500000 -0.556694
v -0.681808 0.500000 -0.393642
v -0.760458 0.500000 -0.203764
v -0.760458 1.500000 0.203764
v -0.787284 1.500000 0.000000
v -0.760458 1.500000 -0.203764
v -0.681808 1.500000 -0.393642
v -0.556694 1.500000 -0.556694
v -0.393642 1.500000 -0.681808
v -0.203764 1.500000 -0.760458
v -0.203764 1.500000 0.760458
v -0.393642 1.500000 0.681808
v -0.556694 1.500000 0.556694
v -0.681808 1.500000 0.393642
v -0.760458 1.000000 0.203764
v -0.681808 1.000000 0.393642
v -0.787284 1.000000 0.000000
v -0.760458 1.000000 -0.203764
v -0.681808 1.000000 -0.393642
v -0.556694 1.000000 -0.556694
v -0.393642 1.000000 -0.681808
v -0.203764 1.000000 -0.760458
v -0.203764 1.000000 0.760458
v -0.393642 1.000000 0.681808
v -0.556694 1.000000 0.556694
v 0.000000 2.000000 -0.812500
v 0.000000 1.500000 -0.812500
v 0.000000 0.000000 -0.812500
v 0.000000 0.500000 -0.812500
v -0.000000 0.500000 0.812500
v -0.000000 -0.000000 0.812500
v 0.000000 1.000000 -0.812500
v -0.000000 1.000000 0.812500
v -0.000000 1.500000 0.812500
v -0.000000 2.000000 0.812500
v -0.812500 0.000000 -0.000000
v -0.784815 -0.000000 0.210290
v -0.703646 -0.000000 0.406250
v -0.574524 -0.000000 0.574524
v -0.406250 -0.000000 0.703646
v -0.210290 -0.000000 0.784815
v -0.210290 0.000000 -0.784815
v -0.406250 0.000000 -0.703646
v -0.574524 0.000000 -0.574524
v -0.703646 0.000000 -0.406250
v -0.784815 0.000000 -0.210290
v -0.784815 2.000000 0.210291
v -0.812500 2.000000 0.000000
v -0.784815 2.000000 -0.210290
v -0.703646 2.000000 -0.406250
v -0.574524 2.000000 -0.574524
v -0.406250 2.000000 -0.703645
v -0.210290 2.000000 -0.784814
v -0.210290 2.000000 0.784815
v -0.406250 2.000000 0.703646
v -0.574524 2.000000 0.574525
v -0.703646 2.000000 0.406250
v -0.812500 0.500000 0.000000
v -0.784815 0.500000 -0.210290
v -0.784815 0.500000 0.210291
v -0.703646 0.500000 0.406250
v -0.574524 0.500000 0.574524
v -0.406250 0.500000 0.703646
v -0.210290 0.500000 0.784815
v -0.210290 0.500000 -0.784815
v -0.406250 0.500000 -0.703646
v -0.574524 0.500000 -0.574524
v -0.703646 0.500000 -0.406250
v -0.812500 1.500000 0.000000
v -0.784815 1.500000 0.210291
v -0.784815 1.500000 -0.210290
v -0.703646 1.500000 -0.406250
v -0.574524 1.500000 -0.574524
v -0.406250 1.500000 -0.703645
v -0.210290 1.500000 -0.784814
v -0.210290 1.500000 0.784815
v -0.406250 1.500000 0.703646
v -0.574524 1.500000 0.574525
v -0.703646 1.500000 0.406250
v -0.703646 1.000000 0.406250
v -0.784815 1.000000 0.210291
v -0.574524 1.000000 0.574524
v -0.406250 1.000000 0.703646
v -0.210290 1.000000 0.784815
v -0.210290 1.000000 -0.784815
v -0.406250 1.000000 -0.703645
v -0.574524 1.000000 -0.574524
v -0.703646 1.000000 -0.406250
v -0.784815 1.000000 -0.210290
v -0.812500 1.000000 0.000000
vt 0.743265 0.989582
vt 0.738381 0.989582
vt 0.738381 0.940750
vt 0.743265 0.940750
vt 0.738381 0.891917
vt 0.743265 0.891917
vt 0.743265 0.940750
vt 0.738381 0.940750
vt 0.743265 0.940750
vt 0.738381 0.940750
vt 0.738381 0.891917
vt 0.743265 0.891917
vt 0.743265 0.989582
vt 0.738381 0.989582
vt 0.738381 0.891917
vt 0.743265 0.891917
vt 0.743265 0.989582
vt 0.738381 0.989582
vt 0.743265 0.940750
vt 0.738381 0.940750
vt 0.738381 0.891917
vt 0.743265 0.891917
vt 0.743265 0.989582
vt 0.738381 0.989582
vt 0.743265 0.961465
vt 0.738381 0.960822
vt 0.738381 0.920677
vt 0.743265 0.920034
vt 0.743265 0.961465
vt 0.738381 0.960822
vt 0.738381 0.920677
vt 0.743265 0.920034
vt 0.743265 0.961465
vt 0.738381 0.960822
vt 0.738381 0.920677
vt 0.743265 0.920034
vt 0.743265 0.961465
vt 0.738381 0.960822
vt 0.738381 0.920677
vt 0.743265 0.920034
vt 0.743265 0.961465
vt 0.738381 0.960822
vt 0.738381 0.920677
vt 0.743265 0.920034
vt 0.743265 0.961465
vt 0.738381 0.960822
vt 0.738381 0.920034
vt 0.743265 0.920034
vt 0.743265 0.961465
vt 0.738381 0.961465
vt 0.738381 0.920677
vt 0.743265 0.920034
vt 0.743265 0.961465
vt 0.738381 0.960822
vt 0.738381 0.920677
vt 0.743265 0.920034
vt 0.743265 0.961465
vt 0.738381 0.960822
vt 0.738381 0.920677
vt 0.743265 0.920034
vt 0.743265 0.961465
vt 0.738381 0.960822
vt 0.738381 0.920677
vt 0.743265 0.920034
vt 0.743265 0.961465
vt 0.738381 0.960822
vt 0.738381 0.920677
vt 0.743265 0.920034
vt 0.743265 0.961465
vt 0.738381 0.960822
vt 0.738381 0.920677
vt 0.743265 0.920034
vt 0.738381 0.920034
vt 0.743265 0.920677
vt 0.743265 0.960822
vt 0.738381 0.961465
vt 0.738381 0.920034
vt 0.743265 0.920677
vt 0.743265 0.960822
vt 0.738381 0.961465
vt 0.738381 0.920034
vt 0.743265 0.920677
vt 0.743265 0.960822
vt 0.738381 0.961465
vt 0.738381 0.920034
vt 0.743265 0.920677
vt 0.743265 0.960822
vt 0.738381 0.961465
vt 0.738381 0.920034
vt 0.743265 0.920677
vt 0.743265 0.960822
vt 0.738381 0.961465
vt 0.738381 0.920034
vt 0.743265 0.920677
vt 0.743265 0.960822
vt 0.738381 0.961465
vt 0.738381 0.920034
vt 0.743265 0.920677
vt 0.743265 0.961465
vt 0.738381 0.961465
vt 0.738381 0.920034
vt 0.743265 0.920034
vt 0.743265 0.960822
vt 0.738381 0.961465
vt 0.738381 0.920034
vt 0.743265 0.920677
vt 0.743265 0.960822
vt 0.738381 0.961465
vt 0.738381 0.920034
vt 0.743265 0.920677
vt 0.743265 0.960822
vt 0.738381 0.961465
vt 0.738381 0.920034
vt 0.743265 0.920677
vt 0.743265 0.960822
vt 0.738381 0.961465
vt 0.738381 0.920034
vt 0.743265 0.920677
vt 0.743265 0.960822
vt 0.738381 0.961465
vt 0.582317 0.989504
vt 0.582317 0.893024
vt 0.543678 0.893024
vt 0.543678 0.989504
vt 0.503533 0.893024
vt 0.503533 0.989504
vt 0.582317 0.893024
vt 0.582317 0.989504
vt 0.543678 0.989504
vt 0.543678 0.893024
vt 0.503533 0.989504
vt 0.503533 0.893024
vt 0.582639 0.989504
vt 0.582639 0.893024
vt 0.543999 0.893024
vt 0.543999 0.989504
vt 0.503211 0.893024
vt 0.503211 0.989504
vt 0.582639 0.893024
vt 0.582639 0.989504
vt 0.543356 0.989504
vt 0.543356 0.893024
vt 0.503211 0.989504
vt 0.503211 0.893024
vt 0.582317 0.989504
vt 0.582317 0.893024
vt 0.543678 0.893024
vt 0.543678 0.989504
vt 0.503533 0.893024
vt 0.503533 0.989504
vt 0.582317 0.893024
vt 0.582317 0.989504
vt 0.543678 0.989504
vt 0.543678 0.893024
vt 0.503533 0.989504
vt 0.503533 0.893024
vt 0.543678 0.989504
vt 0.543678 0.893024
vt 0.582317 0.893024
vt 0.582317 0.989504
vt 0.503533 0.893024
vt 0.503533 0.989504
vt 0.543678 0.989504
vt 0.543678 0.893024
vt 0.582317 0.989504
vt 0.582317 0.893024
vt 0.503533 0.989504
vt 0.503533 0.893024
vt 0.543678 0.893024
vt 0.543678 0.989504
vt 0.582317 0.893024
vt 0.582317 0.989504
vt 0.503211 0.893024
vt 0.503211 0.989504
vt 0.543356 0.989504
vt 0.543356 0.893024
vt 0.582639 0.989504
vt 0.582639 0.893024
vt 0.503211 0.989504
vt 0.503211 0.893024
vt 0.543999 0.893024
vt 0.543999 0.989504
vt 0.582639 0.893024
vt 0.582639 0.989504
vt 0.503533 0.893024
vt 0.503533 0.989504
vt 0.543678 0.989504
vt 0.543678 0.893024
vt 0.582317 0.989504
vt 0.582317 0.893024
vt 0.503533 0.989504
vt 0.503533 0.893024
vt 0.543678 0.989504
vt 0.503533 0.989504
vt 0.582317 0.989504
vt 0.503533 0.893024
vt 0.543678 0.893024
vt 0.582317 0.893024
vt 0.503533 0.989504
vt 0.543678 0.989504
vt 0.582317 0.989504
vt 0.503211 0.893024
vt 0.543356 0.893024
vt 0.582639 0.893024
vt 0.503211 0.989504
vt 0.543999 0.989504
vt 0.582639 0.989504
vt 0.503533 0.893024
vt 0.543678 0.893024
vt 0.582317 0.893024
vt 0.260366 0.677218
vt 0.260311 0.774907
vt 0.218881 0.774907
vt 0.218987 0.677175
vt 0.301739 0.677233
vt 0.301742 0.774907
vt 0.343157 0.677170
vt 0.343191 0.774907
vt 0.384606 0.677128
vt 0.384635 0.774907
vt 0.426102 0.677176
vt 0.426090 0.774907
vt 0.467540 0.677271
vt 0.467511 0.774907
vt 0.509397 0.677260
vt 0.509425 0.774907
vt 0.053171 0.677159
vt 0.053112 0.774907
vt 0.011297 0.774907
vt 0.011325 0.677147
vt 0.094575 0.677145
vt 0.094533 0.774907
vt 0.136018 0.677106
vt 0.135988 0.774907
vt 0.177504 0.677131
vt 0.177432 0.774907
vt 0.260311 0.872647
vt 0.260311 0.774907
vt 0.301742 0.774907
vt 0.301742 0.872647
vt 0.218881 0.872647
vt 0.218881 0.774907
vt 0.177450 0.872647
vt 0.177450 0.774907
vt 0.136019 0.872647
vt 0.136019 0.774907
vt 0.094589 0.872647
vt 0.094589 0.774907
vt 0.053158 0.872647
vt 0.053158 0.774907
vt 0.011340 0.872647
vt 0.011340 0.774907
vt 0.467465 0.872647
vt 0.467465 0.774907
vt 0.509383 0.774907
vt 0.509383 0.872647
vt 0.426034 0.872647
vt 0.426034 0.774907
vt 0.384604 0.872647
vt 0.384604 0.774907
vt 0.343173 0.872647
vt 0.343173 0.774907
vt 0.343119 0.872681
vt 0.301636 0.872638
vt 0.384605 0.872707
vt 0.426047 0.872667
vt 0.467452 0.872653
vt 0.509397 0.872665
vt 0.053083 0.872541
vt 0.011325 0.872553
vt 0.094521 0.872637
vt 0.136017 0.872685
vt 0.177466 0.872642
vt 0.218883 0.872580
vt 0.260257 0.872595
vt 0.343173 0.677165
vt 0.301742 0.677165
vt 0.384604 0.677165
vt 0.426034 0.677165
vt 0.467465 0.677165
vt 0.509383 0.677165
vt 0.053158 0.677165
vt 0.011340 0.677165
vt 0.094589 0.677165
vt 0.136019 0.677165
vt 0.177450 0.677165
vt 0.218881 0.677165
vt 0.260311 0.677165
vn 0.9914 0.0000 -0.1305
vn 0.9914 -0.0000 0.1305
vn -0.0000 -1.0000 -0.0000
vn 0.0000 1.0000 0.0000
vn 1.0000 -0.0000 0.0000
vn 0.9659 0.0000 -0.2588
vn 0.8660 0.0000 -0.5000
vn 0.7071 0.0000 -0.7071
vn 0.5000 0.0000 -0.8660
vn 0.2588 0.0000 -0.9659
vn 0.1305 0.0000 -0.9914
vn 0.1305 -0.0000 0.9914
vn 0.2588 -0.0000 0.9659
vn 0.5000 -0.0000 0.8660
vn 0.7071 -0.0000 0.7071
vn 0.8660 -0.0000 0.5000
vn 0.9659 -0.0000 0.2588
vn -1.0000 -0.0000 0.0000
vn -0.9659 0.0000 -0.2588
vn -0.9659 -0.0000 0.2588
vn -0.8660 -0.0000 0.5000
vn -0.7071 -0.0000 0.7071
vn -0.5000 -0.0000 0.8660
vn -0.2588 -0.0000 0.9659
vn 0.0000 0.0000 1.0000
vn -0.2588 0.0000 -0.9659
vn 0.0000 0.0000 -1.0000
vn -0.5000 0.0000 -0.8660
vn -0.7071 0.0000 -0.7071
vn -0.8660 0.0000 -0.5000
usemtl base_auv.001
s 1
f 1/1/1 2/2/1 3/3/1 4/4/1
f 5/5/1 6/6/1 7/7/1 8/8/1
f 9/9/2 10/10/2 11/11/2 12/12/2
f 8/8/1 7/7/1 13/13/1 14/14/1
f 14/15/1 13/16/1 4/4/1 3/3/1
f 15/17/2 16/18/2 10/10/2 9/9/2
f 17/19/2 18/20/2 16/21/2 15/22/2
f 18/20/2 17/19/2 19/23/2 20/24/2
f 21/25/3 22/26/3 23/27/3 24/28/3
f 24/29/3 23/30/3 25/31/3 26/32/3
f 26/33/3 25/34/3 27/35/3 28/36/3
f 28/37/3 27/38/3 29/39/3 30/40/3
f 30/41/3 29/42/3 31/43/3 32/44/3
f 32/45/3 31/46/3 12/47/3 11/48/3
f 6/49/3 5/50/3 33/51/3 34/52/3
f 34/53/3 33/54/3 35/55/3 36/56/3
f 36/57/3 35/58/3 37/59/3 38/60/3
f 38/61/3 37/62/3 39/63/3 40/64/3
f 40/65/3 39/66/3 41/67/3 42/68/3
f 42/69/3 41/70/3 22/71/3 21/72/3
f 43/73/4 44/74/4 45/75/4 46/76/4
f 46/77/4 45/78/4 47/79/4 48/80/4
f 48/81/4 47/82/4 49/83/4 50/84/4
f 50/85/4 49/86/4 51/87/4 52/88/4
f 52/89/4 51/90/4 53/91/4 54/92/4
f 54/93/4 53/94/4 55/95/4 56/96/4
f 56/97/4 55/98/4 2/99/4 1/100/4
f 20/101/4 19/102/4 57/103/4 58/104/4
f 58/105/4 57/106/4 59/107/4 60/108/4
f 60/109/4 59/110/4 61/111/4 62/112/4
f 62/113/4 61/114/4 63/115/4 64/116/4
f 64/117/4 63/118/4 44/119/4 43/120/4
f 22/121/5 65/122/5 66/123/6 23/124/6
f 23/124/6 66/123/6 67/125/7 25/126/7
f 25/127/7 67/128/7 68/129/8 27/130/8
f 27/130/8 68/129/8 69/131/9 29/132/9
f 29/133/9 69/134/9 70/135/10 31/136/10
f 31/136/10 70/135/10 9/137/11 12/138/11
f 5/139/12 8/140/12 71/141/13 33/142/13
f 33/142/13 71/141/13 72/143/14 35/144/14
f 35/145/14 72/146/14 73/147/15 37/148/15
f 37/148/15 73/147/15 74/149/16 39/150/16
f 39/151/16 74/152/16 75/153/17 41/154/17
f 41/154/17 75/153/17 65/155/5 22/156/5
f 44/157/6 76/158/6 77/159/5 45/160/5
f 45/161/5 77/162/5 78/163/17 47/164/17
f 47/164/17 78/163/17 79/165/16 49/166/16
f 49/167/16 79/168/16 80/169/15 51/170/15
f 51/170/15 80/169/15 81/171/14 53/172/14
f 53/173/14 81/174/14 82/175/13 55/176/13
f 55/176/13 82/175/13 3/177/12 2/178/12
f 19/179/11 17/180/11 83/181/10 57/182/10
f 57/182/10 83/181/10 84/183/9 59/184/9
f 59/185/9 84/186/9 85/187/8 61/188/8
f 61/188/8 85/187/8 86/189/7 63/190/7
f 63/191/7 86/192/7 76/158/6 44/157/6
f 67/125/7 66/123/6 87/193/6 88/194/7
f 87/193/6 89/195/5 77/159/5 76/158/6
f 89/195/5 87/193/6 66/123/6 65/122/5
f 89/196/5 90/197/17 78/163/17 77/162/5
f 90/197/17 89/196/5 65/155/5 75/153/17
f 90/197/17 91/198/16 79/165/16 78/163/17
f 91/198/16 90/197/17 75/153/17 74/152/16
f 91/199/16 92/200/15 80/169/15 79/168/16
f 92/200/15 91/199/16 74/149/16 73/147/15
f 92/200/15 93/201/14 81/171/14 80/169/15
f 93/201/14 92/200/15 73/147/15 72/146/14
f 93/202/14 94/203/13 82/175/13 81/174/14
f 94/203/13 93/202/14 72/143/14 71/141/13
f 94/203/13 14/204/12 3/177/12 82/175/13
f 14/204/12 94/203/13 71/141/13 8/140/12
f 15/205/11 95/206/10 83/181/10 17/180/11
f 95/206/10 15/205/11 9/137/11 70/135/10
f 95/206/10 96/207/9 84/183/9 83/181/10
f 96/207/9 95/206/10 70/135/10 69/134/9
f 96/208/9 97/209/8 85/187/8 84/186/9
f 97/209/8 96/208/9 69/131/9 68/129/8
f 97/209/8 88/210/7 86/189/7 85/187/8
f 88/210/7 97/209/8 68/129/8 67/128/7
f 76/158/6 86/192/7 88/194/7 87/193/6
f 108/211/18 130/212/18 131/213/19 118/214/19
f 109/215/20 132/216/20 130/212/18 108/211/18
f 110/217/21 133/218/21 132/216/20 109/215/20
f 111/219/22 134/220/22 133/218/21 110/217/21
f 112/221/23 135/222/23 134/220/22 111/219/22
f 113/223/24 136/224/24 135/222/23 112/221/23
f 103/225/25 102/226/25 136/224/24 113/223/24
f 114/227/26 137/228/26 101/229/27 100/230/27
f 115/231/28 138/232/28 137/228/26 114/227/26
f 116/233/29 139/234/29 138/232/28 115/231/28
f 117/235/30 140/236/30 139/234/29 116/233/29
f 118/214/19 131/213/19 140/236/30 117/235/30
f 120/237/18 141/238/18 142/239/20 119/240/20
f 121/241/19 143/242/19 141/238/18 120/237/18
f 122/243/30 144/244/30 143/242/19 121/241/19
f 123/245/29 145/246/29 144/244/30 122/243/30
f 124/247/28 146/248/28 145/246/29 123/245/29
f 125/249/26 147/250/26 146/248/28 124/247/28
f 98/251/27 99/252/27 147/250/26 125/249/26
f 126/253/24 148/254/24 106/255/25 107/256/25
f 127/257/23 149/258/23 148/254/24 126/253/24
f 128/259/22 150/260/22 149/258/23 127/257/23
f 129/261/21 151/262/21 150/260/22 128/259/22
f 133/218/21 152/263/21 153/264/20 132/216/20
f 134/220/22 154/265/22 152/263/21 133/218/21
f 135/222/23 155/266/23 154/265/22 134/220/22
f 136/224/24 156/267/24 155/266/23 135/222/23
f 102/226/25 105/268/25 156/267/24 136/224/24
f 137/228/26 157/269/26 104/270/27 101/229/27
f 138/232/28 158/271/28 157/269/26 137/228/26
f 139/234/29 159/272/29 158/271/28 138/232/28
f 140/236/30 160/273/30 159/272/29 139/234/29
f 131/213/19 161/274/19 160/273/30 140/236/30
f 130/212/18 162/275/18 161/274/19 131/213/19
f 132/216/20 153/264/20 162/275/18 130/212/18
f 152/276/21 151/262/21 142/239/20 153/277/20
f 154/278/22 150/260/22 151/262/21 152/276/21
f 155/279/23 149/258/23 150/260/22 154/278/22
f 156/280/24 148/254/24 149/258/23 155/279/23
f 105/281/25 106/255/25 148/254/24 156/280/24
f 157/282/26 147/250/26 99/252/27 104/283/27
f 158/284/28 146/248/28 147/250/26 157/282/26
f 159/285/29 145/246/29 146/248/28 158/284/28
f 160/286/30 144/244/30 145/246/29 159/285/29
f 161/287/19 143/242/19 144/244/30 160/286/30
f 162/288/18 141/238/18 143/242/19 161/287/19
f 153/277/20 142/239/20 141/238/18 162/288/18
f 142/239/20 151/262/21 129/261/21 119/240/20
