# Exported from Wings 3D 1.5.4
mtllib hydra_lv_nose_fuel_tank_s2_2_collider.mtl
o collider
#33 vertices, 33 faces
v 1.25000000 -1.87500000 -0.24864046
v 1.25000000 -1.87500000 0.24864046
v 1.05969883 -1.87500000 0.70806812
v 0.70806812 -1.87500000 1.05969883
v 0.24864046 -1.87500000 1.25000000
v -0.24864046 -1.87500000 1.25000000
v -0.70806812 -1.87500000 1.05969883
v -1.05969883 -1.87500000 0.70806812
v -1.25000000 -1.87500000 0.24864046
v -1.25000000 -1.87500000 -0.24864046
v -1.05969883 -1.87500000 -0.70806812
v -0.70806812 -1.87500000 -1.05969883
v -0.24864046 -1.87500000 -1.25000000
v 0.24864046 -1.87500000 -1.25000000
v 0.70806812 -1.87500000 -1.05969883
v 1.05969883 -1.87500000 -0.70806812
v 1.25000000 -1.06713374 0.29620721
v 1.25000000 -0.91346549 -0.17673504
v 1.05969883 -0.77149453 -0.61367671
v 0.70806812 -0.66283467 -0.94809739
v 0.24864046 -0.60402837 -1.12908456
v -0.24864046 -0.60402837 -1.12908456
v -0.70806812 -0.66283467 -0.94809739
v -1.05969883 -0.77149453 -0.61367671
v -1.25000000 -0.91346549 -0.17673504
v -1.25000000 -1.06713374 0.29620721
v -1.05969883 -1.20910470 0.73314888
v -0.70806812 -1.31776456 1.06756956
v -0.24864046 -1.37657086 1.24855673
v 0.24864046 -1.37657086 1.24855673
v 0.70806812 -1.31776456 1.06756956
v 1.05969883 -1.20910470 0.73314888
v -9.7144515e-17 2.06250000 1.25000000
vn 0.92177986 3.1121672e-2 -0.38646258
vn 1.00000000 0.0000000e+0 0.0000000e+0
vn 0.0000000e+0 -1.00000000 0.0000000e+0
vn 0.92138014 -1.9135479e-2 0.38819128
vn 1.00000000 0.0000000e+0 0.0000000e+0
vn 0.0000000e+0 -1.00000000 0.0000000e+0
vn 0.92138014 -1.9135479e-2 0.38819128
vn 0.0000000e+0 -1.00000000 0.0000000e+0
vn 0.69968635 -1.9240513e-2 0.71419102
vn 0.37495163 -5.6442478e-3 0.92702719
vn 0.0000000e+0 -1.00000000 0.0000000e+0
vn 0.69968635 -1.9240513e-2 0.71419102
vn 0.37495163 -5.6442478e-3 0.92702719
vn 0.0000000e+0 -1.00000000 0.0000000e+0
vn 0.0000000e+0 2.8956249e-3 0.99999581
vn -0.37495163 -5.6442478e-3 0.92702719
vn 0.0000000e+0 -1.00000000 0.0000000e+0
vn 0.0000000e+0 2.8956249e-3 0.99999581
vn -0.37495163 -5.6442478e-3 0.92702719
vn -0.69968635 -1.9240513e-2 0.71419102
vn 0.0000000e+0 -1.00000000 0.0000000e+0
vn -0.92138014 -1.9135479e-2 0.38819128
vn -0.69968635 -1.9240513e-2 0.71419102
vn 0.0000000e+0 -1.00000000 0.0000000e+0
vn -0.92138014 -1.9135479e-2 0.38819128
vn -1.00000000 0.0000000e+0 0.0000000e+0
vn 0.0000000e+0 -1.00000000 0.0000000e+0
vn -1.00000000 0.0000000e+0 0.0000000e+0
vn 0.0000000e+0 -1.00000000 0.0000000e+0
vn -0.92177986 3.1121672e-2 -0.38646258
vn -0.70188133 6.3113603e-2 -0.70949226
vn 0.0000000e+0 -1.00000000 0.0000000e+0
vn -0.92177986 3.1121672e-2 -0.38646258
vn -0.70188133 6.3113603e-2 -0.70949226
vn -0.37799266 8.6313620e-2 -0.92177628
vn 0.0000000e+0 -1.00000000 0.0000000e+0
vn 0.0000000e+0 9.4708589e-2 -0.99550504
vn -0.37799266 8.6313620e-2 -0.92177628
vn 0.0000000e+0 -1.00000000 0.0000000e+0
vn 0.0000000e+0 9.4708589e-2 -0.99550504
vn 0.37799266 8.6313620e-2 -0.92177628
vn 0.0000000e+0 -1.00000000 0.0000000e+0
vn 0.37799266 8.6313620e-2 -0.92177628
vn 0.0000000e+0 -1.00000000 0.0000000e+0
vn 0.70188133 6.3113603e-2 -0.70949226
vn 0.92177986 3.1121672e-2 -0.38646258
vn 0.0000000e+0 -1.00000000 0.0000000e+0
vn 0.70188133 6.3113603e-2 -0.70949226
vn 0.92138014 -1.9135479e-2 0.38819128
vn 0.93412342 0.33947980 0.11030367
vn 1.00000000 0.0000000e+0 0.0000000e+0
vn 0.86925144 0.21092143 0.44711753
vn 0.92177986 3.1121672e-2 -0.38646258
vn 0.93412342 0.33947980 0.11030367
vn 1.00000000 0.0000000e+0 0.0000000e+0
vn 0.85655701 0.46603578 -0.22163200
vn 0.92177986 3.1121672e-2 -0.38646258
vn 0.65126350 0.57168979 -0.49902569
vn 0.85655701 0.46603578 -0.22163200
vn 0.70188133 6.3113603e-2 -0.70949226
vn 0.65126350 0.57168979 -0.49902569
vn 0.37799266 8.6313620e-2 -0.92177628
vn 0.35086815 0.64142363 -0.68225162
vn 0.70188133 6.3113603e-2 -0.70949226
vn 0.0000000e+0 9.4708589e-2 -0.99550504
vn 0.37799266 8.6313620e-2 -0.92177628
vn 0.0000000e+0 0.66574412 -0.74618011
vn 0.35086815 0.64142363 -0.68225162
vn 0.0000000e+0 9.4708589e-2 -0.99550504
vn -0.35086815 0.64142363 -0.68225162
vn -0.37799266 8.6313620e-2 -0.92177628
vn 0.0000000e+0 0.66574412 -0.74618011
vn -0.70188133 6.3113603e-2 -0.70949226
vn -0.35086815 0.64142363 -0.68225162
vn -0.37799266 8.6313620e-2 -0.92177628
vn -0.65126350 0.57168979 -0.49902569
vn -0.70188133 6.3113603e-2 -0.70949226
vn -0.85655701 0.46603578 -0.22163200
vn -0.65126350 0.57168979 -0.49902569
vn -0.92177986 3.1121672e-2 -0.38646258
vn -0.85655701 0.46603578 -0.22163200
vn -1.00000000 0.0000000e+0 0.0000000e+0
vn -0.93412342 0.33947980 0.11030367
vn -0.92177986 3.1121672e-2 -0.38646258
vn -0.92138014 -1.9135479e-2 0.38819128
vn -1.00000000 0.0000000e+0 0.0000000e+0
vn -0.86925144 0.21092143 0.44711753
vn -0.93412342 0.33947980 0.11030367
vn -0.92138014 -1.9135479e-2 0.38819128
vn -0.66919439 0.10044111 0.73626792
vn -0.69968635 -1.9240513e-2 0.71419102
vn -0.86925144 0.21092143 0.44711753
vn -0.37495163 -5.6442478e-3 0.92702719
vn -0.66919439 0.10044111 0.73626792
vn -0.69968635 -1.9240513e-2 0.71419102
vn -0.36353186 2.5892088e-2 0.93122188
vn -0.37495163 -5.6442478e-3 0.92702719
vn 0.0000000e+0 -4.1966851e-4 0.99999991
vn -0.36353186 2.5892088e-2 0.93122188
vn 0.0000000e+0 2.8956249e-3 0.99999581
vn 0.36353186 2.5892088e-2 0.93122188
vn 0.37495163 -5.6442478e-3 0.92702719
vn 0.0000000e+0 -4.1966851e-4 0.99999991
vn 0.0000000e+0 2.8956249e-3 0.99999581
vn 0.36353186 2.5892088e-2 0.93122188
vn 0.37495163 -5.6442478e-3 0.92702719
vn 0.66919439 0.10044111 0.73626792
vn 0.69968635 -1.9240513e-2 0.71419102
vn 0.92138014 -1.9135479e-2 0.38819128
vn 0.66919439 0.10044111 0.73626792
vn 0.86925144 0.21092143 0.44711753
vn 0.69968635 -1.9240513e-2 0.71419102
vn 0.93412342 0.33947980 0.11030367
vn 0.65126350 0.57168979 -0.49902569
vn -0.35086815 0.64142363 -0.68225162
vn -0.85655701 0.46603578 -0.22163200
vn -0.66919439 0.10044111 0.73626792
vn 0.36353186 2.5892088e-2 0.93122188
vn 0.85655701 0.46603578 -0.22163200
vn 0.0000000e+0 0.66574412 -0.74618011
vn -0.65126350 0.57168979 -0.49902569
vn -0.86925144 0.21092143 0.44711753
vn 0.0000000e+0 -4.1966851e-4 0.99999991
vn 0.66919439 0.10044111 0.73626792
vn 0.86925144 0.21092143 0.44711753
vn 0.35086815 0.64142363 -0.68225162
vn -0.93412342 0.33947980 0.11030367
vn -0.36353186 2.5892088e-2 0.93122188
g collider_default2
usemtl default2
s 1
f 2//4 17//49 32//109 3//7
f 5//15 30//104 29//100 6//18
f 8//22 27//89 26//85 9//25
f 10//30 25//84 24//80 11//33
f 12//35 23//75 22//71 13//38
f 14//41 21//66 20//62 15//43
f 16//46 19//57 18//53 1//1
f 18//54 33//113 17//50
f 20//61 33//114 19//58
f 22//72 33//120 21//67
f 24//79 33//121 23//76
f 26//88 33//127 25//83
f 28//94 33//117 27//90
f 32//110 33//124 31//107
s 2
f 1//2 18//55 17//51 2//5
f 3//9 32//112 31//108 4//12
f 7//20 28//95 27//91 8//23
f 9//26 26//86 25//82 10//28
f 11//31 24//77 23//73 12//34
f 13//37 22//69 21//65 14//40
f 15//45 20//64 19//60 16//48
f 17//52 33//125 32//111
f 19//59 33//119 18//56
f 21//68 33//126 20//63
f 23//74 33//115 22//70
f 25//81 33//116 24//78
f 27//92 33//122 26//87
f 30//103 33//123 29//98
s 3
f 2//6 3//8 4//11 5//14 6//17 7//21 8//24 9//27 10//29 11//32 12//36 13//39 14//42 15//44 16//47 1//3
f 29//99 33//128 28//96
f 31//105 33//118 30//101
s 4
f 4//10 31//106 30//102 5//13
f 6//16 29//97 28//93 7//19
