# Blender 4.1.1
# www.blender.org
mtllib InterstageCollider.mtl
o Circle.054
v -0.158510 8.800004 -0.796883
v -0.451400 8.800004 -0.675564
v -0.675568 8.800004 -0.451396
v -0.796887 8.800004 -0.158506
v -0.796887 8.800004 0.158516
v -0.675568 8.800004 0.451406
v -0.451400 8.800004 0.675574
v -0.158510 8.800004 0.796893
v 0.158512 8.800004 0.796893
v 0.451402 8.800004 0.675574
v 0.675570 8.800004 0.451406
v 0.796889 8.800004 0.158516
v 0.796889 8.800004 -0.158506
v 0.675570 8.800004 -0.451396
v 0.451402 8.800004 -0.675564
v 0.158512 8.800004 -0.796883
v -0.158510 9.153823 -0.796883
v -0.451400 9.153823 -0.675564
v -0.675568 9.153823 -0.451396
v -0.796887 9.153823 -0.158506
v -0.796887 9.153823 0.158516
v -0.675568 9.153823 0.451406
v -0.451400 9.153823 0.675574
v -0.158510 9.153823 0.796893
v 0.158512 9.153823 0.796893
v 0.451402 9.153823 0.675574
v 0.675570 9.153823 0.451406
v 0.796889 9.153823 0.158516
v 0.796889 9.153823 -0.158506
v 0.675570 9.153823 -0.451396
v 0.451402 9.153823 -0.675564
v 0.158512 9.153823 -0.796883
v -0.079824 9.330708 -0.401303
v -0.227322 9.330708 -0.340208
v -0.340212 9.330708 -0.227318
v -0.401307 9.330708 -0.079820
v -0.401307 9.330708 0.079830
v -0.340212 9.330708 0.227328
v -0.227322 9.330708 0.340217
v -0.079824 9.330708 0.401313
v 0.079826 9.330708 0.401313
v 0.227324 9.330708 0.340217
v 0.340213 9.330708 0.227328
v 0.401309 9.330708 0.079830
v 0.401309 9.330708 -0.079820
v 0.340213 9.330708 -0.227318
v 0.227323 9.330708 -0.340208
v 0.079826 9.330708 -0.401303
v -0.017940 9.408544 -0.090190
v -0.051091 9.408544 -0.076459
v -0.076463 9.408544 -0.051087
v -0.090194 9.408544 -0.017936
v -0.090194 9.408544 0.017946
v -0.076463 9.408544 0.051096
v -0.051091 9.408544 0.076468
v -0.017940 9.408544 0.090200
v 0.017942 9.408544 0.090200
v 0.051092 9.408544 0.076468
v 0.076464 9.408544 0.051096
v 0.090196 9.408544 0.017946
v 0.090196 9.408544 -0.017936
v 0.076464 9.408544 -0.051087
v 0.051092 9.408544 -0.076459
v 0.017942 9.408544 -0.090190
vn -1.0000 -0.0000 -0.0000
vn 1.0000 -0.0000 -0.0000
vn -0.9239 -0.0000 0.3827
vn 0.9239 -0.0000 -0.3827
vn -0.7071 -0.0000 0.7071
vn 0.7071 -0.0000 -0.7071
vn -0.3827 -0.0000 0.9239
vn 0.3827 -0.0000 -0.9239
vn -0.0000 -0.0000 1.0000
vn -0.3827 -0.0000 -0.9239
vn -0.0000 -0.0000 -1.0000
vn 0.3827 -0.0000 0.9239
vn -0.7071 -0.0000 -0.7071
vn 0.7071 -0.0000 0.7071
vn -0.9239 -0.0000 -0.3827
vn 0.9239 -0.0000 0.3827
vn -0.3771 0.9129 -0.1562
vn 0.3771 0.9129 0.1562
vn -0.4082 0.9129 -0.0000
vn 0.4082 0.9129 -0.0000
vn -0.3771 0.9129 0.1562
vn 0.3771 0.9129 -0.1562
vn -0.2886 0.9129 0.2886
vn 0.2886 0.9129 -0.2886
vn -0.1562 0.9129 0.3771
vn 0.1562 0.9129 -0.3771
vn -0.0000 0.9129 0.4082
vn -0.1562 0.9129 -0.3771
vn -0.0000 0.9129 -0.4082
vn 0.1562 0.9129 0.3771
vn -0.2886 0.9129 -0.2886
vn 0.2886 0.9129 0.2886
vn -0.0000 0.9701 0.2427
vn -0.0929 0.9701 -0.2242
vn -0.0000 0.9701 -0.2427
vn 0.0929 0.9701 0.2242
vn -0.1716 0.9701 -0.1716
vn 0.1716 0.9701 0.1716
vn -0.2242 0.9701 -0.0929
vn 0.2242 0.9701 0.0929
vn -0.2427 0.9701 -0.0000
vn 0.2427 0.9701 -0.0000
vn -0.2242 0.9701 0.0929
vn 0.2242 0.9701 -0.0929
vn -0.1716 0.9701 0.1716
vn 0.1716 0.9701 -0.1716
vn -0.0929 0.9701 0.2242
vn 0.0929 0.9701 -0.2242
vn -0.0000 1.0000 -0.0000
vn -0.0000 -1.0000 -0.0000
vt 0.000000 0.000000
s 0
f 4/1/1 5/1/1 21/1/1 20/1/1
f 12/1/2 13/1/2 29/1/2 28/1/2
f 5/1/3 6/1/3 22/1/3 21/1/3
f 13/1/4 14/1/4 30/1/4 29/1/4
f 6/1/5 7/1/5 23/1/5 22/1/5
f 14/1/6 15/1/6 31/1/6 30/1/6
f 7/1/7 8/1/7 24/1/7 23/1/7
f 15/1/8 16/1/8 32/1/8 31/1/8
f 8/1/9 9/1/9 25/1/9 24/1/9
f 1/1/10 2/1/10 18/1/10 17/1/10
f 16/1/11 1/1/11 17/1/11 32/1/11
f 9/1/12 10/1/12 26/1/12 25/1/12
f 2/1/13 3/1/13 19/1/13 18/1/13
f 10/1/14 11/1/14 27/1/14 26/1/14
f 3/1/15 4/1/15 20/1/15 19/1/15
f 11/1/16 12/1/16 28/1/16 27/1/16
f 19/1/17 20/1/17 36/1/17 35/1/17
f 27/1/18 28/1/18 44/1/18 43/1/18
f 20/1/19 21/1/19 37/1/19 36/1/19
f 28/1/20 29/1/20 45/1/20 44/1/20
f 21/1/21 22/1/21 38/1/21 37/1/21
f 29/1/22 30/1/22 46/1/22 45/1/22
f 22/1/23 23/1/23 39/1/23 38/1/23
f 30/1/24 31/1/24 47/1/24 46/1/24
f 23/1/25 24/1/25 40/1/25 39/1/25
f 31/1/26 32/1/26 48/1/26 47/1/26
f 24/1/27 25/1/27 41/1/27 40/1/27
f 17/1/28 18/1/28 34/1/28 33/1/28
f 32/1/29 17/1/29 33/1/29 48/1/29
f 25/1/30 26/1/30 42/1/30 41/1/30
f 18/1/31 19/1/31 35/1/31 34/1/31
f 26/1/32 27/1/32 43/1/32 42/1/32
f 40/1/33 41/1/33 57/1/33 56/1/33
f 33/1/34 34/1/34 50/1/34 49/1/34
f 48/1/35 33/1/35 49/1/35 64/1/35
f 41/1/36 42/1/36 58/1/36 57/1/36
f 34/1/37 35/1/37 51/1/37 50/1/37
f 42/1/38 43/1/38 59/1/38 58/1/38
f 35/1/39 36/1/39 52/1/39 51/1/39
f 43/1/40 44/1/40 60/1/40 59/1/40
f 36/1/41 37/1/41 53/1/41 52/1/41
f 44/1/42 45/1/42 61/1/42 60/1/42
f 37/1/43 38/1/43 54/1/43 53/1/43
f 45/1/44 46/1/44 62/1/44 61/1/44
f 38/1/45 39/1/45 55/1/45 54/1/45
f 46/1/46 47/1/46 63/1/46 62/1/46
f 39/1/47 40/1/47 56/1/47 55/1/47
f 47/1/48 48/1/48 64/1/48 63/1/48
f 50/1/49 51/1/49 52/1/49 53/1/49 54/1/49 55/1/49 56/1/49 57/1/49 58/1/49 59/1/49 60/1/49 61/1/49 62/1/49 63/1/49 64/1/49 49/1/49
f 2/1/50 1/1/50 16/1/50 15/1/50 14/1/50 13/1/50 12/1/50 11/1/50 10/1/50 9/1/50 8/1/50 7/1/50 6/1/50 5/1/50 4/1/50 3/1/50
