# Blender 4.1.1
# www.blender.org
mtllib launchlugAO.mtl
o Cube.026
v -0.099999 4.416670 0.846446
v -0.072938 4.829015 0.896615
v 0.100001 4.416670 0.846446
v 0.072939 4.829015 0.896615
v 0.000001 4.416670 0.858466
v -0.099999 4.442083 0.849283
v 0.100001 4.442083 0.849283
v -0.117235 4.379429 0.839824
v -0.112514 4.814939 0.886874
v 0.117236 4.379429 0.839824
v 0.112515 4.814939 0.886874
v 0.000001 4.361702 0.850215
v -0.142137 4.423290 0.840379
v 0.142139 4.423290 0.840379
vn -0.1387 -0.1189 0.9832
vn -0.1810 -0.1047 0.9779
vn 0.1387 -0.1189 0.9832
vn 0.1810 -0.1047 0.9779
vn -0.0000 -0.1385 0.9904
vn -0.1728 -0.1047 0.9794
vn 0.1728 -0.1047 0.9794
vn -0.1321 -0.1236 0.9835
vn 0.1321 -0.1236 0.9835
vn -0.1676 -0.1048 0.9803
vn 0.1676 -0.1048 0.9803
vt 0.497815 0.185003
vt 0.497815 0.975102
vt 0.599316 0.975102
vt 0.599316 0.340032
vt 0.396315 0.340032
vt 0.396315 0.975102
vt 0.013224 0.209610
vt 0.013224 0.975102
vt 0.334222 0.975102
vt 0.369888 0.209610
vt 0.661409 0.975102
vt 0.625743 0.209610
vt 0.982407 0.975102
vt 0.982407 0.209610
s 1
usemtl Sheet1.001
f 5/1/5 12/2/5 10/3/9 3/4/3
f 1/5/1 8/6/8 12/2/5 5/1/5
f 2/7/2 9/8/2 13/9/10 6/10/6
f 3/4/3 10/3/9 14/11/11 7/12/7
f 6/10/6 13/9/10 8/6/8 1/5/1
f 7/12/7 14/11/11 11/13/4 4/14/4
o Cube.029
v 0.846442 4.416670 0.100005
v 0.896611 4.829015 0.072944
v 0.846442 4.416670 -0.099995
v 0.896611 4.829015 -0.072934
v 0.858462 4.416670 0.000005
v 0.849278 4.442083 0.100005
v 0.849278 4.442083 -0.099995
v 0.839820 4.379429 0.117240
v 0.886870 4.814939 0.112519
v 0.839820 4.379429 -0.117231
v 0.886870 4.814939 -0.112510
v 0.850211 4.361702 0.000005
v 0.840375 4.423290 0.142143
v 0.840375 4.423290 -0.142133
vn 0.9832 -0.1189 0.1387
vn 0.9779 -0.1047 0.1810
vn 0.9832 -0.1189 -0.1387
vn 0.9779 -0.1047 -0.1810
vn 0.9904 -0.1385 -0.0000
vn 0.9794 -0.1047 0.1728
vn 0.9794 -0.1047 -0.1728
vn 0.9835 -0.1236 0.1321
vn 0.9835 -0.1236 -0.1321
vn 0.9803 -0.1048 0.1676
vn 0.9803 -0.1048 -0.1676
vt 0.497815 0.185003
vt 0.497815 0.975102
vt 0.599316 0.975102
vt 0.599316 0.340032
vt 0.396315 0.340032
vt 0.396315 0.975102
vt 0.013224 0.209610
vt 0.013224 0.975102
vt 0.334222 0.975102
vt 0.369888 0.209610
vt 0.661409 0.975102
vt 0.625743 0.209610
vt 0.982407 0.975102
vt 0.982407 0.209610
s 1
usemtl Sheet1.001
f 19/15/16 26/16/16 24/17/20 17/18/14
f 15/19/12 22/20/19 26/16/16 19/15/16
f 16/21/13 23/22/13 27/23/21 20/24/17
f 17/18/14 24/17/20 28/25/22 21/26/18
f 20/24/17 27/23/21 22/20/19 15/19/12
f 21/26/18 28/25/22 25/27/15 18/28/15
o Cube.032
v 0.100001 4.416670 -0.846436
v 0.072940 4.829015 -0.896605
v -0.099999 4.416670 -0.846436
v -0.072938 4.829015 -0.896605
v 0.000001 4.416670 -0.858456
v 0.100001 4.442083 -0.849273
v -0.099999 4.442083 -0.849273
v 0.117236 4.379429 -0.839814
v 0.112515 4.814939 -0.886865
v -0.117234 4.379429 -0.839814
v -0.112514 4.814939 -0.886865
v 0.000001 4.361702 -0.850205
v 0.142139 4.423290 -0.840369
v -0.142137 4.423290 -0.840369
vn 0.1387 -0.1189 -0.9832
vn 0.1810 -0.1047 -0.9779
vn -0.1387 -0.1189 -0.9832
vn -0.1810 -0.1047 -0.9779
vn -0.0000 -0.1385 -0.9904
vn 0.1728 -0.1047 -0.9794
vn -0.1728 -0.1047 -0.9794
vn 0.1321 -0.1236 -0.9835
vn -0.1321 -0.1236 -0.9835
vn 0.1676 -0.1048 -0.9803
vn -0.1676 -0.1048 -0.9803
vt 0.497815 0.185003
vt 0.497815 0.975102
vt 0.599316 0.975102
vt 0.599316 0.340032
vt 0.396315 0.340032
vt 0.396315 0.975102
vt 0.013224 0.209610
vt 0.013224 0.975102
vt 0.334222 0.975102
vt 0.369888 0.209610
vt 0.661409 0.975102
vt 0.625743 0.209610
vt 0.982407 0.975102
vt 0.982407 0.209610
s 1
usemtl Sheet1.001
f 33/29/27 40/30/27 38/31/31 31/32/25
f 29/33/23 36/34/30 40/30/27 33/29/27
f 30/35/24 37/36/24 41/37/32 34/38/28
f 31/32/25 38/31/31 42/39/33 35/40/29
f 34/38/28 41/37/32 36/34/30 29/33/23
f 35/40/29 42/39/33 39/41/26 32/42/26
o Cube.035
v -0.846440 4.416670 -0.099995
v -0.896609 4.829015 -0.072934
v -0.846440 4.416670 0.100005
v -0.896609 4.829015 0.072943
v -0.858460 4.416670 0.000005
v -0.849277 4.442083 -0.099995
v -0.849277 4.442083 0.100005
v -0.839818 4.379429 -0.117231
v -0.886869 4.814939 -0.112510
v -0.839818 4.379429 0.117240
v -0.886869 4.814939 0.112519
v -0.850209 4.361702 0.000005
v -0.840373 4.423290 -0.142133
v -0.840373 4.423290 0.142143
vn -0.9832 -0.1189 -0.1387
vn -0.9779 -0.1047 -0.1810
vn -0.9832 -0.1189 0.1387
vn -0.9779 -0.1047 0.1810
vn -0.9904 -0.1385 -0.0000
vn -0.9794 -0.1047 -0.1728
vn -0.9794 -0.1047 0.1728
vn -0.9835 -0.1236 -0.1321
vn -0.9835 -0.1236 0.1321
vn -0.9803 -0.1048 -0.1676
vn -0.9803 -0.1048 0.1676
vt 0.497815 0.185003
vt 0.497815 0.975102
vt 0.599316 0.975102
vt 0.599316 0.340032
vt 0.396315 0.340032
vt 0.396315 0.975102
vt 0.013224 0.209610
vt 0.013224 0.975102
vt 0.334222 0.975102
vt 0.369888 0.209610
vt 0.661409 0.975102
vt 0.625743 0.209610
vt 0.982407 0.975102
vt 0.982407 0.209610
s 1
usemtl Sheet1.001
f 47/43/38 54/44/38 52/45/42 45/46/36
f 43/47/34 50/48/41 54/44/38 47/43/38
f 44/49/35 51/50/35 55/51/43 48/52/39
f 45/46/36 52/45/42 56/53/44 49/54/40
f 48/52/39 55/51/43 50/48/41 43/47/34
f 49/54/40 56/53/44 53/55/37 46/56/37
