# Blender 4.1.1
# www.blender.org
mtllib BottomTaperCollider.mtl
o Circle.048
v -0.182896 5.200004 -0.919481
v -0.520846 5.200004 -0.779498
v -0.779502 5.200004 -0.520842
v -0.919485 5.200004 -0.182892
v -0.919485 5.200004 0.182902
v -0.779502 5.200004 0.520852
v -0.520846 5.200004 0.779508
v -0.182896 5.200004 0.919491
v 0.182898 5.200004 0.919491
v 0.520848 5.200004 0.779508
v 0.779503 5.200004 0.520852
v 0.919487 5.200004 0.182902
v 0.919487 5.200004 -0.182892
v 0.779503 5.200004 -0.520842
v 0.520848 5.200004 -0.779498
v 0.182898 5.200004 -0.919481
v -0.121595 2.300004 -0.611299
v -0.346275 2.300004 -0.518234
v -0.518238 2.300004 -0.346271
v -0.611304 2.300004 -0.121591
v -0.611304 2.300004 0.121601
v -0.518238 2.300004 0.346281
v -0.346275 2.300004 0.518244
v -0.121595 2.300004 0.611309
v 0.121597 2.300004 0.611309
v 0.346277 2.300004 0.518244
v 0.518239 2.300004 0.346281
v 0.611305 2.300004 0.121601
v 0.611305 2.300004 -0.121591
v 0.518239 2.300004 -0.346271
v 0.346277 2.300004 -0.518234
v 0.121597 2.300004 -0.611299
vn 0.9944 -0.1057 -0.0000
vn -0.9187 -0.1057 0.3805
vn 0.9187 -0.1057 -0.3805
vn -0.7031 -0.1057 0.7031
vn 0.7031 -0.1057 -0.7031
vn -0.3805 -0.1057 0.9187
vn 0.3805 -0.1057 -0.9187
vn -0.0000 -0.1057 0.9944
vn -0.3805 -0.1057 -0.9187
vn -0.0000 -0.1057 -0.9944
vn 0.3805 -0.1057 0.9187
vn -0.7031 -0.1057 -0.7031
vn 0.7031 -0.1057 0.7031
vn -0.9187 -0.1057 -0.3805
vn 0.9187 -0.1057 0.3805
vn -0.9944 -0.1057 -0.0000
vn -0.0000 -1.0000 -0.0000
vn -0.0000 1.0000 -0.0000
vt 0.000000 0.000000
s 0
f 12/1/1 28/1/1 29/1/1 13/1/1
f 5/1/2 21/1/2 22/1/2 6/1/2
f 13/1/3 29/1/3 30/1/3 14/1/3
f 6/1/4 22/1/4 23/1/4 7/1/4
f 14/1/5 30/1/5 31/1/5 15/1/5
f 7/1/6 23/1/6 24/1/6 8/1/6
f 15/1/7 31/1/7 32/1/7 16/1/7
f 8/1/8 24/1/8 25/1/8 9/1/8
f 1/1/9 17/1/9 18/1/9 2/1/9
f 16/1/10 32/1/10 17/1/10 1/1/10
f 9/1/11 25/1/11 26/1/11 10/1/11
f 2/1/12 18/1/12 19/1/12 3/1/12
f 10/1/13 26/1/13 27/1/13 11/1/13
f 3/1/14 19/1/14 20/1/14 4/1/14
f 11/1/15 27/1/15 28/1/15 12/1/15
f 4/1/16 20/1/16 21/1/16 5/1/16
f 18/1/17 17/1/17 32/1/17 31/1/17 30/1/17 29/1/17 28/1/17 27/1/17 26/1/17 25/1/17 24/1/17 23/1/17 22/1/17 21/1/17 20/1/17 19/1/17
f 2/1/18 3/1/18 4/1/18 5/1/18 6/1/18 7/1/18 8/1/18 9/1/18 10/1/18 11/1/18 12/1/18 13/1/18 14/1/18 15/1/18 16/1/18 1/1/18
