# Blender 4.1.1
# www.blender.org
mtllib TantaresStage2Stage3Adapter.mtl
o Circle.036
v 0.000001 8.800004 -0.812495
v -0.210290 8.800004 -0.784810
v -0.406249 8.800004 -0.703641
v -0.574524 8.800004 -0.574519
v -0.703645 8.800004 -0.406245
v -0.784814 8.800004 -0.210286
v -0.812499 8.800004 0.000005
v -0.784814 8.800004 0.210295
v -0.703645 8.800004 0.406255
v -0.574524 8.800004 0.574529
v -0.406249 8.800004 0.703650
v -0.210290 8.800004 0.784820
v 0.000001 8.800004 0.812505
v 0.210291 8.800004 0.784820
v 0.406251 8.800004 0.703650
v 0.574525 8.800004 0.574529
v 0.703646 8.800004 0.406255
v 0.784815 8.800004 0.210295
v 0.812501 8.800004 0.000005
v 0.784815 8.800004 -0.210286
v 0.703646 8.800004 -0.406245
v 0.574525 8.800004 -0.574519
v 0.406251 8.800004 -0.703641
v 0.210291 8.800004 -0.784810
v 0.000001 5.250004 -0.937495
v -0.242642 5.250004 -0.905551
v -0.468749 5.250004 -0.811894
v -0.662912 5.250004 -0.662908
v -0.811898 5.250004 -0.468745
v -0.905555 5.250004 -0.242638
v -0.937499 5.250004 0.000005
v -0.905555 5.250004 0.242648
v -0.811898 5.250004 0.468755
v -0.662912 5.250004 0.662917
v -0.468749 5.250004 0.811904
v -0.242642 5.250004 0.905560
v 0.000001 5.250004 0.937505
v 0.242644 5.250004 0.905560
v 0.468751 5.250004 0.811904
v 0.662913 5.250004 0.662917
v 0.811900 5.250004 0.468755
v 0.905556 5.250004 0.242648
v 0.937501 5.250004 0.000005
v 0.905556 5.250004 -0.242638
v 0.811900 5.250004 -0.468745
v 0.662913 5.250004 -0.662908
v 0.468751 5.250004 -0.811894
v 0.242644 5.250004 -0.905551
v 0.000001 5.200004 -0.937495
v -0.242642 5.200004 -0.905551
v -0.468749 5.200004 -0.811894
v -0.662912 5.200004 -0.662908
v -0.811898 5.200004 -0.468745
v -0.905555 5.200004 -0.242638
v -0.937499 5.200004 0.000005
v -0.905555 5.200004 0.242648
v -0.811898 5.200004 0.468755
v -0.662912 5.200004 0.662917
v -0.468749 5.200004 0.811904
v -0.242642 5.200004 0.905560
v 0.000001 5.200004 0.937505
v 0.242644 5.200004 0.905560
v 0.468751 5.200004 0.811904
v 0.662913 5.200004 0.662917
v 0.811900 5.200004 0.468755
v 0.905556 5.200004 0.242648
v 0.937501 5.200004 0.000005
v 0.905556 5.200004 -0.242638
v 0.811900 5.200004 -0.468745
v 0.662913 5.200004 -0.662908
v 0.468751 5.200004 -0.811894
v 0.242644 5.200004 -0.905551
v 0.000001 8.090004 0.837505
v -0.837499 8.090004 0.000005
v -0.862499 7.380004 0.000005
v 0.000001 7.380004 0.862505
v -0.887499 6.670004 0.000005
v 0.000001 6.670004 0.887505
v -0.912499 5.960004 0.000005
v 0.000001 5.960004 0.912505
v -0.808962 8.090004 -0.216756
v -0.216760 8.090004 0.808968
v -0.833110 7.380004 -0.223227
v -0.223231 7.380004 0.833116
v -0.857258 6.670004 -0.229697
v -0.229701 6.670004 0.857264
v -0.881407 5.960004 -0.236168
v -0.236172 5.960004 0.881412
v -0.725296 8.090004 -0.418745
v -0.418749 8.090004 0.725301
v -0.746946 7.380004 -0.431245
v -0.431249 7.380004 0.746952
v -0.768597 6.670004 -0.443745
v -0.443749 6.670004 0.768602
v -0.790247 5.960004 -0.456245
v -0.456249 5.960004 0.790253
v -0.592201 8.090004 -0.592197
v -0.592201 8.090004 0.592207
v -0.609879 7.380004 -0.609875
v -0.609879 7.380004 0.609884
v -0.627557 6.670004 -0.627552
v -0.627557 6.670004 0.627562
v -0.645234 5.960004 -0.645230
v -0.645234 5.960004 0.645240
v -0.418749 8.090004 -0.725291
v -0.725296 8.090004 0.418755
v -0.431249 7.380004 -0.746942
v -0.746946 7.380004 0.431255
v -0.443749 6.670004 -0.768593
v -0.768597 6.670004 0.443755
v -0.456249 5.960004 -0.790243
v -0.790247 5.960004 0.456255
v -0.236172 5.960004 -0.881402
v -0.808962 8.090004 0.216766
v -0.229701 6.670004 -0.857254
v -0.833110 7.380004 0.223236
v -0.223231 7.380004 -0.833106
v -0.857258 6.670004 0.229707
v -0.216760 8.090004 -0.808958
v -0.881407 5.960004 0.236177
v 0.236173 5.960004 0.881412
v 0.229703 6.670004 0.857264
v 0.223232 7.380004 0.833116
v 0.216762 8.090004 0.808968
v 0.456251 5.960004 0.790253
v 0.443751 6.670004 0.768602
v 0.431251 7.380004 0.746952
v 0.418751 8.090004 0.725301
v 0.645236 5.960004 0.645240
v 0.627558 6.670004 0.627562
v 0.609880 7.380004 0.609884
v 0.592203 8.090004 0.592207
v 0.790249 5.960004 0.456255
v 0.768598 6.670004 0.443755
v 0.746948 7.380004 0.431255
v 0.725297 8.090004 0.418755
v 0.881408 5.960004 0.236177
v 0.857260 6.670004 0.229707
v 0.833112 7.380004 0.223236
v 0.808964 8.090004 0.216766
v 0.912501 5.960004 0.000005
v 0.887501 6.670004 0.000005
v 0.862501 7.380004 0.000005
v 0.837501 8.090004 0.000005
v 0.881408 5.960004 -0.236168
v 0.857260 6.670004 -0.229697
v 0.833112 7.380004 -0.223227
v 0.808964 8.090004 -0.216756
v 0.790249 5.960004 -0.456245
v 0.768598 6.670004 -0.443745
v 0.746948 7.380004 -0.431245
v 0.725297 8.090004 -0.418745
v 0.645236 5.960004 -0.645230
v 0.627558 6.670004 -0.627552
v 0.609880 7.380004 -0.609875
v 0.592203 8.090004 -0.592197
v 0.456251 5.960004 -0.790243
v 0.443751 6.670004 -0.768593
v 0.431251 7.380004 -0.746942
v 0.418751 8.090004 -0.725291
v 0.236173 5.960004 -0.881402
v 0.229703 6.670004 -0.857254
v 0.223232 7.380004 -0.833106
v 0.216762 8.090004 -0.808958
v 0.000001 5.960004 -0.912495
v 0.000001 6.670004 -0.887495
v 0.000001 7.380004 -0.862495
v 0.000001 8.090004 -0.837495
vn -0.0000 0.0352 -0.9994
vn -0.2587 0.0352 -0.9653
vn -0.4997 0.0352 -0.8655
vn -0.7067 0.0352 -0.7067
vn -0.8655 0.0352 -0.4997
vn -0.9653 0.0352 -0.2587
vn -0.9994 0.0352 -0.0000
vn -0.9653 0.0352 0.2587
vn -0.8655 0.0352 0.4997
vn -0.7067 0.0352 0.7067
vn -0.4997 0.0352 0.8655
vn -0.2587 0.0352 0.9653
vn -0.0000 0.0352 0.9994
vn 0.2587 0.0352 0.9653
vn 0.4997 0.0352 0.8655
vn 0.7067 0.0352 0.7067
vn 0.8655 0.0352 0.4997
vn 0.9653 0.0352 0.2587
vn 0.9994 0.0352 -0.0000
vn 0.9653 0.0352 -0.2587
vn 0.8655 0.0352 -0.4997
vn 0.7067 0.0352 -0.7067
vn 0.4997 0.0352 -0.8655
vn 0.2587 0.0352 -0.9653
vn -0.0000 0.0176 -0.9998
vn -0.2588 0.0176 -0.9658
vn -0.4999 0.0176 -0.8659
vn -0.7070 0.0176 -0.7070
vn -0.8659 0.0176 -0.4999
vn -0.9658 0.0176 -0.2588
vn -0.9998 0.0176 -0.0000
vn -0.9658 0.0176 0.2588
vn -0.8659 0.0176 0.4999
vn -0.7070 0.0176 0.7070
vn -0.4999 0.0176 0.8659
vn -0.2588 0.0176 0.9658
vn -0.0000 0.0176 0.9998
vn 0.2588 0.0176 0.9658
vn 0.4999 0.0176 0.8659
vn 0.7070 0.0176 0.7070
vn 0.8659 0.0176 0.4999
vn 0.9658 0.0176 0.2588
vn 0.9998 0.0176 -0.0000
vn 0.9658 0.0176 -0.2588
vn 0.8659 0.0176 -0.4999
vn 0.7070 0.0176 -0.7070
vn 0.4999 0.0176 -0.8659
vn 0.2588 0.0176 -0.9658
vn -0.0000 -0.0000 -1.0000
vn -0.2588 -0.0000 -0.9659
vn -0.5000 -0.0000 -0.8660
vn -0.7071 -0.0000 -0.7071
vn -0.8660 -0.0000 -0.5000
vn -0.9659 -0.0000 -0.2588
vn -1.0000 -0.0000 -0.0000
vn -0.9659 -0.0000 0.2588
vn -0.8660 -0.0000 0.5000
vn -0.7071 -0.0000 0.7071
vn -0.5000 -0.0000 0.8660
vn -0.2588 -0.0000 0.9659
vn -0.0000 -0.0000 1.0000
vn 0.2588 -0.0000 0.9659
vn 0.5000 -0.0000 0.8660
vn 0.7071 -0.0000 0.7071
vn 0.8660 -0.0000 0.5000
vn 0.9659 -0.0000 0.2588
vn 1.0000 -0.0000 -0.0000
vn 0.9659 -0.0000 -0.2588
vn 0.8660 -0.0000 -0.5000
vn 0.7071 -0.0000 -0.7071
vn 0.5000 -0.0000 -0.8660
vn 0.2588 -0.0000 -0.9659
vt 0.036282 0.658237
vt 0.036282 0.727603
vt 0.013961 0.727603
vt 0.013961 0.658237
vt 0.058609 0.450139
vt 0.058609 0.519505
vt 0.036282 0.519505
vt 0.036282 0.450139
vt 0.058609 0.588871
vt 0.036282 0.588871
vt 0.058609 0.658237
vt 0.080944 0.380773
vt 0.080944 0.450139
vt 0.058609 0.380773
vt 0.080944 0.519505
vt 0.080944 0.588871
vt 0.080944 0.658237
vt 0.103281 0.380773
vt 0.103281 0.450139
vt 0.103281 0.519505
vt 0.103281 0.588871
vt 0.103281 0.658237
vt 0.128717 0.380773
vt 0.127463 0.450139
vt 0.126208 0.519505
vt 0.124953 0.588871
vt 0.123698 0.658237
vt 0.147941 0.380773
vt 0.147941 0.450139
vt 0.147941 0.519505
vt 0.147941 0.588871
vt 0.147941 0.658237
vt 0.173359 0.380773
vt 0.173359 0.450139
vt 0.151038 0.450139
vt 0.151038 0.380773
vt 0.173359 0.519505
vt 0.151038 0.519505
vt 0.173359 0.588871
vt 0.151038 0.588871
vt 0.173359 0.658237
vt 0.151038 0.658237
vt 0.128794 0.375887
vt 0.147941 0.375887
vt 0.058609 0.375887
vt 0.080944 0.375887
vt 0.036282 0.380773
vt 0.036282 0.375887
vt 0.058609 0.375887
vt 0.151038 0.375887
vt 0.173359 0.375887
vt 0.103281 0.375887
vt 0.195686 0.380773
vt 0.195686 0.375887
vt 0.128717 0.380773
vt 0.128793 0.375887
vt 0.036282 0.380773
vt 0.013961 0.380773
vt 0.013961 0.375887
vt 0.036282 0.375887
vt 0.218020 0.380773
vt 0.218020 0.375887
vt 0.240358 0.380773
vt 0.240358 0.375887
vt 0.265793 0.380773
vt 0.265870 0.375887
vt 0.285017 0.380773
vt 0.285017 0.375887
vt 0.013961 0.380773
vt 0.013961 0.375887
vt 0.147941 0.727603
vt 0.122443 0.727603
vt 0.123698 0.658237
vt 0.036282 0.450139
vt 0.103281 0.727603
vt 0.103281 0.658237
vt 0.036282 0.588871
vt 0.036282 0.658237
vt 0.013961 0.658237
vt 0.013961 0.588871
vt 0.080944 0.727603
vt 0.036282 0.519505
vt 0.013961 0.519505
vt 0.058609 0.727603
vt 0.058609 0.658237
vt 0.013961 0.450139
vt 0.036282 0.658237
vt 0.285017 0.588871
vt 0.285017 0.658237
vt 0.260774 0.658237
vt 0.262029 0.588871
vt 0.285017 0.519505
vt 0.263284 0.519505
vt 0.103281 0.727603
vt 0.285017 0.450139
vt 0.264539 0.450139
vt 0.080944 0.727603
vt 0.080944 0.658237
vt 0.058609 0.727603
vt 0.240358 0.658237
vt 0.240358 0.588871
vt 0.036282 0.727603
vt 0.240358 0.519505
vt 0.013961 0.727603
vt 0.240358 0.450139
vt 0.285017 0.727603
vt 0.259519 0.727603
vt 0.240358 0.727603
vt 0.218020 0.658237
vt 0.218020 0.588871
vt 0.218020 0.727603
vt 0.218020 0.519505
vt 0.195686 0.727603
vt 0.195686 0.658237
vt 0.218020 0.450139
vt 0.173359 0.727603
vt 0.151038 0.727603
vt 0.195686 0.588871
vt 0.195686 0.519505
vt 0.195686 0.450139
vt 0.080944 0.450139
vt 0.080944 0.519505
vt 0.080944 0.588871
vt 0.036282 0.450139
vt 0.013961 0.450139
vt 0.036282 0.519505
vt 0.013961 0.519505
vt 0.013961 0.588871
vt 0.058609 0.519505
vt 0.058609 0.588871
vt 0.127462 0.450139
vt 0.126208 0.519505
vt 0.124953 0.588871
s 1
usemtl Sheet1
f 119/1/2 2/2/2 1/3/1 168/4/1
f 111/5/3 109/6/3 115/7/2 113/8/2
f 109/6/3 107/9/3 117/10/2 115/7/2
f 107/9/3 105/11/3 119/1/2 117/10/2
f 28/12/28 103/13/4 111/5/3 27/14/27
f 103/13/4 101/15/4 109/6/3 111/5/3
f 101/15/4 99/16/4 107/9/3 109/6/3
f 99/16/4 97/17/4 105/11/3 107/9/3
f 29/18/29 95/19/5 103/13/4 28/12/28
f 95/19/5 93/20/5 101/15/4 103/13/4
f 93/20/5 91/21/5 99/16/4 101/15/4
f 91/21/5 89/22/5 97/17/4 99/16/4
f 30/23/30 87/24/6 95/19/5 29/18/29
f 87/24/6 85/25/6 93/20/5 95/19/5
f 85/25/6 83/26/6 91/21/5 93/20/5
f 83/26/6 81/27/6 89/22/5 91/21/5
f 31/28/31 79/29/7 87/24/6 30/23/30
f 79/29/7 77/30/7 85/25/6 87/24/6
f 77/30/7 75/31/7 83/26/6 85/25/6
f 75/31/7 74/32/7 81/27/6 83/26/6
f 32/33/32 120/34/8 79/35/7 31/36/31
f 120/34/8 118/37/8 77/38/7 79/35/7
f 118/37/8 116/39/8 75/40/7 77/38/7
f 116/39/8 114/41/8 74/42/7 75/40/7
f 31/28/31 30/23/30 54/43/54 55/44/55
f 46/12/46 45/14/45 69/45/69 70/46/70
f 39/14/39 38/47/38 62/48/62 63/49/63
f 32/33/32 31/36/31 55/50/55 56/51/56
f 47/18/47 46/12/46 70/46/70 71/52/71
f 40/12/40 39/14/39 63/49/63 64/46/64
f 33/53/33 32/33/32 56/51/56 57/54/57
f 48/55/48 47/18/47 71/52/71 72/56/72
f 26/57/26 25/58/25 49/59/49 50/60/50
f 41/18/41 40/12/40 64/46/64 65/52/65
f 34/61/34 33/53/33 57/54/57 58/62/58
f 25/28/25 48/55/48 72/56/72 49/44/49
f 27/14/27 26/57/26 50/60/50 51/45/51
f 42/23/42 41/18/41 65/52/65 66/43/66
f 35/63/35 34/61/34 58/62/58 59/64/59
f 28/12/28 27/14/27 51/45/51 52/46/52
f 43/28/43 42/23/42 66/43/66 67/44/67
f 36/65/36 35/63/35 59/64/59 60/66/60
f 29/18/29 28/12/28 52/46/52 53/52/53
f 44/57/44 43/58/43 67/59/67 68/60/68
f 37/67/37 36/65/36 60/66/60 61/68/61
f 30/23/30 29/18/29 53/52/53 54/43/54
f 45/14/45 44/57/44 68/60/68 69/45/69
f 38/47/38 37/69/37 61/70/61 62/48/62
f 168/32/1 1/71/1 24/72/24 164/73/24
f 39/14/39 125/5/15 121/74/14 38/47/38
f 164/73/24 24/72/24 23/75/23 160/76/23
f 123/77/14 124/78/14 73/79/13 76/80/13
f 160/76/23 23/75/23 22/81/22 156/17/22
f 122/82/14 123/77/14 76/80/13 78/83/13
f 156/17/22 22/81/22 21/84/21 152/85/21
f 121/74/14 122/82/14 78/83/13 80/86/13
f 152/85/21 21/84/21 20/2/20 148/87/20
f 38/47/38 121/74/14 80/86/13 37/69/37
f 148/87/20 20/2/20 19/3/19 144/4/19
f 76/88/13 73/89/13 82/90/12 84/91/12
f 144/32/19 19/71/19 18/72/18 140/27/18
f 78/92/13 76/88/13 84/91/12 86/93/12
f 140/27/18 18/72/18 17/94/17 136/22/17
f 80/95/13 78/92/13 86/93/12 88/96/12
f 136/22/17 17/94/17 16/97/16 132/98/16
f 37/67/37 80/95/13 88/96/12 36/65/36
f 132/98/16 16/97/16 15/99/15 128/11/15
f 84/91/12 82/90/12 90/100/11 92/101/11
f 128/11/15 15/99/15 14/102/14 124/78/14
f 86/93/12 84/91/12 92/101/11 94/103/11
f 124/78/14 14/102/14 13/104/13 73/79/13
f 88/96/12 86/93/12 94/103/11 96/105/11
f 73/89/13 13/106/13 12/107/12 82/90/12
f 36/65/36 88/96/12 96/105/11 35/63/35
f 82/90/12 12/107/12 11/108/11 90/100/11
f 92/101/11 90/100/11 98/109/10 100/110/10
f 90/100/11 11/108/11 10/111/10 98/109/10
f 94/103/11 92/101/11 100/110/10 102/112/10
f 98/109/10 10/111/10 9/113/9 106/114/9
f 96/105/11 94/103/11 102/112/10 104/115/10
f 106/114/9 9/113/9 8/116/8 114/41/8
f 35/63/35 96/105/11 104/115/10 34/61/34
f 114/41/8 8/116/8 7/117/7 74/42/7
f 100/110/10 98/109/10 106/114/9 108/118/9
f 74/32/7 7/71/7 6/72/6 81/27/6
f 102/112/10 100/110/10 108/118/9 110/119/9
f 81/27/6 6/72/6 5/94/5 89/22/5
f 104/115/10 102/112/10 110/119/9 112/120/9
f 89/22/5 5/94/5 4/81/4 97/17/4
f 34/61/34 104/115/10 112/120/9 33/53/33
f 97/17/4 4/81/4 3/99/3 105/11/3
f 108/118/9 106/114/9 114/41/8 116/39/8
f 105/11/3 3/99/3 2/2/2 119/1/2
f 110/119/9 108/118/9 116/39/8 118/37/8
f 27/14/27 111/5/3 113/8/2 26/57/26
f 112/120/9 110/119/9 118/37/8 120/34/8
f 33/53/33 112/120/9 120/34/8 32/33/32
f 125/5/15 126/6/15 122/82/14 121/74/14
f 126/6/15 127/9/15 123/77/14 122/82/14
f 127/9/15 128/11/15 124/78/14 123/77/14
f 40/12/40 129/121/16 125/5/15 39/14/39
f 129/121/16 130/122/16 126/6/15 125/5/15
f 130/122/16 131/123/16 127/9/15 126/6/15
f 131/123/16 132/98/16 128/11/15 127/9/15
f 41/18/41 133/19/17 129/121/16 40/12/40
f 133/19/17 134/20/17 130/122/16 129/121/16
f 134/20/17 135/21/17 131/123/16 130/122/16
f 135/21/17 136/22/17 132/98/16 131/123/16
f 42/23/42 137/24/18 133/19/17 41/18/41
f 137/24/18 138/25/18 134/20/17 133/19/17
f 138/25/18 139/26/18 135/21/17 134/20/17
f 139/26/18 140/27/18 136/22/17 135/21/17
f 43/28/43 141/29/19 137/24/18 42/23/42
f 141/29/19 142/30/19 138/25/18 137/24/18
f 142/30/19 143/31/19 139/26/18 138/25/18
f 143/31/19 144/32/19 140/27/18 139/26/18
f 44/57/44 145/124/20 141/125/19 43/58/43
f 145/124/20 146/126/20 142/127/19 141/125/19
f 146/126/20 147/10/20 143/128/19 142/127/19
f 147/10/20 148/87/20 144/4/19 143/128/19
f 45/14/45 149/5/21 145/124/20 44/57/44
f 149/5/21 150/129/21 146/126/20 145/124/20
f 150/129/21 151/130/21 147/10/20 146/126/20
f 151/130/21 152/85/21 148/87/20 147/10/20
f 46/12/46 153/13/22 149/5/21 45/14/45
f 153/13/22 154/15/22 150/129/21 149/5/21
f 154/15/22 155/16/22 151/130/21 150/129/21
f 155/16/22 156/17/22 152/85/21 151/130/21
f 47/18/47 157/19/23 153/13/22 46/12/46
f 157/19/23 158/20/23 154/15/22 153/13/22
f 158/20/23 159/21/23 155/16/22 154/15/22
f 159/21/23 160/76/23 156/17/22 155/16/22
f 48/55/48 161/131/24 157/19/23 47/18/47
f 161/131/24 162/132/24 158/20/23 157/19/23
f 162/132/24 163/133/24 159/21/23 158/20/23
f 163/133/24 164/73/24 160/76/23 159/21/23
f 25/28/25 165/29/1 161/131/24 48/55/48
f 165/29/1 166/30/1 162/132/24 161/131/24
f 166/30/1 167/31/1 163/133/24 162/132/24
f 167/31/1 168/32/1 164/73/24 163/133/24
f 26/57/26 113/8/2 165/125/1 25/58/25
f 113/8/2 115/7/2 166/127/1 165/125/1
f 115/7/2 117/10/2 167/128/1 166/127/1
f 117/10/2 119/1/2 168/4/1 167/128/1
o Circle.008
v -0.017499 5.200292 0.957821
v -0.017499 5.250292 0.957821
v -0.024999 5.200292 0.933750
v -0.024999 5.250292 0.933750
v 0.017501 5.200292 0.957821
v 0.017501 5.250292 0.957821
v 0.025001 5.200292 0.933750
v 0.025001 5.250292 0.933750
v -0.017499 8.777585 0.833388
v -0.024999 8.800004 0.809124
v 0.025001 8.800004 0.809124
v 0.017501 8.777585 0.833388
v 0.000001 8.800004 0.812505
vn -0.9547 -0.0000 0.2975
vn -0.9542 0.0052 0.2991
vn -0.9542 0.0053 0.2992
vn 0.9547 -0.0000 0.2975
vn 0.9542 0.0053 0.2992
vn 0.9542 0.0052 0.2991
vn -0.0000 -0.0000 1.0000
vn -0.0000 0.0176 0.9998
vn -0.0000 -1.0000 -0.0000
vn -0.9536 0.0106 0.3008
vn -0.0000 0.0353 0.9994
vn 0.9536 0.0106 0.3008
vn -0.0935 0.7167 0.6911
vn -0.0388 0.6971 0.7159
vn -0.0000 0.7081 0.7061
vn 0.0935 0.7167 0.6911
vn 0.0388 0.6971 0.7159
vt 0.336539 0.378182
vt 0.336549 0.383077
vt 0.334086 0.383122
vt 0.334049 0.378195
vt 0.342465 0.378217
vt 0.342418 0.383122
vt 0.339956 0.383076
vt 0.339992 0.378194
vt 0.335808 0.375805
vt 0.340740 0.375822
vt 0.336536 0.727535
vt 0.334132 0.729805
vt 0.339970 0.727535
vt 0.342374 0.729805
vt 0.335788 0.730774
vt 0.338253 0.730541
vt 0.340718 0.730774
s 1
usemtl Sheet1
f 169/134/73 170/135/74 172/136/75 171/137/73
f 175/138/76 176/139/77 174/140/78 173/141/76
f 173/141/79 174/140/80 170/135/80 169/134/79
f 171/142/81 175/143/81 173/141/81 169/134/81
f 172/136/75 170/135/74 177/144/82 178/145/82
f 170/135/80 174/140/80 180/146/83 177/144/83
f 174/140/78 176/139/77 179/147/84 180/146/84
f 178/148/85 177/144/86 181/149/87
f 179/150/88 181/149/87 180/146/89
f 177/144/86 180/146/89 181/149/87
o Circle.015
v -0.957816 5.200292 -0.017495
v -0.957816 5.250292 -0.017495
v -0.933744 5.200292 -0.024995
v -0.933744 5.250292 -0.024995
v -0.957816 5.200292 0.017505
v -0.957816 5.250292 0.017505
v -0.933744 5.200292 0.025005
v -0.933744 5.250292 0.025005
v -0.833382 8.777585 -0.017495
v -0.809118 8.800004 -0.024995
v -0.809118 8.800004 0.025005
v -0.833382 8.777585 0.017505
v -0.812499 8.800004 0.000005
vn -0.2975 -0.0000 -0.9547
vn -0.2991 0.0052 -0.9542
vn -0.2992 0.0053 -0.9542
vn -0.2975 -0.0000 0.9547
vn -0.2992 0.0053 0.9542
vn -0.2991 0.0052 0.9542
vn -1.0000 -0.0000 -0.0000
vn -0.9998 0.0176 -0.0000
vn -0.0000 -1.0000 -0.0000
vn -0.3008 0.0106 -0.9536
vn -0.9994 0.0353 -0.0000
vn -0.3008 0.0106 0.9536
vn -0.6911 0.7167 -0.0935
vn -0.7159 0.6971 -0.0388
vn -0.7061 0.7081 -0.0000
vn -0.6911 0.7167 0.0935
vn -0.7159 0.6971 0.0388
vt 0.336539 0.378182
vt 0.336549 0.383077
vt 0.334086 0.383122
vt 0.334049 0.378195
vt 0.342465 0.378217
vt 0.342418 0.383122
vt 0.339956 0.383076
vt 0.339992 0.378194
vt 0.335808 0.375805
vt 0.340740 0.375822
vt 0.336536 0.727535
vt 0.334132 0.729805
vt 0.339970 0.727535
vt 0.342374 0.729805
vt 0.335788 0.730774
vt 0.338253 0.730541
vt 0.340718 0.730774
s 1
usemtl Sheet1
f 182/151/90 183/152/91 185/153/92 184/154/90
f 188/155/93 189/156/94 187/157/95 186/158/93
f 186/158/96 187/157/97 183/152/97 182/151/96
f 184/159/98 188/160/98 186/158/98 182/151/98
f 185/153/92 183/152/91 190/161/99 191/162/99
f 183/152/97 187/157/97 193/163/100 190/161/100
f 187/157/95 189/156/94 192/164/101 193/163/101
f 191/165/102 190/161/103 194/166/104
f 192/167/105 194/166/104 193/163/106
f 190/161/103 193/163/106 194/166/104
o Circle.022
v 0.017501 5.200292 -0.957812
v 0.017501 5.250292 -0.957812
v 0.025001 5.200292 -0.933740
v 0.025001 5.250292 -0.933740
v -0.017499 5.200292 -0.957812
v -0.017499 5.250292 -0.957812
v -0.024999 5.200292 -0.933740
v -0.024999 5.250292 -0.933740
v 0.017501 8.777585 -0.833378
v 0.025001 8.800004 -0.809114
v -0.024999 8.800004 -0.809114
v -0.017499 8.777585 -0.833378
v 0.000001 8.800004 -0.812495
vn 0.9547 -0.0000 -0.2975
vn 0.9542 0.0052 -0.2991
vn 0.9542 0.0053 -0.2992
vn -0.9547 -0.0000 -0.2975
vn -0.9542 0.0053 -0.2992
vn -0.9542 0.0052 -0.2991
vn -0.0000 -0.0000 -1.0000
vn -0.0000 0.0176 -0.9998
vn -0.0000 -1.0000 -0.0000
vn 0.9536 0.0106 -0.3008
vn -0.0000 0.0353 -0.9994
vn -0.9536 0.0106 -0.3008
vn 0.0935 0.7167 -0.6911
vn 0.0388 0.6971 -0.7159
vn -0.0000 0.7081 -0.7061
vn -0.0935 0.7167 -0.6911
vn -0.0388 0.6971 -0.7159
vt 0.336539 0.378182
vt 0.336549 0.383077
vt 0.334086 0.383122
vt 0.334049 0.378195
vt 0.342465 0.378217
vt 0.342418 0.383122
vt 0.339956 0.383076
vt 0.339992 0.378194
vt 0.335808 0.375805
vt 0.340740 0.375822
vt 0.336536 0.727535
vt 0.334132 0.729805
vt 0.339970 0.727535
vt 0.342374 0.729805
vt 0.335788 0.730774
vt 0.338253 0.730541
vt 0.340718 0.730774
s 1
usemtl Sheet1
f 195/168/107 196/169/108 198/170/109 197/171/107
f 201/172/110 202/173/111 200/174/112 199/175/110
f 199/175/113 200/174/114 196/169/114 195/168/113
f 197/176/115 201/177/115 199/175/115 195/168/115
f 198/170/109 196/169/108 203/178/116 204/179/116
f 196/169/114 200/174/114 206/180/117 203/178/117
f 200/174/112 202/173/111 205/181/118 206/180/118
f 204/182/119 203/178/120 207/183/121
f 205/184/122 207/183/121 206/180/123
f 203/178/120 206/180/123 207/183/121
o Circle.025
v 0.957817 5.200292 0.017505
v 0.957817 5.250292 0.017505
v 0.933746 5.200292 0.025005
v 0.933746 5.250292 0.025005
v 0.957817 5.200292 -0.017495
v 0.957817 5.250292 -0.017495
v 0.933746 5.200292 -0.024995
v 0.933746 5.250292 -0.024995
v 0.833384 8.777585 0.017505
v 0.809120 8.800004 0.025005
v 0.809120 8.800004 -0.024995
v 0.833384 8.777585 -0.017495
v 0.812501 8.800004 0.000005
vn 0.2975 -0.0000 0.9547
vn 0.2991 0.0052 0.9542
vn 0.2992 0.0053 0.9542
vn 0.2975 -0.0000 -0.9547
vn 0.2992 0.0053 -0.9542
vn 0.2991 0.0052 -0.9542
vn 1.0000 -0.0000 -0.0000
vn 0.9998 0.0176 -0.0000
vn -0.0000 -1.0000 -0.0000
vn 0.3008 0.0106 0.9536
vn 0.9994 0.0353 -0.0000
vn 0.3008 0.0106 -0.9536
vn 0.6911 0.7167 0.0935
vn 0.7159 0.6971 0.0388
vn 0.7061 0.7081 -0.0000
vn 0.6911 0.7167 -0.0935
vn 0.7159 0.6971 -0.0388
vt 0.336539 0.378182
vt 0.336549 0.383077
vt 0.334086 0.383122
vt 0.334049 0.378195
vt 0.342465 0.378217
vt 0.342418 0.383122
vt 0.339956 0.383076
vt 0.339992 0.378194
vt 0.335808 0.375805
vt 0.340740 0.375822
vt 0.336536 0.727535
vt 0.334132 0.729805
vt 0.339970 0.727535
vt 0.342374 0.729805
vt 0.335788 0.730774
vt 0.338253 0.730541
vt 0.340718 0.730774
s 1
usemtl Sheet1
f 208/185/124 209/186/125 211/187/126 210/188/124
f 214/189/127 215/190/128 213/191/129 212/192/127
f 212/192/130 213/191/131 209/186/131 208/185/130
f 210/193/132 214/194/132 212/192/132 208/185/132
f 211/187/126 209/186/125 216/195/133 217/196/133
f 209/186/131 213/191/131 219/197/134 216/195/134
f 213/191/129 215/190/128 218/198/135 219/197/135
f 217/199/136 216/195/137 220/200/138
f 218/201/139 220/200/138 219/197/140
f 216/195/137 219/197/140 220/200/138
o Cube
v -0.661439 8.800004 0.558913
v -0.660114 8.800004 0.546982
v -0.711462 5.200004 0.598331
v -0.711229 5.250002 0.598097
v -0.509998 8.800004 0.623141
v -0.623135 8.800004 0.510003
v -0.598325 5.200004 0.711468
v -0.598092 5.250002 0.711235
v -0.749533 5.200004 0.647007
v -0.748208 5.200004 0.635076
v -0.748208 5.250002 0.635076
v -0.749533 5.250002 0.647007
v -0.635071 5.200004 0.748213
v -0.647001 5.200004 0.749539
v -0.647001 5.250002 0.749539
v -0.635071 5.250002 0.748213
v -0.558907 8.800004 0.661445
v -0.546977 8.800004 0.660119
vn -0.6624 -0.0000 0.7492
vn -0.6620 0.0345 0.7487
vn -0.7487 0.0345 0.6620
vn -0.7492 -0.0000 0.6624
vn 0.6165 0.0042 0.7873
vn 0.6166 0.0042 0.7873
vn -0.6619 0.0350 0.7487
vn 0.7071 -0.0000 0.7071
vn -0.7487 0.0350 0.6619
vn -0.7875 -0.0000 -0.6163
vn -0.7873 0.0062 -0.6165
vn -0.7071 -0.0000 -0.7071
vn 0.6163 -0.0000 0.7875
vn -0.0000 -1.0000 -0.0000
vn -0.7873 0.0042 -0.6166
vn -0.0000 1.0000 -0.0000
vt 0.318767 0.375805
vt 0.318767 0.380689
vt 0.304603 0.380689
vt 0.304603 0.375805
vt 0.319939 0.380689
vt 0.319939 0.727686
vt 0.318767 0.727686
vt 0.325037 0.380689
vt 0.325037 0.727686
vt 0.304603 0.727686
vt 0.303431 0.375805
vt 0.303431 0.380689
vt 0.298333 0.380689
vt 0.298333 0.375805
vt 0.325037 0.375805
vt 0.319939 0.375805
vt 0.857829 0.919717
vt 0.873433 0.919717
vt 0.873433 0.924801
vt 0.872702 0.925715
vt 0.858561 0.925715
vt 0.857829 0.924801
vt 0.303431 0.727686
vt 0.298333 0.727686
vt 0.873454 0.924807
vt 0.872721 0.925723
vt 0.858542 0.925723
vt 0.857808 0.924807
vt 0.857808 0.919709
vt 0.873454 0.919709
s 1
usemtl Sheet1
f 234/202/141 235/203/142 232/204/143 229/205/144
f 235/203/142 236/206/145 238/207/146 237/208/147
f 236/206/145 228/209/148 225/210/148 238/207/146
f 232/204/143 235/203/142 237/208/147 221/211/149
f 230/212/150 231/213/151 224/214/152 223/215/152
f 227/216/148 228/209/148 236/206/145 233/217/153
f 229/205/144 232/204/143 231/213/151 230/212/150
f 235/203/142 234/202/141 233/217/153 236/206/145
f 223/218/154 227/219/154 233/220/154 234/221/154 229/222/154 230/223/154
f 231/213/151 232/204/143 221/211/149 222/224/155
f 224/214/152 231/213/151 222/224/155 226/225/152
f 222/226/156 221/227/156 237/228/156 238/229/156 225/230/156 226/231/156
