# Blender 4.1.1
# www.blender.org
mtllib Shroud3.mtl
o large_raceway_cap.001
v -0.139534 10.975002 -0.862109
v -0.292242 10.917576 -0.749299
v -0.121561 10.917576 -0.795033
v -0.300029 10.917576 -0.833943
v -0.310215 10.917576 -0.816375
v -0.308768 10.917576 -0.827255
v -0.139534 10.917576 -0.862109
v -0.157139 10.917576 -0.872230
v -0.146227 10.917576 -0.870808
v -0.282599 10.701527 -0.754529
v -0.132226 10.701527 -0.794822
v -0.288868 10.795977 -0.826896
v -0.297730 10.779818 -0.811001
v -0.296535 10.791245 -0.820882
v -0.147357 10.779818 -0.851293
v -0.162980 10.795977 -0.860628
v -0.153333 10.791245 -0.859253
v -0.228584 10.917576 -0.853086
v -0.225924 10.795977 -0.843762
v -0.210291 10.695107 -0.784815
v -0.146227 10.975002 -0.870808
v -0.121561 10.975002 -0.795033
v -0.300029 10.975002 -0.833943
v -0.157139 10.975002 -0.872230
v -0.308768 10.975002 -0.827255
v -0.292242 10.975002 -0.749299
v -0.310215 10.975002 -0.816375
v -0.228584 10.975002 -0.853087
vn -0.0000 1.0000 -0.0000
vn 0.4989 -0.0000 -0.8667
vn 0.8966 -0.0000 -0.4429
vn 0.8852 -0.0400 -0.4635
vn 0.4846 -0.0521 -0.8732
vn 0.9659 -0.0000 -0.2588
vn 0.9607 -0.0294 -0.2761
vn -0.2588 -0.0000 -0.9659
vn -0.0661 -0.0000 -0.9978
vn -0.0670 -0.0452 -0.9967
vn -0.2586 -0.0398 -0.9652
vn -0.8654 -0.0000 -0.5011
vn -0.4417 -0.0000 -0.8972
vn -0.4404 -0.0454 -0.8967
vn -0.8562 -0.0529 -0.5140
vn -0.9659 -0.0000 0.2588
vn -0.9979 -0.0000 0.0648
vn -0.9983 -0.0410 0.0406
vn -0.9701 -0.0303 0.2407
vn -0.9879 -0.0700 0.1384
vn -0.9731 -0.0608 0.2222
vn -0.9088 -0.1058 -0.4036
vn 0.9253 -0.0681 -0.3730
vn 0.5865 -0.1040 -0.8033
vn 0.9543 -0.0590 -0.2931
vn -0.0564 -0.0913 -0.9942
vn -0.2580 -0.0795 -0.9629
vn -0.4479 -0.0918 -0.8894
vn -0.1981 -0.6032 -0.7726
vn -0.1167 -0.5475 -0.8286
vn -0.2123 -0.5722 -0.7922
vn -0.2147 -0.6032 -0.7681
vn -0.3136 -0.5473 -0.7760
vn -0.2219 -0.5174 -0.8265
vt 0.978348 0.965734
vt 0.977355 0.965324
vt 0.976943 0.964335
vt 0.976943 0.957554
vt 0.994198 0.957554
vt 0.994198 0.964335
vt 0.993786 0.965324
vt 0.992793 0.965734
vt 0.985571 0.965734
vt 0.589911 0.639059
vt 0.590959 0.639059
vt 0.590959 0.643093
vt 0.589911 0.643093
vt 0.596772 0.639059
vt 0.596772 0.643093
vt 0.582001 0.639059
vt 0.588825 0.639059
vt 0.588825 0.643093
vt 0.581978 0.643093
vt 0.574039 0.639059
vt 0.575132 0.639059
vt 0.575132 0.643093
vt 0.574039 0.643093
vt 0.567099 0.639059
vt 0.572979 0.639059
vt 0.572979 0.643093
vt 0.567099 0.643093
vt 0.572979 0.656231
vt 0.567099 0.664531
vt 0.574039 0.655025
vt 0.590959 0.656257
vt 0.589911 0.655062
vt 0.596772 0.664531
vt 0.588825 0.654580
vt 0.581940 0.654580
vt 0.575132 0.654536
vt 0.589183 0.660830
vt 0.589558 0.662262
vt 0.589636 0.671803
vt 0.581940 0.660297
vt 0.588303 0.660243
vt 0.575577 0.660243
vt 0.574245 0.671803
vt 0.574323 0.662262
vt 0.574697 0.660830
vt 0.581925 0.671807
s 1
usemtl Sheet1
f 23/1/1 25/2/1 27/3/1 26/4/1 22/5/1 1/6/1 21/7/1 24/8/1 28/9/1
f 21/10/2 1/11/3 7/12/4 9/13/5
f 1/11/3 22/14/6 3/15/7 7/12/4
f 28/16/8 24/17/9 8/18/10 18/19/11
f 25/20/12 23/21/13 4/22/14 6/23/15
f 24/17/9 21/10/2 9/13/5 8/18/10
f 26/24/16 27/25/17 5/26/18 2/27/19
f 27/25/17 25/20/12 6/23/15 5/26/18
f 2/27/19 5/26/18 13/28/20 10/29/21
f 5/26/18 6/23/15 14/30/22 13/28/20
f 9/13/5 7/12/4 15/31/23 17/32/24
f 7/12/4 3/15/7 11/33/25 15/31/23
f 18/19/11 8/18/10 16/34/26 19/35/27
f 6/23/15 4/22/14 12/36/28 14/30/22
f 8/18/10 9/13/5 17/32/24 16/34/26
f 17/37/29 15/38/29 11/39/30 19/40/31 16/41/29
f 4/22/14 18/19/11 19/35/27 12/36/28
f 23/21/13 28/16/8 18/19/11 4/22/14
f 12/42/32 19/40/31 10/43/33 13/44/32 14/45/32
f 19/40/31 20/46/34 10/43/33
f 11/39/30 20/46/34 19/40/31
o panel_shroud_s2.001
v 0.812499 9.700000 0.000009
v 0.784814 9.700000 -0.210281
v -0.000001 9.700000 -0.812491
v -0.210292 9.700000 -0.784805
v -0.406251 9.700000 -0.703636
v 0.703645 9.700000 -0.406241
v 0.574523 9.700000 -0.574515
v 0.406249 9.700000 -0.703636
v 0.210289 9.700000 -0.784805
v 0.784814 10.975000 -0.210281
v 0.812499 10.975000 0.000009
v -0.210292 10.975000 -0.784805
v -0.406251 10.975000 -0.703636
v -0.000001 10.975000 -0.812491
v 0.210289 10.975000 -0.784805
v 0.574523 10.975000 -0.574515
v 0.406249 10.975000 -0.703636
v 0.703645 10.975000 -0.406241
v 0.752258 9.699999 0.000009
v 0.726626 9.699999 -0.194690
v -0.000001 9.699999 -0.752250
v -0.194700 9.699999 -0.726617
v -0.376131 9.699999 -0.651466
v 0.651475 9.699999 -0.376121
v 0.531926 9.699999 -0.531919
v 0.376128 9.699999 -0.651467
v 0.194698 9.699999 -0.726617
v 0.752258 9.750793 0.000009
v 0.726626 9.750793 -0.194690
v -0.000001 9.750793 -0.752250
v -0.194700 9.750793 -0.726617
v -0.376131 9.750793 -0.651466
v 0.651475 9.750793 -0.376121
v 0.531926 9.750793 -0.531919
v 0.376128 9.750793 -0.651467
v 0.194698 9.750793 -0.726617
v 0.782349 9.750793 0.000009
v 0.755691 9.750793 -0.202478
v -0.000001 9.750793 -0.782340
v -0.202488 9.750793 -0.755682
v -0.391176 9.750793 -0.677525
v 0.677533 9.750793 -0.391166
v 0.553203 9.750793 -0.553195
v 0.391173 9.750793 -0.677525
v 0.202486 9.750793 -0.755682
v 0.782349 10.958804 0.000009
v 0.755691 10.958804 -0.202478
v -0.000001 10.958804 -0.782340
v -0.202488 10.958804 -0.755682
v -0.391176 10.958804 -0.677525
v 0.677533 10.958804 -0.391166
v 0.553203 10.958804 -0.553195
v 0.391173 10.958804 -0.677525
v 0.202486 10.958804 -0.755682
vn 0.9914 -0.0000 -0.1305
vn 0.9659 -0.0000 -0.2588
vn -0.2588 -0.0000 -0.9659
vn -0.3827 -0.0000 -0.9239
vn -0.0000 -0.0000 -1.0000
vn 0.2588 -0.0000 -0.9659
vn 0.7071 -0.0000 -0.7071
vn 0.5000 -0.0000 -0.8660
vn 0.8660 -0.0000 -0.5000
vn -0.0000 -1.0000 -0.0000
vn -0.0000 -0.7377 0.6751
vn 0.1747 -0.7377 0.6521
vn -0.4774 -0.7377 0.4774
vn -0.3376 -0.7377 0.5847
vn -0.6521 -0.7377 0.1747
vn -0.5847 -0.7377 0.3376
vn 0.2596 -0.7348 0.6266
vn -0.1747 -0.7377 0.6521
vn -0.6725 -0.7348 0.0885
vn -0.9914 -0.0000 0.1305
vn -0.9659 -0.0000 0.2588
vn -0.8660 -0.0000 0.5000
vn -0.5000 -0.0000 0.8660
vn -0.2588 -0.0000 0.9659
vn -0.7071 -0.0000 0.7071
vn -0.0000 -0.0000 1.0000
vn 0.2588 -0.0000 0.9659
vn 0.3827 -0.0000 0.9239
vn -0.0000 1.0000 -0.0000
vn 0.1823 0.8792 0.4401
vn 0.1225 0.8809 0.4571
vn -0.0000 0.8809 0.4732
vn -0.1225 0.8809 0.4571
vn -0.2366 0.8809 0.4098
vn -0.3346 0.8809 0.3346
vn -0.4098 0.8809 0.2366
vn -0.4571 0.8809 0.1225
vn -0.4723 0.8792 0.0622
vt 0.351631 0.629639
vt 0.351631 0.505127
vt 0.372344 0.505127
vt 0.372344 0.629639
vt 0.461994 0.629639
vt 0.461994 0.505127
vt 0.441281 0.505127
vt 0.441281 0.629639
vt 0.482707 0.629639
vt 0.482707 0.505127
vt 0.503421 0.629639
vt 0.503421 0.505127
vt 0.413771 0.629639
vt 0.413771 0.505127
vt 0.434484 0.505127
vt 0.434484 0.629639
vt 0.524134 0.629639
vt 0.524134 0.505127
vt 0.393058 0.629639
vt 0.393058 0.505127
vt 0.786110 0.978571
vt 0.785342 0.984404
vt 0.766164 0.984404
vt 0.765396 0.978571
vt 0.765396 0.978571
vt 0.786110 0.978571
vt 0.779427 0.792889
vt 0.798605 0.792889
vt 0.798605 0.787928
vt 0.779427 0.787928
vt 0.798605 0.792889
vt 0.779427 0.792889
vt 0.779427 0.787928
vt 0.798605 0.787928
vt 0.779427 0.787928
vt 0.798605 0.792889
vt 0.798605 0.787928
vt 0.822485 0.791969
vt 0.803308 0.791969
vt 0.802924 0.789056
vt 0.822869 0.789056
vt 0.803308 0.791969
vt 0.822485 0.791969
vt 0.803308 0.791969
vt 0.802924 0.789056
vt 0.822869 0.789056
vt 0.649040 0.871884
vt 0.629101 0.871884
vt 0.629101 0.989854
vt 0.649040 0.989854
vt 0.609163 0.871884
vt 0.609163 0.989854
vt 0.822869 0.792172
vt 0.802924 0.792172
vt 0.802540 0.788852
vt 0.823253 0.788852
vt 0.802540 0.788852
vt 0.822869 0.792172
vt 0.823253 0.788852
vt 0.802540 0.788852
vt 0.823253 0.788852
vt 0.707040 0.781913
vt 0.708621 0.784857
vt 0.826591 0.784857
vt 0.826591 0.787796
vt 0.831551 0.787796
vt 0.831551 0.781913
vt 0.831551 0.781913
vt 0.831551 0.787796
vt 0.826591 0.787796
vt 0.826591 0.784857
vt 0.708621 0.784857
vt 0.707039 0.781913
s 1
usemtl Sheet1
f 39/47/35 29/48/35 30/49/36 38/50/36
f 40/51/37 32/52/37 33/53/38 41/54/38
f 42/55/39 31/56/39 32/52/37 40/51/37
f 42/55/39 43/57/40 37/58/40 31/56/39
f 44/59/41 35/60/41 36/61/42 45/62/42
f 45/63/42 36/64/42 37/58/40 43/57/40
f 46/65/43 34/66/43 35/60/41 44/59/41
f 38/50/36 30/49/36 34/66/43 46/65/43
f 31/67/44 49/68/45 50/69/46 32/70/44
f 35/70/44 53/69/47 54/68/48 36/67/44
f 30/70/44 48/69/49 52/68/50 34/67/44
f 32/70/44 50/69/46 51/68/51 33/67/44
f 36/67/44 54/68/48 55/69/52 37/70/44
f 29/67/44 47/68/53 48/69/49 30/71/44
f 37/70/44 55/69/52 49/68/45 31/72/44
f 34/67/44 52/68/50 53/69/47 35/70/44
f 48/73/49 47/74/53 56/75/54 57/76/55
f 52/77/50 48/78/49 57/79/55 61/80/56
f 55/78/52 54/77/48 63/80/57 64/79/58
f 53/78/47 52/77/50 61/80/56 62/81/59
f 50/73/46 49/82/45 58/80/60 59/76/61
f 49/77/45 55/78/52 64/79/58 58/83/60
f 54/77/48 53/78/47 62/81/59 63/80/57
f 51/77/51 50/73/46 59/79/61 60/80/62
f 64/84/63 63/85/63 72/86/63 73/87/63
f 62/88/63 61/89/63 70/87/63 71/86/63
f 59/84/63 58/85/63 67/86/63 68/87/63
f 58/85/63 64/84/63 73/87/63 67/86/63
f 63/85/63 62/84/63 71/87/63 72/86/63
f 60/90/63 59/84/63 68/87/63 69/91/63
f 57/89/63 56/90/63 65/86/63 66/92/63
f 61/89/63 57/88/63 66/86/63 70/87/63
f 67/93/60 73/94/58 82/95/58 76/96/60
f 72/97/57 71/94/59 80/95/59 81/98/57
f 69/97/62 68/94/61 77/95/61 78/98/62
f 66/94/55 65/97/54 74/98/54 75/95/55
f 70/93/56 66/94/55 75/95/55 79/96/56
f 73/94/58 72/97/57 81/98/57 82/95/58
f 71/94/59 70/93/56 79/96/56 80/95/59
f 68/94/61 67/93/60 76/96/60 77/95/61
f 78/99/64 77/100/65 40/101/65 41/102/64
f 77/100/65 76/99/66 42/102/66 40/101/65
f 76/100/66 82/99/67 43/102/67 42/103/66
f 82/99/67 81/100/68 45/101/68 43/102/67
f 81/104/68 80/100/69 44/103/69 45/102/68
f 80/104/69 79/100/70 46/101/70 44/105/69
f 79/104/70 75/100/71 38/106/71 46/105/70
f 75/104/71 74/100/72 39/106/72 38/107/71
f 39/108/60 74/109/60 65/110/60 56/111/60 47/112/60 29/113/60
f 33/114/56 51/115/56 60/116/56 69/117/56 78/118/56 41/119/56
o shroud_connector_shroud.002
v 0.715522 10.975002 -0.370314
v 0.706585 10.975002 -0.438196
v 0.732787 10.855334 -0.392814
v 0.715522 10.855334 -0.370314
v 0.729085 10.855334 -0.420931
v 0.706585 10.855334 -0.438196
v 0.678468 10.855334 -0.434494
v 0.728230 10.789069 -0.394035
v 0.713834 10.789070 -0.374785
v 0.725000 10.789068 -0.418573
v 0.705364 10.789069 -0.433639
v 0.681495 10.789070 -0.430796
v 0.707478 10.754663 -0.399595
v 0.716642 10.762752 -0.397140
v 0.709544 10.762758 -0.386159
v 0.705162 10.754663 -0.397012
v 0.706393 10.754663 -0.407830
v 0.714609 10.762750 -0.412573
v 0.699804 10.754663 -0.412886
v 0.702259 10.762752 -0.422051
v 0.696409 10.754663 -0.412173
v 0.689201 10.762758 -0.421394
v 0.732787 10.975002 -0.392814
v 0.678468 10.975002 -0.434494
v 0.729085 10.975002 -0.420931
vn -0.0000 1.0000 -0.0000
vn 0.9659 -0.0000 0.2588
vn 0.7934 -0.0000 0.6088
vn 0.7947 -0.0313 0.6062
vn 0.9657 -0.0346 0.2573
vn -0.1305 -0.0000 -0.9914
vn 0.2588 -0.0000 -0.9659
vn 0.2600 -0.0346 -0.9650
vn -0.1277 -0.0313 -0.9913
vn 0.8660 -0.0000 -0.5000
vn 0.8655 -0.0352 -0.4997
vn 0.8413 -0.2371 -0.4857
vn 0.9417 -0.2324 0.2433
vn 0.7909 -0.5804 0.1941
vn 0.7068 -0.5779 -0.4081
vn 0.2602 -0.2324 -0.9372
vn 0.7872 -0.2081 0.5805
vn -0.1092 -0.2081 -0.9720
vn 0.2273 -0.5804 -0.7820
vn -0.0773 -0.5309 -0.8439
vn 0.4069 -0.9082 0.0982
vn 0.3471 -0.9063 0.2411
vn -0.0353 -0.9063 -0.4212
vn 0.1184 -0.9082 -0.4015
vn 0.3610 -0.9090 -0.2084
vn 0.6922 -0.5309 0.4889
vt 0.795069 0.982148
vt 0.791777 0.983512
vt 0.788486 0.982148
vt 0.787122 0.978857
vt 0.796432 0.978857
vt 0.551100 0.639638
vt 0.551049 0.636793
vt 0.538911 0.636912
vt 0.539120 0.639687
vt 0.551027 0.648152
vt 0.551085 0.645325
vt 0.539127 0.645237
vt 0.538922 0.648026
vt 0.551115 0.642482
vt 0.539204 0.642460
vt 0.533243 0.642466
vt 0.533029 0.640291
vt 0.530538 0.641096
vt 0.530828 0.642467
vt 0.533031 0.644642
vt 0.532320 0.638035
vt 0.532321 0.646902
vt 0.530539 0.643838
vt 0.529773 0.644970
vt 0.529514 0.641718
vt 0.529166 0.641527
vt 0.529166 0.643407
vt 0.529514 0.643216
vt 0.529734 0.642467
vt 0.529773 0.639965
s 1
usemtl Sheet1
f 105/120/73 107/121/73 84/122/73 106/123/73 83/124/73
f 105/125/74 83/126/75 86/127/76 85/128/77
f 106/129/78 84/130/79 88/131/80 89/132/81
f 107/133/82 105/125/74 85/128/77 87/134/83
f 92/135/84 90/136/85 96/137/86 100/138/87
f 84/130/79 107/133/82 87/134/83 88/131/80
f 88/131/80 87/134/83 92/135/84 93/139/88
f 85/128/77 86/127/76 91/140/89 90/136/85
f 89/132/81 88/131/80 93/139/88 94/141/90
f 87/134/83 85/128/77 90/136/85 92/135/84
f 93/139/88 92/135/84 100/138/87 102/142/91
f 94/141/90 93/139/88 102/142/91 104/143/92
f 95/144/93 98/145/94 103/146/95 101/147/96 99/148/97
f 96/137/86 97/149/98 98/145/94 95/144/93
f 100/138/87 96/137/86 95/144/93 99/148/97
f 102/142/91 100/138/87 99/148/97 101/147/96
f 104/143/92 102/142/91 101/147/96 103/146/95
f 90/136/85 91/140/89 97/149/98 96/137/86
o shroud_connector_shroud.003
v 0.037055 10.975002 -0.804814
v -0.026200 10.975002 -0.831016
v 0.026202 10.855334 -0.831016
v 0.037055 10.855334 -0.804814
v 0.000001 10.855334 -0.841869
v -0.026200 10.855334 -0.831016
v -0.037053 10.855334 -0.804814
v 0.022867 10.789069 -0.827680
v 0.032339 10.789070 -0.805587
v 0.000001 10.789068 -0.837151
v -0.022865 10.789069 -0.827680
v -0.032337 10.789070 -0.805587
v 0.007675 10.754663 -0.812488
v 0.014384 10.762752 -0.819197
v 0.020344 10.762758 -0.807560
v 0.008755 10.754663 -0.809191
v 0.000001 10.754663 -0.815667
v 0.000001 10.762750 -0.825153
v -0.007672 10.754663 -0.812488
v -0.014381 10.762752 -0.819197
v -0.008752 10.754663 -0.809191
v -0.020341 10.762758 -0.807560
v 0.026202 10.975002 -0.831016
v -0.037053 10.975002 -0.804814
v 0.000001 10.975002 -0.841869
vn -0.0000 1.0000 -0.0000
vn 0.7071 -0.0000 -0.7071
vn 0.9239 -0.0000 -0.3827
vn 0.9224 -0.0313 -0.3851
vn 0.7057 -0.0346 -0.7077
vn -0.9239 -0.0000 -0.3827
vn -0.7071 -0.0000 -0.7071
vn -0.7057 -0.0346 -0.7077
vn -0.9224 -0.0313 -0.3851
vn -0.0000 -0.0000 -1.0000
vn -0.0000 -0.0352 -0.9994
vn -0.0000 -0.2371 -0.9715
vn 0.6815 -0.2324 -0.6939
vn 0.5635 -0.5804 -0.5879
vn -0.0000 -0.5779 -0.8161
vn -0.6815 -0.2324 -0.6939
vn 0.8964 -0.2081 -0.3914
vn -0.8964 -0.2081 -0.3914
vn -0.5636 -0.5804 -0.5879
vn -0.7695 -0.5309 -0.3550
vn 0.2885 -0.9082 -0.3033
vn 0.3824 -0.9063 -0.1800
vn -0.3824 -0.9063 -0.1800
vn -0.2885 -0.9082 -0.3033
vn -0.0000 -0.9090 -0.4168
vn 0.7695 -0.5309 -0.3550
vt 0.795069 0.982148
vt 0.791777 0.983512
vt 0.788486 0.982148
vt 0.787122 0.978857
vt 0.796432 0.978857
vt 0.551100 0.639638
vt 0.551049 0.636793
vt 0.538911 0.636912
vt 0.539120 0.639687
vt 0.551027 0.648152
vt 0.551085 0.645325
vt 0.539127 0.645237
vt 0.538922 0.648026
vt 0.551115 0.642482
vt 0.539204 0.642460
vt 0.533243 0.642466
vt 0.533029 0.640291
vt 0.530538 0.641096
vt 0.530828 0.642467
vt 0.533031 0.644642
vt 0.532320 0.638035
vt 0.532321 0.646902
vt 0.530539 0.643838
vt 0.529773 0.644970
vt 0.529514 0.641718
vt 0.529166 0.641527
vt 0.529166 0.643407
vt 0.529514 0.643216
vt 0.529734 0.642467
vt 0.529773 0.639965
s 1
usemtl Sheet1
f 130/150/99 132/151/99 109/152/99 131/153/99 108/154/99
f 130/155/100 108/156/101 111/157/102 110/158/103
f 131/159/104 109/160/105 113/161/106 114/162/107
f 132/163/108 130/155/100 110/158/103 112/164/109
f 117/165/110 115/166/111 121/167/112 125/168/113
f 109/160/105 132/163/108 112/164/109 113/161/106
f 113/161/106 112/164/109 117/165/110 118/169/114
f 110/158/103 111/157/102 116/170/115 115/166/111
f 114/162/107 113/161/106 118/169/114 119/171/116
f 112/164/109 110/158/103 115/166/111 117/165/110
f 118/169/114 117/165/110 125/168/113 127/172/117
f 119/171/116 118/169/114 127/172/117 129/173/118
f 120/174/119 123/175/120 128/176/121 126/177/122 124/178/123
f 121/167/112 122/179/124 123/175/120 120/174/119
f 125/168/113 121/167/112 120/174/119 124/178/123
f 127/172/117 125/168/113 124/178/123 126/177/122
f 129/173/118 127/172/117 126/177/122 128/176/121
f 115/166/111 116/170/115 122/179/124 121/167/112
o large_raceway_cap.005
v -0.292236 9.700000 -0.749295
v -0.121555 9.700000 -0.795028
v -0.300023 9.700000 -0.833938
v -0.310208 9.700000 -0.816370
v -0.308762 9.700000 -0.827250
v -0.139528 9.700000 -0.862104
v -0.157133 9.700000 -0.872225
v -0.146221 9.700000 -0.870803
v -0.228578 9.700000 -0.853082
v -0.292236 9.748448 -0.749295
v -0.121555 9.748448 -0.795028
v -0.300023 9.748448 -0.833938
v -0.310208 9.748448 -0.816370
v -0.308762 9.748448 -0.827250
v -0.139528 9.748448 -0.862104
v -0.157133 9.748448 -0.872225
v -0.146221 9.748448 -0.870803
v -0.228578 9.748448 -0.853082
v -0.232650 9.860489 -0.772886
v -0.184953 9.860489 -0.785666
v -0.232920 9.860489 -0.789425
v -0.235766 9.860489 -0.784516
v -0.235362 9.860489 -0.787556
v -0.188069 9.860489 -0.797296
v -0.192989 9.860489 -0.800124
v -0.189940 9.860489 -0.799727
v -0.212954 9.860489 -0.794775
v -0.255610 9.839524 -0.763269
v -0.280752 9.795609 -0.752372
v -0.133038 9.795609 -0.791951
v -0.160261 9.839524 -0.788818
v -0.258922 9.839522 -0.806674
v -0.287491 9.795607 -0.825625
v -0.296305 9.795614 -0.810421
v -0.264661 9.839482 -0.796880
v -0.295052 9.795618 -0.819836
v -0.263878 9.839461 -0.802977
v -0.169228 9.839482 -0.822452
v -0.148594 9.795614 -0.850000
v -0.163829 9.795607 -0.858761
v -0.179095 9.839522 -0.828064
v -0.172955 9.839461 -0.827340
v -0.154387 9.795618 -0.857527
v -0.225661 9.795599 -0.842195
v -0.218992 9.839584 -0.817309
vn -0.9659 -0.0000 0.2588
vn -0.9586 0.1232 0.2568
vn -0.9889 0.1376 0.0563
vn -0.9979 -0.0000 0.0648
vn -0.8654 -0.0000 -0.5011
vn -0.8556 0.1531 -0.4944
vn 0.8966 -0.0000 -0.4429
vn 0.4989 -0.0000 -0.8667
vn 0.4938 0.1531 -0.8560
vn 0.8846 0.1376 -0.4457
vn 0.9586 0.1232 -0.2568
vn 0.9659 -0.0000 -0.2588
vn -0.0661 -0.0000 -0.9978
vn -0.2588 -0.0000 -0.9659
vn -0.2570 0.1170 -0.9593
vn -0.0568 0.1332 -0.9895
vn -0.4417 -0.0000 -0.8972
vn -0.4455 0.1332 -0.8853
vn -0.7676 0.4614 -0.4449
vn -0.4052 0.4129 -0.8157
vn 0.7384 0.6447 -0.1978
vn 0.6555 0.6856 -0.3166
vn 0.3296 0.9336 -0.1405
vn 0.3438 0.9345 -0.0922
vn 0.3427 0.7234 -0.5994
vn 0.1703 0.9382 -0.3015
vn -0.0559 0.6734 -0.7372
vn -0.0470 0.9293 -0.3663
vn -0.3202 0.6734 -0.6664
vn -0.5965 0.7234 -0.3478
vn -0.2982 0.9382 -0.1759
vn -0.1424 0.9293 -0.3407
vn -0.2004 0.6327 -0.7480
vn -0.0925 0.9340 -0.3451
vn 0.4423 0.4614 -0.7691
vn 0.8106 0.4243 -0.4037
vn 0.8912 0.3857 -0.2387
vn -0.2402 0.3729 -0.8963
vn -0.0569 0.4129 -0.9090
vn -0.7260 0.6856 0.0536
vn -0.3557 0.9336 0.0431
vn -0.8912 0.3857 0.2389
vn -0.9038 0.4243 0.0557
vn -0.7384 0.6447 0.1979
vn -0.3438 0.9345 0.0921
vn -0.0000 -1.0000 -0.0000
vt 0.648257 0.610630
vt 0.646601 0.616798
vt 0.641663 0.616798
vt 0.642979 0.610630
vt 0.641749 0.610630
vt 0.640932 0.616798
vt 0.625259 0.610630
vt 0.626489 0.610630
vt 0.627306 0.616798
vt 0.626575 0.616798
vt 0.621637 0.616798
vt 0.619981 0.610630
vt 0.627767 0.610630
vt 0.634119 0.610630
vt 0.634119 0.616798
vt 0.628078 0.616798
vt 0.640470 0.610630
vt 0.640160 0.616798
vt 0.639277 0.624000
vt 0.638742 0.624000
vt 0.628732 0.627997
vt 0.630300 0.627997
vt 0.631897 0.630191
vt 0.631627 0.630647
vt 0.630604 0.627997
vt 0.632069 0.630191
vt 0.631025 0.627997
vt 0.632339 0.630191
vt 0.637213 0.627997
vt 0.637634 0.627997
vt 0.636168 0.630191
vt 0.635899 0.630191
vt 0.634119 0.627997
vt 0.634119 0.630191
vt 0.628961 0.624000
vt 0.628515 0.624000
vt 0.625131 0.624000
vt 0.634119 0.624000
vt 0.629496 0.624000
vt 0.637938 0.627997
vt 0.636341 0.630191
vt 0.643107 0.624000
vt 0.639723 0.624000
vt 0.639506 0.627997
vt 0.636611 0.630647
vt 0.915914 0.882521
vt 0.915505 0.881537
vt 0.915505 0.874794
vt 0.932665 0.874794
vt 0.932665 0.881537
vt 0.932256 0.882521
vt 0.931268 0.882929
vt 0.924085 0.882929
vt 0.916902 0.882929
s 1
usemtl Sheet1
f 133/180/125 142/181/126 145/182/127 136/183/128
f 137/184/129 136/183/128 145/182/127 146/185/130
f 138/186/131 140/187/132 149/188/133 147/189/134
f 138/186/131 147/189/134 143/190/135 134/191/136
f 139/192/137 141/193/138 150/194/139 148/195/140
f 135/196/141 137/184/129 146/185/130 144/197/142
f 140/187/132 139/192/137 148/195/140 149/188/133
f 141/193/138 135/196/141 144/197/142 150/194/139
f 144/197/142 146/185/130 168/198/143 165/199/144
f 163/200/145 170/201/146 156/202/147 152/203/148
f 170/201/146 174/204/149 158/205/150 156/202/147
f 174/204/149 173/206/151 157/207/152 158/205/150
f 164/208/153 169/209/154 155/210/155 153/211/156
f 177/212/157 164/208/153 153/211/156 159/213/158
f 173/206/151 177/212/157 159/213/158 157/207/152
f 147/189/134 149/188/133 175/214/159 171/215/160
f 143/190/135 147/189/134 171/215/160 162/216/161
f 148/195/140 150/194/139 176/217/162 172/218/163
f 150/194/139 144/197/142 165/199/144 176/217/162
f 149/188/133 148/195/140 172/218/163 175/214/159
f 169/209/154 167/219/164 154/220/165 155/210/155
f 145/182/127 142/181/126 161/221/166 166/222/167
f 146/185/130 145/182/127 166/222/167 168/198/143
f 173/206/151 174/204/149 175/214/159 172/218/163
f 174/204/149 170/201/146 171/215/160 175/214/159
f 169/209/154 164/208/153 165/199/144 168/198/143
f 167/219/164 169/209/154 168/198/143 166/222/167
f 177/212/157 173/206/151 172/218/163 176/217/162
f 166/222/167 161/221/166 160/223/168 167/219/164
f 162/216/161 171/215/160 170/201/146 163/200/145
f 164/208/153 177/212/157 176/217/162 165/199/144
f 167/219/164 160/223/168 151/224/169 154/220/165
f 158/205/150 157/207/152 159/213/158 153/211/156 155/210/155 154/220/165 151/224/169 152/203/148 156/202/147
f 140/225/170 138/226/170 134/227/170 133/228/170 136/229/170 137/230/170 135/231/170 141/232/170 139/233/170
