# Blender 4.1.1
# www.blender.org
mtllib Shroud2.mtl
o large_raceway_cap
v -0.862108 10.975002 0.139533
v -0.749299 10.917576 0.292241
v -0.795033 10.917576 0.121560
v -0.833942 10.917576 0.300028
v -0.816375 10.917576 0.310214
v -0.827255 10.917576 0.308767
v -0.862108 10.917576 0.139533
v -0.872230 10.917576 0.157138
v -0.870807 10.917576 0.146226
v -0.754529 10.701527 0.282598
v -0.794821 10.701527 0.132225
v -0.826895 10.795977 0.288868
v -0.811000 10.779818 0.297730
v -0.820881 10.791245 0.296534
v -0.851293 10.779818 0.147357
v -0.860627 10.795977 0.162979
v -0.859252 10.791245 0.153332
v -0.853086 10.917576 0.228583
v -0.843761 10.795977 0.225923
v -0.784815 10.695107 0.210290
v -0.870808 10.975002 0.146226
v -0.795033 10.975002 0.121560
v -0.833942 10.975002 0.300028
v -0.872230 10.975002 0.157138
v -0.827255 10.975002 0.308767
v -0.749299 10.975002 0.292241
v -0.816375 10.975002 0.310214
v -0.853086 10.975002 0.228583
vn -0.0000 1.0000 -0.0000
vn -0.8667 -0.0000 -0.4989
vn -0.4429 -0.0000 -0.8966
vn -0.4635 -0.0400 -0.8852
vn -0.8732 -0.0521 -0.4846
vn -0.2588 -0.0000 -0.9659
vn -0.2761 -0.0294 -0.9607
vn -0.9659 -0.0000 0.2588
vn -0.9978 -0.0000 0.0661
vn -0.9967 -0.0452 0.0670
vn -0.9652 -0.0398 0.2586
vn -0.5011 -0.0000 0.8654
vn -0.8972 -0.0000 0.4417
vn -0.8967 -0.0454 0.4404
vn -0.5140 -0.0529 0.8562
vn 0.2588 -0.0000 0.9659
vn 0.0648 -0.0000 0.9979
vn 0.0406 -0.0410 0.9983
vn 0.2407 -0.0303 0.9701
vn 0.1384 -0.0700 0.9879
vn 0.2222 -0.0608 0.9731
vn -0.4036 -0.1058 0.9088
vn -0.3730 -0.0681 -0.9253
vn -0.8033 -0.1040 -0.5865
vn -0.2931 -0.0590 -0.9543
vn -0.9942 -0.0913 0.0564
vn -0.9629 -0.0795 0.2580
vn -0.8894 -0.0918 0.4479
vn -0.7726 -0.6032 0.1981
vn -0.8286 -0.5475 0.1167
vn -0.7922 -0.5722 0.2123
vn -0.7681 -0.6032 0.2147
vn -0.7760 -0.5473 0.3136
vn -0.8265 -0.5174 0.2219
vt 0.978348 0.965734
vt 0.977355 0.965324
vt 0.976943 0.964335
vt 0.976943 0.957554
vt 0.994198 0.957554
vt 0.994198 0.964335
vt 0.993786 0.965324
vt 0.992793 0.965734
vt 0.985571 0.965734
vt 0.589911 0.639059
vt 0.590959 0.639059
vt 0.590959 0.643093
vt 0.589911 0.643093
vt 0.596772 0.639059
vt 0.596772 0.643093
vt 0.582001 0.639059
vt 0.588825 0.639059
vt 0.588825 0.643093
vt 0.581978 0.643093
vt 0.574039 0.639059
vt 0.575132 0.639059
vt 0.575132 0.643093
vt 0.574039 0.643093
vt 0.567099 0.639059
vt 0.572979 0.639059
vt 0.572979 0.643093
vt 0.567099 0.643093
vt 0.572979 0.656231
vt 0.567099 0.664531
vt 0.574039 0.655025
vt 0.590959 0.656257
vt 0.589911 0.655062
vt 0.596772 0.664531
vt 0.588825 0.654580
vt 0.581940 0.654580
vt 0.575132 0.654536
vt 0.589183 0.660830
vt 0.589558 0.662262
vt 0.589636 0.671803
vt 0.581940 0.660297
vt 0.588303 0.660243
vt 0.575577 0.660243
vt 0.574245 0.671803
vt 0.574323 0.662262
vt 0.574697 0.660830
vt 0.581925 0.671807
s 1
usemtl Sheet1
f 23/1/1 25/2/1 27/3/1 26/4/1 22/5/1 1/6/1 21/7/1 24/8/1 28/9/1
f 21/10/2 1/11/3 7/12/4 9/13/5
f 1/11/3 22/14/6 3/15/7 7/12/4
f 28/16/8 24/17/9 8/18/10 18/19/11
f 25/20/12 23/21/13 4/22/14 6/23/15
f 24/17/9 21/10/2 9/13/5 8/18/10
f 26/24/16 27/25/17 5/26/18 2/27/19
f 27/25/17 25/20/12 6/23/15 5/26/18
f 2/27/19 5/26/18 13/28/20 10/29/21
f 5/26/18 6/23/15 14/30/22 13/28/20
f 9/13/5 7/12/4 15/31/23 17/32/24
f 7/12/4 3/15/7 11/33/25 15/31/23
f 18/19/11 8/18/10 16/34/26 19/35/27
f 6/23/15 4/22/14 12/36/28 14/30/22
f 8/18/10 9/13/5 17/32/24 16/34/26
f 17/37/29 15/38/29 11/39/30 19/40/31 16/41/29
f 4/22/14 18/19/11 19/35/27 12/36/28
f 23/21/13 28/16/8 18/19/11 4/22/14
f 12/42/32 19/40/31 10/43/33 13/44/32 14/45/32
f 19/40/31 20/46/34 10/43/33
f 11/39/30 20/46/34 19/40/31
o large_raceway_cap.002
v -0.749299 9.700000 0.292241
v -0.795033 9.700000 0.121560
v -0.833942 9.700000 0.300028
v -0.816375 9.700000 0.310214
v -0.827255 9.700000 0.308767
v -0.862108 9.700000 0.139533
v -0.872230 9.700000 0.157138
v -0.870807 9.700000 0.146226
v -0.853086 9.700000 0.228583
v -0.749299 9.748448 0.292241
v -0.795033 9.748448 0.121560
v -0.833942 9.748448 0.300028
v -0.816375 9.748448 0.310214
v -0.827255 9.748448 0.308767
v -0.862108 9.748448 0.139533
v -0.872230 9.748448 0.157138
v -0.870807 9.748448 0.146226
v -0.853086 9.748448 0.228583
v -0.772890 9.860489 0.232655
v -0.785670 9.860489 0.184958
v -0.789429 9.860489 0.232925
v -0.784520 9.860489 0.235772
v -0.787560 9.860489 0.235367
v -0.797300 9.860489 0.188075
v -0.800129 9.860489 0.192994
v -0.799731 9.860489 0.189945
v -0.794779 9.860489 0.212960
v -0.763273 9.839524 0.255615
v -0.752376 9.795609 0.280757
v -0.791956 9.795609 0.133044
v -0.788822 9.839524 0.160266
v -0.806678 9.839522 0.258928
v -0.825630 9.795607 0.287497
v -0.810425 9.795614 0.296310
v -0.796884 9.839482 0.264667
v -0.819840 9.795618 0.295057
v -0.802981 9.839461 0.263883
v -0.822456 9.839482 0.169233
v -0.850004 9.795614 0.148599
v -0.858765 9.795607 0.163834
v -0.828068 9.839522 0.179100
v -0.827344 9.839461 0.172960
v -0.857531 9.795618 0.154392
v -0.842199 9.795599 0.225666
v -0.817313 9.839584 0.218998
vn 0.2588 -0.0000 0.9659
vn 0.2568 0.1232 0.9586
vn 0.0563 0.1376 0.9889
vn 0.0648 -0.0000 0.9979
vn -0.5011 -0.0000 0.8654
vn -0.4944 0.1531 0.8556
vn -0.4429 -0.0000 -0.8966
vn -0.8667 -0.0000 -0.4989
vn -0.8560 0.1531 -0.4938
vn -0.4457 0.1376 -0.8846
vn -0.2568 0.1232 -0.9586
vn -0.2588 -0.0000 -0.9659
vn -0.9978 -0.0000 0.0661
vn -0.9659 -0.0000 0.2588
vn -0.9593 0.1170 0.2570
vn -0.9895 0.1332 0.0568
vn -0.8972 -0.0000 0.4417
vn -0.8853 0.1332 0.4455
vn -0.4449 0.4614 0.7676
vn -0.8157 0.4129 0.4052
vn -0.1978 0.6447 -0.7384
vn -0.3166 0.6856 -0.6555
vn -0.1405 0.9336 -0.3296
vn -0.0922 0.9345 -0.3438
vn -0.5994 0.7234 -0.3427
vn -0.3015 0.9382 -0.1703
vn -0.7372 0.6734 0.0559
vn -0.3663 0.9293 0.0470
vn -0.6664 0.6734 0.3202
vn -0.3478 0.7234 0.5965
vn -0.1759 0.9382 0.2982
vn -0.3407 0.9293 0.1424
vn -0.7480 0.6327 0.2004
vn -0.3451 0.9340 0.0925
vn -0.7691 0.4614 -0.4423
vn -0.4037 0.4243 -0.8106
vn -0.2387 0.3857 -0.8912
vn -0.8963 0.3729 0.2402
vn -0.9090 0.4129 0.0569
vn 0.0536 0.6856 0.7260
vn 0.0431 0.9336 0.3557
vn 0.2389 0.3857 0.8912
vn 0.0557 0.4243 0.9038
vn 0.1979 0.6447 0.7384
vn 0.0921 0.9345 0.3438
vn -0.0000 -1.0000 -0.0000
vt 0.648257 0.610630
vt 0.646601 0.616798
vt 0.641663 0.616798
vt 0.642979 0.610630
vt 0.641749 0.610630
vt 0.640932 0.616798
vt 0.625259 0.610630
vt 0.626489 0.610630
vt 0.627306 0.616798
vt 0.626575 0.616798
vt 0.621637 0.616798
vt 0.619981 0.610630
vt 0.627767 0.610630
vt 0.634119 0.610630
vt 0.634119 0.616798
vt 0.628078 0.616798
vt 0.640470 0.610630
vt 0.640160 0.616798
vt 0.639277 0.624000
vt 0.638742 0.624000
vt 0.628732 0.627997
vt 0.630300 0.627997
vt 0.631897 0.630191
vt 0.631627 0.630647
vt 0.630604 0.627997
vt 0.632069 0.630191
vt 0.631025 0.627997
vt 0.632339 0.630191
vt 0.637213 0.627997
vt 0.637634 0.627997
vt 0.636168 0.630191
vt 0.635899 0.630191
vt 0.634119 0.627997
vt 0.634119 0.630191
vt 0.628961 0.624000
vt 0.628515 0.624000
vt 0.625131 0.624000
vt 0.634119 0.624000
vt 0.629496 0.624000
vt 0.637938 0.627997
vt 0.636341 0.630191
vt 0.643107 0.624000
vt 0.639723 0.624000
vt 0.639506 0.627997
vt 0.636611 0.630647
vt 0.915914 0.882521
vt 0.915505 0.881537
vt 0.915505 0.874794
vt 0.932665 0.874794
vt 0.932665 0.881537
vt 0.932256 0.882521
vt 0.931268 0.882929
vt 0.924085 0.882929
vt 0.916902 0.882929
s 1
usemtl Sheet1
f 29/47/35 38/48/36 41/49/37 32/50/38
f 33/51/39 32/50/38 41/49/37 42/52/40
f 34/53/41 36/54/42 45/55/43 43/56/44
f 34/53/41 43/56/44 39/57/45 30/58/46
f 35/59/47 37/60/48 46/61/49 44/62/50
f 31/63/51 33/51/39 42/52/40 40/64/52
f 36/54/42 35/59/47 44/62/50 45/55/43
f 37/60/48 31/63/51 40/64/52 46/61/49
f 40/64/52 42/52/40 64/65/53 61/66/54
f 59/67/55 66/68/56 52/69/57 48/70/58
f 66/68/56 70/71/59 54/72/60 52/69/57
f 70/71/59 69/73/61 53/74/62 54/72/60
f 60/75/63 65/76/64 51/77/65 49/78/66
f 73/79/67 60/75/63 49/78/66 55/80/68
f 69/73/61 73/79/67 55/80/68 53/74/62
f 43/56/44 45/55/43 71/81/69 67/82/70
f 39/57/45 43/56/44 67/82/70 58/83/71
f 44/62/50 46/61/49 72/84/72 68/85/73
f 46/61/49 40/64/52 61/66/54 72/84/72
f 45/55/43 44/62/50 68/85/73 71/81/69
f 65/76/64 63/86/74 50/87/75 51/77/65
f 41/49/37 38/48/36 57/88/76 62/89/77
f 42/52/40 41/49/37 62/89/77 64/65/53
f 69/73/61 70/71/59 71/81/69 68/85/73
f 70/71/59 66/68/56 67/82/70 71/81/69
f 65/76/64 60/75/63 61/66/54 64/65/53
f 63/86/74 65/76/64 64/65/53 62/89/77
f 73/79/67 69/73/61 68/85/73 72/84/72
f 62/89/77 57/88/76 56/90/78 63/86/74
f 58/83/71 67/82/70 66/68/56 59/67/55
f 60/75/63 73/79/67 72/84/72 61/66/54
f 63/86/74 56/90/78 47/91/79 50/87/75
f 54/72/60 53/74/62 55/80/68 49/78/66 51/77/65 50/87/75 47/91/79 48/70/58 52/69/57
f 36/92/80 34/93/80 30/94/80 29/95/80 32/96/80 33/97/80 31/98/80 37/99/80 35/100/80
o panel_shroud_s2.003
v -0.406245 9.700000 -0.703641
v -0.574519 9.700000 -0.574520
v -0.703640 9.700000 0.406255
v -0.574518 9.700000 0.574529
v -0.406244 9.700000 0.703650
v -0.703640 9.700000 -0.406245
v -0.784809 9.700000 -0.210286
v -0.812495 9.700000 0.000005
v -0.784809 9.700000 0.210295
v -0.574519 10.975000 -0.574520
v -0.406245 10.975000 -0.703641
v -0.574518 10.975000 0.574529
v -0.406244 10.975000 0.703650
v -0.703640 10.975000 0.406255
v -0.784809 10.975000 0.210295
v -0.784809 10.975000 -0.210286
v -0.812495 10.975000 0.000005
v -0.703640 10.975000 -0.406245
v -0.376125 9.699999 -0.651471
v -0.531923 9.699999 -0.531923
v -0.651470 9.699999 0.376134
v -0.531922 9.699999 0.531932
v -0.376124 9.699999 0.651480
v -0.651471 9.699999 -0.376125
v -0.726621 9.699999 -0.194694
v -0.752254 9.699999 0.000005
v -0.726621 9.699999 0.194704
v -0.376125 9.750793 -0.651471
v -0.531923 9.750793 -0.531923
v -0.651470 9.750793 0.376134
v -0.531922 9.750793 0.531932
v -0.376124 9.750793 0.651480
v -0.651471 9.750793 -0.376125
v -0.726621 9.750793 -0.194694
v -0.752254 9.750793 0.000005
v -0.726621 9.750793 0.194704
v -0.391170 9.750793 -0.677530
v -0.553200 9.750793 -0.553200
v -0.677529 9.750793 0.391180
v -0.553199 9.750793 0.553209
v -0.391169 9.750793 0.677539
v -0.677529 9.750793 -0.391170
v -0.755686 9.750793 -0.202482
v -0.782344 9.750793 0.000005
v -0.755686 9.750793 0.202492
v -0.391170 10.958804 -0.677530
v -0.553200 10.958804 -0.553200
v -0.677529 10.958804 0.391180
v -0.553199 10.958804 0.553209
v -0.391169 10.958804 0.677539
v -0.677529 10.958804 -0.391170
v -0.755686 10.958804 -0.202482
v -0.782344 10.958804 0.000005
v -0.755686 10.958804 0.202492
vn -0.6088 -0.0000 -0.7934
vn -0.7071 -0.0000 -0.7071
vn -0.7071 -0.0000 0.7071
vn -0.6088 -0.0000 0.7934
vn -0.8660 -0.0000 0.5000
vn -0.9659 -0.0000 0.2588
vn -0.9659 -0.0000 -0.2588
vn -1.0000 -0.0000 -0.0000
vn -0.8660 -0.0000 -0.5000
vn -0.0000 -1.0000 -0.0000
vn 0.5847 -0.7377 -0.3376
vn 0.4774 -0.7377 -0.4774
vn 0.6521 -0.7377 0.1747
vn 0.6751 -0.7377 -0.0000
vn 0.4774 -0.7377 0.4774
vn 0.5847 -0.7377 0.3376
vn 0.4129 -0.7348 -0.5381
vn 0.6521 -0.7377 -0.1747
vn 0.4129 -0.7348 0.5381
vn 0.6088 -0.0000 0.7934
vn 0.7071 -0.0000 0.7071
vn 0.8660 -0.0000 0.5000
vn 1.0000 -0.0000 -0.0000
vn 0.9659 -0.0000 -0.2588
vn 0.9659 -0.0000 0.2588
vn 0.8660 -0.0000 -0.5000
vn 0.7071 -0.0000 -0.7071
vn 0.6088 -0.0000 -0.7934
vn -0.0000 1.0000 -0.0000
vn 0.2900 0.8792 -0.3779
vn 0.3346 0.8809 -0.3346
vn 0.4098 0.8809 -0.2366
vn 0.4571 0.8809 -0.1225
vn 0.4732 0.8809 -0.0000
vn 0.4571 0.8809 0.1225
vn 0.4098 0.8809 0.2366
vn 0.3346 0.8809 0.3346
vn 0.2900 0.8792 0.3779
vt 0.434484 0.629639
vt 0.434484 0.505127
vt 0.413771 0.505127
vt 0.413771 0.629639
vt 0.503421 0.629639
vt 0.503421 0.505127
vt 0.524134 0.505127
vt 0.524134 0.629639
vt 0.482708 0.629639
vt 0.482708 0.505127
vt 0.461994 0.629639
vt 0.461994 0.505127
vt 0.372344 0.629639
vt 0.372344 0.505127
vt 0.351631 0.505127
vt 0.351631 0.629639
vt 0.441281 0.629639
vt 0.441281 0.505127
vt 0.393058 0.629639
vt 0.393058 0.505127
vt 0.786110 0.978571
vt 0.785342 0.984404
vt 0.766164 0.984404
vt 0.765396 0.978571
vt 0.765396 0.978571
vt 0.786110 0.978571
vt 0.779427 0.792889
vt 0.798605 0.792889
vt 0.798605 0.787928
vt 0.779427 0.787928
vt 0.798605 0.792889
vt 0.779427 0.792889
vt 0.779427 0.787928
vt 0.798605 0.787928
vt 0.779427 0.787928
vt 0.798605 0.792889
vt 0.798605 0.787928
vt 0.822485 0.791969
vt 0.803308 0.791969
vt 0.802924 0.789056
vt 0.822869 0.789056
vt 0.803308 0.791969
vt 0.822485 0.791969
vt 0.803308 0.791969
vt 0.802924 0.789056
vt 0.822869 0.789056
vt 0.649046 0.871884
vt 0.629101 0.871884
vt 0.629101 0.989854
vt 0.649046 0.989854
vt 0.609157 0.871884
vt 0.609157 0.989854
vt 0.822869 0.792172
vt 0.802924 0.792172
vt 0.802540 0.788852
vt 0.823253 0.788852
vt 0.802540 0.788852
vt 0.822869 0.792172
vt 0.823253 0.788852
vt 0.802540 0.788852
vt 0.823253 0.788852
vt 0.707040 0.781913
vt 0.708621 0.784857
vt 0.826591 0.784857
vt 0.826591 0.787796
vt 0.831551 0.787796
vt 0.831551 0.781913
vt 0.800883 0.787232
vt 0.800883 0.793542
vt 0.795556 0.793542
vt 0.795556 0.793045
vt 0.779637 0.793045
vt 0.778056 0.787232
s 1
usemtl Sheet1
f 84/101/81 74/102/81 75/103/82 83/104/82
f 85/105/83 77/106/83 78/107/84 86/108/84
f 87/109/85 76/110/85 77/106/83 85/105/83
f 87/109/85 88/111/86 82/112/86 76/110/85
f 89/113/87 80/114/87 81/115/88 90/116/88
f 90/117/88 81/118/88 82/112/86 88/111/86
f 91/119/89 79/120/89 80/114/87 89/113/87
f 83/104/82 75/103/82 79/120/89 91/119/89
f 76/121/90 94/122/91 95/123/92 77/124/90
f 80/124/90 98/123/93 99/122/94 81/121/90
f 75/124/90 93/123/95 97/122/96 79/121/90
f 77/124/90 95/123/92 96/122/97 78/121/90
f 81/121/90 99/122/94 100/123/98 82/124/90
f 74/121/90 92/122/99 93/123/95 75/125/90
f 82/124/90 100/123/98 94/122/91 76/126/90
f 79/121/90 97/122/96 98/123/93 80/124/90
f 93/127/95 92/128/99 101/129/100 102/130/101
f 97/131/96 93/132/95 102/133/101 106/134/102
f 100/132/98 99/131/94 108/134/103 109/133/104
f 98/132/93 97/131/96 106/134/102 107/135/105
f 95/127/92 94/136/91 103/134/106 104/130/107
f 94/131/91 100/132/98 109/133/104 103/137/106
f 99/131/94 98/132/93 107/135/105 108/134/103
f 96/131/97 95/127/92 104/133/107 105/134/108
f 109/138/109 108/139/109 117/140/109 118/141/109
f 107/142/109 106/143/109 115/141/109 116/140/109
f 104/138/109 103/139/109 112/140/109 113/141/109
f 103/139/109 109/138/109 118/141/109 112/140/109
f 108/139/109 107/138/109 116/141/109 117/140/109
f 105/144/109 104/138/109 113/141/109 114/145/109
f 102/143/109 101/144/109 110/140/109 111/146/109
f 106/143/109 102/142/109 111/140/109 115/141/109
f 112/147/106 118/148/104 127/149/104 121/150/106
f 117/151/103 116/148/105 125/149/105 126/152/103
f 114/151/108 113/148/107 122/149/107 123/152/108
f 111/148/101 110/151/100 119/152/100 120/149/101
f 115/147/102 111/148/101 120/149/101 124/150/102
f 118/148/104 117/151/103 126/152/103 127/149/104
f 116/148/105 115/147/102 124/150/102 125/149/105
f 113/148/107 112/147/106 121/150/106 122/149/107
f 123/153/110 122/154/111 85/155/111 86/156/110
f 122/154/111 121/153/112 87/156/112 85/155/111
f 121/154/112 127/153/113 88/156/113 87/157/112
f 127/153/113 126/154/114 90/155/114 88/156/113
f 126/158/114 125/154/115 89/157/115 90/156/114
f 125/158/115 124/154/116 91/155/116 89/159/115
f 124/158/116 120/154/117 83/160/117 91/159/116
f 120/158/117 119/154/118 84/160/118 83/161/117
f 84/162/106 119/163/106 110/164/106 101/165/106 92/166/106 74/167/106
f 78/168/102 96/169/102 105/170/102 114/171/102 123/172/102 86/173/102
o shroud_connector_shroud.004
v -0.678466 10.975002 -0.434495
v -0.732785 10.975002 -0.392815
v -0.706583 10.855334 -0.438197
v -0.678466 10.855334 -0.434495
v -0.729083 10.855334 -0.420932
v -0.732785 10.855334 -0.392815
v -0.715520 10.855334 -0.370315
v -0.705363 10.789069 -0.433640
v -0.681494 10.789070 -0.430797
v -0.724998 10.789068 -0.418573
v -0.728228 10.789069 -0.394035
v -0.713831 10.789070 -0.374786
v -0.699802 10.754663 -0.412888
v -0.702257 10.762752 -0.422052
v -0.689199 10.762758 -0.421395
v -0.696407 10.754663 -0.412174
v -0.706391 10.754663 -0.407831
v -0.714607 10.762750 -0.412574
v -0.707475 10.754663 -0.399596
v -0.716640 10.762752 -0.397141
v -0.705160 10.754663 -0.397013
v -0.709542 10.762758 -0.386161
v -0.706583 10.975002 -0.438197
v -0.715520 10.975002 -0.370315
v -0.729083 10.975002 -0.420932
vn -0.0000 1.0000 -0.0000
vn -0.2588 -0.0000 -0.9659
vn 0.1305 -0.0000 -0.9914
vn 0.1277 -0.0313 -0.9913
vn -0.2600 -0.0346 -0.9650
vn -0.7934 -0.0000 0.6088
vn -0.9659 -0.0000 0.2588
vn -0.9657 -0.0346 0.2573
vn -0.7947 -0.0313 0.6062
vn -0.8660 -0.0000 -0.5000
vn -0.8655 -0.0352 -0.4997
vn -0.8413 -0.2371 -0.4857
vn -0.2602 -0.2324 -0.9372
vn -0.2273 -0.5804 -0.7820
vn -0.7068 -0.5779 -0.4081
vn -0.9417 -0.2324 0.2433
vn 0.1092 -0.2081 -0.9720
vn -0.7872 -0.2081 0.5805
vn -0.7909 -0.5804 0.1941
vn -0.6922 -0.5309 0.4889
vn -0.1184 -0.9082 -0.4014
vn 0.0353 -0.9063 -0.4212
vn -0.3471 -0.9063 0.2411
vn -0.4069 -0.9082 0.0982
vn -0.3610 -0.9090 -0.2084
vn 0.0773 -0.5309 -0.8439
vt 0.795069 0.982148
vt 0.791777 0.983512
vt 0.788486 0.982148
vt 0.787122 0.978857
vt 0.796432 0.978857
vt 0.551100 0.639638
vt 0.551049 0.636793
vt 0.538911 0.636912
vt 0.539120 0.639687
vt 0.551027 0.648152
vt 0.551085 0.645325
vt 0.539127 0.645237
vt 0.538922 0.648026
vt 0.551115 0.642482
vt 0.539204 0.642460
vt 0.533243 0.642466
vt 0.533029 0.640291
vt 0.530538 0.641096
vt 0.530828 0.642467
vt 0.533031 0.644642
vt 0.532320 0.638035
vt 0.532321 0.646902
vt 0.530539 0.643838
vt 0.529773 0.644970
vt 0.529514 0.641718
vt 0.529166 0.641527
vt 0.529166 0.643407
vt 0.529514 0.643216
vt 0.529734 0.642467
vt 0.529773 0.639965
s 1
usemtl Sheet1
f 150/174/119 152/175/119 129/176/119 151/177/119 128/178/119
f 150/179/120 128/180/121 131/181/122 130/182/123
f 151/183/124 129/184/125 133/185/126 134/186/127
f 152/187/128 150/179/120 130/182/123 132/188/129
f 137/189/130 135/190/131 141/191/132 145/192/133
f 129/184/125 152/187/128 132/188/129 133/185/126
f 133/185/126 132/188/129 137/189/130 138/193/134
f 130/182/123 131/181/122 136/194/135 135/190/131
f 134/186/127 133/185/126 138/193/134 139/195/136
f 132/188/129 130/182/123 135/190/131 137/189/130
f 138/193/134 137/189/130 145/192/133 147/196/137
f 139/195/136 138/193/134 147/196/137 149/197/138
f 140/198/139 143/199/140 148/200/141 146/201/142 144/202/143
f 141/191/132 142/203/144 143/199/140 140/198/139
f 145/192/133 141/191/132 140/198/139 144/202/143
f 147/196/137 145/192/133 144/202/143 146/201/142
f 149/197/138 147/196/137 146/201/142 148/200/141
f 135/190/131 136/194/135 142/203/144 141/191/132
o shroud_connector_shroud.005
v -0.715520 10.975002 0.370325
v -0.706583 10.975002 0.438206
v -0.732785 10.855334 0.392824
v -0.715520 10.855334 0.370325
v -0.729083 10.855334 0.420942
v -0.706583 10.855334 0.438206
v -0.678466 10.855334 0.434504
v -0.728229 10.789069 0.394045
v -0.713832 10.789070 0.374795
v -0.724998 10.789068 0.418583
v -0.705363 10.789069 0.433650
v -0.681494 10.789070 0.430806
v -0.707476 10.754663 0.399606
v -0.716640 10.762752 0.397150
v -0.709542 10.762758 0.386170
v -0.705160 10.754663 0.397022
v -0.706392 10.754663 0.407840
v -0.714607 10.762750 0.412584
v -0.699802 10.754663 0.412897
v -0.702258 10.762752 0.422061
v -0.696407 10.754663 0.412183
v -0.689200 10.762758 0.421404
v -0.732785 10.975002 0.392824
v -0.678466 10.975002 0.434504
v -0.729083 10.975002 0.420942
vn -0.0000 1.0000 -0.0000
vn -0.9659 -0.0000 -0.2588
vn -0.7934 -0.0000 -0.6088
vn -0.7947 -0.0313 -0.6062
vn -0.9657 -0.0346 -0.2573
vn 0.1305 -0.0000 0.9914
vn -0.2588 -0.0000 0.9659
vn -0.2600 -0.0346 0.9650
vn 0.1277 -0.0313 0.9913
vn -0.8660 -0.0000 0.5000
vn -0.8655 -0.0352 0.4997
vn -0.8413 -0.2371 0.4857
vn -0.9417 -0.2324 -0.2433
vn -0.7909 -0.5804 -0.1941
vn -0.7068 -0.5779 0.4081
vn -0.2602 -0.2324 0.9372
vn -0.7872 -0.2081 -0.5805
vn 0.1092 -0.2081 0.9720
vn -0.2273 -0.5804 0.7820
vn 0.0773 -0.5309 0.8439
vn -0.4069 -0.9082 -0.0982
vn -0.3471 -0.9063 -0.2411
vn 0.0353 -0.9063 0.4212
vn -0.1184 -0.9082 0.4015
vn -0.3610 -0.9090 0.2084
vn -0.6922 -0.5309 -0.4889
vt 0.795069 0.982148
vt 0.791777 0.983512
vt 0.788486 0.982148
vt 0.787122 0.978857
vt 0.796432 0.978857
vt 0.551100 0.639638
vt 0.551049 0.636793
vt 0.538911 0.636912
vt 0.539120 0.639687
vt 0.551027 0.648152
vt 0.551085 0.645325
vt 0.539127 0.645237
vt 0.538922 0.648026
vt 0.551115 0.642482
vt 0.539204 0.642460
vt 0.533243 0.642466
vt 0.533029 0.640291
vt 0.530538 0.641096
vt 0.530828 0.642467
vt 0.533031 0.644642
vt 0.532320 0.638035
vt 0.532321 0.646902
vt 0.530539 0.643838
vt 0.529773 0.644970
vt 0.529514 0.641718
vt 0.529166 0.641527
vt 0.529166 0.643407
vt 0.529514 0.643216
vt 0.529734 0.642467
vt 0.529773 0.639965
s 1
usemtl Sheet1
f 175/204/145 177/205/145 154/206/145 176/207/145 153/208/145
f 175/209/146 153/210/147 156/211/148 155/212/149
f 176/213/150 154/214/151 158/215/152 159/216/153
f 177/217/154 175/209/146 155/212/149 157/218/155
f 162/219/156 160/220/157 166/221/158 170/222/159
f 154/214/151 177/217/154 157/218/155 158/215/152
f 158/215/152 157/218/155 162/219/156 163/223/160
f 155/212/149 156/211/148 161/224/161 160/220/157
f 159/216/153 158/215/152 163/223/160 164/225/162
f 157/218/155 155/212/149 160/220/157 162/219/156
f 163/223/160 162/219/156 170/222/159 172/226/163
f 164/225/162 163/223/160 172/226/163 174/227/164
f 165/228/165 168/229/166 173/230/167 171/231/168 169/232/169
f 166/221/158 167/233/170 168/229/166 165/228/165
f 170/222/159 166/221/158 165/228/165 169/232/169
f 172/226/163 170/222/159 169/232/169 171/231/168
f 174/227/164 172/226/163 171/231/168 173/230/167
f 160/220/157 161/224/161 167/233/170 166/221/158
