# Blender 4.1.1
# www.blender.org
mtllib Shroud1.mtl
o panel_shroud_s2.002
v -0.406252 9.700000 0.703647
v -0.210293 9.700000 0.784816
v 0.703644 9.700000 0.406251
v 0.784813 9.700000 0.210291
v 0.812498 9.700000 0.000001
v -0.000002 9.700000 0.812501
v 0.210288 9.700000 0.784816
v 0.406248 9.700000 0.703647
v 0.574522 9.700000 0.574525
v -0.210293 10.975000 0.784816
v -0.406252 10.975000 0.703647
v 0.784813 10.975000 0.210291
v 0.812498 10.975000 0.000001
v 0.703644 10.975000 0.406251
v 0.574522 10.975000 0.574525
v 0.210288 10.975000 0.784816
v 0.406248 10.975000 0.703647
v -0.000002 10.975000 0.812501
v -0.376132 9.699999 0.651477
v -0.194701 9.699999 0.726628
v 0.651474 9.699999 0.376130
v 0.726625 9.699999 0.194700
v 0.752257 9.699999 0.000001
v -0.000002 9.699999 0.752260
v 0.194697 9.699999 0.726628
v 0.376128 9.699999 0.651477
v 0.531926 9.699999 0.531929
v -0.376132 9.750793 0.651477
v -0.194701 9.750793 0.726628
v 0.651474 9.750793 0.376130
v 0.726625 9.750793 0.194700
v 0.752257 9.750793 0.000001
v -0.000002 9.750793 0.752260
v 0.194697 9.750793 0.726628
v 0.376128 9.750793 0.651477
v 0.531926 9.750793 0.531929
v -0.391177 9.750793 0.677536
v -0.202489 9.750793 0.755693
v 0.677532 9.750793 0.391176
v 0.755689 9.750793 0.202488
v 0.782347 9.750793 0.000001
v -0.000002 9.750793 0.782351
v 0.202485 9.750793 0.755693
v 0.391173 9.750793 0.677536
v 0.553203 9.750793 0.553205
v -0.391177 10.958804 0.677536
v -0.202489 10.958804 0.755693
v 0.677532 10.958804 0.391176
v 0.755689 10.958804 0.202488
v 0.782347 10.958804 0.000001
v -0.000002 10.958804 0.782351
v 0.202485 10.958804 0.755693
v 0.391173 10.958804 0.677536
v 0.553203 10.958804 0.553205
vn -0.3827 -0.0000 0.9239
vn -0.2588 -0.0000 0.9659
vn 0.9659 -0.0000 0.2588
vn 0.9914 -0.0000 0.1305
vn 0.8660 -0.0000 0.5000
vn 0.7071 -0.0000 0.7071
vn 0.2588 -0.0000 0.9659
vn 0.5000 -0.0000 0.8660
vn -0.0000 -0.0000 1.0000
vn -0.0000 -1.0000 -0.0000
vn -0.5847 -0.7377 -0.3376
vn -0.6521 -0.7377 -0.1747
vn -0.1747 -0.7377 -0.6521
vn -0.3376 -0.7377 -0.5847
vn 0.1747 -0.7377 -0.6521
vn -0.0000 -0.7377 -0.6751
vn -0.6725 -0.7348 -0.0885
vn -0.4774 -0.7377 -0.4774
vn 0.2596 -0.7348 -0.6266
vn 0.3827 -0.0000 -0.9239
vn 0.2588 -0.0000 -0.9659
vn -0.0000 -0.0000 -1.0000
vn -0.5000 -0.0000 -0.8660
vn -0.7071 -0.0000 -0.7071
vn -0.2588 -0.0000 -0.9659
vn -0.8660 -0.0000 -0.5000
vn -0.9659 -0.0000 -0.2588
vn -0.9914 -0.0000 -0.1305
vn -0.0000 1.0000 -0.0000
vn -0.4723 0.8792 -0.0622
vn -0.4571 0.8809 -0.1225
vn -0.4098 0.8809 -0.2366
vn -0.3346 0.8809 -0.3346
vn -0.2366 0.8809 -0.4098
vn -0.1225 0.8809 -0.4571
vn -0.0000 0.8809 -0.4732
vn 0.1225 0.8809 -0.4571
vn 0.1823 0.8792 -0.4401
vt 0.614122 0.629639
vt 0.614122 0.505127
vt 0.593408 0.505127
vt 0.593408 0.629639
vt 0.593408 0.629639
vt 0.593408 0.505127
vt 0.614121 0.505127
vt 0.614121 0.629639
vt 0.572695 0.629639
vt 0.572695 0.505127
vt 0.551981 0.629639
vt 0.551981 0.505127
vt 0.551981 0.629639
vt 0.551981 0.505127
vt 0.531076 0.505127
vt 0.531076 0.629639
vt 0.531076 0.629639
vt 0.531076 0.505127
vt 0.572695 0.629639
vt 0.572695 0.505127
vt 0.786110 0.978571
vt 0.785342 0.984404
vt 0.766164 0.984404
vt 0.765396 0.978571
vt 0.765396 0.978571
vt 0.786110 0.978571
vt 0.779427 0.792889
vt 0.798605 0.792889
vt 0.798605 0.787928
vt 0.779427 0.787928
vt 0.798605 0.792889
vt 0.779427 0.792889
vt 0.779427 0.787928
vt 0.798605 0.787928
vt 0.779427 0.787928
vt 0.798605 0.792889
vt 0.798605 0.787928
vt 0.822485 0.791969
vt 0.803308 0.791969
vt 0.802924 0.789056
vt 0.822869 0.789056
vt 0.803308 0.791969
vt 0.822485 0.791969
vt 0.803308 0.791969
vt 0.802924 0.789056
vt 0.822869 0.789056
vt 0.649046 0.871884
vt 0.629101 0.871884
vt 0.629101 0.989854
vt 0.649046 0.989854
vt 0.609157 0.871884
vt 0.609157 0.989854
vt 0.822869 0.792172
vt 0.802924 0.792172
vt 0.802540 0.788852
vt 0.823253 0.788852
vt 0.802540 0.788852
vt 0.822869 0.792172
vt 0.823253 0.788852
vt 0.802540 0.788852
vt 0.823253 0.788852
vt 0.707040 0.781913
vt 0.708621 0.784857
vt 0.826591 0.784857
vt 0.826591 0.787796
vt 0.831551 0.787796
vt 0.831551 0.781913
vt 0.831551 0.781913
vt 0.831551 0.787796
vt 0.826591 0.787796
vt 0.826591 0.784857
vt 0.708621 0.784857
vt 0.707039 0.781913
s 1
usemtl Sheet1
f 11/1/1 1/2/1 2/3/2 10/4/2
f 12/5/3 4/6/3 5/7/4 13/8/4
f 14/9/5 3/10/5 4/6/3 12/5/3
f 14/9/5 15/11/6 9/12/6 3/10/5
f 16/13/7 7/14/7 8/15/8 17/16/8
f 17/17/8 8/18/8 9/12/6 15/11/6
f 18/19/9 6/20/9 7/14/7 16/13/7
f 10/4/2 2/3/2 6/20/9 18/19/9
f 3/21/10 21/22/11 22/23/12 4/24/10
f 7/24/10 25/23/13 26/22/14 8/21/10
f 2/24/10 20/23/15 24/22/16 6/21/10
f 4/24/10 22/23/12 23/22/17 5/21/10
f 8/21/10 26/22/14 27/23/18 9/24/10
f 1/21/10 19/22/19 20/23/15 2/25/10
f 9/24/10 27/23/18 21/22/11 3/26/10
f 6/21/10 24/22/16 25/23/13 7/24/10
f 20/27/15 19/28/19 28/29/20 29/30/21
f 24/31/16 20/32/15 29/33/21 33/34/22
f 27/32/18 26/31/14 35/34/23 36/33/24
f 25/32/13 24/31/16 33/34/22 34/35/25
f 22/27/12 21/36/11 30/34/26 31/30/27
f 21/31/11 27/32/18 36/33/24 30/37/26
f 26/31/14 25/32/13 34/35/25 35/34/23
f 23/31/17 22/27/12 31/33/27 32/34/28
f 36/38/29 35/39/29 44/40/29 45/41/29
f 34/42/29 33/43/29 42/41/29 43/40/29
f 31/38/29 30/39/29 39/40/29 40/41/29
f 30/39/29 36/38/29 45/41/29 39/40/29
f 35/39/29 34/38/29 43/41/29 44/40/29
f 32/44/29 31/38/29 40/41/29 41/45/29
f 29/43/29 28/44/29 37/40/29 38/46/29
f 33/43/29 29/42/29 38/40/29 42/41/29
f 39/47/26 45/48/24 54/49/24 48/50/26
f 44/51/23 43/48/25 52/49/25 53/52/23
f 41/51/28 40/48/27 49/49/27 50/52/28
f 38/48/21 37/51/20 46/52/20 47/49/21
f 42/47/22 38/48/21 47/49/21 51/50/22
f 45/48/24 44/51/23 53/52/23 54/49/24
f 43/48/25 42/47/22 51/50/22 52/49/25
f 40/48/27 39/47/26 48/50/26 49/49/27
f 50/53/30 49/54/31 12/55/31 13/56/30
f 49/54/31 48/53/32 14/56/32 12/55/31
f 48/54/32 54/53/33 15/56/33 14/57/32
f 54/53/33 53/54/34 17/55/34 15/56/33
f 53/58/34 52/54/35 16/57/35 17/56/34
f 52/58/35 51/54/36 18/55/36 16/59/35
f 51/58/36 47/54/37 10/60/37 18/59/36
f 47/58/37 46/54/38 11/60/38 10/61/37
f 11/62/26 46/63/26 37/64/26 28/65/26 19/66/26 1/67/26
f 5/68/22 23/69/22 32/70/22 41/71/22 50/72/22 13/73/22
o shroud_connector_shroud
v -0.037054 10.975002 0.804824
v 0.026201 10.975002 0.831025
v -0.026201 10.855334 0.831025
v -0.037054 10.855334 0.804824
v 0.000000 10.855334 0.841878
v 0.026201 10.855334 0.831025
v 0.037054 10.855334 0.804824
v -0.022866 10.789069 0.827690
v -0.032338 10.789070 0.805597
v -0.000000 10.789068 0.837161
v 0.022866 10.789069 0.827690
v 0.032338 10.789070 0.805597
v -0.007674 10.754663 0.812498
v -0.014383 10.762752 0.819206
v -0.020343 10.762758 0.807570
v -0.008753 10.754663 0.809201
v -0.000000 10.754663 0.815676
v -0.000000 10.762750 0.825163
v 0.007673 10.754663 0.812498
v 0.014382 10.762752 0.819206
v 0.008753 10.754663 0.809201
v 0.020343 10.762758 0.807570
v -0.026201 10.975002 0.831025
v 0.037054 10.975002 0.804824
v 0.000000 10.975002 0.841878
vn -0.0000 1.0000 -0.0000
vn -0.7071 -0.0000 0.7071
vn -0.9239 -0.0000 0.3827
vn -0.9224 -0.0313 0.3851
vn -0.7057 -0.0346 0.7077
vn 0.9239 -0.0000 0.3827
vn 0.7071 -0.0000 0.7071
vn 0.7057 -0.0346 0.7077
vn 0.9224 -0.0313 0.3851
vn -0.0000 -0.0000 1.0000
vn -0.0000 -0.0352 0.9994
vn -0.0000 -0.2371 0.9715
vn -0.6815 -0.2324 0.6939
vn -0.5636 -0.5804 0.5879
vn -0.0000 -0.5779 0.8161
vn 0.6815 -0.2324 0.6939
vn -0.8964 -0.2081 0.3914
vn 0.8964 -0.2081 0.3914
vn 0.5635 -0.5804 0.5879
vn 0.7695 -0.5309 0.3550
vn -0.2885 -0.9082 0.3033
vn -0.3824 -0.9063 0.1800
vn 0.3824 -0.9063 0.1800
vn 0.2885 -0.9082 0.3033
vn -0.0000 -0.9090 0.4168
vn -0.7695 -0.5309 0.3550
vt 0.795069 0.982148
vt 0.791777 0.983512
vt 0.788486 0.982148
vt 0.787122 0.978857
vt 0.796432 0.978857
vt 0.551100 0.639638
vt 0.551049 0.636793
vt 0.538911 0.636912
vt 0.539120 0.639687
vt 0.551027 0.648152
vt 0.551085 0.645325
vt 0.539127 0.645237
vt 0.538922 0.648026
vt 0.551115 0.642482
vt 0.539204 0.642460
vt 0.533243 0.642466
vt 0.533029 0.640291
vt 0.530538 0.641096
vt 0.530828 0.642467
vt 0.533031 0.644642
vt 0.532320 0.638035
vt 0.532321 0.646902
vt 0.530539 0.643838
vt 0.529773 0.644970
vt 0.529514 0.641718
vt 0.529166 0.641527
vt 0.529166 0.643407
vt 0.529514 0.643216
vt 0.529734 0.642467
vt 0.529773 0.639965
s 1
usemtl Sheet1
f 77/74/39 79/75/39 56/76/39 78/77/39 55/78/39
f 77/79/40 55/80/41 58/81/42 57/82/43
f 78/83/44 56/84/45 60/85/46 61/86/47
f 79/87/48 77/79/40 57/82/43 59/88/49
f 64/89/50 62/90/51 68/91/52 72/92/53
f 56/84/45 79/87/48 59/88/49 60/85/46
f 60/85/46 59/88/49 64/89/50 65/93/54
f 57/82/43 58/81/42 63/94/55 62/90/51
f 61/86/47 60/85/46 65/93/54 66/95/56
f 59/88/49 57/82/43 62/90/51 64/89/50
f 65/93/54 64/89/50 72/92/53 74/96/57
f 66/95/56 65/93/54 74/96/57 76/97/58
f 67/98/59 70/99/60 75/100/61 73/101/62 71/102/63
f 68/91/52 69/103/64 70/99/60 67/98/59
f 72/92/53 68/91/52 67/98/59 71/102/63
f 74/96/57 72/92/53 71/102/63 73/101/62
f 76/97/58 74/96/57 73/101/62 75/100/61
f 62/90/51 63/94/55 69/103/64 68/91/52
o small_conduit_cap
v 0.371173 10.975002 0.717400
v 0.396997 10.975002 0.752006
v 0.390283 10.975002 0.749846
v 0.424877 10.975002 0.735909
v 0.435701 10.975002 0.680145
v 0.452758 10.975002 0.719812
v 0.454245 10.975002 0.712918
v 0.371173 10.928485 0.717400
v 0.396997 10.928485 0.752006
v 0.390283 10.928485 0.749846
v 0.424877 10.928485 0.735909
v 0.435701 10.928485 0.680145
v 0.452758 10.928485 0.719812
v 0.454245 10.928485 0.712918
v 0.376240 10.837216 0.714617
v 0.387979 10.837216 0.726401
v 0.383536 10.837216 0.726703
v 0.411525 10.837216 0.712806
v 0.430735 10.837216 0.683154
v 0.435070 10.837216 0.699212
v 0.437554 10.837216 0.695516
v 0.389685 10.808141 0.710456
v 0.386957 10.808141 0.710943
v 0.406250 10.806354 0.703646
v 0.420368 10.808141 0.692742
v 0.422153 10.808141 0.690623
v 0.452758 10.975002 0.719812
v 0.424877 10.975002 0.735909
v 0.454245 10.975002 0.712918
v 0.390283 10.975002 0.749846
v 0.371173 10.975002 0.717400
v 0.435701 10.975002 0.680145
v 0.396997 10.975002 0.752006
vn -0.0000 1.0000 -0.0000
vn 0.6165 -0.0000 0.7874
vn 0.5000 -0.0000 0.8660
vn 0.4914 -0.1850 0.8511
vn 0.5879 -0.1862 0.7872
vn 0.9187 -0.0000 -0.3950
vn 0.9258 -0.0595 -0.3733
vn -0.8014 -0.0000 0.5981
vn -0.8617 -0.0000 0.5075
vn -0.8602 -0.0370 0.5086
vn -0.7862 -0.0593 0.6151
vn 0.8703 -0.0000 -0.4925
vn 0.8706 -0.0372 -0.4906
vn 0.3737 -0.0000 0.9276
vn 0.3878 -0.1862 0.9027
vn 0.9316 -0.1382 -0.3362
vn 0.8686 -0.0898 -0.4874
vn 0.3895 -0.3036 0.8696
vn 0.4770 -0.2999 0.8262
vn -0.7570 -0.1378 0.6387
vn 0.5583 -0.3036 0.7721
vn -0.8564 -0.0895 0.5085
vn -0.5500 -0.4487 0.7044
vn 0.5492 -0.3897 0.7393
vn 0.3659 -0.3895 0.8452
vn 0.8845 -0.4498 -0.1241
vn 0.4733 -0.3240 0.8191
vt 0.803547 0.982896
vt 0.803085 0.983407
vt 0.799941 0.983407
vt 0.796797 0.983407
vt 0.796335 0.982896
vt 0.796303 0.979219
vt 0.803579 0.979219
vt 0.518704 0.638948
vt 0.518704 0.642061
vt 0.515159 0.642048
vt 0.515159 0.639084
vt 0.518704 0.638258
vt 0.515159 0.638546
vt 0.518704 0.645889
vt 0.518704 0.649594
vt 0.515159 0.649138
vt 0.515159 0.645566
vt 0.518704 0.634613
vt 0.515159 0.635010
vt 0.518704 0.645190
vt 0.515159 0.645024
vt 0.506185 0.638796
vt 0.506185 0.637532
vt 0.506185 0.644629
vt 0.506185 0.641921
vt 0.506185 0.645068
vt 0.506185 0.639230
vt 0.506185 0.646323
vt 0.503153 0.644164
vt 0.503280 0.639932
vt 0.503188 0.643781
vt 0.503263 0.639556
vt 0.503073 0.641837
s 1
usemtl Sheet1
f 82/104/65 81/105/65 83/106/65 85/107/65 86/108/65 84/109/65 80/110/65
f 106/111/66 107/112/67 90/113/68 92/114/69
f 108/115/70 106/111/66 92/114/69 93/116/71
f 109/117/72 110/118/73 87/119/74 89/120/75
f 111/121/76 108/115/70 93/116/71 91/122/77
f 107/112/67 112/123/78 88/124/79 90/113/68
f 112/123/78 109/117/72 89/120/75 88/124/79
f 91/122/77 93/116/71 100/125/80 98/126/81
f 90/113/68 88/124/79 95/127/82 97/128/83
f 88/124/79 89/120/75 96/129/84 95/127/82
f 92/114/69 90/113/68 97/128/83 99/130/85
f 93/116/71 92/114/69 99/130/85 100/125/80
f 89/120/75 87/119/74 94/131/86 96/129/84
f 94/131/86 102/132/87 96/129/84
f 99/130/85 97/128/83 104/133/88
f 95/127/82 96/129/84 102/132/87 101/134/89
f 97/128/83 95/127/82 101/134/89
f 100/125/80 99/130/85 104/133/88 105/135/90
f 98/126/81 100/125/80 105/135/90
f 104/133/88 97/128/83 103/136/91
f 101/134/89 103/136/91 97/128/83
o shroud_connector_shroud.001
v 0.678467 10.975002 0.434505
v 0.732786 10.975002 0.392825
v 0.706585 10.855334 0.438207
v 0.678467 10.855334 0.434505
v 0.729084 10.855334 0.420942
v 0.732786 10.855334 0.392825
v 0.715521 10.855334 0.370325
v 0.705364 10.789069 0.433650
v 0.681495 10.789070 0.430807
v 0.724999 10.789068 0.418584
v 0.728230 10.789069 0.394046
v 0.713833 10.789070 0.374796
v 0.699803 10.754663 0.412898
v 0.702259 10.762752 0.422062
v 0.689200 10.762758 0.421405
v 0.696408 10.754663 0.412184
v 0.706392 10.754663 0.407841
v 0.714608 10.762750 0.412585
v 0.707477 10.754663 0.399607
v 0.716641 10.762752 0.397151
v 0.705161 10.754663 0.397023
v 0.709543 10.762758 0.386171
v 0.706585 10.975002 0.438207
v 0.715521 10.975002 0.370325
v 0.729084 10.975002 0.420942
vn -0.0000 1.0000 -0.0000
vn 0.2588 -0.0000 0.9659
vn -0.1305 -0.0000 0.9914
vn -0.1277 -0.0313 0.9913
vn 0.2600 -0.0346 0.9650
vn 0.7934 -0.0000 -0.6088
vn 0.9659 -0.0000 -0.2588
vn 0.9657 -0.0346 -0.2573
vn 0.7947 -0.0313 -0.6062
vn 0.8660 -0.0000 0.5000
vn 0.8655 -0.0352 0.4997
vn 0.8413 -0.2371 0.4857
vn 0.2602 -0.2324 0.9372
vn 0.2273 -0.5804 0.7820
vn 0.7068 -0.5779 0.4081
vn 0.9417 -0.2324 -0.2433
vn -0.1092 -0.2081 0.9720
vn 0.7872 -0.2081 -0.5805
vn 0.7909 -0.5804 -0.1941
vn 0.6922 -0.5309 -0.4889
vn 0.1184 -0.9082 0.4014
vn -0.0353 -0.9063 0.4212
vn 0.3471 -0.9063 -0.2411
vn 0.4069 -0.9082 -0.0982
vn 0.3610 -0.9090 0.2084
vn -0.0773 -0.5309 0.8439
vt 0.795069 0.982148
vt 0.791777 0.983512
vt 0.788486 0.982148
vt 0.787122 0.978857
vt 0.796432 0.978857
vt 0.551100 0.639638
vt 0.551049 0.636793
vt 0.538911 0.636912
vt 0.539120 0.639687
vt 0.551027 0.648152
vt 0.551085 0.645325
vt 0.539127 0.645237
vt 0.538922 0.648026
vt 0.551115 0.642482
vt 0.539204 0.642460
vt 0.533243 0.642466
vt 0.533029 0.640291
vt 0.530538 0.641096
vt 0.530828 0.642467
vt 0.533031 0.644642
vt 0.532320 0.638035
vt 0.532321 0.646902
vt 0.530539 0.643838
vt 0.529773 0.644970
vt 0.529514 0.641718
vt 0.529166 0.641527
vt 0.529166 0.643407
vt 0.529514 0.643216
vt 0.529734 0.642467
vt 0.529773 0.639965
s 1
usemtl Sheet1
f 135/137/92 137/138/92 114/139/92 136/140/92 113/141/92
f 135/142/93 113/143/94 116/144/95 115/145/96
f 136/146/97 114/147/98 118/148/99 119/149/100
f 137/150/101 135/142/93 115/145/96 117/151/102
f 122/152/103 120/153/104 126/154/105 130/155/106
f 114/147/98 137/150/101 117/151/102 118/148/99
f 118/148/99 117/151/102 122/152/103 123/156/107
f 115/145/96 116/144/95 121/157/108 120/153/104
f 119/149/100 118/148/99 123/156/107 124/158/109
f 117/151/102 115/145/96 120/153/104 122/152/103
f 123/156/107 122/152/103 130/155/106 132/159/110
f 124/158/109 123/156/107 132/159/110 134/160/111
f 125/161/112 128/162/113 133/163/114 131/164/115 129/165/116
f 126/154/105 127/166/117 128/162/113 125/161/112
f 130/155/106 126/154/105 125/161/112 129/165/116
f 132/159/110 130/155/106 129/165/116 131/164/115
f 134/160/111 132/159/110 131/164/115 133/163/114
f 120/153/104 121/157/108 127/166/117 126/154/105
