# Blender 4.1.1
# www.blender.org
mtllib Stage2StraightTank.mtl
o Circle.059
v -2.999999 5.250004 -0.937495
v -3.242642 5.250004 -0.905551
v -3.468749 5.250004 -0.811894
v -3.662912 5.250004 -0.662908
v -3.811898 5.250004 -0.468745
v -3.905555 5.250004 -0.242638
v -3.937499 5.250004 0.000005
v -3.905555 5.250004 0.242648
v -3.811898 5.250004 0.468755
v -3.662912 5.250004 0.662917
v -3.468749 5.250004 0.811904
v -3.242642 5.250004 0.905560
v -2.999999 5.250004 0.937505
v -2.757356 5.250004 0.905560
v -2.531249 5.250004 0.811904
v -2.337087 5.250004 0.662917
v -2.188100 5.250004 0.468755
v -2.094444 5.250004 0.242648
v -2.062499 5.250004 0.000005
v -2.094444 5.250004 -0.242638
v -2.188100 5.250004 -0.468745
v -2.337087 5.250004 -0.662908
v -2.531249 5.250004 -0.811894
v -2.757356 5.250004 -0.905551
v -2.999999 5.200004 -0.937495
v -3.242642 5.200004 -0.905551
v -3.468749 5.200004 -0.811894
v -3.662912 5.200004 -0.662908
v -3.811898 5.200004 -0.468745
v -3.905555 5.200004 -0.242638
v -3.937499 5.200004 0.000005
v -3.905555 5.200004 0.242648
v -3.811898 5.200004 0.468755
v -3.662912 5.200004 0.662917
v -3.468749 5.200004 0.811904
v -3.242642 5.200004 0.905560
v -2.999999 5.200004 0.937505
v -2.757356 5.200004 0.905560
v -2.531249 5.200004 0.811904
v -2.337087 5.200004 0.662917
v -2.188100 5.200004 0.468755
v -2.094444 5.200004 0.242648
v -2.062499 5.200004 0.000005
v -2.094444 5.200004 -0.242638
v -2.188100 5.200004 -0.468745
v -2.337087 5.200004 -0.662908
v -2.531249 5.200004 -0.811894
v -2.757356 5.200004 -0.905551
v -2.757356 8.800004 -0.905551
v -2.531249 8.800004 -0.811894
v -2.337087 8.800004 -0.662908
v -2.188100 8.800004 -0.468745
v -2.094444 8.800004 -0.242638
v -2.062499 8.800004 0.000005
v -2.094444 8.800004 0.242648
v -2.188100 8.800004 0.468755
v -2.337087 8.800004 0.662917
v -2.531249 8.800004 0.811904
v -2.757356 8.800004 0.905560
v -2.999999 8.800004 0.937505
v -3.242642 8.800004 0.905560
v -3.468749 8.800004 0.811904
v -3.662912 8.800004 0.662917
v -3.811898 8.800004 0.468755
v -3.905555 8.800004 0.242648
v -3.937499 8.800004 0.000005
v -3.905555 8.800004 -0.242638
v -3.811898 8.800004 -0.468745
v -3.662912 8.800004 -0.662908
v -3.468749 8.800004 -0.811894
v -3.242642 8.800004 -0.905551
v -2.999999 8.800004 -0.937495
vn -0.0000 -0.0000 -1.0000
vn -0.2588 -0.0000 -0.9659
vn -0.5000 -0.0000 -0.8660
vn -0.7071 -0.0000 -0.7071
vn -0.8660 -0.0000 -0.5000
vn -0.9659 -0.0000 -0.2588
vn -1.0000 -0.0000 -0.0000
vn -0.9659 -0.0000 0.2588
vn -0.8660 -0.0000 0.5000
vn -0.7071 -0.0000 0.7071
vn -0.5000 -0.0000 0.8660
vn -0.2588 -0.0000 0.9659
vn -0.0000 -0.0000 1.0000
vn 0.2588 -0.0000 0.9659
vn 0.5000 -0.0000 0.8660
vn 0.7071 -0.0000 0.7071
vn 0.8660 -0.0000 0.5000
vn 0.9659 -0.0000 0.2588
vn 1.0000 -0.0000 -0.0000
vn 0.9659 -0.0000 -0.2588
vn 0.8660 -0.0000 -0.5000
vn 0.7071 -0.0000 -0.7071
vn 0.5000 -0.0000 -0.8660
vn 0.2588 -0.0000 -0.9659
vt 0.147911 0.380770
vt 0.125589 0.380770
vt 0.125589 0.375887
vt 0.147911 0.375887
vt 0.080944 0.380770
vt 0.058622 0.380770
vt 0.058622 0.375888
vt 0.080944 0.375888
vt 0.058622 0.380770
vt 0.036299 0.380770
vt 0.036299 0.375888
vt 0.058622 0.375887
vt 0.173405 0.380770
vt 0.151098 0.380770
vt 0.151098 0.375887
vt 0.173405 0.375887
vt 0.103267 0.380770
vt 0.103267 0.375888
vt 0.080944 0.380770
vt 0.080944 0.375887
vt 0.195713 0.380770
vt 0.195713 0.375887
vt 0.125589 0.380770
vt 0.125589 0.375888
vt 0.036299 0.380770
vt 0.013977 0.380770
vt 0.013977 0.375887
vt 0.036299 0.375887
vt 0.103267 0.380770
vt 0.103267 0.375887
vt 0.218020 0.380770
vt 0.218020 0.375887
vt 0.147911 0.380770
vt 0.147911 0.375888
vt 0.125589 0.380770
vt 0.125589 0.375887
vt 0.240328 0.380770
vt 0.240328 0.375887
vt 0.080944 0.380770
vt 0.080944 0.375887
vt 0.147911 0.380770
vt 0.147911 0.375887
vt 0.262636 0.380770
vt 0.262636 0.375887
vt 0.103267 0.380770
vt 0.036299 0.380770
vt 0.013977 0.380770
vt 0.013977 0.375888
vt 0.284943 0.380770
vt 0.284943 0.375887
vt 0.013977 0.380770
vt 0.036299 0.727450
vt 0.013977 0.727450
vt 0.103267 0.727450
vt 0.080944 0.727450
vt 0.125589 0.727450
vt 0.103267 0.727450
vt 0.191561 0.727608
vt 0.173405 0.727608
vt 0.058622 0.727450
vt 0.151098 0.727608
vt 0.036299 0.727450
vt 0.147911 0.727439
vt 0.125589 0.727450
vt 0.013977 0.727450
vt 0.036299 0.727450
vt 0.284943 0.727608
vt 0.262636 0.727608
vt 0.103267 0.727450
vt 0.013977 0.727450
vt 0.080944 0.727450
vt 0.147911 0.727438
vt 0.125589 0.727450
vt 0.244479 0.727608
vt 0.058622 0.727450
vt 0.218020 0.727608
s 1
usemtl Sheet1
f 7/1/7 6/2/6 30/3/6 31/4/7
f 22/5/22 21/6/21 45/7/21 46/8/22
f 15/9/15 14/10/14 38/11/14 39/12/15
f 8/13/8 7/14/7 31/15/7 32/16/8
f 23/17/23 22/5/22 46/8/22 47/18/23
f 16/19/16 15/9/15 39/12/15 40/20/16
f 9/21/9 8/13/8 32/16/8 33/22/9
f 24/23/24 23/17/23 47/18/23 48/24/24
f 2/25/2 1/26/1 25/27/1 26/28/2
f 17/29/17 16/19/16 40/20/16 41/30/17
f 10/31/10 9/21/9 33/22/9 34/32/10
f 1/33/1 24/23/24 48/24/24 25/34/1
f 3/9/3 2/25/2 26/28/2 27/12/3
f 18/35/18 17/29/17 41/30/17 42/36/18
f 11/37/11 10/31/10 34/32/10 35/38/11
f 4/39/4 3/9/3 27/12/3 28/40/4
f 19/41/19 18/35/18 42/36/18 43/42/19
f 12/43/12 11/37/11 35/38/11 36/44/12
f 5/45/5 4/39/4 28/40/4 29/30/5
f 20/46/20 19/47/19 43/48/19 44/11/20
f 13/49/13 12/43/12 36/44/12 37/50/13
f 6/2/6 5/45/5 29/30/5 30/3/6
f 21/6/21 20/46/20 44/11/20 45/7/21
f 14/10/14 13/51/13 37/48/13 38/11/14
f 1/26/1 2/25/2 71/52/2 72/53/1
f 16/19/16 17/29/17 56/54/17 57/55/16
f 23/17/23 24/23/24 49/56/24 50/57/23
f 8/13/8 9/21/9 64/58/9 65/59/8
f 22/5/22 23/17/23 50/57/23 51/55/22
f 15/9/15 16/19/16 57/55/16 58/60/15
f 7/14/7 8/13/8 65/59/8 66/61/7
f 14/10/14 15/9/15 58/60/15 59/62/14
f 6/2/6 7/1/7 66/63/7 67/64/6
f 21/6/21 22/5/22 51/55/22 52/60/21
f 13/51/13 14/10/14 59/62/14 60/65/13
f 20/46/20 21/6/21 52/60/21 53/66/20
f 12/43/12 13/49/13 60/67/13 61/68/12
f 5/45/5 6/2/6 67/64/6 68/69/5
f 19/47/19 20/46/20 53/66/20 54/70/19
f 4/39/4 5/45/5 68/69/5 69/71/4
f 18/35/18 19/41/19 54/72/19 55/73/18
f 11/37/11 12/43/12 61/68/12 62/74/11
f 3/9/3 4/39/4 69/71/4 70/75/3
f 10/31/10 11/37/11 62/74/11 63/76/10
f 2/25/2 3/9/3 70/75/3 71/52/2
f 17/29/17 18/35/18 55/73/18 56/54/17
f 24/23/24 1/33/1 72/72/1 49/56/24
f 9/21/9 10/31/10 63/76/10 64/58/9
o Circle.060
v -3.017499 5.200292 0.957821
v -3.017499 5.250292 0.957821
v -3.024999 5.200292 0.933750
v -3.024999 5.250292 0.933750
v -2.982499 5.200292 0.957821
v -2.982499 5.250292 0.957821
v -2.974999 5.200292 0.933750
v -2.974999 5.250292 0.933750
v -3.017499 8.777585 0.958309
v -3.024999 8.800004 0.934045
v -2.974999 8.800004 0.934045
v -2.982499 8.777585 0.958309
v -2.999999 8.800004 0.937426
vn -0.9547 -0.0000 0.2975
vn -0.9549 -0.0000 0.2969
vn 0.9547 -0.0000 0.2975
vn 0.9549 -0.0000 0.2969
vn -0.0000 -0.0000 1.0000
vn -0.0000 -0.0001 1.0000
vn -0.0000 -1.0000 -0.0000
vn -0.9551 -0.0000 0.2964
vn 0.9551 -0.0000 0.2964
vn -0.0935 0.7167 0.6911
vn -0.0388 0.6971 0.7159
vn -0.0000 0.7081 0.7061
vn 0.0935 0.7167 0.6911
vn 0.0388 0.6971 0.7159
vt 0.336539 0.378182
vt 0.336549 0.383077
vt 0.334086 0.383122
vt 0.334049 0.378195
vt 0.342465 0.378217
vt 0.342418 0.383122
vt 0.339956 0.383076
vt 0.339992 0.378194
vt 0.335808 0.375805
vt 0.340740 0.375822
vt 0.336536 0.727535
vt 0.334132 0.729805
vt 0.339970 0.727535
vt 0.342374 0.729805
vt 0.335788 0.730774
vt 0.338253 0.730541
vt 0.340718 0.730774
s 1
usemtl Sheet1
f 73/77/25 74/78/26 76/79/26 75/80/25
f 79/81/27 80/82/28 78/83/28 77/84/27
f 77/84/29 78/83/30 74/78/30 73/77/29
f 75/85/31 79/86/31 77/84/31 73/77/31
f 76/79/26 74/78/26 81/87/32 82/88/32
f 74/78/30 78/83/30 84/89/30 81/87/30
f 78/83/28 80/82/28 83/90/33 84/89/33
f 82/91/34 81/87/35 85/92/36
f 83/93/37 85/92/36 84/89/38
f 81/87/35 84/89/38 85/92/36
o Circle.061
v -2.982499 5.200292 -0.957812
v -2.982499 5.250292 -0.957812
v -2.974999 5.200292 -0.933740
v -2.974999 5.250292 -0.933740
v -3.017499 5.200292 -0.957812
v -3.017499 5.250292 -0.957812
v -3.024999 5.200292 -0.933740
v -3.024999 5.250292 -0.933740
v -2.982499 8.777585 -0.958299
v -2.974999 8.800004 -0.934035
v -3.024999 8.800004 -0.934035
v -3.017499 8.777585 -0.958299
v -3.000000 8.800004 -0.937416
vn 0.9547 -0.0000 -0.2975
vn 0.9549 -0.0000 -0.2969
vn -0.9547 -0.0000 -0.2975
vn -0.9549 -0.0000 -0.2969
vn -0.0000 -0.0000 -1.0000
vn -0.0000 -0.0001 -1.0000
vn -0.0000 -1.0000 -0.0000
vn 0.9551 -0.0000 -0.2964
vn -0.9551 -0.0000 -0.2964
vn 0.0935 0.7167 -0.6911
vn 0.0388 0.6971 -0.7159
vn -0.0000 0.7081 -0.7061
vn -0.0935 0.7167 -0.6911
vn -0.0388 0.6971 -0.7159
vt 0.336539 0.378182
vt 0.336549 0.383077
vt 0.334086 0.383122
vt 0.334049 0.378195
vt 0.342465 0.378217
vt 0.342418 0.383122
vt 0.339956 0.383076
vt 0.339992 0.378194
vt 0.335808 0.375805
vt 0.340740 0.375822
vt 0.336536 0.727535
vt 0.334132 0.729805
vt 0.339970 0.727535
vt 0.342374 0.729805
vt 0.335788 0.730774
vt 0.338253 0.730541
vt 0.340718 0.730774
s 1
usemtl Sheet1
f 86/94/39 87/95/40 89/96/40 88/97/39
f 92/98/41 93/99/42 91/100/42 90/101/41
f 90/101/43 91/100/44 87/95/44 86/94/43
f 88/102/45 92/103/45 90/101/45 86/94/45
f 89/96/40 87/95/40 94/104/46 95/105/46
f 87/95/44 91/100/44 97/106/44 94/104/44
f 91/100/42 93/99/42 96/107/47 97/106/47
f 95/108/48 94/104/49 98/109/50
f 96/110/51 98/109/50 97/106/52
f 94/104/49 97/106/52 98/109/50
o Circle.062
v -2.042183 5.200292 0.017505
v -2.042183 5.250292 0.017505
v -2.066254 5.200292 0.025005
v -2.066254 5.250292 0.025005
v -2.042183 5.200292 -0.017495
v -2.042183 5.250292 -0.017495
v -2.066254 5.200292 -0.024995
v -2.066254 5.250292 -0.024995
v -2.041696 8.777585 0.017505
v -2.065959 8.800004 0.025005
v -2.065959 8.800004 -0.024995
v -2.041696 8.777585 -0.017495
v -2.062578 8.800004 0.000005
vn 0.2975 -0.0000 0.9547
vn 0.2969 -0.0000 0.9549
vn 0.2975 -0.0000 -0.9547
vn 0.2969 -0.0000 -0.9549
vn 1.0000 -0.0000 -0.0000
vn 1.0000 -0.0001 -0.0000
vn -0.0000 -1.0000 -0.0000
vn 0.2964 -0.0000 0.9551
vn 0.2964 -0.0000 -0.9551
vn 0.6911 0.7167 0.0935
vn 0.7159 0.6971 0.0388
vn 0.7061 0.7081 -0.0000
vn 0.6911 0.7167 -0.0935
vn 0.7159 0.6971 -0.0388
vt 0.336539 0.378182
vt 0.336549 0.383077
vt 0.334086 0.383122
vt 0.334049 0.378195
vt 0.342465 0.378217
vt 0.342418 0.383122
vt 0.339956 0.383076
vt 0.339992 0.378194
vt 0.335808 0.375805
vt 0.340740 0.375822
vt 0.336536 0.727535
vt 0.334132 0.729805
vt 0.339970 0.727535
vt 0.342374 0.729805
vt 0.335788 0.730774
vt 0.338253 0.730541
vt 0.340718 0.730774
s 1
usemtl Sheet1
f 99/111/53 100/112/54 102/113/54 101/114/53
f 105/115/55 106/116/56 104/117/56 103/118/55
f 103/118/57 104/117/58 100/112/58 99/111/57
f 101/119/59 105/120/59 103/118/59 99/111/59
f 102/113/54 100/112/54 107/121/60 108/122/60
f 100/112/58 104/117/58 110/123/58 107/121/58
f 104/117/56 106/116/56 109/124/61 110/123/61
f 108/125/62 107/121/63 111/126/64
f 109/127/65 111/126/64 110/123/66
f 107/121/63 110/123/66 111/126/64
o Cube.036
v -3.750385 8.800004 0.647858
v -3.749059 8.800004 0.635927
v -3.711462 5.200004 0.598331
v -3.711229 5.250002 0.598097
v -3.598943 8.800004 0.712086
v -3.712080 8.800004 0.598949
v -3.598325 5.200004 0.711468
v -3.598092 5.250002 0.711235
v -3.749533 5.200004 0.647007
v -3.748208 5.200004 0.635076
v -3.748208 5.250002 0.635076
v -3.749533 5.250002 0.647007
v -3.635071 5.200004 0.748213
v -3.647001 5.200004 0.749539
v -3.647001 5.250002 0.749539
v -3.635071 5.250002 0.748213
v -3.647852 8.800004 0.750390
v -3.635922 8.800004 0.749065
vn -0.6624 -0.0000 0.7492
vn -0.6624 -0.0002 0.7492
vn -0.7492 -0.0003 0.6624
vn -0.7492 -0.0000 0.6624
vn 0.6165 -0.0000 0.7873
vn 0.6166 -0.0000 0.7873
vn -0.6624 -0.0003 0.7492
vn 0.7071 -0.0000 0.7071
vn -0.7492 -0.0002 0.6624
vn -0.7875 -0.0000 -0.6163
vn -0.7873 -0.0001 -0.6165
vn -0.7071 -0.0000 -0.7071
vn 0.6163 -0.0000 0.7875
vn -0.0000 -1.0000 -0.0000
vn -0.7873 -0.0001 -0.6166
vn -0.0000 1.0000 -0.0000
vt 0.318767 0.375805
vt 0.318767 0.380689
vt 0.304603 0.380689
vt 0.304603 0.375805
vt 0.319939 0.380689
vt 0.319939 0.727686
vt 0.318767 0.727686
vt 0.325037 0.380689
vt 0.325037 0.727686
vt 0.304603 0.727686
vt 0.303431 0.375805
vt 0.303431 0.380689
vt 0.298333 0.380689
vt 0.298333 0.375805
vt 0.325037 0.375805
vt 0.319939 0.375805
vt 0.857829 0.919717
vt 0.873433 0.919717
vt 0.873433 0.924801
vt 0.872702 0.925715
vt 0.858561 0.925715
vt 0.857829 0.924801
vt 0.303431 0.727686
vt 0.298333 0.727686
vt 0.873454 0.924807
vt 0.872721 0.925723
vt 0.858542 0.925723
vt 0.857808 0.924807
vt 0.857808 0.919709
vt 0.873454 0.919709
s 1
usemtl Sheet1
f 125/128/67 126/129/68 123/130/69 120/131/70
f 126/129/68 127/132/71 129/133/72 128/134/73
f 127/132/71 119/135/74 116/136/74 129/133/72
f 123/130/69 126/129/68 128/134/73 112/137/75
f 121/138/76 122/139/77 115/140/78 114/141/78
f 118/142/74 119/135/74 127/132/71 124/143/79
f 120/131/70 123/130/69 122/139/77 121/138/76
f 126/129/68 125/128/67 124/143/79 127/132/71
f 114/144/80 118/145/80 124/146/80 125/147/80 120/148/80 121/149/80
f 122/139/77 123/130/69 112/137/75 113/150/81
f 115/140/78 122/139/77 113/150/81 117/151/78
f 113/152/82 112/153/82 128/154/82 129/155/82 116/156/82 117/157/82
o Circle.063
v -3.957816 5.200292 -0.017495
v -3.957816 5.250292 -0.017495
v -3.933744 5.200292 -0.024995
v -3.933744 5.250292 -0.024995
v -3.957816 5.200292 0.017505
v -3.957816 5.250292 0.017505
v -3.933744 5.200292 0.025005
v -3.933744 5.250292 0.025005
v -3.958303 8.777585 -0.017495
v -3.934039 8.800004 -0.024995
v -3.934039 8.800004 0.025005
v -3.958303 8.777585 0.017505
v -3.937420 8.800004 0.000005
vn -0.2975 -0.0000 -0.9547
vn -0.2969 -0.0000 -0.9549
vn -0.2975 -0.0000 0.9547
vn -0.2969 -0.0000 0.9549
vn -1.0000 -0.0000 -0.0000
vn -1.0000 -0.0001 -0.0000
vn -0.0000 -1.0000 -0.0000
vn -0.2964 -0.0000 -0.9551
vn -0.2964 -0.0000 0.9551
vn -0.6911 0.7167 -0.0935
vn -0.7159 0.6971 -0.0388
vn -0.7061 0.7081 -0.0000
vn -0.6911 0.7167 0.0935
vn -0.7159 0.6971 0.0388
vt 0.336539 0.378182
vt 0.336549 0.383077
vt 0.334086 0.383122
vt 0.334049 0.378195
vt 0.342465 0.378217
vt 0.342418 0.383122
vt 0.339956 0.383076
vt 0.339992 0.378194
vt 0.335808 0.375805
vt 0.340740 0.375822
vt 0.336536 0.727535
vt 0.334132 0.729805
vt 0.339970 0.727535
vt 0.342374 0.729805
vt 0.335788 0.730774
vt 0.338253 0.730541
vt 0.340718 0.730774
s 1
usemtl Sheet1
f 130/158/83 131/159/84 133/160/84 132/161/83
f 136/162/85 137/163/86 135/164/86 134/165/85
f 134/165/87 135/164/88 131/159/88 130/158/87
f 132/166/89 136/167/89 134/165/89 130/158/89
f 133/160/84 131/159/84 138/168/90 139/169/90
f 131/159/88 135/164/88 141/170/88 138/168/88
f 135/164/86 137/163/86 140/171/91 141/170/91
f 139/172/92 138/168/93 142/173/94
f 140/174/95 142/173/94 141/170/96
f 138/168/93 141/170/96 142/173/94
