# Exported from Wings 3D 1.5.4
mtllib HLV_2_LFO_1.mtl
o HLV_2_LFO_1
#96 vertices, 66 faces
v 1.25000000 2.00000000 8.3844968e-18
v 1.20740728 2.00000000 0.32352381
v 1.08253175 2.00000000 0.62500000
v 0.88388348 2.00000000 0.88388348
v 0.62500000 2.00000000 1.08253175
v 0.32352381 2.00000000 1.20740728
v 1.1123489e-16 2.00000000 1.25000000
v -0.32352381 2.00000000 1.20740728
v -0.62500000 2.00000000 1.08253175
v -0.88388348 2.00000000 0.88388348
v -1.08253175 2.00000000 0.62500000
v -1.20740728 2.00000000 0.32352381
v -1.25000000 2.00000000 1.6146535e-16
v -1.20740728 2.00000000 -0.32352381
v -1.08253175 2.00000000 -0.62500000
v -0.88388348 2.00000000 -0.88388348
v -0.62500000 2.00000000 -1.08253175
v -0.32352381 2.00000000 -1.20740728
v -1.9492681e-16 2.00000000 -1.25000000
v 0.32352381 2.00000000 -1.20740728
v 0.62500000 2.00000000 -1.08253175
v 0.88388348 2.00000000 -0.88388348
v 1.08253175 2.00000000 -0.62500000
v 1.20740728 2.00000000 -0.32352381
v 1.25000000 -2.00000000 8.3844968e-18
v 1.20740728 -2.00000000 0.32352381
v 1.08253175 -2.00000000 0.62500000
v 0.88388348 -2.00000000 0.88388348
v 0.62500000 -2.00000000 1.08253175
v 0.32352381 -2.00000000 1.20740728
v 1.1123489e-16 -2.00000000 1.25000000
v -0.32352381 -2.00000000 1.20740728
v -0.62500000 -2.00000000 1.08253175
v -0.88388348 -2.00000000 0.88388348
v -1.08253175 -2.00000000 0.62500000
v -1.20740728 -2.00000000 0.32352381
v -1.25000000 -2.00000000 1.6146535e-16
v -1.20740728 -2.00000000 -0.32352381
v -1.08253175 -2.00000000 -0.62500000
v -0.88388348 -2.00000000 -0.88388348
v -0.62500000 -2.00000000 -1.08253175
v -0.32352381 -2.00000000 -1.20740728
v -1.9492681e-16 -2.00000000 -1.25000000
v 0.32352381 -2.00000000 -1.20740728
v 0.62500000 -2.00000000 -1.08253175
v 0.88388348 -2.00000000 -0.88388348
v 1.08253175 -2.00000000 -0.62500000
v 1.20740728 -2.00000000 -0.32352381
v 1.20740728 0.0000000e+0 -0.32352381
v 1.08253175 0.0000000e+0 -0.62500000
v 0.88388348 0.0000000e+0 -0.88388348
v 0.62500000 0.0000000e+0 -1.08253175
v 0.32352381 0.0000000e+0 -1.20740728
v -1.9492681e-16 0.0000000e+0 -1.25000000
v -0.32352381 0.0000000e+0 -1.20740728
v -0.62500000 0.0000000e+0 -1.08253175
v -0.88388348 0.0000000e+0 -0.88388348
v -1.08253175 0.0000000e+0 -0.62500000
v -1.20740728 0.0000000e+0 -0.32352381
v -1.25000000 0.0000000e+0 1.6146535e-16
v -1.20740728 0.0000000e+0 0.32352381
v -1.08253175 0.0000000e+0 0.62500000
v -0.88388348 0.0000000e+0 0.88388348
v -0.62500000 0.0000000e+0 1.08253175
v -0.32352381 0.0000000e+0 1.20740728
v 1.1123489e-16 0.0000000e+0 1.25000000
v 0.32352381 0.0000000e+0 1.20740728
v 0.62500000 0.0000000e+0 1.08253175
v 0.88388348 0.0000000e+0 0.88388348
v 1.08253175 0.0000000e+0 0.62500000
v 1.20740728 0.0000000e+0 0.32352381
v 1.25000000 0.0000000e+0 8.3844968e-18
v 1.17879428 -1.50000000 -0.55592209
v 1.12105180 -1.56250000 -0.53200437
v 1.17879428 1.25000000 -0.55592209
v 1.12105180 1.31250000 -0.53200437
v 1.22662970 -1.50000000 -0.44043715
v 1.16888723 -1.56250000 -0.41651943
v 1.22662970 1.25000000 -0.44043715
v 1.16888723 1.31250000 -0.41651943
v 1.16888723 3.8116059e-17 -0.41651943
v 1.22662970 4.0304790e-17 -0.44043715
v 1.12105180 4.8684187e-17 -0.53200437
v 1.17879428 5.0872918e-17 -0.55592209
v -1.17879428 -1.50000000 0.55592209
v -1.12105180 -1.56250000 0.53200437
v -1.17879428 1.25000000 0.55592209
v -1.12105180 1.31250000 0.53200437
v -1.22662970 -1.50000000 0.44043715
v -1.16888723 -1.56250000 0.41651943
v -1.22662970 1.25000000 0.44043715
v -1.16888723 1.31250000 0.41651943
v -1.16888723 1.1434818e-16 0.41651943
v -1.22662970 1.2091437e-16 0.44043715
v -1.12105180 1.4605256e-16 0.53200437
v -1.17879428 1.5261875e-16 0.55592209
vt 9.3750000e-3 0.99045870
vt 9.3750000e-3 0.99045870
vt 9.3750000e-3 0.79653879
vt 9.3750000e-3 0.79653879
vt 9.5236919e-3 0.77483362
vt 9.5236919e-3 0.77483362
vt 9.5236919e-3 0.78689883
vt 9.5236919e-3 0.78689883
vt 1.2026734e-2 0.76875706
vt 1.2026734e-2 0.76875706
vt 1.2026734e-2 0.76875706
vt 1.8055089e-2 0.77483362
vt 1.8055089e-2 0.77483362
vt 1.8055089e-2 0.78689883
vt 1.8055089e-2 0.78689883
vt 1.8059343e-2 0.77478967
vt 1.8059343e-2 0.78686594
vt 1.8059343e-2 0.77480073
vt 1.8059343e-2 0.78686594
vt 1.8059343e-2 0.77478967
vt 1.8059343e-2 0.77480073
vt 4.1041667e-2 0.99045870
vt 4.1041667e-2 0.79653879
vt 4.1041667e-2 0.99045870
vt 4.1041667e-2 0.79653879
vt 7.2708333e-2 0.99045870
vt 7.2708333e-2 0.99045870
vt 7.2708333e-2 0.79653879
vt 7.2708333e-2 0.79653879
vt 0.10437500 0.99045870
vt 0.10437500 0.79653879
vt 0.10437500 0.79653879
vt 0.10437500 0.99045870
vt 0.13604167 0.99045870
vt 0.13604167 0.99045870
vt 0.13604167 0.79653879
vt 0.13604167 0.79653879
vt 0.16284195 0.76875706
vt 0.16284195 0.77478967
vt 0.16284195 0.76875706
vt 0.16284195 0.77478967
vt 0.16284195 0.77480073
vt 0.16284195 0.78686594
vt 0.16284195 0.76875706
vt 0.16284195 0.77478967
vt 0.16770833 0.99045870
vt 0.16770833 0.79653879
vt 0.16770833 0.99045870
vt 0.16770833 0.79653879
vt 0.19937500 0.99045870
vt 0.19937500 0.79653879
vt 0.19937500 0.99045870
vt 0.19937500 0.79653879
vt 0.23104167 0.99045870
vt 0.23104167 0.79653879
vt 0.23104167 0.79653879
vt 0.23104167 0.99045870
vt 0.26270833 0.99045870
vt 0.26270833 0.79653879
vt 0.26270833 0.79653879
vt 0.26270833 0.99045870
vt 0.28347491 0.78687373
vt 0.28347491 0.77480851
vt 0.28347491 0.78687373
vt 0.28349413 0.77478967
vt 0.28349413 0.77478967
vt 0.28349413 0.77480073
vt 0.28349413 0.78686594
vt 0.28349413 0.77480073
vt 0.28952673 0.76875706
vt 0.28952673 0.76875706
vt 0.29200631 0.77480851
vt 0.29200631 0.78687373
vt 0.29437500 0.79653879
vt 0.29437500 0.99045870
vt 0.29437500 0.79653879
vt 0.29437500 0.99045870
vt 0.32604167 0.79653879
vt 0.32604167 0.99045870
vt 0.32604167 0.79653879
vt 0.32604167 0.99045870
vt 0.35770833 0.99045870
vt 0.35770833 0.79653879
vt 0.35770833 0.99045870
vt 0.35770833 0.79653879
vt 0.38937500 0.79653879
vt 0.38937500 0.99045870
vt 0.38937500 0.99045870
vt 0.38937500 0.79653879
vt 0.39856513 0.99045870
vt 0.39856513 0.79653879
vt 0.39856693 0.99045870
vt 0.39856693 0.79653879
vt 0.43023179 0.99045870
vt 0.43023179 0.79653879
vt 0.43023360 0.99045870
vt 0.43023360 0.79653879
vt 0.46189846 0.99045870
vt 0.46189846 0.79653879
vt 0.46190027 0.99045870
vt 0.46190027 0.79653879
vt 0.49356513 0.99045870
vt 0.49356513 0.79653879
vt 0.49356693 0.99045870
vt 0.49356693 0.79653879
vt 0.52523179 0.99045870
vt 0.52523179 0.79653879
vt 0.52523360 0.99045870
vt 0.52523360 0.79653879
vt 0.55689846 0.99045870
vt 0.55689846 0.79653879
vt 0.55690027 0.99045870
vt 0.55690027 0.79653879
vt 0.58856513 0.79653879
vt 0.58856513 0.99045870
vt 0.58856693 0.79653879
vt 0.58856693 0.99045870
vt 0.62023179 0.79653879
vt 0.62023179 0.99045870
vt 0.62023360 0.79653879
vt 0.62023360 0.99045870
vt 0.65189846 0.79653879
vt 0.65189846 0.99045870
vt 0.65190027 0.79653879
vt 0.65190027 0.99045870
vt 0.68356513 0.79653879
vt 0.68356513 0.99045870
vt 0.68356693 0.79653879
vt 0.68356693 0.99045870
vt 0.71523179 0.99045870
vt 0.71523179 0.79653879
vt 0.71523360 0.79653879
vt 0.71523360 0.99045870
vt 0.74689846 0.79653879
vt 0.74689846 0.99045870
vt 0.74690027 0.79653879
vt 0.74690027 0.99045870
vt 0.77856513 0.79653879
vt 0.77856513 0.99045870
vt 0.77856693 0.79653879
vt 0.77856693 0.99045870
vn 0.96592583 0.0000000e+0 -0.25881905
vn 0.86602540 0.0000000e+0 -0.50000000
vn 0.70710678 0.0000000e+0 -0.70710678
vn 0.50000000 0.0000000e+0 -0.86602540
vn 0.25881905 0.0000000e+0 -0.96592583
vn -4.7591632e-16 0.0000000e+0 -1.00000000
vn -0.25881905 0.0000000e+0 -0.96592583
vn -0.50000000 0.0000000e+0 -0.86602540
vn -0.70710678 0.0000000e+0 -0.70710678
vn -0.86602540 0.0000000e+0 -0.50000000
vn -0.96592583 0.0000000e+0 -0.25881905
vn -1.00000000 0.0000000e+0 5.7389909e-16
vn -0.96592583 0.0000000e+0 0.25881905
vn -0.86602540 0.0000000e+0 0.50000000
vn -0.70710678 0.0000000e+0 0.70710678
vn -0.50000000 0.0000000e+0 0.86602540
vn -0.25881905 0.0000000e+0 0.96592583
vn 2.6595324e-16 0.0000000e+0 1.00000000
vn 0.25881905 0.0000000e+0 0.96592583
vn 0.50000000 0.0000000e+0 0.86602540
vn 0.70710678 0.0000000e+0 0.70710678
vn 0.86602540 0.0000000e+0 0.50000000
vn 0.96592583 0.0000000e+0 0.25881905
vn 1.00000000 0.0000000e+0 -1.1198031e-16
vn 0.0000000e+0 1.00000000 4.5755439e-17
vn 1.00000000 0.0000000e+0 -1.1198031e-16
vn 1.00000000 0.0000000e+0 -1.1198031e-16
vn 0.0000000e+0 1.00000000 4.5755439e-17
vn 0.96592583 0.0000000e+0 0.25881905
vn 0.96592583 0.0000000e+0 0.25881905
vn 0.0000000e+0 1.00000000 4.5755439e-17
vn 0.86602540 0.0000000e+0 0.50000000
vn 0.86602540 0.0000000e+0 0.50000000
vn 0.0000000e+0 1.00000000 4.5755439e-17
vn 0.70710678 0.0000000e+0 0.70710678
vn 0.70710678 0.0000000e+0 0.70710678
vn 0.0000000e+0 1.00000000 4.5755439e-17
vn 0.50000000 0.0000000e+0 0.86602540
vn 0.50000000 0.0000000e+0 0.86602540
vn 0.0000000e+0 1.00000000 4.5755439e-17
vn 0.25881905 0.0000000e+0 0.96592583
vn 0.25881905 0.0000000e+0 0.96592583
vn 0.0000000e+0 1.00000000 4.5755439e-17
vn 2.6595324e-16 0.0000000e+0 1.00000000
vn 2.6595324e-16 0.0000000e+0 1.00000000
vn 0.0000000e+0 1.00000000 4.5755439e-17
vn -0.25881905 0.0000000e+0 0.96592583
vn -0.25881905 0.0000000e+0 0.96592583
vn 0.0000000e+0 1.00000000 4.5755439e-17
vn -0.50000000 0.0000000e+0 0.86602540
vn -0.50000000 0.0000000e+0 0.86602540
vn 0.0000000e+0 1.00000000 4.5755439e-17
vn -0.70710678 0.0000000e+0 0.70710678
vn -0.70710678 0.0000000e+0 0.70710678
vn 0.0000000e+0 1.00000000 4.5755439e-17
vn -0.86602540 0.0000000e+0 0.50000000
vn -0.86602540 0.0000000e+0 0.50000000
vn 0.0000000e+0 1.00000000 4.5755439e-17
vn -0.96592583 0.0000000e+0 0.25881905
vn -0.96592583 0.0000000e+0 0.25881905
vn 0.0000000e+0 1.00000000 4.5755439e-17
vn -1.00000000 0.0000000e+0 5.7389909e-16
vn -1.00000000 0.0000000e+0 5.7389909e-16
vn 0.0000000e+0 1.00000000 4.5755439e-17
vn -0.96592583 0.0000000e+0 -0.25881905
vn -0.96592583 0.0000000e+0 -0.25881905
vn 0.0000000e+0 1.00000000 4.5755439e-17
vn -0.86602540 0.0000000e+0 -0.50000000
vn -0.86602540 0.0000000e+0 -0.50000000
vn 0.0000000e+0 1.00000000 4.5755439e-17
vn -0.70710678 0.0000000e+0 -0.70710678
vn -0.70710678 0.0000000e+0 -0.70710678
vn 0.0000000e+0 1.00000000 4.5755439e-17
vn -0.50000000 0.0000000e+0 -0.86602540
vn -0.50000000 0.0000000e+0 -0.86602540
vn 0.0000000e+0 1.00000000 4.5755439e-17
vn -0.25881905 0.0000000e+0 -0.96592583
vn -0.25881905 0.0000000e+0 -0.96592583
vn 0.0000000e+0 1.00000000 4.5755439e-17
vn -4.7591632e-16 0.0000000e+0 -1.00000000
vn -4.7591632e-16 0.0000000e+0 -1.00000000
vn 0.0000000e+0 1.00000000 4.5755439e-17
vn 0.25881905 0.0000000e+0 -0.96592583
vn 0.25881905 0.0000000e+0 -0.96592583
vn 0.0000000e+0 1.00000000 4.5755439e-17
vn 0.50000000 0.0000000e+0 -0.86602540
vn 0.50000000 0.0000000e+0 -0.86602540
vn 0.0000000e+0 1.00000000 4.5755439e-17
vn 0.70710678 0.0000000e+0 -0.70710678
vn 0.70710678 0.0000000e+0 -0.70710678
vn 0.0000000e+0 1.00000000 4.5755439e-17
vn 0.86602540 0.0000000e+0 -0.50000000
vn 0.86602540 0.0000000e+0 -0.50000000
vn 0.0000000e+0 1.00000000 4.5755439e-17
vn 0.96592583 0.0000000e+0 -0.25881905
vn 0.96592583 0.0000000e+0 -0.25881905
vn 0.0000000e+0 -1.00000000 9.1510877e-17
vn 1.00000000 0.0000000e+0 -1.1198031e-16
vn 1.00000000 0.0000000e+0 -1.1198031e-16
vn 0.0000000e+0 -1.00000000 9.1510877e-17
vn 0.96592583 0.0000000e+0 0.25881905
vn 0.96592583 0.0000000e+0 0.25881905
vn 0.0000000e+0 -1.00000000 9.1510877e-17
vn 0.86602540 0.0000000e+0 0.50000000
vn 0.86602540 0.0000000e+0 0.50000000
vn 0.0000000e+0 -1.00000000 9.1510877e-17
vn 0.70710678 0.0000000e+0 0.70710678
vn 0.70710678 0.0000000e+0 0.70710678
vn 0.0000000e+0 -1.00000000 9.1510877e-17
vn 0.50000000 0.0000000e+0 0.86602540
vn 0.50000000 0.0000000e+0 0.86602540
vn 0.0000000e+0 -1.00000000 9.1510877e-17
vn 0.25881905 0.0000000e+0 0.96592583
vn 0.25881905 0.0000000e+0 0.96592583
vn 0.0000000e+0 -1.00000000 9.1510877e-17
vn 2.6595324e-16 0.0000000e+0 1.00000000
vn 2.6595324e-16 0.0000000e+0 1.00000000
vn 0.0000000e+0 -1.00000000 9.1510877e-17
vn -0.25881905 0.0000000e+0 0.96592583
vn -0.25881905 0.0000000e+0 0.96592583
vn 0.0000000e+0 -1.00000000 9.1510877e-17
vn -0.50000000 0.0000000e+0 0.86602540
vn -0.50000000 0.0000000e+0 0.86602540
vn 0.0000000e+0 -1.00000000 9.1510877e-17
vn -0.70710678 0.0000000e+0 0.70710678
vn -0.70710678 0.0000000e+0 0.70710678
vn 0.0000000e+0 -1.00000000 9.1510877e-17
vn -0.86602540 0.0000000e+0 0.50000000
vn -0.86602540 0.0000000e+0 0.50000000
vn 0.0000000e+0 -1.00000000 9.1510877e-17
vn -0.96592583 0.0000000e+0 0.25881905
vn -0.96592583 0.0000000e+0 0.25881905
vn 0.0000000e+0 -1.00000000 9.1510877e-17
vn -1.00000000 0.0000000e+0 5.7389909e-16
vn -1.00000000 0.0000000e+0 5.7389909e-16
vn 0.0000000e+0 -1.00000000 9.1510877e-17
vn -0.96592583 0.0000000e+0 -0.25881905
vn -0.96592583 0.0000000e+0 -0.25881905
vn 0.0000000e+0 -1.00000000 9.1510877e-17
vn -0.86602540 0.0000000e+0 -0.50000000
vn -0.86602540 0.0000000e+0 -0.50000000
vn 0.0000000e+0 -1.00000000 9.1510877e-17
vn -0.70710678 0.0000000e+0 -0.70710678
vn -0.70710678 0.0000000e+0 -0.70710678
vn 0.0000000e+0 -1.00000000 9.1510877e-17
vn -0.50000000 0.0000000e+0 -0.86602540
vn -0.50000000 0.0000000e+0 -0.86602540
vn 0.0000000e+0 -1.00000000 9.1510877e-17
vn -0.25881905 0.0000000e+0 -0.96592583
vn -0.25881905 0.0000000e+0 -0.96592583
vn 0.0000000e+0 -1.00000000 9.1510877e-17
vn -4.7591632e-16 0.0000000e+0 -1.00000000
vn -4.7591632e-16 0.0000000e+0 -1.00000000
vn 0.0000000e+0 -1.00000000 9.1510877e-17
vn 0.25881905 0.0000000e+0 -0.96592583
vn 0.25881905 0.0000000e+0 -0.96592583
vn 0.0000000e+0 -1.00000000 9.1510877e-17
vn 0.50000000 0.0000000e+0 -0.86602540
vn 0.50000000 0.0000000e+0 -0.86602540
vn 0.0000000e+0 -1.00000000 9.1510877e-17
vn 0.70710678 0.0000000e+0 -0.70710678
vn 0.70710678 0.0000000e+0 -0.70710678
vn 0.0000000e+0 -1.00000000 9.1510877e-17
vn 0.86602540 0.0000000e+0 -0.50000000
vn 0.86602540 0.0000000e+0 -0.50000000
vn 0.0000000e+0 -1.00000000 9.1510877e-17
vn 0.96592583 0.0000000e+0 -0.25881905
vn 0.96592583 0.0000000e+0 -0.25881905
vn 0.65328148 -0.70710678 -0.27059805
vn -0.38268343 -9.9693496e-17 -0.92387953
vn 0.92387953 4.5102810e-16 -0.38268343
vn 0.65328148 -0.70710678 -0.27059805
vn -0.38268343 -9.9693496e-17 -0.92387953
vn 0.65328148 0.70710678 -0.27059805
vn 0.92387953 4.6906923e-16 -0.38268343
vn -0.38268343 -3.9263985e-17 -0.92387953
vn 0.65328148 0.70710678 -0.27059805
vn -0.38268343 -3.9263985e-17 -0.92387953
vn 0.65328148 -0.70710678 -0.27059805
vn 0.38268343 3.2853538e-17 0.92387953
vn 0.92387953 4.5102810e-16 -0.38268343
vn 0.65328148 -0.70710678 -0.27059805
vn 0.38268343 3.2853538e-17 0.92387953
vn 0.65328148 0.70710678 -0.27059805
vn 0.92387953 4.6906923e-16 -0.38268343
vn 0.38268343 1.2185375e-17 0.92387953
vn 0.65328148 0.70710678 -0.27059805
vn 0.38268343 1.2185375e-17 0.92387953
vn 0.38268343 2.2519457e-17 0.92387953
vn 0.38268343 2.2519457e-17 0.92387953
vn 0.92387953 4.6004867e-16 -0.38268343
vn 0.38268343 2.2519457e-17 0.92387953
vn 0.92387953 4.6004867e-16 -0.38268343
vn 0.38268343 2.2519457e-17 0.92387953
vn -0.38268343 -6.9478741e-17 -0.92387953
vn -0.38268343 -6.9478741e-17 -0.92387953
vn 0.92387953 4.6004867e-16 -0.38268343
vn -0.38268343 -6.9478741e-17 -0.92387953
vn 0.92387953 4.6004867e-16 -0.38268343
vn -0.38268343 -6.9478741e-17 -0.92387953
vn -0.65328148 -0.70710678 0.27059805
vn 0.38268343 1.0195926e-16 0.92387953
vn -0.92387953 5.3198187e-16 0.38268343
vn -0.65328148 -0.70710678 0.27059805
vn 0.38268343 1.0195926e-16 0.92387953
vn -0.65328148 0.70710678 0.27059805
vn -0.92387953 5.3845817e-16 0.38268343
vn 0.38268343 1.2185375e-16 0.92387953
vn -0.65328148 0.70710678 0.27059805
vn 0.38268343 1.2185375e-16 0.92387953
vn -0.65328148 -0.70710678 0.27059805
vn -0.38268343 -1.3481280e-16 -0.92387953
vn -0.92387953 5.3198187e-16 0.38268343
vn -0.65328148 -0.70710678 0.27059805
vn -0.38268343 -1.3481280e-16 -0.92387953
vn -0.65328148 0.70710678 0.27059805
vn -0.92387953 5.3845817e-16 0.38268343
vn -0.38268343 -1.6788738e-16 -0.92387953
vn -0.65328148 0.70710678 0.27059805
vn -0.38268343 -1.6788738e-16 -0.92387953
vn -0.38268343 -1.5135009e-16 -0.92387953
vn -0.38268343 -1.5135009e-16 -0.92387953
vn -0.92387953 5.3522002e-16 0.38268343
vn -0.38268343 -1.5135009e-16 -0.92387953
vn -0.92387953 5.3522002e-16 0.38268343
vn -0.38268343 -1.5135009e-16 -0.92387953
vn 0.38268343 1.1190650e-16 0.92387953
vn 0.38268343 1.1190650e-16 0.92387953
vn -0.92387953 5.3522002e-16 0.38268343
vn 0.38268343 1.1190650e-16 0.92387953
vn -0.92387953 5.3522002e-16 0.38268343
vn 0.38268343 1.1190650e-16 0.92387953
g HLV_2_LFO_1_HLV_2_LFO_1_auv
usemtl HLV_2_LFO_1_auv
s 1
f 73/13/169 77/15/179 78/7/182 74/6/172
f 76/72/177 80/73/187 79/64/184 75/63/174
f 91/68/217 94/43/223 96/42/229 87/69/207
f 96/42/231 94/43/225 89/17/213 85/18/203
s 2
f 1/75/26 72/74/24 49/78/1 24/79/95
f 2/58/30 71/59/23 72/74/24 1/75/27
f 3/54/33 70/55/22 71/59/23 2/58/29
f 4/50/36 69/51/21 70/55/22 3/54/32
f 5/46/39 68/47/20 69/51/21 4/50/35
f 6/34/42 67/36/19 68/47/20 5/46/38
f 7/30/45 66/31/18 67/36/19 6/34/41
f 8/26/48 65/28/17 66/31/18 7/30/44
f 9/22/51 64/23/16 65/28/17 8/26/47
f 10/1/54 63/3/15 64/23/16 9/22/50
f 11/84/57 62/85/14 63/89/15 10/88/53
f 12/81/60 61/80/13 62/85/14 11/84/56
f 13/77/63 60/76/12 61/80/13 12/81/59
f 14/61/66 59/60/11 60/76/12 13/77/62
f 15/57/69 58/56/10 59/60/11 14/61/65
f 16/52/72 57/53/9 58/56/10 15/57/68
f 17/48/75 56/49/8 57/53/9 16/52/71
f 18/35/78 55/37/7 56/49/8 17/48/74
f 19/33/81 54/32/6 55/37/7 18/35/77
f 20/27/84 53/29/5 54/32/6 19/33/80
f 21/24/87 52/25/4 53/29/5 20/27/83
f 22/2/90 51/4/3 52/25/4 21/24/86
f 23/82/93 50/83/2 51/86/3 22/87/89
f 24/79/96 49/78/1 50/83/2 23/82/92
f 25/126/99 72/127/24 71/123/23 26/122/102
f 26/122/101 71/123/23 70/119/22 27/118/105
f 27/118/104 70/119/22 69/115/21 28/114/108
f 28/114/107 69/115/21 68/110/20 29/111/111
f 29/111/110 68/110/20 67/106/19 30/107/114
f 30/107/113 67/106/19 66/102/18 31/103/117
f 31/103/116 66/102/18 65/98/17 32/99/120
f 32/99/119 65/98/17 64/94/16 33/95/123
f 33/95/122 64/94/16 63/90/15 34/91/126
f 34/140/125 63/141/15 62/137/14 35/136/129
f 35/136/128 62/137/14 61/133/13 36/132/132
f 36/132/131 61/133/13 60/129/12 37/128/135
f 37/128/134 60/129/12 59/125/11 38/124/138
f 38/124/137 59/125/11 58/121/10 39/120/141
f 39/120/140 58/121/10 57/117/9 40/116/144
f 40/116/143 57/117/9 56/112/8 41/113/147
f 41/113/146 56/112/8 55/108/7 42/109/150
f 42/109/149 55/108/7 54/104/6 43/105/153
f 43/105/152 54/104/6 53/100/5 44/101/156
f 44/101/155 53/100/5 52/96/4 45/97/159
f 45/97/158 52/96/4 51/92/3 46/93/162
f 46/138/161 51/139/3 50/135/2 47/134/165
f 47/134/164 50/135/2 49/130/1 48/131/168
f 48/131/167 49/130/1 72/127/24 25/126/98
f 79/68/185 82/43/191 84/42/197 75/67/175
f 84/42/199 82/43/193 77/19/181 73/21/171
f 86/10/205 95/40/227 96/41/230 85/20/202
f 87/66/208 96/41/232 95/40/228 88/71/210
f 89/16/212 94/39/224 93/38/221 90/9/215
f 92/70/220 93/38/222 94/39/226 91/65/218
s 3
f 74/11/173 83/40/195 84/41/198 73/20/170
f 75/66/176 84/41/200 83/40/196 76/71/178
f 77/20/180 82/45/192 81/44/189 78/11/183
f 80/71/188 81/44/190 82/45/194 79/66/186
f 85/12/201 89/14/211 90/8/214 86/5/204
f 88/72/209 92/73/219 91/62/216 87/63/206
g HLV_2_LFO_1_default
usemtl default
s 1
f 1//25 24//94 23//91 22//88 21//85 20//82 19//79 18//76 17//73 16//70 15//67 14//64 13//61 12//58 11//55 10//52 9//49 8//46 7//43 6//40 5//37 4//34 3//31 2//28
f 26//100 27//103 28//106 29//109 30//112 31//115 32//118 33//121 34//124 35//127 36//130 37//133 38//136 39//139 40//142 41//145 42//148 43//151 44//154 45//157 46//160 47//163 48//166 25//97
