# Exported from Wings 3D v2.0.0.2018-01-15---10-41.mlab
mtllib canopus_fairing_s2_1.mtl
o Cube3_u_Cube2_u_Cube2
#20 vertices, 20 faces
v 1.8750000e-2 -8.3750000e-2 0.96250000
v -1.8750000e-2 4.6146943e-2 0.96250000
v 1.8750000e-2 8.3750000e-2 0.96250000
v 1.8750000e-2 -6.2253152e-2 1.12253152
v -1.8750000e-2 -4.6146943e-2 0.96250000
v 1.8750000e-2 -4.6146943e-2 0.96250000
v -1.8750000e-2 8.3750000e-2 0.96250000
v 1.8750000e-2 4.6146943e-2 0.96250000
v -1.8750000e-2 -6.2253152e-2 1.12253152
v -1.8750000e-2 -9.9940185e-2 1.12253152
v -1.8750000e-2 -8.3750000e-2 0.96250000
v 1.8750000e-2 5.0000000e-2 1.00000000
v -1.8750000e-2 5.0000000e-2 1.00000000
v 1.8750000e-2 9.9940185e-2 1.12253152
v -1.8750000e-2 9.9940185e-2 1.12253152
v -1.8750000e-2 -5.0000000e-2 1.00000000
v 1.8750000e-2 -5.0000000e-2 1.00000000
v -1.8750000e-2 6.2253152e-2 1.12253152
v 1.8750000e-2 6.2253152e-2 1.12253152
v 1.8750000e-2 -9.9940185e-2 1.12253152
vn 0.80313450 -0.39952785 -0.44198697
vn -0.70710678 0.0000000e+0 -0.70710678
vn 0.80313450 0.39952785 -0.44198697
vn 0.55910371 0.55632899 0.61473661
vn -0.70710678 0.0000000e+0 -0.70710678
vn 0.70710678 0.0000000e+0 -0.70710678
vn -0.80313450 0.39952785 -0.44198697
vn 0.70710678 0.0000000e+0 -0.70710678
vn -0.55910371 0.55632899 0.61473661
vn -0.59775414 -0.59471838 0.53758724
vn -0.80313450 -0.39952785 -0.44198697
vn 0.89646118 -0.29733740 0.32855413
vn -0.89646118 -0.29733740 0.32855413
vn 0.59775414 0.59471838 0.53758724
vn -0.59775414 0.59471838 0.53758724
vn -0.89646118 0.29733740 0.32855413
vn 0.89646118 0.29733740 0.32855413
vn -0.55910371 -0.55632899 0.61473661
vn 0.55910371 -0.55632899 0.61473661
vn 0.59775414 -0.59471838 0.53758724
g Cube3_u_Cube2_u_Cube2_default
usemtl default
s 1
f 1//1 6//6 17//17
f 2//2 8//8 6//6 5//5
f 2//2 13//13 7//7
f 3//3 7//7 15//15 14//14
f 3//3 14//14 19//19 12//12
f 4//4 17//17 16//16 9//9
f 5//5 16//16 13//13 2//2
f 6//6 1//1 11//11 5//5
f 7//7 3//3 8//8 2//2
f 8//8 12//12 17//17 6//6
f 9//9 16//16 11//11 10//10
f 11//11 16//16 5//5
f 12//12 8//8 3//3
f 12//12 19//19 18//18 13//13
f 13//13 16//16 17//17 12//12
f 13//13 18//18 15//15 7//7
f 15//15 18//18 19//19 14//14
f 17//17 4//4 20//20 1//1
f 20//20 4//4 9//9 10//10
f 20//20 10//10 11//11 1//1
