# Exported from Wings 3D 1.5.4
mtllib libra_lv_mount_s2_1_collider.mtl
o collider
#8 vertices, 6 faces
v -0.33493649 0.50000000 -1.25000000
v 0.33493649 0.50000000 -1.25000000
v -0.25120237 -0.50000000 -0.93750000
v 0.25120237 -0.50000000 -0.93750000
v -0.16746825 -0.50000000 -0.62500000
v 0.16746825 -0.50000000 -0.62500000
v 0.16746825 0.50000000 -0.62500000
v -0.16746825 0.50000000 -0.62500000
vn 0.0000000e+0 -0.29827499 -0.95447998
vn 0.0000000e+0 1.00000000 0.0000000e+0
vn -0.96592583 1.4298575e-17 0.25881905
vn 0.0000000e+0 -0.29827499 -0.95447998
vn 0.0000000e+0 1.00000000 0.0000000e+0
vn 0.96592583 -2.1447862e-17 0.25881905
vn 0.0000000e+0 -0.29827499 -0.95447998
vn 0.0000000e+0 -1.00000000 0.0000000e+0
vn -0.96592583 1.4298575e-17 0.25881905
vn 0.0000000e+0 -0.29827499 -0.95447998
vn 0.0000000e+0 -1.00000000 0.0000000e+0
vn 0.96592583 -2.1447862e-17 0.25881905
vn 0.0000000e+0 -1.00000000 0.0000000e+0
vn 0.0000000e+0 0.0000000e+0 1.00000000
vn -0.96592583 1.4298575e-17 0.25881905
vn 0.0000000e+0 -1.00000000 0.0000000e+0
vn 0.0000000e+0 0.0000000e+0 1.00000000
vn 0.96592583 -2.1447862e-17 0.25881905
vn 0.0000000e+0 1.00000000 0.0000000e+0
vn 0.0000000e+0 0.0000000e+0 1.00000000
vn 0.96592583 -2.1447862e-17 0.25881905
vn 0.0000000e+0 1.00000000 0.0000000e+0
vn 0.0000000e+0 0.0000000e+0 1.00000000
vn -0.96592583 1.4298575e-17 0.25881905
g collider
usemtl default
s 1
f 2//6 7//21 6//18 4//12
f 3//9 5//15 8//24 1//3
s 2
f 1//2 8//22 7//19 2//5
f 4//11 6//16 5//13 3//8
s 3
f 2//4 4//10 3//7 1//1
f 6//17 7//20 8//23 5//14
