# Exported from Wings 3D 1.5.4
mtllib libra_lv_mount_s2_1_collider.mtl
o collider
#10 vertices, 7 faces
v -0.33493649 0.50000000 -1.25000000
v 0.33493649 0.50000000 -1.25000000
v -0.33493649 -0.50000000 -1.25000000
v 0.33493649 -0.50000000 -1.25000000
v 0.36843014 0.0000000e+0 -1.37500000
v -0.36843014 0.0000000e+0 -1.37500000
v -0.16746825 -0.50000000 -0.62500000
v 0.16746825 -0.50000000 -0.62500000
v 0.16746825 0.50000000 -0.62500000
v -0.16746825 0.50000000 -0.62500000
vn 0.0000000e+0 0.24253563 -0.97014250
vn 0.0000000e+0 1.00000000 0.0000000e+0
vn -0.96592583 -9.7490281e-18 0.25881905
vn 0.0000000e+0 0.24253563 -0.97014250
vn 0.0000000e+0 1.00000000 0.0000000e+0
vn 0.96592583 0.0000000e+0 0.25881905
vn 0.0000000e+0 -0.24253563 -0.97014250
vn 0.0000000e+0 -1.00000000 0.0000000e+0
vn -0.96592583 -9.7490281e-18 0.25881905
vn 0.0000000e+0 -0.24253563 -0.97014250
vn 0.0000000e+0 -1.00000000 0.0000000e+0
vn 0.96592583 0.0000000e+0 0.25881905
vn 0.0000000e+0 0.24253563 -0.97014250
vn 0.0000000e+0 -0.24253563 -0.97014250
vn 0.96592583 0.0000000e+0 0.25881905
vn 0.0000000e+0 0.24253563 -0.97014250
vn 0.0000000e+0 -0.24253563 -0.97014250
vn -0.96592583 -9.7490281e-18 0.25881905
vn 0.0000000e+0 -1.00000000 0.0000000e+0
vn 0.0000000e+0 0.0000000e+0 1.00000000
vn -0.96592583 -9.7490281e-18 0.25881905
vn 0.0000000e+0 -1.00000000 0.0000000e+0
vn 0.0000000e+0 0.0000000e+0 1.00000000
vn 0.96592583 0.0000000e+0 0.25881905
vn 0.0000000e+0 1.00000000 0.0000000e+0
vn 0.0000000e+0 0.0000000e+0 1.00000000
vn 0.96592583 0.0000000e+0 0.25881905
vn 0.0000000e+0 1.00000000 0.0000000e+0
vn 0.0000000e+0 0.0000000e+0 1.00000000
vn -0.96592583 -9.7490281e-18 0.25881905
g collider
usemtl default
s 1
f 2//6 9//27 8//24 4//12 5//15
f 6//18 3//9 7//21 10//30 1//3
s 2
f 2//4 5//13 6//16 1//1
f 4//11 8//22 7//19 3//8
s 3
f 3//7 6//17 5//14 4//10
f 8//23 9//26 10//29 7//20
s 4
f 1//2 10//28 9//25 2//5
