# Exported from Wings 3D 1.5.4
mtllib libra_lv_fuel_tank_s2_1.mtl
o mesh1
#48 vertices, 24 faces
v 1.25000000 0.50000000 8.3844968e-18
v 1.20740728 0.50000000 0.32352381
v 1.08253175 0.50000000 0.62500000
v 0.88388348 0.50000000 0.88388348
v 0.62500000 0.50000000 1.08253175
v 0.32352381 0.50000000 1.20740728
v 1.1123489e-16 0.50000000 1.25000000
v -0.32352381 0.50000000 1.20740728
v -0.62500000 0.50000000 1.08253175
v -0.88388348 0.50000000 0.88388348
v -1.08253175 0.50000000 0.62500000
v -1.20740728 0.50000000 0.32352381
v -1.25000000 0.50000000 1.6146535e-16
v -1.20740728 0.50000000 -0.32352381
v -1.08253175 0.50000000 -0.62500000
v -0.88388348 0.50000000 -0.88388348
v -0.62500000 0.50000000 -1.08253175
v -0.32352381 0.50000000 -1.20740728
v -1.9492681e-16 0.50000000 -1.25000000
v 0.32352381 0.50000000 -1.20740728
v 0.62500000 0.50000000 -1.08253175
v 0.88388348 0.50000000 -0.88388348
v 1.08253175 0.50000000 -0.62500000
v 1.20740728 0.50000000 -0.32352381
v 1.25000000 -0.50000000 8.3844968e-18
v 1.20740728 -0.50000000 0.32352381
v 1.08253175 -0.50000000 0.62500000
v 0.88388348 -0.50000000 0.88388348
v 0.62500000 -0.50000000 1.08253175
v 0.32352381 -0.50000000 1.20740728
v 1.1123489e-16 -0.50000000 1.25000000
v -0.32352381 -0.50000000 1.20740728
v -0.62500000 -0.50000000 1.08253175
v -0.88388348 -0.50000000 0.88388348
v -1.08253175 -0.50000000 0.62500000
v -1.20740728 -0.50000000 0.32352381
v -1.25000000 -0.50000000 1.6146535e-16
v -1.20740728 -0.50000000 -0.32352381
v -1.08253175 -0.50000000 -0.62500000
v -0.88388348 -0.50000000 -0.88388348
v -0.62500000 -0.50000000 -1.08253175
v -0.32352381 -0.50000000 -1.20740728
v -1.9492681e-16 -0.50000000 -1.25000000
v 0.32352381 -0.50000000 -1.20740728
v 0.62500000 -0.50000000 -1.08253175
v 0.88388348 -0.50000000 -0.88388348
v 1.08253175 -0.50000000 -0.62500000
v 1.20740728 -0.50000000 -0.32352381
vt 0.60894531 0.21623694
vt 0.60894531 0.31354938
vt 0.60894531 0.21623694
vt 0.60894531 0.31354938
vt 0.64069987 0.21623694
vt 0.64069987 0.31354938
vt 0.64069987 0.21623694
vt 0.64069987 0.31354938
vt 0.67245443 0.21623694
vt 0.67245443 0.31354938
vt 0.67245443 0.21623694
vt 0.67245443 0.31354938
vt 0.70420898 0.21623694
vt 0.70420898 0.31354938
vt 0.70420898 0.21623694
vt 0.70420898 0.31354938
vt 0.73596354 0.21623694
vt 0.73596354 0.31354938
vt 0.73596354 0.21623694
vt 0.73596354 0.31354938
vt 0.76771810 0.21623694
vt 0.76771810 0.31354938
vt 0.76771810 0.21623694
vt 0.76771810 0.31354938
vt 0.79947266 0.21623694
vt 0.79947266 0.31354938
vt 0.79947266 0.21623694
vt 0.79947266 0.31354938
vt 0.83122721 0.31354938
vt 0.83122721 0.21623694
vt 0.83122721 0.21623694
vt 0.83122721 0.31354938
vt 0.86298177 0.21623694
vt 0.86298177 0.31354938
vt 0.86298177 0.31354938
vt 0.86298177 0.21623694
vt 0.89473633 0.21623694
vt 0.89473633 0.21623694
vt 0.89473633 0.31354938
vt 0.92649089 0.21623694
vt 0.92649089 0.21623694
vt 0.92649089 0.31354938
vt 0.95824544 0.21623694
vt 0.95824544 0.21623694
vt 0.95824544 0.31354938
vt 0.99000000 0.21623694
vt 0.99000000 0.21623694
vt 0.99000000 0.31354938
vn 1.00000000 0.0000000e+0 -1.1198031e-16
vn 0.96592583 0.0000000e+0 0.25881905
vn 0.86602540 0.0000000e+0 0.50000000
vn 0.70710678 0.0000000e+0 0.70710678
vn 0.50000000 0.0000000e+0 0.86602540
vn 0.25881905 0.0000000e+0 0.96592583
vn 2.6595324e-16 0.0000000e+0 1.00000000
vn -0.25881905 0.0000000e+0 0.96592583
vn -0.50000000 0.0000000e+0 0.86602540
vn -0.70710678 0.0000000e+0 0.70710678
vn -0.86602540 0.0000000e+0 0.50000000
vn -0.96592583 0.0000000e+0 0.25881905
vn -1.00000000 0.0000000e+0 5.7389909e-16
vn -0.96592583 0.0000000e+0 -0.25881905
vn -0.86602540 0.0000000e+0 -0.50000000
vn -0.70710678 0.0000000e+0 -0.70710678
vn -0.50000000 0.0000000e+0 -0.86602540
vn -0.25881905 0.0000000e+0 -0.96592583
vn -4.7591632e-16 0.0000000e+0 -1.00000000
vn 0.25881905 0.0000000e+0 -0.96592583
vn 0.50000000 0.0000000e+0 -0.86602540
vn 0.70710678 0.0000000e+0 -0.70710678
vn 0.86602540 0.0000000e+0 -0.50000000
vn 0.96592583 0.0000000e+0 -0.25881905
vn 1.00000000 0.0000000e+0 -1.1198031e-16
vn 0.96592583 0.0000000e+0 0.25881905
vn 0.86602540 0.0000000e+0 0.50000000
vn 0.70710678 0.0000000e+0 0.70710678
vn 0.50000000 0.0000000e+0 0.86602540
vn 0.25881905 0.0000000e+0 0.96592583
vn 2.6595324e-16 0.0000000e+0 1.00000000
vn -0.25881905 0.0000000e+0 0.96592583
vn -0.50000000 0.0000000e+0 0.86602540
vn -0.70710678 0.0000000e+0 0.70710678
vn -0.86602540 0.0000000e+0 0.50000000
vn -0.96592583 0.0000000e+0 0.25881905
vn -1.00000000 0.0000000e+0 5.7389909e-16
vn -0.96592583 0.0000000e+0 -0.25881905
vn -0.86602540 0.0000000e+0 -0.50000000
vn -0.70710678 0.0000000e+0 -0.70710678
vn -0.50000000 0.0000000e+0 -0.86602540
vn -0.25881905 0.0000000e+0 -0.96592583
vn -4.7591632e-16 0.0000000e+0 -1.00000000
vn 0.25881905 0.0000000e+0 -0.96592583
vn 0.50000000 0.0000000e+0 -0.86602540
vn 0.70710678 0.0000000e+0 -0.70710678
vn 0.86602540 0.0000000e+0 -0.50000000
vn 0.96592583 0.0000000e+0 -0.25881905
g mesh1
usemtl mesh1_auv
s 1
f 1/39/1 25/37/25 48/41/48 24/42/24
f 2/34/2 26/33/26 25/37/25 1/39/1
f 3/29/3 27/31/27 26/33/26 2/34/2
f 4/26/4 28/25/28 27/31/27 3/29/3
f 5/22/5 29/21/29 28/25/28 4/26/4
f 6/18/6 30/17/30 29/21/29 5/22/5
f 7/14/7 31/13/31 30/17/30 6/18/6
f 8/10/8 32/9/32 31/13/31 7/14/7
f 9/6/9 33/5/33 32/9/32 8/10/8
f 10/2/10 34/1/34 33/5/33 9/6/9
f 11/45/11 35/43/35 34/46/34 10/48/10
f 12/42/12 36/40/36 35/43/35 11/45/11
f 13/39/13 37/38/37 36/40/36 12/42/12
f 14/35/14 38/36/38 37/38/37 13/39/13
f 15/32/15 39/30/39 38/36/38 14/35/14
f 16/28/16 40/27/40 39/30/39 15/32/15
f 17/24/17 41/23/41 40/27/40 16/28/16
f 18/20/18 42/19/42 41/23/41 17/24/17
f 19/16/19 43/15/43 42/19/42 18/20/18
f 20/12/20 44/11/44 43/15/43 19/16/19
f 21/8/21 45/7/45 44/11/44 20/12/20
f 22/4/22 46/3/46 45/7/45 21/8/21
f 23/45/23 47/44/47 46/47/46 22/48/22
f 24/42/24 48/41/48 47/44/47 23/45/23
