# Exported from Wings 3D 1.5.4
mtllib libra_lv_fuel_tank_s7p5_s6_1_collider.mtl
o collider
#48 vertices, 34 faces
v 4.68750000 -4.50000000 -0.93240172
v 4.68750000 -4.50000000 0.93240172
v 3.97387062 -4.50000000 2.65525546
v 2.65525546 -4.50000000 3.97387062
v 0.93240172 -4.50000000 4.68750000
v -0.93240172 -4.50000000 4.68750000
v -2.65525546 -4.50000000 3.97387062
v -3.97387062 -4.50000000 2.65525546
v -4.68750000 -4.50000000 0.93240172
v -4.68750000 -4.50000000 -0.93240172
v -3.97387062 -4.50000000 -2.65525546
v -2.65525546 -4.50000000 -3.97387062
v -0.93240172 -4.50000000 -4.68750000
v 0.93240172 -4.50000000 -4.68750000
v 2.65525546 -4.50000000 -3.97387062
v 3.97387062 -4.50000000 -2.65525546
v 4.68750000 -8.25000000 -0.93240172
v 4.68750000 -8.25000000 0.93240172
v 3.97387062 -8.25000000 2.65525546
v 2.65525546 -8.25000000 3.97387062
v 0.93240172 -8.25000000 4.68750000
v -0.93240172 -8.25000000 4.68750000
v -2.65525546 -8.25000000 3.97387062
v -3.97387062 -8.25000000 2.65525546
v -4.68750000 -8.25000000 0.93240172
v -4.68750000 -8.25000000 -0.93240172
v -3.97387062 -8.25000000 -2.65525546
v -2.65525546 -8.25000000 -3.97387062
v -0.93240172 -8.25000000 -4.68750000
v 0.93240172 -8.25000000 -4.68750000
v 2.65525546 -8.25000000 -3.97387062
v 3.97387062 -8.25000000 -2.65525546
v 3.75000000 4.50000000 0.74592138
v 3.75000000 4.50000000 -0.74592138
v 3.17909649 4.50000000 -2.12420437
v 2.12420437 4.50000000 -3.17909649
v 0.74592138 4.50000000 -3.75000000
v -0.74592138 4.50000000 -3.75000000
v -2.12420437 4.50000000 -3.17909649
v -3.17909649 4.50000000 -2.12420437
v -3.75000000 4.50000000 -0.74592138
v -3.75000000 4.50000000 0.74592138
v -3.17909649 4.50000000 2.12420437
v -2.12420437 4.50000000 3.17909649
v -0.74592138 4.50000000 3.75000000
v 0.74592138 4.50000000 3.75000000
v 2.12420437 4.50000000 3.17909649
v 3.17909649 4.50000000 2.12420437
vn 0.92387953 0.0000000e+0 -0.38268343
vn 0.99461841 0.10360608 0.0000000e+0
vn 1.00000000 0.0000000e+0 0.0000000e+0
vn 0.91890759 0.10360608 -0.38062399
vn 0.99461841 0.10360608 0.0000000e+0
vn 0.92387953 0.0000000e+0 0.38268343
vn 1.00000000 0.0000000e+0 0.0000000e+0
vn 0.91890759 0.10360608 0.38062399
vn 0.92387953 0.0000000e+0 0.38268343
vn 0.70330142 0.10360608 0.70330142
vn 0.91890759 0.10360608 0.38062399
vn 0.70710678 0.0000000e+0 0.70710678
vn 0.70330142 0.10360608 0.70330142
vn 0.38268343 0.0000000e+0 0.92387953
vn 0.70710678 0.0000000e+0 0.70710678
vn 0.38062399 0.10360608 0.91890759
vn 0.38268343 0.0000000e+0 0.92387953
vn 0.0000000e+0 0.10360608 0.99461841
vn 0.38062399 0.10360608 0.91890759
vn 0.0000000e+0 0.0000000e+0 1.00000000
vn 0.0000000e+0 0.10360608 0.99461841
vn -0.38268343 0.0000000e+0 0.92387953
vn 0.0000000e+0 0.0000000e+0 1.00000000
vn -0.38062399 0.10360608 0.91890759
vn -0.38268343 0.0000000e+0 0.92387953
vn -0.38062399 0.10360608 0.91890759
vn -0.70710678 0.0000000e+0 0.70710678
vn -0.70330142 0.10360608 0.70330142
vn -0.91890759 0.10360608 0.38062399
vn -0.92387953 0.0000000e+0 0.38268343
vn -0.70710678 0.0000000e+0 0.70710678
vn -0.70330142 0.10360608 0.70330142
vn -0.91890759 0.10360608 0.38062399
vn -1.00000000 0.0000000e+0 0.0000000e+0
vn -0.92387953 0.0000000e+0 0.38268343
vn -0.99461841 0.10360608 0.0000000e+0
vn -1.00000000 0.0000000e+0 0.0000000e+0
vn -0.91890759 0.10360608 -0.38062399
vn -0.99461841 0.10360608 0.0000000e+0
vn -0.92387953 0.0000000e+0 -0.38268343
vn -0.91890759 0.10360608 -0.38062399
vn -0.70710678 0.0000000e+0 -0.70710678
vn -0.92387953 0.0000000e+0 -0.38268343
vn -0.70330142 0.10360608 -0.70330142
vn -0.70710678 0.0000000e+0 -0.70710678
vn -0.38062399 0.10360608 -0.91890759
vn -0.70330142 0.10360608 -0.70330142
vn -0.38268343 0.0000000e+0 -0.92387953
vn -0.38062399 0.10360608 -0.91890759
vn 0.0000000e+0 0.0000000e+0 -1.00000000
vn -0.38268343 0.0000000e+0 -0.92387953
vn 0.0000000e+0 0.10360608 -0.99461841
vn 0.0000000e+0 0.0000000e+0 -1.00000000
vn 0.0000000e+0 0.10360608 -0.99461841
vn 0.38268343 0.0000000e+0 -0.92387953
vn 0.38062399 0.10360608 -0.91890759
vn 0.70330142 0.10360608 -0.70330142
vn 0.38268343 0.0000000e+0 -0.92387953
vn 0.70710678 0.0000000e+0 -0.70710678
vn 0.38062399 0.10360608 -0.91890759
vn 0.92387953 0.0000000e+0 -0.38268343
vn 0.70330142 0.10360608 -0.70330142
vn 0.91890759 0.10360608 -0.38062399
vn 0.70710678 0.0000000e+0 -0.70710678
vn 0.92387953 0.0000000e+0 -0.38268343
vn 1.00000000 0.0000000e+0 0.0000000e+0
vn 0.0000000e+0 -1.00000000 7.6205644e-17
vn 0.92387953 0.0000000e+0 0.38268343
vn 1.00000000 0.0000000e+0 0.0000000e+0
vn 0.0000000e+0 -1.00000000 7.6205644e-17
vn 0.92387953 0.0000000e+0 0.38268343
vn 0.70710678 0.0000000e+0 0.70710678
vn 0.0000000e+0 -1.00000000 7.6205644e-17
vn 0.38268343 0.0000000e+0 0.92387953
vn 0.70710678 0.0000000e+0 0.70710678
vn 0.0000000e+0 -1.00000000 7.6205644e-17
vn 0.38268343 0.0000000e+0 0.92387953
vn 0.0000000e+0 0.0000000e+0 1.00000000
vn 0.0000000e+0 -1.00000000 7.6205644e-17
vn -0.38268343 0.0000000e+0 0.92387953
vn 0.0000000e+0 0.0000000e+0 1.00000000
vn 0.0000000e+0 -1.00000000 7.6205644e-17
vn -0.38268343 0.0000000e+0 0.92387953
vn -0.70710678 0.0000000e+0 0.70710678
vn 0.0000000e+0 -1.00000000 7.6205644e-17
vn -0.92387953 0.0000000e+0 0.38268343
vn -0.70710678 0.0000000e+0 0.70710678
vn 0.0000000e+0 -1.00000000 7.6205644e-17
vn -1.00000000 0.0000000e+0 0.0000000e+0
vn -0.92387953 0.0000000e+0 0.38268343
vn 0.0000000e+0 -1.00000000 7.6205644e-17
vn -1.00000000 0.0000000e+0 0.0000000e+0
vn -0.92387953 0.0000000e+0 -0.38268343
vn 0.0000000e+0 -1.00000000 7.6205644e-17
vn -0.70710678 0.0000000e+0 -0.70710678
vn -0.92387953 0.0000000e+0 -0.38268343
vn 0.0000000e+0 -1.00000000 7.6205644e-17
vn -0.70710678 0.0000000e+0 -0.70710678
vn -0.38268343 0.0000000e+0 -0.92387953
vn 0.0000000e+0 -1.00000000 7.6205644e-17
vn 0.0000000e+0 0.0000000e+0 -1.00000000
vn -0.38268343 0.0000000e+0 -0.92387953
vn 0.0000000e+0 -1.00000000 7.6205644e-17
vn 0.0000000e+0 0.0000000e+0 -1.00000000
vn 0.38268343 0.0000000e+0 -0.92387953
vn 0.0000000e+0 -1.00000000 7.6205644e-17
vn 0.38268343 0.0000000e+0 -0.92387953
vn 0.70710678 0.0000000e+0 -0.70710678
vn 0.0000000e+0 -1.00000000 7.6205644e-17
vn 0.92387953 0.0000000e+0 -0.38268343
vn 0.70710678 0.0000000e+0 -0.70710678
vn 0.0000000e+0 -1.00000000 7.6205644e-17
vn 0.99461841 0.10360608 0.0000000e+0
vn 0.91890759 0.10360608 0.38062399
vn 0.0000000e+0 1.00000000 9.9226099e-18
vn 0.99461841 0.10360608 0.0000000e+0
vn 0.91890759 0.10360608 -0.38062399
vn 0.0000000e+0 1.00000000 9.9226099e-18
vn 0.70330142 0.10360608 -0.70330142
vn 0.91890759 0.10360608 -0.38062399
vn 0.0000000e+0 1.00000000 9.9226099e-18
vn 0.70330142 0.10360608 -0.70330142
vn 0.0000000e+0 1.00000000 9.9226099e-18
vn 0.38062399 0.10360608 -0.91890759
vn 0.0000000e+0 0.10360608 -0.99461841
vn 0.0000000e+0 1.00000000 9.9226099e-18
vn 0.38062399 0.10360608 -0.91890759
vn -0.38062399 0.10360608 -0.91890759
vn 0.0000000e+0 0.10360608 -0.99461841
vn 0.0000000e+0 1.00000000 9.9226099e-18
vn -0.38062399 0.10360608 -0.91890759
vn -0.70330142 0.10360608 -0.70330142
vn 0.0000000e+0 1.00000000 9.9226099e-18
vn -0.91890759 0.10360608 -0.38062399
vn -0.70330142 0.10360608 -0.70330142
vn 0.0000000e+0 1.00000000 9.9226099e-18
vn -0.91890759 0.10360608 -0.38062399
vn -0.99461841 0.10360608 0.0000000e+0
vn 0.0000000e+0 1.00000000 9.9226099e-18
vn -0.91890759 0.10360608 0.38062399
vn -0.99461841 0.10360608 0.0000000e+0
vn 0.0000000e+0 1.00000000 9.9226099e-18
vn -0.91890759 0.10360608 0.38062399
vn 0.0000000e+0 1.00000000 9.9226099e-18
vn -0.70330142 0.10360608 0.70330142
vn -0.38062399 0.10360608 0.91890759
vn 0.0000000e+0 1.00000000 9.9226099e-18
vn -0.70330142 0.10360608 0.70330142
vn 0.0000000e+0 0.10360608 0.99461841
vn -0.38062399 0.10360608 0.91890759
vn 0.0000000e+0 1.00000000 9.9226099e-18
vn 0.0000000e+0 0.10360608 0.99461841
vn 0.38062399 0.10360608 0.91890759
vn 0.0000000e+0 1.00000000 9.9226099e-18
vn 0.70330142 0.10360608 0.70330142
vn 0.38062399 0.10360608 0.91890759
vn 0.0000000e+0 1.00000000 9.9226099e-18
vn 0.70330142 0.10360608 0.70330142
vn 0.91890759 0.10360608 0.38062399
vn 0.0000000e+0 1.00000000 9.9226099e-18
g collider
usemtl default2
s 1
f 1//1 17//65 32//110 16//61
f 3//9 19//71 18//68 2//6
f 5//17 21//77 20//74 4//14
f 7//25 23//83 22//80 6//22
f 9//35 25//90 24//86 8//30
f 11//43 27//96 26//93 10//40
f 14//53 30//104 29//101 13//50
f 34//118 35//121 36//123 37//126 38//130 39//133 40//136 41//139 42//142 43//144 44//147 45//151 46//154 47//157 48//160 33//115
s 2
f 2//7 18//69 17//66 1//3
f 3//10 48//158 47//155 4//13
f 5//18 46//152 45//149 6//21
f 7//28 44//148 43//145 8//32
f 10//37 26//92 25//89 9//34
f 10//38 41//137 40//134 11//41
f 12//45 28//98 27//95 11//42
f 12//46 39//131 38//128 13//49
f 14//56 37//127 36//124 15//60
f 16//64 32//111 31//108 15//59
f 16//63 35//120 34//117 1//4
s 3
f 1//2 34//116 33//113 2//5
f 4//15 20//75 19//72 3//12
f 4//16 47//156 46//153 5//19
f 6//23 22//81 21//78 5//20
f 6//24 45//150 44//146 7//26
f 8//31 24//87 23//84 7//27
f 8//29 43//143 42//140 9//33
f 11//44 40//135 39//132 12//47
f 13//51 29//102 28//99 12//48
f 13//52 38//129 37//125 14//54
f 15//58 31//107 30//105 14//55
f 15//57 36//122 35//119 16//62
s 4
f 2//8 33//114 48//159 3//11
f 9//36 42//141 41//138 10//39
f 18//70 19//73 20//76 21//79 22//82 23//85 24//88 25//91 26//94 27//97 28//100 29//103 30//106 31//109 32//112 17//67
