# Exported from Wings 3D 1.5.4
mtllib libra_lv_engine_s0_1_pupper.mtl
o mesh1
#16 vertices, 9 faces
v 1.2500000e-2 1.7218911e-17 0.20000000
v 8.8388348e-3 -8.8388348e-3 0.20000000
v 2.1098149e-18 -1.2500000e-2 0.20000000
v -8.8388348e-3 -8.8388348e-3 0.20000000
v -1.2500000e-2 1.5688103e-17 0.20000000
v -8.8388348e-3 8.8388348e-3 0.20000000
v -9.5180205e-19 1.2500000e-2 0.20000000
v 8.8388348e-3 8.8388348e-3 0.20000000
v 1.2500000e-2 1.5688103e-17 -1.3877788e-17
v 8.8388348e-3 -8.8388348e-3 -1.3877788e-17
v 2.1098149e-18 -1.2500000e-2 0.0000000e+0
v -8.8388348e-3 -8.8388348e-3 -1.3877788e-17
v -1.2500000e-2 1.4157294e-17 -1.3877788e-17
v -8.8388348e-3 8.8388348e-3 -1.3877788e-17
v -9.5180205e-19 1.2500000e-2 -1.3877788e-17
v 8.8388348e-3 8.8388348e-3 -1.3877788e-17
vt 0.97252571 0.88912947
vt 0.97252571 0.92819197
vt 0.97252571 0.88912947
vt 0.97252571 0.92819197
vt 0.97390270 0.93065665
vt 0.97439429 0.88912947
vt 0.97439429 0.92819197
vt 0.97439429 0.92819197
vt 0.97461778 0.92893032
vt 0.97461778 0.93238299
vt 0.97626286 0.88912947
vt 0.97626286 0.92819197
vt 0.97626286 0.92819197
vt 0.97634411 0.92821525
vt 0.97634411 0.93309806
vt 0.97807045 0.92893032
vt 0.97807045 0.93238299
vt 0.97813143 0.88912947
vt 0.97813143 0.92819197
vt 0.97813143 0.92819197
vt 0.97878552 0.93065665
vt 0.98000000 0.88912947
vt 0.98000000 0.92819197
vn 1.00000000 9.0127256e-17 9.5830839e-19
vn 0.70710678 -0.70710678 9.5830839e-18
vn 6.0084837e-17 -1.00000000 1.1499701e-17
vn -0.70710678 -0.70710678 6.7081587e-18
vn -1.00000000 -1.8025451e-16 -9.5830839e-19
vn -0.70710678 0.70710678 -9.5830839e-18
vn -1.2016967e-16 1.00000000 -1.1499701e-17
vn 0.70710678 0.70710678 -6.7081587e-18
vn 0.0000000e+0 5.5511151e-16 1.00000000
vn 1.00000000 9.0127256e-17 9.5830839e-19
vn 1.00000000 9.0127256e-17 9.5830839e-19
vn 0.0000000e+0 5.5511151e-16 1.00000000
vn 0.70710678 -0.70710678 9.5830839e-18
vn 0.70710678 -0.70710678 9.5830839e-18
vn 0.0000000e+0 5.5511151e-16 1.00000000
vn 6.0084837e-17 -1.00000000 1.1499701e-17
vn 6.0084837e-17 -1.00000000 1.1499701e-17
vn 0.0000000e+0 5.5511151e-16 1.00000000
vn -0.70710678 -0.70710678 6.7081587e-18
vn -0.70710678 -0.70710678 6.7081587e-18
vn 0.0000000e+0 5.5511151e-16 1.00000000
vn -1.00000000 -1.8025451e-16 -9.5830839e-19
vn -1.00000000 -1.8025451e-16 -9.5830839e-19
vn 0.0000000e+0 5.5511151e-16 1.00000000
vn -0.70710678 0.70710678 -9.5830839e-18
vn -0.70710678 0.70710678 -9.5830839e-18
vn 0.0000000e+0 5.5511151e-16 1.00000000
vn -1.2016967e-16 1.00000000 -1.1499701e-17
vn -1.2016967e-16 1.00000000 -1.1499701e-17
vn 0.0000000e+0 5.5511151e-16 1.00000000
vn 0.70710678 0.70710678 -6.7081587e-18
vn 0.70710678 0.70710678 -6.7081587e-18
g mesh1
usemtl mesh1_auv
s 1
f 1/21/9 8/17/30 7/15/27 6/10/24 5/5/21 4/9/18 3/14/15 2/16/12
s 2
f 1/12/10 9/11/1 16/18/8 8/19/31
f 2/7/14 10/6/2 9/11/1 1/12/11
f 3/2/17 11/1/3 10/6/2 2/7/13
f 4/8/20 12/6/4 11/3/3 3/4/16
f 5/13/23 13/11/5 12/6/4 4/8/19
f 6/20/26 14/18/6 13/11/5 5/13/22
f 7/23/29 15/22/7 14/18/6 6/20/25
f 8/19/32 16/18/8 15/22/7 7/23/28
