# Exported from Wings 3D 1.5.4
mtllib libra_lv_engine_s0_3_pupper.mtl
o mesh2
#16 vertices, 9 faces
v 1.2500000e-2 1.7218911e-17 0.20000000
v 8.8388348e-3 -8.8388348e-3 0.20000000
v 2.1098149e-18 -1.2500000e-2 0.20000000
v -8.8388348e-3 -8.8388348e-3 0.20000000
v -1.2500000e-2 1.5688103e-17 0.20000000
v -8.8388348e-3 8.8388348e-3 0.20000000
v -9.5180205e-19 1.2500000e-2 0.20000000
v 8.8388348e-3 8.8388348e-3 0.20000000
v 1.2500000e-2 1.5688103e-17 -1.3877788e-17
v 8.8388348e-3 -8.8388348e-3 -1.3877788e-17
v 2.1098149e-18 -1.2500000e-2 0.0000000e+0
v -8.8388348e-3 -8.8388348e-3 -1.3877788e-17
v -1.2500000e-2 1.4157294e-17 -1.3877788e-17
v -8.8388348e-3 8.8388348e-3 -1.3877788e-17
v -9.5180205e-19 1.2500000e-2 -1.3877788e-17
v 8.8388348e-3 8.8388348e-3 -1.3877788e-17
vt 0.15854071 6.1414898e-2
vt 0.15854071 0.10047740
vt 0.15854071 6.1414898e-2
vt 0.15854071 0.10047740
vt 0.15991770 0.10294208
vt 0.16040928 6.1414898e-2
vt 0.16040928 0.10047740
vt 0.16040928 0.10047740
vt 0.16063277 0.10121574
vt 0.16063277 0.10466841
vt 0.16227785 6.1414898e-2
vt 0.16227785 0.10047740
vt 0.16227785 0.10047740
vt 0.16235910 0.10050067
vt 0.16235910 0.10538348
vt 0.16408544 0.10121574
vt 0.16408544 0.10466841
vt 0.16414642 6.1414898e-2
vt 0.16414642 0.10047740
vt 0.16414642 0.10047740
vt 0.16480051 0.10294208
vt 0.16601499 6.1414898e-2
vt 0.16601499 0.10047740
vn 1.00000000 9.0127256e-17 9.5830839e-19
vn 0.70710678 -0.70710678 9.5830839e-18
vn 6.0084837e-17 -1.00000000 1.1499701e-17
vn -0.70710678 -0.70710678 6.7081587e-18
vn -1.00000000 -1.8025451e-16 -9.5830839e-19
vn -0.70710678 0.70710678 -9.5830839e-18
vn -1.2016967e-16 1.00000000 -1.1499701e-17
vn 0.70710678 0.70710678 -6.7081587e-18
vn 0.0000000e+0 5.5511151e-16 1.00000000
vn 1.00000000 9.0127256e-17 9.5830839e-19
vn 1.00000000 9.0127256e-17 9.5830839e-19
vn 0.0000000e+0 5.5511151e-16 1.00000000
vn 0.70710678 -0.70710678 9.5830839e-18
vn 0.70710678 -0.70710678 9.5830839e-18
vn 0.0000000e+0 5.5511151e-16 1.00000000
vn 6.0084837e-17 -1.00000000 1.1499701e-17
vn 6.0084837e-17 -1.00000000 1.1499701e-17
vn 0.0000000e+0 5.5511151e-16 1.00000000
vn -0.70710678 -0.70710678 6.7081587e-18
vn -0.70710678 -0.70710678 6.7081587e-18
vn 0.0000000e+0 5.5511151e-16 1.00000000
vn -1.00000000 -1.8025451e-16 -9.5830839e-19
vn -1.00000000 -1.8025451e-16 -9.5830839e-19
vn 0.0000000e+0 5.5511151e-16 1.00000000
vn -0.70710678 0.70710678 -9.5830839e-18
vn -0.70710678 0.70710678 -9.5830839e-18
vn 0.0000000e+0 5.5511151e-16 1.00000000
vn -1.2016967e-16 1.00000000 -1.1499701e-17
vn -1.2016967e-16 1.00000000 -1.1499701e-17
vn 0.0000000e+0 5.5511151e-16 1.00000000
vn 0.70710678 0.70710678 -6.7081587e-18
vn 0.70710678 0.70710678 -6.7081587e-18
g mesh2
usemtl mesh2_auv
s 1
f 1/21/9 8/17/30 7/15/27 6/10/24 5/5/21 4/9/18 3/14/15 2/16/12
s 2
f 1/12/10 9/11/1 16/18/8 8/19/31
f 2/7/14 10/6/2 9/11/1 1/12/11
f 3/2/17 11/1/3 10/6/2 2/7/13
f 4/8/20 12/6/4 11/3/3 3/4/16
f 5/13/23 13/11/5 12/6/4 4/8/19
f 6/20/26 14/18/6 13/11/5 5/13/22
f 7/23/29 15/22/7 14/18/6 6/20/25
f 8/19/32 16/18/8 15/22/7 7/23/28
