# Exported from Wings 3D 1.5.4
mtllib libra_lv_engine_s0_1_plower.mtl
o mesh1
#16 vertices, 9 faces
v 9.3750000e-3 1.7303197e-17 0.20000000
v 6.6291261e-3 -6.6291261e-3 0.20000000
v 1.5552562e-18 -9.3750000e-3 0.20000000
v -6.6291261e-3 -6.6291261e-3 0.20000000
v -9.3750000e-3 1.6155091e-17 0.20000000
v -6.6291261e-3 6.6291261e-3 0.20000000
v -7.4095660e-19 9.3750000e-3 0.20000000
v 6.6291261e-3 6.6291261e-3 0.20000000
v 9.3750000e-3 1.6155091e-17 -1.3877788e-17
v 6.6291261e-3 -6.6291261e-3 -1.3877788e-17
v 1.5552562e-18 -9.3750000e-3 0.0000000e+0
v -6.6291261e-3 -6.6291261e-3 -1.3877788e-17
v -9.3750000e-3 1.5006984e-17 -1.3877788e-17
v -6.6291261e-3 6.6291261e-3 -1.3877788e-17
v -7.4095660e-19 9.3750000e-3 -1.3877788e-17
v 6.6291261e-3 6.6291261e-3 -1.3877788e-17
vt 0.97252571 0.94084476
vt 0.97252571 0.97990726
vt 0.97252571 0.94084476
vt 0.97252571 0.97990726
vt 0.97390270 0.93803962
vt 0.97439429 0.94084476
vt 0.97439429 0.97990726
vt 0.97439429 0.94084476
vt 0.97461778 0.93631329
vt 0.97461778 0.93976596
vt 0.97626286 0.94084476
vt 0.97626286 0.97990726
vt 0.97626286 0.94084476
vt 0.97634411 0.93559822
vt 0.97634411 0.94048103
vt 0.97807045 0.93631329
vt 0.97807045 0.93976596
vt 0.97813143 0.94084476
vt 0.97813143 0.97990726
vt 0.97813143 0.94084476
vt 0.97878552 0.93803962
vt 0.98000000 0.94084476
vt 0.98000000 0.97990726
vn 1.00000000 9.0127256e-17 6.3887226e-19
vn 0.70710678 -0.70710678 7.0275948e-18
vn 1.5021209e-16 -1.00000000 8.3053393e-18
vn -0.70710678 -0.70710678 4.4721058e-18
vn -1.00000000 -1.2016967e-16 -1.2777445e-18
vn -0.70710678 0.70710678 -7.6664671e-18
vn -1.2016967e-16 1.00000000 -8.9442116e-18
vn 0.70710678 0.70710678 -5.1109781e-18
vn 0.0000000e+0 7.4014868e-16 1.00000000
vn 1.00000000 9.0127256e-17 6.3887226e-19
vn 1.00000000 9.0127256e-17 6.3887226e-19
vn 0.0000000e+0 7.4014868e-16 1.00000000
vn 0.70710678 -0.70710678 7.0275948e-18
vn 0.70710678 -0.70710678 7.0275948e-18
vn 0.0000000e+0 7.4014868e-16 1.00000000
vn 1.5021209e-16 -1.00000000 8.3053393e-18
vn 1.5021209e-16 -1.00000000 8.3053393e-18
vn 0.0000000e+0 7.4014868e-16 1.00000000
vn -0.70710678 -0.70710678 4.4721058e-18
vn -0.70710678 -0.70710678 4.4721058e-18
vn 0.0000000e+0 7.4014868e-16 1.00000000
vn -1.00000000 -1.2016967e-16 -1.2777445e-18
vn -1.00000000 -1.2016967e-16 -1.2777445e-18
vn 0.0000000e+0 7.4014868e-16 1.00000000
vn -0.70710678 0.70710678 -7.6664671e-18
vn -0.70710678 0.70710678 -7.6664671e-18
vn 0.0000000e+0 7.4014868e-16 1.00000000
vn -1.2016967e-16 1.00000000 -8.9442116e-18
vn -1.2016967e-16 1.00000000 -8.9442116e-18
vn 0.0000000e+0 7.4014868e-16 1.00000000
vn 0.70710678 0.70710678 -5.1109781e-18
vn 0.70710678 0.70710678 -5.1109781e-18
g mesh1
usemtl mesh1_auv
s 1
f 1/21/9 8/16/30 7/14/27 6/9/24 5/5/21 4/10/18 3/15/15 2/17/12
s 2
f 1/11/10 9/12/1 16/19/8 8/18/31
f 2/6/14 10/7/2 9/12/1 1/11/11
f 3/1/17 11/2/3 10/7/2 2/6/13
f 4/8/20 12/7/4 11/4/3 3/3/16
f 5/13/23 13/12/5 12/7/4 4/8/19
f 6/20/26 14/19/6 13/12/5 5/13/22
f 7/22/29 15/23/7 14/19/6 6/20/25
f 8/18/32 16/19/8 15/23/7 7/22/28
