# Exported from Wings 3D 1.5.4
mtllib alnair_us_fuel_tank_s2_s1_1_collider.mtl
o collider
#48 vertices, 38 faces
v 0.62500000 1.37500000 -0.16746825
v 0.62500000 1.37500000 0.16746825
v 0.45753175 1.37500000 0.45753175
v 0.16746825 1.37500000 0.62500000
v -0.16746825 1.37500000 0.62500000
v -0.45753175 1.37500000 0.45753175
v -0.62500000 1.37500000 0.16746825
v -0.62500000 1.37500000 -0.16746825
v -0.45753175 1.37500000 -0.45753175
v -0.16746825 1.37500000 -0.62500000
v 0.16746825 1.37500000 -0.62500000
v 0.45753175 1.37500000 -0.45753175
v 0.62500000 -1.37500000 -0.16746825
v 0.62500000 -1.37500000 0.16746825
v 0.45753175 -1.37500000 0.45753175
v 0.16746825 -1.37500000 0.62500000
v -0.16746825 -1.37500000 0.62500000
v -0.45753175 -1.37500000 0.45753175
v -0.62500000 -1.37500000 0.16746825
v -0.62500000 -1.37500000 -0.16746825
v -0.45753175 -1.37500000 -0.45753175
v -0.16746825 -1.37500000 -0.62500000
v 0.16746825 -1.37500000 -0.62500000
v 0.45753175 -1.37500000 -0.45753175
v 0.82355716 0.73750000 -0.82355716
v 0.30144284 0.73750000 -1.12500000
v -0.30144284 0.73750000 -1.12500000
v -0.82355716 0.73750000 -0.82355716
v -1.12500000 0.73750000 -0.30144284
v -1.12500000 0.73750000 0.30144284
v -0.82355716 0.73750000 0.82355716
v -0.30144284 0.73750000 1.12500000
v 0.30144284 0.73750000 1.12500000
v 0.82355716 0.73750000 0.82355716
v 1.12500000 0.73750000 0.30144284
v 1.12500000 0.73750000 -0.30144284
v 0.97500000 -1.06250000 -0.26125046
v 0.97500000 -1.06250000 0.26125046
v 0.71374954 -1.06250000 0.71374954
v 0.26125046 -1.06250000 0.97500000
v -0.26125046 -1.06250000 0.97500000
v -0.71374954 -1.06250000 0.71374954
v -0.97500000 -1.06250000 0.26125046
v -0.97500000 -1.06250000 -0.26125046
v -0.71374954 -1.06250000 -0.71374954
v -0.26125046 -1.06250000 -0.97500000
v 0.26125046 -1.06250000 -0.97500000
v 0.71374954 -1.06250000 -0.71374954
vn 0.0000000e+0 1.00000000 -1.3258908e-16
vn 0.68143505 0.61713994 -0.39342671
vn 0.78685342 0.61713994 0.0000000e+0
vn 0.0000000e+0 1.00000000 -1.3258908e-16
vn 0.68143505 0.61713994 0.39342671
vn 0.78685342 0.61713994 0.0000000e+0
vn 0.0000000e+0 1.00000000 -1.3258908e-16
vn 0.39342671 0.61713994 0.68143505
vn 0.68143505 0.61713994 0.39342671
vn 0.0000000e+0 1.00000000 -1.3258908e-16
vn -2.9223577e-16 0.61713994 0.78685342
vn 0.39342671 0.61713994 0.68143505
vn 0.0000000e+0 1.00000000 -1.3258908e-16
vn -0.39342671 0.61713994 0.68143505
vn -2.9223577e-16 0.61713994 0.78685342
vn 0.0000000e+0 1.00000000 -1.3258908e-16
vn -0.68143505 0.61713994 0.39342671
vn -0.39342671 0.61713994 0.68143505
vn 0.0000000e+0 1.00000000 -1.3258908e-16
vn -0.78685342 0.61713994 0.0000000e+0
vn -0.68143505 0.61713994 0.39342671
vn 0.0000000e+0 1.00000000 -1.3258908e-16
vn -0.68143505 0.61713994 -0.39342671
vn -0.78685342 0.61713994 0.0000000e+0
vn 0.0000000e+0 1.00000000 -1.3258908e-16
vn -0.39342671 0.61713994 -0.68143505
vn -0.68143505 0.61713994 -0.39342671
vn 0.0000000e+0 1.00000000 -1.3258908e-16
vn 0.0000000e+0 0.61713994 -0.78685342
vn -0.39342671 0.61713994 -0.68143505
vn 0.0000000e+0 1.00000000 -1.3258908e-16
vn 0.39342671 0.61713994 -0.68143505
vn 0.0000000e+0 0.61713994 -0.78685342
vn 0.0000000e+0 1.00000000 -1.3258908e-16
vn 0.68143505 0.61713994 -0.39342671
vn 0.39342671 0.61713994 -0.68143505
vn 0.0000000e+0 -1.00000000 -3.0937452e-16
vn 0.57678658 -0.74593766 -0.33300788
vn 0.66601577 -0.74593766 0.0000000e+0
vn 0.0000000e+0 -1.00000000 -3.0937452e-16
vn 0.57678658 -0.74593766 0.33300788
vn 0.66601577 -0.74593766 0.0000000e+0
vn 0.0000000e+0 -1.00000000 -3.0937452e-16
vn 0.33300788 -0.74593766 0.57678658
vn 0.57678658 -0.74593766 0.33300788
vn 0.0000000e+0 -1.00000000 -3.0937452e-16
vn -4.1393633e-16 -0.74593766 0.66601577
vn 0.33300788 -0.74593766 0.57678658
vn 0.0000000e+0 -1.00000000 -3.0937452e-16
vn -0.33300788 -0.74593766 0.57678658
vn -4.1393633e-16 -0.74593766 0.66601577
vn 0.0000000e+0 -1.00000000 -3.0937452e-16
vn -0.57678658 -0.74593766 0.33300788
vn -0.33300788 -0.74593766 0.57678658
vn 0.0000000e+0 -1.00000000 -3.0937452e-16
vn -0.66601577 -0.74593766 0.0000000e+0
vn -0.57678658 -0.74593766 0.33300788
vn 0.0000000e+0 -1.00000000 -3.0937452e-16
vn -0.57678658 -0.74593766 -0.33300788
vn -0.66601577 -0.74593766 0.0000000e+0
vn 0.0000000e+0 -1.00000000 -3.0937452e-16
vn -0.33300788 -0.74593766 -0.57678658
vn -0.57678658 -0.74593766 -0.33300788
vn 0.0000000e+0 -1.00000000 -3.0937452e-16
vn 0.0000000e+0 -0.74593766 -0.66601577
vn -0.33300788 -0.74593766 -0.57678658
vn 0.0000000e+0 -1.00000000 -3.0937452e-16
vn 0.33300788 -0.74593766 -0.57678658
vn 0.0000000e+0 -0.74593766 -0.66601577
vn 0.0000000e+0 -1.00000000 -3.0937452e-16
vn 0.57678658 -0.74593766 -0.33300788
vn 0.33300788 -0.74593766 -0.57678658
vn 0.68143505 0.61713994 -0.39342671
vn 0.39342671 0.61713994 -0.68143505
vn 0.86303394 -8.3045480e-2 -0.49827288
vn 0.49827288 -8.3045480e-2 -0.86303394
vn 0.39342671 0.61713994 -0.68143505
vn 0.0000000e+0 0.61713994 -0.78685342
vn 0.49827288 -8.3045480e-2 -0.86303394
vn 0.0000000e+0 -8.3045480e-2 -0.99654576
vn 0.0000000e+0 0.61713994 -0.78685342
vn -0.39342671 0.61713994 -0.68143505
vn 0.0000000e+0 -8.3045480e-2 -0.99654576
vn -0.49827288 -8.3045480e-2 -0.86303394
vn -0.39342671 0.61713994 -0.68143505
vn -0.68143505 0.61713994 -0.39342671
vn -0.49827288 -8.3045480e-2 -0.86303394
vn -0.86303394 -8.3045480e-2 -0.49827288
vn -0.68143505 0.61713994 -0.39342671
vn -0.78685342 0.61713994 0.0000000e+0
vn -0.86303394 -8.3045480e-2 -0.49827288
vn -0.99654576 -8.3045480e-2 0.0000000e+0
vn -0.78685342 0.61713994 0.0000000e+0
vn -0.68143505 0.61713994 0.39342671
vn -0.99654576 -8.3045480e-2 0.0000000e+0
vn -0.86303394 -8.3045480e-2 0.49827288
vn -0.68143505 0.61713994 0.39342671
vn -0.39342671 0.61713994 0.68143505
vn -0.86303394 -8.3045480e-2 0.49827288
vn -0.49827288 -8.3045480e-2 0.86303394
vn -0.39342671 0.61713994 0.68143505
vn -2.9223577e-16 0.61713994 0.78685342
vn -0.49827288 -8.3045480e-2 0.86303394
vn -6.0079445e-16 -8.3045480e-2 0.99654576
vn -2.9223577e-16 0.61713994 0.78685342
vn 0.39342671 0.61713994 0.68143505
vn -6.0079445e-16 -8.3045480e-2 0.99654576
vn 0.49827288 -8.3045480e-2 0.86303394
vn 0.39342671 0.61713994 0.68143505
vn 0.68143505 0.61713994 0.39342671
vn 0.49827288 -8.3045480e-2 0.86303394
vn 0.86303394 -8.3045480e-2 0.49827288
vn 0.68143505 0.61713994 0.39342671
vn 0.78685342 0.61713994 0.0000000e+0
vn 0.86303394 -8.3045480e-2 0.49827288
vn 0.99654576 -8.3045480e-2 0.0000000e+0
vn 0.68143505 0.61713994 -0.39342671
vn 0.78685342 0.61713994 0.0000000e+0
vn 0.86303394 -8.3045480e-2 -0.49827288
vn 0.99654576 -8.3045480e-2 0.0000000e+0
vn 0.86303394 -8.3045480e-2 -0.49827288
vn 0.99654576 -8.3045480e-2 0.0000000e+0
vn 0.57678658 -0.74593766 -0.33300788
vn 0.66601577 -0.74593766 0.0000000e+0
vn 0.86303394 -8.3045480e-2 0.49827288
vn 0.99654576 -8.3045480e-2 0.0000000e+0
vn 0.57678658 -0.74593766 0.33300788
vn 0.66601577 -0.74593766 0.0000000e+0
vn 0.49827288 -8.3045480e-2 0.86303394
vn 0.86303394 -8.3045480e-2 0.49827288
vn 0.33300788 -0.74593766 0.57678658
vn 0.57678658 -0.74593766 0.33300788
vn -6.0079445e-16 -8.3045480e-2 0.99654576
vn 0.49827288 -8.3045480e-2 0.86303394
vn -4.1393633e-16 -0.74593766 0.66601577
vn 0.33300788 -0.74593766 0.57678658
vn -0.49827288 -8.3045480e-2 0.86303394
vn -6.0079445e-16 -8.3045480e-2 0.99654576
vn -0.33300788 -0.74593766 0.57678658
vn -4.1393633e-16 -0.74593766 0.66601577
vn -0.86303394 -8.3045480e-2 0.49827288
vn -0.49827288 -8.3045480e-2 0.86303394
vn -0.57678658 -0.74593766 0.33300788
vn -0.33300788 -0.74593766 0.57678658
vn -0.99654576 -8.3045480e-2 0.0000000e+0
vn -0.86303394 -8.3045480e-2 0.49827288
vn -0.66601577 -0.74593766 0.0000000e+0
vn -0.57678658 -0.74593766 0.33300788
vn -0.86303394 -8.3045480e-2 -0.49827288
vn -0.99654576 -8.3045480e-2 0.0000000e+0
vn -0.57678658 -0.74593766 -0.33300788
vn -0.66601577 -0.74593766 0.0000000e+0
vn -0.49827288 -8.3045480e-2 -0.86303394
vn -0.86303394 -8.3045480e-2 -0.49827288
vn -0.33300788 -0.74593766 -0.57678658
vn -0.57678658 -0.74593766 -0.33300788
vn 0.0000000e+0 -8.3045480e-2 -0.99654576
vn -0.49827288 -8.3045480e-2 -0.86303394
vn 0.0000000e+0 -0.74593766 -0.66601577
vn -0.33300788 -0.74593766 -0.57678658
vn 0.49827288 -8.3045480e-2 -0.86303394
vn 0.0000000e+0 -8.3045480e-2 -0.99654576
vn 0.33300788 -0.74593766 -0.57678658
vn 0.0000000e+0 -0.74593766 -0.66601577
vn 0.86303394 -8.3045480e-2 -0.49827288
vn 0.49827288 -8.3045480e-2 -0.86303394
vn 0.57678658 -0.74593766 -0.33300788
vn 0.33300788 -0.74593766 -0.57678658
g collider_default
usemtl default
s 1
f 1//2 36//117 25//73 12//35
f 3//9 34//110 35//113 2//5
f 6//18 31//98 32//101 5//14
f 10//30 27//82 28//85 9//26
f 13//39 37//124 38//128 14//42
f 15//44 39//131 40//136 16//48
f 17//50 41//139 42//144 18//54
f 20//59 44//151 45//156 21//63
f 23//68 47//163 48//168 24//72
f 41//138 40//133 33//107 32//104
f 44//150 43//145 30//95 29//92
f 47//162 46//157 27//83 26//80
s 2
f 2//6 35//114 36//118 1//3
f 5//15 32//102 33//105 4//11
f 9//27 28//86 29//89 8//23
f 11//33 26//78 27//81 10//29
f 14//41 38//127 39//132 15//45
f 16//47 40//135 41//140 17//51
f 19//56 43//147 44//152 20//60
f 22//65 46//159 47//164 23//69
f 25//75 36//119 37//121 48//165
f 40//134 39//129 34//111 33//108
f 43//146 42//141 31//99 30//96
f 46//158 45//153 28//87 27//84
s 3
f 1//1 12//34 11//31 10//28 9//25 8//22 7//19 6//16 5//13 4//10 3//7 2//4
f 18//53 42//143 43//148 19//57
f 21//62 45//155 46//160 22//66
f 24//71 48//167 37//123 13//38
f 39//130 38//125 35//115 34//112
f 42//142 41//137 32//103 31//100
f 45//154 44//149 29//91 28//88
f 48//166 47//161 26//79 25//76
s 4
f 4//12 33//106 34//109 3//8
f 8//24 29//90 30//93 7//20
f 12//36 25//74 26//77 11//32
f 14//40 15//43 16//46 17//49 18//52 19//55 20//58 21//61 22//64 23//67 24//70 13//37
f 38//126 37//122 36//120 35//116
s 5
f 7//21 30//94 31//97 6//17
