# Exported from Wings 3D 1.5.4
mtllib TLV_1_LFO_2_Collider.mtl
o TLV_1_LFO_2_Collider
#48 vertices, 34 faces
v 0.62500000 2.87250000 -0.12432023
v 0.62500000 2.87250000 0.12432023
v 0.52984942 2.87250000 0.35403406
v 0.35403406 2.87250000 0.52984942
v 0.12432023 2.87250000 0.62500000
v -0.12432023 2.87250000 0.62500000
v -0.35403406 2.87250000 0.52984942
v -0.52984942 2.87250000 0.35403406
v -0.62500000 2.87250000 0.12432023
v -0.62500000 2.87250000 -0.12432023
v -0.52984942 2.87250000 -0.35403406
v -0.35403406 2.87250000 -0.52984942
v -0.12432023 2.87250000 -0.62500000
v 0.12432023 2.87250000 -0.62500000
v 0.35403406 2.87250000 -0.52984942
v 0.52984942 2.87250000 -0.35403406
v 0.62500000 -2.87250000 -0.12432023
v 0.62500000 -2.87250000 0.12432023
v 0.52984942 -2.87250000 0.35403406
v 0.35403406 -2.87250000 0.52984942
v 0.12432023 -2.87250000 0.62500000
v -0.12432023 -2.87250000 0.62500000
v -0.35403406 -2.87250000 0.52984942
v -0.52984942 -2.87250000 0.35403406
v -0.62500000 -2.87250000 0.12432023
v -0.62500000 -2.87250000 -0.12432023
v -0.52984942 -2.87250000 -0.35403406
v -0.35403406 -2.87250000 -0.52984942
v -0.12432023 -2.87250000 -0.62500000
v 0.12432023 -2.87250000 -0.62500000
v 0.35403406 -2.87250000 -0.52984942
v 0.52984942 -2.87250000 -0.35403406
v 0.71529671 -0.28250000 -0.47794598
v 0.47794598 -0.28250000 -0.71529671
v 0.16783231 -0.28250000 -0.84375000
v -0.16783231 -0.28250000 -0.84375000
v -0.47794598 -0.28250000 -0.71529671
v -0.71529671 -0.28250000 -0.47794598
v -0.84375000 -0.28250000 -0.16783231
v -0.84375000 -0.28250000 0.16783231
v -0.71529671 -0.28250000 0.47794598
v -0.47794598 -0.28250000 0.71529671
v -0.16783231 -0.28250000 0.84375000
v 0.16783231 -0.28250000 0.84375000
v 0.47794598 -0.28250000 0.71529671
v 0.71529671 -0.28250000 0.47794598
v 0.84375000 -0.28250000 0.16783231
v 0.84375000 -0.28250000 -0.16783231
vn 0.0000000e+0 1.00000000 -8.9303489e-17
vn 0.92166684 6.9168334e-2 -0.38176691
vn 0.99760500 6.9168334e-2 0.0000000e+0
vn 0.0000000e+0 1.00000000 -8.9303489e-17
vn 0.92166684 6.9168334e-2 0.38176691
vn 0.99760500 6.9168334e-2 0.0000000e+0
vn 0.0000000e+0 1.00000000 -8.9303489e-17
vn 0.70541326 6.9168334e-2 0.70541326
vn 0.92166684 6.9168334e-2 0.38176691
vn 0.0000000e+0 1.00000000 -8.9303489e-17
vn 0.38176691 6.9168334e-2 0.92166684
vn 0.70541326 6.9168334e-2 0.70541326
vn 0.0000000e+0 1.00000000 -8.9303489e-17
vn 0.0000000e+0 6.9168334e-2 0.99760500
vn 0.38176691 6.9168334e-2 0.92166684
vn 0.0000000e+0 1.00000000 -8.9303489e-17
vn -0.38176691 6.9168334e-2 0.92166684
vn 0.0000000e+0 6.9168334e-2 0.99760500
vn 0.0000000e+0 1.00000000 -8.9303489e-17
vn -0.70541326 6.9168334e-2 0.70541326
vn -0.38176691 6.9168334e-2 0.92166684
vn 0.0000000e+0 1.00000000 -8.9303489e-17
vn -0.92166684 6.9168334e-2 0.38176691
vn -0.70541326 6.9168334e-2 0.70541326
vn 0.0000000e+0 1.00000000 -8.9303489e-17
vn -0.99760500 6.9168334e-2 0.0000000e+0
vn -0.92166684 6.9168334e-2 0.38176691
vn 0.0000000e+0 1.00000000 -8.9303489e-17
vn -0.92166684 6.9168334e-2 -0.38176691
vn -0.99760500 6.9168334e-2 0.0000000e+0
vn 0.0000000e+0 1.00000000 -8.9303489e-17
vn -0.70541326 6.9168334e-2 -0.70541326
vn -0.92166684 6.9168334e-2 -0.38176691
vn 0.0000000e+0 1.00000000 -8.9303489e-17
vn -0.38176691 6.9168334e-2 -0.92166684
vn -0.70541326 6.9168334e-2 -0.70541326
vn 0.0000000e+0 1.00000000 -8.9303489e-17
vn 0.0000000e+0 6.9168334e-2 -0.99760500
vn -0.38176691 6.9168334e-2 -0.92166684
vn 0.0000000e+0 1.00000000 -8.9303489e-17
vn 0.38176691 6.9168334e-2 -0.92166684
vn 0.0000000e+0 6.9168334e-2 -0.99760500
vn 0.0000000e+0 1.00000000 -8.9303489e-17
vn 0.70541326 6.9168334e-2 -0.70541326
vn 0.38176691 6.9168334e-2 -0.92166684
vn 0.0000000e+0 1.00000000 -8.9303489e-17
vn 0.92166684 6.9168334e-2 -0.38176691
vn 0.70541326 6.9168334e-2 -0.70541326
vn 0.0000000e+0 -1.00000000 -2.6791047e-16
vn 0.92060186 -8.4159820e-2 -0.38132577
vn 0.99645227 -8.4159820e-2 0.0000000e+0
vn 0.0000000e+0 -1.00000000 -2.6791047e-16
vn 0.92060186 -8.4159820e-2 0.38132577
vn 0.99645227 -8.4159820e-2 0.0000000e+0
vn 0.0000000e+0 -1.00000000 -2.6791047e-16
vn 0.70459816 -8.4159820e-2 0.70459816
vn 0.92060186 -8.4159820e-2 0.38132577
vn 0.0000000e+0 -1.00000000 -2.6791047e-16
vn 0.38132577 -8.4159820e-2 0.92060186
vn 0.70459816 -8.4159820e-2 0.70459816
vn 0.0000000e+0 -1.00000000 -2.6791047e-16
vn 0.0000000e+0 -8.4159820e-2 0.99645227
vn 0.38132577 -8.4159820e-2 0.92060186
vn 0.0000000e+0 -1.00000000 -2.6791047e-16
vn -0.38132577 -8.4159820e-2 0.92060186
vn 0.0000000e+0 -8.4159820e-2 0.99645227
vn 0.0000000e+0 -1.00000000 -2.6791047e-16
vn -0.70459816 -8.4159820e-2 0.70459816
vn -0.38132577 -8.4159820e-2 0.92060186
vn 0.0000000e+0 -1.00000000 -2.6791047e-16
vn -0.92060186 -8.4159820e-2 0.38132577
vn -0.70459816 -8.4159820e-2 0.70459816
vn 0.0000000e+0 -1.00000000 -2.6791047e-16
vn -0.99645227 -8.4159820e-2 0.0000000e+0
vn -0.92060186 -8.4159820e-2 0.38132577
vn 0.0000000e+0 -1.00000000 -2.6791047e-16
vn -0.92060186 -8.4159820e-2 -0.38132577
vn -0.99645227 -8.4159820e-2 0.0000000e+0
vn 0.0000000e+0 -1.00000000 -2.6791047e-16
vn -0.70459816 -8.4159820e-2 -0.70459816
vn -0.92060186 -8.4159820e-2 -0.38132577
vn 0.0000000e+0 -1.00000000 -2.6791047e-16
vn -0.38132577 -8.4159820e-2 -0.92060186
vn -0.70459816 -8.4159820e-2 -0.70459816
vn 0.0000000e+0 -1.00000000 -2.6791047e-16
vn 0.0000000e+0 -8.4159820e-2 -0.99645227
vn -0.38132577 -8.4159820e-2 -0.92060186
vn 0.0000000e+0 -1.00000000 -2.6791047e-16
vn 0.38132577 -8.4159820e-2 -0.92060186
vn 0.0000000e+0 -8.4159820e-2 -0.99645227
vn 0.0000000e+0 -1.00000000 -2.6791047e-16
vn 0.70459816 -8.4159820e-2 -0.70459816
vn 0.38132577 -8.4159820e-2 -0.92060186
vn 0.0000000e+0 -1.00000000 -2.6791047e-16
vn 0.92060186 -8.4159820e-2 -0.38132577
vn 0.70459816 -8.4159820e-2 -0.70459816
vn 0.92166684 6.9168334e-2 -0.38176691
vn 0.70541326 6.9168334e-2 -0.70541326
vn 0.92060186 -8.4159820e-2 -0.38132577
vn 0.70459816 -8.4159820e-2 -0.70459816
vn 0.70541326 6.9168334e-2 -0.70541326
vn 0.38176691 6.9168334e-2 -0.92166684
vn 0.70459816 -8.4159820e-2 -0.70459816
vn 0.38132577 -8.4159820e-2 -0.92060186
vn 0.38176691 6.9168334e-2 -0.92166684
vn 0.0000000e+0 6.9168334e-2 -0.99760500
vn 0.38132577 -8.4159820e-2 -0.92060186
vn 0.0000000e+0 -8.4159820e-2 -0.99645227
vn 0.0000000e+0 6.9168334e-2 -0.99760500
vn -0.38176691 6.9168334e-2 -0.92166684
vn 0.0000000e+0 -8.4159820e-2 -0.99645227
vn -0.38132577 -8.4159820e-2 -0.92060186
vn -0.38176691 6.9168334e-2 -0.92166684
vn -0.70541326 6.9168334e-2 -0.70541326
vn -0.38132577 -8.4159820e-2 -0.92060186
vn -0.70459816 -8.4159820e-2 -0.70459816
vn -0.70541326 6.9168334e-2 -0.70541326
vn -0.92166684 6.9168334e-2 -0.38176691
vn -0.70459816 -8.4159820e-2 -0.70459816
vn -0.92060186 -8.4159820e-2 -0.38132577
vn -0.92166684 6.9168334e-2 -0.38176691
vn -0.99760500 6.9168334e-2 0.0000000e+0
vn -0.92060186 -8.4159820e-2 -0.38132577
vn -0.99645227 -8.4159820e-2 0.0000000e+0
vn -0.99760500 6.9168334e-2 0.0000000e+0
vn -0.92166684 6.9168334e-2 0.38176691
vn -0.99645227 -8.4159820e-2 0.0000000e+0
vn -0.92060186 -8.4159820e-2 0.38132577
vn -0.92166684 6.9168334e-2 0.38176691
vn -0.70541326 6.9168334e-2 0.70541326
vn -0.92060186 -8.4159820e-2 0.38132577
vn -0.70459816 -8.4159820e-2 0.70459816
vn -0.70541326 6.9168334e-2 0.70541326
vn -0.38176691 6.9168334e-2 0.92166684
vn -0.70459816 -8.4159820e-2 0.70459816
vn -0.38132577 -8.4159820e-2 0.92060186
vn -0.38176691 6.9168334e-2 0.92166684
vn 0.0000000e+0 6.9168334e-2 0.99760500
vn -0.38132577 -8.4159820e-2 0.92060186
vn 0.0000000e+0 -8.4159820e-2 0.99645227
vn 0.0000000e+0 6.9168334e-2 0.99760500
vn 0.38176691 6.9168334e-2 0.92166684
vn 0.0000000e+0 -8.4159820e-2 0.99645227
vn 0.38132577 -8.4159820e-2 0.92060186
vn 0.38176691 6.9168334e-2 0.92166684
vn 0.70541326 6.9168334e-2 0.70541326
vn 0.38132577 -8.4159820e-2 0.92060186
vn 0.70459816 -8.4159820e-2 0.70459816
vn 0.70541326 6.9168334e-2 0.70541326
vn 0.92166684 6.9168334e-2 0.38176691
vn 0.70459816 -8.4159820e-2 0.70459816
vn 0.92060186 -8.4159820e-2 0.38132577
vn 0.92166684 6.9168334e-2 0.38176691
vn 0.99760500 6.9168334e-2 0.0000000e+0
vn 0.92060186 -8.4159820e-2 0.38132577
vn 0.99645227 -8.4159820e-2 0.0000000e+0
vn 0.92166684 6.9168334e-2 -0.38176691
vn 0.99760500 6.9168334e-2 0.0000000e+0
vn 0.92060186 -8.4159820e-2 -0.38132577
vn 0.99645227 -8.4159820e-2 0.0000000e+0
g TLV_1_LFO_2_Collider_default
usemtl default
s 1
f 1//2 48//157 33//97 16//47
f 3//9 46//150 47//153 2//5
f 7//21 42//134 43//137 6//17
f 9//27 40//126 41//129 8//23
f 12//36 37//114 38//117 11//32
f 14//42 35//106 36//109 13//38
f 17//51 48//160 47//156 18//54
f 20//59 45//147 44//144 21//63
f 23//68 42//135 41//132 24//72
f 26//77 39//123 38//120 27//81
f 28//83 37//115 36//112 29//87
f 31//92 34//103 33//100 32//96
s 2
f 2//6 47//154 48//158 1//3
f 5//15 44//142 45//145 4//11
f 8//24 41//130 42//133 7//20
f 10//30 39//122 40//125 9//26
f 13//39 36//110 37//113 12//35
f 15//45 34//102 35//105 14//41
f 19//56 46//151 45//148 20//60
f 21//62 44//143 43//140 22//66
f 24//71 41//131 40//128 25//75
f 27//80 38//119 37//116 28//84
f 29//86 36//111 35//108 30//90
f 32//95 33//99 48//159 17//50
s 3
f 1//1 16//46 15//43 14//40 13//37 12//34 11//31 10//28 9//25 8//22 7//19 6//16 5//13 4//10 3//7 2//4
f 18//53 47//155 46//152 19//57
f 22//65 43//139 42//136 23//69
f 25//74 40//127 39//124 26//78
f 30//89 35//107 34//104 31//93
s 4
f 4//12 45//146 46//149 3//8
f 6//18 43//138 44//141 5//14
f 11//33 38//118 39//121 10//29
f 16//48 33//98 34//101 15//44
f 18//52 19//55 20//58 21//61 22//64 23//67 24//70 25//73 26//76 27//79 28//82 29//85 30//88 31//91 32//94 17//49
