# Exported from Wings 3D 1.5.4
mtllib AndromedaUS_VernierEngine_1_Nozzle.mtl
o AndromedaUS_VernierEngine_1_Nozzle
#65 vertices, 64 faces
v -4.6875000e-2 2.7755576e-17 0.0000000e+0
v -4.3306853e-2 2.7755576e-17 -1.7938286e-2
v -3.3145630e-2 2.7755576e-17 -3.3145630e-2
v -1.7938286e-2 2.7755576e-17 -4.3306853e-2
v 1.1579496e-16 2.7755576e-17 -4.6875000e-2
v 1.7938286e-2 2.7755576e-17 -4.3306853e-2
v 3.3145630e-2 2.7755576e-17 -3.3145630e-2
v 4.3306853e-2 2.7755576e-17 -1.7938286e-2
v 4.6875000e-2 2.7755576e-17 0.0000000e+0
v 4.3306853e-2 2.7755576e-17 1.7938286e-2
v 3.3145630e-2 2.7755576e-17 3.3145630e-2
v 1.7938286e-2 2.7755576e-17 4.3306853e-2
v 1.0431390e-16 2.7755576e-17 4.6875000e-2
v -1.7938286e-2 2.7755576e-17 4.3306853e-2
v -3.3145630e-2 2.7755576e-17 3.3145630e-2
v -4.3306853e-2 2.7755576e-17 1.7938286e-2
v -6.2500000e-2 -6.2500000e-2 -5.5511151e-17
v -5.7742471e-2 -6.2500000e-2 -2.3917715e-2
v -4.4194174e-2 -6.2500000e-2 -4.4194174e-2
v -2.3917715e-2 -6.2500000e-2 -5.7742471e-2
v 1.1770847e-16 -6.2500000e-2 -6.2500000e-2
v 2.3917715e-2 -6.2500000e-2 -5.7742471e-2
v 4.4194174e-2 -6.2500000e-2 -4.4194174e-2
v 5.7742471e-2 -6.2500000e-2 -2.3917715e-2
v 6.2500000e-2 -6.2500000e-2 -2.7755576e-17
v 5.7742471e-2 -6.2500000e-2 2.3917715e-2
v 4.4194174e-2 -6.2500000e-2 4.4194174e-2
v 2.3917715e-2 -6.2500000e-2 5.7742471e-2
v 1.0240039e-16 -6.2500000e-2 6.2500000e-2
v -2.3917715e-2 -6.2500000e-2 5.7742471e-2
v -4.4194174e-2 -6.2500000e-2 4.4194174e-2
v -5.7742471e-2 -6.2500000e-2 2.3917715e-2
v -5.0000000e-2 -6.2500000e-2 -2.7755576e-17
v -4.6193977e-2 -6.2500000e-2 -1.9134172e-2
v -3.5355339e-2 -6.2500000e-2 -3.5355339e-2
v -1.9134172e-2 -6.2500000e-2 -4.6193977e-2
v 9.9524318e-17 -6.2500000e-2 -5.0000000e-2
v 1.9134172e-2 -6.2500000e-2 -4.6193977e-2
v 3.5355339e-2 -6.2500000e-2 -3.5355339e-2
v 4.6193977e-2 -6.2500000e-2 -1.9134172e-2
v 5.0000000e-2 -6.2500000e-2 -2.7755576e-17
v 4.6193977e-2 -6.2500000e-2 1.9134172e-2
v 3.5355339e-2 -6.2500000e-2 3.5355339e-2
v 1.9134172e-2 -6.2500000e-2 4.6193977e-2
v 8.7277850e-17 -6.2500000e-2 5.0000000e-2
v -1.9134172e-2 -6.2500000e-2 4.6193977e-2
v -3.5355339e-2 -6.2500000e-2 3.5355339e-2
v -4.6193977e-2 -6.2500000e-2 1.9134172e-2
v 2.5052979e-17 -3.1250000e-2 -2.7755576e-17
v -4.3306853e-2 2.5000000e-2 -1.7938286e-2
v -4.6875000e-2 2.5000000e-2 0.0000000e+0
v -4.3306853e-2 2.5000000e-2 1.7938286e-2
v -3.3145630e-2 2.5000000e-2 3.3145630e-2
v -1.7938286e-2 2.5000000e-2 4.3306853e-2
v 1.0431390e-16 2.5000000e-2 4.6875000e-2
v 1.7938286e-2 2.5000000e-2 4.3306853e-2
v 3.3145630e-2 2.5000000e-2 3.3145630e-2
v 4.3306853e-2 2.5000000e-2 1.7938286e-2
v 4.6875000e-2 2.5000000e-2 0.0000000e+0
v 4.3306853e-2 2.5000000e-2 -1.7938286e-2
v 3.3145630e-2 2.5000000e-2 -3.3145630e-2
v 1.7938286e-2 2.5000000e-2 -4.3306853e-2
v 1.1579496e-16 2.5000000e-2 -4.6875000e-2
v -1.7938286e-2 2.5000000e-2 -4.3306853e-2
v -3.3145630e-2 2.5000000e-2 -3.3145630e-2
vt 0.77092575 3.7500000e-2
vt 0.77821711 7.4156146e-2
vt 0.77821711 7.4156146e-2
vt 0.79008317 3.7500000e-2
vt 0.79591626 6.6824917e-2
vt 0.79591626 6.6824917e-2
vt 0.79898115 0.10523173
vt 0.79898115 0.10523173
vt 0.81252749 9.1685381e-2
vt 0.81252749 9.1685381e-2
vt 0.83005673 0.12599577
vt 0.83005673 0.12599577
vt 0.83738796 0.10829661
vt 0.83738796 0.10829661
vt 0.86641047 0.72695582
vt 0.86641047 0.72695582
vt 0.86641047 0.75803140
vt 0.86641047 0.79468754
vt 0.86641047 0.83134369
vt 0.86641047 0.86241927
vt 0.86641047 0.72695582
vt 0.86641047 0.75803140
vt 0.86641047 0.75803140
vt 0.86641047 0.79468754
vt 0.86641047 0.79468754
vt 0.86641047 0.83134369
vt 0.86641047 0.83134369
vt 0.86641047 0.86241927
vt 0.86641047 0.86241927
vt 0.86641047 0.72695582
vt 0.86641047 0.75803140
vt 0.86641047 0.79468754
vt 0.86641047 0.83134369
vt 0.86671287 3.7500000e-2
vt 0.86671287 0.11412970
vt 0.86671287 0.13328713
vt 0.86671287 0.13328713
vt 0.89603779 0.10829661
vt 0.89603779 0.10829661
vt 0.90336902 0.12599577
vt 0.90336902 0.12599577
vt 0.92089825 9.1685381e-2
vt 0.92089825 9.1685381e-2
vt 0.93444460 0.10523173
vt 0.93444460 0.10523173
vt 0.93750949 6.6824917e-2
vt 0.93750949 6.6824917e-2
vt 0.94334257 3.7500000e-2
vt 0.95520864 7.4156146e-2
vt 0.95520864 7.4156146e-2
vt 0.96250000 3.7500000e-2
vt 0.96420394 0.74388875
vt 0.96420394 0.74388875
vt 0.96420394 0.74388875
vt 0.96420394 0.74388875
vt 0.96420394 0.76719543
vt 0.96420394 0.76719543
vt 0.96420394 0.76719543
vt 0.96420394 0.79468754
vt 0.96420394 0.79468754
vt 0.96420394 0.79468754
vt 0.96420394 0.79468754
vt 0.96420394 0.82217965
vt 0.96420394 0.82217965
vt 0.96420394 0.82217965
vt 0.96420394 0.84548634
vt 0.96420394 0.84548634
vt 0.96420394 0.84548634
vt 0.96420394 0.84548634
vt 0.96425504 0.74383242
vt 0.96425504 0.76719318
vt 0.96425504 0.79474908
vt 0.96425504 0.82230498
vt 0.96425504 0.84566574
vt 0.96425504 0.74383242
vt 0.96425504 0.76719318
vt 0.96425504 0.79474908
vt 0.96425504 0.82230498
vt 0.96425504 0.82230498
vt 0.96425504 0.84566574
vt 0.96425504 0.74383242
vt 0.96425504 0.76719318
vt 0.96425504 0.79474908
vt 0.96425504 0.82230498
vt 0.96425504 0.84566574
vt 0.96464004 0.74383242
vt 0.96464004 0.76719318
vt 0.96464004 0.79474908
vt 0.96464004 0.82230498
vt 0.96464004 0.84566574
vt 0.96464004 0.74383242
vt 0.96464004 0.76719318
vt 0.96464004 0.79474908
vt 0.96464004 0.82230498
vt 0.96464004 0.82230498
vt 0.96464004 0.84566574
vt 0.96464004 0.74383242
vt 0.96464004 0.76719318
vt 0.96464004 0.79474908
vt 0.96464004 0.82230498
vt 0.96464004 0.84566574
vn -0.99249913 0.12225173 -9.2615232e-17
vn -0.91694963 0.12225173 -0.37981297
vn -0.70180286 0.12225173 -0.70180286
vn -0.37981297 0.12225173 -0.91694963
vn 1.1185070e-15 0.12225173 -0.99249913
vn 0.37981297 0.12225173 -0.91694963
vn 0.70180286 0.12225173 -0.70180286
vn 0.91694963 0.12225173 -0.37981297
vn 0.99249913 0.12225173 7.8366735e-17
vn 0.91694963 0.12225173 0.37981297
vn 0.70180286 0.12225173 0.70180286
vn 0.37981297 0.12225173 0.91694963
vn 1.7026954e-15 0.12225173 0.99249913
vn -0.37981297 0.12225173 0.91694963
vn -0.70180286 0.12225173 0.70180286
vn -0.91694963 0.12225173 0.37981297
vn -8.2280201e-18 -1.00000000 1.7381692e-16
vn -0.92387953 0.0000000e+0 -0.38268343
vn -1.00000000 0.0000000e+0 0.0000000e+0
vn -0.92387953 0.0000000e+0 0.38268343
vn -0.70710678 0.0000000e+0 0.70710678
vn -0.38268343 0.0000000e+0 0.92387953
vn 1.9243551e-15 0.0000000e+0 1.00000000
vn 0.38268343 0.0000000e+0 0.92387953
vn 0.70710678 0.0000000e+0 0.70710678
vn 0.92387953 0.0000000e+0 0.38268343
vn 1.00000000 0.0000000e+0 1.5564637e-16
vn 0.92387953 0.0000000e+0 -0.38268343
vn 0.70710678 0.0000000e+0 -0.70710678
vn 0.38268343 0.0000000e+0 -0.92387953
vn 1.2310213e-15 0.0000000e+0 -1.00000000
vn -0.38268343 0.0000000e+0 -0.92387953
vn -0.70710678 0.0000000e+0 -0.70710678
vn -0.97014250 0.24253563 -1.8373968e-16
vn -0.97014250 0.24253563 -1.8373968e-16
vn 0.0000000e+0 -1.00000000 0.0000000e+0
vn 0.0000000e+0 -1.00000000 0.0000000e+0
vn -0.89629480 0.24253563 -0.37125746
vn -0.89629480 0.24253563 -0.37125746
vn 0.0000000e+0 -1.00000000 0.0000000e+0
vn 0.0000000e+0 -1.00000000 0.0000000e+0
vn -0.68599434 0.24253563 -0.68599434
vn -0.68599434 0.24253563 -0.68599434
vn 0.0000000e+0 -1.00000000 0.0000000e+0
vn 0.0000000e+0 -1.00000000 0.0000000e+0
vn -0.37125746 0.24253563 -0.89629480
vn -0.37125746 0.24253563 -0.89629480
vn 0.0000000e+0 -1.00000000 0.0000000e+0
vn 0.0000000e+0 -1.00000000 0.0000000e+0
vn 9.8936750e-16 0.24253563 -0.97014250
vn 9.8936750e-16 0.24253563 -0.97014250
vn 0.0000000e+0 -1.00000000 0.0000000e+0
vn 0.0000000e+0 -1.00000000 0.0000000e+0
vn 0.37125746 0.24253563 -0.89629480
vn 0.37125746 0.24253563 -0.89629480
vn 0.0000000e+0 -1.00000000 0.0000000e+0
vn 0.0000000e+0 -1.00000000 0.0000000e+0
vn 0.68599434 0.24253563 -0.68599434
vn 0.68599434 0.24253563 -0.68599434
vn 0.0000000e+0 -1.00000000 0.0000000e+0
vn 0.0000000e+0 -1.00000000 0.0000000e+0
vn 0.89629480 0.24253563 -0.37125746
vn 0.89629480 0.24253563 -0.37125746
vn 0.0000000e+0 -1.00000000 0.0000000e+0
vn 0.0000000e+0 -1.00000000 0.0000000e+0
vn 0.97014250 0.24253563 0.0000000e+0
vn 0.97014250 0.24253563 0.0000000e+0
vn 0.0000000e+0 -1.00000000 0.0000000e+0
vn 0.0000000e+0 -1.00000000 0.0000000e+0
vn 0.89629480 0.24253563 0.37125746
vn 0.89629480 0.24253563 0.37125746
vn 0.0000000e+0 -1.00000000 0.0000000e+0
vn 0.0000000e+0 -1.00000000 0.0000000e+0
vn 0.68599434 0.24253563 0.68599434
vn 0.68599434 0.24253563 0.68599434
vn 0.0000000e+0 -1.00000000 0.0000000e+0
vn 0.0000000e+0 -1.00000000 0.0000000e+0
vn 0.37125746 0.24253563 0.89629480
vn 0.37125746 0.24253563 0.89629480
vn 0.0000000e+0 -1.00000000 0.0000000e+0
vn 0.0000000e+0 -1.00000000 0.0000000e+0
vn 1.4557836e-15 0.24253563 0.97014250
vn 1.4557836e-15 0.24253563 0.97014250
vn 0.0000000e+0 -1.00000000 0.0000000e+0
vn 0.0000000e+0 -1.00000000 0.0000000e+0
vn -0.37125746 0.24253563 0.89629480
vn -0.37125746 0.24253563 0.89629480
vn 0.0000000e+0 -1.00000000 0.0000000e+0
vn 0.0000000e+0 -1.00000000 0.0000000e+0
vn -0.68599434 0.24253563 0.68599434
vn -0.68599434 0.24253563 0.68599434
vn 0.0000000e+0 -1.00000000 0.0000000e+0
vn 0.0000000e+0 -1.00000000 0.0000000e+0
vn -0.89629480 0.24253563 0.37125746
vn -0.89629480 0.24253563 0.37125746
vn 0.0000000e+0 -1.00000000 0.0000000e+0
vn 0.0000000e+0 -1.00000000 0.0000000e+0
vn 0.0000000e+0 -1.00000000 0.0000000e+0
vn 0.0000000e+0 -1.00000000 0.0000000e+0
vn 0.52999894 -0.84799830 1.5350164e-16
vn 0.52999894 -0.84799830 1.5350164e-16
vn 0.0000000e+0 -1.00000000 0.0000000e+0
vn 0.0000000e+0 -1.00000000 0.0000000e+0
vn 0.48965517 -0.84799830 0.20282181
vn 0.48965517 -0.84799830 0.20282181
vn 0.0000000e+0 -1.00000000 0.0000000e+0
vn 0.0000000e+0 -1.00000000 0.0000000e+0
vn 0.37476584 -0.84799830 0.37476584
vn 0.37476584 -0.84799830 0.37476584
vn 0.0000000e+0 -1.00000000 0.0000000e+0
vn 0.0000000e+0 -1.00000000 0.0000000e+0
vn 0.20282181 -0.84799830 0.48965517
vn 0.20282181 -0.84799830 0.48965517
vn 0.0000000e+0 -1.00000000 0.0000000e+0
vn 0.0000000e+0 -1.00000000 0.0000000e+0
vn -4.6748225e-16 -0.84799830 0.52999894
vn -4.6748225e-16 -0.84799830 0.52999894
vn 0.0000000e+0 -1.00000000 0.0000000e+0
vn 0.0000000e+0 -1.00000000 0.0000000e+0
vn -0.20282181 -0.84799830 0.48965517
vn -0.20282181 -0.84799830 0.48965517
vn 0.0000000e+0 -1.00000000 0.0000000e+0
vn 0.0000000e+0 -1.00000000 0.0000000e+0
vn -0.37476584 -0.84799830 0.37476584
vn -0.37476584 -0.84799830 0.37476584
vn 0.0000000e+0 -1.00000000 0.0000000e+0
vn 0.0000000e+0 -1.00000000 0.0000000e+0
vn -0.48965517 -0.84799830 0.20282181
vn -0.48965517 -0.84799830 0.20282181
vn 0.0000000e+0 -1.00000000 0.0000000e+0
vn 0.0000000e+0 -1.00000000 0.0000000e+0
vn -0.52999894 -0.84799830 0.0000000e+0
vn -0.52999894 -0.84799830 0.0000000e+0
vn 0.0000000e+0 -1.00000000 0.0000000e+0
vn 0.0000000e+0 -1.00000000 0.0000000e+0
vn -0.48965517 -0.84799830 -0.20282181
vn -0.48965517 -0.84799830 -0.20282181
vn 0.0000000e+0 -1.00000000 0.0000000e+0
vn 0.0000000e+0 -1.00000000 0.0000000e+0
vn -0.37476584 -0.84799830 -0.37476584
vn -0.37476584 -0.84799830 -0.37476584
vn 0.0000000e+0 -1.00000000 0.0000000e+0
vn 0.0000000e+0 -1.00000000 0.0000000e+0
vn -0.20282181 -0.84799830 -0.48965517
vn -0.20282181 -0.84799830 -0.48965517
vn 0.0000000e+0 -1.00000000 0.0000000e+0
vn 0.0000000e+0 -1.00000000 0.0000000e+0
vn -4.8143695e-16 -0.84799830 -0.52999894
vn -4.8143695e-16 -0.84799830 -0.52999894
vn 0.0000000e+0 -1.00000000 0.0000000e+0
vn 0.0000000e+0 -1.00000000 0.0000000e+0
vn 0.20282181 -0.84799830 -0.48965517
vn 0.20282181 -0.84799830 -0.48965517
vn 0.0000000e+0 -1.00000000 0.0000000e+0
vn 0.0000000e+0 -1.00000000 0.0000000e+0
vn 0.37476584 -0.84799830 -0.37476584
vn 0.37476584 -0.84799830 -0.37476584
vn 0.0000000e+0 -1.00000000 0.0000000e+0
vn 0.0000000e+0 -1.00000000 0.0000000e+0
vn 0.48965517 -0.84799830 -0.20282181
vn 0.48965517 -0.84799830 -0.20282181
g AndromedaUS_VernierEngine_1_Nozzle_AndromedaUS_VernierEngine_1_Nozzle_auv
usemtl AndromedaUS_VernierEngine_1_Nozzle_auv
s 1
f 1/60/1 17/25/34 32/27/94 16/63/16
f 1/77/1 51/93/19 50/95/18 2/79/2
f 2/57/2 18/22/39 17/25/35 1/60/1
f 2/79/2 50/95/18 65/96/33 3/80/3
f 3/53/3 19/16/43 18/22/38 2/57/2
f 3/70/3 65/86/33 64/87/32 4/71/4
f 4/56/4 20/31/47 19/30/42 3/52/3
f 4/71/4 64/87/32 63/88/31 5/72/5
f 5/61/5 21/32/51 20/31/46 4/56/4
f 5/72/5 63/88/31 62/89/30 6/73/6
f 6/63/6 22/33/55 21/32/50 5/61/5
f 6/73/6 62/89/30 61/90/29 7/74/7
f 7/66/7 23/28/59 22/33/54 6/63/6
f 7/75/7 61/91/29 60/92/28 8/76/8
f 8/65/8 24/19/63 23/20/58 7/68/7
f 8/76/8 60/92/28 59/93/27 9/77/9
f 9/62/9 25/18/67 24/19/62 8/65/8
f 9/77/9 59/93/27 58/94/26 10/78/10
f 10/58/10 26/17/71 25/18/66 9/62/9
f 10/78/10 58/94/26 57/96/25 11/80/11
f 11/55/11 27/15/75 26/17/70 10/58/10
f 11/81/11 57/97/25 56/98/24 12/82/12
f 12/56/12 28/23/79 27/21/74 11/54/11
f 12/82/12 56/98/24 55/99/23 13/83/13
f 13/59/13 29/24/83 28/23/78 12/56/12
f 13/83/13 55/99/23 54/100/22 14/84/14
f 14/64/14 30/26/87 29/24/82 13/59/13
f 14/84/14 54/100/22 53/101/21 15/85/15
f 15/69/15 31/29/91 30/26/86 14/64/14
f 15/75/15 53/91/21 52/92/20 16/76/16
f 16/63/16 32/27/95 31/29/90 15/67/15
f 16/76/16 52/92/20 51/93/19 1/77/1
f 33/35/101 49/34/17 48/14/161
f 34/39/104 49/34/17 33/35/100
f 35/43/108 49/34/17 34/39/105
f 36/47/112 49/34/17 35/43/109
f 37/48/116 49/34/17 36/47/113
f 38/46/120 49/34/17 37/48/117
f 39/42/124 49/34/17 38/46/121
f 40/38/128 49/34/17 39/42/125
f 41/35/132 49/34/17 40/38/129
f 42/13/136 49/34/17 41/35/133
f 43/9/140 49/34/17 42/13/137
f 44/5/144 49/34/17 43/9/141
f 45/4/148 49/34/17 44/5/145
f 46/6/152 49/34/17 45/4/149
f 47/10/156 49/34/17 46/6/153
f 48/14/160 49/34/17 47/10/157
s 2
f 17/36/37 33/35/99 48/14/159 32/12/97
f 18/41/40 34/39/102 33/35/98 17/36/36
f 19/45/44 35/43/106 34/39/103 18/41/41
f 20/50/48 36/47/110 35/43/107 19/45/45
f 21/51/52 37/48/114 36/47/111 20/50/49
f 22/49/56 38/46/118 37/48/115 21/51/53
f 23/44/60 39/42/122 38/46/119 22/49/57
f 24/40/64 40/38/126 39/42/123 23/44/61
f 25/37/68 41/35/130 40/38/127 24/40/65
f 26/11/72 42/13/134 41/35/131 25/37/69
f 27/7/76 43/9/138 42/13/135 26/11/73
f 28/2/80 44/5/142 43/9/139 27/7/77
f 29/1/84 45/4/146 44/5/143 28/2/81
f 30/3/88 46/6/150 45/4/147 29/1/85
f 31/8/92 47/10/154 46/6/151 30/3/89
f 32/12/96 48/14/158 47/10/155 31/8/93
