# Exported from Wings 3D 1.5.4
mtllib delphini_us_engine_s1_1_vernier.mtl
o delphini_us_engine_s1_1_vernier
#73 vertices, 72 faces
v 1.6588306e-18 -3.7500000e-2 -1.8750000e-2
v 9.3750000e-3 -3.7500000e-2 -1.6237976e-2
v 1.6237976e-2 -3.7500000e-2 -9.3750000e-3
v 1.8750000e-2 -3.7500000e-2 -5.5511151e-17
v 1.6237976e-2 -3.7500000e-2 9.3750000e-3
v 9.3750000e-3 -3.7500000e-2 1.6237976e-2
v 1.6588306e-18 -3.7500000e-2 1.8750000e-2
v -9.3750000e-3 -3.7500000e-2 1.6237976e-2
v -1.6237976e-2 -3.7500000e-2 9.3750000e-3
v -1.8750000e-2 -3.7500000e-2 -5.5511151e-17
v -1.6237976e-2 -3.7500000e-2 -9.3750000e-3
v -9.3750000e-3 -3.7500000e-2 -1.6237976e-2
v 1.7214647e-18 -0.18750000 -6.2500000e-2
v 3.1250000e-2 -0.18750000 -5.4126588e-2
v 5.4126588e-2 -0.18750000 -3.1250000e-2
v 6.2500000e-2 -0.18750000 0.0000000e+0
v 5.4126588e-2 -0.18750000 3.1250000e-2
v 3.1250000e-2 -0.18750000 5.4126588e-2
v 1.7214647e-18 -0.18750000 6.2500000e-2
v -3.1250000e-2 -0.18750000 5.4126588e-2
v -5.4126588e-2 -0.18750000 3.1250000e-2
v -6.2500000e-2 -0.18750000 0.0000000e+0
v -5.4126588e-2 -0.18750000 -3.1250000e-2
v -3.1250000e-2 -0.18750000 -5.4126588e-2
v -2.6282667e-2 -0.13614414 -4.5522914e-2
v -4.5522914e-2 -0.13614414 -2.6282667e-2
v -5.2565334e-2 -0.13614414 0.0000000e+0
v -4.5522914e-2 -0.13614414 2.6282667e-2
v -2.6282667e-2 -0.13614414 4.5522914e-2
v 1.1567552e-18 -0.13614414 5.2565334e-2
v 2.6282667e-2 -0.13614414 4.5522914e-2
v 4.5522914e-2 -0.13614414 2.6282667e-2
v 5.2565334e-2 -0.13614414 0.0000000e+0
v 4.5522914e-2 -0.13614414 -2.6282667e-2
v 2.6282667e-2 -0.13614414 -4.5522914e-2
v 2.5587199e-18 -0.13614414 -5.2565334e-2
v -1.8991000e-2 -8.6144139e-2 -3.2893377e-2
v -3.2893377e-2 -8.6144139e-2 -1.8991000e-2
v -3.7982000e-2 -8.6144139e-2 0.0000000e+0
v -3.2893377e-2 -8.6144139e-2 1.8991000e-2
v -1.8991000e-2 -8.6144139e-2 3.2893377e-2
v 1.0664882e-18 -8.6144139e-2 3.7982000e-2
v 1.8991000e-2 -8.6144139e-2 3.2893377e-2
v 3.2893377e-2 -8.6144139e-2 1.8991000e-2
v 3.7982000e-2 -8.6144139e-2 0.0000000e+0
v 3.2893377e-2 -8.6144139e-2 -1.8991000e-2
v 1.8991000e-2 -8.6144139e-2 -3.2893377e-2
v 2.7460087e-18 -8.6144139e-2 -3.7982000e-2
v 1.1512169e-18 -0.18750000 -5.0000000e-2
v 2.5000000e-2 -0.18750000 -4.3301270e-2
v 4.3301270e-2 -0.18750000 -2.5000000e-2
v 5.0000000e-2 -0.18750000 0.0000000e+0
v 4.3301270e-2 -0.18750000 2.5000000e-2
v 2.5000000e-2 -0.18750000 4.3301270e-2
v 1.1512169e-18 -0.18750000 5.0000000e-2
v -2.5000000e-2 -0.18750000 4.3301270e-2
v -4.3301270e-2 -0.18750000 2.5000000e-2
v -5.0000000e-2 -0.18750000 0.0000000e+0
v -4.3301270e-2 -0.18750000 -2.5000000e-2
v -2.5000000e-2 -0.18750000 -4.3301270e-2
v -1.8120487e-18 -0.11250000 5.5511151e-17
v 9.3750000e-3 -1.3383826e-17 -1.6237976e-2
v 4.0944557e-18 -1.3290827e-17 -1.8750000e-2
v -9.3750000e-3 -1.3129748e-17 -1.6237976e-2
v -1.6237976e-2 -1.2943751e-17 -9.3750000e-3
v -1.8750000e-2 -1.2782672e-17 -5.5511151e-17
v -1.6237976e-2 -1.2689673e-17 9.3750000e-3
v -9.3750000e-3 -1.2689673e-17 1.6237976e-2
v 4.0944557e-18 -1.2782672e-17 1.8750000e-2
v 9.3750000e-3 -1.2943751e-17 1.6237976e-2
v 1.6237976e-2 -1.3129748e-17 9.3750000e-3
v 1.8750000e-2 -1.3290827e-17 -5.5511151e-17
v 1.6237976e-2 -1.3383826e-17 -9.3750000e-3
vt 0.66070724 0.35177793
vt 0.67361399 0.30360929
vt 0.67361399 0.39994656
vt 0.67997469 0.35177793
vt 0.68197904 0.57574947
vt 0.68201234 0.57574947
vt 0.68201234 0.57574947
vt 0.68204564 0.57574947
vt 0.69030009 0.31324302
vt 0.69030009 0.39031284
vt 0.69477331 0.65603281
vt 0.69479454 0.65603281
vt 0.69479454 0.65603281
vt 0.69482784 0.65603281
vt 0.70887587 0.26834741
vt 0.70887587 0.43520845
vt 0.71213457 0.73517483
vt 0.71213457 0.73517483
vt 0.71216164 0.73517483
vt 0.71216787 0.73517483
vt 0.71850960 0.28503351
vt 0.71850960 0.41852235
vt 0.73191185 0.57574947
vt 0.73191775 0.57574947
vt 0.73191775 0.57574947
vt 0.73195105 0.57574947
vt 0.73426776 0.81464545
vt 0.73426776 0.81464545
vt 0.73430106 0.81464545
vt 0.73433426 0.81464545
vt 0.73496919 0.87219913
vt 0.73501205 0.87229933
vt 0.73501205 0.87229933
vt 0.73504535 0.87229933
vt 0.73628818 0.65603281
vt 0.73629938 0.65603281
vt 0.73629938 0.65603281
vt 0.73633268 0.65603281
vt 0.74199100 0.73517483
vt 0.74199100 0.73517483
vt 0.74201554 0.73517483
vt 0.74202430 0.73517483
vt 0.74928351 0.81464545
vt 0.74928351 0.81464545
vt 0.74931681 0.81464545
vt 0.74934141 0.81464545
vt 0.74965187 0.87203480
vt 0.74971339 0.87206852
vt 0.74971339 0.87206852
vt 0.74974669 0.87206852
vt 0.75704451 0.25544066
vt 0.75704451 0.27470811
vt 0.75704451 0.35177793
vt 0.75704451 0.42884774
vt 0.75704451 0.44811520
vt 0.76434233 0.87206852
vt 0.76440385 0.87203480
vt 0.76440385 0.87203480
vt 0.76443715 0.87203480
vt 0.76471431 0.81464545
vt 0.76471431 0.81464545
vt 0.76474761 0.81464545
vt 0.76477220 0.81464545
vt 0.77204018 0.73517483
vt 0.77204018 0.73517483
vt 0.77206472 0.73517483
vt 0.77207348 0.73517483
vt 0.77775633 0.65603281
vt 0.77776754 0.65603281
vt 0.77776754 0.65603281
vt 0.77780084 0.65603281
vt 0.77904367 0.87229933
vt 0.77908653 0.87219913
vt 0.77908653 0.87219913
vt 0.77911983 0.87219913
vt 0.77972145 0.81464545
vt 0.77972145 0.81464545
vt 0.77975475 0.81464545
vt 0.77978795 0.81464545
vt 0.78213796 0.57574947
vt 0.78214387 0.57574947
vt 0.78214387 0.57574947
vt 0.78217717 0.57574947
vt 0.79557942 0.28503351
vt 0.79557942 0.41852235
vt 0.80189407 0.73517483
vt 0.80189407 0.73517483
vt 0.80192115 0.73517483
vt 0.80192737 0.73517483
vt 0.80521314 0.26834741
vt 0.80521314 0.43520845
vt 0.81926118 0.65603281
vt 0.81928240 0.65603281
vt 0.81928240 0.65603281
vt 0.81931570 0.65603281
vt 0.82378893 0.31324302
vt 0.82378893 0.39031284
vt 0.83204338 0.57574947
vt 0.83207668 0.57574947
vt 0.83207668 0.57574947
vt 0.83210998 0.57574947
vt 0.83411432 0.35177793
vt 0.84047503 0.30360929
vt 0.84047503 0.39994656
vt 0.85338178 0.35177793
vn 1.4592471e-16 0.18756613 -0.98225198
vn 0.49112599 0.18756613 -0.85065517
vn 0.85065517 0.18756613 -0.49112599
vn 0.98225198 0.18756613 -1.1673977e-15
vn 0.85065517 0.18756613 0.49112599
vn 0.49112599 0.18756613 0.85065517
vn -8.7554828e-17 0.18756613 0.98225198
vn -0.49112599 0.18756613 0.85065517
vn -0.85065517 0.18756613 0.49112599
vn -0.98225198 0.18756613 -5.6910638e-16
vn -0.85065517 0.18756613 -0.49112599
vn -0.49112599 0.18756613 -0.85065517
vn -0.48596769 0.23524798 -0.84172073
vn -0.84172073 0.23524798 -0.48596769
vn -0.97193538 0.23524798 3.1581401e-16
vn -0.84172073 0.23524798 0.48596769
vn -0.48596769 0.23524798 0.84172073
vn -1.1484146e-16 0.23524798 0.97193538
vn 0.48596769 0.23524798 0.84172073
vn 0.84172073 0.23524798 0.48596769
vn 0.97193538 0.23524798 -4.3065547e-17
vn 0.84172073 0.23524798 -0.48596769
vn 0.48596769 0.23524798 -0.84172073
vn 1.4355182e-16 0.23524798 -0.97193538
vn -0.47299006 0.32422462 -0.81924282
vn -0.81924282 0.32422462 -0.47299006
vn -0.94598013 0.32422462 1.1464989e-16
vn -0.81924282 0.32422462 0.47299006
vn -0.47299006 0.32422462 0.81924282
vn -1.0031865e-16 0.32422462 0.94598013
vn 0.47299006 0.32422462 0.81924282
vn 0.81924282 0.32422462 0.47299006
vn 0.94598013 0.32422462 -3.7261213e-16
vn 0.81924282 0.32422462 -0.47299006
vn 0.47299006 0.32422462 -0.81924282
vn 1.3614674e-16 0.32422462 -0.94598013
vn 1.3243601e-16 -1.00000000 -4.2721294e-16
vn 0.50000000 -2.8912058e-17 -0.86602540
vn 1.4367343e-16 -5.5828343e-33 -1.00000000
vn -0.50000000 3.3730734e-17 -0.86602540
vn -0.86602540 7.7098821e-17 -0.50000000
vn -1.00000000 9.6373526e-17 -1.0057140e-15
vn -0.86602540 7.2280145e-17 0.50000000
vn -0.50000000 2.8912058e-17 0.86602540
vn -8.6204059e-17 -2.4093382e-18 1.00000000
vn 0.50000000 -3.1321396e-17 0.86602540
vn 0.86602540 -6.9870807e-17 0.50000000
vn 1.00000000 -9.1554850e-17 -1.6378771e-15
vn 0.86602540 -6.9870807e-17 -0.50000000
vn 1.4349974e-16 0.18992649 -0.98179831
vn 1.4349974e-16 0.18992649 -0.98179831
vn 0.0000000e+0 -1.00000000 0.0000000e+0
vn 0.0000000e+0 -1.00000000 0.0000000e+0
vn 0.49089916 0.18992649 -0.85026228
vn 0.49089916 0.18992649 -0.85026228
vn 0.0000000e+0 -1.00000000 0.0000000e+0
vn 0.0000000e+0 -1.00000000 0.0000000e+0
vn 0.85026228 0.18992649 -0.49089916
vn 0.85026228 0.18992649 -0.49089916
vn 0.0000000e+0 -1.00000000 0.0000000e+0
vn 0.0000000e+0 -1.00000000 0.0000000e+0
vn 0.98179831 0.18992649 0.0000000e+0
vn 0.98179831 0.18992649 0.0000000e+0
vn 0.0000000e+0 -1.00000000 0.0000000e+0
vn 0.0000000e+0 -1.00000000 0.0000000e+0
vn 0.85026228 0.18992649 0.49089916
vn 0.85026228 0.18992649 0.49089916
vn 0.0000000e+0 -1.00000000 0.0000000e+0
vn 0.0000000e+0 -1.00000000 0.0000000e+0
vn 0.49089916 0.18992649 0.85026228
vn 0.49089916 0.18992649 0.85026228
vn 0.0000000e+0 -1.00000000 0.0000000e+0
vn 0.0000000e+0 -1.00000000 0.0000000e+0
vn -1.1479979e-16 0.18992649 0.98179831
vn -1.1479979e-16 0.18992649 0.98179831
vn 0.0000000e+0 -1.00000000 0.0000000e+0
vn 0.0000000e+0 -1.00000000 0.0000000e+0
vn -0.49089916 0.18992649 0.85026228
vn -0.49089916 0.18992649 0.85026228
vn 0.0000000e+0 -1.00000000 0.0000000e+0
vn 0.0000000e+0 -1.00000000 0.0000000e+0
vn -0.85026228 0.18992649 0.49089916
vn -0.85026228 0.18992649 0.49089916
vn 0.0000000e+0 -1.00000000 0.0000000e+0
vn 0.0000000e+0 -1.00000000 0.0000000e+0
vn -0.98179831 0.18992649 3.1569943e-16
vn -0.98179831 0.18992649 3.1569943e-16
vn 0.0000000e+0 -1.00000000 0.0000000e+0
vn 0.0000000e+0 -1.00000000 0.0000000e+0
vn -0.85026228 0.18992649 -0.49089916
vn -0.85026228 0.18992649 -0.49089916
vn 0.0000000e+0 -1.00000000 0.0000000e+0
vn 0.0000000e+0 -1.00000000 0.0000000e+0
vn -0.49089916 0.18992649 -0.85026228
vn -0.49089916 0.18992649 -0.85026228
vn 0.0000000e+0 -1.00000000 0.0000000e+0
vn 0.0000000e+0 -1.00000000 0.0000000e+0
vn 0.0000000e+0 -1.00000000 0.0000000e+0
vn 0.0000000e+0 -1.00000000 0.0000000e+0
vn -1.2796656e-16 -0.55470020 0.83205029
vn -1.2796656e-16 -0.55470020 0.83205029
vn 0.0000000e+0 -1.00000000 0.0000000e+0
vn 0.0000000e+0 -1.00000000 0.0000000e+0
vn -0.41602515 -0.55470020 0.72057669
vn -0.41602515 -0.55470020 0.72057669
vn 0.0000000e+0 -1.00000000 0.0000000e+0
vn 0.0000000e+0 -1.00000000 0.0000000e+0
vn -0.72057669 -0.55470020 0.41602515
vn -0.72057669 -0.55470020 0.41602515
vn 0.0000000e+0 -1.00000000 0.0000000e+0
vn 0.0000000e+0 -1.00000000 0.0000000e+0
vn -0.83205029 -0.55470020 -2.5593311e-16
vn -0.83205029 -0.55470020 -2.5593311e-16
vn 0.0000000e+0 -1.00000000 0.0000000e+0
vn 0.0000000e+0 -1.00000000 0.0000000e+0
vn -0.72057669 -0.55470020 -0.41602515
vn -0.72057669 -0.55470020 -0.41602515
vn 0.0000000e+0 -1.00000000 0.0000000e+0
vn 0.0000000e+0 -1.00000000 0.0000000e+0
vn -0.41602515 -0.55470020 -0.72057669
vn -0.41602515 -0.55470020 -0.72057669
vn 0.0000000e+0 -1.00000000 0.0000000e+0
vn 0.0000000e+0 -1.00000000 0.0000000e+0
vn 7.1092531e-17 -0.55470020 -0.83205029
vn 7.1092531e-17 -0.55470020 -0.83205029
vn 0.0000000e+0 -1.00000000 0.0000000e+0
vn 0.0000000e+0 -1.00000000 0.0000000e+0
vn 0.41602515 -0.55470020 -0.72057669
vn 0.41602515 -0.55470020 -0.72057669
vn 0.0000000e+0 -1.00000000 0.0000000e+0
vn 0.0000000e+0 -1.00000000 0.0000000e+0
vn 0.72057669 -0.55470020 -0.41602515
vn 0.72057669 -0.55470020 -0.41602515
vn 0.0000000e+0 -1.00000000 0.0000000e+0
vn 0.0000000e+0 -1.00000000 0.0000000e+0
vn 0.83205029 -0.55470020 -2.1327759e-16
vn 0.83205029 -0.55470020 -2.1327759e-16
vn 0.0000000e+0 -1.00000000 0.0000000e+0
vn 0.0000000e+0 -1.00000000 0.0000000e+0
vn 0.72057669 -0.55470020 0.41602515
vn 0.72057669 -0.55470020 0.41602515
vn 0.0000000e+0 -1.00000000 0.0000000e+0
vn 0.0000000e+0 -1.00000000 0.0000000e+0
vn 0.41602515 -0.55470020 0.72057669
vn 0.41602515 -0.55470020 0.72057669
g delphini_us_engine_s1_1_vernier_delphini_us_engine_s1_1_vernier_auv
usemtl delphini_us_engine_s1_1_vernier_auv
s 1
f 1/78/1 48/89/36 37/67/25 12/62/12
f 1/77/1 63/74/39 62/58/38 2/61/2
f 2/61/2 47/65/35 48/87/36 1/77/1
f 2/61/2 62/58/38 73/49/49 3/44/3
f 3/44/3 46/40/34 47/65/35 2/61/2
f 3/44/3 73/49/49 72/33/48 4/28/4
f 4/28/4 45/18/33 46/40/34 3/44/3
f 4/30/4 72/31/48 71/47/47 5/46/5
f 5/46/5 44/41/32 45/19/33 4/30/4
f 5/46/5 71/47/47 70/56/46 6/63/6
f 6/63/6 43/66/31 44/41/32 5/46/5
f 6/63/6 70/56/46 69/72/45 7/79/7
f 7/79/7 42/88/30 43/66/31 6/63/6
f 7/76/7 69/73/45 68/57/44 8/60/8
f 8/60/8 41/64/29 42/86/30 7/76/7
f 8/60/8 68/57/44 67/48/43 9/43/9
f 9/43/9 40/39/28 41/64/29 8/60/8
f 9/43/9 67/48/43 66/32/42 10/27/10
f 10/27/10 39/17/27 40/39/28 9/43/9
f 10/29/10 66/34/42 65/50/41 11/45/11
f 11/45/11 38/42/26 39/20/27 10/29/10
f 11/45/11 65/50/41 64/59/40 12/62/12
f 12/62/12 37/67/25 38/42/26 11/45/11
f 12/62/12 64/59/40 63/75/39 1/78/1
f 13/99/51 36/94/24 35/70/23 14/82/55
f 14/82/54 35/70/23 34/37/22 15/24/59
f 15/24/58 34/37/22 33/13/21 16/7/63
f 16/5/62 33/11/21 32/35/20 17/23/67
f 17/23/66 32/35/20 31/68/19 18/80/71
f 18/80/70 31/68/19 30/92/18 19/98/75
f 19/100/74 30/93/18 29/69/17 20/81/79
f 20/81/78 29/69/17 28/36/16 21/25/83
f 21/25/82 28/36/16 27/12/15 22/6/87
f 22/8/86 27/14/15 26/38/14 23/26/91
f 23/26/90 26/38/14 25/71/13 24/83/95
f 24/83/94 25/71/13 36/95/24 13/101/50
f 25/71/13 37/67/25 48/89/36 36/95/24
f 26/38/14 38/42/26 37/67/25 25/71/13
f 27/14/15 39/20/27 38/42/26 26/38/14
f 28/36/16 40/39/28 39/17/27 27/12/15
f 29/69/17 41/64/29 40/39/28 28/36/16
f 30/93/18 42/86/30 41/64/29 29/69/17
f 31/68/19 43/66/31 42/88/30 30/92/18
f 32/35/20 44/41/32 43/66/31 31/68/19
f 33/11/21 45/19/33 44/41/32 32/35/20
f 34/37/22 46/40/34 45/18/33 33/13/21
f 35/70/23 47/65/35 46/40/34 34/37/22
f 36/94/24 48/87/36 47/65/35 35/70/23
f 49/52/101 61/53/37 60/21/145
f 50/84/104 61/53/37 49/52/100
f 51/96/108 61/53/37 50/84/105
f 52/102/112 61/53/37 51/96/109
f 53/97/116 61/53/37 52/102/113
f 54/85/120 61/53/37 53/97/117
f 55/54/124 61/53/37 54/85/121
f 56/22/128 61/53/37 55/54/125
f 57/10/132 61/53/37 56/22/129
f 58/4/136 61/53/37 57/10/133
f 59/9/140 61/53/37 58/4/137
f 60/21/144 61/53/37 59/9/141
s 2
f 13/51/53 49/52/99 60/21/143 24/15/97
f 14/90/56 50/84/102 49/52/98 13/51/52
f 15/103/60 51/96/106 50/84/103 14/90/57
f 16/105/64 52/102/110 51/96/107 15/103/61
f 17/104/68 53/97/114 52/102/111 16/105/65
f 18/91/72 54/85/118 53/97/115 17/104/69
f 19/55/76 55/54/122 54/85/119 18/91/73
f 20/16/80 56/22/126 55/54/123 19/55/77
f 21/3/84 57/10/130 56/22/127 20/16/81
f 22/1/88 58/4/134 57/10/131 21/3/85
f 23/2/92 59/9/138 58/4/135 22/1/89
f 24/15/96 60/21/142 59/9/139 23/2/93
