# Exported from Wings 3D 1.5.4
mtllib corvus_lv_fuel_tank_s1_2.mtl
o corvus_lv_fuel_tank_s1_2
#64 vertices, 36 faces
v 0.62500000 1.00000000 -1.2576745e-17
v 0.60370364 1.00000000 0.16176190
v 0.54126588 1.00000000 0.31250000
v 0.44194174 1.00000000 0.44194174
v 0.31250000 1.00000000 0.54126588
v 0.16176190 1.00000000 0.60370364
v -1.3771492e-17 1.00000000 0.62500000
v -0.16176190 1.00000000 0.60370364
v -0.31250000 1.00000000 0.54126588
v -0.44194174 1.00000000 0.44194174
v -0.54126588 1.00000000 0.31250000
v -0.60370364 1.00000000 0.16176190
v -0.62500000 1.00000000 6.3963680e-17
v -0.60370364 1.00000000 -0.16176190
v -0.54126588 1.00000000 -0.31250000
v -0.44194174 1.00000000 -0.44194174
v -0.31250000 1.00000000 -0.54126588
v -0.16176190 1.00000000 -0.60370364
v -1.6685234e-16 1.00000000 -0.62500000
v 0.16176190 1.00000000 -0.60370364
v 0.31250000 1.00000000 -0.54126588
v 0.44194174 1.00000000 -0.44194174
v 0.54126588 1.00000000 -0.31250000
v 0.60370364 1.00000000 -0.16176190
v 0.62500000 -1.00000000 -1.2576745e-17
v 0.60370364 -1.00000000 0.16176190
v 0.54126588 -1.00000000 0.31250000
v 0.44194174 -1.00000000 0.44194174
v 0.31250000 -1.00000000 0.54126588
v 0.16176190 -1.00000000 0.60370364
v -1.3771492e-17 -1.00000000 0.62500000
v -0.16176190 -1.00000000 0.60370364
v -0.31250000 -1.00000000 0.54126588
v -0.44194174 -1.00000000 0.44194174
v -0.54126588 -1.00000000 0.31250000
v -0.60370364 -1.00000000 0.16176190
v -0.62500000 -1.00000000 6.3963680e-17
v -0.60370364 -1.00000000 -0.16176190
v -0.54126588 -1.00000000 -0.31250000
v -0.44194174 -1.00000000 -0.44194174
v -0.31250000 -1.00000000 -0.54126588
v -0.16176190 -1.00000000 -0.60370364
v -1.6685234e-16 -1.00000000 -0.62500000
v 0.16176190 -1.00000000 -0.60370364
v 0.31250000 -1.00000000 -0.54126588
v 0.44194174 -1.00000000 -0.44194174
v 0.54126588 -1.00000000 -0.31250000
v 0.60370364 -1.00000000 -0.16176190
v 0.59277961 -0.83750000 -0.28612706
v 0.55813413 -0.87500000 -0.27177643
v 0.59277961 0.83750000 -0.28612706
v 0.55813413 0.87500000 -0.27177643
v 0.62148087 -0.83750000 -0.21683610
v 0.58683539 -0.87500000 -0.20248547
v 0.62148087 0.83750000 -0.21683610
v 0.58683539 0.87500000 -0.20248547
v -0.59277961 -0.83750000 0.28612706
v -0.55813413 -0.87500000 0.27177643
v -0.59277961 0.83750000 0.28612706
v -0.55813413 0.87500000 0.27177643
v -0.62148087 -0.83750000 0.21683610
v -0.58683539 -0.87500000 0.20248547
v -0.62148087 0.83750000 0.21683610
v -0.58683539 0.87500000 0.20248547
vt 9.3750000e-3 0.99051525
vt 9.3750000e-3 0.79566322
vt 2.5270833e-2 0.99051525
vt 2.5270833e-2 0.79566322
vt 4.1166667e-2 0.99051525
vt 4.1166667e-2 0.79566322
vt 5.7062500e-2 0.99051525
vt 5.7062500e-2 0.79566322
vt 7.2958333e-2 0.79566322
vt 7.2958333e-2 0.99051525
vt 8.8854167e-2 0.99051525
vt 8.8854167e-2 0.79566322
vt 0.10475000 0.79566322
vt 0.10475000 0.99051525
vt 0.12064583 0.79566322
vt 0.12064583 0.99051525
vt 0.13654167 0.79566322
vt 0.13654167 0.99051525
vt 0.15243750 0.79566322
vt 0.15243750 0.99051525
vt 0.16833333 0.79566322
vt 0.16833333 0.99051525
vt 0.18422917 0.79566322
vt 0.18422917 0.99051525
vt 0.20012500 0.79566322
vt 0.20012500 0.99051525
vt 0.21602083 0.79566322
vt 0.21602083 0.99051525
vt 0.23191667 0.79566322
vt 0.23191667 0.99051525
vt 0.24781250 0.79566322
vt 0.24781250 0.99051525
vt 0.26370833 0.79566322
vt 0.26370833 0.99051525
vt 0.27960417 0.79566322
vt 0.27960417 0.99051525
vt 0.29550000 0.79566322
vt 0.29550000 0.99051525
vt 0.31139583 0.79566322
vt 0.31139583 0.99051525
vt 0.32729167 0.79566322
vt 0.32729167 0.99051525
vt 0.34318750 0.79566322
vt 0.34318750 0.99051525
vt 0.35908333 0.79566322
vt 0.35908333 0.99051525
vt 0.37497917 0.79566322
vt 0.37497917 0.99051525
vt 0.39087500 0.79566322
vt 0.39087500 0.99051525
vt 0.40079939 0.80793126
vt 0.40079939 0.97842705
vt 0.40445287 0.81158474
vt 0.40445287 0.97477357
vt 0.40445287 0.97994037
vt 0.40445287 0.80641794
vt 0.41175983 0.97994037
vt 0.41175983 0.80641794
vt 0.41175983 0.81158474
vt 0.41175983 0.97477357
vt 0.41541331 0.80793126
vt 0.41541331 0.97842705
vt 0.42500325 0.80793126
vt 0.42500325 0.97842705
vt 0.42865673 0.81158474
vt 0.42865673 0.97994037
vt 0.42865673 0.97477357
vt 0.42865673 0.80641794
vt 0.43596369 0.97994037
vt 0.43596369 0.80641794
vt 0.43596369 0.97477357
vt 0.43596369 0.81158474
vt 0.43961717 0.97842705
vt 0.43961717 0.80793126
vn 0.0000000e+0 1.00000000 9.1510877e-17
vn 1.00000000 0.0000000e+0 -1.1198031e-16
vn 1.00000000 0.0000000e+0 -1.1198031e-16
vn 0.0000000e+0 1.00000000 9.1510877e-17
vn 0.96592583 0.0000000e+0 0.25881905
vn 0.96592583 0.0000000e+0 0.25881905
vn 0.0000000e+0 1.00000000 9.1510877e-17
vn 0.86602540 0.0000000e+0 0.50000000
vn 0.86602540 0.0000000e+0 0.50000000
vn 0.0000000e+0 1.00000000 9.1510877e-17
vn 0.70710678 0.0000000e+0 0.70710678
vn 0.70710678 0.0000000e+0 0.70710678
vn 0.0000000e+0 1.00000000 9.1510877e-17
vn 0.50000000 0.0000000e+0 0.86602540
vn 0.50000000 0.0000000e+0 0.86602540
vn 0.0000000e+0 1.00000000 9.1510877e-17
vn 0.25881905 0.0000000e+0 0.96592583
vn 0.25881905 0.0000000e+0 0.96592583
vn 0.0000000e+0 1.00000000 9.1510877e-17
vn 2.9394831e-16 0.0000000e+0 1.00000000
vn 2.9394831e-16 0.0000000e+0 1.00000000
vn 0.0000000e+0 1.00000000 9.1510877e-17
vn -0.25881905 0.0000000e+0 0.96592583
vn -0.25881905 0.0000000e+0 0.96592583
vn 0.0000000e+0 1.00000000 9.1510877e-17
vn -0.50000000 0.0000000e+0 0.86602540
vn -0.50000000 0.0000000e+0 0.86602540
vn 0.0000000e+0 1.00000000 9.1510877e-17
vn -0.70710678 0.0000000e+0 0.70710678
vn -0.70710678 0.0000000e+0 0.70710678
vn 0.0000000e+0 1.00000000 9.1510877e-17
vn -0.86602540 0.0000000e+0 0.50000000
vn -0.86602540 0.0000000e+0 0.50000000
vn 0.0000000e+0 1.00000000 9.1510877e-17
vn -0.96592583 0.0000000e+0 0.25881905
vn -0.96592583 0.0000000e+0 0.25881905
vn 0.0000000e+0 1.00000000 9.1510877e-17
vn -1.00000000 0.0000000e+0 5.4590401e-16
vn -1.00000000 0.0000000e+0 5.4590401e-16
vn 0.0000000e+0 1.00000000 9.1510877e-17
vn -0.96592583 0.0000000e+0 -0.25881905
vn -0.96592583 0.0000000e+0 -0.25881905
vn 0.0000000e+0 1.00000000 9.1510877e-17
vn -0.86602540 0.0000000e+0 -0.50000000
vn -0.86602540 0.0000000e+0 -0.50000000
vn 0.0000000e+0 1.00000000 9.1510877e-17
vn -0.70710678 0.0000000e+0 -0.70710678
vn -0.70710678 0.0000000e+0 -0.70710678
vn 0.0000000e+0 1.00000000 9.1510877e-17
vn -0.50000000 0.0000000e+0 -0.86602540
vn -0.50000000 0.0000000e+0 -0.86602540
vn 0.0000000e+0 1.00000000 9.1510877e-17
vn -0.25881905 0.0000000e+0 -0.96592583
vn -0.25881905 0.0000000e+0 -0.96592583
vn 0.0000000e+0 1.00000000 9.1510877e-17
vn -4.4792124e-16 0.0000000e+0 -1.00000000
vn -4.4792124e-16 0.0000000e+0 -1.00000000
vn 0.0000000e+0 1.00000000 9.1510877e-17
vn 0.25881905 0.0000000e+0 -0.96592583
vn 0.25881905 0.0000000e+0 -0.96592583
vn 0.0000000e+0 1.00000000 9.1510877e-17
vn 0.50000000 0.0000000e+0 -0.86602540
vn 0.50000000 0.0000000e+0 -0.86602540
vn 0.0000000e+0 1.00000000 9.1510877e-17
vn 0.70710678 0.0000000e+0 -0.70710678
vn 0.70710678 0.0000000e+0 -0.70710678
vn 0.0000000e+0 1.00000000 9.1510877e-17
vn 0.86602540 0.0000000e+0 -0.50000000
vn 0.86602540 0.0000000e+0 -0.50000000
vn 0.0000000e+0 1.00000000 9.1510877e-17
vn 0.96592583 0.0000000e+0 -0.25881905
vn 0.96592583 0.0000000e+0 -0.25881905
vn 0.0000000e+0 -1.00000000 2.2877719e-16
vn 1.00000000 0.0000000e+0 -1.1198031e-16
vn 1.00000000 0.0000000e+0 -1.1198031e-16
vn 0.0000000e+0 -1.00000000 2.2877719e-16
vn 0.96592583 0.0000000e+0 0.25881905
vn 0.96592583 0.0000000e+0 0.25881905
vn 0.0000000e+0 -1.00000000 2.2877719e-16
vn 0.86602540 0.0000000e+0 0.50000000
vn 0.86602540 0.0000000e+0 0.50000000
vn 0.0000000e+0 -1.00000000 2.2877719e-16
vn 0.70710678 0.0000000e+0 0.70710678
vn 0.70710678 0.0000000e+0 0.70710678
vn 0.0000000e+0 -1.00000000 2.2877719e-16
vn 0.50000000 0.0000000e+0 0.86602540
vn 0.50000000 0.0000000e+0 0.86602540
vn 0.0000000e+0 -1.00000000 2.2877719e-16
vn 0.25881905 0.0000000e+0 0.96592583
vn 0.25881905 0.0000000e+0 0.96592583
vn 0.0000000e+0 -1.00000000 2.2877719e-16
vn 2.9394831e-16 0.0000000e+0 1.00000000
vn 2.9394831e-16 0.0000000e+0 1.00000000
vn 0.0000000e+0 -1.00000000 2.2877719e-16
vn -0.25881905 0.0000000e+0 0.96592583
vn -0.25881905 0.0000000e+0 0.96592583
vn 0.0000000e+0 -1.00000000 2.2877719e-16
vn -0.50000000 0.0000000e+0 0.86602540
vn -0.50000000 0.0000000e+0 0.86602540
vn 0.0000000e+0 -1.00000000 2.2877719e-16
vn -0.70710678 0.0000000e+0 0.70710678
vn -0.70710678 0.0000000e+0 0.70710678
vn 0.0000000e+0 -1.00000000 2.2877719e-16
vn -0.86602540 0.0000000e+0 0.50000000
vn -0.86602540 0.0000000e+0 0.50000000
vn 0.0000000e+0 -1.00000000 2.2877719e-16
vn -0.96592583 0.0000000e+0 0.25881905
vn -0.96592583 0.0000000e+0 0.25881905
vn 0.0000000e+0 -1.00000000 2.2877719e-16
vn -1.00000000 0.0000000e+0 5.4590401e-16
vn -1.00000000 0.0000000e+0 5.4590401e-16
vn 0.0000000e+0 -1.00000000 2.2877719e-16
vn -0.96592583 0.0000000e+0 -0.25881905
vn -0.96592583 0.0000000e+0 -0.25881905
vn 0.0000000e+0 -1.00000000 2.2877719e-16
vn -0.86602540 0.0000000e+0 -0.50000000
vn -0.86602540 0.0000000e+0 -0.50000000
vn 0.0000000e+0 -1.00000000 2.2877719e-16
vn -0.70710678 0.0000000e+0 -0.70710678
vn -0.70710678 0.0000000e+0 -0.70710678
vn 0.0000000e+0 -1.00000000 2.2877719e-16
vn -0.50000000 0.0000000e+0 -0.86602540
vn -0.50000000 0.0000000e+0 -0.86602540
vn 0.0000000e+0 -1.00000000 2.2877719e-16
vn -0.25881905 0.0000000e+0 -0.96592583
vn -0.25881905 0.0000000e+0 -0.96592583
vn 0.0000000e+0 -1.00000000 2.2877719e-16
vn -4.4792124e-16 0.0000000e+0 -1.00000000
vn -4.4792124e-16 0.0000000e+0 -1.00000000
vn 0.0000000e+0 -1.00000000 2.2877719e-16
vn 0.25881905 0.0000000e+0 -0.96592583
vn 0.25881905 0.0000000e+0 -0.96592583
vn 0.0000000e+0 -1.00000000 2.2877719e-16
vn 0.50000000 0.0000000e+0 -0.86602540
vn 0.50000000 0.0000000e+0 -0.86602540
vn 0.0000000e+0 -1.00000000 2.2877719e-16
vn 0.70710678 0.0000000e+0 -0.70710678
vn 0.70710678 0.0000000e+0 -0.70710678
vn 0.0000000e+0 -1.00000000 2.2877719e-16
vn 0.86602540 0.0000000e+0 -0.50000000
vn 0.86602540 0.0000000e+0 -0.50000000
vn 0.0000000e+0 -1.00000000 2.2877719e-16
vn 0.96592583 0.0000000e+0 -0.25881905
vn 0.96592583 0.0000000e+0 -0.25881905
vn 0.65328148 -0.70710678 -0.27059805
vn 0.92387953 7.0769813e-17 -0.38268343
vn -0.38268343 -1.7254379e-15 -0.92387953
vn 0.65328148 -0.70710678 -0.27059805
vn -0.38268343 -1.7254379e-15 -0.92387953
vn 0.65328148 0.70710678 -0.27059805
vn 0.92387953 7.0769813e-17 -0.38268343
vn -0.38268343 -1.7254379e-15 -0.92387953
vn 0.65328148 0.70710678 -0.27059805
vn -0.38268343 -1.7254379e-15 -0.92387953
vn 0.65328148 -0.70710678 -0.27059805
vn 0.92387953 7.0769813e-17 -0.38268343
vn 0.38268343 1.7406325e-15 0.92387953
vn 0.65328148 -0.70710678 -0.27059805
vn 0.38268343 1.7406325e-15 0.92387953
vn 0.65328148 0.70710678 -0.27059805
vn 0.92387953 7.0769813e-17 -0.38268343
vn 0.38268343 1.7406325e-15 0.92387953
vn 0.65328148 0.70710678 -0.27059805
vn 0.38268343 1.7406325e-15 0.92387953
vn -0.65328148 -0.70710678 0.27059805
vn -0.92387953 7.0769813e-17 0.38268343
vn 0.38268343 -1.7254379e-15 0.92387953
vn -0.65328148 -0.70710678 0.27059805
vn 0.38268343 -1.7254379e-15 0.92387953
vn -0.65328148 0.70710678 0.27059805
vn -0.92387953 7.0769813e-17 0.38268343
vn 0.38268343 -1.7254379e-15 0.92387953
vn -0.65328148 0.70710678 0.27059805
vn 0.38268343 -1.7254379e-15 0.92387953
vn -0.65328148 -0.70710678 0.27059805
vn -0.92387953 7.0769813e-17 0.38268343
vn -0.38268343 1.7406325e-15 -0.92387953
vn -0.65328148 -0.70710678 0.27059805
vn -0.38268343 1.7406325e-15 -0.92387953
vn -0.65328148 0.70710678 0.27059805
vn -0.92387953 7.0769813e-17 0.38268343
vn -0.38268343 1.7406325e-15 -0.92387953
vn -0.65328148 0.70710678 0.27059805
vn -0.38268343 1.7406325e-15 -0.92387953
g corvus_lv_fuel_tank_s1_2_corvus_lv_fuel_tank_s1_2_auv
usemtl corvus_lv_fuel_tank_s1_2_auv
s 1
f 51/60/151 55/54/161 53/53/156 49/59/146
f 58/74/169 60/73/174 59/71/172 57/72/167
f 61/65/177 63/67/182 64/64/184 62/63/179
s 2
f 1/7/2 25/8/74 48/9/143 24/10/71
f 2/5/6 26/6/78 25/8/75 1/7/3
f 3/3/9 27/4/81 26/6/77 2/5/5
f 4/1/12 28/2/84 27/4/80 3/3/8
f 5/48/15 29/47/87 28/49/83 4/50/11
f 6/46/18 30/45/90 29/47/86 5/48/14
f 7/44/21 31/43/93 30/45/89 6/46/17
f 8/42/24 32/41/96 31/43/92 7/44/20
f 9/40/27 33/39/99 32/41/95 8/42/23
f 10/38/30 34/37/102 33/39/98 9/40/26
f 11/36/33 35/35/105 34/37/101 10/38/29
f 12/34/36 36/33/108 35/35/104 11/36/32
f 13/32/39 37/31/111 36/33/107 12/34/35
f 14/30/42 38/29/114 37/31/110 13/32/38
f 15/28/45 39/27/117 38/29/113 14/30/41
f 16/26/48 40/25/120 39/27/116 15/28/44
f 17/24/51 41/23/123 40/25/119 16/26/47
f 18/22/54 42/21/126 41/23/122 17/24/50
f 19/20/57 43/19/129 42/21/125 18/22/53
f 20/18/60 44/17/132 43/19/128 19/20/56
f 21/16/63 45/15/135 44/17/131 20/18/59
f 22/14/66 46/13/138 45/15/134 21/16/62
f 23/11/69 47/12/141 46/13/137 22/14/65
f 24/10/72 48/9/144 47/12/140 23/11/68
f 50/61/149 52/62/154 51/60/152 49/59/147
f 53/53/157 55/54/162 56/52/164 54/51/159
f 59/71/171 63/67/181 61/65/176 57/72/166
s 3
f 49/59/145 53/53/155 54/56/158 50/58/148
f 52/57/153 56/55/163 55/54/160 51/60/150
f 57/72/165 61/65/175 62/68/178 58/70/168
f 60/69/173 64/66/183 63/67/180 59/71/170
g corvus_lv_fuel_tank_s1_2_default
usemtl default
s 1
f 1//1 24//70 23//67 22//64 21//61 20//58 19//55 18//52 17//49 16//46 15//43 14//40 13//37 12//34 11//31 10//28 9//25 8//22 7//19 6//16 5//13 4//10 3//7 2//4
f 26//76 27//79 28//82 29//85 30//88 31//91 32//94 33//97 34//100 35//103 36//106 37//109 38//112 39//115 40//118 41//121 42//124 43//127 44//130 45//133 46//136 47//139 48//142 25//73
