# Exported from Wings 3D 1.5.4
mtllib HLV_Nose_2_Collider.mtl
o HLV_Nose_2_Collider
#49 vertices, 49 faces
v 1.25000000 -1.75000000 -0.24864046
v 1.25000000 -1.75000000 0.24864046
v 1.05969883 -1.75000000 0.70806812
v 0.70806812 -1.75000000 1.05969883
v 0.24864046 -1.75000000 1.25000000
v -0.24864046 -1.75000000 1.25000000
v -0.70806812 -1.75000000 1.05969883
v -1.05969883 -1.75000000 0.70806812
v -1.25000000 -1.75000000 0.24864046
v -1.25000000 -1.75000000 -0.24864046
v -1.05969883 -1.75000000 -0.70806812
v -0.70806812 -1.75000000 -1.05969883
v -0.24864046 -1.75000000 -1.25000000
v 0.24864046 -1.75000000 -1.25000000
v 0.70806812 -1.75000000 -1.05969883
v 1.05969883 -1.75000000 -0.70806812
v 1.25000000 -2.25000000 -0.24864046
v 1.25000000 -2.25000000 0.24864046
v 1.05969883 -2.25000000 0.70806812
v 0.70806812 -2.25000000 1.05969883
v 0.24864046 -2.25000000 1.25000000
v -0.24864046 -2.25000000 1.25000000
v -0.70806812 -2.25000000 1.05969883
v -1.05969883 -2.25000000 0.70806812
v -1.25000000 -2.25000000 0.24864046
v -1.25000000 -2.25000000 -0.24864046
v -1.05969883 -2.25000000 -0.70806812
v -0.70806812 -2.25000000 -1.05969883
v -0.24864046 -2.25000000 -1.25000000
v 0.24864046 -2.25000000 -1.25000000
v 0.70806812 -2.25000000 -1.05969883
v 1.05969883 -2.25000000 -0.70806812
v 1.25000000 -1.29888538 0.29498643
v 1.25000000 -1.14935012 -0.17927881
v 1.05969883 -1.01119756 -0.61744276
v 0.70806812 -0.90546017 -0.95279893
v 0.24864046 -0.84823550 -1.13429238
v -0.24864046 -0.84823550 -1.13429238
v -0.70806812 -0.90546017 -0.95279893
v -1.05969883 -1.01119756 -0.61744276
v -1.25000000 -1.14935012 -0.17927881
v -1.25000000 -1.29888538 0.29498643
v -1.05969883 -1.43703794 0.73315038
v -0.70806812 -1.54277533 1.06850655
v -0.24864046 -1.60000000 1.25000000
v 0.24864046 -1.60000000 1.25000000
v 0.70806812 -1.54277533 1.06850655
v 1.05969883 -1.43703794 0.73315038
v 0.0000000e+0 2.25000000 1.25000000
vn 0.92387953 0.0000000e+0 -0.38268343
vn 1.00000000 0.0000000e+0 0.0000000e+0
vn 1.00000000 0.0000000e+0 0.0000000e+0
vn 0.92220216 4.5863242e-2 -0.38397883
vn 0.92387953 0.0000000e+0 0.38268343
vn 1.00000000 0.0000000e+0 0.0000000e+0
vn 1.00000000 0.0000000e+0 0.0000000e+0
vn 0.92203668 -3.6030438e-2 0.38542207
vn 0.70710678 0.0000000e+0 0.70710678
vn 0.92387953 0.0000000e+0 0.38268343
vn 0.70158662 -4.6326392e-2 0.71107671
vn 0.92203668 -3.6030438e-2 0.38542207
vn 0.38268343 0.0000000e+0 0.92387953
vn 0.70710678 0.0000000e+0 0.70710678
vn 0.37621016 -2.2837657e-2 0.92625286
vn 0.70158662 -4.6326392e-2 0.71107671
vn 0.0000000e+0 0.0000000e+0 1.00000000
vn 0.38268343 0.0000000e+0 0.92387953
vn 0.0000000e+0 0.0000000e+0 1.00000000
vn 0.37621016 -2.2837657e-2 0.92625286
vn -0.38268343 0.0000000e+0 0.92387953
vn 0.0000000e+0 0.0000000e+0 1.00000000
vn -0.37621016 -2.2837657e-2 0.92625286
vn 0.0000000e+0 0.0000000e+0 1.00000000
vn -0.70710678 0.0000000e+0 0.70710678
vn -0.38268343 0.0000000e+0 0.92387953
vn -0.70158662 -4.6326392e-2 0.71107671
vn -0.37621016 -2.2837657e-2 0.92625286
vn -0.92387953 0.0000000e+0 0.38268343
vn -0.70710678 0.0000000e+0 0.70710678
vn -0.92203668 -3.6030438e-2 0.38542207
vn -0.70158662 -4.6326392e-2 0.71107671
vn -1.00000000 0.0000000e+0 0.0000000e+0
vn -0.92387953 0.0000000e+0 0.38268343
vn -1.00000000 0.0000000e+0 0.0000000e+0
vn -0.92203668 -3.6030438e-2 0.38542207
vn -0.92387953 0.0000000e+0 -0.38268343
vn -1.00000000 0.0000000e+0 0.0000000e+0
vn -0.92220216 4.5863242e-2 -0.38397883
vn -1.00000000 0.0000000e+0 0.0000000e+0
vn -0.70710678 0.0000000e+0 -0.70710678
vn -0.92387953 0.0000000e+0 -0.38268343
vn -0.70281031 8.8063189e-2 -0.70590548
vn -0.92220216 4.5863242e-2 -0.38397883
vn -0.38268343 0.0000000e+0 -0.92387953
vn -0.70710678 0.0000000e+0 -0.70710678
vn -0.37876306 0.11702892 -0.91806469
vn -0.70281031 8.8063189e-2 -0.70590548
vn 0.0000000e+0 0.0000000e+0 -1.00000000
vn -0.38268343 0.0000000e+0 -0.92387953
vn 0.0000000e+0 0.12726905 -0.99186823
vn -0.37876306 0.11702892 -0.91806469
vn 0.38268343 0.0000000e+0 -0.92387953
vn 0.0000000e+0 0.0000000e+0 -1.00000000
vn 0.37876306 0.11702892 -0.91806469
vn 0.0000000e+0 0.12726905 -0.99186823
vn 0.70710678 0.0000000e+0 -0.70710678
vn 0.38268343 0.0000000e+0 -0.92387953
vn 0.70281031 8.8063189e-2 -0.70590548
vn 0.37876306 0.11702892 -0.91806469
vn 0.92387953 0.0000000e+0 -0.38268343
vn 0.70710678 0.0000000e+0 -0.70710678
vn 0.92220216 4.5863242e-2 -0.38397883
vn 0.70281031 8.8063189e-2 -0.70590548
vn 0.0000000e+0 -1.00000000 -1.2279230e-16
vn 0.92387953 0.0000000e+0 -0.38268343
vn 1.00000000 0.0000000e+0 0.0000000e+0
vn 0.0000000e+0 -1.00000000 -1.2279230e-16
vn 0.92387953 0.0000000e+0 0.38268343
vn 1.00000000 0.0000000e+0 0.0000000e+0
vn 0.0000000e+0 -1.00000000 -1.2279230e-16
vn 0.70710678 0.0000000e+0 0.70710678
vn 0.92387953 0.0000000e+0 0.38268343
vn 0.0000000e+0 -1.00000000 -1.2279230e-16
vn 0.38268343 0.0000000e+0 0.92387953
vn 0.70710678 0.0000000e+0 0.70710678
vn 0.0000000e+0 -1.00000000 -1.2279230e-16
vn 0.0000000e+0 0.0000000e+0 1.00000000
vn 0.38268343 0.0000000e+0 0.92387953
vn 0.0000000e+0 -1.00000000 -1.2279230e-16
vn -0.38268343 0.0000000e+0 0.92387953
vn 0.0000000e+0 0.0000000e+0 1.00000000
vn 0.0000000e+0 -1.00000000 -1.2279230e-16
vn -0.70710678 0.0000000e+0 0.70710678
vn -0.38268343 0.0000000e+0 0.92387953
vn 0.0000000e+0 -1.00000000 -1.2279230e-16
vn -0.92387953 0.0000000e+0 0.38268343
vn -0.70710678 0.0000000e+0 0.70710678
vn 0.0000000e+0 -1.00000000 -1.2279230e-16
vn -1.00000000 0.0000000e+0 0.0000000e+0
vn -0.92387953 0.0000000e+0 0.38268343
vn 0.0000000e+0 -1.00000000 -1.2279230e-16
vn -0.92387953 0.0000000e+0 -0.38268343
vn -1.00000000 0.0000000e+0 0.0000000e+0
vn 0.0000000e+0 -1.00000000 -1.2279230e-16
vn -0.70710678 0.0000000e+0 -0.70710678
vn -0.92387953 0.0000000e+0 -0.38268343
vn 0.0000000e+0 -1.00000000 -1.2279230e-16
vn -0.38268343 0.0000000e+0 -0.92387953
vn -0.70710678 0.0000000e+0 -0.70710678
vn 0.0000000e+0 -1.00000000 -1.2279230e-16
vn 0.0000000e+0 0.0000000e+0 -1.00000000
vn -0.38268343 0.0000000e+0 -0.92387953
vn 0.0000000e+0 -1.00000000 -1.2279230e-16
vn 0.38268343 0.0000000e+0 -0.92387953
vn 0.0000000e+0 0.0000000e+0 -1.00000000
vn 0.0000000e+0 -1.00000000 -1.2279230e-16
vn 0.70710678 0.0000000e+0 -0.70710678
vn 0.38268343 0.0000000e+0 -0.92387953
vn 0.0000000e+0 -1.00000000 -1.2279230e-16
vn 0.92387953 0.0000000e+0 -0.38268343
vn 0.70710678 0.0000000e+0 -0.70710678
vn 1.00000000 0.0000000e+0 0.0000000e+0
vn 0.92203668 -3.6030438e-2 0.38542207
vn 0.94664817 0.30735330 9.6908124e-2
vn 0.87712985 0.19028553 0.44094743
vn 1.00000000 0.0000000e+0 0.0000000e+0
vn 0.92220216 4.5863242e-2 -0.38397883
vn 0.94664817 0.30735330 9.6908124e-2
vn 0.87199798 0.42371338 -0.24512547
vn 0.92220216 4.5863242e-2 -0.38397883
vn 0.70281031 8.8063189e-2 -0.70590548
vn 0.87199798 0.42371338 -0.24512547
vn 0.66568825 0.52179013 -0.53347372
vn 0.70281031 8.8063189e-2 -0.70590548
vn 0.37876306 0.11702892 -0.91806469
vn 0.66568825 0.52179013 -0.53347372
vn 0.35964166 0.58702621 -0.72529863
vn 0.37876306 0.11702892 -0.91806469
vn 0.0000000e+0 0.12726905 -0.99186823
vn 0.35964166 0.58702621 -0.72529863
vn 0.0000000e+0 0.60987696 -0.79249612
vn 0.0000000e+0 0.12726905 -0.99186823
vn -0.37876306 0.11702892 -0.91806469
vn 0.0000000e+0 0.60987696 -0.79249612
vn -0.35964166 0.58702621 -0.72529863
vn -0.37876306 0.11702892 -0.91806469
vn -0.70281031 8.8063189e-2 -0.70590548
vn -0.35964166 0.58702621 -0.72529863
vn -0.66568825 0.52179013 -0.53347372
vn -0.70281031 8.8063189e-2 -0.70590548
vn -0.92220216 4.5863242e-2 -0.38397883
vn -0.66568825 0.52179013 -0.53347372
vn -0.87199798 0.42371338 -0.24512547
vn -0.92220216 4.5863242e-2 -0.38397883
vn -1.00000000 0.0000000e+0 0.0000000e+0
vn -0.87199798 0.42371338 -0.24512547
vn -0.94664817 0.30735330 9.6908124e-2
vn -1.00000000 0.0000000e+0 0.0000000e+0
vn -0.92203668 -3.6030438e-2 0.38542207
vn -0.94664817 0.30735330 9.6908124e-2
vn -0.87712985 0.19028553 0.44094743
vn -0.92203668 -3.6030438e-2 0.38542207
vn -0.70158662 -4.6326392e-2 0.71107671
vn -0.87712985 0.19028553 0.44094743
vn -0.67294401 9.0500824e-2 0.73413620
vn -0.70158662 -4.6326392e-2 0.71107671
vn -0.37621016 -2.2837657e-2 0.92625286
vn -0.67294401 9.0500824e-2 0.73413620
vn -0.36477099 2.3557617e-2 0.93079921
vn -0.37621016 -2.2837657e-2 0.92625286
vn 0.0000000e+0 0.0000000e+0 1.00000000
vn -0.36477099 2.3557617e-2 0.93079921
vn 0.0000000e+0 0.0000000e+0 1.00000000
vn 0.0000000e+0 0.0000000e+0 1.00000000
vn 0.37621016 -2.2837657e-2 0.92625286
vn 0.0000000e+0 0.0000000e+0 1.00000000
vn 0.36477099 2.3557617e-2 0.93079921
vn 0.37621016 -2.2837657e-2 0.92625286
vn 0.70158662 -4.6326392e-2 0.71107671
vn 0.36477099 2.3557617e-2 0.93079921
vn 0.67294401 9.0500824e-2 0.73413620
vn 0.70158662 -4.6326392e-2 0.71107671
vn 0.92203668 -3.6030438e-2 0.38542207
vn 0.67294401 9.0500824e-2 0.73413620
vn 0.87712985 0.19028553 0.44094743
vn 0.94664817 0.30735330 9.6908124e-2
vn 0.87199798 0.42371338 -0.24512547
vn 0.66568825 0.52179013 -0.53347372
vn 0.35964166 0.58702621 -0.72529863
vn 0.0000000e+0 0.60987696 -0.79249612
vn -0.35964166 0.58702621 -0.72529863
vn -0.66568825 0.52179013 -0.53347372
vn -0.87199798 0.42371338 -0.24512547
vn -0.94664817 0.30735330 9.6908124e-2
vn -0.87712985 0.19028553 0.44094743
vn -0.67294401 9.0500824e-2 0.73413620
vn -0.36477099 2.3557617e-2 0.93079921
vn 0.0000000e+0 0.0000000e+0 1.00000000
vn 0.36477099 2.3557617e-2 0.93079921
vn 0.67294401 9.0500824e-2 0.73413620
vn 0.87712985 0.19028553 0.44094743
g HLV_Nose_2_Collider_default
usemtl default
s 1
f 1//3 34//117 33//113 2//7
f 4//14 20//76 19//72 3//9
f 4//15 47//169 46//166 5//20
f 6//22 22//82 21//78 5//17
f 7//27 44//157 43//154 8//32
f 9//34 25//91 24//87 8//29
f 9//35 42//149 41//146 10//40
f 11//42 27//97 26//93 10//37
f 13//50 29//103 28//99 12//45
f 14//55 37//129 36//126 15//60
f 16//62 32//112 31//108 15//57
f 33//116 49//192 48//176
f 36//127 49//179 35//124
f 38//135 49//181 37//132
f 40//143 49//183 39//140
f 43//155 49//186 42//152
f 45//163 49//188 44//160
s 2
f 2//6 18//70 17//67 1//2
f 3//11 48//173 47//170 4//16
f 5//18 21//79 20//75 4//13
f 5//19 46//165 45//162 6//24
f 8//30 24//88 23//84 7//25
f 8//31 43//153 42//150 9//36
f 10//38 26//94 25//90 9//33
f 10//39 41//145 40//142 11//44
f 12//46 28//100 27//96 11//41
f 14//54 30//106 29//102 13//49
f 16//63 35//121 34//118 1//4
f 34//119 49//177 33//115
f 37//131 49//180 36//128
f 39//139 49//182 38//136
f 42//151 49//185 41//148
f 44//159 49//187 43//156
f 47//171 49//190 46//168
s 3
f 2//8 33//114 48//174 3//12
f 6//23 45//161 44//158 7//28
f 12//47 39//137 38//134 13//52
f 15//59 36//125 35//122 16//64
f 18//68 19//71 20//74 21//77 22//80 23//83 24//86 25//89 26//92 27//95 28//98 29//101 30//104 31//107 32//110 17//65
f 35//123 49//178 34//120
f 41//147 49//184 40//144
f 46//167 49//189 45//164
f 48//175 49//191 47//172
s 4
f 1//1 17//66 32//111 16//61
f 3//10 19//73 18//69 2//5
f 7//26 23//85 22//81 6//21
f 11//43 40//141 39//138 12//48
f 13//51 38//133 37//130 14//56
f 15//58 31//109 30//105 14//53
