# Exported from Wings 3D 1.5.4
mtllib ALV_3_Engine_1_Collider.mtl
o ALV_3_Engine_1_Collider2
#24 vertices, 14 faces
v 0.65000000 0.47500000 -0.17416698
v 0.65000000 0.47500000 0.17416698
v 0.47583302 0.47500000 0.47583302
v 0.17416698 0.47500000 0.65000000
v -0.17416698 0.47500000 0.65000000
v -0.47583302 0.47500000 0.47583302
v -0.65000000 0.47500000 0.17416698
v -0.65000000 0.47500000 -0.17416698
v -0.47583302 0.47500000 -0.47583302
v -0.17416698 0.47500000 -0.65000000
v 0.17416698 0.47500000 -0.65000000
v 0.47583302 0.47500000 -0.47583302
v 0.43750000 -1.00000000 -0.11722777
v 0.43750000 -1.00000000 0.11722777
v 0.32027223 -1.00000000 0.32027223
v 0.11722777 -1.00000000 0.43750000
v -0.11722777 -1.00000000 0.43750000
v -0.32027223 -1.00000000 0.32027223
v -0.43750000 -1.00000000 0.11722777
v -0.43750000 -1.00000000 -0.11722777
v -0.32027223 -1.00000000 -0.32027223
v -0.11722777 -1.00000000 -0.43750000
v 0.11722777 -1.00000000 -0.43750000
v 0.32027223 -1.00000000 -0.32027223
vn 0.85717552 -0.14259557 -0.49489052
vn 0.98978104 -0.14259557 0.0000000e+0
vn 0.0000000e+0 1.00000000 -3.0646514e-17
vn 0.85717552 -0.14259557 0.49489052
vn 0.98978104 -0.14259557 0.0000000e+0
vn 0.0000000e+0 1.00000000 -3.0646514e-17
vn 0.49489052 -0.14259557 0.85717552
vn 0.85717552 -0.14259557 0.49489052
vn 0.0000000e+0 1.00000000 -3.0646514e-17
vn -3.1958445e-16 -0.14259557 0.98978104
vn 0.49489052 -0.14259557 0.85717552
vn 0.0000000e+0 1.00000000 -3.0646514e-17
vn -0.49489052 -0.14259557 0.85717552
vn -3.1958445e-16 -0.14259557 0.98978104
vn 0.0000000e+0 1.00000000 -3.0646514e-17
vn -0.85717552 -0.14259557 0.49489052
vn -0.49489052 -0.14259557 0.85717552
vn 0.0000000e+0 1.00000000 -3.0646514e-17
vn -0.98978104 -0.14259557 0.0000000e+0
vn -0.85717552 -0.14259557 0.49489052
vn 0.0000000e+0 1.00000000 -3.0646514e-17
vn -0.85717552 -0.14259557 -0.49489052
vn -0.98978104 -0.14259557 0.0000000e+0
vn 0.0000000e+0 1.00000000 -3.0646514e-17
vn -0.49489052 -0.14259557 -0.85717552
vn -0.85717552 -0.14259557 -0.49489052
vn 0.0000000e+0 1.00000000 -3.0646514e-17
vn -2.5566756e-16 -0.14259557 -0.98978104
vn -0.49489052 -0.14259557 -0.85717552
vn 0.0000000e+0 1.00000000 -3.0646514e-17
vn 0.49489052 -0.14259557 -0.85717552
vn -2.5566756e-16 -0.14259557 -0.98978104
vn 0.0000000e+0 1.00000000 -3.0646514e-17
vn 0.85717552 -0.14259557 -0.49489052
vn 0.49489052 -0.14259557 -0.85717552
vn 0.0000000e+0 1.00000000 -3.0646514e-17
vn 0.0000000e+0 -1.00000000 -9.0196653e-17
vn 0.85717552 -0.14259557 -0.49489052
vn 0.98978104 -0.14259557 0.0000000e+0
vn 0.0000000e+0 -1.00000000 -9.0196653e-17
vn 0.85717552 -0.14259557 0.49489052
vn 0.98978104 -0.14259557 0.0000000e+0
vn 0.0000000e+0 -1.00000000 -9.0196653e-17
vn 0.49489052 -0.14259557 0.85717552
vn 0.85717552 -0.14259557 0.49489052
vn 0.0000000e+0 -1.00000000 -9.0196653e-17
vn -3.1958445e-16 -0.14259557 0.98978104
vn 0.49489052 -0.14259557 0.85717552
vn 0.0000000e+0 -1.00000000 -9.0196653e-17
vn -0.49489052 -0.14259557 0.85717552
vn -3.1958445e-16 -0.14259557 0.98978104
vn 0.0000000e+0 -1.00000000 -9.0196653e-17
vn -0.85717552 -0.14259557 0.49489052
vn -0.49489052 -0.14259557 0.85717552
vn 0.0000000e+0 -1.00000000 -9.0196653e-17
vn -0.98978104 -0.14259557 0.0000000e+0
vn -0.85717552 -0.14259557 0.49489052
vn 0.0000000e+0 -1.00000000 -9.0196653e-17
vn -0.85717552 -0.14259557 -0.49489052
vn -0.98978104 -0.14259557 0.0000000e+0
vn 0.0000000e+0 -1.00000000 -9.0196653e-17
vn -0.49489052 -0.14259557 -0.85717552
vn -0.85717552 -0.14259557 -0.49489052
vn 0.0000000e+0 -1.00000000 -9.0196653e-17
vn -2.5566756e-16 -0.14259557 -0.98978104
vn -0.49489052 -0.14259557 -0.85717552
vn 0.0000000e+0 -1.00000000 -9.0196653e-17
vn 0.49489052 -0.14259557 -0.85717552
vn -2.5566756e-16 -0.14259557 -0.98978104
vn 0.0000000e+0 -1.00000000 -9.0196653e-17
vn 0.85717552 -0.14259557 -0.49489052
vn 0.49489052 -0.14259557 -0.85717552
g ALV_3_Engine_1_Collider2_default
usemtl default
s 1
f 2//5 14//42 13//39 1//2
f 4//11 16//48 15//44 3//7
f 7//20 19//57 18//53 6//16
f 9//26 21//63 20//59 8//22
f 12//35 24//72 23//68 11//31
s 2
f 3//8 15//45 14//41 2//4
f 5//14 17//51 16//47 4//10
f 8//23 20//60 19//56 7//19
f 10//29 22//66 21//62 9//25
f 13//38 24//71 12//34 1//1
s 3
f 1//3 12//36 11//33 10//30 9//27 8//24 7//21 6//18 5//15 4//12 3//9 2//6
f 14//40 15//43 16//46 17//49 18//52 19//55 20//58 21//61 22//64 23//67 24//70 13//37
s 4
f 6//17 18//54 17//50 5//13
f 11//32 23//69 22//65 10//28
o ALV_3_Engine_1_Collider1
#44 vertices, 42 faces
v 1.25000000 1.00000000 -0.24864046
v 1.25000000 1.00000000 0.24864046
v 1.05969883 1.00000000 0.70806812
v 0.70806812 1.00000000 1.05969883
v 0.24864046 1.00000000 1.25000000
v -0.24864046 1.00000000 1.25000000
v -0.70806812 1.00000000 1.05969883
v -1.05969883 1.00000000 0.70806812
v -1.25000000 1.00000000 0.24864046
v -1.25000000 1.00000000 -0.24864046
v -1.05969883 1.00000000 -0.70806812
v -0.70806812 1.00000000 -1.05969883
v -0.24864046 1.00000000 -1.25000000
v 0.24864046 1.00000000 -1.25000000
v 0.70806812 1.00000000 -1.05969883
v 1.05969883 1.00000000 -0.70806812
v 1.25000000 0.62500000 -0.24864046
v 1.25000000 0.62500000 0.24864046
v 1.05969883 0.62500000 0.70806812
v 0.70806812 0.62500000 1.05969883
v 0.24864046 0.62500000 1.25000000
v -0.24864046 0.62500000 1.25000000
v -0.70806812 0.62500000 1.05969883
v -1.05969883 0.62500000 0.70806812
v -1.25000000 0.62500000 0.24864046
v -1.25000000 0.62500000 -0.24864046
v -1.05969883 0.62500000 -0.70806812
v -0.70806812 0.62500000 -1.05969883
v -0.24864046 0.62500000 -1.25000000
v 0.24864046 0.62500000 -1.25000000
v 0.70806812 0.62500000 -1.05969883
v 1.05969883 0.62500000 -0.70806812
v 0.65000000 0.47500000 -0.17416698
v 0.65000000 0.47500000 0.17416698
v 0.47583302 0.47500000 0.47583302
v 0.17416698 0.47500000 0.65000000
v -0.17416698 0.47500000 0.65000000
v -0.47583302 0.47500000 0.47583302
v -0.65000000 0.47500000 0.17416698
v -0.65000000 0.47500000 -0.17416698
v -0.47583302 0.47500000 -0.47583302
v -0.17416698 0.47500000 -0.65000000
v 0.17416698 0.47500000 -0.65000000
v 0.47583302 0.47500000 -0.47583302
vn 0.0000000e+0 1.00000000 0.0000000e+0
vn 0.92387953 0.0000000e+0 -0.38268343
vn 1.00000000 0.0000000e+0 0.0000000e+0
vn 0.0000000e+0 1.00000000 0.0000000e+0
vn 0.92387953 0.0000000e+0 0.38268343
vn 1.00000000 0.0000000e+0 0.0000000e+0
vn 0.0000000e+0 1.00000000 0.0000000e+0
vn 0.70710678 0.0000000e+0 0.70710678
vn 0.92387953 0.0000000e+0 0.38268343
vn 0.0000000e+0 1.00000000 0.0000000e+0
vn 0.38268343 0.0000000e+0 0.92387953
vn 0.70710678 0.0000000e+0 0.70710678
vn 0.0000000e+0 1.00000000 0.0000000e+0
vn 0.0000000e+0 0.0000000e+0 1.00000000
vn 0.38268343 0.0000000e+0 0.92387953
vn 0.0000000e+0 1.00000000 0.0000000e+0
vn -0.38268343 0.0000000e+0 0.92387953
vn 0.0000000e+0 0.0000000e+0 1.00000000
vn 0.0000000e+0 1.00000000 0.0000000e+0
vn -0.70710678 0.0000000e+0 0.70710678
vn -0.38268343 0.0000000e+0 0.92387953
vn 0.0000000e+0 1.00000000 0.0000000e+0
vn -0.92387953 0.0000000e+0 0.38268343
vn -0.70710678 0.0000000e+0 0.70710678
vn 0.0000000e+0 1.00000000 0.0000000e+0
vn -1.00000000 0.0000000e+0 0.0000000e+0
vn -0.92387953 0.0000000e+0 0.38268343
vn 0.0000000e+0 1.00000000 0.0000000e+0
vn -0.92387953 0.0000000e+0 -0.38268343
vn -1.00000000 0.0000000e+0 0.0000000e+0
vn 0.0000000e+0 1.00000000 0.0000000e+0
vn -0.70710678 0.0000000e+0 -0.70710678
vn -0.92387953 0.0000000e+0 -0.38268343
vn 0.0000000e+0 1.00000000 0.0000000e+0
vn -0.38268343 0.0000000e+0 -0.92387953
vn -0.70710678 0.0000000e+0 -0.70710678
vn 0.0000000e+0 1.00000000 0.0000000e+0
vn 0.0000000e+0 0.0000000e+0 -1.00000000
vn -0.38268343 0.0000000e+0 -0.92387953
vn 0.0000000e+0 1.00000000 0.0000000e+0
vn 0.38268343 0.0000000e+0 -0.92387953
vn 0.0000000e+0 0.0000000e+0 -1.00000000
vn 0.0000000e+0 1.00000000 0.0000000e+0
vn 0.70710678 0.0000000e+0 -0.70710678
vn 0.38268343 0.0000000e+0 -0.92387953
vn 0.0000000e+0 1.00000000 0.0000000e+0
vn 0.92387953 0.0000000e+0 -0.38268343
vn 0.70710678 0.0000000e+0 -0.70710678
vn 0.92387953 0.0000000e+0 -0.38268343
vn 1.00000000 0.0000000e+0 0.0000000e+0
vn 0.24253563 -0.97014250 0.0000000e+0
vn 0.23027121 -0.96844078 -9.5381459e-2
vn 0.92387953 0.0000000e+0 0.38268343
vn 1.00000000 0.0000000e+0 0.0000000e+0
vn 0.24253563 -0.97014250 0.0000000e+0
vn 0.23027121 -0.96844078 9.5381459e-2
vn 0.70710678 0.0000000e+0 0.70710678
vn 0.92387953 0.0000000e+0 0.38268343
vn 0.20310225 -0.97211075 0.11726114
vn 0.23027121 -0.96844078 9.5381459e-2
vn 0.17788943 -0.96783816 0.17788943
vn 0.38268343 0.0000000e+0 0.92387953
vn 0.70710678 0.0000000e+0 0.70710678
vn 9.5381459e-2 -0.96844078 0.23027121
vn 0.17788943 -0.96783816 0.17788943
vn 0.11726114 -0.97211075 0.20310225
vn 0.0000000e+0 0.0000000e+0 1.00000000
vn 0.38268343 0.0000000e+0 0.92387953
vn -2.6535783e-17 -0.97014250 0.24253563
vn 9.5381459e-2 -0.96844078 0.23027121
vn -0.38268343 0.0000000e+0 0.92387953
vn 0.0000000e+0 0.0000000e+0 1.00000000
vn -2.6535783e-17 -0.97014250 0.24253563
vn -9.5381459e-2 -0.96844078 0.23027121
vn -0.70710678 0.0000000e+0 0.70710678
vn -0.38268343 0.0000000e+0 0.92387953
vn -0.11726114 -0.97211075 0.20310225
vn -0.17788943 -0.96783816 0.17788943
vn -9.5381459e-2 -0.96844078 0.23027121
vn -0.92387953 0.0000000e+0 0.38268343
vn -0.70710678 0.0000000e+0 0.70710678
vn -0.23027121 -0.96844078 9.5381459e-2
vn -0.20310225 -0.97211075 0.11726114
vn -0.17788943 -0.96783816 0.17788943
vn -1.00000000 0.0000000e+0 0.0000000e+0
vn -0.92387953 0.0000000e+0 0.38268343
vn -0.24253563 -0.97014250 0.0000000e+0
vn -0.23027121 -0.96844078 9.5381459e-2
vn -0.92387953 0.0000000e+0 -0.38268343
vn -1.00000000 0.0000000e+0 0.0000000e+0
vn -0.24253563 -0.97014250 0.0000000e+0
vn -0.23027121 -0.96844078 -9.5381459e-2
vn -0.70710678 0.0000000e+0 -0.70710678
vn -0.92387953 0.0000000e+0 -0.38268343
vn -0.20310225 -0.97211075 -0.11726114
vn -0.17788943 -0.96783816 -0.17788943
vn -0.23027121 -0.96844078 -9.5381459e-2
vn -0.38268343 0.0000000e+0 -0.92387953
vn -0.70710678 0.0000000e+0 -0.70710678
vn -9.5381459e-2 -0.96844078 -0.23027121
vn -0.17788943 -0.96783816 -0.17788943
vn -0.11726114 -0.97211075 -0.20310225
vn 0.0000000e+0 0.0000000e+0 -1.00000000
vn -0.38268343 0.0000000e+0 -0.92387953
vn -2.6535783e-17 -0.97014250 -0.24253563
vn -9.5381459e-2 -0.96844078 -0.23027121
vn 0.38268343 0.0000000e+0 -0.92387953
vn 0.0000000e+0 0.0000000e+0 -1.00000000
vn -2.6535783e-17 -0.97014250 -0.24253563
vn 9.5381459e-2 -0.96844078 -0.23027121
vn 0.70710678 0.0000000e+0 -0.70710678
vn 0.38268343 0.0000000e+0 -0.92387953
vn 0.11726114 -0.97211075 -0.20310225
vn 0.17788943 -0.96783816 -0.17788943
vn 9.5381459e-2 -0.96844078 -0.23027121
vn 0.92387953 0.0000000e+0 -0.38268343
vn 0.70710678 0.0000000e+0 -0.70710678
vn 0.23027121 -0.96844078 -9.5381459e-2
vn 0.17788943 -0.96783816 -0.17788943
vn 0.20310225 -0.97211075 -0.11726114
vn 0.24253563 -0.97014250 0.0000000e+0
vn 0.23027121 -0.96844078 -9.5381459e-2
vn 0.20310225 -0.97211075 -0.11726114
vn 0.0000000e+0 -1.00000000 0.0000000e+0
vn 0.24253563 -0.97014250 0.0000000e+0
vn 0.20310225 -0.97211075 0.11726114
vn 0.23027121 -0.96844078 9.5381459e-2
vn 0.0000000e+0 -1.00000000 0.0000000e+0
vn 0.20310225 -0.97211075 0.11726114
vn 0.17788943 -0.96783816 0.17788943
vn 0.11726114 -0.97211075 0.20310225
vn 0.0000000e+0 -1.00000000 0.0000000e+0
vn -2.6535783e-17 -0.97014250 0.24253563
vn 9.5381459e-2 -0.96844078 0.23027121
vn 0.11726114 -0.97211075 0.20310225
vn 0.0000000e+0 -1.00000000 0.0000000e+0
vn -0.11726114 -0.97211075 0.20310225
vn -2.6535783e-17 -0.97014250 0.24253563
vn -9.5381459e-2 -0.96844078 0.23027121
vn 0.0000000e+0 -1.00000000 0.0000000e+0
vn -0.11726114 -0.97211075 0.20310225
vn -0.20310225 -0.97211075 0.11726114
vn -0.17788943 -0.96783816 0.17788943
vn 0.0000000e+0 -1.00000000 0.0000000e+0
vn -0.24253563 -0.97014250 0.0000000e+0
vn -0.23027121 -0.96844078 9.5381459e-2
vn -0.20310225 -0.97211075 0.11726114
vn 0.0000000e+0 -1.00000000 0.0000000e+0
vn -0.20310225 -0.97211075 -0.11726114
vn -0.24253563 -0.97014250 0.0000000e+0
vn -0.23027121 -0.96844078 -9.5381459e-2
vn 0.0000000e+0 -1.00000000 0.0000000e+0
vn -0.20310225 -0.97211075 -0.11726114
vn -0.17788943 -0.96783816 -0.17788943
vn -0.11726114 -0.97211075 -0.20310225
vn 0.0000000e+0 -1.00000000 0.0000000e+0
vn -2.6535783e-17 -0.97014250 -0.24253563
vn -9.5381459e-2 -0.96844078 -0.23027121
vn -0.11726114 -0.97211075 -0.20310225
vn 0.0000000e+0 -1.00000000 0.0000000e+0
vn 0.11726114 -0.97211075 -0.20310225
vn -2.6535783e-17 -0.97014250 -0.24253563
vn 9.5381459e-2 -0.96844078 -0.23027121
vn 0.0000000e+0 -1.00000000 0.0000000e+0
vn 0.11726114 -0.97211075 -0.20310225
vn 0.17788943 -0.96783816 -0.17788943
vn 0.20310225 -0.97211075 -0.11726114
vn 0.0000000e+0 -1.00000000 0.0000000e+0
g ALV_3_Engine_1_Collider1_default
usemtl default
s 1
f 26//78 42//126 41//122 25//75
f 30//90 46//144 45//139 29//86
f 32//96 48//153 47//147 31//92
f 34//102 50//162 49//157 33//98
f 37//111 53//176 52//170 36//107
f 39//117 55//184 54//179 38//113
f 41//124 57//194 56//190
f 43//132 58//199 42//128
f 44//137 59//202 43//133
f 45//142 60//206 44//136
f 47//151 61//211 46//146
f 51//169 64//223 50//164
f 52//173 65//226 51//168
f 54//181 67//234 66//229 53//177
f 56//191 68//238 55//186
f 62//214 48//155 63//219
s 2
f 28//84 44//135 43//129 27//80
f 31//93 47//148 46//143 30//89
f 33//99 49//158 48//152 32//95
f 36//108 52//171 51//165 35//104
f 38//114 54//180 53//175 37//110
f 40//120 56//189 55//183 39//116
f 42//127 58//197 57//193 41//123
f 46//145 61//210 60//205 45//141
f 48//156 62//215 47//150
f 50//163 64//222 63//217 49//159
f 58//198 43//131 59//201
f 59//203 44//138 60//207
f 64//221 51//167 65//225
f 65//227 52//174 66//231
f 67//233 55//185 68//237
f 68//239 56//192 57//195
s 3
f 25//73 40//118 39//115 38//112 37//109 36//106 35//103 34//100 33//97 32//94 31//91 30//88 29//85 28//82 27//79 26//76
f 49//160 63//218 48//154
f 53//178 66//230 52//172
f 55//187 67//235 54//182
f 58//200 59//204 60//208 61//212 62//216 63//220 64//224 65//228 66//232 67//236 68//240 57//196
s 4
f 25//74 41//121 56//188 40//119
f 27//81 43//130 42//125 26//77
f 29//87 45//140 44//134 28//83
f 35//105 51//166 50//161 34//101
f 61//209 47//149 62//213
