# Exported from Wings 3D 1.5.4
mtllib ALV_3_Engine_1_Vernier.mtl
o ALV_3_Engine_1_Vernier
#97 vertices, 96 faces
v 4.5000000e-2 -3.1086245e-15 1.1102230e-16
v 4.1574579e-2 -2.8865799e-15 1.7220754e-2
v 3.1819805e-2 -2.4424907e-15 3.1819805e-2
v 1.7220754e-2 -1.3322676e-15 4.1574579e-2
v 0.0000000e+0 -2.2204460e-16 4.5000000e-2
v -1.7220754e-2 8.8817842e-16 4.1574579e-2
v -3.1819805e-2 2.2204460e-15 3.1819805e-2
v -4.1574579e-2 2.8865799e-15 1.7220754e-2
v -4.5000000e-2 3.1086245e-15 1.1102230e-16
v -4.1574579e-2 2.8865799e-15 -1.7220754e-2
v -3.1819805e-2 2.2204460e-15 -3.1819805e-2
v -1.7220754e-2 1.3322676e-15 -4.1574579e-2
v 0.0000000e+0 2.2204460e-16 -4.5000000e-2
v 1.7220754e-2 -1.1102230e-15 -4.1574579e-2
v 3.1819805e-2 -1.9984014e-15 -3.1819805e-2
v 4.1574579e-2 -2.8865799e-15 -1.7220754e-2
v 0.10125000 -0.26500000 -7.2164497e-15
v 9.3542803e-2 -0.26500000 3.8746698e-2
v 7.1594562e-2 -0.26500000 7.1594562e-2
v 3.8746698e-2 -0.26500000 9.3542803e-2
v 1.1882162e-13 -0.26500000 0.10125000
v -3.8746698e-2 -0.26500000 9.3542803e-2
v -7.1594562e-2 -0.26500000 7.1594562e-2
v -9.3542803e-2 -0.26500000 3.8746698e-2
v -0.10125000 -0.26500000 -7.2164497e-15
v -9.3542803e-2 -0.26500000 -3.8746698e-2
v -7.1594562e-2 -0.26500000 -7.1594562e-2
v -3.8746698e-2 -0.26500000 -9.3542803e-2
v 1.1882162e-13 -0.26500000 -0.10125000
v 3.8746698e-2 -0.26500000 -9.3542803e-2
v 7.1594562e-2 -0.26500000 -7.1594562e-2
v 9.3542803e-2 -0.26500000 -3.8746698e-2
v 6.3966596e-2 -8.2146000e-2 -2.6495832e-2
v 8.3920812e-2 -0.18456537 -3.4761139e-2
v 4.8957913e-2 -8.2146000e-2 -4.8957913e-2
v 6.4230209e-2 -0.18456537 -6.4230209e-2
v 2.6495832e-2 -8.2146000e-2 -6.3966596e-2
v 3.4761139e-2 -0.18456537 -8.3920812e-2
v 3.0364600e-14 -8.2146000e-2 -6.9236945e-2
v 8.8651309e-14 -0.18456537 -9.0835233e-2
v -2.6495832e-2 -8.2146000e-2 -6.3966596e-2
v -3.4761139e-2 -0.18456537 -8.3920812e-2
v -4.8957913e-2 -8.2146000e-2 -4.8957913e-2
v -6.4230209e-2 -0.18456537 -6.4230209e-2
v -6.3966596e-2 -8.2146000e-2 -2.6495832e-2
v -8.3920812e-2 -0.18456537 -3.4761139e-2
v -6.9236945e-2 -8.2146000e-2 -3.5527137e-15
v -9.0835233e-2 -0.18456537 -3.5527137e-15
v -6.3966596e-2 -8.2146000e-2 2.6495832e-2
v -8.3920812e-2 -0.18456537 3.4761139e-2
v -4.8957913e-2 -8.2146000e-2 4.8957913e-2
v -6.4230209e-2 -0.18456537 6.4230209e-2
v -2.6495832e-2 -8.2146000e-2 6.3966596e-2
v -3.4761139e-2 -0.18456537 8.3920812e-2
v 3.0364600e-14 -8.2146000e-2 6.9236945e-2
v 8.8651309e-14 -0.18456537 9.0835233e-2
v 2.6495832e-2 -8.2146000e-2 6.3966596e-2
v 3.4761139e-2 -0.18456537 8.3920812e-2
v 4.8957913e-2 -8.2146000e-2 4.8957913e-2
v 6.4230209e-2 -0.18456537 6.4230209e-2
v 6.3966596e-2 -8.2146000e-2 2.6495832e-2
v 8.3920812e-2 -0.18456537 3.4761139e-2
v 6.9236945e-2 -8.2146000e-2 -3.5527137e-15
v 9.0835233e-2 -0.18456537 -3.5527137e-15
v 4.1574579e-2 2.5000000e-2 1.7220754e-2
v 4.5000000e-2 2.5000000e-2 2.2204460e-16
v 4.1574579e-2 2.5000000e-2 -1.7220754e-2
v 3.1819805e-2 2.5000000e-2 -3.1819805e-2
v 1.7220754e-2 2.5000000e-2 -4.1574579e-2
v 1.7208457e-15 2.5000000e-2 -4.5000000e-2
v -1.7220754e-2 2.5000000e-2 -4.1574579e-2
v -3.1819805e-2 2.5000000e-2 -3.1819805e-2
v -4.1574579e-2 2.5000000e-2 -1.7220754e-2
v -4.5000000e-2 2.5000000e-2 2.2204460e-16
v -4.1574579e-2 2.5000000e-2 1.7220754e-2
v -3.1819805e-2 2.5000000e-2 3.1819805e-2
v -1.7220754e-2 2.5000000e-2 4.1574579e-2
v 1.7208457e-15 2.5000000e-2 4.5000000e-2
v 1.7220754e-2 2.5000000e-2 4.1574579e-2
v 3.1819805e-2 2.5000000e-2 3.1819805e-2
v 8.8750000e-2 -0.26500000 -7.2164497e-15
v 8.1994309e-2 -0.26500000 3.3963155e-2
v 6.2755727e-2 -0.26500000 6.2755727e-2
v 3.3963155e-2 -0.26500000 8.1994309e-2
v 1.1882162e-13 -0.26500000 8.8750000e-2
v -3.3963155e-2 -0.26500000 8.1994309e-2
v -6.2755727e-2 -0.26500000 6.2755727e-2
v -8.1994309e-2 -0.26500000 3.3963155e-2
v -8.8750000e-2 -0.26500000 -7.2164497e-15
v -8.1994309e-2 -0.26500000 -3.3963155e-2
v -6.2755727e-2 -0.26500000 -6.2755727e-2
v -3.3963155e-2 -0.26500000 -8.1994309e-2
v 1.1882162e-13 -0.26500000 -8.8750000e-2
v 3.3963155e-2 -0.26500000 -8.1994309e-2
v 6.2755727e-2 -0.26500000 -6.2755727e-2
v 8.1994309e-2 -0.26500000 -3.3963155e-2
v 1.1879386e-13 -0.16500000 -7.1054274e-15
vt 5.1180374e-2 0.28000031
vt 8.5344733e-2 0.19412239
vt 8.5344733e-2 0.36587823
vt 0.10659020 0.28000031
vt 0.10659020 0.28000031
vt 0.13653674 0.20472460
vt 0.13653674 0.35527601
vt 0.13653674 0.20472460
vt 0.13653674 0.35527601
vt 0.18263660 0.12131861
vt 0.18263660 0.43868201
vt 0.22181727 0.14090894
vt 0.22181727 0.41909168
vt 0.22181727 0.14090894
vt 0.22181727 0.41909168
vt 0.32824416 0.48732794
vt 0.32824416 7.2672675e-2
vt 0.34944859 0.46173194
vt 0.34944859 9.8268679e-2
vt 0.34944859 9.8268679e-2
vt 0.34944859 0.46173194
vt 0.35868731 0.58103698
vt 0.35868731 0.58103698
vt 0.35868731 0.58103698
vt 0.35868731 0.58103698
vt 0.37322300 0.66047809
vt 0.37322300 0.66047809
vt 0.37322300 0.66047809
vt 0.37322300 0.66047809
vt 0.40336732 0.76311292
vt 0.40336732 0.76311292
vt 0.40336732 0.76311292
vt 0.40336732 0.76311292
vt 0.42352212 0.58103698
vt 0.42352212 0.58103698
vt 0.42352212 0.58103698
vt 0.42352212 0.58103698
vt 0.43138878 0.66047809
vt 0.43138878 0.66047809
vt 0.43138878 0.66047809
vt 0.43138878 0.66047809
vt 0.43719436 0.85648086
vt 0.43719436 0.85648086
vt 0.43719436 0.85648086
vt 0.43719436 0.85648086
vt 0.44758439 0.85673604
vt 0.44758439 0.88809633
vt 0.44758439 0.85673604
vt 0.44758439 0.88809633
vt 0.44758439 0.85673604
vt 0.44758439 0.88809633
vt 0.44758439 0.85673604
vt 0.44758439 0.88809633
vt 0.44770277 0.76311292
vt 0.44770277 0.76311292
vt 0.44770277 0.76311292
vt 0.44770277 0.76311292
vt 0.46600983 0.85648086
vt 0.46600983 0.85648086
vt 0.46600983 0.85648086
vt 0.46600983 0.85648086
vt 0.47163288 0.85673604
vt 0.47163288 0.88809633
vt 0.47163288 0.88809633
vt 0.47163288 0.85673604
vt 0.47163288 0.85673604
vt 0.47163288 0.88809633
vt 0.47163288 0.85673604
vt 0.47163288 0.88809633
vt 0.50000000 0.85648086
vt 0.50000000 0.76311292
vt 0.50000000 0.66047809
vt 0.50000000 0.58103698
vt 0.50000000 0.85648086
vt 0.50000000 0.76311292
vt 0.50000000 0.66047809
vt 0.50000000 0.85673604
vt 0.50000000 0.88809633
vt 0.50000000 0.58103698
vt 0.50000000 5.5590495e-2
vt 0.50000000 8.3295410e-2
vt 0.50000000 0.47670521
vt 0.50000000 0.50441012
vt 0.50000000 8.3295410e-2
vt 0.50000000 0.28000031
vt 0.50000000 0.47670521
vt 0.50000000 0.88809633
vt 0.50000000 0.85673604
vt 0.50000000 0.85673604
vt 0.50000000 0.88809633
vt 0.50000000 0.58103698
vt 0.50000000 0.85673604
vt 0.50000000 0.88809633
vt 0.50000000 0.66047809
vt 0.50000000 0.76311292
vt 0.50000000 0.85648086
vt 0.50000000 0.58103698
vt 0.50000000 0.66047809
vt 0.50000000 0.76311292
vt 0.50000000 0.85648086
vt 0.52836712 0.85673604
vt 0.52836712 0.88809633
vt 0.52836712 0.88809633
vt 0.52836712 0.85673604
vt 0.52836712 0.85673604
vt 0.52836712 0.88809633
vt 0.52836712 0.88809633
vt 0.52836712 0.85673604
vt 0.53399017 0.85648086
vt 0.53399017 0.85648086
vt 0.53399017 0.85648086
vt 0.53399017 0.85648086
vt 0.55229723 0.76311292
vt 0.55229723 0.76311292
vt 0.55229723 0.76311292
vt 0.55229723 0.76311292
vt 0.55241561 0.85673604
vt 0.55241561 0.88809633
vt 0.55241561 0.85673604
vt 0.55241561 0.88809633
vt 0.55241561 0.85673604
vt 0.55241561 0.88809633
vt 0.55241561 0.85673604
vt 0.55241561 0.88809633
vt 0.56280564 0.85648086
vt 0.56280564 0.85648086
vt 0.56280564 0.85648086
vt 0.56280564 0.85648086
vt 0.56861122 0.66047809
vt 0.56861122 0.66047809
vt 0.56861122 0.66047809
vt 0.56861122 0.66047809
vt 0.57647788 0.58103698
vt 0.57647788 0.58103698
vt 0.57647788 0.58103698
vt 0.57647788 0.58103698
vt 0.59663268 0.76311292
vt 0.59663268 0.76311292
vt 0.59663268 0.76311292
vt 0.59663268 0.76311292
vt 0.62677700 0.66047809
vt 0.62677700 0.66047809
vt 0.62677700 0.66047809
vt 0.62677700 0.66047809
vt 0.64131269 0.58103698
vt 0.64131269 0.58103698
vt 0.64131269 0.58103698
vt 0.64131269 0.58103698
vt 0.65055141 9.8268679e-2
vt 0.65055141 0.46173194
vt 0.65055141 9.8268679e-2
vt 0.65055141 0.46173194
vt 0.67175584 7.2672675e-2
vt 0.67175584 0.48732794
vt 0.77818273 0.14090894
vt 0.77818273 0.41909168
vt 0.77818273 0.14090894
vt 0.77818273 0.41909168
vt 0.81736340 0.12131861
vt 0.81736340 0.43868201
vt 0.86346326 0.20472460
vt 0.86346326 0.35527601
vt 0.86346326 0.20472460
vt 0.86346326 0.35527601
vt 0.89340980 0.28000031
vt 0.89340980 0.28000031
vt 0.91465527 0.19412239
vt 0.91465527 0.36587823
vt 0.94881963 0.28000031
vn 0.89575292 0.24486979 -0.37103301
vn 0.91082444 0.16751653 -0.37727584
vn 0.68557960 0.24486979 -0.68557960
vn 0.69711484 0.16751653 -0.69711484
vn 0.37103301 0.24486979 -0.89575292
vn 0.37727584 0.16751653 -0.91082444
vn 2.7623615e-13 0.24486979 -0.96955597
vn 1.1429780e-13 0.16751653 -0.98586927
vn -0.37103301 0.24486979 -0.89575292
vn -0.37727584 0.16751653 -0.91082444
vn -0.68557960 0.24486979 -0.68557960
vn -0.69711484 0.16751653 -0.69711484
vn -0.89575292 0.24486979 -0.37103301
vn -0.91082444 0.16751653 -0.37727584
vn -0.96955597 0.24486979 -4.2432588e-17
vn -0.98586927 0.16751653 -1.2737496e-16
vn -0.89575292 0.24486979 0.37103301
vn -0.91082444 0.16751653 0.37727584
vn -0.68557960 0.24486979 0.68557960
vn -0.69711484 0.16751653 0.69711484
vn -0.37103301 0.24486979 0.89575292
vn -0.37727584 0.16751653 0.91082444
vn 2.7439033e-13 0.24486979 0.96955597
vn 1.1259946e-13 0.16751653 0.98586927
vn 0.37103301 0.24486979 0.89575292
vn 0.37727584 0.16751653 0.91082444
vn 0.68557960 0.24486979 0.68557960
vn 0.69711484 0.16751653 0.69711484
vn 0.89575292 0.24486979 0.37103301
vn 0.91082444 0.16751653 0.37727584
vn 0.96955597 0.24486979 2.1923504e-16
vn 0.98586927 0.16751653 1.0614580e-16
vn 0.92387953 -6.5284590e-14 0.38268343
vn 1.00000000 -6.8837841e-14 0.0000000e+0
vn 0.92387953 -6.1900541e-14 -0.38268343
vn 0.70710678 -4.5535126e-14 -0.70710678
vn 0.38268343 -2.2236346e-14 -0.92387953
vn -1.4149670e-17 4.4425473e-15 -1.00000000
vn -0.38268343 3.0440696e-14 -0.92387953
vn -0.70710678 5.1815290e-14 -0.70710678
vn -0.92387953 6.5300330e-14 -0.38268343
vn -1.00000000 6.8837841e-14 0.0000000e+0
vn -0.92387953 6.1900541e-14 0.38268343
vn -0.70710678 4.5535126e-14 0.70710678
vn -0.38268343 2.2236346e-14 0.92387953
vn 1.4149670e-17 -4.4425473e-15 1.00000000
vn 0.38268343 -3.0440696e-14 0.92387953
vn 0.70710678 -5.1799550e-14 0.70710678
vn -3.6990111e-16 -1.00000000 -9.2211062e-16
vn 0.95912381 0.28298677 4.3797078e-16
vn 0.95912381 0.28298677 4.3797078e-16
vn 1.00000000 -6.8837841e-14 0.0000000e+0
vn 1.00000000 -6.8837841e-14 0.0000000e+0
vn 0.88611486 0.28298677 0.36704079
vn 0.88611486 0.28298677 0.36704079
vn 0.92387953 -6.5284590e-14 0.38268343
vn 0.92387953 -6.5284590e-14 0.38268343
vn 0.67820295 0.28298677 0.67820295
vn 0.67820295 0.28298677 0.67820295
vn 0.70710678 -5.1799550e-14 0.70710678
vn 0.70710678 -5.1799550e-14 0.70710678
vn 0.36704079 0.28298677 0.88611486
vn 0.36704079 0.28298677 0.88611486
vn 0.38268343 -3.0440696e-14 0.92387953
vn 0.38268343 -3.0440696e-14 0.92387953
vn 3.5064506e-13 0.28298677 0.95912381
vn 3.5064506e-13 0.28298677 0.95912381
vn 1.4149670e-17 -4.4425473e-15 1.00000000
vn 1.4149670e-17 -4.4425473e-15 1.00000000
vn -0.36704079 0.28298677 0.88611486
vn -0.36704079 0.28298677 0.88611486
vn -0.38268343 2.2236346e-14 0.92387953
vn -0.38268343 2.2236346e-14 0.92387953
vn -0.67820295 0.28298677 0.67820295
vn -0.67820295 0.28298677 0.67820295
vn -0.70710678 4.5535126e-14 0.70710678
vn -0.70710678 4.5535126e-14 0.70710678
vn -0.88611486 0.28298677 0.36704079
vn -0.88611486 0.28298677 0.36704079
vn -0.92387953 6.1900541e-14 0.38268343
vn -0.92387953 6.1900541e-14 0.38268343
vn -0.95912381 0.28298677 2.4017753e-16
vn -0.95912381 0.28298677 2.4017753e-16
vn -1.00000000 6.8837841e-14 0.0000000e+0
vn -1.00000000 6.8837841e-14 0.0000000e+0
vn -0.88611486 0.28298677 -0.36704079
vn -0.88611486 0.28298677 -0.36704079
vn -0.92387953 6.5300330e-14 -0.38268343
vn -0.92387953 6.5300330e-14 -0.38268343
vn -0.67820295 0.28298677 -0.67820295
vn -0.67820295 0.28298677 -0.67820295
vn -0.70710678 5.1815290e-14 -0.70710678
vn -0.70710678 5.1815290e-14 -0.70710678
vn -0.36704079 0.28298677 -0.88611486
vn -0.36704079 0.28298677 -0.88611486
vn -0.38268343 3.0440696e-14 -0.92387953
vn -0.38268343 3.0440696e-14 -0.92387953
vn 3.5250997e-13 0.28298677 -0.95912381
vn 3.5250997e-13 0.28298677 -0.95912381
vn -1.4149670e-17 4.4425473e-15 -1.00000000
vn -1.4149670e-17 4.4425473e-15 -1.00000000
vn 0.36704079 0.28298677 -0.88611486
vn 0.36704079 0.28298677 -0.88611486
vn 0.38268343 -2.2236346e-14 -0.92387953
vn 0.38268343 -2.2236346e-14 -0.92387953
vn 0.67820295 0.28298677 -0.67820295
vn 0.67820295 0.28298677 -0.67820295
vn 0.70710678 -4.5535126e-14 -0.70710678
vn 0.70710678 -4.5535126e-14 -0.70710678
vn 0.88611486 0.28298677 -0.36704079
vn 0.88611486 0.28298677 -0.36704079
vn 0.92387953 -6.1900541e-14 -0.38268343
vn 0.92387953 -6.1900541e-14 -0.38268343
vn 0.99172127 0.12840919 2.1217844e-16
vn 0.99172127 0.12840919 2.1217844e-16
vn -5.5067062e-13 -1.00000000 -3.1554436e-29
vn -5.5067062e-13 -1.00000000 -3.1554436e-29
vn 0.91623098 0.12840919 0.37951530
vn 0.91623098 0.12840919 0.37951530
vn -4.7942538e-13 -1.00000000 -1.7312494e-13
vn -4.7942538e-13 -1.00000000 -1.7312494e-13
vn 0.70125284 0.12840919 0.70125284
vn 0.70125284 0.12840919 0.70125284
vn -2.9958078e-13 -1.00000000 -2.3970467e-13
vn -2.9958078e-13 -1.00000000 -2.3970467e-13
vn 0.37951530 0.12840919 0.91623098
vn 0.37951530 0.12840919 0.91623098
vn -1.2431236e-13 -1.00000000 -1.8947996e-13
vn -1.2431236e-13 -1.00000000 -1.8947996e-13
vn 2.7328583e-14 0.12840919 0.99172127
vn 2.7328583e-14 0.12840919 0.99172127
vn -5.4099582e-14 -1.00000000 -4.0844521e-14
vn -5.4099582e-14 -1.00000000 -4.0844521e-14
vn -0.37951530 0.12840919 0.91623098
vn -0.37951530 0.12840919 0.91623098
vn -1.0943602e-13 -1.00000000 1.2897939e-13
vn -1.0943602e-13 -1.00000000 1.2897939e-13
vn -0.70125284 0.12840919 0.70125284
vn -0.70125284 0.12840919 0.70125284
vn -2.6859211e-13 -1.00000000 2.0871600e-13
vn -2.6859211e-13 -1.00000000 2.0871600e-13
vn -0.91623098 0.12840919 0.37951530
vn -0.91623098 0.12840919 0.37951530
vn -4.5678926e-13 -1.00000000 1.5356494e-13
vn -4.5678926e-13 -1.00000000 1.5356494e-13
vn -0.99172127 0.12840919 7.0726145e-17
vn -0.99172127 0.12840919 7.0726145e-17
vn -5.4471048e-13 -1.00000000 3.1554436e-29
vn -5.4471048e-13 -1.00000000 3.1554436e-29
vn -0.91623098 0.12840919 -0.37951530
vn -0.91623098 0.12840919 -0.37951530
vn -4.6852043e-13 -1.00000000 -1.6860797e-13
vn -4.6852043e-13 -1.00000000 -1.6860797e-13
vn -0.70125284 0.12840919 -0.70125284
vn -0.70125284 0.12840919 -0.70125284
vn -3.0171816e-13 -1.00000000 -2.5847430e-13
vn -3.0171816e-13 -1.00000000 -2.5847430e-13
vn -0.37951530 0.12840919 -0.91623098
vn -0.37951530 0.12840919 -0.91623098
vn -1.4024984e-13 -1.00000000 -2.0337053e-13
vn -1.4024984e-13 -1.00000000 -2.0337053e-13
vn 2.8898703e-14 0.12840919 -0.99172127
vn 2.8898703e-14 0.12840919 -0.99172127
vn -6.5860361e-14 -1.00000000 -1.7763568e-14
vn -6.5860361e-14 -1.00000000 -1.7763568e-14
vn 0.37951530 0.12840919 -0.91623098
vn 0.37951530 0.12840919 -0.91623098
vn -1.2665419e-13 -1.00000000 1.7054773e-13
vn -1.2665419e-13 -1.00000000 1.7054773e-13
vn 0.70125284 0.12840919 -0.70125284
vn 0.70125284 0.12840919 -0.70125284
vn -2.9958078e-13 -1.00000000 2.3970467e-13
vn -2.9958078e-13 -1.00000000 2.3970467e-13
vn 0.91623098 0.12840919 -0.37951530
vn 0.91623098 0.12840919 -0.37951530
vn -4.7942538e-13 -1.00000000 1.7312494e-13
vn -4.7942538e-13 -1.00000000 1.7312494e-13
vn -5.5067062e-13 -1.00000000 -3.1554436e-29
vn -5.5067062e-13 -1.00000000 -3.1554436e-29
vn -0.74792490 -0.66378335 -2.6657999e-16
vn -0.74792490 -0.66378335 -2.6657999e-16
vn -4.7942538e-13 -1.00000000 -1.7312494e-13
vn -4.7942538e-13 -1.00000000 -1.7312494e-13
vn -0.69099251 -0.66378335 -0.28621847
vn -0.69099251 -0.66378335 -0.28621847
vn -2.9958078e-13 -1.00000000 -2.3970467e-13
vn -2.9958078e-13 -1.00000000 -2.3970467e-13
vn -0.52886277 -0.66378335 -0.52886277
vn -0.52886277 -0.66378335 -0.52886277
vn -1.2431236e-13 -1.00000000 -1.8947996e-13
vn -1.2431236e-13 -1.00000000 -1.8947996e-13
vn -0.28621847 -0.66378335 -0.69099251
vn -0.28621847 -0.66378335 -0.69099251
vn -5.4099582e-14 -1.00000000 -4.0844521e-14
vn -5.4099582e-14 -1.00000000 -4.0844521e-14
vn 7.0152628e-17 -0.66378335 -0.74792490
vn 7.0152628e-17 -0.66378335 -0.74792490
vn -1.0943602e-13 -1.00000000 1.2897939e-13
vn -1.0943602e-13 -1.00000000 1.2897939e-13
vn 0.28621847 -0.66378335 -0.69099251
vn 0.28621847 -0.66378335 -0.69099251
vn -2.6859211e-13 -1.00000000 2.0871600e-13
vn -2.6859211e-13 -1.00000000 2.0871600e-13
vn 0.52886277 -0.66378335 -0.52886277
vn 0.52886277 -0.66378335 -0.52886277
vn -4.5678926e-13 -1.00000000 1.5356494e-13
vn -4.5678926e-13 -1.00000000 1.5356494e-13
vn 0.69099251 -0.66378335 -0.28621847
vn 0.69099251 -0.66378335 -0.28621847
vn -5.4471048e-13 -1.00000000 3.1554436e-29
vn -5.4471048e-13 -1.00000000 3.1554436e-29
vn 0.74792490 -0.66378335 -2.5254946e-16
vn 0.74792490 -0.66378335 -2.5254946e-16
vn -4.6852043e-13 -1.00000000 -1.6860797e-13
vn -4.6852043e-13 -1.00000000 -1.6860797e-13
vn 0.69099251 -0.66378335 0.28621847
vn 0.69099251 -0.66378335 0.28621847
vn -3.0171816e-13 -1.00000000 -2.5847430e-13
vn -3.0171816e-13 -1.00000000 -2.5847430e-13
vn 0.52886277 -0.66378335 0.52886277
vn 0.52886277 -0.66378335 0.52886277
vn -1.4024984e-13 -1.00000000 -2.0337053e-13
vn -1.4024984e-13 -1.00000000 -2.0337053e-13
vn 0.28621847 -0.66378335 0.69099251
vn 0.28621847 -0.66378335 0.69099251
vn -6.5860361e-14 -1.00000000 -1.7763568e-14
vn -6.5860361e-14 -1.00000000 -1.7763568e-14
vn 1.6836631e-16 -0.66378335 0.74792490
vn 1.6836631e-16 -0.66378335 0.74792490
vn -1.2665419e-13 -1.00000000 1.7054773e-13
vn -1.2665419e-13 -1.00000000 1.7054773e-13
vn -0.28621847 -0.66378335 0.69099251
vn -0.28621847 -0.66378335 0.69099251
vn -2.9958078e-13 -1.00000000 2.3970467e-13
vn -2.9958078e-13 -1.00000000 2.3970467e-13
vn -0.52886277 -0.66378335 0.52886277
vn -0.52886277 -0.66378335 0.52886277
vn -4.7942538e-13 -1.00000000 1.7312494e-13
vn -4.7942538e-13 -1.00000000 1.7312494e-13
vn -0.69099251 -0.66378335 0.28621847
vn -0.69099251 -0.66378335 0.28621847
g ALV_3_Engine_1_Vernier_ALV_3_Engine_1_Vernier_auv
usemtl ALV_3_Engine_1_Vernier_auv
s 1
f 1/89/52 66/87/34 65/64/33 2/66/56
f 2/66/57 65/64/33 80/49/48 3/50/61
f 3/117/60 80/124/48 79/107/47 4/101/65
f 4/101/64 79/107/47 78/93/46 5/77/69
f 5/77/68 78/93/46 77/69/45 6/62/73
f 6/62/72 77/69/45 76/53/44 7/46/77
f 7/119/76 76/122/44 75/106/43 8/104/81
f 8/104/80 75/106/43 74/90/42 9/88/85
f 9/88/84 74/90/42 73/67/41 10/65/89
f 10/65/88 73/67/41 72/51/40 11/48/93
f 11/123/92 72/118/40 71/102/39 12/108/97
f 12/108/96 71/102/39 70/78/38 13/92/101
f 13/92/100 70/78/38 69/63/37 14/68/105
f 14/68/104 69/63/37 68/47/36 15/52/109
f 15/121/108 68/120/36 67/103/35 16/105/113
f 16/105/112 67/103/35 66/87/34 1/89/53
f 17/1/117 81/4/179 96/9/239 32/3/177
f 18/2/120 82/8/182 81/4/178 17/1/116
f 19/10/124 83/14/186 82/8/183 18/2/121
f 20/17/128 84/20/190 83/14/187 19/10/125
f 21/80/132 85/81/194 84/20/191 20/17/129
f 22/153/136 86/149/198 85/81/195 21/80/133
f 23/159/140 87/157/202 86/149/199 22/153/137
f 24/167/144 88/163/206 87/157/203 23/159/141
f 25/169/148 89/166/210 88/163/207 24/167/145
f 26/168/152 90/164/214 89/166/211 25/169/149
f 27/160/156 91/158/218 90/164/215 26/168/153
f 28/154/160 92/150/222 91/158/219 27/160/157
f 29/83/164 93/82/226 92/150/223 28/154/161
f 30/16/168 94/21/230 93/82/227 29/83/165
f 31/11/172 95/15/234 94/21/231 30/16/169
f 32/3/176 96/9/238 95/15/235 31/11/173
s 2
f 1/74/50 63/75/31 33/114/1 16/110/110
f 2/59/55 61/55/29 63/75/31 1/74/51
f 3/43/59 59/31/27 61/55/29 2/59/54
f 4/109/63 57/113/25 59/137/27 3/125/58
f 5/70/67 55/71/23 57/113/25 4/109/62
f 6/58/71 53/54/21 55/71/23 5/70/66
f 7/42/75 51/30/19 53/54/21 6/58/70
f 8/111/79 49/115/17 51/139/19 7/127/74
f 9/96/83 47/95/15 49/115/17 8/111/78
f 10/60/87 45/56/13 47/95/15 9/96/82
f 11/44/91 43/32/11 45/56/13 10/60/86
f 12/112/95 41/116/9 43/140/11 11/128/90
f 13/100/99 39/99/7 41/116/9 12/112/94
f 14/61/103 37/57/5 39/99/7 13/100/98
f 15/45/107 35/33/3 37/57/5 14/61/102
f 16/110/111 33/114/1 35/138/3 15/126/106
f 17/91/115 64/76/32 62/39/30 18/36/119
f 18/36/118 62/39/30 60/27/28 19/24/123
f 19/148/122 60/141/28 58/129/26 20/136/127
f 20/136/126 58/129/26 56/72/24 21/97/131
f 21/97/130 56/72/24 54/38/22 22/37/135
f 22/37/134 54/38/22 52/26/20 23/25/139
f 23/146/138 52/143/20 50/131/18 24/134/143
f 24/134/142 50/131/18 48/94/16 25/79/147
f 25/79/146 48/94/16 46/40/14 26/35/151
f 26/35/150 46/40/14 44/28/12 27/23/155
f 27/145/154 44/144/12 42/132/10 28/133/159
f 28/133/158 42/132/10 40/98/8 29/73/163
f 29/73/162 40/98/8 38/41/6 30/34/167
f 30/34/166 38/41/6 36/29/4 31/22/171
f 31/147/170 36/142/4 34/130/2 32/135/175
f 32/135/174 34/130/2 64/76/32 17/91/114
f 33/114/1 63/75/31 64/76/32 34/130/2
f 34/130/2 36/142/4 35/138/3 33/114/1
f 36/29/4 38/41/6 37/57/5 35/33/3
f 38/41/6 40/98/8 39/99/7 37/57/5
f 40/98/8 42/132/10 41/116/9 39/99/7
f 42/132/10 44/144/12 43/140/11 41/116/9
f 44/28/12 46/40/14 45/56/13 43/32/11
f 46/40/14 48/94/16 47/95/15 45/56/13
f 48/94/16 50/131/18 49/115/17 47/95/15
f 50/131/18 52/143/20 51/139/19 49/115/17
f 52/26/20 54/38/22 53/54/21 51/30/19
f 54/38/22 56/72/24 55/71/23 53/54/21
f 56/72/24 58/129/26 57/113/25 55/71/23
f 58/129/26 60/141/28 59/137/27 57/113/25
f 60/27/28 62/39/30 61/55/29 59/31/27
f 62/39/30 64/76/32 63/75/31 61/55/29
f 81/5/181 97/85/49 96/7/241
f 82/6/184 97/85/49 81/5/180
f 83/12/188 97/85/49 82/6/185
f 84/19/192 97/85/49 83/12/189
f 85/84/196 97/85/49 84/19/193
f 86/151/200 97/85/49 85/84/197
f 87/155/204 97/85/49 86/151/201
f 88/161/208 97/85/49 87/155/205
f 89/165/212 97/85/49 88/161/209
f 90/162/216 97/85/49 89/165/213
f 91/156/220 97/85/49 90/162/217
f 92/152/224 97/85/49 91/156/221
f 93/86/228 97/85/49 92/152/225
f 94/18/232 97/85/49 93/86/229
f 95/13/236 97/85/49 94/18/233
f 96/7/240 97/85/49 95/13/237
