# Exported from Wings 3D 1.5.4
mtllib RLV_Mount_1_Collider.mtl
o RLV_Mount_1_Collider_2
#58 vertices, 50 faces
v 2.05000000 0.88750000 0.85108763
v 2.05000000 0.88750000 1.24891237
v 1.89775907 0.88750000 1.61645450
v 1.61645450 0.88750000 1.89775907
v 1.24891237 0.88750000 2.05000000
v 0.85108763 0.88750000 2.05000000
v 0.48354550 0.88750000 1.89775907
v 0.20224093 0.88750000 1.61645450
v 1.61645450 0.88750000 0.20224093
v 1.89775907 0.88750000 0.48354550
v 2.05000000 -0.31250000 0.85108763
v 2.05000000 -0.31250000 1.24891237
v 1.89775907 -0.31250000 1.61645450
v 1.61645450 -0.31250000 1.89775907
v 1.24891237 -0.31250000 2.05000000
v 0.85108763 -0.31250000 2.05000000
v 0.48354550 -0.31250000 1.89775907
v 0.20224093 -0.31250000 1.61645450
v 5.0000000e-2 -0.31250000 1.24891237
v 5.0000000e-2 -0.31250000 0.85108763
v 0.20224093 -0.31250000 0.48354550
v 0.48354550 -0.31250000 0.20224093
v 0.85108763 -0.31250000 5.0000000e-2
v 1.24891237 -0.31250000 5.0000000e-2
v 1.61645450 -0.31250000 0.20224093
v 1.89775907 -0.31250000 0.48354550
v 1.77500000 -1.08500000 0.90578853
v 1.77500000 -1.08500000 1.19421147
v 1.66462532 -1.08500000 1.46067951
v 1.46067951 -1.08500000 1.66462532
v 1.19421147 -1.08500000 1.77500000
v 0.90578853 -1.08500000 1.77500000
v 0.63932049 -1.08500000 1.66462532
v 0.43537468 -1.08500000 1.46067951
v 0.32500000 -1.08500000 1.19421147
v 0.32500000 -1.08500000 0.90578853
v 0.43537468 -1.08500000 0.63932049
v 0.63932049 -1.08500000 0.43537468
v 0.90578853 -1.08500000 0.32500000
v 1.19421147 -1.08500000 0.32500000
v 1.46067951 -1.08500000 0.43537468
v 1.66462532 -1.08500000 0.63932049
v 1.81960544 -0.71551853 0.53576609
v 1.56423391 -0.71551853 0.28039456
v 1.23057494 -0.71551853 0.14218849
v 0.86942506 -0.71551853 0.14218849
v 0.53576609 -0.71551853 0.28039456
v 0.28039456 -0.71551853 0.53576609
v 0.14218849 -0.71551853 0.86942506
v 0.14218849 -0.71551853 1.23057494
v 0.28039456 -0.71551853 1.56423391
v 0.53576609 -0.71551853 1.81960544
v 0.86942506 -0.71551853 1.95781151
v 1.23057494 -0.71551853 1.95781151
v 1.56423391 -0.71551853 1.81960544
v 1.81960544 -0.71551853 1.56423391
v 1.95781151 -0.71551853 1.23057494
v 1.95781151 -0.71551853 0.86942506
vn 0.0000000e+0 1.00000000 -1.1162936e-16
vn 1.00000000 0.0000000e+0 0.0000000e+0
vn 0.92387953 -1.4535073e-17 -0.38268343
vn 0.0000000e+0 1.00000000 -1.1162936e-16
vn 1.00000000 0.0000000e+0 0.0000000e+0
vn 0.92387953 0.0000000e+0 0.38268343
vn 0.0000000e+0 1.00000000 -1.1162936e-16
vn 0.92387953 0.0000000e+0 0.38268343
vn 0.70710678 0.0000000e+0 0.70710678
vn 0.0000000e+0 1.00000000 -1.1162936e-16
vn 0.70710678 0.0000000e+0 0.70710678
vn 0.38268343 0.0000000e+0 0.92387953
vn 0.0000000e+0 1.00000000 -1.1162936e-16
vn 0.38268343 0.0000000e+0 0.92387953
vn 0.0000000e+0 0.0000000e+0 1.00000000
vn 0.0000000e+0 1.00000000 -1.1162936e-16
vn 0.0000000e+0 0.0000000e+0 1.00000000
vn -0.38268343 0.0000000e+0 0.92387953
vn 0.0000000e+0 1.00000000 -1.1162936e-16
vn -0.38268343 0.0000000e+0 0.92387953
vn -0.70710678 0.0000000e+0 0.70710678
vn 0.0000000e+0 1.00000000 -1.1162936e-16
vn -0.70710678 0.0000000e+0 0.70710678
vn -0.92387953 0.0000000e+0 0.38268343
vn -0.58810227 0.55522196 -0.58810227
vn -0.86890941 0.33979156 -0.35991406
vn -0.99204819 0.12585862 0.0000000e+0
vn 0.0000000e+0 1.00000000 -1.1162936e-16
vn 0.70710678 0.0000000e+0 -0.70710678
vn 0.0000000e+0 0.12585862 -0.99204819
vn 0.38268343 0.0000000e+0 -0.92387953
vn -0.58810227 0.55522196 -0.58810227
vn -0.35991406 0.33979156 -0.86890941
vn 0.0000000e+0 1.00000000 -1.1162936e-16
vn 0.70710678 0.0000000e+0 -0.70710678
vn 0.92387953 -1.4535073e-17 -0.38268343
vn 1.00000000 0.0000000e+0 0.0000000e+0
vn 0.92387953 -1.4535073e-17 -0.38268343
vn 0.97482173 -0.22298563 0.0000000e+0
vn 0.90061785 -0.22298563 -0.37304813
vn 1.00000000 0.0000000e+0 0.0000000e+0
vn 0.92387953 0.0000000e+0 0.38268343
vn 0.97482173 -0.22298563 0.0000000e+0
vn 0.90061785 -0.22298563 0.37304813
vn 0.92387953 0.0000000e+0 0.38268343
vn 0.70710678 0.0000000e+0 0.70710678
vn 0.90061785 -0.22298563 0.37304813
vn 0.68930306 -0.22298563 0.68930306
vn 0.70710678 0.0000000e+0 0.70710678
vn 0.38268343 0.0000000e+0 0.92387953
vn 0.68930306 -0.22298563 0.68930306
vn 0.37304813 -0.22298563 0.90061785
vn 0.38268343 0.0000000e+0 0.92387953
vn 0.0000000e+0 0.0000000e+0 1.00000000
vn 0.37304813 -0.22298563 0.90061785
vn 0.0000000e+0 -0.22298563 0.97482173
vn 0.0000000e+0 0.0000000e+0 1.00000000
vn -0.38268343 0.0000000e+0 0.92387953
vn 0.0000000e+0 -0.22298563 0.97482173
vn -0.37304813 -0.22298563 0.90061785
vn -0.38268343 0.0000000e+0 0.92387953
vn -0.70710678 0.0000000e+0 0.70710678
vn -0.37304813 -0.22298563 0.90061785
vn -0.68930306 -0.22298563 0.68930306
vn -0.70710678 0.0000000e+0 0.70710678
vn -0.68930306 -0.22298563 0.68930306
vn -0.90061785 -0.22298563 0.37304813
vn -0.92387953 0.0000000e+0 0.38268343
vn -0.90061785 -0.22298563 0.37304813
vn -0.97482173 -0.22298563 0.0000000e+0
vn -0.92387953 0.0000000e+0 0.38268343
vn -0.99204819 0.12585862 0.0000000e+0
vn -0.97482173 -0.22298563 0.0000000e+0
vn -0.90061785 -0.22298563 -0.37304813
vn -0.86890941 0.33979156 -0.35991406
vn -0.99204819 0.12585862 0.0000000e+0
vn -0.90061785 -0.22298563 -0.37304813
vn -0.68930306 -0.22298563 -0.68930306
vn -0.58810227 0.55522196 -0.58810227
vn -0.86890941 0.33979156 -0.35991406
vn -0.68930306 -0.22298563 -0.68930306
vn -0.37304813 -0.22298563 -0.90061785
vn -0.58810227 0.55522196 -0.58810227
vn -0.35991406 0.33979156 -0.86890941
vn -0.37304813 -0.22298563 -0.90061785
vn 0.0000000e+0 -0.22298563 -0.97482173
vn 0.0000000e+0 0.12585862 -0.99204819
vn -0.35991406 0.33979156 -0.86890941
vn 0.0000000e+0 -0.22298563 -0.97482173
vn 0.37304813 -0.22298563 -0.90061785
vn 0.0000000e+0 0.12585862 -0.99204819
vn 0.38268343 0.0000000e+0 -0.92387953
vn 0.70710678 0.0000000e+0 -0.70710678
vn 0.37304813 -0.22298563 -0.90061785
vn 0.68930306 -0.22298563 -0.68930306
vn 0.38268343 0.0000000e+0 -0.92387953
vn 0.70710678 0.0000000e+0 -0.70710678
vn 0.92387953 -1.4535073e-17 -0.38268343
vn 0.68930306 -0.22298563 -0.68930306
vn 0.90061785 -0.22298563 -0.37304813
vn 0.0000000e+0 -1.00000000 1.3273408e-16
vn 0.89629133 -0.44346574 0.0000000e+0
vn 0.82806521 -0.44346574 -0.34299584
vn 0.0000000e+0 -1.00000000 1.3273408e-16
vn 0.89629133 -0.44346574 0.0000000e+0
vn 0.82806521 -0.44346574 0.34299584
vn 0.0000000e+0 -1.00000000 1.3273408e-16
vn 0.82806521 -0.44346574 0.34299584
vn 0.63377367 -0.44346574 0.63377367
vn 0.0000000e+0 -1.00000000 1.3273408e-16
vn 0.63377367 -0.44346574 0.63377367
vn 0.34299584 -0.44346574 0.82806521
vn 0.0000000e+0 -1.00000000 1.3273408e-16
vn 0.34299584 -0.44346574 0.82806521
vn 0.0000000e+0 -0.44346574 0.89629133
vn 0.0000000e+0 -1.00000000 1.3273408e-16
vn 0.0000000e+0 -0.44346574 0.89629133
vn -0.34299584 -0.44346574 0.82806521
vn 0.0000000e+0 -1.00000000 1.3273408e-16
vn -0.34299584 -0.44346574 0.82806521
vn -0.63377367 -0.44346574 0.63377367
vn 0.0000000e+0 -1.00000000 1.3273408e-16
vn -0.63377367 -0.44346574 0.63377367
vn -0.82806521 -0.44346574 0.34299584
vn 0.0000000e+0 -1.00000000 1.3273408e-16
vn -0.82806521 -0.44346574 0.34299584
vn -0.89629133 -0.44346574 0.0000000e+0
vn 0.0000000e+0 -1.00000000 1.3273408e-16
vn -0.89629133 -0.44346574 0.0000000e+0
vn -0.82806521 -0.44346574 -0.34299584
vn 0.0000000e+0 -1.00000000 1.3273408e-16
vn -0.82806521 -0.44346574 -0.34299584
vn -0.63377367 -0.44346574 -0.63377367
vn 0.0000000e+0 -1.00000000 1.3273408e-16
vn -0.63377367 -0.44346574 -0.63377367
vn -0.34299584 -0.44346574 -0.82806521
vn 0.0000000e+0 -1.00000000 1.3273408e-16
vn -0.34299584 -0.44346574 -0.82806521
vn 0.0000000e+0 -0.44346574 -0.89629133
vn 0.0000000e+0 -1.00000000 1.3273408e-16
vn 0.0000000e+0 -0.44346574 -0.89629133
vn 0.34299584 -0.44346574 -0.82806521
vn 0.0000000e+0 -1.00000000 1.3273408e-16
vn 0.34299584 -0.44346574 -0.82806521
vn 0.63377367 -0.44346574 -0.63377367
vn 0.0000000e+0 -1.00000000 1.3273408e-16
vn 0.63377367 -0.44346574 -0.63377367
vn 0.82806521 -0.44346574 -0.34299584
vn 0.63377367 -0.44346574 -0.63377367
vn 0.82806521 -0.44346574 -0.34299584
vn 0.68930306 -0.22298563 -0.68930306
vn 0.90061785 -0.22298563 -0.37304813
vn 0.34299584 -0.44346574 -0.82806521
vn 0.63377367 -0.44346574 -0.63377367
vn 0.37304813 -0.22298563 -0.90061785
vn 0.68930306 -0.22298563 -0.68930306
vn 0.0000000e+0 -0.44346574 -0.89629133
vn 0.34299584 -0.44346574 -0.82806521
vn 0.0000000e+0 -0.22298563 -0.97482173
vn 0.37304813 -0.22298563 -0.90061785
vn -0.34299584 -0.44346574 -0.82806521
vn 0.0000000e+0 -0.44346574 -0.89629133
vn -0.37304813 -0.22298563 -0.90061785
vn 0.0000000e+0 -0.22298563 -0.97482173
vn -0.63377367 -0.44346574 -0.63377367
vn -0.34299584 -0.44346574 -0.82806521
vn -0.68930306 -0.22298563 -0.68930306
vn -0.37304813 -0.22298563 -0.90061785
vn -0.82806521 -0.44346574 -0.34299584
vn -0.63377367 -0.44346574 -0.63377367
vn -0.90061785 -0.22298563 -0.37304813
vn -0.68930306 -0.22298563 -0.68930306
vn -0.89629133 -0.44346574 0.0000000e+0
vn -0.82806521 -0.44346574 -0.34299584
vn -0.97482173 -0.22298563 0.0000000e+0
vn -0.90061785 -0.22298563 -0.37304813
vn -0.82806521 -0.44346574 0.34299584
vn -0.89629133 -0.44346574 0.0000000e+0
vn -0.90061785 -0.22298563 0.37304813
vn -0.97482173 -0.22298563 0.0000000e+0
vn -0.63377367 -0.44346574 0.63377367
vn -0.82806521 -0.44346574 0.34299584
vn -0.68930306 -0.22298563 0.68930306
vn -0.90061785 -0.22298563 0.37304813
vn -0.34299584 -0.44346574 0.82806521
vn -0.63377367 -0.44346574 0.63377367
vn -0.37304813 -0.22298563 0.90061785
vn -0.68930306 -0.22298563 0.68930306
vn 0.0000000e+0 -0.44346574 0.89629133
vn -0.34299584 -0.44346574 0.82806521
vn 0.0000000e+0 -0.22298563 0.97482173
vn -0.37304813 -0.22298563 0.90061785
vn 0.34299584 -0.44346574 0.82806521
vn 0.0000000e+0 -0.44346574 0.89629133
vn 0.37304813 -0.22298563 0.90061785
vn 0.0000000e+0 -0.22298563 0.97482173
vn 0.63377367 -0.44346574 0.63377367
vn 0.34299584 -0.44346574 0.82806521
vn 0.68930306 -0.22298563 0.68930306
vn 0.37304813 -0.22298563 0.90061785
vn 0.82806521 -0.44346574 0.34299584
vn 0.63377367 -0.44346574 0.63377367
vn 0.90061785 -0.22298563 0.37304813
vn 0.68930306 -0.22298563 0.68930306
vn 0.89629133 -0.44346574 0.0000000e+0
vn 0.82806521 -0.44346574 0.34299584
vn 0.97482173 -0.22298563 0.0000000e+0
vn 0.90061785 -0.22298563 0.37304813
vn 0.89629133 -0.44346574 0.0000000e+0
vn 0.82806521 -0.44346574 -0.34299584
vn 0.97482173 -0.22298563 0.0000000e+0
vn 0.90061785 -0.22298563 -0.37304813
g RLV_Mount_1_Collider_2_default
usemtl default
s 1
f 2//5 12//41 11//37 1//2
f 4//11 14//49 13//46 3//9
f 6//17 16//57 15//54 5//15
f 10//35 26//97 25//93 9//29
f 11//40 58//212 43//152 26//100
f 13//47 56//203 57//208 12//44
f 15//55 54//195 55//200 14//52
f 18//66 51//183 52//188 17//64
f 19//72 8//27 20//76
f 22//84 9//33 23//88
f 22//81 47//167 48//172 21//78
f 24//89 45//159 46//164 23//86
f 28//104 29//107 30//110 31//113 32//116 33//119 34//122 35//125 36//128 37//131 38//134 39//137 40//140 41//143 42//146 27//101
s 2
f 1//3 11//38 26//98 10//36
f 3//8 13//45 12//42 2//6
f 5//14 15//53 14//50 4//12
f 7//20 17//61 16//58 6//18
f 9//32 22//83 21//79 8//25
f 12//43 57//207 58//211 11//39
f 14//51 55//199 56//204 13//48
f 16//59 53//191 54//196 15//56
f 19//69 50//179 51//184 18//67
f 21//77 48//171 49//176 20//74
f 23//87 9//30 24//91
f 23//85 46//163 47//168 22//82
f 26//99 43//151 44//156 25//95
f 28//106 57//206 56//201 29//108
f 30//112 55//198 54//193 31//114
f 33//121 52//186 51//181 34//123
f 35//127 50//178 49//173 36//129
f 37//133 48//170 47//165 38//135
f 39//139 46//162 45//157 40//141
f 42//148 43//150 58//210 27//103
s 3
f 1//1 10//34 9//28 8//22 7//19 6//16 5//13 4//10 3//7 2//4
f 17//63 52//187 53//192 16//60
f 18//68 8//24 19//71
f 20//75 8//26 21//80
f 20//73 49//175 50//180 19//70
f 25//94 44//155 45//160 24//90
f 27//102 58//209 57//205 28//105
f 29//109 56//202 55//197 30//111
f 31//115 54//194 53//189 32//117
f 34//124 51//182 50//177 35//126
f 36//130 49//174 48//169 37//132
f 38//136 47//166 46//161 39//138
f 41//145 44//154 43//149 42//147
s 4
f 8//23 18//65 17//62 7//21
f 24//92 9//31 25//96
f 32//118 53//190 52//185 33//120
f 40//142 45//158 44//153 41//144
o RLV_Mount_1_Collider_1
#48 vertices, 34 faces
v 2.50000000 1.13750000 -0.49728092
v 2.50000000 1.13750000 0.49728092
v 2.11939766 1.13750000 1.41613624
v 1.41613624 1.13750000 2.11939766
v 0.49728092 1.13750000 2.50000000
v -0.49728092 1.13750000 2.50000000
v -1.41613624 1.13750000 2.11939766
v -2.11939766 1.13750000 1.41613624
v -2.50000000 1.13750000 0.49728092
v -2.50000000 1.13750000 -0.49728092
v -2.11939766 1.13750000 -1.41613624
v -1.41613624 1.13750000 -2.11939766
v -0.49728092 1.13750000 -2.50000000
v 0.49728092 1.13750000 -2.50000000
v 1.41613624 1.13750000 -2.11939766
v 2.11939766 1.13750000 -1.41613624
v 2.50000000 0.88750000 -0.49728092
v 2.50000000 0.88750000 0.49728092
v 2.11939766 0.88750000 1.41613624
v 1.41613624 0.88750000 2.11939766
v 0.49728092 0.88750000 2.50000000
v -0.49728092 0.88750000 2.50000000
v -1.41613624 0.88750000 2.11939766
v -2.11939766 0.88750000 1.41613624
v -2.50000000 0.88750000 0.49728092
v -2.50000000 0.88750000 -0.49728092
v -2.11939766 0.88750000 -1.41613624
v -1.41613624 0.88750000 -2.11939766
v -0.49728092 0.88750000 -2.50000000
v 0.49728092 0.88750000 -2.50000000
v 1.41613624 0.88750000 -2.11939766
v 2.11939766 0.88750000 -1.41613624
v 1.62500000 -0.31250000 -0.32323260
v 1.62500000 -0.31250000 0.32323260
v 1.37760848 -0.31250000 0.92048856
v 0.92048856 -0.31250000 1.37760848
v 0.32323260 -0.31250000 1.62500000
v -0.32323260 -0.31250000 1.62500000
v -0.92048856 -0.31250000 1.37760848
v -1.37760848 -0.31250000 0.92048856
v -1.62500000 -0.31250000 0.32323260
v -1.62500000 -0.31250000 -0.32323260
v -1.37760848 -0.31250000 -0.92048856
v -0.92048856 -0.31250000 -1.37760848
v -0.32323260 -0.31250000 -1.62500000
v 0.32323260 -0.31250000 -1.62500000
v 0.92048856 -0.31250000 -1.37760848
v 1.37760848 -0.31250000 -0.92048856
vn 0.0000000e+0 1.00000000 -2.7907340e-17
vn 0.92387953 0.0000000e+0 -0.38268343
vn 1.00000000 0.0000000e+0 0.0000000e+0
vn 0.0000000e+0 1.00000000 -2.7907340e-17
vn 0.92387953 0.0000000e+0 0.38268343
vn 1.00000000 0.0000000e+0 0.0000000e+0
vn 0.0000000e+0 1.00000000 -2.7907340e-17
vn 0.70710678 0.0000000e+0 0.70710678
vn 0.92387953 0.0000000e+0 0.38268343
vn 0.0000000e+0 1.00000000 -2.7907340e-17
vn 0.38268343 0.0000000e+0 0.92387953
vn 0.70710678 0.0000000e+0 0.70710678
vn 0.0000000e+0 1.00000000 -2.7907340e-17
vn 0.0000000e+0 0.0000000e+0 1.00000000
vn 0.38268343 0.0000000e+0 0.92387953
vn 0.0000000e+0 1.00000000 -2.7907340e-17
vn -0.38268343 0.0000000e+0 0.92387953
vn 0.0000000e+0 0.0000000e+0 1.00000000
vn 0.0000000e+0 1.00000000 -2.7907340e-17
vn -0.70710678 0.0000000e+0 0.70710678
vn -0.38268343 0.0000000e+0 0.92387953
vn 0.0000000e+0 1.00000000 -2.7907340e-17
vn -0.92387953 0.0000000e+0 0.38268343
vn -0.70710678 0.0000000e+0 0.70710678
vn 0.0000000e+0 1.00000000 -2.7907340e-17
vn -1.00000000 0.0000000e+0 0.0000000e+0
vn -0.92387953 0.0000000e+0 0.38268343
vn 0.0000000e+0 1.00000000 -2.7907340e-17
vn -0.92387953 0.0000000e+0 -0.38268343
vn -1.00000000 0.0000000e+0 0.0000000e+0
vn 0.0000000e+0 1.00000000 -2.7907340e-17
vn -0.70710678 0.0000000e+0 -0.70710678
vn -0.92387953 0.0000000e+0 -0.38268343
vn 0.0000000e+0 1.00000000 -2.7907340e-17
vn -0.38268343 0.0000000e+0 -0.92387953
vn -0.70710678 0.0000000e+0 -0.70710678
vn 0.0000000e+0 1.00000000 -2.7907340e-17
vn 0.0000000e+0 0.0000000e+0 -1.00000000
vn -0.38268343 0.0000000e+0 -0.92387953
vn 0.0000000e+0 1.00000000 -2.7907340e-17
vn 0.38268343 0.0000000e+0 -0.92387953
vn 0.0000000e+0 0.0000000e+0 -1.00000000
vn 0.0000000e+0 1.00000000 -2.7907340e-17
vn 0.70710678 0.0000000e+0 -0.70710678
vn 0.38268343 0.0000000e+0 -0.92387953
vn 0.0000000e+0 1.00000000 -2.7907340e-17
vn 0.92387953 0.0000000e+0 -0.38268343
vn 0.70710678 0.0000000e+0 -0.70710678
vn 0.92387953 0.0000000e+0 -0.38268343
vn 1.00000000 0.0000000e+0 0.0000000e+0
vn 0.80800753 -0.58917216 0.0000000e+0
vn 0.74650162 -0.58917216 -0.30921110
vn 0.92387953 0.0000000e+0 0.38268343
vn 1.00000000 0.0000000e+0 0.0000000e+0
vn 0.80800753 -0.58917216 0.0000000e+0
vn 0.74650162 -0.58917216 0.30921110
vn 0.70710678 0.0000000e+0 0.70710678
vn 0.92387953 0.0000000e+0 0.38268343
vn 0.74650162 -0.58917216 0.30921110
vn 0.57134760 -0.58917216 0.57134760
vn 0.38268343 0.0000000e+0 0.92387953
vn 0.70710678 0.0000000e+0 0.70710678
vn 0.57134760 -0.58917216 0.57134760
vn 0.30921110 -0.58917216 0.74650162
vn 0.0000000e+0 0.0000000e+0 1.00000000
vn 0.38268343 0.0000000e+0 0.92387953
vn 0.30921110 -0.58917216 0.74650162
vn 0.0000000e+0 -0.58917216 0.80800753
vn -0.38268343 0.0000000e+0 0.92387953
vn 0.0000000e+0 0.0000000e+0 1.00000000
vn 0.0000000e+0 -0.58917216 0.80800753
vn -0.30921110 -0.58917216 0.74650162
vn -0.70710678 0.0000000e+0 0.70710678
vn -0.38268343 0.0000000e+0 0.92387953
vn -0.30921110 -0.58917216 0.74650162
vn -0.57134760 -0.58917216 0.57134760
vn -0.92387953 0.0000000e+0 0.38268343
vn -0.70710678 0.0000000e+0 0.70710678
vn -0.57134760 -0.58917216 0.57134760
vn -0.74650162 -0.58917216 0.30921110
vn -1.00000000 0.0000000e+0 0.0000000e+0
vn -0.92387953 0.0000000e+0 0.38268343
vn -0.74650162 -0.58917216 0.30921110
vn -0.80800753 -0.58917216 0.0000000e+0
vn -0.92387953 0.0000000e+0 -0.38268343
vn -1.00000000 0.0000000e+0 0.0000000e+0
vn -0.80800753 -0.58917216 0.0000000e+0
vn -0.74650162 -0.58917216 -0.30921110
vn -0.70710678 0.0000000e+0 -0.70710678
vn -0.92387953 0.0000000e+0 -0.38268343
vn -0.74650162 -0.58917216 -0.30921110
vn -0.57134760 -0.58917216 -0.57134760
vn -0.38268343 0.0000000e+0 -0.92387953
vn -0.70710678 0.0000000e+0 -0.70710678
vn -0.57134760 -0.58917216 -0.57134760
vn -0.30921110 -0.58917216 -0.74650162
vn 0.0000000e+0 0.0000000e+0 -1.00000000
vn -0.38268343 0.0000000e+0 -0.92387953
vn -0.30921110 -0.58917216 -0.74650162
vn 0.0000000e+0 -0.58917216 -0.80800753
vn 0.38268343 0.0000000e+0 -0.92387953
vn 0.0000000e+0 0.0000000e+0 -1.00000000
vn 0.0000000e+0 -0.58917216 -0.80800753
vn 0.30921110 -0.58917216 -0.74650162
vn 0.70710678 0.0000000e+0 -0.70710678
vn 0.38268343 0.0000000e+0 -0.92387953
vn 0.30921110 -0.58917216 -0.74650162
vn 0.57134760 -0.58917216 -0.57134760
vn 0.92387953 0.0000000e+0 -0.38268343
vn 0.70710678 0.0000000e+0 -0.70710678
vn 0.57134760 -0.58917216 -0.57134760
vn 0.74650162 -0.58917216 -0.30921110
vn 0.0000000e+0 -1.00000000 1.4861897e-17
vn 0.80800753 -0.58917216 0.0000000e+0
vn 0.74650162 -0.58917216 -0.30921110
vn 0.0000000e+0 -1.00000000 1.4861897e-17
vn 0.80800753 -0.58917216 0.0000000e+0
vn 0.74650162 -0.58917216 0.30921110
vn 0.0000000e+0 -1.00000000 1.4861897e-17
vn 0.74650162 -0.58917216 0.30921110
vn 0.57134760 -0.58917216 0.57134760
vn 0.0000000e+0 -1.00000000 1.4861897e-17
vn 0.57134760 -0.58917216 0.57134760
vn 0.30921110 -0.58917216 0.74650162
vn 0.0000000e+0 -1.00000000 1.4861897e-17
vn 0.30921110 -0.58917216 0.74650162
vn 0.0000000e+0 -0.58917216 0.80800753
vn 0.0000000e+0 -1.00000000 1.4861897e-17
vn 0.0000000e+0 -0.58917216 0.80800753
vn -0.30921110 -0.58917216 0.74650162
vn 0.0000000e+0 -1.00000000 1.4861897e-17
vn -0.30921110 -0.58917216 0.74650162
vn -0.57134760 -0.58917216 0.57134760
vn 0.0000000e+0 -1.00000000 1.4861897e-17
vn -0.57134760 -0.58917216 0.57134760
vn -0.74650162 -0.58917216 0.30921110
vn 0.0000000e+0 -1.00000000 1.4861897e-17
vn -0.74650162 -0.58917216 0.30921110
vn -0.80800753 -0.58917216 0.0000000e+0
vn 0.0000000e+0 -1.00000000 1.4861897e-17
vn -0.80800753 -0.58917216 0.0000000e+0
vn -0.74650162 -0.58917216 -0.30921110
vn 0.0000000e+0 -1.00000000 1.4861897e-17
vn -0.74650162 -0.58917216 -0.30921110
vn -0.57134760 -0.58917216 -0.57134760
vn 0.0000000e+0 -1.00000000 1.4861897e-17
vn -0.57134760 -0.58917216 -0.57134760
vn -0.30921110 -0.58917216 -0.74650162
vn 0.0000000e+0 -1.00000000 1.4861897e-17
vn -0.30921110 -0.58917216 -0.74650162
vn 0.0000000e+0 -0.58917216 -0.80800753
vn 0.0000000e+0 -1.00000000 1.4861897e-17
vn 0.0000000e+0 -0.58917216 -0.80800753
vn 0.30921110 -0.58917216 -0.74650162
vn 0.0000000e+0 -1.00000000 1.4861897e-17
vn 0.30921110 -0.58917216 -0.74650162
vn 0.57134760 -0.58917216 -0.57134760
vn 0.0000000e+0 -1.00000000 1.4861897e-17
vn 0.57134760 -0.58917216 -0.57134760
vn 0.74650162 -0.58917216 -0.30921110
g RLV_Mount_1_Collider_1_default
usemtl default
s 1
f 59//214 75//261 90//321 74//259
f 61//221 77//270 76//265 60//217
f 63//227 79//278 78//273 62//223
f 65//233 81//286 80//281 64//229
f 67//239 83//294 82//289 66//235
f 71//251 87//310 86//305 70//247
f 73//257 89//318 88//313 72//253
f 76//267 92//329 91//326 75//263
f 78//275 94//335 93//333 77//272
f 80//283 96//341 95//339 79//280
f 82//291 98//347 97//345 81//288
f 85//303 101//356 100//354 84//300
f 88//315 104//365 103//363 87//312
f 90//323 106//371 105//369 89//320
s 2
f 60//218 76//266 75//262 59//215
f 62//224 78//274 77//269 61//220
f 64//230 80//282 79//277 63//226
f 66//236 82//290 81//285 65//232
f 68//242 84//298 83//293 67//238
f 70//248 86//306 85//301 69//244
f 72//254 88//314 87//309 71//250
f 74//260 90//322 89//317 73//256
f 75//264 91//327 106//372 90//324
f 77//271 93//332 92//330 76//268
f 79//279 95//338 94//336 78//276
f 81//287 97//344 96//342 80//284
f 83//295 99//350 98//348 82//292
f 87//311 103//362 102//360 86//308
f 89//319 105//368 104//366 88//316
s 3
f 59//213 74//258 73//255 72//252 71//249 70//246 69//243 68//240 67//237 66//234 65//231 64//228 63//225 62//222 61//219 60//216
f 84//299 100//353 99//351 83//296
f 86//307 102//359 101//357 85//304
s 4
f 69//245 85//302 84//297 68//241
f 92//328 93//331 94//334 95//337 96//340 97//343 98//346 99//349 100//352 101//355 102//358 103//361 104//364 105//367 106//370 91//325
