# Exported from Wings 3D 1.5.4
mtllib rotanev_lv_engine_mount_s4_4_collider.mtl
o collider
#36 vertices, 26 faces
v 2.50000000 0.81250000 -0.66987298
v 2.50000000 0.81250000 0.66987298
v 1.83012702 0.81250000 1.83012702
v 0.66987298 0.81250000 2.50000000
v -0.66987298 0.81250000 2.50000000
v -1.83012702 0.81250000 1.83012702
v -2.50000000 0.81250000 0.66987298
v -2.50000000 0.81250000 -0.66987298
v -1.83012702 0.81250000 -1.83012702
v -0.66987298 0.81250000 -2.50000000
v 0.66987298 0.81250000 -2.50000000
v 1.83012702 0.81250000 -1.83012702
v 1.83012702 0.56250000 -1.83012702
v 2.50000000 0.56250000 -0.66987298
v 2.50000000 0.56250000 0.66987298
v 1.83012702 0.56250000 1.83012702
v 0.66987298 0.56250000 2.50000000
v -0.66987298 0.56250000 2.50000000
v -1.83012702 0.56250000 1.83012702
v -2.50000000 0.56250000 0.66987298
v -2.50000000 0.56250000 -0.66987298
v -1.83012702 0.56250000 -1.83012702
v -0.66987298 0.56250000 -2.50000000
v 0.66987298 0.56250000 -2.50000000
v 1.09807621 -0.68750000 -1.09807621
v 1.50000000 -0.68750000 -0.40192379
v 1.50000000 -0.68750000 0.40192379
v 1.09807621 -0.68750000 1.09807621
v 0.40192379 -0.68750000 1.50000000
v -0.40192379 -0.68750000 1.50000000
v -1.09807621 -0.68750000 1.09807621
v -1.50000000 -0.68750000 0.40192379
v -1.50000000 -0.68750000 -0.40192379
v -1.09807621 -0.68750000 -1.09807621
v -0.40192379 -0.68750000 -1.50000000
v 0.40192379 -0.68750000 -1.50000000
vn 0.86602540 0.0000000e+0 -0.50000000
vn 0.0000000e+0 1.00000000 -5.5245450e-18
vn 1.00000000 0.0000000e+0 0.0000000e+0
vn 0.86602540 0.0000000e+0 0.50000000
vn 0.0000000e+0 1.00000000 -5.5245450e-18
vn 1.00000000 0.0000000e+0 0.0000000e+0
vn 0.50000000 0.0000000e+0 0.86602540
vn 0.86602540 0.0000000e+0 0.50000000
vn 0.0000000e+0 1.00000000 -5.5245450e-18
vn 0.50000000 0.0000000e+0 0.86602540
vn 0.0000000e+0 0.0000000e+0 1.00000000
vn 0.0000000e+0 1.00000000 -5.5245450e-18
vn -0.50000000 0.0000000e+0 0.86602540
vn 0.0000000e+0 0.0000000e+0 1.00000000
vn 0.0000000e+0 1.00000000 -5.5245450e-18
vn -0.50000000 0.0000000e+0 0.86602540
vn -0.86602540 0.0000000e+0 0.50000000
vn 0.0000000e+0 1.00000000 -5.5245450e-18
vn -1.00000000 0.0000000e+0 0.0000000e+0
vn -0.86602540 0.0000000e+0 0.50000000
vn 0.0000000e+0 1.00000000 -5.5245450e-18
vn -1.00000000 0.0000000e+0 0.0000000e+0
vn -0.86602540 0.0000000e+0 -0.50000000
vn 0.0000000e+0 1.00000000 -5.5245450e-18
vn -0.86602540 0.0000000e+0 -0.50000000
vn 0.0000000e+0 1.00000000 -5.5245450e-18
vn -0.50000000 0.0000000e+0 -0.86602540
vn 0.0000000e+0 0.0000000e+0 -1.00000000
vn 0.0000000e+0 1.00000000 -5.5245450e-18
vn -0.50000000 0.0000000e+0 -0.86602540
vn 0.0000000e+0 0.0000000e+0 -1.00000000
vn 0.50000000 0.0000000e+0 -0.86602540
vn 0.0000000e+0 1.00000000 -5.5245450e-18
vn 0.86602540 0.0000000e+0 -0.50000000
vn 0.50000000 0.0000000e+0 -0.86602540
vn 0.0000000e+0 1.00000000 -5.5245450e-18
vn 0.86602540 0.0000000e+0 -0.50000000
vn 0.39043440 -0.62469505 -0.67625223
vn 0.50000000 0.0000000e+0 -0.86602540
vn 0.67625223 -0.62469505 -0.39043440
vn 0.86602540 0.0000000e+0 -0.50000000
vn 0.67625223 -0.62469505 -0.39043440
vn 1.00000000 0.0000000e+0 0.0000000e+0
vn 0.78086881 -0.62469505 0.0000000e+0
vn 0.67625223 -0.62469505 0.39043440
vn 0.86602540 0.0000000e+0 0.50000000
vn 1.00000000 0.0000000e+0 0.0000000e+0
vn 0.78086881 -0.62469505 0.0000000e+0
vn 0.50000000 0.0000000e+0 0.86602540
vn 0.67625223 -0.62469505 0.39043440
vn 0.86602540 0.0000000e+0 0.50000000
vn 0.39043440 -0.62469505 0.67625223
vn 0.50000000 0.0000000e+0 0.86602540
vn 0.0000000e+0 -0.62469505 0.78086881
vn 0.0000000e+0 0.0000000e+0 1.00000000
vn 0.39043440 -0.62469505 0.67625223
vn -0.50000000 0.0000000e+0 0.86602540
vn 0.0000000e+0 -0.62469505 0.78086881
vn 0.0000000e+0 0.0000000e+0 1.00000000
vn -0.39043440 -0.62469505 0.67625223
vn -0.50000000 0.0000000e+0 0.86602540
vn -0.67625223 -0.62469505 0.39043440
vn -0.86602540 0.0000000e+0 0.50000000
vn -0.39043440 -0.62469505 0.67625223
vn -1.00000000 0.0000000e+0 0.0000000e+0
vn -0.67625223 -0.62469505 0.39043440
vn -0.86602540 0.0000000e+0 0.50000000
vn -0.78086881 -0.62469505 0.0000000e+0
vn -1.00000000 0.0000000e+0 0.0000000e+0
vn -0.67625223 -0.62469505 -0.39043440
vn -0.86602540 0.0000000e+0 -0.50000000
vn -0.78086881 -0.62469505 0.0000000e+0
vn -0.67625223 -0.62469505 -0.39043440
vn -0.86602540 0.0000000e+0 -0.50000000
vn -0.39043440 -0.62469505 -0.67625223
vn -0.50000000 0.0000000e+0 -0.86602540
vn 0.0000000e+0 0.0000000e+0 -1.00000000
vn -0.39043440 -0.62469505 -0.67625223
vn -0.50000000 0.0000000e+0 -0.86602540
vn 0.0000000e+0 -0.62469505 -0.78086881
vn 0.0000000e+0 0.0000000e+0 -1.00000000
vn 0.39043440 -0.62469505 -0.67625223
vn 0.50000000 0.0000000e+0 -0.86602540
vn 0.0000000e+0 -0.62469505 -0.78086881
vn 0.39043440 -0.62469505 -0.67625223
vn 0.67625223 -0.62469505 -0.39043440
vn 0.0000000e+0 -1.00000000 -1.5345958e-17
vn 0.67625223 -0.62469505 -0.39043440
vn 0.0000000e+0 -1.00000000 -1.5345958e-17
vn 0.78086881 -0.62469505 0.0000000e+0
vn 0.67625223 -0.62469505 0.39043440
vn 0.0000000e+0 -1.00000000 -1.5345958e-17
vn 0.78086881 -0.62469505 0.0000000e+0
vn 0.67625223 -0.62469505 0.39043440
vn 0.39043440 -0.62469505 0.67625223
vn 0.0000000e+0 -1.00000000 -1.5345958e-17
vn 0.0000000e+0 -0.62469505 0.78086881
vn 0.39043440 -0.62469505 0.67625223
vn 0.0000000e+0 -1.00000000 -1.5345958e-17
vn 0.0000000e+0 -0.62469505 0.78086881
vn -0.39043440 -0.62469505 0.67625223
vn 0.0000000e+0 -1.00000000 -1.5345958e-17
vn -0.67625223 -0.62469505 0.39043440
vn -0.39043440 -0.62469505 0.67625223
vn 0.0000000e+0 -1.00000000 -1.5345958e-17
vn -0.67625223 -0.62469505 0.39043440
vn -0.78086881 -0.62469505 0.0000000e+0
vn 0.0000000e+0 -1.00000000 -1.5345958e-17
vn -0.67625223 -0.62469505 -0.39043440
vn -0.78086881 -0.62469505 0.0000000e+0
vn 0.0000000e+0 -1.00000000 -1.5345958e-17
vn -0.67625223 -0.62469505 -0.39043440
vn -0.39043440 -0.62469505 -0.67625223
vn 0.0000000e+0 -1.00000000 -1.5345958e-17
vn -0.39043440 -0.62469505 -0.67625223
vn 0.0000000e+0 -1.00000000 -1.5345958e-17
vn 0.0000000e+0 -0.62469505 -0.78086881
vn 0.39043440 -0.62469505 -0.67625223
vn 0.0000000e+0 -1.00000000 -1.5345958e-17
vn 0.0000000e+0 -0.62469505 -0.78086881
g collider_default2
usemtl default2
s 1
f 1//1 14//41 13//37 12//34
f 4//10 17//53 16//49 3//7
f 6//16 19//61 18//57 5//13
f 9//25 22//74 21//71 8//23
f 11//31 24//81 23//77 10//28
f 13//38 25//85 36//118 24//82
f 16//50 28//94 27//91 15//45
f 18//58 30//100 29//97 17//54
f 21//72 33//110 32//107 20//68
f 23//78 35//115 34//113 22//75
s 2
f 2//6 15//47 14//43 1//3
f 5//14 18//59 17//55 4//11
f 8//22 21//69 20//65 7//19
f 10//30 23//79 22//76 9//27
f 12//35 13//39 24//83 11//32
f 14//42 26//88 25//86 13//40
f 17//56 29//98 28//95 16//52
f 19//64 31//104 30//101 18//60
f 22//73 34//112 33//109 21//70
f 24//84 36//120 35//117 23//80
s 3
f 3//8 16//51 15//46 2//4
f 7//20 20//67 19//63 6//17
f 26//89 27//92 28//96 29//99 30//102 31//105 32//108 33//111 34//114 35//116 36//119 25//87
s 4
f 1//2 12//36 11//33 10//29 9//26 8//24 7//21 6//18 5//15 4//12 3//9 2//5
f 15//48 27//93 26//90 14//44
f 20//66 32//106 31//103 19//62
