# Exported from Wings 3D 1.5.4
mtllib rotanev_lv_nose_fuel_tank_s4_1_collider.mtl
o collider
#37 vertices, 37 faces
v 2.50000000 -3.75000000 -0.66987298
v 2.50000000 -3.75000000 0.66987298
v 1.83012702 -3.75000000 1.83012702
v 0.66987298 -3.75000000 2.50000000
v -0.66987298 -3.75000000 2.50000000
v -1.83012702 -3.75000000 1.83012702
v -2.50000000 -3.75000000 0.66987298
v -2.50000000 -3.75000000 -0.66987298
v -1.83012702 -3.75000000 -1.83012702
v -0.66987298 -3.75000000 -2.50000000
v 0.66987298 -3.75000000 -2.50000000
v 1.83012702 -3.75000000 -1.83012702
v -1.1102230e-16 3.75000000 2.9605947e-16
v 1.57646419 -1.07607473 -1.57646419
v 0.57702594 -1.07607473 -2.15349013
v -0.57702594 -1.07607473 -2.15349013
v -1.57646419 -1.07607473 -1.57646419
v -2.15349013 -1.07607473 -0.57702594
v -2.15349013 -1.07607473 0.57702594
v -1.57646419 -1.07607473 1.57646419
v -0.57702594 -1.07607473 2.15349013
v 0.57702594 -1.07607473 2.15349013
v 1.57646419 -1.07607473 1.57646419
v 2.15349013 -1.07607473 0.57702594
v 2.15349013 -1.07607473 -0.57702594
v 0.92898579 1.39951538 -0.92898579
v 0.34003240 1.39951538 -1.26901819
v -0.34003240 1.39951538 -1.26901819
v -0.92898579 1.39951538 -0.92898579
v -1.26901819 1.39951538 -0.34003240
v -1.26901819 1.39951538 0.34003240
v -0.92898579 1.39951538 0.92898579
v -0.34003240 1.39951538 1.26901819
v 0.34003240 1.39951538 1.26901819
v 0.92898579 1.39951538 0.92898579
v 1.26901819 1.39951538 0.34003240
v 1.26901819 1.39951538 -0.34003240
vn 0.0000000e+0 -1.00000000 6.6294540e-17
vn 0.85884407 0.12851388 -0.49585386
vn 0.99170771 0.12851388 0.0000000e+0
vn 0.0000000e+0 -1.00000000 6.6294540e-17
vn 0.85884407 0.12851388 0.49585386
vn 0.99170771 0.12851388 0.0000000e+0
vn 0.0000000e+0 -1.00000000 6.6294540e-17
vn 0.49585386 0.12851388 0.85884407
vn 0.85884407 0.12851388 0.49585386
vn 0.0000000e+0 -1.00000000 6.6294540e-17
vn -3.4673901e-16 0.12851388 0.99170771
vn 0.49585386 0.12851388 0.85884407
vn 0.0000000e+0 -1.00000000 6.6294540e-17
vn -0.49585386 0.12851388 0.85884407
vn -3.4673901e-16 0.12851388 0.99170771
vn 0.0000000e+0 -1.00000000 6.6294540e-17
vn -0.85884407 0.12851388 0.49585386
vn -0.49585386 0.12851388 0.85884407
vn 0.0000000e+0 -1.00000000 6.6294540e-17
vn -0.99170771 0.12851388 0.0000000e+0
vn -0.85884407 0.12851388 0.49585386
vn 0.0000000e+0 -1.00000000 6.6294540e-17
vn -0.85884407 0.12851388 -0.49585386
vn -0.99170771 0.12851388 0.0000000e+0
vn 0.0000000e+0 -1.00000000 6.6294540e-17
vn -0.49585386 0.12851388 -0.85884407
vn -0.85884407 0.12851388 -0.49585386
vn 0.0000000e+0 -1.00000000 6.6294540e-17
vn -1.8162520e-16 0.12851388 -0.99170771
vn -0.49585386 0.12851388 -0.85884407
vn 0.0000000e+0 -1.00000000 6.6294540e-17
vn 0.49585386 0.12851388 -0.85884407
vn -1.8162520e-16 0.12851388 -0.99170771
vn 0.0000000e+0 -1.00000000 6.6294540e-17
vn 0.85884407 0.12851388 -0.49585386
vn 0.49585386 0.12851388 -0.85884407
vn 0.76205343 0.47507833 -0.43997175
vn 0.43997175 0.47507833 -0.76205343
vn 0.0000000e+0 0.47507833 -0.87994351
vn -0.43997175 0.47507833 -0.76205343
vn -0.76205343 0.47507833 -0.43997175
vn -0.87994351 0.47507833 0.0000000e+0
vn -0.76205343 0.47507833 0.43997175
vn -0.43997175 0.47507833 0.76205343
vn 0.0000000e+0 0.47507833 0.87994351
vn 0.43997175 0.47507833 0.76205343
vn 0.76205343 0.47507833 0.43997175
vn 0.87994351 0.47507833 -9.7786138e-16
vn 0.85884407 0.12851388 -0.49585386
vn 0.49585386 0.12851388 -0.85884407
vn 0.81553771 0.33644861 -0.47085091
vn 0.47085091 0.33644861 -0.81553771
vn 0.49585386 0.12851388 -0.85884407
vn -1.8162520e-16 0.12851388 -0.99170771
vn 0.47085091 0.33644861 -0.81553771
vn -1.8420776e-16 0.33644861 -0.94170183
vn -1.8162520e-16 0.12851388 -0.99170771
vn -0.49585386 0.12851388 -0.85884407
vn -1.8420776e-16 0.33644861 -0.94170183
vn -0.47085091 0.33644861 -0.81553771
vn -0.49585386 0.12851388 -0.85884407
vn -0.85884407 0.12851388 -0.49585386
vn -0.47085091 0.33644861 -0.81553771
vn -0.81553771 0.33644861 -0.47085091
vn -0.85884407 0.12851388 -0.49585386
vn -0.99170771 0.12851388 0.0000000e+0
vn -0.81553771 0.33644861 -0.47085091
vn -0.94170183 0.33644861 0.0000000e+0
vn -0.99170771 0.12851388 0.0000000e+0
vn -0.85884407 0.12851388 0.49585386
vn -0.94170183 0.33644861 0.0000000e+0
vn -0.81553771 0.33644861 0.47085091
vn -0.85884407 0.12851388 0.49585386
vn -0.49585386 0.12851388 0.85884407
vn -0.81553771 0.33644861 0.47085091
vn -0.47085091 0.33644861 0.81553771
vn -0.49585386 0.12851388 0.85884407
vn -3.4673901e-16 0.12851388 0.99170771
vn -0.47085091 0.33644861 0.81553771
vn -1.8420776e-16 0.33644861 0.94170183
vn -3.4673901e-16 0.12851388 0.99170771
vn 0.49585386 0.12851388 0.85884407
vn -1.8420776e-16 0.33644861 0.94170183
vn 0.47085091 0.33644861 0.81553771
vn 0.49585386 0.12851388 0.85884407
vn 0.85884407 0.12851388 0.49585386
vn 0.47085091 0.33644861 0.81553771
vn 0.81553771 0.33644861 0.47085091
vn 0.85884407 0.12851388 0.49585386
vn 0.99170771 0.12851388 0.0000000e+0
vn 0.81553771 0.33644861 0.47085091
vn 0.94170183 0.33644861 -1.8420776e-16
vn 0.85884407 0.12851388 -0.49585386
vn 0.99170771 0.12851388 0.0000000e+0
vn 0.81553771 0.33644861 -0.47085091
vn 0.94170183 0.33644861 -1.8420776e-16
vn 0.81553771 0.33644861 -0.47085091
vn 0.47085091 0.33644861 -0.81553771
vn 0.76205343 0.47507833 -0.43997175
vn 0.43997175 0.47507833 -0.76205343
vn 0.47085091 0.33644861 -0.81553771
vn -1.8420776e-16 0.33644861 -0.94170183
vn 0.43997175 0.47507833 -0.76205343
vn 0.0000000e+0 0.47507833 -0.87994351
vn -1.8420776e-16 0.33644861 -0.94170183
vn -0.47085091 0.33644861 -0.81553771
vn 0.0000000e+0 0.47507833 -0.87994351
vn -0.43997175 0.47507833 -0.76205343
vn -0.47085091 0.33644861 -0.81553771
vn -0.81553771 0.33644861 -0.47085091
vn -0.43997175 0.47507833 -0.76205343
vn -0.76205343 0.47507833 -0.43997175
vn -0.81553771 0.33644861 -0.47085091
vn -0.94170183 0.33644861 0.0000000e+0
vn -0.76205343 0.47507833 -0.43997175
vn -0.87994351 0.47507833 0.0000000e+0
vn -0.94170183 0.33644861 0.0000000e+0
vn -0.81553771 0.33644861 0.47085091
vn -0.87994351 0.47507833 0.0000000e+0
vn -0.76205343 0.47507833 0.43997175
vn -0.81553771 0.33644861 0.47085091
vn -0.47085091 0.33644861 0.81553771
vn -0.76205343 0.47507833 0.43997175
vn -0.43997175 0.47507833 0.76205343
vn -0.47085091 0.33644861 0.81553771
vn -1.8420776e-16 0.33644861 0.94170183
vn -0.43997175 0.47507833 0.76205343
vn 0.0000000e+0 0.47507833 0.87994351
vn -1.8420776e-16 0.33644861 0.94170183
vn 0.47085091 0.33644861 0.81553771
vn 0.0000000e+0 0.47507833 0.87994351
vn 0.43997175 0.47507833 0.76205343
vn 0.47085091 0.33644861 0.81553771
vn 0.81553771 0.33644861 0.47085091
vn 0.43997175 0.47507833 0.76205343
vn 0.76205343 0.47507833 0.43997175
vn 0.81553771 0.33644861 0.47085091
vn 0.94170183 0.33644861 -1.8420776e-16
vn 0.76205343 0.47507833 0.43997175
vn 0.87994351 0.47507833 -9.7786138e-16
vn 0.81553771 0.33644861 -0.47085091
vn 0.94170183 0.33644861 -1.8420776e-16
vn 0.76205343 0.47507833 -0.43997175
vn 0.87994351 0.47507833 -9.7786138e-16
g collider_default
usemtl default
s 1
f 1//3 25//94 24//90 2//6
f 4//11 22//81 21//78 5//15
f 8//23 18//65 17//62 9//27
f 11//32 15//53 14//50 12//36
f 13//39 27//104 28//107
f 13//42 30//116 31//119
f 13//45 33//128 34//131
f 13//47 35//136 36//139
f 14//51 26//97 37//141 25//95
f 17//63 29//109 28//106 16//60
f 20//75 32//121 31//118 19//72
f 23//87 35//133 34//130 22//84
s 2
f 3//8 23//85 22//82 4//12
f 7//20 19//69 18//66 8//24
f 9//26 17//61 16//58 10//30
f 12//35 14//49 25//93 1//2
f 13//40 28//108 29//111
f 13//43 31//120 32//123
f 13//46 34//132 35//135
f 13//48 36//140 37//144
f 15//55 27//101 26//98 14//52
f 18//67 30//113 29//110 17//64
f 21//79 33//125 32//122 20//76
f 24//91 36//137 35//134 23//88
s 3
f 2//4 3//7 4//10 5//13 6//16 7//19 8//22 9//25 10//28 11//31 12//34 1//1
f 13//38 26//100 27//103
f 13//41 29//112 30//115
f 13//44 32//124 33//127
f 16//59 28//105 27//102 15//56
f 19//71 31//117 30//114 18//68
f 22//83 34//129 33//126 21//80
f 25//96 37//142 36//138 24//92
s 4
f 2//5 24//89 23//86 3//9
f 6//17 20//73 19//70 7//21
f 10//29 16//57 15//54 11//33
f 37//143 26//99 13//37
s 5
f 5//14 21//77 20//74 6//18
