# Exported from Wings 3D 1.5.4
mtllib rotanev_lv_cap_fuel_tank_s4_1_collider.mtl
o collider
#37 vertices, 37 faces
v 2.50000000 -1.25000000 -0.66987298
v 2.50000000 -1.25000000 0.66987298
v 1.83012702 -1.25000000 1.83012702
v 0.66987298 -1.25000000 2.50000000
v -0.66987298 -1.25000000 2.50000000
v -1.83012702 -1.25000000 1.83012702
v -2.50000000 -1.25000000 0.66987298
v -2.50000000 -1.25000000 -0.66987298
v -1.83012702 -1.25000000 -1.83012702
v -0.66987298 -1.25000000 -2.50000000
v 0.66987298 -1.25000000 -2.50000000
v 1.83012702 -1.25000000 -1.83012702
v -1.1102230e-16 1.25000000 2.9605947e-16
v 1.54608465 6.0630411e-2 -1.54608465
v 0.56590626 6.0630411e-2 -2.11199090
v -0.56590626 6.0630411e-2 -2.11199090
v -1.54608465 6.0630411e-2 -1.54608465
v -2.11199090 6.0630411e-2 -0.56590626
v -2.11199090 6.0630411e-2 0.56590626
v -1.54608465 6.0630411e-2 1.54608465
v -0.56590626 6.0630411e-2 2.11199090
v 0.56590626 6.0630411e-2 2.11199090
v 1.54608465 6.0630411e-2 1.54608465
v 2.11199090 6.0630411e-2 0.56590626
v 2.11199090 6.0630411e-2 -0.56590626
v 0.93604231 0.89396374 -0.93604231
v 0.34261526 0.89396374 -1.27865757
v -0.34261526 0.89396374 -1.27865757
v -0.93604231 0.89396374 -0.93604231
v -1.27865757 0.89396374 -0.34261526
v -1.27865757 0.89396374 0.34261526
v -0.93604231 0.89396374 0.93604231
v -0.34261526 0.89396374 1.27865757
v 0.34261526 0.89396374 1.27865757
v 0.93604231 0.89396374 0.93604231
v 1.27865757 0.89396374 0.34261526
v 1.27865757 0.89396374 -0.34261526
vn 0.0000000e+0 -1.00000000 -5.5245450e-18
vn 0.83039973 0.28386918 -0.47943151
vn 0.95886302 0.28386918 0.0000000e+0
vn 0.0000000e+0 -1.00000000 -5.5245450e-18
vn 0.83039973 0.28386918 0.47943151
vn 0.95886302 0.28386918 0.0000000e+0
vn 0.0000000e+0 -1.00000000 -5.5245450e-18
vn 0.47943151 0.28386918 0.83039973
vn 0.83039973 0.28386918 0.47943151
vn 0.0000000e+0 -1.00000000 -5.5245450e-18
vn -3.2863640e-16 0.28386918 0.95886302
vn 0.47943151 0.28386918 0.83039973
vn 0.0000000e+0 -1.00000000 -5.5245450e-18
vn -0.47943151 0.28386918 0.83039973
vn -3.2863640e-16 0.28386918 0.95886302
vn 0.0000000e+0 -1.00000000 -5.5245450e-18
vn -0.83039973 0.28386918 0.47943151
vn -0.47943151 0.28386918 0.83039973
vn 0.0000000e+0 -1.00000000 -5.5245450e-18
vn -0.95886302 0.28386918 0.0000000e+0
vn -0.83039973 0.28386918 0.47943151
vn 0.0000000e+0 -1.00000000 -5.5245450e-18
vn -0.83039973 0.28386918 -0.47943151
vn -0.95886302 0.28386918 0.0000000e+0
vn 0.0000000e+0 -1.00000000 -5.5245450e-18
vn -0.47943151 0.28386918 -0.83039973
vn -0.83039973 0.28386918 -0.47943151
vn 0.0000000e+0 -1.00000000 -5.5245450e-18
vn -1.3145456e-16 0.28386918 -0.95886302
vn -0.47943151 0.28386918 -0.83039973
vn 0.0000000e+0 -1.00000000 -5.5245450e-18
vn 0.47943151 0.28386918 -0.83039973
vn -1.3145456e-16 0.28386918 -0.95886302
vn 0.0000000e+0 -1.00000000 -5.5245450e-18
vn 0.83039973 0.28386918 -0.47943151
vn 0.47943151 0.28386918 -0.83039973
vn 0.23230339 0.96335188 -0.13412043
vn 0.13412043 0.96335188 -0.23230339
vn -1.2206867e-16 0.96335188 -0.26824085
vn -0.13412043 0.96335188 -0.23230339
vn -0.23230339 0.96335188 -0.13412043
vn -0.26824085 0.96335188 0.0000000e+0
vn -0.23230339 0.96335188 0.13412043
vn -0.13412043 0.96335188 0.23230339
vn 0.0000000e+0 0.96335188 0.26824085
vn 0.13412043 0.96335188 0.23230339
vn 0.23230339 0.96335188 0.13412043
vn 0.26824085 0.96335188 -4.8827469e-16
vn 0.83039973 0.28386918 -0.47943151
vn 0.47943151 0.28386918 -0.83039973
vn 0.61237244 0.70710678 -0.35355339
vn 0.35355339 0.70710678 -0.61237244
vn 0.47943151 0.28386918 -0.83039973
vn -1.3145456e-16 0.28386918 -0.95886302
vn 0.35355339 0.70710678 -0.61237244
vn -1.0369105e-16 0.70710678 -0.70710678
vn -1.3145456e-16 0.28386918 -0.95886302
vn -0.47943151 0.28386918 -0.83039973
vn -1.0369105e-16 0.70710678 -0.70710678
vn -0.35355339 0.70710678 -0.61237244
vn -0.47943151 0.28386918 -0.83039973
vn -0.83039973 0.28386918 -0.47943151
vn -0.35355339 0.70710678 -0.61237244
vn -0.61237244 0.70710678 -0.35355339
vn -0.83039973 0.28386918 -0.47943151
vn -0.95886302 0.28386918 0.0000000e+0
vn -0.61237244 0.70710678 -0.35355339
vn -0.70710678 0.70710678 0.0000000e+0
vn -0.95886302 0.28386918 0.0000000e+0
vn -0.83039973 0.28386918 0.47943151
vn -0.70710678 0.70710678 0.0000000e+0
vn -0.61237244 0.70710678 0.35355339
vn -0.83039973 0.28386918 0.47943151
vn -0.47943151 0.28386918 0.83039973
vn -0.61237244 0.70710678 0.35355339
vn -0.35355339 0.70710678 0.61237244
vn -0.47943151 0.28386918 0.83039973
vn -3.2863640e-16 0.28386918 0.95886302
vn -0.35355339 0.70710678 0.61237244
vn -1.5553657e-16 0.70710678 0.70710678
vn -3.2863640e-16 0.28386918 0.95886302
vn 0.47943151 0.28386918 0.83039973
vn -1.5553657e-16 0.70710678 0.70710678
vn 0.35355339 0.70710678 0.61237244
vn 0.47943151 0.28386918 0.83039973
vn 0.83039973 0.28386918 0.47943151
vn 0.35355339 0.70710678 0.61237244
vn 0.61237244 0.70710678 0.35355339
vn 0.83039973 0.28386918 0.47943151
vn 0.95886302 0.28386918 0.0000000e+0
vn 0.61237244 0.70710678 0.35355339
vn 0.70710678 0.70710678 -1.0369105e-16
vn 0.83039973 0.28386918 -0.47943151
vn 0.95886302 0.28386918 0.0000000e+0
vn 0.61237244 0.70710678 -0.35355339
vn 0.70710678 0.70710678 -1.0369105e-16
vn 0.61237244 0.70710678 -0.35355339
vn 0.35355339 0.70710678 -0.61237244
vn 0.23230339 0.96335188 -0.13412043
vn 0.13412043 0.96335188 -0.23230339
vn 0.35355339 0.70710678 -0.61237244
vn -1.0369105e-16 0.70710678 -0.70710678
vn 0.13412043 0.96335188 -0.23230339
vn -1.2206867e-16 0.96335188 -0.26824085
vn -1.0369105e-16 0.70710678 -0.70710678
vn -0.35355339 0.70710678 -0.61237244
vn -1.2206867e-16 0.96335188 -0.26824085
vn -0.13412043 0.96335188 -0.23230339
vn -0.35355339 0.70710678 -0.61237244
vn -0.61237244 0.70710678 -0.35355339
vn -0.13412043 0.96335188 -0.23230339
vn -0.23230339 0.96335188 -0.13412043
vn -0.61237244 0.70710678 -0.35355339
vn -0.70710678 0.70710678 0.0000000e+0
vn -0.23230339 0.96335188 -0.13412043
vn -0.26824085 0.96335188 0.0000000e+0
vn -0.70710678 0.70710678 0.0000000e+0
vn -0.61237244 0.70710678 0.35355339
vn -0.26824085 0.96335188 0.0000000e+0
vn -0.23230339 0.96335188 0.13412043
vn -0.61237244 0.70710678 0.35355339
vn -0.35355339 0.70710678 0.61237244
vn -0.23230339 0.96335188 0.13412043
vn -0.13412043 0.96335188 0.23230339
vn -0.35355339 0.70710678 0.61237244
vn -1.5553657e-16 0.70710678 0.70710678
vn -0.13412043 0.96335188 0.23230339
vn 0.0000000e+0 0.96335188 0.26824085
vn -1.5553657e-16 0.70710678 0.70710678
vn 0.35355339 0.70710678 0.61237244
vn 0.0000000e+0 0.96335188 0.26824085
vn 0.13412043 0.96335188 0.23230339
vn 0.35355339 0.70710678 0.61237244
vn 0.61237244 0.70710678 0.35355339
vn 0.13412043 0.96335188 0.23230339
vn 0.23230339 0.96335188 0.13412043
vn 0.61237244 0.70710678 0.35355339
vn 0.70710678 0.70710678 -1.0369105e-16
vn 0.23230339 0.96335188 0.13412043
vn 0.26824085 0.96335188 -4.8827469e-16
vn 0.61237244 0.70710678 -0.35355339
vn 0.70710678 0.70710678 -1.0369105e-16
vn 0.23230339 0.96335188 -0.13412043
vn 0.26824085 0.96335188 -4.8827469e-16
g collider_default
usemtl default
s 1
f 1//3 25//94 24//90 2//6
f 4//11 22//81 21//78 5//15
f 8//23 18//65 17//62 9//27
f 11//32 15//53 14//50 12//36
f 13//39 27//104 28//107
f 13//42 30//116 31//119
f 13//45 33//128 34//131
f 13//47 35//136 36//139
f 14//51 26//97 37//141 25//95
f 17//63 29//109 28//106 16//60
f 20//75 32//121 31//118 19//72
f 23//87 35//133 34//130 22//84
s 2
f 3//8 23//85 22//82 4//12
f 7//20 19//69 18//66 8//24
f 9//26 17//61 16//58 10//30
f 12//35 14//49 25//93 1//2
f 13//40 28//108 29//111
f 13//43 31//120 32//123
f 13//46 34//132 35//135
f 13//48 36//140 37//144
f 15//55 27//101 26//98 14//52
f 18//67 30//113 29//110 17//64
f 21//79 33//125 32//122 20//76
f 24//91 36//137 35//134 23//88
s 3
f 2//4 3//7 4//10 5//13 6//16 7//19 8//22 9//25 10//28 11//31 12//34 1//1
f 13//38 26//100 27//103
f 13//41 29//112 30//115
f 13//44 32//124 33//127
f 16//59 28//105 27//102 15//56
f 19//71 31//117 30//114 18//68
f 22//83 34//129 33//126 21//80
f 25//96 37//142 36//138 24//92
s 4
f 2//5 24//89 23//86 3//9
f 6//17 20//73 19//70 7//21
f 10//29 16//57 15//54 11//33
f 37//143 26//99 13//37
s 5
f 5//14 21//77 20//74 6//18
