# Exported from Wings 3D 1.5.4
mtllib tantares_lv_fuel_tank_s1p5_s1_3.mtl
o tantares_lv_fuel_tank_s1p5_s1_3
#48 vertices, 26 faces
v 0.62500000 1.50000000 7.8253296e-18
v 0.60370364 1.50000000 0.16176190
v 0.54126588 1.50000000 0.31250000
v 0.44194174 1.50000000 0.44194174
v 0.31250000 1.50000000 0.54126588
v 0.16176190 1.50000000 0.60370364
v -4.5196333e-18 1.50000000 0.62500000
v -0.16176190 1.50000000 0.60370364
v -0.31250000 1.50000000 0.54126588
v -0.44194174 1.50000000 0.44194174
v -0.54126588 1.50000000 0.31250000
v -0.60370364 1.50000000 0.16176190
v -0.62500000 1.50000000 8.4365755e-17
v -0.60370364 1.50000000 -0.16176190
v -0.54126588 1.50000000 -0.31250000
v -0.44194174 1.50000000 -0.44194174
v -0.31250000 1.50000000 -0.54126588
v -0.16176190 1.50000000 -0.60370364
v -1.5760048e-16 1.50000000 -0.62500000
v 0.16176190 1.50000000 -0.60370364
v 0.31250000 1.50000000 -0.54126588
v 0.44194174 1.50000000 -0.44194174
v 0.54126588 1.50000000 -0.31250000
v 0.60370364 1.50000000 -0.16176190
v 0.93750000 -1.50000000 -2.0961242e-18
v 0.90555546 -1.50000000 0.24264285
v 0.81189882 -1.50000000 0.46875000
v 0.66291261 -1.50000000 0.66291261
v 0.46875000 -1.50000000 0.81189882
v 0.24264285 -1.50000000 0.90555546
v 4.8731701e-17 -1.50000000 0.93750000
v -0.24264285 -1.50000000 0.90555546
v -0.46875000 -1.50000000 0.81189882
v -0.66291261 -1.50000000 0.66291261
v -0.81189882 -1.50000000 0.46875000
v -0.90555546 -1.50000000 0.24264285
v -0.93750000 -1.50000000 1.1271451e-16
v -0.90555546 -1.50000000 -0.24264285
v -0.81189882 -1.50000000 -0.46875000
v -0.66291261 -1.50000000 -0.66291261
v -0.46875000 -1.50000000 -0.81189882
v -0.24264285 -1.50000000 -0.90555546
v -1.8088957e-16 -1.50000000 -0.93750000
v 0.24264285 -1.50000000 -0.90555546
v 0.46875000 -1.50000000 -0.81189882
v 0.66291261 -1.50000000 -0.66291261
v 0.81189882 -1.50000000 -0.46875000
v 0.90555546 -1.50000000 -0.24264285
vn 0.0000000e+0 1.00000000 1.1438860e-16
vn 0.99461841 0.10360608 -2.3793640e-16
vn 0.99461841 0.10360608 -2.3793640e-16
vn 0.0000000e+0 1.00000000 1.1438860e-16
vn 0.96072761 0.10360608 0.25742619
vn 0.96072761 0.10360608 0.25742619
vn 0.0000000e+0 1.00000000 1.1438860e-16
vn 0.86136481 0.10360608 0.49730920
vn 0.86136481 0.10360608 0.49730920
vn 0.0000000e+0 1.00000000 1.1438860e-16
vn 0.70330142 0.10360608 0.70330142
vn 0.70330142 0.10360608 0.70330142
vn 0.0000000e+0 1.00000000 1.1438860e-16
vn 0.49730920 0.10360608 0.86136481
vn 0.49730920 0.10360608 0.86136481
vn 0.0000000e+0 1.00000000 1.1438860e-16
vn 0.25742619 0.10360608 0.96072761
vn 0.25742619 0.10360608 0.96072761
vn 0.0000000e+0 1.00000000 1.1438860e-16
vn 2.6592892e-16 0.10360608 0.99461841
vn 2.6592892e-16 0.10360608 0.99461841
vn 0.0000000e+0 1.00000000 1.1438860e-16
vn -0.25742619 0.10360608 0.96072761
vn -0.25742619 0.10360608 0.96072761
vn 0.0000000e+0 1.00000000 1.1438860e-16
vn -0.49730920 0.10360608 0.86136481
vn -0.49730920 0.10360608 0.86136481
vn 0.0000000e+0 1.00000000 1.1438860e-16
vn -0.70330142 0.10360608 0.70330142
vn -0.70330142 0.10360608 0.70330142
vn 0.0000000e+0 1.00000000 1.1438860e-16
vn -0.86136481 0.10360608 0.49730920
vn -0.86136481 0.10360608 0.49730920
vn 0.0000000e+0 1.00000000 1.1438860e-16
vn -0.96072761 0.10360608 0.25742619
vn -0.96072761 0.10360608 0.25742619
vn 0.0000000e+0 1.00000000 1.1438860e-16
vn -0.99461841 0.10360608 4.3388402e-16
vn -0.99461841 0.10360608 4.3388402e-16
vn 0.0000000e+0 1.00000000 1.1438860e-16
vn -0.96072761 0.10360608 -0.25742619
vn -0.96072761 0.10360608 -0.25742619
vn 0.0000000e+0 1.00000000 1.1438860e-16
vn -0.86136481 0.10360608 -0.49730920
vn -0.86136481 0.10360608 -0.49730920
vn 0.0000000e+0 1.00000000 1.1438860e-16
vn -0.70330142 0.10360608 -0.70330142
vn -0.70330142 0.10360608 -0.70330142
vn 0.0000000e+0 1.00000000 1.1438860e-16
vn -0.49730920 0.10360608 -0.86136481
vn -0.49730920 0.10360608 -0.86136481
vn 0.0000000e+0 1.00000000 1.1438860e-16
vn -0.25742619 0.10360608 -0.96072761
vn -0.25742619 0.10360608 -0.96072761
vn 0.0000000e+0 1.00000000 1.1438860e-16
vn -4.8986905e-16 0.10360608 -0.99461841
vn -4.8986905e-16 0.10360608 -0.99461841
vn 0.0000000e+0 1.00000000 1.1438860e-16
vn 0.25742619 0.10360608 -0.96072761
vn 0.25742619 0.10360608 -0.96072761
vn 0.0000000e+0 1.00000000 1.1438860e-16
vn 0.49730920 0.10360608 -0.86136481
vn 0.49730920 0.10360608 -0.86136481
vn 0.0000000e+0 1.00000000 1.1438860e-16
vn 0.70330142 0.10360608 -0.70330142
vn 0.70330142 0.10360608 -0.70330142
vn 0.0000000e+0 1.00000000 1.1438860e-16
vn 0.86136481 0.10360608 -0.49730920
vn 0.86136481 0.10360608 -0.49730920
vn 0.0000000e+0 1.00000000 1.1438860e-16
vn 0.96072761 0.10360608 -0.25742619
vn 0.96072761 0.10360608 -0.25742619
vn 0.0000000e+0 -1.00000000 4.0671501e-17
vn 0.99461841 0.10360608 -2.3793640e-16
vn 0.99461841 0.10360608 -2.3793640e-16
vn 0.0000000e+0 -1.00000000 4.0671501e-17
vn 0.96072761 0.10360608 0.25742619
vn 0.96072761 0.10360608 0.25742619
vn 0.0000000e+0 -1.00000000 4.0671501e-17
vn 0.86136481 0.10360608 0.49730920
vn 0.86136481 0.10360608 0.49730920
vn 0.0000000e+0 -1.00000000 4.0671501e-17
vn 0.70330142 0.10360608 0.70330142
vn 0.70330142 0.10360608 0.70330142
vn 0.0000000e+0 -1.00000000 4.0671501e-17
vn 0.49730920 0.10360608 0.86136481
vn 0.49730920 0.10360608 0.86136481
vn 0.0000000e+0 -1.00000000 4.0671501e-17
vn 0.25742619 0.10360608 0.96072761
vn 0.25742619 0.10360608 0.96072761
vn 0.0000000e+0 -1.00000000 4.0671501e-17
vn 2.6592892e-16 0.10360608 0.99461841
vn 2.6592892e-16 0.10360608 0.99461841
vn 0.0000000e+0 -1.00000000 4.0671501e-17
vn -0.25742619 0.10360608 0.96072761
vn -0.25742619 0.10360608 0.96072761
vn 0.0000000e+0 -1.00000000 4.0671501e-17
vn -0.49730920 0.10360608 0.86136481
vn -0.49730920 0.10360608 0.86136481
vn 0.0000000e+0 -1.00000000 4.0671501e-17
vn -0.70330142 0.10360608 0.70330142
vn -0.70330142 0.10360608 0.70330142
vn 0.0000000e+0 -1.00000000 4.0671501e-17
vn -0.86136481 0.10360608 0.49730920
vn -0.86136481 0.10360608 0.49730920
vn 0.0000000e+0 -1.00000000 4.0671501e-17
vn -0.96072761 0.10360608 0.25742619
vn -0.96072761 0.10360608 0.25742619
vn 0.0000000e+0 -1.00000000 4.0671501e-17
vn -0.99461841 0.10360608 4.3388402e-16
vn -0.99461841 0.10360608 4.3388402e-16
vn 0.0000000e+0 -1.00000000 4.0671501e-17
vn -0.96072761 0.10360608 -0.25742619
vn -0.96072761 0.10360608 -0.25742619
vn 0.0000000e+0 -1.00000000 4.0671501e-17
vn -0.86136481 0.10360608 -0.49730920
vn -0.86136481 0.10360608 -0.49730920
vn 0.0000000e+0 -1.00000000 4.0671501e-17
vn -0.70330142 0.10360608 -0.70330142
vn -0.70330142 0.10360608 -0.70330142
vn 0.0000000e+0 -1.00000000 4.0671501e-17
vn -0.49730920 0.10360608 -0.86136481
vn -0.49730920 0.10360608 -0.86136481
vn 0.0000000e+0 -1.00000000 4.0671501e-17
vn -0.25742619 0.10360608 -0.96072761
vn -0.25742619 0.10360608 -0.96072761
vn 0.0000000e+0 -1.00000000 4.0671501e-17
vn -4.8986905e-16 0.10360608 -0.99461841
vn -4.8986905e-16 0.10360608 -0.99461841
vn 0.0000000e+0 -1.00000000 4.0671501e-17
vn 0.25742619 0.10360608 -0.96072761
vn 0.25742619 0.10360608 -0.96072761
vn 0.0000000e+0 -1.00000000 4.0671501e-17
vn 0.49730920 0.10360608 -0.86136481
vn 0.49730920 0.10360608 -0.86136481
vn 0.0000000e+0 -1.00000000 4.0671501e-17
vn 0.70330142 0.10360608 -0.70330142
vn 0.70330142 0.10360608 -0.70330142
vn 0.0000000e+0 -1.00000000 4.0671501e-17
vn 0.86136481 0.10360608 -0.49730920
vn 0.86136481 0.10360608 -0.49730920
vn 0.0000000e+0 -1.00000000 4.0671501e-17
vn 0.96072761 0.10360608 -0.25742619
vn 0.96072761 0.10360608 -0.25742619
g tantares_lv_fuel_tank_s1p5_s1_3_default
usemtl default
s 1
f 1//1 24//70 23//67 22//64 21//61 20//58 19//55 18//52 17//49 16//46 15//43 14//40 13//37 12//34 11//31 10//28 9//25 8//22 7//19 6//16 5//13 4//10 3//7 2//4
f 26//76 27//79 28//82 29//85 30//88 31//91 32//94 33//97 34//100 35//103 36//106 37//109 38//112 39//115 40//118 41//121 42//124 43//127 44//130 45//133 46//136 47//139 48//142 25//73
s 2
f 1//2 25//74 48//143 24//71
f 2//6 26//78 25//75 1//3
f 3//9 27//81 26//77 2//5
f 4//12 28//84 27//80 3//8
f 5//15 29//87 28//83 4//11
f 6//18 30//90 29//86 5//14
f 7//21 31//93 30//89 6//17
f 8//24 32//96 31//92 7//20
f 9//27 33//99 32//95 8//23
f 10//30 34//102 33//98 9//26
f 11//33 35//105 34//101 10//29
f 12//36 36//108 35//104 11//32
f 13//39 37//111 36//107 12//35
f 14//42 38//114 37//110 13//38
f 15//45 39//117 38//113 14//41
f 16//48 40//120 39//116 15//44
f 17//51 41//123 40//119 16//47
f 18//54 42//126 41//122 17//50
f 19//57 43//129 42//125 18//53
f 20//60 44//132 43//128 19//56
f 21//63 45//135 44//131 20//59
f 22//66 46//138 45//134 21//62
f 23//69 47//141 46//137 22//65
f 24//72 48//144 47//140 23//68
