# Exported from Wings 3D 1.5.4
mtllib corvus_lv_engine_s1_2_vernier.mtl
o corvus_lv_engine_s1_2_vernier
#86 vertices, 100 faces
v -2.7575397e-17 -0.13750000 5.0000000e-2
v 1.3258252e-2 -1.3258250e-2 -3.7500000e-2
v 2.1218415e-2 -0.10300198 -3.6751370e-2
v 1.3453650e-2 -1.2786520e-2 6.0955500e-3
v -4.2436831e-2 -0.10300198 1.1102230e-16
v -2.1218415e-2 -0.10300198 -3.6751370e-2
v 3.7888612e-2 -0.13750000 2.1875000e-2
v -3.7888612e-2 -0.13750000 2.1875000e-2
v 4.3750000e-2 -0.13750000 1.1102230e-16
v -2.5000000e-2 -0.13750000 -4.3301270e-2
v 2.1875000e-2 -0.13750000 -3.7888608e-2
v 3.6751373e-2 -0.10300198 2.1218420e-2
v 3.7888612e-2 -0.13750000 -2.1875000e-2
v -3.2710259e-17 -2.1262020e-2 -2.8125000e-2
v -1.8750000e-2 0.0000000e+0 3.7500000e-2
v 3.2710259e-17 -1.8750000e-2 3.7500000e-2
v 1.8750000e-2 -3.7500000e-2 1.1102230e-16
v -2.1875000e-2 -0.13750000 -3.7888608e-2
v 5.0000000e-2 -0.13750000 1.1102230e-16
v -3.2020164e-2 -6.9668640e-2 1.1102230e-16
v -3.2710259e-17 -1.8750000e-2 -3.7500000e-2
v -1.3258252e-2 1.3258250e-2 -3.7500000e-2
v 2.7730275e-2 -6.9668640e-2 1.6010080e-2
v -3.2710259e-17 -3.7500000e-2 -1.8750000e-2
v -2.9248123e-17 -0.10300198 4.2436830e-2
v 1.3258252e-2 -3.7500000e-2 -1.3258250e-2
v -1.8750000e-2 0.0000000e+0 -3.7500000e-2
v -1.6010082e-2 -6.9668640e-2 -2.7730280e-2
v 1.8750000e-2 0.0000000e+0 -3.7500000e-2
v -2.1218415e-2 -0.10300198 3.6751370e-2
v -1.3258252e-2 -3.7500000e-2 1.3258250e-2
v -3.0660641e-17 -6.9668640e-2 3.2020160e-2
v -3.6207858e-17 -0.13750000 -5.0000000e-2
v -1.3258252e-2 -1.6506030e-2 -2.5379130e-2
v -2.5000000e-2 -0.13750000 4.3301270e-2
v -1.3258252e-2 -1.3258250e-2 3.7500000e-2
v 1.3258252e-2 1.3258250e-2 -3.7500000e-2
v 2.1875000e-2 -0.13750000 3.7888608e-2
v -1.8750000e-2 -5.0240500e-3 -1.8750000e-2
v -3.7888612e-2 -0.13750000 -2.1875000e-2
v -1.3375131e-2 -1.2976080e-2 6.2943300e-3
v 1.3258252e-2 -1.6506030e-2 -2.5379130e-2
v -3.6082155e-17 -0.10300198 -4.2436830e-2
v 2.5000000e-2 -0.13750000 -4.3301270e-2
v -4.2351420e-17 -0.13750000 -4.3750000e-2
v 1.6010082e-2 -6.9668640e-2 -2.7730280e-2
v 1.8750000e-2 -5.0240500e-3 -1.8750000e-2
v 1.3258252e-2 -2.5379130e-2 -1.6506030e-2
v 1.8750000e-2 0.0000000e+0 3.7500000e-2
v 1.3258252e-2 -1.3258250e-2 3.7500000e-2
v 2.1218415e-2 -0.10300198 3.6751370e-2
v 1.6010082e-2 -6.9668640e-2 2.7730280e-2
v 2.5000000e-2 -0.13750000 4.3301270e-2
v 4.3301270e-2 -0.13750000 -2.5000000e-2
v -4.3301270e-2 -0.13750000 -2.5000000e-2
v -3.4785513e-17 -6.9668640e-2 -3.2020160e-2
v -1.3258252e-2 1.3258250e-2 3.7500000e-2
v 1.8750000e-2 -1.8750000e-2 -5.0240500e-3
v 3.6751373e-2 -0.10300198 -2.1218420e-2
v -3.6751373e-2 -0.10300198 -2.1218420e-2
v -1.3258252e-2 -2.5379130e-2 -1.6506030e-2
v -1.8750000e-2 -3.7500000e-2 1.1102230e-16
v -4.3750000e-2 -0.13750000 1.1102230e-16
v 1.3258252e-2 1.3258250e-2 3.7500000e-2
v 4.2436831e-2 -0.10300198 1.1102230e-16
v -3.2710259e-17 -2.8125000e-2 -2.1262020e-2
v -1.3258252e-2 -1.3258250e-2 -3.7500000e-2
v -1.3258252e-2 -3.7500000e-2 -1.3258250e-2
v -3.6751373e-2 -0.10300198 2.1218420e-2
v 3.2020164e-2 -6.9668640e-2 1.1102230e-16
v -1.8750000e-2 -1.8750000e-2 -5.0240500e-3
v -4.3301270e-2 -0.13750000 2.5000000e-2
v -2.2618322e-17 -1.8750000e-2 1.3725950e-2
v 4.3301270e-2 -0.13750000 2.5000000e-2
v 1.3258252e-2 -3.7500000e-2 1.3258250e-2
v -3.2710259e-17 -3.7500000e-2 1.8750000e-2
v -2.7730275e-2 -6.9668640e-2 -1.6010080e-2
v 2.7730275e-2 -6.9668640e-2 -1.6010080e-2
v 3.2710259e-17 1.8750000e-2 3.7500000e-2
v -5.0000000e-2 -0.13750000 1.1102230e-16
v -2.7730275e-2 -6.9668640e-2 1.6010080e-2
v -3.4798017e-17 -0.13750000 4.3750000e-2
v -3.2710259e-17 1.8750000e-2 -3.7500000e-2
v -1.6010082e-2 -6.9668640e-2 2.7730280e-2
v -3.6205854e-17 -8.0357143e-2 1.1102230e-16
v -2.1875000e-2 -0.13750000 3.7888608e-2
vt 0.25647939 0.26419169
vt 0.25659140 0.32062591
vt 0.25895465 0.26419169
vt 0.25913237 0.25429065
vt 0.25913237 0.27409274
vt 0.25924438 0.32062591
vt 0.25958673 0.33406160
vt 0.26127600 0.25552828
vt 0.26127600 0.27285511
vt 0.26154192 0.36852619
vt 0.26154192 0.36852619
vt 0.26154192 0.36886828
vt 0.26154192 0.37312168
vt 0.26154192 0.37879483
vt 0.26154192 0.38256446
vt 0.26154192 0.38256446
vt 0.26183841 0.33406160
vt 0.26371217 0.34725793
vt 0.26371217 0.34725793
vt 0.26525482 0.36758581
vt 0.26525482 0.36758581
vt 0.26541114 0.34725793
vt 0.26541114 0.34725793
vt 0.26634230 0.36765246
vt 0.26634230 0.36765246
vt 0.26638043 0.24704258
vt 0.26638043 0.28134081
vt 0.26649245 0.32062591
vt 0.26761806 0.24918622
vt 0.26761806 0.27919717
vt 0.26797284 0.36501663
vt 0.26799011 0.33406160
vt 0.26896771 0.36033682
vt 0.26896771 0.37124091
vt 0.26896771 0.37124091
vt 0.26985641 0.36433078
vt 0.27005283 0.34725793
vt 0.27005283 0.34725793
vt 0.27114267 0.36033682
vt 0.27440376 0.36610255
vt 0.27628148 0.24438960
vt 0.27628148 0.24686486
vt 0.27628148 0.26419169
vt 0.27628148 0.28151852
vt 0.27628148 0.28399378
vt 0.27639349 0.32062591
vt 0.27639349 0.33406160
vt 0.27639349 0.34725793
vt 0.27639349 0.34725793
vt 0.27639349 0.36033682
vt 0.27880759 0.36901961
vt 0.27888631 0.36895880
vt 0.28164431 0.36033682
vt 0.28182954 0.36852619
vt 0.28182954 0.36852619
vt 0.28273415 0.34725793
vt 0.28273415 0.34725793
vt 0.28381928 0.36033682
vt 0.28479687 0.33406160
vt 0.28494489 0.24918622
vt 0.28494489 0.27919717
vt 0.28618252 0.24704258
vt 0.28618252 0.28134081
vt 0.28629454 0.32062591
vt 0.28737584 0.34725793
vt 0.28737584 0.34725793
vt 0.28907481 0.34725793
vt 0.28907481 0.34725793
vt 0.29094857 0.33406160
vt 0.29124506 0.36852619
vt 0.29124506 0.36852619
vt 0.29124506 0.36886828
vt 0.29124506 0.37312168
vt 0.29124506 0.37879483
vt 0.29124506 0.38256446
vt 0.29124506 0.38256446
vt 0.29128695 0.25552828
vt 0.29128695 0.27285511
vt 0.29320025 0.33406160
vt 0.29320025 0.33406160
vt 0.29343059 0.25429065
vt 0.29343059 0.27409274
vt 0.29354261 0.32062591
vt 0.29360831 0.26419169
vt 0.29608357 0.26419169
vt 0.29619558 0.32062591
vn 0.69838678 -0.69133296 -0.18524212
vn 0.48327401 0.25648539 -0.83705524
vn -0.96654811 0.25648540 8.1786154e-16
vn -0.48327401 0.25648539 -0.83705524
vn 0.83705520 0.25648539 0.48327408
vn -1.1760721e-15 -0.86602541 -0.49999999
vn -0.99222546 -0.12395992 1.1071662e-2
vn 2.1261185e-3 -0.99998186 -5.6352293e-3
vn 0.95960236 0.28135973 1.2819872e-4
vn -0.94035965 0.34018190 1.1173341e-15
vn -1.1061037e-15 -0.96592584 -0.25881900
vn -0.70710681 0.70710675 9.1997597e-17
vn 0.82252642 0.35161038 0.44701278
vn -9.2805291e-16 0.20024385 -0.97974609
vn -4.7349878e-16 0.25648539 0.96654811
vn 0.69649275 0.18387438 -0.69360512
vn -0.99935668 7.0168503e-4 -3.5857006e-2
vn -0.44701276 0.35161041 -0.82252642
vn 0.99935668 7.0168503e-4 -3.5857006e-2
vn -0.48327401 0.25648539 0.83705524
vn -0.62641232 0.31353966 0.71365292
vn -5.7299179e-16 0.34018180 0.94035969
vn -0.71068666 -0.60925639 -0.35175435
vn -0.70938845 -0.70481457 -2.1092284e-3
vn 0.70710681 0.70710675 -8.8590278e-17
vn 0.71068666 -0.60925639 -0.35175435
vn -5.3806679e-16 0.25648539 -0.96654811
vn 0.44701276 0.35161041 -0.82252642
vn 0.71068666 -0.35175435 -0.60925639
vn 0.99215042 -0.12455436 1.1124760e-2
vn 0.71088653 -0.70329804 -3.4952128e-3
vn 0.48327401 0.25648539 0.83705524
vn 0.44701276 0.35161041 0.82252642
vn -6.1596618e-16 0.34018180 -0.94035969
vn -0.70710681 0.70710675 9.1997597e-17
vn 0.99999732 1.6510945e-3 1.6252709e-3
vn 0.83705520 0.25648539 -0.48327408
vn -0.83705520 0.25648539 -0.48327408
vn -0.71068666 -0.35175435 -0.60925639
vn -0.95957544 0.28145147 2.0524534e-4
vn 0.70710681 0.70710675 -8.8590278e-17
vn 0.96654811 0.25648540 8.0351309e-16
vn -1.1760721e-15 -0.49999999 -0.86602541
vn -0.69838678 -0.69133296 -0.18524212
vn -0.69649275 0.18387438 -0.69360512
vn -0.83705520 0.25648539 0.48327408
vn 0.94035965 0.34018190 1.1388213e-15
vn -0.99999278 2.7073109e-3 2.6658817e-3
vn 0.62707013 0.31393462 0.71290119
vn -8.4914573e-16 0.36061185 0.93271598
vn -0.82252642 0.35161038 -0.44701278
vn 0.82252642 0.35161038 -0.44701278
vn -2.7038178e-16 1.00000000 3.4073187e-18
vn -0.82252642 0.35161038 0.44701278
vn -2.7038178e-16 1.00000000 3.4073187e-18
vn -0.44701276 0.35161041 0.82252642
vn 4.5123244e-16 -1.00000000 -3.5787401e-16
vn -4.3035774e-16 0.21414890 0.97680103
vn 0.0000000e+0 -1.00000000 0.0000000e+0
vn -4.3035774e-16 0.21414890 0.97680103
vn 0.0000000e+0 -1.00000000 0.0000000e+0
vn 0.79836774 0.22981410 0.55659179
vn 0.79836774 0.22981410 0.55659179
vn 0.77882031 -0.62712210 1.2521545e-2
vn 0.77882031 -0.62712210 1.2521545e-2
vn 0.79836774 0.22981410 0.55659179
vn 0.77882031 -0.62712210 1.2521545e-2
vn 0.0000000e+0 -1.00000000 0.0000000e+0
vn -0.68762896 -0.60791051 -0.39700281
vn 0.0000000e+0 -1.00000000 0.0000000e+0
vn -0.68762896 -0.60791051 -0.39700281
vn 0.0000000e+0 -1.00000000 0.0000000e+0
vn 0.0000000e+0 -1.00000000 0.0000000e+0
vn 0.68762896 -0.60791051 -0.39700281
vn 0.68762896 -0.60791051 -0.39700281
vn -0.79400555 -0.60791050 -1.0499411e-15
vn 0.0000000e+0 -1.00000000 0.0000000e+0
vn -0.79400555 -0.60791050 -1.0499411e-15
vn 0.0000000e+0 -1.00000000 0.0000000e+0
vn -0.48840050 0.21414886 -0.84593453
vn 0.0000000e+0 -1.00000000 0.0000000e+0
vn -0.48840050 0.21414886 -0.84593453
vn 0.0000000e+0 -1.00000000 0.0000000e+0
vn 0.0000000e+0 -1.00000000 0.0000000e+0
vn 0.0000000e+0 -1.00000000 0.0000000e+0
vn -0.39700279 -0.60791048 0.68762899
vn -0.39700279 -0.60791048 0.68762899
vn -0.68762896 -0.60791051 0.39700281
vn 0.0000000e+0 -1.00000000 0.0000000e+0
vn 0.0000000e+0 -1.00000000 0.0000000e+0
vn -0.68762896 -0.60791051 0.39700281
vn 0.0000000e+0 -1.00000000 0.0000000e+0
vn 0.0000000e+0 -1.00000000 0.0000000e+0
vn 0.39700279 -0.60791048 0.68762899
vn 0.39700279 -0.60791048 0.68762899
vn 0.0000000e+0 -1.00000000 0.0000000e+0
vn 0.97680104 0.21414882 5.7381031e-16
vn 0.0000000e+0 -1.00000000 0.0000000e+0
vn 0.97680104 0.21414882 5.7381031e-16
vn -4.8773877e-16 0.21414890 -0.97680103
vn -4.8773877e-16 0.21414890 -0.97680103
vn 0.0000000e+0 -1.00000000 0.0000000e+0
vn 0.0000000e+0 -1.00000000 0.0000000e+0
vn 0.0000000e+0 -1.00000000 0.0000000e+0
vn -0.48840050 0.21414886 0.84593453
vn -0.48840050 0.21414886 0.84593453
vn 0.0000000e+0 -1.00000000 0.0000000e+0
vn 0.0000000e+0 -1.00000000 0.0000000e+0
vn 0.0000000e+0 -1.00000000 0.0000000e+0
vn -0.39700279 -0.60791048 -0.68762899
vn -0.39700279 -0.60791048 -0.68762899
vn -0.98398240 -0.17792727 -1.0978655e-2
vn -0.98398240 -0.17792727 -1.0978655e-2
vn -0.98398240 -0.17792727 -1.0978655e-2
vn -0.98398240 -0.17792727 -1.0978655e-2
vn -0.98398240 -0.17792727 -1.0978655e-2
vn 0.0000000e+0 -1.00000000 0.0000000e+0
vn 0.68762896 -0.60791051 0.39700281
vn 0.0000000e+0 -1.00000000 0.0000000e+0
vn 0.68762896 -0.60791051 0.39700281
vn -0.77850252 -0.62749894 1.3375878e-2
vn -0.79638644 0.23019583 0.55926605
vn -0.77850252 -0.62749894 1.3375878e-2
vn -0.79638644 0.23019583 0.55926605
vn -0.79638644 0.23019583 0.55926605
vn -0.77850252 -0.62749894 1.3375878e-2
vn 0.48840050 0.21414886 -0.84593453
vn 0.48840050 0.21414886 -0.84593453
vn 0.0000000e+0 -1.00000000 0.0000000e+0
vn 0.0000000e+0 -1.00000000 0.0000000e+0
vn 0.0000000e+0 -1.00000000 0.0000000e+0
vn 0.0000000e+0 -1.00000000 0.0000000e+0
vn 4.5402860e-16 -0.60791050 0.79400555
vn 4.5402860e-16 -0.60791050 0.79400555
vn 0.98377590 -0.17902289 -1.1652678e-2
vn 0.98377590 -0.17902289 -1.1652678e-2
vn 0.98377590 -0.17902289 -1.1652678e-2
vn 0.98377590 -0.17902289 -1.1652678e-2
vn 0.98377590 -0.17902289 -1.1652678e-2
vn 0.48840050 0.21414886 0.84593453
vn 0.0000000e+0 -1.00000000 0.0000000e+0
vn 0.0000000e+0 -1.00000000 0.0000000e+0
vn 0.48840050 0.21414886 0.84593453
vn 0.84593449 0.21414883 -0.48840057
vn 0.0000000e+0 -1.00000000 0.0000000e+0
vn 0.0000000e+0 -1.00000000 0.0000000e+0
vn 0.84593449 0.21414883 -0.48840057
vn -0.84593449 0.21414883 -0.48840057
vn 0.0000000e+0 -1.00000000 0.0000000e+0
vn 0.0000000e+0 -1.00000000 0.0000000e+0
vn -0.84593449 0.21414883 -0.48840057
vn 0.0000000e+0 -1.00000000 0.0000000e+0
vn 0.0000000e+0 -1.00000000 0.0000000e+0
vn 0.79400555 -0.60791050 -1.0215643e-15
vn 0.79400555 -0.60791050 -1.0215643e-15
vn -0.84593449 0.21414883 0.48840057
vn 0.0000000e+0 -1.00000000 0.0000000e+0
vn 0.0000000e+0 -1.00000000 0.0000000e+0
vn -0.84593449 0.21414883 0.48840057
vn 1.1780915e-3 0.26604212 0.96396068
vn 2.1261185e-3 -0.99998186 -5.6352293e-3
vn 1.1780915e-3 0.26604212 0.96396068
vn 1.1780915e-3 0.26604212 0.96396068
vn 2.1261185e-3 -0.99998186 -5.6352293e-3
vn 1.1780915e-3 0.26604212 0.96396068
vn 0.0000000e+0 -1.00000000 0.0000000e+0
vn 0.0000000e+0 -1.00000000 0.0000000e+0
vn 0.84593449 0.21414883 0.48840057
vn 0.84593449 0.21414883 0.48840057
vn -0.97680104 0.21414882 5.7381031e-16
vn 0.0000000e+0 -1.00000000 0.0000000e+0
vn 0.0000000e+0 -1.00000000 0.0000000e+0
vn -0.97680104 0.21414882 5.7381031e-16
vn 0.0000000e+0 -1.00000000 0.0000000e+0
vn 0.0000000e+0 -1.00000000 0.0000000e+0
vn 4.2565181e-16 -0.60791050 -0.79400555
vn 4.2565181e-16 -0.60791050 -0.79400555
vn 0.0000000e+0 -1.00000000 0.0000000e+0
vn 0.0000000e+0 -1.00000000 0.0000000e+0
vn 0.39700279 -0.60791048 -0.68762899
vn 0.39700279 -0.60791048 -0.68762899
g corvus_lv_engine_s1_2_vernier_corvus_lv_engine_s1_2_vernier_auv
usemtl corvus_lv_engine_s1_2_vernier_auv
s 1
f 1/86/58 53/83/140 51/69/32 25/80/15
f 2/12/1 42/24/26 14/20/6 21/10/11
f 3/17/2 44/6/127 33/2/100 43/7/27
f 3/17/2 59/32/37 54/28/144 44/6/128
f 4/51/67 47/34/139 49/73/30
f 4/51/63 75/53/49 17/50/9 58/40/36
f 5/47/3 69/59/46 81/57/54 20/49/10
f 5/47/3 80/46/170 72/64/156 69/59/46
f 6/17/4 43/7/27 33/2/101 10/6/80
f 6/17/4 60/32/38 77/38/51 28/23/18
f 7/8/69 85/43/57 9/3/76
f 9/3/78 85/43/57 13/9/88
f 10/6/82 55/28/148 60/32/38 6/17/4
f 11/30/86 85/43/57 45/44/133
f 12/59/5 65/47/42 70/48/47 23/56/13
f 12/59/5 74/64/168 19/46/97 65/47/42
f 13/9/91 85/43/57 11/30/87
f 14/21/6 34/25/23 67/12/44 21/11/11
f 14/21/6 66/31/43 61/36/39 34/25/23
f 15/73/7 39/35/116 41/52/126
f 15/73/7 41/52/121 36/72/24
f 15/73/7 57/74/35 22/14/12 27/13/17
f 17/50/9 75/53/49 23/56/13
f 17/50/9 78/37/52 26/39/16
f 18/61/94 85/43/57 40/78/118
f 20/49/10 77/38/51 60/32/38 5/47/3
f 20/49/10 81/57/54 62/50/40
f 23/56/13 52/65/33 51/69/32 12/59/5
f 23/56/13 70/48/47 17/50/9
f 23/56/13 75/53/49 52/65/33
f 24/33/14 56/19/34 28/23/18
f 24/33/14 66/31/43 48/36/29 26/39/16
f 24/33/14 68/39/45 61/36/39 66/31/43
f 25/79/15 30/69/20 35/83/105 1/86/60
f 25/79/15 32/68/22 84/66/56 30/69/20
f 25/80/15 51/69/32 52/65/33 32/67/22
f 26/39/16 46/22/28 24/33/14
f 26/39/16 48/36/29 58/40/36 17/50/9
f 26/39/16 78/37/52 46/22/28
f 27/13/17 39/35/114 15/73/7
f 27/13/17 67/12/44 34/25/23 39/35/112
f 28/23/18 56/19/34 43/7/27 6/17/4
f 28/23/18 68/39/45 24/33/14
f 28/23/18 77/38/51 68/39/45
f 29/13/19 47/34/135 42/24/26 2/12/1
f 29/13/19 49/73/30 47/34/136
f 30/69/20 69/59/46 72/64/159 35/83/106
f 30/69/20 84/66/56 81/57/54 69/59/46
f 31/53/21 73/55/162 41/52/122
f 31/53/21 76/58/50 73/55/163
f 31/53/21 84/66/56 76/58/50
f 34/25/23 61/36/39 71/40/48 39/35/113
f 36/72/24 41/52/123 73/55/164 16/71/8
f 37/14/25 64/74/41 49/73/30 29/13/19
f 37/14/25 83/15/55 79/75/53 64/74/41
f 38/29/110 85/43/57 7/8/71
f 40/78/120 85/43/57 63/84/154
f 41/52/124 71/40/48 62/50/40 31/53/21
f 42/24/26 48/36/29 66/31/43 14/20/6
f 43/7/27 56/18/34 46/22/28 3/17/2
f 45/44/134 85/43/57 18/61/95
f 46/22/28 56/18/34 24/33/14
f 46/22/28 78/37/52 59/32/37 3/17/2
f 47/34/137 58/40/36 48/36/29 42/24/26
f 49/73/30 50/72/31 4/51/65
f 50/72/31 16/70/8 73/54/161 4/51/64
f 51/69/32 53/83/143 74/64/169 12/59/5
f 52/65/33 76/58/50 32/67/22
f 54/28/147 59/32/37 65/47/42 19/46/99
f 57/74/35 79/76/53 83/16/55 22/14/12
f 58/40/36 47/34/138 4/51/66
f 59/32/37 78/37/52 70/48/47 65/47/42
f 60/32/38 55/28/151 80/46/173 5/47/3
f 62/50/40 77/38/51 20/49/10
f 62/50/40 81/57/54 31/53/21
f 63/84/155 85/43/57 8/77/74
f 68/39/45 62/50/40 71/40/48 61/36/39
f 68/39/45 77/38/51 62/50/40
f 70/48/47 78/37/52 17/50/9
f 71/40/48 41/52/125 39/35/115
f 73/54/160 75/53/49 4/51/62
f 73/54/165 76/58/50 75/53/49
f 75/53/49 76/58/50 52/65/33
f 76/58/50 84/66/56 32/68/22
f 81/57/54 84/66/56 31/53/21
f 82/42/176 85/43/57 38/29/111
f 82/42/177 86/60/180 85/43/57
f 85/43/57 86/60/181 8/77/75
s 2
f 1/41/59 82/42/174 38/29/108 53/26/141
f 7/8/68 74/4/166 53/26/142 38/29/109
f 8/77/72 72/81/157 80/85/171 63/84/152
f 8/77/73 86/60/178 35/62/104 72/81/158
f 9/3/77 19/1/96 74/4/167 7/8/70
f 10/63/81 33/45/102 45/44/131 18/61/92
f 11/30/84 44/27/129 54/5/145 13/9/89
f 11/30/85 45/44/132 33/45/103 44/27/130
f 13/9/90 54/5/146 19/1/98 9/3/79
f 18/61/93 40/78/117 55/82/149 10/63/83
f 35/62/107 86/60/179 82/42/175 1/41/61
f 40/78/119 63/84/153 80/85/172 55/82/150
