# Exported from Wings 3D 1.5.4
mtllib tantares_lv_engine_s1p5_2_vernier.mtl
o tantares_lv_engine_s1p5_2_vernier
#129 vertices, 128 faces
v 3.2500000e-2 -0.13750000 -3.9289303e-17
v 3.0026085e-2 -0.13750000 1.2437212e-2
v 2.2980970e-2 -0.13750000 2.2980970e-2
v 1.2437212e-2 -0.13750000 3.0026085e-2
v -4.4068096e-17 -0.13750000 3.2500000e-2
v -1.2437212e-2 -0.13750000 3.0026085e-2
v -2.2980970e-2 -0.13750000 2.2980970e-2
v -3.0026085e-2 -0.13750000 1.2437212e-2
v -3.2500000e-2 -0.13750000 -3.5309200e-17
v -3.0026085e-2 -0.13750000 -1.2437212e-2
v -2.2980970e-2 -0.13750000 -2.2980970e-2
v -1.2437212e-2 -0.13750000 -3.0026085e-2
v -5.2028301e-17 -0.13750000 -3.2500000e-2
v 1.2437212e-2 -0.13750000 -3.0026085e-2
v 2.2980970e-2 -0.13750000 -2.2980970e-2
v 3.0026085e-2 -0.13750000 -1.2437212e-2
v 8.7500000e-2 -0.38750000 -3.9573379e-17
v 8.0839459e-2 -0.38750000 3.3484800e-2
v 6.1871843e-2 -0.38750000 6.1871843e-2
v 3.3484800e-2 -0.38750000 8.0839459e-2
v -3.8964355e-17 -0.38750000 8.7500000e-2
v -3.3484800e-2 -0.38750000 8.0839459e-2
v -6.1871843e-2 -0.38750000 6.1871843e-2
v -8.0839459e-2 -0.38750000 3.3484800e-2
v -8.7500000e-2 -0.38750000 -2.8857720e-17
v -8.0839459e-2 -0.38750000 -3.3484800e-2
v -6.1871843e-2 -0.38750000 -6.1871843e-2
v -3.3484800e-2 -0.38750000 -8.0839459e-2
v -6.0395674e-17 -0.38750000 -8.7500000e-2
v 3.3484800e-2 -0.38750000 -8.0839459e-2
v 6.1871843e-2 -0.38750000 -6.1871843e-2
v 8.0839459e-2 -0.38750000 -3.3484800e-2
v 4.6193977e-2 -6.2500000e-2 1.9134172e-2
v 5.0000000e-2 -6.2500000e-2 -3.9339279e-17
v 4.6193977e-2 -6.2500000e-2 -1.9134172e-2
v 3.5355339e-2 -6.2500000e-2 -3.5355339e-2
v 1.9134172e-2 -6.2500000e-2 -4.6193977e-2
v -5.3900367e-17 -6.2500000e-2 -5.0000000e-2
v -1.9134172e-2 -6.2500000e-2 -4.6193977e-2
v -3.5355339e-2 -6.2500000e-2 -3.5355339e-2
v -4.6193977e-2 -6.2500000e-2 -1.9134172e-2
v -5.0000000e-2 -6.2500000e-2 -3.3216045e-17
v -4.6193977e-2 -6.2500000e-2 1.9134172e-2
v -3.5355339e-2 -6.2500000e-2 3.5355339e-2
v -1.9134172e-2 -6.2500000e-2 4.6193977e-2
v -4.1653899e-17 -6.2500000e-2 5.0000000e-2
v 1.9134172e-2 -6.2500000e-2 4.6193977e-2
v 3.5355339e-2 -6.2500000e-2 3.5355339e-2
v 2.6516504e-2 -0.11250000 2.6516504e-2
v 1.4350629e-2 -0.11250000 3.4645482e-2
v -4.3374061e-17 -0.11250000 3.7500000e-2
v -1.4350629e-2 -0.11250000 3.4645482e-2
v -2.6516504e-2 -0.11250000 2.6516504e-2
v -3.4645482e-2 -0.11250000 1.4350629e-2
v -3.7500000e-2 -0.11250000 -3.4702850e-17
v -3.4645482e-2 -0.11250000 -1.4350629e-2
v -2.6516504e-2 -0.11250000 -2.6516504e-2
v -1.4350629e-2 -0.11250000 -3.4645482e-2
v -5.2558912e-17 -0.11250000 -3.7500000e-2
v 1.4350629e-2 -0.11250000 -3.4645482e-2
v 2.6516504e-2 -0.11250000 -2.6516504e-2
v 3.4645482e-2 -0.11250000 -1.4350629e-2
v 3.7500000e-2 -0.11250000 -3.9295276e-17
v 3.4645482e-2 -0.11250000 1.4350629e-2
v 4.2729428e-2 -8.7500000e-2 1.7699109e-2
v 4.6250000e-2 -8.7500000e-2 -3.9187460e-17
v 4.2729428e-2 -8.7500000e-2 -1.7699109e-2
v 3.2703689e-2 -8.7500000e-2 -3.2703689e-2
v 1.7699109e-2 -8.7500000e-2 -4.2729428e-2
v -5.3366021e-17 -8.7500000e-2 -4.6250000e-2
v -1.7699109e-2 -8.7500000e-2 -4.2729428e-2
v -3.2703689e-2 -8.7500000e-2 -3.2703689e-2
v -4.2729428e-2 -8.7500000e-2 -1.7699109e-2
v -4.6250000e-2 -8.7500000e-2 -3.3523468e-17
v -4.2729428e-2 -8.7500000e-2 1.7699109e-2
v -3.2703689e-2 -8.7500000e-2 3.2703689e-2
v -1.7699109e-2 -8.7500000e-2 4.2729428e-2
v -4.2038038e-17 -8.7500000e-2 4.6250000e-2
v 1.7699109e-2 -8.7500000e-2 4.2729428e-2
v 3.2703689e-2 -8.7500000e-2 3.2703689e-2
v 6.8330382e-2 -0.30311207 -2.8303371e-2
v 5.2297810e-2 -0.30311207 -5.2297810e-2
v 2.8303371e-2 -0.30311207 -6.8330382e-2
v -5.9063717e-17 -0.30311207 -7.3960272e-2
v -2.8303371e-2 -0.30311207 -6.8330382e-2
v -5.2297810e-2 -0.30311207 -5.2297810e-2
v -6.8330382e-2 -0.30311207 -2.8303371e-2
v -7.3960272e-2 -0.30311207 -2.9759212e-17
v -6.8330382e-2 -0.30311207 2.8303371e-2
v -5.2297810e-2 -0.30311207 5.2297810e-2
v -2.8303371e-2 -0.30311207 6.8330382e-2
v -4.0665602e-17 -0.30311207 7.3960272e-2
v 2.8303371e-2 -0.30311207 6.8330382e-2
v 5.2297810e-2 -0.30311207 5.2297810e-2
v 6.8330382e-2 -0.30311207 2.8303371e-2
v 7.3960272e-2 -0.30311207 -3.9964410e-17
v 5.1392591e-2 -0.21977874 -2.1287508e-2
v 3.9334186e-2 -0.21977874 -3.9334186e-2
v 2.1287508e-2 -0.21977874 -5.1392591e-2
v -5.6621537e-17 -0.21977874 -5.5626939e-2
v -2.1287508e-2 -0.21977874 -5.1392591e-2
v -3.9334186e-2 -0.21977874 -3.9334186e-2
v -5.1392591e-2 -0.21977874 -2.1287508e-2
v -5.5626939e-2 -0.21977874 -3.1562761e-17
v -5.1392591e-2 -0.21977874 2.1287508e-2
v -3.9334186e-2 -0.21977874 3.9334186e-2
v -2.1287508e-2 -0.21977874 5.1392591e-2
v -4.2436238e-17 -0.21977874 5.5626939e-2
v 2.1287508e-2 -0.21977874 5.1392591e-2
v 3.9334186e-2 -0.21977874 3.9334186e-2
v 5.1392591e-2 -0.21977874 2.1287508e-2
v 5.5626939e-2 -0.21977874 -4.0008495e-17
v 7.5000000e-2 -0.38750000 -3.9477544e-17
v 6.9290965e-2 -0.38750000 2.8701257e-2
v 5.3033009e-2 -0.38750000 5.3033009e-2
v 2.8701257e-2 -0.38750000 6.9290965e-2
v -4.0089095e-17 -0.38750000 7.5000000e-2
v -2.8701257e-2 -0.38750000 6.9290965e-2
v -5.3033009e-2 -0.38750000 5.3033009e-2
v -6.9290965e-2 -0.38750000 2.8701257e-2
v -7.5000000e-2 -0.38750000 -3.0292693e-17
v -6.9290965e-2 -0.38750000 -2.8701257e-2
v -5.3033009e-2 -0.38750000 -5.3033009e-2
v -2.8701257e-2 -0.38750000 -6.9290965e-2
v -5.8458797e-17 -0.38750000 -7.5000000e-2
v 2.8701257e-2 -0.38750000 -6.9290965e-2
v 5.3033009e-2 -0.38750000 -5.3033009e-2
v 6.9290965e-2 -0.38750000 -2.8701257e-2
v -4.2500725e-17 -0.26250000 -2.9273459e-17
vt 3.7294434e-2 0.29252228
vt 3.7500000e-2 9.2601122e-2
vt 3.9872987e-2 0.27955902
vt 3.9872987e-2 0.30548553
vt 4.1206477e-2 0.12556418
vt 4.1206477e-2 0.12556418
vt 4.2133666e-2 0.29252228
vt 4.4343854e-2 0.28141091
vt 4.4343854e-2 0.30363364
vt 4.6225196e-2 0.15829546
vt 4.7216082e-2 0.26856930
vt 4.7216082e-2 0.31647525
vt 4.7765561e-2 0.21901884
vt 4.8489719e-2 9.2601122e-2
vt 4.8489719e-2 9.2601122e-2
vt 4.8792117e-2 0.20953525
vt 4.8792117e-2 0.20953525
vt 5.0495650e-2 0.12556418
vt 5.0637935e-2 0.27199115
vt 5.0637935e-2 0.31305340
vt 5.1187415e-2 0.20023317
vt 5.1187415e-2 0.20023317
vt 5.2556156e-2 0.19079496
vt 5.2556156e-2 0.19079496
vt 5.3211761e-2 0.15829546
vt 5.4045400e-2 0.21901884
vt 5.4045400e-2 0.21901884
vt 5.4600968e-2 0.20953525
vt 5.4600968e-2 0.20953525
vt 5.5897294e-2 0.20023317
vt 5.5897294e-2 0.20023317
vt 5.6638052e-2 0.19079496
vt 5.6638052e-2 0.19079496
vt 5.8205800e-2 0.26122621
vt 5.8205800e-2 0.32381835
vt 6.0057694e-2 0.26569707
vt 6.0057694e-2 0.31934748
vt 6.1452976e-2 9.2601122e-2
vt 6.1452976e-2 0.12556418
vt 6.1452976e-2 0.15829546
vt 6.1452976e-2 0.19079496
vt 6.1452976e-2 0.20023317
vt 6.1452976e-2 0.20953525
vt 6.1452976e-2 0.21901884
vt 6.1452976e-2 9.2601122e-2
vt 6.1452976e-2 0.12556418
vt 6.1452976e-2 0.15829546
vt 6.1452976e-2 0.19079496
vt 6.1452976e-2 0.20023317
vt 6.1452976e-2 0.20953525
vt 6.1452976e-2 0.21901884
vt 6.6267900e-2 0.19079496
vt 6.6267900e-2 0.19079496
vt 6.7008657e-2 0.20023317
vt 6.7008657e-2 0.20023317
vt 6.8304983e-2 0.20953525
vt 6.8304983e-2 0.20953525
vt 6.8860551e-2 0.21901884
vt 6.8860551e-2 0.21901884
vt 6.9694190e-2 0.15829546
vt 6.9694190e-2 0.15829546
vt 7.0349795e-2 0.19079496
vt 7.0349795e-2 0.19079496
vt 7.1169057e-2 0.25864765
vt 7.1169057e-2 0.26348689
vt 7.1169057e-2 0.29252228
vt 7.1169057e-2 0.32155767
vt 7.1169057e-2 0.32639690
vt 7.1718536e-2 0.20023317
vt 7.1718536e-2 0.20023317
vt 7.2410301e-2 0.12556418
vt 7.2410301e-2 0.12556418
vt 7.4113834e-2 0.20953525
vt 7.4113834e-2 0.20953525
vt 7.4416232e-2 9.2601122e-2
vt 7.4416232e-2 9.2601122e-2
vt 7.5140390e-2 0.21901884
vt 7.5140390e-2 0.21901884
vt 7.6680755e-2 0.15829546
vt 7.6680755e-2 0.15829546
vt 8.1699474e-2 0.12556418
vt 8.1699474e-2 0.12556418
vt 8.2280420e-2 0.26569707
vt 8.2280420e-2 0.31934748
vt 8.4132314e-2 0.26122621
vt 8.4132314e-2 0.32381835
vt 8.5405951e-2 9.2601122e-2
vt 8.5405951e-2 9.2601122e-2
vt 9.1700179e-2 0.27199115
vt 9.1700179e-2 0.31305340
vt 9.5122033e-2 0.26856930
vt 9.5122033e-2 0.31647525
vt 9.7994261e-2 0.28141091
vt 9.7994261e-2 0.30363364
vt 0.10020445 0.29252228
vt 0.10246513 0.27955902
vt 0.10246513 0.30548553
vt 0.10504368 0.29252228
vt 0.12134044 9.2601122e-2
vt 0.12134044 9.2601122e-2
vt 0.12504691 0.12556418
vt 0.12504691 0.12556418
vt 0.13006563 0.15829546
vt 0.13160600 0.21901884
vt 0.13160600 0.21901884
vt 0.13233016 9.2601122e-2
vt 0.13233016 9.2601122e-2
vt 0.13263255 0.20953525
vt 0.13433609 0.12556418
vt 0.13502785 0.20023317
vt 0.13639659 0.19079496
vt 0.13639659 0.19079496
vt 0.13705220 0.15829546
vt 0.13788584 0.21901884
vt 0.13788584 0.21901884
vt 0.13844141 0.20953525
vt 0.13844141 0.20953525
vt 0.13973773 0.20023317
vt 0.13973773 0.20023317
vt 0.14047849 0.19079496
vt 0.14047849 0.19079496
vt 0.14529341 9.2601122e-2
vt 0.14529341 9.2601122e-2
vt 0.14529341 0.12556418
vt 0.14529341 0.15829546
vt 0.14529341 0.19079496
vt 0.14529341 0.19079496
vt 0.14529341 0.20023317
vt 0.14529341 0.20953525
vt 0.14529341 0.21901884
vt 0.15010834 0.19079496
vt 0.15010834 0.19079496
vt 0.15084909 0.20023317
vt 0.15214542 0.20953525
vt 0.15270099 0.21901884
vt 0.15353463 0.15829546
vt 0.15419023 0.19079496
vt 0.15419023 0.19079496
vt 0.15555897 0.20023317
vt 0.15625074 0.12556418
vt 0.15795427 0.20953525
vt 0.15825667 9.2601122e-2
vt 0.15825667 9.2601122e-2
vt 0.15898083 0.21901884
vt 0.16052119 0.15829546
vt 0.16553991 0.12556418
vt 0.16924639 9.2601122e-2
vt 0.16924639 9.2601122e-2
vn 0.99926331 3.8377522e-2 -1.7443863e-16
vn 0.92319892 3.8377522e-2 0.38240151
vn 0.70658586 3.8377522e-2 0.70658586
vn 0.38240151 3.8377522e-2 0.92319892
vn 0.0000000e+0 3.8377522e-2 0.99926331
vn -0.38240151 3.8377522e-2 0.92319892
vn -0.70658586 3.8377522e-2 0.70658586
vn -0.92319892 3.8377522e-2 0.38240151
vn -0.99926331 3.8377522e-2 2.5438967e-16
vn -0.92319892 3.8377522e-2 -0.38240151
vn -0.70658586 3.8377522e-2 -0.70658586
vn -0.38240151 3.8377522e-2 -0.92319892
vn -3.3434070e-16 3.8377522e-2 -0.99926331
vn 0.38240151 3.8377522e-2 -0.92319892
vn 0.70658586 3.8377522e-2 -0.70658586
vn 0.92319892 3.8377522e-2 -0.38240151
vn 0.91365806 -0.14834045 0.37844956
vn 0.98893635 -0.14834045 -4.2431230e-17
vn 0.91365806 -0.14834045 -0.37844956
vn 0.69928360 -0.14834045 -0.69928360
vn 0.37844956 -0.14834045 -0.91365806
vn -2.9701861e-16 -0.14834045 -0.98893635
vn -0.37844956 -0.14834045 -0.91365806
vn -0.69928360 -0.14834045 -0.69928360
vn -0.91365806 -0.14834045 -0.37844956
vn -0.98893635 -0.14834045 1.4143743e-16
vn -0.91365806 -0.14834045 0.37844956
vn -0.69928360 -0.14834045 0.69928360
vn -0.37844956 -0.14834045 0.91365806
vn 0.0000000e+0 -0.14834045 0.98893635
vn 0.37844956 -0.14834045 0.91365806
vn 0.69928360 -0.14834045 0.69928360
vn 0.68203635 -0.26391824 0.68203635
vn 0.36911541 -0.26391824 0.89112343
vn -1.4164107e-17 -0.26391824 0.96454506
vn -0.36911541 -0.26391824 0.89112343
vn -0.68203635 -0.26391824 0.68203635
vn -0.89112343 -0.26391824 0.36911541
vn -0.96454506 -0.26391824 1.7705133e-16
vn -0.89112343 -0.26391824 -0.36911541
vn -0.68203635 -0.26391824 -0.68203635
vn -0.36911541 -0.26391824 -0.89112343
vn -2.2662571e-16 -0.26391824 -0.96454506
vn 0.36911541 -0.26391824 -0.89112343
vn 0.68203635 -0.26391824 -0.68203635
vn 0.89112343 -0.26391824 -0.36911541
vn 0.96454506 -0.26391824 -1.1331285e-16
vn 0.89112343 -0.26391824 0.36911541
vn 0.89676738 -0.24048030 0.37145321
vn 0.97065402 -0.24048030 -6.3875297e-17
vn 0.89676738 -0.24048030 -0.37145321
vn 0.68635604 -0.24048030 -0.68635604
vn 0.37145321 -0.24048030 -0.89676738
vn -2.4840393e-16 -0.24048030 -0.97065402
vn -0.37145321 -0.24048030 -0.89676738
vn -0.68635604 -0.24048030 -0.68635604
vn -0.89676738 -0.24048030 -0.37145321
vn -0.97065402 -0.24048030 1.4194510e-16
vn -0.89676738 -0.24048030 0.37145321
vn -0.68635604 -0.24048030 0.68635604
vn -0.37145321 -0.24048030 0.89676738
vn -1.4194510e-17 -0.24048030 0.97065402
vn 0.37145321 -0.24048030 0.89676738
vn 0.68635604 -0.24048030 0.68635604
vn 0.90763078 0.18672367 -0.37595298
vn 0.69467052 0.18672367 -0.69467052
vn 0.37595298 0.18672367 -0.90763078
vn -2.6169931e-16 0.18672367 -0.98241247
vn -0.37595298 0.18672367 -0.90763078
vn -0.69467052 0.18672367 -0.69467052
vn -0.90763078 0.18672367 -0.37595298
vn -0.98241247 0.18672367 2.5462636e-16
vn -0.90763078 0.18672367 0.37595298
vn -0.69467052 0.18672367 0.69467052
vn -0.37595298 0.18672367 0.90763078
vn 2.1218863e-17 0.18672367 0.98241247
vn 0.37595298 0.18672367 0.90763078
vn 0.69467052 0.18672367 0.69467052
vn 0.90763078 0.18672367 0.37595298
vn 0.98241247 0.18672367 -1.0609432e-16
vn 0.89622551 0.24283542 -0.37122876
vn 0.68594131 0.24283542 -0.68594131
vn 0.37122876 0.24283542 -0.89622551
vn -3.3227638e-16 0.24283542 -0.97006750
vn -0.37122876 0.24283542 -0.89622551
vn -0.68594131 0.24283542 -0.68594131
vn -0.89622551 0.24283542 -0.37122876
vn -0.97006750 0.24283542 2.7571870e-16
vn -0.89622551 0.24283542 0.37122876
vn -0.68594131 0.24283542 0.68594131
vn -0.37122876 0.24283542 0.89622551
vn 1.4139421e-17 0.24283542 0.97006750
vn 0.37122876 0.24283542 0.89622551
vn 0.68594131 0.24283542 0.68594131
vn 0.89622551 0.24283542 0.37122876
vn 0.97006750 0.24283542 -1.6967305e-16
vn 2.3258657e-16 -1.00000000 4.4465079e-17
vn 0.98737180 0.15842012 -7.0714551e-17
vn 0.98737180 0.15842012 -7.0714551e-17
vn 0.0000000e+0 -1.00000000 0.0000000e+0
vn 0.0000000e+0 -1.00000000 0.0000000e+0
vn 0.91221259 0.15842012 0.37785083
vn 0.91221259 0.15842012 0.37785083
vn 0.0000000e+0 -1.00000000 0.0000000e+0
vn 0.0000000e+0 -1.00000000 0.0000000e+0
vn 0.69817729 0.15842012 0.69817729
vn 0.69817729 0.15842012 0.69817729
vn 0.0000000e+0 -1.00000000 0.0000000e+0
vn 0.0000000e+0 -1.00000000 0.0000000e+0
vn 0.37785083 0.15842012 0.91221259
vn 0.37785083 0.15842012 0.91221259
vn 0.0000000e+0 -1.00000000 0.0000000e+0
vn 0.0000000e+0 -1.00000000 0.0000000e+0
vn 1.4142910e-17 0.15842012 0.98737180
vn 1.4142910e-17 0.15842012 0.98737180
vn 0.0000000e+0 -1.00000000 0.0000000e+0
vn 0.0000000e+0 -1.00000000 0.0000000e+0
vn -0.37785083 0.15842012 0.91221259
vn -0.37785083 0.15842012 0.91221259
vn 0.0000000e+0 -1.00000000 0.0000000e+0
vn 0.0000000e+0 -1.00000000 0.0000000e+0
vn -0.69817729 0.15842012 0.69817729
vn -0.69817729 0.15842012 0.69817729
vn 0.0000000e+0 -1.00000000 0.0000000e+0
vn 0.0000000e+0 -1.00000000 0.0000000e+0
vn -0.91221259 0.15842012 0.37785083
vn -0.91221259 0.15842012 0.37785083
vn 0.0000000e+0 -1.00000000 0.0000000e+0
vn 0.0000000e+0 -1.00000000 0.0000000e+0
vn -0.98737180 0.15842012 2.4042947e-16
vn -0.98737180 0.15842012 2.4042947e-16
vn 0.0000000e+0 -1.00000000 0.0000000e+0
vn 0.0000000e+0 -1.00000000 0.0000000e+0
vn -0.91221259 0.15842012 -0.37785083
vn -0.91221259 0.15842012 -0.37785083
vn 0.0000000e+0 -1.00000000 0.0000000e+0
vn 0.0000000e+0 -1.00000000 0.0000000e+0
vn -0.69817729 0.15842012 -0.69817729
vn -0.69817729 0.15842012 -0.69817729
vn 0.0000000e+0 -1.00000000 0.0000000e+0
vn 0.0000000e+0 -1.00000000 0.0000000e+0
vn -0.37785083 0.15842012 -0.91221259
vn -0.37785083 0.15842012 -0.91221259
vn 0.0000000e+0 -1.00000000 0.0000000e+0
vn 0.0000000e+0 -1.00000000 0.0000000e+0
vn -2.5457239e-16 0.15842012 -0.98737180
vn -2.5457239e-16 0.15842012 -0.98737180
vn 0.0000000e+0 -1.00000000 0.0000000e+0
vn 0.0000000e+0 -1.00000000 0.0000000e+0
vn 0.37785083 0.15842012 -0.91221259
vn 0.37785083 0.15842012 -0.91221259
vn 0.0000000e+0 -1.00000000 0.0000000e+0
vn 0.0000000e+0 -1.00000000 0.0000000e+0
vn 0.69817729 0.15842012 -0.69817729
vn 0.69817729 0.15842012 -0.69817729
vn 0.0000000e+0 -1.00000000 0.0000000e+0
vn 0.0000000e+0 -1.00000000 0.0000000e+0
vn 0.91221259 0.15842012 -0.37785083
vn 0.91221259 0.15842012 -0.37785083
vn 0.0000000e+0 -1.00000000 0.0000000e+0
vn 0.0000000e+0 -1.00000000 0.0000000e+0
vn 0.0000000e+0 -1.00000000 0.0000000e+0
vn 0.0000000e+0 -1.00000000 0.0000000e+0
vn -0.85749293 -0.51449576 -4.2234636e-16
vn -0.85749293 -0.51449576 -4.2234636e-16
vn 0.0000000e+0 -1.00000000 0.0000000e+0
vn 0.0000000e+0 -1.00000000 0.0000000e+0
vn -0.79222016 -0.51449576 -0.32814834
vn -0.79222016 -0.51449576 -0.32814834
vn 0.0000000e+0 -1.00000000 0.0000000e+0
vn 0.0000000e+0 -1.00000000 0.0000000e+0
vn -0.60633906 -0.51449576 -0.60633906
vn -0.60633906 -0.51449576 -0.60633906
vn 0.0000000e+0 -1.00000000 0.0000000e+0
vn 0.0000000e+0 -1.00000000 0.0000000e+0
vn -0.32814834 -0.51449576 -0.79222016
vn -0.32814834 -0.51449576 -0.79222016
vn 0.0000000e+0 -1.00000000 0.0000000e+0
vn 0.0000000e+0 -1.00000000 0.0000000e+0
vn 5.6312848e-17 -0.51449576 -0.85749293
vn 5.6312848e-17 -0.51449576 -0.85749293
vn 0.0000000e+0 -1.00000000 0.0000000e+0
vn 0.0000000e+0 -1.00000000 0.0000000e+0
vn 0.32814834 -0.51449576 -0.79222016
vn 0.32814834 -0.51449576 -0.79222016
vn 0.0000000e+0 -1.00000000 0.0000000e+0
vn 0.0000000e+0 -1.00000000 0.0000000e+0
vn 0.60633906 -0.51449576 -0.60633906
vn 0.60633906 -0.51449576 -0.60633906
vn 0.0000000e+0 -1.00000000 0.0000000e+0
vn 0.0000000e+0 -1.00000000 0.0000000e+0
vn 0.79222016 -0.51449576 -0.32814834
vn 0.79222016 -0.51449576 -0.32814834
vn 0.0000000e+0 -1.00000000 0.0000000e+0
vn 0.0000000e+0 -1.00000000 0.0000000e+0
vn 0.85749293 -0.51449576 3.8011172e-16
vn 0.85749293 -0.51449576 3.8011172e-16
vn 0.0000000e+0 -1.00000000 0.0000000e+0
vn 0.0000000e+0 -1.00000000 0.0000000e+0
vn 0.79222016 -0.51449576 0.32814834
vn 0.79222016 -0.51449576 0.32814834
vn 0.0000000e+0 -1.00000000 0.0000000e+0
vn 0.0000000e+0 -1.00000000 0.0000000e+0
vn 0.60633906 -0.51449576 0.60633906
vn 0.60633906 -0.51449576 0.60633906
vn 0.0000000e+0 -1.00000000 0.0000000e+0
vn 0.0000000e+0 -1.00000000 0.0000000e+0
vn 0.32814834 -0.51449576 0.79222016
vn 0.32814834 -0.51449576 0.79222016
vn 0.0000000e+0 -1.00000000 0.0000000e+0
vn 0.0000000e+0 -1.00000000 0.0000000e+0
vn 2.5340782e-16 -0.51449576 0.85749293
vn 2.5340782e-16 -0.51449576 0.85749293
vn 0.0000000e+0 -1.00000000 0.0000000e+0
vn 0.0000000e+0 -1.00000000 0.0000000e+0
vn -0.32814834 -0.51449576 0.79222016
vn -0.32814834 -0.51449576 0.79222016
vn 0.0000000e+0 -1.00000000 0.0000000e+0
vn 0.0000000e+0 -1.00000000 0.0000000e+0
vn -0.60633906 -0.51449576 0.60633906
vn -0.60633906 -0.51449576 0.60633906
vn 0.0000000e+0 -1.00000000 0.0000000e+0
vn 0.0000000e+0 -1.00000000 0.0000000e+0
vn -0.79222016 -0.51449576 0.32814834
vn -0.79222016 -0.51449576 0.32814834
g tantares_lv_engine_s1p5_2_vernier_tantares_lv_engine_s1_1_vernier_auv
usemtl tantares_lv_engine_s1_1_vernier_auv
s 1
f 1/48/1 63/49/47 64/30/48 2/32/2
f 1/48/1 112/47/96 97/61/81 16/52/16
f 2/32/2 64/30/48 49/21/33 3/23/3
f 2/32/2 111/25/95 112/47/96 1/48/1
f 3/138/3 49/139/33 50/133/34 4/132/4
f 3/23/3 110/10/94 111/25/95 2/32/2
f 4/132/4 50/133/34 51/128/35 5/127/5
f 4/132/4 109/136/93 110/145/94 3/138/3
f 5/127/5 51/128/35 52/119/36 6/121/6
f 5/127/5 108/125/92 109/136/93 4/132/4
f 6/121/6 52/119/36 53/110/37 7/112/7
f 6/121/6 107/113/91 108/125/92 5/127/5
f 7/63/7 53/69/37 54/55/38 8/53/8
f 7/112/7 106/103/90 107/113/91 6/121/6
f 8/53/8 54/55/38 55/42/39 9/41/9
f 8/53/8 105/60/89 106/80/90 7/63/7
f 9/41/9 55/42/39 56/31/40 10/33/10
f 9/41/9 104/40/88 105/60/89 8/53/8
f 10/33/10 56/31/40 57/22/41 11/24/11
f 10/33/10 103/25/87 104/40/88 9/41/9
f 11/137/11 57/139/41 58/133/42 12/131/12
f 11/24/11 102/10/86 103/25/87 10/33/10
f 12/131/12 58/133/42 59/128/43 13/126/13
f 12/131/12 101/136/85 102/145/86 11/137/11
f 13/126/13 59/128/43 60/118/44 14/120/14
f 13/126/13 100/125/84 101/136/85 12/131/12
f 14/120/14 60/118/44 61/110/45 15/111/15
f 14/120/14 99/113/83 100/125/84 13/126/13
f 15/62/15 61/70/45 62/54/46 16/52/16
f 15/111/15 98/103/82 99/113/83 14/120/14
f 16/52/16 62/54/46 63/49/47 1/48/1
f 16/52/16 97/61/81 98/79/82 15/62/15
f 17/45/99 96/46/80 95/18/79 18/15/103
f 18/15/102 95/18/79 94/6/78 19/2/107
f 19/148/106 94/146/78 93/140/77 20/143/111
f 20/143/110 93/140/77 92/124/76 21/123/115
f 21/123/114 92/124/76 91/109/75 22/107/119
f 22/107/118 91/109/75 90/101/74 23/100/123
f 23/87/122 90/81/74 89/71/73 24/76/127
f 24/76/126 89/71/73 88/39/72 25/38/131
f 25/38/130 88/39/72 87/18/71 26/14/135
f 26/14/134 87/18/71 86/5/70 27/2/139
f 27/147/138 86/146/70 85/140/69 28/142/143
f 28/142/142 85/140/69 84/124/68 29/122/147
f 29/122/146 84/124/68 83/109/67 30/106/151
f 30/106/150 83/109/67 82/102/66 31/99/155
f 31/88/154 82/82/66 81/72/65 32/75/159
f 32/75/158 81/72/65 96/46/80 17/45/98
f 33/26/17 65/28/49 66/50/50 34/51/18
f 34/51/18 66/50/50 67/57/51 35/59/19
f 35/59/19 67/57/51 68/74/52 36/78/20
f 36/104/20 68/108/52 69/116/53 37/114/21
f 37/114/21 69/116/53 70/129/54 38/130/22
f 38/130/22 70/129/54 71/134/55 39/135/23
f 39/135/23 71/134/55 72/141/56 40/144/24
f 40/13/24 72/16/56 73/29/57 41/27/25
f 41/27/25 73/29/57 74/43/58 42/44/26
f 42/44/26 74/43/58 75/56/59 43/58/27
f 43/58/27 75/56/59 76/73/60 44/77/28
f 44/105/28 76/108/60 77/117/61 45/115/29
f 45/115/29 77/117/61 78/129/62 46/130/30
f 46/130/30 78/129/62 79/134/63 47/135/31
f 47/135/31 79/134/63 80/141/64 48/144/32
f 48/13/32 80/17/64 65/28/49 33/26/17
f 49/21/33 64/30/48 65/28/49 80/17/64
f 66/50/50 65/28/49 64/30/48 63/49/47
f 67/57/51 66/50/50 63/49/47 62/54/46
f 68/74/52 67/57/51 62/54/46 61/70/45
f 69/116/53 68/108/52 61/110/45 60/118/44
f 70/129/54 69/116/53 60/118/44 59/128/43
f 71/134/55 70/129/54 59/128/43 58/133/42
f 72/141/56 71/134/55 58/133/42 57/139/41
f 73/29/57 72/16/56 57/22/41 56/31/40
f 74/43/58 73/29/57 56/31/40 55/42/39
f 75/56/59 74/43/58 55/42/39 54/55/38
f 76/73/60 75/56/59 54/55/38 53/69/37
f 77/117/61 76/108/60 53/110/37 52/119/36
f 78/129/62 77/117/61 52/119/36 51/128/35
f 79/134/63 78/129/62 51/128/35 50/133/34
f 80/141/64 79/134/63 50/133/34 49/139/33
f 81/72/65 97/61/81 112/47/96 96/46/80
f 82/82/66 98/79/82 97/61/81 81/72/65
f 83/109/67 99/113/83 98/103/82 82/102/66
f 84/124/68 100/125/84 99/113/83 83/109/67
f 85/140/69 101/136/85 100/125/84 84/124/68
f 86/146/70 102/145/86 101/136/85 85/140/69
f 87/18/71 103/25/87 102/10/86 86/5/70
f 88/39/72 104/40/88 103/25/87 87/18/71
f 89/71/73 105/60/89 104/40/88 88/39/72
f 90/81/74 106/80/90 105/60/89 89/71/73
f 91/109/75 107/113/91 106/103/90 90/101/74
f 92/124/76 108/125/92 107/113/91 91/109/75
f 93/140/77 109/136/93 108/125/92 92/124/76
f 94/146/78 110/145/94 109/136/93 93/140/77
f 95/18/79 111/25/95 110/10/94 94/6/78
f 96/46/80 112/47/96 111/25/95 95/18/79
f 113/7/165 129/66/97 128/9/225
f 114/8/168 129/66/97 113/7/164
f 115/19/172 129/66/97 114/8/169
f 116/36/176 129/66/97 115/19/173
f 117/65/180 129/66/97 116/36/177
f 118/83/184 129/66/97 117/65/181
f 119/89/188 129/66/97 118/83/185
f 120/93/192 129/66/97 119/89/189
f 121/95/196 129/66/97 120/93/193
f 122/94/200 129/66/97 121/95/197
f 123/90/204 129/66/97 122/94/201
f 124/84/208 129/66/97 123/90/205
f 125/67/212 129/66/97 124/84/209
f 126/37/216 129/66/97 125/67/213
f 127/20/220 129/66/97 126/37/217
f 128/9/224 129/66/97 127/20/221
s 2
f 17/1/101 113/7/163 128/9/223 32/4/161
f 18/3/104 114/8/166 113/7/162 17/1/100
f 19/11/108 115/19/170 114/8/167 18/3/105
f 20/34/112 116/36/174 115/19/171 19/11/109
f 21/64/116 117/65/178 116/36/175 20/34/113
f 22/85/120 118/83/182 117/65/179 21/64/117
f 23/91/124 119/89/186 118/83/183 22/85/121
f 24/96/128 120/93/190 119/89/187 23/91/125
f 25/98/132 121/95/194 120/93/191 24/96/129
f 26/97/136 122/94/198 121/95/195 25/98/133
f 27/92/140 123/90/202 122/94/199 26/97/137
f 28/86/144 124/84/206 123/90/203 27/92/141
f 29/68/148 125/67/210 124/84/207 28/86/145
f 30/35/152 126/37/214 125/67/211 29/68/149
f 31/12/156 127/20/218 126/37/215 30/35/153
f 32/4/160 128/9/222 127/20/219 31/12/157
