# Exported from Wings 3D 1.5.4
mtllib LLV_V_Engine_1_Collider1.mtl
o LLV_V_Engine_1_Collider
#48 vertices, 34 faces
v 1.25000000 2.87500000 -0.24864046
v 1.25000000 2.87500000 0.24864046
v 1.05969883 2.87500000 0.70806812
v 0.70806812 2.87500000 1.05969883
v 0.24864046 2.87500000 1.25000000
v -0.24864046 2.87500000 1.25000000
v -0.70806812 2.87500000 1.05969883
v -1.05969883 2.87500000 0.70806812
v -1.25000000 2.87500000 0.24864046
v -1.25000000 2.87500000 -0.24864046
v -1.05969883 2.87500000 -0.70806812
v -0.70806812 2.87500000 -1.05969883
v -0.24864046 2.87500000 -1.25000000
v 0.24864046 2.87500000 -1.25000000
v 0.70806812 2.87500000 -1.05969883
v 1.05969883 2.87500000 -0.70806812
v 1.62000000 -0.53000000 -0.32223804
v 1.62000000 -0.53000000 0.32223804
v 1.37336969 -0.53000000 0.91765629
v 0.91765629 -0.53000000 1.37336969
v 0.32223804 -0.53000000 1.62000000
v -0.32223804 -0.53000000 1.62000000
v -0.91765629 -0.53000000 1.37336969
v -1.37336969 -0.53000000 0.91765629
v -1.62000000 -0.53000000 0.32223804
v -1.62000000 -0.53000000 -0.32223804
v -1.37336969 -0.53000000 -0.91765629
v -0.91765629 -0.53000000 -1.37336969
v -0.32223804 -0.53000000 -1.62000000
v 0.32223804 -0.53000000 -1.62000000
v 0.91765629 -0.53000000 -1.37336969
v 1.37336969 -0.53000000 -0.91765629
v 0.70500000 -2.16750000 -0.14023322
v 0.70500000 -2.16750000 0.14023322
v 0.59767014 -2.16750000 0.39935042
v 0.39935042 -2.16750000 0.59767014
v 0.14023322 -2.16750000 0.70500000
v -0.14023322 -2.16750000 0.70500000
v -0.39935042 -2.16750000 0.59767014
v -0.59767014 -2.16750000 0.39935042
v -0.70500000 -2.16750000 0.14023322
v -0.70500000 -2.16750000 -0.14023322
v -0.59767014 -2.16750000 -0.39935042
v -0.39935042 -2.16750000 -0.59767014
v -0.14023322 -2.16750000 -0.70500000
v 0.14023322 -2.16750000 -0.70500000
v 0.39935042 -2.16750000 -0.59767014
v 0.59767014 -2.16750000 -0.39935042
vn 0.0000000e+0 1.00000000 -4.4651744e-17
vn 0.91847287 0.10802782 -0.38044392
vn 0.99414787 0.10802782 0.0000000e+0
vn 0.0000000e+0 1.00000000 -4.4651744e-17
vn 0.91847287 0.10802782 0.38044392
vn 0.99414787 0.10802782 0.0000000e+0
vn 0.0000000e+0 1.00000000 -4.4651744e-17
vn 0.70296870 0.10802782 0.70296870
vn 0.91847287 0.10802782 0.38044392
vn 0.0000000e+0 1.00000000 -4.4651744e-17
vn 0.38044392 0.10802782 0.91847287
vn 0.70296870 0.10802782 0.70296870
vn 0.0000000e+0 1.00000000 -4.4651744e-17
vn 0.0000000e+0 0.10802782 0.99414787
vn 0.38044392 0.10802782 0.91847287
vn 0.0000000e+0 1.00000000 -4.4651744e-17
vn -0.38044392 0.10802782 0.91847287
vn 0.0000000e+0 0.10802782 0.99414787
vn 0.0000000e+0 1.00000000 -4.4651744e-17
vn -0.70296870 0.10802782 0.70296870
vn -0.38044392 0.10802782 0.91847287
vn 0.0000000e+0 1.00000000 -4.4651744e-17
vn -0.91847287 0.10802782 0.38044392
vn -0.70296870 0.10802782 0.70296870
vn 0.0000000e+0 1.00000000 -4.4651744e-17
vn -0.99414787 0.10802782 0.0000000e+0
vn -0.91847287 0.10802782 0.38044392
vn 0.0000000e+0 1.00000000 -4.4651744e-17
vn -0.91847287 0.10802782 -0.38044392
vn -0.99414787 0.10802782 0.0000000e+0
vn 0.0000000e+0 1.00000000 -4.4651744e-17
vn -0.70296870 0.10802782 -0.70296870
vn -0.91847287 0.10802782 -0.38044392
vn 0.0000000e+0 1.00000000 -4.4651744e-17
vn -0.38044392 0.10802782 -0.91847287
vn -0.70296870 0.10802782 -0.70296870
vn 0.0000000e+0 1.00000000 -4.4651744e-17
vn 0.0000000e+0 0.10802782 -0.99414787
vn -0.38044392 0.10802782 -0.91847287
vn 0.0000000e+0 1.00000000 -4.4651744e-17
vn 0.38044392 0.10802782 -0.91847287
vn 0.0000000e+0 0.10802782 -0.99414787
vn 0.0000000e+0 1.00000000 -4.4651744e-17
vn 0.70296870 0.10802782 -0.70296870
vn 0.38044392 0.10802782 -0.91847287
vn 0.0000000e+0 1.00000000 -4.4651744e-17
vn 0.91847287 0.10802782 -0.38044392
vn 0.70296870 0.10802782 -0.70296870
vn 0.91847287 0.10802782 -0.38044392
vn 0.99414787 0.10802782 0.0000000e+0
vn 0.87296017 -0.48779149 0.0000000e+0
vn 0.80651004 -0.48779149 -0.33406740
vn 0.91847287 0.10802782 0.38044392
vn 0.99414787 0.10802782 0.0000000e+0
vn 0.87296017 -0.48779149 0.0000000e+0
vn 0.80651004 -0.48779149 0.33406740
vn 0.70296870 0.10802782 0.70296870
vn 0.91847287 0.10802782 0.38044392
vn 0.80651004 -0.48779149 0.33406740
vn 0.61727606 -0.48779149 0.61727606
vn 0.38044392 0.10802782 0.91847287
vn 0.70296870 0.10802782 0.70296870
vn 0.61727606 -0.48779149 0.61727606
vn 0.33406740 -0.48779149 0.80651004
vn 0.0000000e+0 0.10802782 0.99414787
vn 0.38044392 0.10802782 0.91847287
vn 0.33406740 -0.48779149 0.80651004
vn 0.0000000e+0 -0.48779149 0.87296017
vn -0.38044392 0.10802782 0.91847287
vn 0.0000000e+0 0.10802782 0.99414787
vn 0.0000000e+0 -0.48779149 0.87296017
vn -0.33406740 -0.48779149 0.80651004
vn -0.70296870 0.10802782 0.70296870
vn -0.38044392 0.10802782 0.91847287
vn -0.33406740 -0.48779149 0.80651004
vn -0.61727606 -0.48779149 0.61727606
vn -0.91847287 0.10802782 0.38044392
vn -0.70296870 0.10802782 0.70296870
vn -0.61727606 -0.48779149 0.61727606
vn -0.80651004 -0.48779149 0.33406740
vn -0.99414787 0.10802782 0.0000000e+0
vn -0.91847287 0.10802782 0.38044392
vn -0.80651004 -0.48779149 0.33406740
vn -0.87296017 -0.48779149 0.0000000e+0
vn -0.91847287 0.10802782 -0.38044392
vn -0.99414787 0.10802782 0.0000000e+0
vn -0.87296017 -0.48779149 0.0000000e+0
vn -0.80651004 -0.48779149 -0.33406740
vn -0.70296870 0.10802782 -0.70296870
vn -0.91847287 0.10802782 -0.38044392
vn -0.80651004 -0.48779149 -0.33406740
vn -0.61727606 -0.48779149 -0.61727606
vn -0.38044392 0.10802782 -0.91847287
vn -0.70296870 0.10802782 -0.70296870
vn -0.61727606 -0.48779149 -0.61727606
vn -0.33406740 -0.48779149 -0.80651004
vn 0.0000000e+0 0.10802782 -0.99414787
vn -0.38044392 0.10802782 -0.91847287
vn -0.33406740 -0.48779149 -0.80651004
vn 0.0000000e+0 -0.48779149 -0.87296017
vn 0.38044392 0.10802782 -0.91847287
vn 0.0000000e+0 0.10802782 -0.99414787
vn 0.0000000e+0 -0.48779149 -0.87296017
vn 0.33406740 -0.48779149 -0.80651004
vn 0.70296870 0.10802782 -0.70296870
vn 0.38044392 0.10802782 -0.91847287
vn 0.33406740 -0.48779149 -0.80651004
vn 0.61727606 -0.48779149 -0.61727606
vn 0.91847287 0.10802782 -0.38044392
vn 0.70296870 0.10802782 -0.70296870
vn 0.61727606 -0.48779149 -0.61727606
vn 0.80651004 -0.48779149 -0.33406740
vn 0.87296017 -0.48779149 0.0000000e+0
vn 0.80651004 -0.48779149 -0.33406740
vn 0.0000000e+0 -1.00000000 -2.2810436e-16
vn 0.87296017 -0.48779149 0.0000000e+0
vn 0.80651004 -0.48779149 0.33406740
vn 0.0000000e+0 -1.00000000 -2.2810436e-16
vn 0.80651004 -0.48779149 0.33406740
vn 0.61727606 -0.48779149 0.61727606
vn 0.0000000e+0 -1.00000000 -2.2810436e-16
vn 0.61727606 -0.48779149 0.61727606
vn 0.33406740 -0.48779149 0.80651004
vn 0.0000000e+0 -1.00000000 -2.2810436e-16
vn 0.33406740 -0.48779149 0.80651004
vn 0.0000000e+0 -0.48779149 0.87296017
vn 0.0000000e+0 -1.00000000 -2.2810436e-16
vn 0.0000000e+0 -0.48779149 0.87296017
vn -0.33406740 -0.48779149 0.80651004
vn 0.0000000e+0 -1.00000000 -2.2810436e-16
vn -0.33406740 -0.48779149 0.80651004
vn -0.61727606 -0.48779149 0.61727606
vn 0.0000000e+0 -1.00000000 -2.2810436e-16
vn -0.61727606 -0.48779149 0.61727606
vn -0.80651004 -0.48779149 0.33406740
vn 0.0000000e+0 -1.00000000 -2.2810436e-16
vn -0.80651004 -0.48779149 0.33406740
vn -0.87296017 -0.48779149 0.0000000e+0
vn 0.0000000e+0 -1.00000000 -2.2810436e-16
vn -0.87296017 -0.48779149 0.0000000e+0
vn -0.80651004 -0.48779149 -0.33406740
vn 0.0000000e+0 -1.00000000 -2.2810436e-16
vn -0.80651004 -0.48779149 -0.33406740
vn -0.61727606 -0.48779149 -0.61727606
vn 0.0000000e+0 -1.00000000 -2.2810436e-16
vn -0.61727606 -0.48779149 -0.61727606
vn -0.33406740 -0.48779149 -0.80651004
vn 0.0000000e+0 -1.00000000 -2.2810436e-16
vn -0.33406740 -0.48779149 -0.80651004
vn 0.0000000e+0 -0.48779149 -0.87296017
vn 0.0000000e+0 -1.00000000 -2.2810436e-16
vn 0.0000000e+0 -0.48779149 -0.87296017
vn 0.33406740 -0.48779149 -0.80651004
vn 0.0000000e+0 -1.00000000 -2.2810436e-16
vn 0.33406740 -0.48779149 -0.80651004
vn 0.61727606 -0.48779149 -0.61727606
vn 0.0000000e+0 -1.00000000 -2.2810436e-16
vn 0.61727606 -0.48779149 -0.61727606
vn 0.80651004 -0.48779149 -0.33406740
vn 0.0000000e+0 -1.00000000 -2.2810436e-16
g LLV_V_Engine_1_Collider_default
usemtl default
s 1
f 3//9 19//58 18//53 2//5
f 6//18 22//70 21//65 5//14
f 8//24 24//78 23//73 7//20
f 11//33 27//90 26//85 10//29
f 13//39 29//98 28//93 12//35
f 16//48 32//110 31//105 15//44
f 18//55 34//116 33//113 17//51
f 20//63 36//122 35//120 19//60
f 23//75 39//131 38//129 22//72
f 25//83 41//137 40//135 24//80
f 28//95 44//146 43//144 27//92
f 31//107 47//155 46//153 30//104
s 2
f 2//6 18//54 17//50 1//3
f 4//12 20//62 19//57 3//8
f 7//21 23//74 22//69 6//17
f 9//27 25//82 24//77 8//23
f 12//36 28//94 27//89 11//32
f 14//42 30//102 29//97 13//38
f 19//59 35//119 34//117 18//56
f 21//67 37//125 36//123 20//64
f 24//79 40//134 39//132 23//76
f 27//91 43//143 42//141 26//88
f 29//99 45//149 44//147 28//96
f 32//111 48//158 47//156 31//108
s 3
f 1//1 16//46 15//43 14//40 13//37 12//34 11//31 10//28 9//25 8//22 7//19 6//16 5//13 4//10 3//7 2//4
f 17//52 33//114 48//159 32//112
f 22//71 38//128 37//126 21//68
f 26//87 42//140 41//138 25//84
f 30//103 46//152 45//150 29//100
s 4
f 1//2 17//49 32//109 16//47
f 5//15 21//66 20//61 4//11
f 10//30 26//86 25//81 9//26
f 15//45 31//106 30//101 14//41
f 34//118 35//121 36//124 37//127 38//130 39//133 40//136 41//139 42//142 43//145 44//148 45//151 46//154 47//157 48//160 33//115
