# Exported from Wings 3D 1.5.4
mtllib RLV_Mount_2_Collider.mtl
o RLV_Mount_2_Collider3
#64 vertices, 50 faces
v 1.00000000 0.38750000 -0.19891237
v 1.00000000 0.38750000 0.19891237
v 0.84775907 0.38750000 0.56645450
v 0.56645450 0.38750000 0.84775907
v 0.19891237 0.38750000 1.00000000
v -0.19891237 0.38750000 1.00000000
v -0.56645450 0.38750000 0.84775907
v -0.84775907 0.38750000 0.56645450
v -1.00000000 0.38750000 0.19891237
v -1.00000000 0.38750000 -0.19891237
v -0.84775907 0.38750000 -0.56645450
v -0.56645450 0.38750000 -0.84775907
v -0.19891237 0.38750000 -1.00000000
v 0.19891237 0.38750000 -1.00000000
v 0.56645450 0.38750000 -0.84775907
v 0.84775907 0.38750000 -0.56645450
v 1.00000000 -0.31250000 -0.19891237
v 1.00000000 -0.31250000 0.19891237
v 0.84775907 -0.31250000 0.56645450
v 0.56645450 -0.31250000 0.84775907
v 0.19891237 -0.31250000 1.00000000
v -0.19891237 -0.31250000 1.00000000
v -0.56645450 -0.31250000 0.84775907
v -0.84775907 -0.31250000 0.56645450
v -1.00000000 -0.31250000 0.19891237
v -1.00000000 -0.31250000 -0.19891237
v -0.84775907 -0.31250000 -0.56645450
v -0.56645450 -0.31250000 -0.84775907
v -0.19891237 -0.31250000 -1.00000000
v 0.19891237 -0.31250000 -1.00000000
v 0.56645450 -0.31250000 -0.84775907
v 0.84775907 -0.31250000 -0.56645450
v 0.72500000 -1.08500000 -0.14421147
v 0.72500000 -1.08500000 0.14421147
v 0.61462532 -1.08500000 0.41067951
v 0.41067951 -1.08500000 0.61462532
v 0.14421147 -1.08500000 0.72500000
v -0.14421147 -1.08500000 0.72500000
v -0.41067951 -1.08500000 0.61462532
v -0.61462532 -1.08500000 0.41067951
v -0.72500000 -1.08500000 0.14421147
v -0.72500000 -1.08500000 -0.14421147
v -0.61462532 -1.08500000 -0.41067951
v -0.41067951 -1.08500000 -0.61462532
v -0.14421147 -1.08500000 -0.72500000
v 0.14421147 -1.08500000 -0.72500000
v 0.41067951 -1.08500000 -0.61462532
v 0.61462532 -1.08500000 -0.41067951
v 0.76960544 -0.71551853 -0.51423391
v 0.51423391 -0.71551853 -0.76960544
v 0.18057494 -0.71551853 -0.90781151
v -0.18057494 -0.71551853 -0.90781151
v -0.51423391 -0.71551853 -0.76960544
v -0.76960544 -0.71551853 -0.51423391
v -0.90781151 -0.71551853 -0.18057494
v -0.90781151 -0.71551853 0.18057494
v -0.76960544 -0.71551853 0.51423391
v -0.51423391 -0.71551853 0.76960544
v -0.18057494 -0.71551853 0.90781151
v 0.18057494 -0.71551853 0.90781151
v 0.51423391 -0.71551853 0.76960544
v 0.76960544 -0.71551853 0.51423391
v 0.90781151 -0.71551853 0.18057494
v 0.90781151 -0.71551853 -0.18057494
vn 0.0000000e+0 1.00000000 2.1802610e-17
vn 1.00000000 0.0000000e+0 0.0000000e+0
vn 0.92387953 -3.7375902e-17 -0.38268343
vn 0.0000000e+0 1.00000000 2.1802610e-17
vn 1.00000000 0.0000000e+0 0.0000000e+0
vn 0.92387953 3.7375902e-17 0.38268343
vn 0.0000000e+0 1.00000000 2.1802610e-17
vn 0.92387953 3.7375902e-17 0.38268343
vn 0.70710678 0.0000000e+0 0.70710678
vn 0.0000000e+0 1.00000000 2.1802610e-17
vn 0.70710678 0.0000000e+0 0.70710678
vn 0.38268343 0.0000000e+0 0.92387953
vn 0.0000000e+0 1.00000000 2.1802610e-17
vn 0.38268343 0.0000000e+0 0.92387953
vn 0.0000000e+0 0.0000000e+0 1.00000000
vn 0.0000000e+0 1.00000000 2.1802610e-17
vn 0.0000000e+0 0.0000000e+0 1.00000000
vn -0.38268343 0.0000000e+0 0.92387953
vn 0.0000000e+0 1.00000000 2.1802610e-17
vn -0.38268343 0.0000000e+0 0.92387953
vn -0.70710678 0.0000000e+0 0.70710678
vn 0.0000000e+0 1.00000000 2.1802610e-17
vn -0.70710678 0.0000000e+0 0.70710678
vn -0.92387953 3.7375902e-17 0.38268343
vn 0.0000000e+0 1.00000000 2.1802610e-17
vn -0.92387953 3.7375902e-17 0.38268343
vn -1.00000000 0.0000000e+0 0.0000000e+0
vn 0.0000000e+0 1.00000000 2.1802610e-17
vn -1.00000000 0.0000000e+0 0.0000000e+0
vn -0.92387953 0.0000000e+0 -0.38268343
vn 0.0000000e+0 1.00000000 2.1802610e-17
vn -0.92387953 0.0000000e+0 -0.38268343
vn -0.70710678 0.0000000e+0 -0.70710678
vn 0.0000000e+0 1.00000000 2.1802610e-17
vn -0.70710678 0.0000000e+0 -0.70710678
vn -0.38268343 0.0000000e+0 -0.92387953
vn 0.0000000e+0 1.00000000 2.1802610e-17
vn -0.38268343 0.0000000e+0 -0.92387953
vn 0.0000000e+0 0.0000000e+0 -1.00000000
vn 0.0000000e+0 1.00000000 2.1802610e-17
vn 0.0000000e+0 0.0000000e+0 -1.00000000
vn 0.38268343 0.0000000e+0 -0.92387953
vn 0.0000000e+0 1.00000000 2.1802610e-17
vn 0.38268343 0.0000000e+0 -0.92387953
vn 0.70710678 0.0000000e+0 -0.70710678
vn 0.0000000e+0 1.00000000 2.1802610e-17
vn 0.70710678 0.0000000e+0 -0.70710678
vn 0.92387953 -3.7375902e-17 -0.38268343
vn 1.00000000 0.0000000e+0 0.0000000e+0
vn 0.92387953 -3.7375902e-17 -0.38268343
vn 0.97482173 -0.22298563 0.0000000e+0
vn 0.90061785 -0.22298563 -0.37304813
vn 1.00000000 0.0000000e+0 0.0000000e+0
vn 0.92387953 3.7375902e-17 0.38268343
vn 0.97482173 -0.22298563 0.0000000e+0
vn 0.90061785 -0.22298563 0.37304813
vn 0.92387953 3.7375902e-17 0.38268343
vn 0.70710678 0.0000000e+0 0.70710678
vn 0.90061785 -0.22298563 0.37304813
vn 0.68930306 -0.22298563 0.68930306
vn 0.70710678 0.0000000e+0 0.70710678
vn 0.38268343 0.0000000e+0 0.92387953
vn 0.68930306 -0.22298563 0.68930306
vn 0.37304813 -0.22298563 0.90061785
vn 0.38268343 0.0000000e+0 0.92387953
vn 0.0000000e+0 0.0000000e+0 1.00000000
vn 0.37304813 -0.22298563 0.90061785
vn 0.0000000e+0 -0.22298563 0.97482173
vn 0.0000000e+0 0.0000000e+0 1.00000000
vn -0.38268343 0.0000000e+0 0.92387953
vn 0.0000000e+0 -0.22298563 0.97482173
vn -0.37304813 -0.22298563 0.90061785
vn -0.38268343 0.0000000e+0 0.92387953
vn -0.70710678 0.0000000e+0 0.70710678
vn -0.37304813 -0.22298563 0.90061785
vn -0.68930306 -0.22298563 0.68930306
vn -0.70710678 0.0000000e+0 0.70710678
vn -0.92387953 3.7375902e-17 0.38268343
vn -0.68930306 -0.22298563 0.68930306
vn -0.90061785 -0.22298563 0.37304813
vn -0.92387953 3.7375902e-17 0.38268343
vn -1.00000000 0.0000000e+0 0.0000000e+0
vn -0.90061785 -0.22298563 0.37304813
vn -0.97482173 -0.22298563 0.0000000e+0
vn -1.00000000 0.0000000e+0 0.0000000e+0
vn -0.92387953 0.0000000e+0 -0.38268343
vn -0.97482173 -0.22298563 0.0000000e+0
vn -0.90061785 -0.22298563 -0.37304813
vn -0.92387953 0.0000000e+0 -0.38268343
vn -0.70710678 0.0000000e+0 -0.70710678
vn -0.90061785 -0.22298563 -0.37304813
vn -0.68930306 -0.22298563 -0.68930306
vn -0.70710678 0.0000000e+0 -0.70710678
vn -0.38268343 0.0000000e+0 -0.92387953
vn -0.68930306 -0.22298563 -0.68930306
vn -0.37304813 -0.22298563 -0.90061785
vn -0.38268343 0.0000000e+0 -0.92387953
vn 0.0000000e+0 0.0000000e+0 -1.00000000
vn -0.37304813 -0.22298563 -0.90061785
vn 0.0000000e+0 -0.22298563 -0.97482173
vn 0.0000000e+0 0.0000000e+0 -1.00000000
vn 0.38268343 0.0000000e+0 -0.92387953
vn 0.0000000e+0 -0.22298563 -0.97482173
vn 0.37304813 -0.22298563 -0.90061785
vn 0.38268343 0.0000000e+0 -0.92387953
vn 0.70710678 0.0000000e+0 -0.70710678
vn 0.37304813 -0.22298563 -0.90061785
vn 0.68930306 -0.22298563 -0.68930306
vn 0.70710678 0.0000000e+0 -0.70710678
vn 0.92387953 -3.7375902e-17 -0.38268343
vn 0.68930306 -0.22298563 -0.68930306
vn 0.90061785 -0.22298563 -0.37304813
vn 0.0000000e+0 -1.00000000 1.3273408e-16
vn 0.89629133 -0.44346574 0.0000000e+0
vn 0.82806521 -0.44346574 -0.34299584
vn 0.0000000e+0 -1.00000000 1.3273408e-16
vn 0.89629133 -0.44346574 0.0000000e+0
vn 0.82806521 -0.44346574 0.34299584
vn 0.0000000e+0 -1.00000000 1.3273408e-16
vn 0.82806521 -0.44346574 0.34299584
vn 0.63377367 -0.44346574 0.63377367
vn 0.0000000e+0 -1.00000000 1.3273408e-16
vn 0.63377367 -0.44346574 0.63377367
vn 0.34299584 -0.44346574 0.82806521
vn 0.0000000e+0 -1.00000000 1.3273408e-16
vn 0.34299584 -0.44346574 0.82806521
vn 0.0000000e+0 -0.44346574 0.89629133
vn 0.0000000e+0 -1.00000000 1.3273408e-16
vn 0.0000000e+0 -0.44346574 0.89629133
vn -0.34299584 -0.44346574 0.82806521
vn 0.0000000e+0 -1.00000000 1.3273408e-16
vn -0.34299584 -0.44346574 0.82806521
vn -0.63377367 -0.44346574 0.63377367
vn 0.0000000e+0 -1.00000000 1.3273408e-16
vn -0.63377367 -0.44346574 0.63377367
vn -0.82806521 -0.44346574 0.34299584
vn 0.0000000e+0 -1.00000000 1.3273408e-16
vn -0.82806521 -0.44346574 0.34299584
vn -0.89629133 -0.44346574 0.0000000e+0
vn 0.0000000e+0 -1.00000000 1.3273408e-16
vn -0.89629133 -0.44346574 0.0000000e+0
vn -0.82806521 -0.44346574 -0.34299584
vn 0.0000000e+0 -1.00000000 1.3273408e-16
vn -0.82806521 -0.44346574 -0.34299584
vn -0.63377367 -0.44346574 -0.63377367
vn 0.0000000e+0 -1.00000000 1.3273408e-16
vn -0.63377367 -0.44346574 -0.63377367
vn -0.34299584 -0.44346574 -0.82806521
vn 0.0000000e+0 -1.00000000 1.3273408e-16
vn -0.34299584 -0.44346574 -0.82806521
vn 0.0000000e+0 -0.44346574 -0.89629133
vn 0.0000000e+0 -1.00000000 1.3273408e-16
vn 0.0000000e+0 -0.44346574 -0.89629133
vn 0.34299584 -0.44346574 -0.82806521
vn 0.0000000e+0 -1.00000000 1.3273408e-16
vn 0.34299584 -0.44346574 -0.82806521
vn 0.63377367 -0.44346574 -0.63377367
vn 0.0000000e+0 -1.00000000 1.3273408e-16
vn 0.63377367 -0.44346574 -0.63377367
vn 0.82806521 -0.44346574 -0.34299584
vn 0.63377367 -0.44346574 -0.63377367
vn 0.82806521 -0.44346574 -0.34299584
vn 0.68930306 -0.22298563 -0.68930306
vn 0.90061785 -0.22298563 -0.37304813
vn 0.34299584 -0.44346574 -0.82806521
vn 0.63377367 -0.44346574 -0.63377367
vn 0.37304813 -0.22298563 -0.90061785
vn 0.68930306 -0.22298563 -0.68930306
vn 0.0000000e+0 -0.44346574 -0.89629133
vn 0.34299584 -0.44346574 -0.82806521
vn 0.0000000e+0 -0.22298563 -0.97482173
vn 0.37304813 -0.22298563 -0.90061785
vn -0.34299584 -0.44346574 -0.82806521
vn 0.0000000e+0 -0.44346574 -0.89629133
vn -0.37304813 -0.22298563 -0.90061785
vn 0.0000000e+0 -0.22298563 -0.97482173
vn -0.63377367 -0.44346574 -0.63377367
vn -0.34299584 -0.44346574 -0.82806521
vn -0.68930306 -0.22298563 -0.68930306
vn -0.37304813 -0.22298563 -0.90061785
vn -0.82806521 -0.44346574 -0.34299584
vn -0.63377367 -0.44346574 -0.63377367
vn -0.90061785 -0.22298563 -0.37304813
vn -0.68930306 -0.22298563 -0.68930306
vn -0.89629133 -0.44346574 0.0000000e+0
vn -0.82806521 -0.44346574 -0.34299584
vn -0.97482173 -0.22298563 0.0000000e+0
vn -0.90061785 -0.22298563 -0.37304813
vn -0.82806521 -0.44346574 0.34299584
vn -0.89629133 -0.44346574 0.0000000e+0
vn -0.90061785 -0.22298563 0.37304813
vn -0.97482173 -0.22298563 0.0000000e+0
vn -0.63377367 -0.44346574 0.63377367
vn -0.82806521 -0.44346574 0.34299584
vn -0.68930306 -0.22298563 0.68930306
vn -0.90061785 -0.22298563 0.37304813
vn -0.34299584 -0.44346574 0.82806521
vn -0.63377367 -0.44346574 0.63377367
vn -0.37304813 -0.22298563 0.90061785
vn -0.68930306 -0.22298563 0.68930306
vn 0.0000000e+0 -0.44346574 0.89629133
vn -0.34299584 -0.44346574 0.82806521
vn 0.0000000e+0 -0.22298563 0.97482173
vn -0.37304813 -0.22298563 0.90061785
vn 0.34299584 -0.44346574 0.82806521
vn 0.0000000e+0 -0.44346574 0.89629133
vn 0.37304813 -0.22298563 0.90061785
vn 0.0000000e+0 -0.22298563 0.97482173
vn 0.63377367 -0.44346574 0.63377367
vn 0.34299584 -0.44346574 0.82806521
vn 0.68930306 -0.22298563 0.68930306
vn 0.37304813 -0.22298563 0.90061785
vn 0.82806521 -0.44346574 0.34299584
vn 0.63377367 -0.44346574 0.63377367
vn 0.90061785 -0.22298563 0.37304813
vn 0.68930306 -0.22298563 0.68930306
vn 0.89629133 -0.44346574 0.0000000e+0
vn 0.82806521 -0.44346574 0.34299584
vn 0.97482173 -0.22298563 0.0000000e+0
vn 0.90061785 -0.22298563 0.37304813
vn 0.89629133 -0.44346574 0.0000000e+0
vn 0.82806521 -0.44346574 -0.34299584
vn 0.97482173 -0.22298563 0.0000000e+0
vn 0.90061785 -0.22298563 -0.37304813
g RLV_Mount_2_Collider3_default
usemtl default
s 1
f 2//5 18//53 17//49 1//2
f 5//14 21//65 20//62 4//12
f 7//20 23//73 22//70 6//18
f 9//26 25//81 24//78 8//24
f 12//35 28//93 27//90 11//33
f 14//41 30//101 29//98 13//39
f 19//59 62//215 63//220 18//56
f 22//71 59//203 60//208 21//68
f 24//79 57//195 58//200 23//76
f 26//87 55//187 56//192 25//84
f 29//99 52//175 53//180 28//96
f 32//111 49//163 50//168 31//108
f 33//114 64//221 63//217 34//117
f 35//121 62//214 61//209 36//123
f 38//130 59//202 58//197 39//132
f 40//136 57//194 56//189 41//138
f 42//142 55//186 54//181 43//144
f 45//151 52//174 51//169 46//153
s 2
f 1//3 17//50 32//110 16//48
f 4//11 20//61 19//58 3//9
f 6//17 22//69 21//66 5//15
f 8//23 24//77 23//74 7//21
f 10//29 26//85 25//82 9//27
f 13//38 29//97 28//94 12//36
f 15//44 31//105 30//102 14//42
f 18//55 63//219 64//223 17//51
f 21//67 60//207 61//212 20//64
f 23//75 58//199 59//204 22//72
f 25//83 56//191 57//196 24//80
f 27//91 54//183 55//188 26//88
f 30//103 51//171 52//176 29//100
f 34//118 63//218 62//213 35//120
f 37//127 60//206 59//201 38//129
f 39//133 58//198 57//193 40//135
f 41//139 56//190 55//185 42//141
f 44//148 53//178 52//173 45//150
f 46//154 51//170 50//165 47//156
f 48//160 49//162 64//222 33//115
s 3
f 3//8 19//57 18//54 2//6
f 11//32 27//89 26//86 10//30
f 16//47 32//109 31//106 15//45
f 17//52 64//224 49//164 32//112
f 20//63 61//211 62//216 19//60
f 28//95 53//179 54//184 27//92
f 31//107 50//167 51//172 30//104
f 34//116 35//119 36//122 37//125 38//128 39//131 40//134 41//137 42//140 43//143 44//146 45//149 46//152 47//155 48//158 33//113
s 4
f 1//1 16//46 15//43 14//40 13//37 12//34 11//31 10//28 9//25 8//22 7//19 6//16 5//13 4//10 3//7 2//4
f 36//124 61//210 60//205 37//126
f 43//145 54//182 53//177 44//147
f 47//157 50//166 49//161 48//159
o RLV_Mount_2_Collider_2
#32 vertices, 18 faces
v 1.56250000 0.88750000 -0.31080057
v 1.56250000 0.88750000 0.31080057
v 1.32462354 0.88750000 0.88508515
v 0.88508515 0.88750000 1.32462354
v 0.31080057 0.88750000 1.56250000
v -0.31080057 0.88750000 1.56250000
v -0.88508515 0.88750000 1.32462354
v -1.32462354 0.88750000 0.88508515
v -1.56250000 0.88750000 0.31080057
v -1.56250000 0.88750000 -0.31080057
v -1.32462354 0.88750000 -0.88508515
v -0.88508515 0.88750000 -1.32462354
v -0.31080057 0.88750000 -1.56250000
v 0.31080057 0.88750000 -1.56250000
v 0.88508515 0.88750000 -1.32462354
v 1.32462354 0.88750000 -0.88508515
v 1.00000000 0.38750000 -0.19891237
v 1.00000000 0.38750000 0.19891237
v 0.84775907 0.38750000 0.56645450
v 0.56645450 0.38750000 0.84775907
v 0.19891237 0.38750000 1.00000000
v -0.19891237 0.38750000 1.00000000
v -0.56645450 0.38750000 0.84775907
v -0.84775907 0.38750000 0.56645450
v -1.00000000 0.38750000 0.19891237
v -1.00000000 0.38750000 -0.19891237
v -0.84775907 0.38750000 -0.56645450
v -0.56645450 0.38750000 -0.84775907
v -0.19891237 0.38750000 -1.00000000
v 0.19891237 0.38750000 -1.00000000
v 0.56645450 0.38750000 -0.84775907
v 0.84775907 0.38750000 -0.56645450
vn 0.0000000e+0 1.00000000 -3.5721396e-18
vn 0.66436384 -0.74740932 0.0000000e+0
vn 0.61379215 -0.74740932 -0.25424103
vn 0.0000000e+0 1.00000000 -3.5721396e-18
vn 0.66436384 -0.74740932 0.0000000e+0
vn 0.61379215 -0.74740932 0.25424103
vn 0.0000000e+0 1.00000000 -3.5721396e-18
vn 0.61379215 -0.74740932 0.25424103
vn 0.46977618 -0.74740932 0.46977618
vn 0.0000000e+0 1.00000000 -3.5721396e-18
vn 0.46977618 -0.74740932 0.46977618
vn 0.25424103 -0.74740932 0.61379215
vn 0.0000000e+0 1.00000000 -3.5721396e-18
vn 0.25424103 -0.74740932 0.61379215
vn 0.0000000e+0 -0.74740932 0.66436384
vn 0.0000000e+0 1.00000000 -3.5721396e-18
vn 0.0000000e+0 -0.74740932 0.66436384
vn -0.25424103 -0.74740932 0.61379215
vn 0.0000000e+0 1.00000000 -3.5721396e-18
vn -0.25424103 -0.74740932 0.61379215
vn -0.46977618 -0.74740932 0.46977618
vn 0.0000000e+0 1.00000000 -3.5721396e-18
vn -0.46977618 -0.74740932 0.46977618
vn -0.61379215 -0.74740932 0.25424103
vn 0.0000000e+0 1.00000000 -3.5721396e-18
vn -0.61379215 -0.74740932 0.25424103
vn -0.66436384 -0.74740932 0.0000000e+0
vn 0.0000000e+0 1.00000000 -3.5721396e-18
vn -0.66436384 -0.74740932 0.0000000e+0
vn -0.61379215 -0.74740932 -0.25424103
vn 0.0000000e+0 1.00000000 -3.5721396e-18
vn -0.61379215 -0.74740932 -0.25424103
vn -0.46977618 -0.74740932 -0.46977618
vn 0.0000000e+0 1.00000000 -3.5721396e-18
vn -0.46977618 -0.74740932 -0.46977618
vn -0.25424103 -0.74740932 -0.61379215
vn 0.0000000e+0 1.00000000 -3.5721396e-18
vn -0.25424103 -0.74740932 -0.61379215
vn 0.0000000e+0 -0.74740932 -0.66436384
vn 0.0000000e+0 1.00000000 -3.5721396e-18
vn 0.0000000e+0 -0.74740932 -0.66436384
vn 0.25424103 -0.74740932 -0.61379215
vn 0.0000000e+0 1.00000000 -3.5721396e-18
vn 0.25424103 -0.74740932 -0.61379215
vn 0.46977618 -0.74740932 -0.46977618
vn 0.0000000e+0 1.00000000 -3.5721396e-18
vn 0.46977618 -0.74740932 -0.46977618
vn 0.61379215 -0.74740932 -0.25424103
vn 0.0000000e+0 -1.00000000 -5.0146002e-17
vn 0.66436384 -0.74740932 0.0000000e+0
vn 0.61379215 -0.74740932 -0.25424103
vn 0.0000000e+0 -1.00000000 -5.0146002e-17
vn 0.66436384 -0.74740932 0.0000000e+0
vn 0.61379215 -0.74740932 0.25424103
vn 0.0000000e+0 -1.00000000 -5.0146002e-17
vn 0.61379215 -0.74740932 0.25424103
vn 0.46977618 -0.74740932 0.46977618
vn 0.0000000e+0 -1.00000000 -5.0146002e-17
vn 0.46977618 -0.74740932 0.46977618
vn 0.25424103 -0.74740932 0.61379215
vn 0.0000000e+0 -1.00000000 -5.0146002e-17
vn 0.25424103 -0.74740932 0.61379215
vn 0.0000000e+0 -0.74740932 0.66436384
vn 0.0000000e+0 -1.00000000 -5.0146002e-17
vn 0.0000000e+0 -0.74740932 0.66436384
vn -0.25424103 -0.74740932 0.61379215
vn 0.0000000e+0 -1.00000000 -5.0146002e-17
vn -0.25424103 -0.74740932 0.61379215
vn -0.46977618 -0.74740932 0.46977618
vn 0.0000000e+0 -1.00000000 -5.0146002e-17
vn -0.46977618 -0.74740932 0.46977618
vn -0.61379215 -0.74740932 0.25424103
vn 0.0000000e+0 -1.00000000 -5.0146002e-17
vn -0.61379215 -0.74740932 0.25424103
vn -0.66436384 -0.74740932 0.0000000e+0
vn 0.0000000e+0 -1.00000000 -5.0146002e-17
vn -0.66436384 -0.74740932 0.0000000e+0
vn -0.61379215 -0.74740932 -0.25424103
vn 0.0000000e+0 -1.00000000 -5.0146002e-17
vn -0.61379215 -0.74740932 -0.25424103
vn -0.46977618 -0.74740932 -0.46977618
vn 0.0000000e+0 -1.00000000 -5.0146002e-17
vn -0.46977618 -0.74740932 -0.46977618
vn -0.25424103 -0.74740932 -0.61379215
vn 0.0000000e+0 -1.00000000 -5.0146002e-17
vn -0.25424103 -0.74740932 -0.61379215
vn 0.0000000e+0 -0.74740932 -0.66436384
vn 0.0000000e+0 -1.00000000 -5.0146002e-17
vn 0.0000000e+0 -0.74740932 -0.66436384
vn 0.25424103 -0.74740932 -0.61379215
vn 0.0000000e+0 -1.00000000 -5.0146002e-17
vn 0.25424103 -0.74740932 -0.61379215
vn 0.46977618 -0.74740932 -0.46977618
vn 0.0000000e+0 -1.00000000 -5.0146002e-17
vn 0.46977618 -0.74740932 -0.46977618
vn 0.61379215 -0.74740932 -0.25424103
g RLV_Mount_2_Collider_2_default
usemtl default
s 1
f 66//229 82//277 81//274 65//226
f 69//238 85//286 84//284 68//236
f 71//244 87//292 86//290 70//242
f 73//250 89//298 88//296 72//248
f 76//259 92//307 91//305 75//257
f 78//265 94//313 93//311 77//263
f 80//271 96//319 95//317 79//269
s 2
f 65//227 81//275 96//320 80//272
f 68//235 84//283 83//281 67//233
f 70//241 86//289 85//287 69//239
f 72//247 88//295 87//293 71//245
f 74//253 90//301 89//299 73//251
f 77//262 93//310 92//308 76//260
f 79//268 95//316 94//314 78//266
s 3
f 65//225 80//270 79//267 78//264 77//261 76//258 75//255 74//252 73//249 72//246 71//243 70//240 69//237 68//234 67//231 66//228
f 82//276 83//279 84//282 85//285 86//288 87//291 88//294 89//297 90//300 91//303 92//306 93//309 94//312 95//315 96//318 81//273
s 4
f 67//232 83//280 82//278 66//230
f 75//256 91//304 90//302 74//254
o RLV_Mount_2_Collider_1
#32 vertices, 18 faces
v 2.50000000 1.13750000 -0.49728092
v 2.50000000 1.13750000 0.49728092
v 2.11939766 1.13750000 1.41613624
v 1.41613624 1.13750000 2.11939766
v 0.49728092 1.13750000 2.50000000
v -0.49728092 1.13750000 2.50000000
v -1.41613624 1.13750000 2.11939766
v -2.11939766 1.13750000 1.41613624
v -2.50000000 1.13750000 0.49728092
v -2.50000000 1.13750000 -0.49728092
v -2.11939766 1.13750000 -1.41613624
v -1.41613624 1.13750000 -2.11939766
v -0.49728092 1.13750000 -2.50000000
v 0.49728092 1.13750000 -2.50000000
v 1.41613624 1.13750000 -2.11939766
v 2.11939766 1.13750000 -1.41613624
v 2.50000000 0.88750000 -0.49728092
v 2.50000000 0.88750000 0.49728092
v 2.11939766 0.88750000 1.41613624
v 1.41613624 0.88750000 2.11939766
v 0.49728092 0.88750000 2.50000000
v -0.49728092 0.88750000 2.50000000
v -1.41613624 0.88750000 2.11939766
v -2.11939766 0.88750000 1.41613624
v -2.50000000 0.88750000 0.49728092
v -2.50000000 0.88750000 -0.49728092
v -2.11939766 0.88750000 -1.41613624
v -1.41613624 0.88750000 -2.11939766
v -0.49728092 0.88750000 -2.50000000
v 0.49728092 0.88750000 -2.50000000
v 1.41613624 0.88750000 -2.11939766
v 2.11939766 0.88750000 -1.41613624
vn 0.0000000e+0 1.00000000 -4.7442478e-17
vn 0.92387953 0.0000000e+0 -0.38268343
vn 1.00000000 0.0000000e+0 0.0000000e+0
vn 0.0000000e+0 1.00000000 -4.7442478e-17
vn 0.92387953 0.0000000e+0 0.38268343
vn 1.00000000 0.0000000e+0 0.0000000e+0
vn 0.0000000e+0 1.00000000 -4.7442478e-17
vn 0.70710678 0.0000000e+0 0.70710678
vn 0.92387953 0.0000000e+0 0.38268343
vn 0.0000000e+0 1.00000000 -4.7442478e-17
vn 0.38268343 0.0000000e+0 0.92387953
vn 0.70710678 0.0000000e+0 0.70710678
vn 0.0000000e+0 1.00000000 -4.7442478e-17
vn 0.0000000e+0 0.0000000e+0 1.00000000
vn 0.38268343 0.0000000e+0 0.92387953
vn 0.0000000e+0 1.00000000 -4.7442478e-17
vn -0.38268343 0.0000000e+0 0.92387953
vn 0.0000000e+0 0.0000000e+0 1.00000000
vn 0.0000000e+0 1.00000000 -4.7442478e-17
vn -0.70710678 0.0000000e+0 0.70710678
vn -0.38268343 0.0000000e+0 0.92387953
vn 0.0000000e+0 1.00000000 -4.7442478e-17
vn -0.92387953 0.0000000e+0 0.38268343
vn -0.70710678 0.0000000e+0 0.70710678
vn 0.0000000e+0 1.00000000 -4.7442478e-17
vn -1.00000000 0.0000000e+0 0.0000000e+0
vn -0.92387953 0.0000000e+0 0.38268343
vn 0.0000000e+0 1.00000000 -4.7442478e-17
vn -0.92387953 0.0000000e+0 -0.38268343
vn -1.00000000 0.0000000e+0 0.0000000e+0
vn 0.0000000e+0 1.00000000 -4.7442478e-17
vn -0.70710678 0.0000000e+0 -0.70710678
vn -0.92387953 0.0000000e+0 -0.38268343
vn 0.0000000e+0 1.00000000 -4.7442478e-17
vn -0.38268343 0.0000000e+0 -0.92387953
vn -0.70710678 0.0000000e+0 -0.70710678
vn 0.0000000e+0 1.00000000 -4.7442478e-17
vn 0.0000000e+0 0.0000000e+0 -1.00000000
vn -0.38268343 0.0000000e+0 -0.92387953
vn 0.0000000e+0 1.00000000 -4.7442478e-17
vn 0.38268343 0.0000000e+0 -0.92387953
vn 0.0000000e+0 0.0000000e+0 -1.00000000
vn 0.0000000e+0 1.00000000 -4.7442478e-17
vn 0.70710678 0.0000000e+0 -0.70710678
vn 0.38268343 0.0000000e+0 -0.92387953
vn 0.0000000e+0 1.00000000 -4.7442478e-17
vn 0.92387953 0.0000000e+0 -0.38268343
vn 0.70710678 0.0000000e+0 -0.70710678
vn 0.0000000e+0 -1.00000000 -4.4651744e-17
vn 0.92387953 0.0000000e+0 -0.38268343
vn 1.00000000 0.0000000e+0 0.0000000e+0
vn 0.0000000e+0 -1.00000000 -4.4651744e-17
vn 0.92387953 0.0000000e+0 0.38268343
vn 1.00000000 0.0000000e+0 0.0000000e+0
vn 0.0000000e+0 -1.00000000 -4.4651744e-17
vn 0.70710678 0.0000000e+0 0.70710678
vn 0.92387953 0.0000000e+0 0.38268343
vn 0.0000000e+0 -1.00000000 -4.4651744e-17
vn 0.38268343 0.0000000e+0 0.92387953
vn 0.70710678 0.0000000e+0 0.70710678
vn 0.0000000e+0 -1.00000000 -4.4651744e-17
vn 0.0000000e+0 0.0000000e+0 1.00000000
vn 0.38268343 0.0000000e+0 0.92387953
vn 0.0000000e+0 -1.00000000 -4.4651744e-17
vn -0.38268343 0.0000000e+0 0.92387953
vn 0.0000000e+0 0.0000000e+0 1.00000000
vn 0.0000000e+0 -1.00000000 -4.4651744e-17
vn -0.70710678 0.0000000e+0 0.70710678
vn -0.38268343 0.0000000e+0 0.92387953
vn 0.0000000e+0 -1.00000000 -4.4651744e-17
vn -0.92387953 0.0000000e+0 0.38268343
vn -0.70710678 0.0000000e+0 0.70710678
vn 0.0000000e+0 -1.00000000 -4.4651744e-17
vn -1.00000000 0.0000000e+0 0.0000000e+0
vn -0.92387953 0.0000000e+0 0.38268343
vn 0.0000000e+0 -1.00000000 -4.4651744e-17
vn -0.92387953 0.0000000e+0 -0.38268343
vn -1.00000000 0.0000000e+0 0.0000000e+0
vn 0.0000000e+0 -1.00000000 -4.4651744e-17
vn -0.70710678 0.0000000e+0 -0.70710678
vn -0.92387953 0.0000000e+0 -0.38268343
vn 0.0000000e+0 -1.00000000 -4.4651744e-17
vn -0.38268343 0.0000000e+0 -0.92387953
vn -0.70710678 0.0000000e+0 -0.70710678
vn 0.0000000e+0 -1.00000000 -4.4651744e-17
vn 0.0000000e+0 0.0000000e+0 -1.00000000
vn -0.38268343 0.0000000e+0 -0.92387953
vn 0.0000000e+0 -1.00000000 -4.4651744e-17
vn 0.38268343 0.0000000e+0 -0.92387953
vn 0.0000000e+0 0.0000000e+0 -1.00000000
vn 0.0000000e+0 -1.00000000 -4.4651744e-17
vn 0.70710678 0.0000000e+0 -0.70710678
vn 0.38268343 0.0000000e+0 -0.92387953
vn 0.0000000e+0 -1.00000000 -4.4651744e-17
vn 0.92387953 0.0000000e+0 -0.38268343
vn 0.70710678 0.0000000e+0 -0.70710678
g RLV_Mount_2_Collider_1_default
usemtl default
s 1
f 97//322 113//370 128//415 112//367
f 99//329 115//377 114//373 98//325
f 101//335 117//383 116//379 100//331
f 103//341 119//389 118//385 102//337
f 105//347 121//395 120//391 104//343
f 108//356 124//404 123//400 107//352
f 110//362 126//410 125//406 109//358
s 2
f 98//326 114//374 113//371 97//323
f 100//332 116//380 115//376 99//328
f 102//338 118//386 117//382 101//334
f 104//344 120//392 119//388 103//340
f 106//350 122//398 121//394 105//346
f 109//359 125//407 124//403 108//355
f 111//365 127//413 126//409 110//361
s 3
f 97//321 112//366 111//363 110//360 109//357 108//354 107//351 106//348 105//345 104//342 103//339 102//336 101//333 100//330 99//327 98//324
f 114//372 115//375 116//378 117//381 118//384 119//387 120//390 121//393 122//396 123//399 124//402 125//405 126//408 127//411 128//414 113//369
s 4
f 107//353 123//401 122//397 106//349
f 112//368 128//416 127//412 111//364
