# Exported from Wings 3D 1.5.4
mtllib TLV_2_Engine_1_Fairing.mtl
o TLV_2_Engine_1_Fairing
#78 vertices, 50 faces
v -0.62500000 -0.62375000 -1.2576745e-17
v 0.62500000 -0.62375000 6.3963680e-17
v 0.60370364 -0.62375000 -0.16176190
v 0.54126588 -0.62375000 -0.31250000
v 0.44194174 -0.62375000 -0.44194174
v 0.31250000 -0.62375000 -0.54126588
v 0.16176190 -0.62375000 -0.60370364
v -1.3301629e-16 -0.62375000 -0.62500000
v -0.16176190 -0.62375000 -0.60370364
v -0.31250000 -0.62375000 -0.54126588
v -0.44194174 -0.62375000 -0.44194174
v -0.54126588 -0.62375000 -0.31250000
v -0.60370364 -0.62375000 -0.16176190
v -0.62500000 0.56125000 -1.2576745e-17
v 0.62500000 0.56125000 6.3963680e-17
v 0.60370364 0.56125000 -0.16176190
v 0.54126588 0.56125000 -0.31250000
v 0.44194174 0.56125000 -0.44194174
v 0.31250000 0.56125000 -0.54126588
v 0.16176190 0.56125000 -0.60370364
v 1.2104354e-17 0.56125000 -0.62500000
v -0.16176190 0.56125000 -0.60370364
v -0.31250000 0.56125000 -0.54126588
v -0.44194174 0.56125000 -0.44194174
v -0.54126588 0.56125000 -0.31250000
v -0.60370364 0.56125000 -0.16176190
v -0.60000000 0.56125000 -1.1158970e-17
v 0.60000000 0.56125000 6.2319838e-17
v 0.57955550 0.56125000 -0.15529143
v 0.51961524 0.56125000 -0.30000000
v 0.42426407 0.56125000 -0.42426407
v 0.30000000 0.56125000 -0.51961524
v 0.15529143 0.56125000 -0.57955550
v 1.0148709e-17 0.56125000 -0.60000000
v -0.15529143 0.56125000 -0.57955550
v -0.30000000 0.56125000 -0.51961524
v -0.42426407 0.56125000 -0.42426407
v -0.51961524 0.56125000 -0.30000000
v -0.57955550 0.56125000 -0.15529143
v -0.60000000 -0.62375000 -1.1158970e-17
v -0.57955550 -0.62375000 -0.15529143
v -0.51961524 -0.62375000 -0.30000000
v -0.42426407 -0.62375000 -0.42426407
v -0.30000000 -0.62375000 -0.51961524
v -0.15529143 -0.62375000 -0.57955550
v -1.3497194e-16 -0.62375000 -0.60000000
v 0.15529143 -0.62375000 -0.57955550
v 0.30000000 -0.62375000 -0.51961524
v 0.42426407 -0.62375000 -0.42426407
v 0.51961524 -0.62375000 -0.30000000
v 0.57955550 -0.62375000 -0.15529143
v 0.60000000 -0.62375000 6.2319838e-17
v -0.62500000 -0.62375000 -1.2576745e-17
v 0.62500000 -0.62375000 6.3963680e-17
v 0.60370364 -0.62375000 -0.16176190
v 0.54126588 -0.62375000 -0.31250000
v 0.44194174 -0.62375000 -0.44194174
v 0.31250000 -0.62375000 -0.54126588
v 0.16176190 -0.62375000 -0.60370364
v -1.3301629e-16 -0.62375000 -0.62500000
v -0.16176190 -0.62375000 -0.60370364
v -0.31250000 -0.62375000 -0.54126588
v -0.44194174 -0.62375000 -0.44194174
v -0.54126588 -0.62375000 -0.31250000
v -0.60370364 -0.62375000 -0.16176190
v -0.62500000 0.56125000 -1.2576745e-17
v 0.62500000 0.56125000 6.3963680e-17
v 0.60370364 0.56125000 -0.16176190
v 0.54126588 0.56125000 -0.31250000
v 0.44194174 0.56125000 -0.44194174
v 0.31250000 0.56125000 -0.54126588
v 0.16176190 0.56125000 -0.60370364
v 1.2104354e-17 0.56125000 -0.62500000
v -0.16176190 0.56125000 -0.60370364
v -0.31250000 0.56125000 -0.54126588
v -0.44194174 0.56125000 -0.44194174
v -0.54126588 0.56125000 -0.31250000
v -0.60370364 0.56125000 -0.16176190
vt 0.39818789 0.72185716
vt 0.39818789 0.60712219
vt 0.41014917 0.59759265
vt 0.41014917 0.59759265
vt 0.41346081 0.59510423
vt 0.41346081 0.59510423
vt 0.41396448 0.72185716
vt 0.41396448 0.60712219
vt 0.42244356 0.59759265
vt 0.42526343 0.59510423
vt 0.42526343 0.59510423
vt 0.42976186 0.60712219
vt 0.42976186 0.72185716
vt 0.43536025 0.59759265
vt 0.43766345 0.59510423
vt 0.43766345 0.59510423
vt 0.44555925 0.60712219
vt 0.44555925 0.72185716
vt 0.44790778 0.59759265
vt 0.44970907 0.59510423
vt 0.44970907 0.59510423
vt 0.46109744 0.59759265
vt 0.46109744 0.59759265
vt 0.46135663 0.60712219
vt 0.46135663 0.72185716
vt 0.46237115 0.59510423
vt 0.46237115 0.59510423
vt 0.47645713 0.59759265
vt 0.47711645 0.59510423
vt 0.47711645 0.59510423
vt 0.47715401 0.60712219
vt 0.47715401 0.72185716
vt 0.49294011 0.59510423
vt 0.49294011 0.59759265
vt 0.49294011 0.59510423
vt 0.49294011 0.59759265
vt 0.49294174 0.72185716
vt 0.49294174 0.60712219
vt 0.49295140 0.60712219
vt 0.49295140 0.72185716
vt 0.50873912 0.72185716
vt 0.50873912 0.60712219
vt 0.50876377 0.59510423
vt 0.50876377 0.59510423
vt 0.50942309 0.59759265
vt 0.52350907 0.59510423
vt 0.52350907 0.59510423
vt 0.52453651 0.72185716
vt 0.52453651 0.60712219
vt 0.52478278 0.59759265
vt 0.53617115 0.59510423
vt 0.53617115 0.59510423
vt 0.53797244 0.59759265
vt 0.54033389 0.60712219
vt 0.54033389 0.72185716
vt 0.54821677 0.59510423
vt 0.54821677 0.59510423
vt 0.55051997 0.59759265
vt 0.55613127 0.60712219
vt 0.55613127 0.72185716
vt 0.56061679 0.59510423
vt 0.56061679 0.59510423
vt 0.56343666 0.59759265
vt 0.57192865 0.60712219
vt 0.57192865 0.72185716
vt 0.57241941 0.59510423
vt 0.57241941 0.59510423
vt 0.57573105 0.59759265
vt 0.58766275 0.72185716
vt 0.58766275 0.60712219
vt 0.59691697 0.72185716
vt 0.59691697 0.60714714
vt 0.59691697 0.72185716
vt 0.59691697 0.60714714
vt 0.59691697 0.72185716
vt 0.61199102 0.60714714
vt 0.61199102 0.72185716
vt 0.61199102 0.60714714
vt 0.61199102 0.72185716
vt 0.62723367 0.60714714
vt 0.62723367 0.72185716
vt 0.62723367 0.60714714
vt 0.62723367 0.72185716
vt 0.63637099 0.60714714
vt 0.63637099 0.72185716
vt 0.63637099 0.60614714
vt 0.63637099 0.72085716
vt 0.63879103 0.60614714
vt 0.63879103 0.72085716
vt 0.63879103 0.60714714
vt 0.63879103 0.72185716
vn 0.0000000e+0 -1.00000000 0.0000000e+0
vn -5.6711002e-17 1.0665751e-32 1.00000000
vn 0.0000000e+0 -1.00000000 0.0000000e+0
vn -6.5753678e-17 1.2392587e-32 1.00000000
vn 0.0000000e+0 -1.00000000 0.0000000e+0
vn 0.0000000e+0 -1.00000000 0.0000000e+0
vn -2.1134579e-16 -1.00000000 -2.7543120e-16
vn -2.1134579e-16 -1.00000000 -2.7543120e-16
vn -2.1134579e-16 -1.00000000 -2.7543120e-16
vn -2.1134579e-16 -1.00000000 -2.7543120e-16
vn 0.0000000e+0 -1.00000000 0.0000000e+0
vn 0.0000000e+0 -1.00000000 0.0000000e+0
vn 0.0000000e+0 -1.00000000 0.0000000e+0
vn 0.0000000e+0 -1.00000000 0.0000000e+0
vn 0.0000000e+0 -1.00000000 0.0000000e+0
vn 0.0000000e+0 -1.00000000 0.0000000e+0
vn 0.0000000e+0 -1.00000000 0.0000000e+0
vn 0.0000000e+0 -1.00000000 0.0000000e+0
vn 0.0000000e+0 -1.00000000 0.0000000e+0
vn 0.0000000e+0 -1.00000000 0.0000000e+0
vn -2.1134579e-16 -1.00000000 2.7543120e-16
vn -2.1134579e-16 -1.00000000 2.7543120e-16
vn -2.1134579e-16 -1.00000000 2.7543120e-16
vn -2.1134579e-16 -1.00000000 2.7543120e-16
vn 0.0000000e+0 -1.00000000 0.0000000e+0
vn 0.0000000e+0 -1.00000000 0.0000000e+0
vn 0.0000000e+0 1.00000000 0.0000000e+0
vn -5.6711002e-17 1.0665751e-32 1.00000000
vn 0.0000000e+0 1.00000000 0.0000000e+0
vn -6.5753678e-17 1.2392587e-32 1.00000000
vn 0.0000000e+0 1.00000000 0.0000000e+0
vn 0.0000000e+0 1.00000000 0.0000000e+0
vn 2.1134579e-16 1.00000000 2.7543120e-16
vn 2.1134579e-16 1.00000000 2.7543120e-16
vn 2.1134579e-16 1.00000000 2.7543120e-16
vn 2.1134579e-16 1.00000000 2.7543120e-16
vn 0.0000000e+0 1.00000000 0.0000000e+0
vn 0.0000000e+0 1.00000000 0.0000000e+0
vn 0.0000000e+0 1.00000000 0.0000000e+0
vn 0.0000000e+0 1.00000000 0.0000000e+0
vn 0.0000000e+0 1.00000000 0.0000000e+0
vn 0.0000000e+0 1.00000000 0.0000000e+0
vn 0.0000000e+0 1.00000000 0.0000000e+0
vn 0.0000000e+0 1.00000000 0.0000000e+0
vn 0.0000000e+0 1.00000000 0.0000000e+0
vn 0.0000000e+0 1.00000000 0.0000000e+0
vn 2.1134579e-16 1.00000000 -2.7543120e-16
vn 2.1134579e-16 1.00000000 -2.7543120e-16
vn 2.1134579e-16 1.00000000 -2.7543120e-16
vn 2.1134579e-16 1.00000000 -2.7543120e-16
vn 0.0000000e+0 1.00000000 0.0000000e+0
vn 0.0000000e+0 1.00000000 0.0000000e+0
vn 0.0000000e+0 1.00000000 0.0000000e+0
vn 0.99144486 -1.8575484e-16 0.13052619
vn -5.6711002e-17 1.0665751e-32 1.00000000
vn 0.0000000e+0 1.00000000 0.0000000e+0
vn -0.99144486 1.8575484e-16 0.13052619
vn -6.5753678e-17 1.2392587e-32 1.00000000
vn 0.0000000e+0 1.00000000 0.0000000e+0
vn 0.0000000e+0 1.00000000 0.0000000e+0
vn -0.96592583 1.8087678e-16 0.25881905
vn -0.96592583 1.8087678e-16 0.25881905
vn 2.1134579e-16 1.00000000 2.7543120e-16
vn 2.1134579e-16 1.00000000 2.7543120e-16
vn -0.86602540 1.4375874e-16 0.50000000
vn -0.86602540 1.4375874e-16 0.50000000
vn 2.1134579e-16 1.00000000 2.7543120e-16
vn 2.1134579e-16 1.00000000 2.7543120e-16
vn -0.70710678 8.4841226e-17 0.70710678
vn -0.70710678 8.4841226e-17 0.70710678
vn 0.0000000e+0 1.00000000 0.0000000e+0
vn 0.0000000e+0 1.00000000 0.0000000e+0
vn -0.50000000 4.7134014e-17 0.86602540
vn -0.50000000 4.7134014e-17 0.86602540
vn 0.0000000e+0 1.00000000 0.0000000e+0
vn 0.0000000e+0 1.00000000 0.0000000e+0
vn -0.25881905 2.6512883e-17 0.96592583
vn -0.25881905 2.6512883e-17 0.96592583
vn 0.0000000e+0 1.00000000 0.0000000e+0
vn 0.0000000e+0 1.00000000 0.0000000e+0
vn -1.1198031e-16 -2.9526741e-32 1.00000000
vn -1.1198031e-16 -2.9526741e-32 1.00000000
vn 0.0000000e+0 1.00000000 0.0000000e+0
vn 0.0000000e+0 1.00000000 0.0000000e+0
vn 0.25881905 -2.6512883e-17 0.96592583
vn 0.25881905 -2.6512883e-17 0.96592583
vn 0.0000000e+0 1.00000000 0.0000000e+0
vn 0.0000000e+0 1.00000000 0.0000000e+0
vn 0.50000000 -4.9490715e-17 0.86602540
vn 0.50000000 -4.9490715e-17 0.86602540
vn 2.1134579e-16 1.00000000 -2.7543120e-16
vn 2.1134579e-16 1.00000000 -2.7543120e-16
vn 0.70710678 -8.7197926e-17 0.70710678
vn 0.70710678 -8.7197926e-17 0.70710678
vn 2.1134579e-16 1.00000000 -2.7543120e-16
vn 2.1134579e-16 1.00000000 -2.7543120e-16
vn 0.86602540 -1.4375874e-16 0.50000000
vn 0.86602540 -1.4375874e-16 0.50000000
vn 0.0000000e+0 1.00000000 0.0000000e+0
vn 0.0000000e+0 1.00000000 0.0000000e+0
vn 0.96592583 -1.8087678e-16 0.25881905
vn 0.96592583 -1.8087678e-16 0.25881905
vn 0.0000000e+0 -1.00000000 0.0000000e+0
vn 0.99144486 -1.8575484e-16 0.13052619
vn -5.6711002e-17 1.0665751e-32 1.00000000
vn 0.0000000e+0 -1.00000000 0.0000000e+0
vn 0.0000000e+0 -1.00000000 0.0000000e+0
vn 0.96592583 -1.8087678e-16 0.25881905
vn 0.96592583 -1.8087678e-16 0.25881905
vn -2.1134579e-16 -1.00000000 2.7543120e-16
vn -2.1134579e-16 -1.00000000 2.7543120e-16
vn 0.86602540 -1.4375874e-16 0.50000000
vn 0.86602540 -1.4375874e-16 0.50000000
vn -2.1134579e-16 -1.00000000 2.7543120e-16
vn -2.1134579e-16 -1.00000000 2.7543120e-16
vn 0.70710678 -8.7197926e-17 0.70710678
vn 0.70710678 -8.7197926e-17 0.70710678
vn 0.0000000e+0 -1.00000000 0.0000000e+0
vn 0.0000000e+0 -1.00000000 0.0000000e+0
vn 0.50000000 -4.9490715e-17 0.86602540
vn 0.50000000 -4.9490715e-17 0.86602540
vn 0.0000000e+0 -1.00000000 0.0000000e+0
vn 0.0000000e+0 -1.00000000 0.0000000e+0
vn 0.25881905 -2.6512883e-17 0.96592583
vn 0.25881905 -2.6512883e-17 0.96592583
vn 0.0000000e+0 -1.00000000 0.0000000e+0
vn 0.0000000e+0 -1.00000000 0.0000000e+0
vn -1.1198031e-16 -2.9526741e-32 1.00000000
vn -1.1198031e-16 -2.9526741e-32 1.00000000
vn 0.0000000e+0 -1.00000000 0.0000000e+0
vn 0.0000000e+0 -1.00000000 0.0000000e+0
vn -0.25881905 2.6512883e-17 0.96592583
vn -0.25881905 2.6512883e-17 0.96592583
vn 0.0000000e+0 -1.00000000 0.0000000e+0
vn 0.0000000e+0 -1.00000000 0.0000000e+0
vn -0.50000000 4.7134014e-17 0.86602540
vn -0.50000000 4.7134014e-17 0.86602540
vn -2.1134579e-16 -1.00000000 -2.7543120e-16
vn -2.1134579e-16 -1.00000000 -2.7543120e-16
vn -0.70710678 8.4841226e-17 0.70710678
vn -0.70710678 8.4841226e-17 0.70710678
vn -2.1134579e-16 -1.00000000 -2.7543120e-16
vn -2.1134579e-16 -1.00000000 -2.7543120e-16
vn -0.86602540 1.4375874e-16 0.50000000
vn -0.86602540 1.4375874e-16 0.50000000
vn 0.0000000e+0 -1.00000000 0.0000000e+0
vn 0.0000000e+0 -1.00000000 0.0000000e+0
vn -0.96592583 1.8087678e-16 0.25881905
vn -0.96592583 1.8087678e-16 0.25881905
vn 0.0000000e+0 -1.00000000 0.0000000e+0
vn -0.99144486 1.8575484e-16 0.13052619
vn -6.5753678e-17 1.2392587e-32 1.00000000
vn -0.99144486 1.8505387e-16 -0.13052619
vn 0.99144486 -1.8617541e-16 -0.13052619
vn 0.96592583 -1.8212583e-16 -0.25881905
vn 0.96592583 -1.8212583e-16 -0.25881905
vn 0.86602540 -1.4479569e-16 -0.50000000
vn 0.86602540 -1.4479569e-16 -0.50000000
vn 0.70710678 -8.5972442e-17 -0.70710678
vn 0.70710678 -8.5972442e-17 -0.70710678
vn 0.50000000 -4.9773519e-17 -0.86602540
vn 0.50000000 -4.9773519e-17 -0.86602540
vn 0.25881905 -2.8280409e-17 -0.96592583
vn 0.25881905 -2.8280409e-17 -0.96592583
vn 4.3392370e-16 2.9526741e-32 -1.00000000
vn 4.3392370e-16 2.9526741e-32 -1.00000000
vn -0.25881905 2.8280409e-17 -0.96592583
vn -0.25881905 2.8280409e-17 -0.96592583
vn -0.50000000 4.9773519e-17 -0.86602540
vn -0.50000000 4.9773519e-17 -0.86602540
vn -0.70710678 8.5972442e-17 -0.70710678
vn -0.70710678 8.5972442e-17 -0.70710678
vn -0.86602540 1.4479569e-16 -0.50000000
vn -0.86602540 1.4479569e-16 -0.50000000
vn -0.96592583 1.8156022e-16 -0.25881905
vn -0.96592583 1.8156022e-16 -0.25881905
vn -0.99144486 1.8505387e-16 -0.13052619
vn 0.99144486 -1.8617541e-16 -0.13052619
vn 0.96592583 -1.8212583e-16 -0.25881905
vn 0.96592583 -1.8212583e-16 -0.25881905
vn 0.86602540 -1.4479569e-16 -0.50000000
vn 0.86602540 -1.4479569e-16 -0.50000000
vn 0.70710678 -8.5972442e-17 -0.70710678
vn 0.70710678 -8.5972442e-17 -0.70710678
vn 0.50000000 -4.9773519e-17 -0.86602540
vn 0.50000000 -4.9773519e-17 -0.86602540
vn 0.25881905 -2.8280409e-17 -0.96592583
vn 0.25881905 -2.8280409e-17 -0.96592583
vn 4.3392370e-16 2.9526741e-32 -1.00000000
vn 4.3392370e-16 2.9526741e-32 -1.00000000
vn -0.25881905 2.8280409e-17 -0.96592583
vn -0.25881905 2.8280409e-17 -0.96592583
vn -0.50000000 4.9773519e-17 -0.86602540
vn -0.50000000 4.9773519e-17 -0.86602540
vn -0.70710678 8.5972442e-17 -0.70710678
vn -0.70710678 8.5972442e-17 -0.70710678
vn -0.86602540 1.4479569e-16 -0.50000000
vn -0.86602540 1.4479569e-16 -0.50000000
vn -0.96592583 1.8156022e-16 -0.25881905
vn -0.96592583 1.8156022e-16 -0.25881905
g TLV_2_Engine_1_Fairing_TLV_2_Engine_1_Fairing_auv
usemtl TLV_2_Engine_1_Fairing_auv
s 1
f 1/91/2 40/87/105 27/86/55 14/90/28
f 15/89/30 28/85/58 52/84/152 2/88/4
s 2
f 27/80/54 40/81/104 41/77/109 39/76/102
f 29/76/61 51/77/148 52/75/151 28/74/57
f 30/80/65 50/81/144 51/77/149 29/76/62
f 31/76/69 49/77/140 50/73/145 30/74/66
f 32/80/73 48/81/136 49/77/141 31/76/70
f 33/76/77 47/77/132 48/73/137 32/74/74
f 34/80/81 46/81/128 47/77/133 33/76/78
f 35/76/85 45/77/124 46/73/129 34/74/82
f 36/80/89 44/81/120 45/77/125 35/76/86
f 37/78/93 43/79/116 44/71/121 36/72/90
f 38/82/97 42/83/112 43/79/117 37/78/94
f 39/76/101 41/77/108 42/73/113 38/74/98
f 53/70/153 66/69/177 78/65/199 65/64/175
f 55/8/156 68/7/180 67/1/178 54/2/154
f 56/12/158 69/13/182 68/7/179 55/8/155
f 57/17/160 70/18/184 69/13/181 56/12/157
f 58/24/162 71/25/186 70/18/183 57/17/159
f 59/31/164 72/32/188 71/25/185 58/24/161
f 60/39/166 73/40/190 72/32/187 59/31/163
f 61/42/168 74/41/192 73/37/189 60/38/165
f 62/49/170 75/48/194 74/41/191 61/42/167
f 63/54/172 76/55/196 75/48/193 62/49/169
f 64/59/174 77/60/198 76/55/195 63/54/171
f 65/64/176 78/65/200 77/60/197 64/59/173
s 3
f 2/4/3 52/5/150 51/10/147 3/9/6
f 3/9/5 51/10/146 50/16/143 4/14/8
f 4/14/7 50/16/142 49/20/139 5/19/10
f 5/19/9 49/20/138 48/26/135 6/23/12
f 6/23/11 48/26/134 47/29/131 7/28/14
f 7/28/13 47/29/130 46/35/127 8/36/16
f 8/36/15 46/35/126 45/43/123 9/45/18
f 9/45/17 45/43/122 44/46/119 10/50/20
f 10/50/19 44/46/118 43/51/115 11/53/22
f 11/53/21 43/51/114 42/56/111 12/58/24
f 12/58/23 42/56/110 41/62/107 13/63/26
f 13/63/25 41/62/106 40/67/103 1/68/1
f 14/3/27 27/6/53 39/11/100 26/9/52
f 16/63/31 29/61/59 28/66/56 15/68/29
f 17/58/33 30/57/63 29/61/60 16/63/32
f 18/53/35 31/52/67 30/57/64 17/58/34
f 19/50/37 32/47/71 31/52/68 18/53/36
f 20/45/39 33/44/75 32/47/72 19/50/38
f 21/34/41 34/33/79 33/44/76 20/45/40
f 22/28/43 35/30/83 34/33/80 21/34/42
f 23/22/45 36/27/87 35/30/84 22/28/44
f 24/19/47 37/21/91 36/27/88 23/22/46
f 25/14/49 38/15/95 37/21/92 24/19/48
f 26/9/51 39/11/99 38/15/96 25/14/50
