# Exported from Wings 3D 1.5.4
mtllib RLV_1_Fairing_1.mtl
o RLV_1_Fairing_1
#96 vertices, 50 faces
v 2.50000000 0.12500000 2.5153490e-17
v 2.47861215 0.12500000 0.32631548
v 2.41481457 0.12500000 0.64704761
v 2.30969883 0.12500000 0.95670858
v 2.16506351 0.12500000 1.25000000
v 1.98338335 0.12500000 1.52190357
v 1.76776695 0.12500000 1.76776695
v 1.52190357 0.12500000 1.98338335
v 1.25000000 0.12500000 2.16506351
v 0.95670858 0.12500000 2.30969883
v 0.64704761 0.12500000 2.41481457
v 0.32631548 0.12500000 2.47861215
v 4.4451439e-16 0.12500000 2.50000000
v -0.32631548 0.12500000 2.47861215
v -0.64704761 0.12500000 2.41481457
v -0.95670858 0.12500000 2.30969883
v -1.25000000 0.12500000 2.16506351
v -1.52190357 0.12500000 1.98338335
v -1.76776695 0.12500000 1.76776695
v -1.98338335 0.12500000 1.52190357
v -2.16506351 0.12500000 1.25000000
v -2.30969883 0.12500000 0.95670858
v -2.41481457 0.12500000 0.64704761
v -2.47861215 0.12500000 0.32631548
v -2.50000000 0.12500000 3.3131519e-16
v -2.47861215 0.12500000 -0.32631548
v -2.41481457 0.12500000 -0.64704761
v -2.30969883 0.12500000 -0.95670858
v -2.16506351 0.12500000 -1.25000000
v -1.98338335 0.12500000 -1.52190357
v -1.76776695 0.12500000 -1.76776695
v -1.52190357 0.12500000 -1.98338335
v -1.25000000 0.12500000 -2.16506351
v -0.95670858 0.12500000 -2.30969883
v -0.64704761 0.12500000 -2.41481457
v -0.32631548 0.12500000 -2.47861215
v -1.6780901e-16 0.12500000 -2.50000000
v 0.32631548 0.12500000 -2.47861215
v 0.64704761 0.12500000 -2.41481457
v 0.95670858 0.12500000 -2.30969883
v 1.25000000 0.12500000 -2.16506351
v 1.52190357 0.12500000 -1.98338335
v 1.76776695 0.12500000 -1.76776695
v 1.98338335 0.12500000 -1.52190357
v 2.16506351 0.12500000 -1.25000000
v 2.30969883 0.12500000 -0.95670858
v 2.41481457 0.12500000 -0.64704761
v 2.47861215 0.12500000 -0.32631548
v 2.50000000 -0.12500000 2.5153490e-17
v 2.47861215 -0.12500000 0.32631548
v 2.41481457 -0.12500000 0.64704761
v 2.30969883 -0.12500000 0.95670858
v 2.16506351 -0.12500000 1.25000000
v 1.98338335 -0.12500000 1.52190357
v 1.76776695 -0.12500000 1.76776695
v 1.52190357 -0.12500000 1.98338335
v 1.25000000 -0.12500000 2.16506351
v 0.95670858 -0.12500000 2.30969883
v 0.64704761 -0.12500000 2.41481457
v 0.32631548 -0.12500000 2.47861215
v 4.4451439e-16 -0.12500000 2.50000000
v -0.32631548 -0.12500000 2.47861215
v -0.64704761 -0.12500000 2.41481457
v -0.95670858 -0.12500000 2.30969883
v -1.25000000 -0.12500000 2.16506351
v -1.52190357 -0.12500000 1.98338335
v -1.76776695 -0.12500000 1.76776695
v -1.98338335 -0.12500000 1.52190357
v -2.16506351 -0.12500000 1.25000000
v -2.30969883 -0.12500000 0.95670858
v -2.41481457 -0.12500000 0.64704761
v -2.47861215 -0.12500000 0.32631548
v -2.50000000 -0.12500000 3.3131519e-16
v -2.47861215 -0.12500000 -0.32631548
v -2.41481457 -0.12500000 -0.64704761
v -2.30969883 -0.12500000 -0.95670858
v -2.16506351 -0.12500000 -1.25000000
v -1.98338335 -0.12500000 -1.52190357
v -1.76776695 -0.12500000 -1.76776695
v -1.52190357 -0.12500000 -1.98338335
v -1.25000000 -0.12500000 -2.16506351
v -0.95670858 -0.12500000 -2.30969883
v -0.64704761 -0.12500000 -2.41481457
v -0.32631548 -0.12500000 -2.47861215
v -1.6780901e-16 -0.12500000 -2.50000000
v 0.32631548 -0.12500000 -2.47861215
v 0.64704761 -0.12500000 -2.41481457
v 0.95670858 -0.12500000 -2.30969883
v 1.25000000 -0.12500000 -2.16506351
v 1.52190357 -0.12500000 -1.98338335
v 1.76776695 -0.12500000 -1.76776695
v 1.98338335 -0.12500000 -1.52190357
v 2.16506351 -0.12500000 -1.25000000
v 2.30969883 -0.12500000 -0.95670858
v 2.41481457 -0.12500000 -0.64704761
v 2.47861215 -0.12500000 -0.32631548
vt 0.59975438 0.98306587
vt 0.59975438 0.98306587
vt 0.59980785 0.98225008
vt 0.59980785 0.98225008
vt 0.59980785 0.98388166
vt 0.59980785 0.98388166
vt 0.59996735 0.98468349
vt 0.59996735 0.98144825
vt 0.59996735 0.98144825
vt 0.59996735 0.98468349
vt 0.60023014 0.98545764
vt 0.60023014 0.98067410
vt 0.60023014 0.98067410
vt 0.60023014 0.98545764
vt 0.60059172 0.98619087
vt 0.60059172 0.97994087
vt 0.60059172 0.97994087
vt 0.60059172 0.98619087
vt 0.60104592 0.98687063
vt 0.60104592 0.97926111
vt 0.60104592 0.97926111
vt 0.60104592 0.98687063
vt 0.60158497 0.98748529
vt 0.60158497 0.97864645
vt 0.60158497 0.98748529
vt 0.60158497 0.97864645
vt 0.60219962 0.98802433
vt 0.60219962 0.97810741
vt 0.60219962 0.97810741
vt 0.60219962 0.98802433
vt 0.60287938 0.98847853
vt 0.60287938 0.97765321
vt 0.60287938 0.97765321
vt 0.60287938 0.98847853
vt 0.60361261 0.98884012
vt 0.60361261 0.97729162
vt 0.60361261 0.97729162
vt 0.60361261 0.98884012
vt 0.60438676 0.98910291
vt 0.60438676 0.97702884
vt 0.60438676 0.97702884
vt 0.60438676 0.98910291
vt 0.60518859 0.98926240
vt 0.60518859 0.98926240
vt 0.60518859 0.97686934
vt 0.60518859 0.97686934
vt 0.60600438 0.98931587
vt 0.60600438 0.98931587
vt 0.60600438 0.97681587
vt 0.60600438 0.97681587
vt 0.60682017 0.98926240
vt 0.60682017 0.98926240
vt 0.60682017 0.97686934
vt 0.60682017 0.97686934
vt 0.60762200 0.98910291
vt 0.60762200 0.98910291
vt 0.60762200 0.97702884
vt 0.60762200 0.97702884
vt 0.60839615 0.98884012
vt 0.60839615 0.98884012
vt 0.60839615 0.97729162
vt 0.60839615 0.97729162
vt 0.60912938 0.98847853
vt 0.60912938 0.97765321
vt 0.60912938 0.97765321
vt 0.60912938 0.98847853
vt 0.60980914 0.97810741
vt 0.60980914 0.97810741
vt 0.60980914 0.98802433
vt 0.60980914 0.98802433
vt 0.61042380 0.98748529
vt 0.61042380 0.97864645
vt 0.61042380 0.97864645
vt 0.61042380 0.98748529
vt 0.61096284 0.97926111
vt 0.61096284 0.98687063
vt 0.61096284 0.98687063
vt 0.61096284 0.97926111
vt 0.61141704 0.98619087
vt 0.61141704 0.97994087
vt 0.61141704 0.97994087
vt 0.61141704 0.98619087
vt 0.61177863 0.98067410
vt 0.61177863 0.98545764
vt 0.61177863 0.98545764
vt 0.61177863 0.98067410
vt 0.61204142 0.98144825
vt 0.61204142 0.98468349
vt 0.61204142 0.98468349
vt 0.61204142 0.98144825
vt 0.61220091 0.98225008
vt 0.61220091 0.98225008
vt 0.61220091 0.98388166
vt 0.61220091 0.98388166
vt 0.61225438 0.98306587
vt 0.61225438 0.98306587
vt 0.64056983 0.97570718
vt 0.64056983 0.98125210
vt 0.64056983 0.97570718
vt 0.64056983 0.98125210
vt 0.64056983 0.97570718
vt 0.64056983 0.98125210
vt 0.64056983 0.97570718
vt 0.64056983 0.98125210
vt 0.64220491 0.97570718
vt 0.64220491 0.98125210
vt 0.64220491 0.97570718
vt 0.64220491 0.98125210
vt 0.64220491 0.97570718
vt 0.64220491 0.98125210
vt 0.64220491 0.97570718
vt 0.64220491 0.98125210
vt 0.64383998 0.97570718
vt 0.64383998 0.98125210
vt 0.64383998 0.98125210
vt 0.64383998 0.97570718
vt 0.64383998 0.97570718
vt 0.64383998 0.98125210
vt 0.64383998 0.97570718
vt 0.64383998 0.98125210
vt 0.64547506 0.97570718
vt 0.64547506 0.98125210
vt 0.64547506 0.97570718
vt 0.64547506 0.98125210
vt 0.64547506 0.97570718
vt 0.64547506 0.98125210
vt 0.64547506 0.97570718
vt 0.64547506 0.98125210
vt 0.64711014 0.97570718
vt 0.64711014 0.98125210
vt 0.64711014 0.97570718
vt 0.64711014 0.98125210
vt 0.64711014 0.97570718
vt 0.64711014 0.98125210
vt 0.64711014 0.98125210
vt 0.64711014 0.97570718
vt 0.64874522 0.97570718
vt 0.64874522 0.98125210
vt 0.64874522 0.97570718
vt 0.64874522 0.98125210
vt 0.64874522 0.97570718
vt 0.64874522 0.98125210
vt 0.64874522 0.97570718
vt 0.64874522 0.98125210
vt 0.65038030 0.97570718
vt 0.65038030 0.98125210
vt 0.65038030 0.97570718
vt 0.65038030 0.98125210
vt 0.65038030 0.97570718
vt 0.65038030 0.98125210
vt 0.65038030 0.97570718
vt 0.65038030 0.98125210
vt 0.65201538 0.97570718
vt 0.65201538 0.98125210
vt 0.65201538 0.97570718
vt 0.65201538 0.98125210
vt 0.65201538 0.97570718
vt 0.65201538 0.98125210
vt 0.65201538 0.97570718
vt 0.65201538 0.98125210
vt 0.65365045 0.97570718
vt 0.65365045 0.98125210
vt 0.65365045 0.97570718
vt 0.65365045 0.98125210
vt 0.65365045 0.97570718
vt 0.65365045 0.98125210
vt 0.65365045 0.97570718
vt 0.65365045 0.98125210
vt 0.65528553 0.97570718
vt 0.65528553 0.98125210
vt 0.65528553 0.97570718
vt 0.65528553 0.98125210
vt 0.65528553 0.97570718
vt 0.65528553 0.98125210
vt 0.65528553 0.97570718
vt 0.65528553 0.98125210
vt 0.65692061 0.97570718
vt 0.65692061 0.98125210
vt 0.65692061 0.97570718
vt 0.65692061 0.98125210
vt 0.65692061 0.97570718
vt 0.65692061 0.98125210
vt 0.65692061 0.97570718
vt 0.65692061 0.98125210
vt 0.65855569 0.97570718
vt 0.65855569 0.98125210
vt 0.65855569 0.97570718
vt 0.65855569 0.98125210
vt 0.65855569 0.97570718
vt 0.65855569 0.98125210
vt 0.65855569 0.97570718
vt 0.65855569 0.98125210
vt 0.66019077 0.98125210
vt 0.66019077 0.97570718
vt 0.66019077 0.97570718
vt 0.66019077 0.98125210
vt 0.66019077 0.97570718
vt 0.66019077 0.98125210
vt 0.66019077 0.97570718
vt 0.66019077 0.98125210
vn 0.0000000e+0 1.00000000 -5.6704993e-18
vn 1.00000000 0.0000000e+0 -4.2418073e-16
vn 1.00000000 0.0000000e+0 -4.2418073e-16
vn 0.0000000e+0 1.00000000 -5.6704993e-18
vn 0.99144486 0.0000000e+0 0.13052619
vn 0.99144486 0.0000000e+0 0.13052619
vn 0.0000000e+0 1.00000000 -5.6704993e-18
vn 0.96592583 0.0000000e+0 0.25881905
vn 0.96592583 0.0000000e+0 0.25881905
vn 0.0000000e+0 1.00000000 -5.6704993e-18
vn 0.92387953 0.0000000e+0 0.38268343
vn 0.92387953 0.0000000e+0 0.38268343
vn 0.0000000e+0 1.00000000 -5.6704993e-18
vn 0.86602540 0.0000000e+0 0.50000000
vn 0.86602540 0.0000000e+0 0.50000000
vn 0.0000000e+0 1.00000000 -5.6704993e-18
vn 0.79335334 0.0000000e+0 0.60876143
vn 0.79335334 0.0000000e+0 0.60876143
vn 0.0000000e+0 1.00000000 -5.6704993e-18
vn 0.70710678 0.0000000e+0 0.70710678
vn 0.70710678 0.0000000e+0 0.70710678
vn 0.0000000e+0 1.00000000 -5.6704993e-18
vn 0.60876143 0.0000000e+0 0.79335334
vn 0.60876143 0.0000000e+0 0.79335334
vn 0.0000000e+0 1.00000000 -5.6704993e-18
vn 0.50000000 0.0000000e+0 0.86602540
vn 0.50000000 0.0000000e+0 0.86602540
vn 0.0000000e+0 1.00000000 -5.6704993e-18
vn 0.38268343 0.0000000e+0 0.92387953
vn 0.38268343 0.0000000e+0 0.92387953
vn 0.0000000e+0 1.00000000 -5.6704993e-18
vn 0.25881905 0.0000000e+0 0.96592583
vn 0.25881905 0.0000000e+0 0.96592583
vn 0.0000000e+0 1.00000000 -5.6704993e-18
vn 0.13052619 0.0000000e+0 0.99144486
vn 0.13052619 0.0000000e+0 0.99144486
vn 0.0000000e+0 1.00000000 -5.6704993e-18
vn 6.3279421e-16 0.0000000e+0 1.00000000
vn 6.3279421e-16 0.0000000e+0 1.00000000
vn 0.0000000e+0 1.00000000 -5.6704993e-18
vn -0.13052619 0.0000000e+0 0.99144486
vn -0.13052619 0.0000000e+0 0.99144486
vn 0.0000000e+0 1.00000000 -5.6704993e-18
vn -0.25881905 0.0000000e+0 0.96592583
vn -0.25881905 0.0000000e+0 0.96592583
vn 0.0000000e+0 1.00000000 -5.6704993e-18
vn -0.38268343 0.0000000e+0 0.92387953
vn -0.38268343 0.0000000e+0 0.92387953
vn 0.0000000e+0 1.00000000 -5.6704993e-18
vn -0.50000000 0.0000000e+0 0.86602540
vn -0.50000000 0.0000000e+0 0.86602540
vn 0.0000000e+0 1.00000000 -5.6704993e-18
vn -0.60876143 0.0000000e+0 0.79335334
vn -0.60876143 0.0000000e+0 0.79335334
vn 0.0000000e+0 1.00000000 -5.6704993e-18
vn -0.70710678 0.0000000e+0 0.70710678
vn -0.70710678 0.0000000e+0 0.70710678
vn 0.0000000e+0 1.00000000 -5.6704993e-18
vn -0.79335334 0.0000000e+0 0.60876143
vn -0.79335334 0.0000000e+0 0.60876143
vn 0.0000000e+0 1.00000000 -5.6704993e-18
vn -0.86602540 0.0000000e+0 0.50000000
vn -0.86602540 0.0000000e+0 0.50000000
vn 0.0000000e+0 1.00000000 -5.6704993e-18
vn -0.92387953 0.0000000e+0 0.38268343
vn -0.92387953 0.0000000e+0 0.38268343
vn 0.0000000e+0 1.00000000 -5.6704993e-18
vn -0.96592583 0.0000000e+0 0.25881905
vn -0.96592583 0.0000000e+0 0.25881905
vn 0.0000000e+0 1.00000000 -5.6704993e-18
vn -0.99144486 0.0000000e+0 0.13052619
vn -0.99144486 0.0000000e+0 0.13052619
vn 0.0000000e+0 1.00000000 -5.6704993e-18
vn -1.00000000 0.0000000e+0 5.8411773e-16
vn -1.00000000 0.0000000e+0 5.8411773e-16
vn 0.0000000e+0 1.00000000 -5.6704993e-18
vn -0.99144486 0.0000000e+0 -0.13052619
vn -0.99144486 0.0000000e+0 -0.13052619
vn 0.0000000e+0 1.00000000 -5.6704993e-18
vn -0.96592583 0.0000000e+0 -0.25881905
vn -0.96592583 0.0000000e+0 -0.25881905
vn 0.0000000e+0 1.00000000 -5.6704993e-18
vn -0.92387953 0.0000000e+0 -0.38268343
vn -0.92387953 0.0000000e+0 -0.38268343
vn 0.0000000e+0 1.00000000 -5.6704993e-18
vn -0.86602540 0.0000000e+0 -0.50000000
vn -0.86602540 0.0000000e+0 -0.50000000
vn 0.0000000e+0 1.00000000 -5.6704993e-18
vn -0.79335334 0.0000000e+0 -0.60876143
vn -0.79335334 0.0000000e+0 -0.60876143
vn 0.0000000e+0 1.00000000 -5.6704993e-18
vn -0.70710678 0.0000000e+0 -0.70710678
vn -0.70710678 0.0000000e+0 -0.70710678
vn 0.0000000e+0 1.00000000 -5.6704993e-18
vn -0.60876143 0.0000000e+0 -0.79335334
vn -0.60876143 0.0000000e+0 -0.79335334
vn 0.0000000e+0 1.00000000 -5.6704993e-18
vn -0.50000000 0.0000000e+0 -0.86602540
vn -0.50000000 0.0000000e+0 -0.86602540
vn 0.0000000e+0 1.00000000 -5.6704993e-18
vn -0.38268343 0.0000000e+0 -0.92387953
vn -0.38268343 0.0000000e+0 -0.92387953
vn 0.0000000e+0 1.00000000 -5.6704993e-18
vn -0.25881905 0.0000000e+0 -0.96592583
vn -0.25881905 0.0000000e+0 -0.96592583
vn 0.0000000e+0 1.00000000 -5.6704993e-18
vn -0.13052619 0.0000000e+0 -0.99144486
vn -0.13052619 0.0000000e+0 -0.99144486
vn 0.0000000e+0 1.00000000 -5.6704993e-18
vn -1.1404203e-15 0.0000000e+0 -1.00000000
vn -1.1404203e-15 0.0000000e+0 -1.00000000
vn 0.0000000e+0 1.00000000 -5.6704993e-18
vn 0.13052619 0.0000000e+0 -0.99144486
vn 0.13052619 0.0000000e+0 -0.99144486
vn 0.0000000e+0 1.00000000 -5.6704993e-18
vn 0.25881905 0.0000000e+0 -0.96592583
vn 0.25881905 0.0000000e+0 -0.96592583
vn 0.0000000e+0 1.00000000 -5.6704993e-18
vn 0.38268343 0.0000000e+0 -0.92387953
vn 0.38268343 0.0000000e+0 -0.92387953
vn 0.0000000e+0 1.00000000 -5.6704993e-18
vn 0.50000000 0.0000000e+0 -0.86602540
vn 0.50000000 0.0000000e+0 -0.86602540
vn 0.0000000e+0 1.00000000 -5.6704993e-18
vn 0.60876143 0.0000000e+0 -0.79335334
vn 0.60876143 0.0000000e+0 -0.79335334
vn 0.0000000e+0 1.00000000 -5.6704993e-18
vn 0.70710678 0.0000000e+0 -0.70710678
vn 0.70710678 0.0000000e+0 -0.70710678
vn 0.0000000e+0 1.00000000 -5.6704993e-18
vn 0.79335334 0.0000000e+0 -0.60876143
vn 0.79335334 0.0000000e+0 -0.60876143
vn 0.0000000e+0 1.00000000 -5.6704993e-18
vn 0.86602540 0.0000000e+0 -0.50000000
vn 0.86602540 0.0000000e+0 -0.50000000
vn 0.0000000e+0 1.00000000 -5.6704993e-18
vn 0.92387953 0.0000000e+0 -0.38268343
vn 0.92387953 0.0000000e+0 -0.38268343
vn 0.0000000e+0 1.00000000 -5.6704993e-18
vn 0.96592583 0.0000000e+0 -0.25881905
vn 0.96592583 0.0000000e+0 -0.25881905
vn 0.0000000e+0 1.00000000 -5.6704993e-18
vn 0.99144486 0.0000000e+0 -0.13052619
vn 0.99144486 0.0000000e+0 -0.13052619
vn 0.0000000e+0 -1.00000000 -7.0881241e-18
vn 1.00000000 0.0000000e+0 -4.2418073e-16
vn 1.00000000 0.0000000e+0 -4.2418073e-16
vn 0.0000000e+0 -1.00000000 -7.0881241e-18
vn 0.99144486 0.0000000e+0 0.13052619
vn 0.99144486 0.0000000e+0 0.13052619
vn 0.0000000e+0 -1.00000000 -7.0881241e-18
vn 0.96592583 0.0000000e+0 0.25881905
vn 0.96592583 0.0000000e+0 0.25881905
vn 0.0000000e+0 -1.00000000 -7.0881241e-18
vn 0.92387953 0.0000000e+0 0.38268343
vn 0.92387953 0.0000000e+0 0.38268343
vn 0.0000000e+0 -1.00000000 -7.0881241e-18
vn 0.86602540 0.0000000e+0 0.50000000
vn 0.86602540 0.0000000e+0 0.50000000
vn 0.0000000e+0 -1.00000000 -7.0881241e-18
vn 0.79335334 0.0000000e+0 0.60876143
vn 0.79335334 0.0000000e+0 0.60876143
vn 0.0000000e+0 -1.00000000 -7.0881241e-18
vn 0.70710678 0.0000000e+0 0.70710678
vn 0.70710678 0.0000000e+0 0.70710678
vn 0.0000000e+0 -1.00000000 -7.0881241e-18
vn 0.60876143 0.0000000e+0 0.79335334
vn 0.60876143 0.0000000e+0 0.79335334
vn 0.0000000e+0 -1.00000000 -7.0881241e-18
vn 0.50000000 0.0000000e+0 0.86602540
vn 0.50000000 0.0000000e+0 0.86602540
vn 0.0000000e+0 -1.00000000 -7.0881241e-18
vn 0.38268343 0.0000000e+0 0.92387953
vn 0.38268343 0.0000000e+0 0.92387953
vn 0.0000000e+0 -1.00000000 -7.0881241e-18
vn 0.25881905 0.0000000e+0 0.96592583
vn 0.25881905 0.0000000e+0 0.96592583
vn 0.0000000e+0 -1.00000000 -7.0881241e-18
vn 0.13052619 0.0000000e+0 0.99144486
vn 0.13052619 0.0000000e+0 0.99144486
vn 0.0000000e+0 -1.00000000 -7.0881241e-18
vn 6.3279421e-16 0.0000000e+0 1.00000000
vn 6.3279421e-16 0.0000000e+0 1.00000000
vn 0.0000000e+0 -1.00000000 -7.0881241e-18
vn -0.13052619 0.0000000e+0 0.99144486
vn -0.13052619 0.0000000e+0 0.99144486
vn 0.0000000e+0 -1.00000000 -7.0881241e-18
vn -0.25881905 0.0000000e+0 0.96592583
vn -0.25881905 0.0000000e+0 0.96592583
vn 0.0000000e+0 -1.00000000 -7.0881241e-18
vn -0.38268343 0.0000000e+0 0.92387953
vn -0.38268343 0.0000000e+0 0.92387953
vn 0.0000000e+0 -1.00000000 -7.0881241e-18
vn -0.50000000 0.0000000e+0 0.86602540
vn -0.50000000 0.0000000e+0 0.86602540
vn 0.0000000e+0 -1.00000000 -7.0881241e-18
vn -0.60876143 0.0000000e+0 0.79335334
vn -0.60876143 0.0000000e+0 0.79335334
vn 0.0000000e+0 -1.00000000 -7.0881241e-18
vn -0.70710678 0.0000000e+0 0.70710678
vn -0.70710678 0.0000000e+0 0.70710678
vn 0.0000000e+0 -1.00000000 -7.0881241e-18
vn -0.79335334 0.0000000e+0 0.60876143
vn -0.79335334 0.0000000e+0 0.60876143
vn 0.0000000e+0 -1.00000000 -7.0881241e-18
vn -0.86602540 0.0000000e+0 0.50000000
vn -0.86602540 0.0000000e+0 0.50000000
vn 0.0000000e+0 -1.00000000 -7.0881241e-18
vn -0.92387953 0.0000000e+0 0.38268343
vn -0.92387953 0.0000000e+0 0.38268343
vn 0.0000000e+0 -1.00000000 -7.0881241e-18
vn -0.96592583 0.0000000e+0 0.25881905
vn -0.96592583 0.0000000e+0 0.25881905
vn 0.0000000e+0 -1.00000000 -7.0881241e-18
vn -0.99144486 0.0000000e+0 0.13052619
vn -0.99144486 0.0000000e+0 0.13052619
vn 0.0000000e+0 -1.00000000 -7.0881241e-18
vn -1.00000000 0.0000000e+0 5.8411773e-16
vn -1.00000000 0.0000000e+0 5.8411773e-16
vn 0.0000000e+0 -1.00000000 -7.0881241e-18
vn -0.99144486 0.0000000e+0 -0.13052619
vn -0.99144486 0.0000000e+0 -0.13052619
vn 0.0000000e+0 -1.00000000 -7.0881241e-18
vn -0.96592583 0.0000000e+0 -0.25881905
vn -0.96592583 0.0000000e+0 -0.25881905
vn 0.0000000e+0 -1.00000000 -7.0881241e-18
vn -0.92387953 0.0000000e+0 -0.38268343
vn -0.92387953 0.0000000e+0 -0.38268343
vn 0.0000000e+0 -1.00000000 -7.0881241e-18
vn -0.86602540 0.0000000e+0 -0.50000000
vn -0.86602540 0.0000000e+0 -0.50000000
vn 0.0000000e+0 -1.00000000 -7.0881241e-18
vn -0.79335334 0.0000000e+0 -0.60876143
vn -0.79335334 0.0000000e+0 -0.60876143
vn 0.0000000e+0 -1.00000000 -7.0881241e-18
vn -0.70710678 0.0000000e+0 -0.70710678
vn -0.70710678 0.0000000e+0 -0.70710678
vn 0.0000000e+0 -1.00000000 -7.0881241e-18
vn -0.60876143 0.0000000e+0 -0.79335334
vn -0.60876143 0.0000000e+0 -0.79335334
vn 0.0000000e+0 -1.00000000 -7.0881241e-18
vn -0.50000000 0.0000000e+0 -0.86602540
vn -0.50000000 0.0000000e+0 -0.86602540
vn 0.0000000e+0 -1.00000000 -7.0881241e-18
vn -0.38268343 0.0000000e+0 -0.92387953
vn -0.38268343 0.0000000e+0 -0.92387953
vn 0.0000000e+0 -1.00000000 -7.0881241e-18
vn -0.25881905 0.0000000e+0 -0.96592583
vn -0.25881905 0.0000000e+0 -0.96592583
vn 0.0000000e+0 -1.00000000 -7.0881241e-18
vn -0.13052619 0.0000000e+0 -0.99144486
vn -0.13052619 0.0000000e+0 -0.99144486
vn 0.0000000e+0 -1.00000000 -7.0881241e-18
vn -1.1404203e-15 0.0000000e+0 -1.00000000
vn -1.1404203e-15 0.0000000e+0 -1.00000000
vn 0.0000000e+0 -1.00000000 -7.0881241e-18
vn 0.13052619 0.0000000e+0 -0.99144486
vn 0.13052619 0.0000000e+0 -0.99144486
vn 0.0000000e+0 -1.00000000 -7.0881241e-18
vn 0.25881905 0.0000000e+0 -0.96592583
vn 0.25881905 0.0000000e+0 -0.96592583
vn 0.0000000e+0 -1.00000000 -7.0881241e-18
vn 0.38268343 0.0000000e+0 -0.92387953
vn 0.38268343 0.0000000e+0 -0.92387953
vn 0.0000000e+0 -1.00000000 -7.0881241e-18
vn 0.50000000 0.0000000e+0 -0.86602540
vn 0.50000000 0.0000000e+0 -0.86602540
vn 0.0000000e+0 -1.00000000 -7.0881241e-18
vn 0.60876143 0.0000000e+0 -0.79335334
vn 0.60876143 0.0000000e+0 -0.79335334
vn 0.0000000e+0 -1.00000000 -7.0881241e-18
vn 0.70710678 0.0000000e+0 -0.70710678
vn 0.70710678 0.0000000e+0 -0.70710678
vn 0.0000000e+0 -1.00000000 -7.0881241e-18
vn 0.79335334 0.0000000e+0 -0.60876143
vn 0.79335334 0.0000000e+0 -0.60876143
vn 0.0000000e+0 -1.00000000 -7.0881241e-18
vn 0.86602540 0.0000000e+0 -0.50000000
vn 0.86602540 0.0000000e+0 -0.50000000
vn 0.0000000e+0 -1.00000000 -7.0881241e-18
vn 0.92387953 0.0000000e+0 -0.38268343
vn 0.92387953 0.0000000e+0 -0.38268343
vn 0.0000000e+0 -1.00000000 -7.0881241e-18
vn 0.96592583 0.0000000e+0 -0.25881905
vn 0.96592583 0.0000000e+0 -0.25881905
vn 0.0000000e+0 -1.00000000 -7.0881241e-18
vn 0.99144486 0.0000000e+0 -0.13052619
vn 0.99144486 0.0000000e+0 -0.13052619
g RLV_1_Fairing_1_RLV_1_Fairing_1_auv
usemtl RLV_1_Fairing_1_auv
s 1
f 1/96/1 48/94/142 47/89/139 46/85/136 45/82/133 44/77/130 43/74/127 42/70/124 41/66/121 40/60/118 39/56/115 38/52/112 37/48/109 36/44/106 35/42/103 34/38/100 33/34/97 32/30/94 31/25/91 30/22/88 29/18/85 28/14/82 27/10/79 26/6/76 25/2/73 24/4/70 23/9/67 22/13/64 21/17/61 20/21/58 19/26/55 18/29/52 17/33/49 16/37/46 15/41/43 14/46/40 13/50/37 12/54/34 11/58/31 10/62/28 9/65/25 8/68/22 7/73/19 6/78/16 5/81/13 4/86/10 3/90/7 2/92/4
f 50/3/148 51/8/151 52/12/154 53/16/157 54/20/160 55/24/163 56/28/166 57/32/169 58/36/172 59/40/175 60/45/178 61/49/181 62/53/184 63/57/187 64/61/190 65/64/193 66/67/196 67/72/199 68/75/202 69/80/205 70/83/208 71/87/211 72/91/214 73/95/217 74/93/220 75/88/223 76/84/226 77/79/229 78/76/232 79/71/235 80/69/238 81/63/241 82/59/244 83/55/247 84/51/250 85/47/253 86/43/256 87/39/259 88/35/262 89/31/265 90/27/268 91/23/271 92/19/274 93/15/277 94/11/280 95/7/283 96/5/286 49/1/145
s 2
f 1/148/2 49/147/146 96/155/287 48/156/143
f 2/140/6 50/139/150 49/147/147 1/148/3
f 3/132/9 51/131/153 50/139/149 2/140/5
f 4/124/12 52/123/156 51/131/152 3/132/8
f 5/115/15 53/116/159 52/123/155 4/124/11
f 6/108/18 54/107/162 53/116/158 5/115/14
f 7/100/21 55/99/165 54/107/161 6/108/17
f 8/192/24 56/191/168 55/199/164 7/200/20
f 9/184/27 57/183/171 56/191/167 8/192/23
f 10/176/30 58/175/174 57/183/170 9/184/26
f 11/168/33 59/167/177 58/175/173 10/176/29
f 12/160/36 60/159/180 59/167/176 11/168/32
f 13/152/39 61/151/183 60/159/179 12/160/35
f 14/144/42 62/143/186 61/151/182 13/152/38
f 15/135/45 63/136/189 62/143/185 14/144/41
f 16/128/48 64/127/192 63/136/188 15/135/44
f 17/120/51 65/119/195 64/127/191 16/128/47
f 18/112/54 66/111/198 65/119/194 17/120/50
f 19/104/57 67/103/201 66/111/197 18/112/53
f 20/186/60 68/185/204 67/194/200 19/193/56
f 21/178/63 69/177/207 68/185/203 20/186/59
f 22/170/66 70/169/210 69/177/206 21/178/62
f 23/162/69 71/161/213 70/169/209 22/170/65
f 24/154/72 72/153/216 71/161/212 23/162/68
f 25/146/75 73/145/219 72/153/215 24/154/71
f 26/138/78 74/137/222 73/145/218 25/146/74
f 27/130/81 75/129/225 74/137/221 26/138/77
f 28/122/84 76/121/228 75/129/224 27/130/80
f 29/114/87 77/113/231 76/121/227 28/122/83
f 30/106/90 78/105/234 77/113/230 29/114/86
f 31/98/93 79/97/237 78/105/233 30/106/89
f 32/190/96 80/189/240 79/197/236 31/198/92
f 33/182/99 81/181/243 80/189/239 32/190/95
f 34/174/102 82/173/246 81/181/242 33/182/98
f 35/166/105 83/165/249 82/173/245 34/174/101
f 36/158/108 84/157/252 83/165/248 35/166/104
f 37/150/111 85/149/255 84/157/251 36/158/107
f 38/142/114 86/141/258 85/149/254 37/150/110
f 39/134/117 87/133/261 86/141/257 38/142/113
f 40/126/120 88/125/264 87/133/260 39/134/116
f 41/118/123 89/117/267 88/125/263 40/126/119
f 42/110/126 90/109/270 89/117/266 41/118/122
f 43/102/129 91/101/273 90/109/269 42/110/125
f 44/188/132 92/187/276 91/195/272 43/196/128
f 45/180/135 93/179/279 92/187/275 44/188/131
f 46/172/138 94/171/282 93/179/278 45/180/134
f 47/164/141 95/163/285 94/171/281 46/172/137
f 48/156/144 96/155/288 95/163/284 47/164/140
