# Exported from Wings 3D 1.5.4
mtllib plower.mtl
o 1
#16 vertices, 8 faces
v 2.5000000e-2 1.7600375e-17 0.12500000
v 1.7677670e-2 -1.7677670e-2 0.12500000
v 4.2196299e-18 -2.5000000e-2 0.12500000
v -1.7677670e-2 -1.7677670e-2 0.12500000
v -2.5000000e-2 1.4538758e-17 0.12500000
v -1.7677670e-2 1.7677670e-2 0.12500000
v -1.9036041e-18 2.5000000e-2 0.12500000
v 1.7677670e-2 1.7677670e-2 0.12500000
v 2.5000000e-2 1.4538758e-17 0.0000000e+0
v 1.7677670e-2 -1.7677670e-2 0.0000000e+0
v 4.2196299e-18 -2.5000000e-2 6.9388939e-18
v -1.7677670e-2 -1.7677670e-2 0.0000000e+0
v -2.5000000e-2 1.1477141e-17 0.0000000e+0
v -1.7677670e-2 1.7677670e-2 0.0000000e+0
v -1.9036041e-18 2.5000000e-2 0.0000000e+0
v 1.7677670e-2 1.7677670e-2 0.0000000e+0
vt 0.69646471 0.23881887
vt 0.69646471 0.25883715
vt 0.69952898 0.23881887
vt 0.69952898 0.25883715
vt 0.70259324 0.23881887
vt 0.70259324 0.25883715
vt 0.70565751 0.23881887
vt 0.70565751 0.25883715
vt 0.70872177 0.23881887
vt 0.70872177 0.25883715
vt 0.71178604 0.23881887
vt 0.71178604 0.25883715
vt 0.71485031 0.23881887
vt 0.71485031 0.25883715
vt 0.71791457 0.23881887
vt 0.71791457 0.25883715
vt 0.72097884 0.23881887
vt 0.72097884 0.25883715
vn 1.00000000 1.2016967e-16 3.0665868e-18
vn 0.70710678 -0.70710678 3.0665868e-17
vn 9.0127256e-17 -1.00000000 3.6799042e-17
vn -0.70710678 -0.70710678 2.1466108e-17
vn -1.00000000 -1.8025451e-16 -3.0665868e-18
vn -0.70710678 0.70710678 -3.0665868e-17
vn -1.5021209e-16 1.00000000 -3.6799042e-17
vn 0.70710678 0.70710678 -2.1466108e-17
vn 1.00000000 1.2016967e-16 3.0665868e-18
vn 0.70710678 -0.70710678 3.0665868e-17
vn 9.0127256e-17 -1.00000000 3.6799042e-17
vn -0.70710678 -0.70710678 2.1466108e-17
vn -1.00000000 -1.8025451e-16 -3.0665868e-18
vn -0.70710678 0.70710678 -3.0665868e-17
vn -1.5021209e-16 1.00000000 -3.6799042e-17
vn 0.70710678 0.70710678 -2.1466108e-17
g 1_1_auv
usemtl 1_auv
s 1
f 1/6/1 9/5/9 16/7/16 8/8/8
f 2/4/2 10/3/10 9/5/9 1/6/1
f 3/2/3 11/1/11 10/3/10 2/4/2
f 4/16/4 12/15/12 11/17/11 3/18/3
f 5/14/5 13/13/13 12/15/12 4/16/4
f 6/12/6 14/11/14 13/13/13 5/14/5
f 7/10/7 15/9/15 14/11/14 6/12/6
f 8/8/8 16/7/16 15/9/15 7/10/7
