# Exported from Wings 3D 1.5.4
mtllib HLV_Nose_1_Collider.mtl
o HLV_Nose_1_Collider
#33 vertices, 33 faces
v 1.25000000 -1.75000000 -0.24864046
v 1.25000000 -1.75000000 0.24864046
v 1.05969883 -1.75000000 0.70806812
v 0.70806812 -1.75000000 1.05969883
v 0.24864046 -1.75000000 1.25000000
v -0.24864046 -1.75000000 1.25000000
v -0.70806812 -1.75000000 1.05969883
v -1.05969883 -1.75000000 0.70806812
v -1.25000000 -1.75000000 0.24864046
v -1.25000000 -1.75000000 -0.24864046
v -1.05969883 -1.75000000 -0.70806812
v -0.70806812 -1.75000000 -1.05969883
v -0.24864046 -1.75000000 -1.25000000
v 0.24864046 -1.75000000 -1.25000000
v 0.70806812 -1.75000000 -1.05969883
v 1.05969883 -1.75000000 -0.70806812
v -9.7144515e-17 1.90000000 -2.4286129e-17
v 1.25000000 -2.25000000 -0.24864046
v 1.25000000 -2.25000000 0.24864046
v 1.05969883 -2.25000000 0.70806812
v 0.70806812 -2.25000000 1.05969883
v 0.24864046 -2.25000000 1.25000000
v -0.24864046 -2.25000000 1.25000000
v -0.70806812 -2.25000000 1.05969883
v -1.05969883 -2.25000000 0.70806812
v -1.25000000 -2.25000000 0.24864046
v -1.25000000 -2.25000000 -0.24864046
v -1.05969883 -2.25000000 -0.70806812
v -0.70806812 -2.25000000 -1.05969883
v -0.24864046 -2.25000000 -1.25000000
v 0.24864046 -2.25000000 -1.25000000
v 0.70806812 -2.25000000 -1.05969883
v 1.05969883 -2.25000000 -0.70806812
vn 0.87404500 0.32399297 -0.36204129
vn 0.94605949 0.32399297 0.0000000e+0
vn 1.00000000 0.0000000e+0 0.0000000e+0
vn 0.92387953 0.0000000e+0 -0.38268343
vn 0.87404500 0.32399297 0.36204129
vn 0.94605949 0.32399297 0.0000000e+0
vn 1.00000000 0.0000000e+0 0.0000000e+0
vn 0.92387953 0.0000000e+0 0.38268343
vn 0.66896508 0.32399297 0.66896508
vn 0.87404500 0.32399297 0.36204129
vn 0.92387953 0.0000000e+0 0.38268343
vn 0.70710678 0.0000000e+0 0.70710678
vn 0.36204129 0.32399297 0.87404500
vn 0.66896508 0.32399297 0.66896508
vn 0.70710678 0.0000000e+0 0.70710678
vn 0.38268343 0.0000000e+0 0.92387953
vn 0.0000000e+0 0.32399297 0.94605949
vn 0.36204129 0.32399297 0.87404500
vn 0.38268343 0.0000000e+0 0.92387953
vn 0.0000000e+0 0.0000000e+0 1.00000000
vn -0.36204129 0.32399297 0.87404500
vn 0.0000000e+0 0.32399297 0.94605949
vn 0.0000000e+0 0.0000000e+0 1.00000000
vn -0.38268343 0.0000000e+0 0.92387953
vn -0.66896508 0.32399297 0.66896508
vn -0.36204129 0.32399297 0.87404500
vn -0.38268343 0.0000000e+0 0.92387953
vn -0.70710678 0.0000000e+0 0.70710678
vn -0.87404500 0.32399297 0.36204129
vn -0.66896508 0.32399297 0.66896508
vn -0.70710678 0.0000000e+0 0.70710678
vn -0.92387953 0.0000000e+0 0.38268343
vn -0.94605949 0.32399297 0.0000000e+0
vn -0.87404500 0.32399297 0.36204129
vn -0.92387953 0.0000000e+0 0.38268343
vn -1.00000000 0.0000000e+0 0.0000000e+0
vn -0.87404500 0.32399297 -0.36204129
vn -0.94605949 0.32399297 0.0000000e+0
vn -1.00000000 0.0000000e+0 0.0000000e+0
vn -0.92387953 0.0000000e+0 -0.38268343
vn -0.66896508 0.32399297 -0.66896508
vn -0.87404500 0.32399297 -0.36204129
vn -0.92387953 0.0000000e+0 -0.38268343
vn -0.70710678 0.0000000e+0 -0.70710678
vn -0.36204129 0.32399297 -0.87404500
vn -0.66896508 0.32399297 -0.66896508
vn -0.70710678 0.0000000e+0 -0.70710678
vn -0.38268343 0.0000000e+0 -0.92387953
vn 0.0000000e+0 0.32399297 -0.94605949
vn -0.36204129 0.32399297 -0.87404500
vn -0.38268343 0.0000000e+0 -0.92387953
vn 0.0000000e+0 0.0000000e+0 -1.00000000
vn 0.36204129 0.32399297 -0.87404500
vn 0.0000000e+0 0.32399297 -0.94605949
vn 0.0000000e+0 0.0000000e+0 -1.00000000
vn 0.38268343 0.0000000e+0 -0.92387953
vn 0.66896508 0.32399297 -0.66896508
vn 0.36204129 0.32399297 -0.87404500
vn 0.38268343 0.0000000e+0 -0.92387953
vn 0.70710678 0.0000000e+0 -0.70710678
vn 0.87404500 0.32399297 -0.36204129
vn 0.66896508 0.32399297 -0.66896508
vn 0.70710678 0.0000000e+0 -0.70710678
vn 0.92387953 0.0000000e+0 -0.38268343
vn 0.87404500 0.32399297 -0.36204129
vn 0.66896508 0.32399297 -0.66896508
vn 0.36204129 0.32399297 -0.87404500
vn 0.0000000e+0 0.32399297 -0.94605949
vn -0.36204129 0.32399297 -0.87404500
vn -0.66896508 0.32399297 -0.66896508
vn -0.87404500 0.32399297 -0.36204129
vn -0.94605949 0.32399297 0.0000000e+0
vn -0.87404500 0.32399297 0.36204129
vn -0.66896508 0.32399297 0.66896508
vn -0.36204129 0.32399297 0.87404500
vn 0.0000000e+0 0.32399297 0.94605949
vn 0.36204129 0.32399297 0.87404500
vn 0.66896508 0.32399297 0.66896508
vn 0.87404500 0.32399297 0.36204129
vn 0.94605949 0.32399297 0.0000000e+0
vn 0.0000000e+0 -1.00000000 -1.2279230e-16
vn 1.00000000 0.0000000e+0 0.0000000e+0
vn 0.92387953 0.0000000e+0 -0.38268343
vn 0.0000000e+0 -1.00000000 -1.2279230e-16
vn 1.00000000 0.0000000e+0 0.0000000e+0
vn 0.92387953 0.0000000e+0 0.38268343
vn 0.0000000e+0 -1.00000000 -1.2279230e-16
vn 0.92387953 0.0000000e+0 0.38268343
vn 0.70710678 0.0000000e+0 0.70710678
vn 0.0000000e+0 -1.00000000 -1.2279230e-16
vn 0.70710678 0.0000000e+0 0.70710678
vn 0.38268343 0.0000000e+0 0.92387953
vn 0.0000000e+0 -1.00000000 -1.2279230e-16
vn 0.38268343 0.0000000e+0 0.92387953
vn 0.0000000e+0 0.0000000e+0 1.00000000
vn 0.0000000e+0 -1.00000000 -1.2279230e-16
vn 0.0000000e+0 0.0000000e+0 1.00000000
vn -0.38268343 0.0000000e+0 0.92387953
vn 0.0000000e+0 -1.00000000 -1.2279230e-16
vn -0.38268343 0.0000000e+0 0.92387953
vn -0.70710678 0.0000000e+0 0.70710678
vn 0.0000000e+0 -1.00000000 -1.2279230e-16
vn -0.70710678 0.0000000e+0 0.70710678
vn -0.92387953 0.0000000e+0 0.38268343
vn 0.0000000e+0 -1.00000000 -1.2279230e-16
vn -0.92387953 0.0000000e+0 0.38268343
vn -1.00000000 0.0000000e+0 0.0000000e+0
vn 0.0000000e+0 -1.00000000 -1.2279230e-16
vn -1.00000000 0.0000000e+0 0.0000000e+0
vn -0.92387953 0.0000000e+0 -0.38268343
vn 0.0000000e+0 -1.00000000 -1.2279230e-16
vn -0.92387953 0.0000000e+0 -0.38268343
vn -0.70710678 0.0000000e+0 -0.70710678
vn 0.0000000e+0 -1.00000000 -1.2279230e-16
vn -0.70710678 0.0000000e+0 -0.70710678
vn -0.38268343 0.0000000e+0 -0.92387953
vn 0.0000000e+0 -1.00000000 -1.2279230e-16
vn -0.38268343 0.0000000e+0 -0.92387953
vn 0.0000000e+0 0.0000000e+0 -1.00000000
vn 0.0000000e+0 -1.00000000 -1.2279230e-16
vn 0.0000000e+0 0.0000000e+0 -1.00000000
vn 0.38268343 0.0000000e+0 -0.92387953
vn 0.0000000e+0 -1.00000000 -1.2279230e-16
vn 0.38268343 0.0000000e+0 -0.92387953
vn 0.70710678 0.0000000e+0 -0.70710678
vn 0.0000000e+0 -1.00000000 -1.2279230e-16
vn 0.70710678 0.0000000e+0 -0.70710678
vn 0.92387953 0.0000000e+0 -0.38268343
g HLV_Nose_1_Collider_default
usemtl default
s 1
f 2//7 19//85 18//82 1//3
f 4//15 21//91 20//89 3//12
f 7//27 24//100 23//98 6//24
f 9//35 26//106 25//104 8//32
f 12//47 29//115 28//113 11//44
f 15//59 32//124 31//122 14//56
f 17//79 3//10 2//5
f 17//76 6//22 5//17
f 17//74 8//30 7//25
f 17//71 11//42 10//37
f 17//69 13//50 12//45
f 17//66 16//62 15//57
s 2
f 3//11 20//88 19//86 2//8
f 5//19 22//94 21//92 4//16
f 8//31 25//103 24//101 7//28
f 11//43 28//112 27//110 10//40
f 13//51 30//118 29//116 12//48
f 16//63 33//127 32//125 15//60
f 17//80 2//6 1//2
f 17//78 4//14 3//9
f 17//75 7//26 6//21
f 17//73 9//34 8//29
f 17//70 12//46 11//41
f 17//68 14//54 13//49
s 3
f 1//1 16//61 17//65
f 17//77 5//18 4//13
f 17//72 10//38 9//33
f 17//67 15//58 14//53
f 19//84 20//87 21//90 22//93 23//96 24//99 25//102 26//105 27//108 28//111 29//114 30//117 31//120 32//123 33//126 18//81
s 4
f 1//4 18//83 33//128 16//64
f 6//23 23//97 22//95 5//20
f 10//39 27//109 26//107 9//36
f 14//55 31//121 30//119 13//52
