# Exported from Wings 3D 1.5.4
mtllib tantares_lv_booster_fuel_tank_s1p5_2_collider.mtl
o tantares_lv_booster_fuel_tank_s1p5_2_collider
#36 vertices, 26 faces
v 0.46875000 4.00000000 0.34314882
v 0.46875000 4.00000000 0.59435118
v 0.34314882 4.00000000 0.81189882
v 0.12560118 4.00000000 0.93750000
v -0.12560118 4.00000000 0.93750000
v -0.34314882 4.00000000 0.81189882
v -0.46875000 4.00000000 0.59435118
v -0.46875000 4.00000000 0.34314882
v -0.34314882 4.00000000 0.12560118
v -0.12560118 4.00000000 0.0000000e+0
v 0.12560118 4.00000000 -1.1102230e-16
v 0.34314882 4.00000000 0.12560118
v 0.93750000 -4.00000000 -0.25120237
v 0.93750000 -4.00000000 0.25120237
v 0.68629763 -4.00000000 0.68629763
v 0.25120237 -4.00000000 0.93750000
v -0.25120237 -4.00000000 0.93750000
v -0.68629763 -4.00000000 0.68629763
v -0.93750000 -4.00000000 0.25120237
v -0.93750000 -4.00000000 -0.25120237
v -0.68629763 -4.00000000 -0.68629763
v -0.25120237 -4.00000000 -0.93750000
v 0.25120237 -4.00000000 -0.93750000
v 0.68629763 -4.00000000 -0.68629763
v 0.12500000 5.87500000 0.65224365
v 0.12500000 5.87500000 0.58525635
v 9.1506351e-2 5.87500000 0.52724365
v 3.3493649e-2 5.87500000 0.49375000
v -3.3493649e-2 5.87500000 0.49375000
v -9.1506351e-2 5.87500000 0.52724365
v -0.12500000 5.87500000 0.58525635
v -0.12500000 5.87500000 0.65224365
v -9.1506351e-2 5.87500000 0.71025635
v -3.3493649e-2 5.87500000 0.74375000
v 3.3493649e-2 5.87500000 0.74375000
v 9.1506351e-2 5.87500000 0.71025635
vn 0.86269974 8.7553112e-2 -0.49807993
vn 0.99828779 5.8493425e-2 0.0000000e+0
vn 0.98360656 0.18032787 0.0000000e+0
vn 0.84520345 0.21796370 -0.48797844
vn 0.86565399 2.9284310e-2 0.49978556
vn 0.99828779 5.8493425e-2 0.0000000e+0
vn 0.98360656 0.18032787 0.0000000e+0
vn 0.85726417 0.14188329 0.49494170
vn 0.49998459 7.8498321e-3 0.86599872
vn 0.86565399 2.9284310e-2 0.49978556
vn 0.49677946 0.11331669 0.86044727
vn 0.85726417 0.14188329 0.49494170
vn 0.0000000e+0 0.0000000e+0 1.00000000
vn 0.49998459 7.8498321e-3 0.86599872
vn 0.0000000e+0 0.10278603 0.99470349
vn 0.49677946 0.11331669 0.86044727
vn -0.49998459 7.8498321e-3 0.86599872
vn 0.0000000e+0 0.0000000e+0 1.00000000
vn -0.49677946 0.11331669 0.86044727
vn 0.0000000e+0 0.10278603 0.99470349
vn -0.86565399 2.9284310e-2 0.49978556
vn -0.49998459 7.8498321e-3 0.86599872
vn -0.85726417 0.14188329 0.49494170
vn -0.49677946 0.11331669 0.86044727
vn -0.99828779 5.8493425e-2 0.0000000e+0
vn -0.86565399 2.9284310e-2 0.49978556
vn -0.98360656 0.18032787 0.0000000e+0
vn -0.85726417 0.14188329 0.49494170
vn -0.86269974 8.7553112e-2 -0.49807993
vn -0.99828779 5.8493425e-2 0.0000000e+0
vn -0.84520345 0.21796370 -0.48797844
vn -0.98360656 0.18032787 0.0000000e+0
vn -0.49703786 0.10868968 -0.86089483
vn -0.86269974 8.7553112e-2 -0.49807993
vn -0.48477146 0.24492144 -0.83964881
vn -0.84520345 0.21796370 -0.48797844
vn -2.9263985e-16 0.11639103 -0.99320347
vn -0.49703786 0.10868968 -0.86089483
vn -1.7995507e-16 0.25465196 -0.96703277
vn -0.48477146 0.24492144 -0.83964881
vn 0.49703786 0.10868968 -0.86089483
vn -2.9263985e-16 0.11639103 -0.99320347
vn 0.48477146 0.24492144 -0.83964881
vn -1.7995507e-16 0.25465196 -0.96703277
vn 0.86269974 8.7553112e-2 -0.49807993
vn 0.49703786 0.10868968 -0.86089483
vn 0.84520345 0.21796370 -0.48797844
vn 0.48477146 0.24492144 -0.83964881
vn 0.0000000e+0 -1.00000000 -7.8571306e-17
vn 0.86269974 8.7553112e-2 -0.49807993
vn 0.99828779 5.8493425e-2 0.0000000e+0
vn 0.0000000e+0 -1.00000000 -7.8571306e-17
vn 0.86565399 2.9284310e-2 0.49978556
vn 0.99828779 5.8493425e-2 0.0000000e+0
vn 0.0000000e+0 -1.00000000 -7.8571306e-17
vn 0.49998459 7.8498321e-3 0.86599872
vn 0.86565399 2.9284310e-2 0.49978556
vn 0.0000000e+0 -1.00000000 -7.8571306e-17
vn 0.0000000e+0 0.0000000e+0 1.00000000
vn 0.49998459 7.8498321e-3 0.86599872
vn 0.0000000e+0 -1.00000000 -7.8571306e-17
vn -0.49998459 7.8498321e-3 0.86599872
vn 0.0000000e+0 0.0000000e+0 1.00000000
vn 0.0000000e+0 -1.00000000 -7.8571306e-17
vn -0.86565399 2.9284310e-2 0.49978556
vn -0.49998459 7.8498321e-3 0.86599872
vn 0.0000000e+0 -1.00000000 -7.8571306e-17
vn -0.99828779 5.8493425e-2 0.0000000e+0
vn -0.86565399 2.9284310e-2 0.49978556
vn 0.0000000e+0 -1.00000000 -7.8571306e-17
vn -0.86269974 8.7553112e-2 -0.49807993
vn -0.99828779 5.8493425e-2 0.0000000e+0
vn 0.0000000e+0 -1.00000000 -7.8571306e-17
vn -0.49703786 0.10868968 -0.86089483
vn -0.86269974 8.7553112e-2 -0.49807993
vn 0.0000000e+0 -1.00000000 -7.8571306e-17
vn -2.9263985e-16 0.11639103 -0.99320347
vn -0.49703786 0.10868968 -0.86089483
vn 0.0000000e+0 -1.00000000 -7.8571306e-17
vn 0.49703786 0.10868968 -0.86089483
vn -2.9263985e-16 0.11639103 -0.99320347
vn 0.0000000e+0 -1.00000000 -7.8571306e-17
vn 0.86269974 8.7553112e-2 -0.49807993
vn 0.49703786 0.10868968 -0.86089483
vn 0.98360656 0.18032787 0.0000000e+0
vn 0.85726417 0.14188329 0.49494170
vn 0.0000000e+0 1.00000000 2.2098180e-15
vn 0.98360656 0.18032787 0.0000000e+0
vn 0.84520345 0.21796370 -0.48797844
vn 0.0000000e+0 1.00000000 2.2098180e-15
vn 0.84520345 0.21796370 -0.48797844
vn 0.48477146 0.24492144 -0.83964881
vn 0.0000000e+0 1.00000000 2.2098180e-15
vn 0.48477146 0.24492144 -0.83964881
vn -1.7995507e-16 0.25465196 -0.96703277
vn 0.0000000e+0 1.00000000 2.2098180e-15
vn -1.7995507e-16 0.25465196 -0.96703277
vn -0.48477146 0.24492144 -0.83964881
vn 0.0000000e+0 1.00000000 2.2098180e-15
vn -0.48477146 0.24492144 -0.83964881
vn -0.84520345 0.21796370 -0.48797844
vn 0.0000000e+0 1.00000000 2.2098180e-15
vn -0.84520345 0.21796370 -0.48797844
vn -0.98360656 0.18032787 0.0000000e+0
vn 0.0000000e+0 1.00000000 2.2098180e-15
vn -0.98360656 0.18032787 0.0000000e+0
vn -0.85726417 0.14188329 0.49494170
vn 0.0000000e+0 1.00000000 2.2098180e-15
vn -0.85726417 0.14188329 0.49494170
vn -0.49677946 0.11331669 0.86044727
vn 0.0000000e+0 1.00000000 2.2098180e-15
vn -0.49677946 0.11331669 0.86044727
vn 0.0000000e+0 0.10278603 0.99470349
vn 0.0000000e+0 1.00000000 2.2098180e-15
vn 0.0000000e+0 0.10278603 0.99470349
vn 0.49677946 0.11331669 0.86044727
vn 0.0000000e+0 1.00000000 2.2098180e-15
vn 0.49677946 0.11331669 0.86044727
vn 0.85726417 0.14188329 0.49494170
vn 0.0000000e+0 1.00000000 2.2098180e-15
g tantares_lv_booster_fuel_tank_s1p5_2_collider_default
usemtl default
s 1
f 2//6 14//54 13//51 1//2
f 2//8 25//86 36//119 3//12
f 4//14 16//60 15//56 3//9
f 4//15 35//115 34//113 5//20
f 7//26 19//69 18//65 6//21
f 7//27 32//106 31//104 8//32
f 9//34 21//75 20//71 8//29
f 9//35 30//100 29//98 10//40
f 12//46 24//84 23//80 11//41
f 12//47 27//91 26//89 1//4
s 2
f 1//1 13//50 24//83 12//45
f 1//3 26//88 25//85 2//7
f 3//10 15//57 14//53 2//5
f 3//11 36//118 35//116 4//16
f 5//18 17//63 16//59 4//13
f 6//23 33//109 32//107 7//28
f 8//30 20//72 19//68 7//25
f 8//31 31//103 30//101 9//36
f 10//38 22//78 21//74 9//33
f 10//39 29//97 28//95 11//44
s 3
f 5//19 34//112 33//110 6//24
f 11//43 28//94 27//92 12//48
f 14//52 15//55 16//58 17//61 18//64 19//67 20//70 21//73 22//76 23//79 24//82 13//49
s 4
f 6//22 18//66 17//62 5//17
f 11//42 23//81 22//77 10//37
f 26//90 27//93 28//96 29//99 30//102 31//105 32//108 33//111 34//114 35//117 36//120 25//87
